<svg xmlns="http://www.w3.org/2000/svg" xmlns:xlink="http://www.w3.org/1999/xlink" width="1240" height="673" viewBox="0 0 1240 673">
  <defs>
    <linearGradient id="linear-gradient" x1="0.5" x2="0.5" y2="1" gradientUnits="objectBoundingBox">
      <stop offset="0" stop-color="#defff8"/>
      <stop offset="0.803" stop-color="#eaf5ff"/>
      <stop offset="1" stop-color="#f0feff"/>
    </linearGradient>
    <clipPath id="clip-path">
      <rect id="Rectángulo_378282" data-name="Rectángulo 378282" width="1030" height="547.002" fill="none"/>
    </clipPath>
    <clipPath id="clip-path-2">
      <rect id="Rectángulo_378283" data-name="Rectángulo 378283" width="74.935" height="74.935" fill="none"/>
    </clipPath>
  </defs>
  <g id="Grupo_1074728" data-name="Grupo 1074728" transform="translate(-180 -3402)">
    <g id="Grupo_1073472" data-name="Grupo 1073472" transform="translate(0 2726)">
      <g id="Grupo_1072965" data-name="Grupo 1072965" transform="translate(0 40.667)">
        <g id="Grupo_1072963" data-name="Grupo 1072963" transform="translate(1420 1350) rotate(180)">
          <rect id="Rectángulo_376022" data-name="Rectángulo 376022" width="1240" height="673" transform="translate(0 41.667)" fill="url(#linear-gradient)"/>
        </g>
      </g>
    </g>
    <g id="Grupo_1074714" data-name="Grupo 1074714" transform="translate(285 3443.376)">
      <g id="Grupo_1074705" data-name="Grupo 1074705">
        <g id="Grupo_1074704" data-name="Grupo 1074704" clip-path="url(#clip-path)">
          <path id="Trazado_824064" data-name="Trazado 824064" d="M84.8,545.883S-17.285,456.662,2.558,309.745C23.105,157.622,131.123,76.687,272.041,107.4c115.186,25.109,189.392,9,308.509-62.772C775.88-73.064,1027.644,54.357,961.779,282.4,929.905,392.762,1063.674,447.292,951.7,546.117Z" transform="translate(0 0)" fill="#f1d8ff"/>
          <path id="Trazado_824065" data-name="Trazado 824065" d="M1823.193,310.266s63.413-64.093,82.175-50.212-82.175,50.212-82.175,50.212" transform="translate(-1134.671 -160.62)" fill="#e7ffd1"/>
          <path id="Trazado_824066" data-name="Trazado 824066" d="M1811.661,366.022s119.841-58.084,149.461-30.2-32.574,26.223-55.663,23.706-93.8,6.494-93.8,6.494" transform="translate(-1127.494 -204.286)" fill="#e7ffd1"/>
          <path id="Trazado_824067" data-name="Trazado 824067" d="M1797.077,308.634s.478-3.075,1.121-7.576c1.254-8.779,3.135-22.981,3.316-30.353.274-11.151,8.987-19.328,19.161-8.293s-19.912,43.052-19.912,43.052Z" transform="translate(-1118.418 -160.057)" fill="#e7ffd1"/>
          <path id="Trazado_824068" data-name="Trazado 824068" d="M960.761,665.033c5.551-18.021,36.052-11.283,36.052-11.283s19.75,32.549,25.787,33.515-11.452-31.126-11.452-31.126c11.786-.733,41.23,14.7,41.23,14.7s-3.17,37.074,2.919,36.524,1.132-32.97,1.132-32.97c11.251,3.8,21.407,17.43,21.407,17.43,12.522,22.056-16.447,37-16.447,37s-.821,12.872,6.63,27.924h0a43.885,43.885,0,0,1,3.369,7.491l-3.1-.106q-.337-1.26-.759-2.435a.017.017,0,0,0-.006-.014c0-.011-.008-.022-.012-.034-.2-.486-.477-1.178-.829-2.021v0s0,0,0,0c-.883-1.886-1.476-3.277-1.847-4.28a.025.025,0,0,1,0-.009c-2.638-5.917-6.465-13.638-9.136-15.322a6.014,6.014,0,0,0,.712-1.4l-.712,1.4c-5.7,11.187-32.288,12.17-46.964,8.632s-8.09-7.487.1-13.979,24.8-4.136,29.821-6.62-2.092-5.384-11.97-4.964-15.144,10.1-31.112,11.073S968.5,704.757,968.5,704.757c10.873,3.788,30.787-1.6,31.675-5.362s-28.305-4.386-32.814-5.679-12.154-10.661-6.6-28.682" transform="translate(-596.723 -406.096)" fill="#e7ffd1"/>
          <path id="Trazado_824069" data-name="Trazado 824069" d="M2036.571,730.7c-5.619-14.533-30.368-7.214-30.368-7.214s-14.4,27.971-19.316,29.117,7.638-26.317,7.638-26.317c-9.758.077-33.133,14.5-33.133,14.5s4.758,30.374-.293,30.273-2.841-27.11-2.841-27.11c-9.054,3.784-16.637,15.6-16.637,15.6-9.044,18.9,15.7,29.543,15.7,29.543s1.422,10.562-3.848,23.4h0a36.253,36.253,0,0,0-2.344,6.37l2.549-.267c.136-.705.3-1.39.484-2.051a.014.014,0,0,1,0-.012c0-.009.006-.019.008-.029.134-.412.326-1,.567-1.714v0s0,0,0,0c.619-1.606,1.027-2.787,1.274-3.635a.021.021,0,0,0,0-.008c1.832-5.03,4.539-11.616,6.644-13.158a4.993,4.993,0,0,1-.668-1.112l.668,1.112c5.342,8.891,27.317,8.163,39.209,4.4s6.235-6.639-.891-11.516-20.684-1.974-24.964-3.731,1.413-4.558,9.579-4.784,13.067,7.451,26.285,7.326,20.609-25.786,20.609-25.786c-8.742,3.751-25.468.464-26.418-2.587s23.077-5.253,26.718-6.58,9.4-9.49,3.783-24.023" transform="translate(-1207.137 -449.117)" fill="#e7ffd1"/>
          <path id="Trazado_824070" data-name="Trazado 824070" d="M996.681,209.727c14.38-27.953,62.467-7.975,62.467-7.975s22.9,59.193,32.522,62.544-9.693-54.431-9.693-54.431c19.559,2.243,63.37,36.173,63.37,36.173s-16.043,59.918-5.888,60.8,11.5-53.779,11.5-53.779c17.355,9.528,30.037,34.864,30.037,34.864,14.1,39.86-37.811,55.91-37.811,55.91s-5.112,20.885,2.715,47.767h0a73.169,73.169,0,0,1,3.338,13.28l-5.056-1.081q-.185-2.166-.533-4.218a.028.028,0,0,0,0-.025c0-.02-.007-.04-.01-.059-.179-.855-.439-2.073-.77-3.56v-.006s0,0,0-.007c-.9-3.354-1.464-5.81-1.779-7.565a.06.06,0,0,1,0-.016c-2.6-10.481-6.622-24.273-10.514-27.818a10.036,10.036,0,0,0,1.578-2.088l-1.578,2.088c-12.619,16.694-56.55,10.533-79.6.434s-11.088-14.653,4.253-22.913,41.917.464,50.878-2.145-1.859-9.447-18.2-11.647-27.808,12.153-54.3,9.075-35.83-56.142-35.83-56.142c16.737,9.4,50.995,6.379,53.553.461s-45.171-15.476-52.192-18.916-16.83-21.051-2.451-49" transform="translate(-615.686 -121.257)" fill="#c1e29a"/>
          <rect id="Rectángulo_378279" data-name="Rectángulo 378279" width="307.93" height="416.409" transform="translate(454.091 129.429)" fill="#fff"/>
          <rect id="Rectángulo_378280" data-name="Rectángulo 378280" width="286.042" height="397.897" transform="translate(463.705 137.537)" fill="#e7edff"/>
          <rect id="Rectángulo_378281" data-name="Rectángulo 378281" width="74.934" height="74.934" transform="translate(483.234 164.645)" fill="#fff"/>
        </g>
      </g>
      <g id="Grupo_1074707" data-name="Grupo 1074707" transform="translate(483.234 164.645)">
        <g id="Grupo_1074706" data-name="Grupo 1074706" clip-path="url(#clip-path-2)">
          <path id="Trazado_824071" data-name="Trazado 824071" d="M1347.056,669.346h-59.25l42.474-95.24,14.7,32.925,5.368,32.016Z" transform="translate(-1284.704 -521.942)" fill="#88a0e2"/>
          <path id="Trazado_824072" data-name="Trazado 824072" d="M1293.733,571.184l9.49-2.463,9.219-3.267a47.214,47.214,0,0,0,9.163,3.267c4.151.773,18.007,23.92,18.007,24.888s-10.836,69.882-10.836,69.882h-52.309Z" transform="translate(-1277.647 -516.557)" fill="#fff"/>
          <path id="Trazado_824073" data-name="Trazado 824073" d="M1363.786,552.034a24.093,24.093,0,0,1-16.488-3.76,47.688,47.688,0,0,0,3.821-12.388c.023-.147.041-.289.058-.427a12.7,12.7,0,0,0,.124-2.855l12.084.282s3.269,1.588,3.244,2.631q-.019.838-.022,1.6c-.008,1.39.019,2.6.067,3.648.151,3.4.631,7.509.631,7.509s1.222,2.941-3.519,3.757" transform="translate(-1321.729 -496.113)" fill="#ffb27d"/>
          <path id="Trazado_824074" data-name="Trazado 824074" d="M1372.561,544.359c-9.2,1.556-14.394-3.571-15.556-4.882-.165-.188-.25-.3-.25-.3.1-.046.2-.087.308-.128,3.439-1.3,11.281-.607,15.563,1.077-.008,1.391-.115,3.188-.066,4.232" transform="translate(-1327.616 -499.705)" fill="#e2915a"/>
          <path id="Trazado_824075" data-name="Trazado 824075" d="M1340.79,490.418c3.113,8.4,14.261,6.178,19.006,4.8,1.335-.387,2.162-.709,2.162-.709,1.464-.676,1.9-3.242,1.753-6.479-.294-6.406-2.884-15.437-4.35-17.608-2.207-3.266-5.872-6.578-16.67-1.864s-5.893,11.1-1.9,21.864" transform="translate(-1314.784 -454.79)" fill="#ffb27d"/>
          <path id="Trazado_824076" data-name="Trazado 824076" d="M1345.3,451.924a16.354,16.354,0,0,0-9.726-3.471,25.72,25.72,0,0,0-13.1,3.643c-8.51,5.642-9.7,13.105-2.915,23.238,7.171,10.715,11.543,8.358,11.543,8.358s-.837-.269-1.369-3.9c-.03-.207-.052-.38-.068-.529a2.469,2.469,0,0,0-1.11-1.846c-1.321-.823-2.412-3.815-1.6-4.84.976-1.237,2.818-.258,3.5.621a1.436,1.436,0,0,0,2.1.1c2.553-2.308.064-5.611,2.42-8.3s16.482-1.481,17.408-9.425a25.1,25.1,0,0,1-7.087-3.64" transform="translate(-1301.744 -443.74)" fill="#233862"/>
          <path id="Trazado_824077" data-name="Trazado 824077" d="M1400.277,574.1s14.84,30.62,16.776,54.262a235.634,235.634,0,0,1,0,40.978,160.013,160.013,0,0,0,10.566-50.413c.408-12.151-1.541-34.151-5.669-38.044-2.015-1.9-8.058-3.713-21.672-6.783" transform="translate(-1354.701 -521.941)" fill="#aec3ff"/>
          <path id="Trazado_824078" data-name="Trazado 824078" d="M1262.8,614.6c-.047,3.5-.183,7.152-.432,10.935a187.575,187.575,0,0,1-7.866,43.344h-48.567s6.018-14.63,13.287-30.53c1.273-2.785,2.585-5.609,3.909-8.4,5.373-11.322,10.956-22.1,15.039-27.545,10.836-14.448,21.158-28.3,21.158-28.3s3.8,16.573,3.473,40.491" transform="translate(-1233.752 -521.942)" fill="#aec3ff"/>
          <path id="Trazado_824079" data-name="Trazado 824079" d="M1271.368,728.555s-9.974,3.955-30.249,1.814c1.273-2.785,2.585-5.609,3.909-8.4Z" transform="translate(-1255.649 -613.965)" fill="#9db0f4"/>
          <path id="Trazado_824080" data-name="Trazado 824080" d="M1306.7,680.786c-.047,3.5-.183,7.152-.432,10.935-6.535-.354-29.908-1.641-29.8-1.974.129-.387,2.162-9.289,2.162-9.289s19.648,4.773,28.03,0Z" transform="translate(-1277.647 -588.131)" fill="#9db0f4"/>
          <path id="Trazado_824081" data-name="Trazado 824081" d="M1332.285,702.651s6.966-4.136,10.191-3.938,8.385,1.229,9.159,3.938-1.161,1.387-5.482,2.229c-2.549.5-4.109,4.156-7.418,4.479a45.651,45.651,0,0,1-6.45-.9Z" transform="translate(-1312.386 -599.487)" fill="#ffb27d"/>
          <path id="Trazado_824082" data-name="Trazado 824082" d="M1266.429,574.1s-17.83,2.108-22.474,6.494c-7.854,7.417-28.51,35.467-26.468,47.768,1.354,8.163,39.086,8.163,39.086,8.163s4.658-3.019,6.373-5.749c3.484-5.547,2.279-9.615,2.279-9.615l-23.337-7.93s11.383-11.036,20.155-11.61c6.417-.42,4.387-27.522,4.387-27.522" transform="translate(-1240.853 -521.941)" fill="#aec3ff"/>
        </g>
      </g>
      <g id="Grupo_1074709" data-name="Grupo 1074709">
        <g id="Grupo_1074708" data-name="Grupo 1074708" clip-path="url(#clip-path)">
          <rect id="Rectángulo_378284" data-name="Rectángulo 378284" width="93.9" height="1.884" transform="translate(577.995 210.67)" fill="#aec3ff"/>
          <rect id="Rectángulo_378285" data-name="Rectángulo 378285" width="93.9" height="1.884" transform="translate(577.995 219.463)" fill="#aec3ff"/>
          <rect id="Rectángulo_378286" data-name="Rectángulo 378286" width="93.9" height="1.884" transform="translate(577.995 228.361)" fill="#aec3ff"/>
          <rect id="Rectángulo_378287" data-name="Rectángulo 378287" width="28.731" height="28.731" transform="translate(577.996 159.042)" fill="#fff"/>
          <rect id="Rectángulo_378288" data-name="Rectángulo 378288" width="36.415" height="3.315" transform="translate(635.48 181.487)" fill="#aec3ff"/>
          <rect id="Rectángulo_378289" data-name="Rectángulo 378289" width="44.346" height="3.315" transform="translate(627.549 189.248)" fill="#aec3ff"/>
          <rect id="Rectángulo_378290" data-name="Rectángulo 378290" width="74.934" height="74.935" transform="translate(483.234 377.527)" fill="#fff"/>
        </g>
      </g>
      <g id="Grupo_1074711" data-name="Grupo 1074711" transform="translate(483.234 377.527)">
        <g id="Grupo_1074710" data-name="Grupo 1074710" clip-path="url(#clip-path-2)">
          <path id="Trazado_824083" data-name="Trazado 824083" d="M1291.132,1134.891l9.491-2.462,9.218-3.267a47.211,47.211,0,0,0,9.163,3.267c4.151.773,18.007,23.92,18.007,24.887s.387,70.352.387,70.352l-63.532-.47Z" transform="translate(-1276.029 -1080.265)" fill="#aec3ff"/>
          <path id="Trazado_824084" data-name="Trazado 824084" d="M1361.186,1115.741a24.09,24.09,0,0,1-16.488-3.76,47.7,47.7,0,0,0,3.821-12.388c.022-.147.04-.289.058-.427a12.709,12.709,0,0,0,.125-2.855l12.083.281s3.269,1.588,3.244,2.632q-.019.837-.022,1.6c-.008,1.39.019,2.6.067,3.648.151,3.4.631,7.509.631,7.509s1.222,2.941-3.519,3.757" transform="translate(-1320.111 -1059.821)" fill="#ffb27d"/>
          <path id="Trazado_824085" data-name="Trazado 824085" d="M1369.961,1108.066c-9.2,1.556-14.394-3.571-15.555-4.882-.165-.188-.25-.3-.25-.3.1-.046.2-.087.308-.128,3.44-1.3,11.281-.606,15.563,1.077-.008,1.39-.115,3.188-.067,4.232" transform="translate(-1325.997 -1063.412)" fill="#e2915a"/>
          <path id="Trazado_824086" data-name="Trazado 824086" d="M1338.19,1054.125c3.113,8.4,14.262,6.178,19.006,4.8,1.336-.387,2.162-.709,2.162-.709,1.464-.676,1.9-3.242,1.753-6.479-.294-6.406-2.884-15.437-4.349-17.607-2.207-3.266-5.872-6.578-16.67-1.864s-5.894,11.1-1.9,21.865" transform="translate(-1313.166 -1018.498)" fill="#ffb27d"/>
          <path id="Trazado_824087" data-name="Trazado 824087" d="M1342.7,1015.632a16.354,16.354,0,0,0-9.726-3.471,25.728,25.728,0,0,0-13.1,3.642c-8.51,5.643-9.7,13.105-2.915,23.238,7.171,10.715,11.543,8.358,11.543,8.358s-.838-.268-1.368-3.9c-.03-.207-.052-.38-.068-.529a2.47,2.47,0,0,0-1.11-1.847c-1.321-.823-2.412-3.815-1.6-4.84.977-1.238,2.818-.258,3.5.621a1.436,1.436,0,0,0,2.1.1c2.553-2.308.065-5.61,2.42-8.3s16.482-1.481,17.408-9.425a25.108,25.108,0,0,1-7.087-3.64" transform="translate(-1300.124 -1007.448)" fill="#a9453d"/>
          <path id="Trazado_824088" data-name="Trazado 824088" d="M1397.677,1137.813s14.84,30.619,16.776,54.262a235.68,235.68,0,0,1,0,40.978,160.008,160.008,0,0,0,10.565-50.413c.408-12.151-1.541-34.151-5.669-38.044-2.015-1.9-8.058-3.713-21.672-6.783" transform="translate(-1353.083 -1085.649)" fill="#aec3ff"/>
          <path id="Trazado_824089" data-name="Trazado 824089" d="M1263.828,1137.813h0s-17.83,2.108-22.474,6.494c-7.854,7.417-28.509,35.467-26.469,47.768.453,2.729,11.028,11.062,16.842,12.271,1.473,11.577-2.175,28.706-2.175,28.706l29.451-.471a187.628,187.628,0,0,0,7.867-43.343c.249-3.783.384-7.437.432-10.934.324-23.918-3.473-40.492-3.473-40.492" transform="translate(-1239.234 -1085.649)" fill="#aec3ff"/>
          <path id="Trazado_824090" data-name="Trazado 824090" d="M1342.443,1129.449s7.462,6.1,11.882,7.164c0,0-4.1,2.171-17-3.618,0,0,1.862-3.141,5.115-3.546" transform="translate(-1315.524 -1080.444)" fill="#f99746"/>
          <path id="Trazado_824091" data-name="Trazado 824091" d="M1387.752,1127.786a16.212,16.212,0,0,0,2.154,4.19s-1.149,4.064-7.569,3.6c0,0,5.669-4.07,5.416-7.792" transform="translate(-1343.536 -1079.409)" fill="#f99746"/>
          <path id="Trazado_824092" data-name="Trazado 824092" d="M1368.913,1140.334l8.853-1.079s-.276,5.192-2.943,7.262c-.97.753-6.023-5.261-5.91-6.183" transform="translate(-1335.18 -1086.547)" fill="#f99746"/>
          <path id="Trazado_824093" data-name="Trazado 824093" d="M1378.4,1149.015s2.035,37.046,1.074,53.429c-.531,9.053-1.846,22.1-1.635,23.365s6.223,7.157,6.223,7.157,5.916-5.508,6.056-7.894a267.719,267.719,0,0,0-8.672-76.442c-.359-1.349-3.045.385-3.045.385" transform="translate(-1340.723 -1092.061)" fill="#f99746"/>
          <path id="Trazado_824094" data-name="Trazado 824094" d="M1338.444,1127.786s-2.272.156-6.272,4.787c0,0,6.455,5.542,12.349,6.946,0,0-.243-4.3,1.527-6.323Z" transform="translate(-1312.316 -1079.409)" fill="#c5d7ff"/>
          <path id="Trazado_824095" data-name="Trazado 824095" d="M1391.567,1127.786l-3.1,4.594s3.157,2.368,4.21,5.21c0,0,2.168-3.537,1.979-5.4,0,0-1.462-3.842-3.089-4.4" transform="translate(-1347.351 -1079.409)" fill="#c5d7ff"/>
        </g>
      </g>
      <g id="Grupo_1074713" data-name="Grupo 1074713">
        <g id="Grupo_1074712" data-name="Grupo 1074712" clip-path="url(#clip-path)">
          <rect id="Rectángulo_378293" data-name="Rectángulo 378293" width="99.274" height="1.884" transform="translate(577.996 431.021)" fill="#aec3ff"/>
          <rect id="Rectángulo_378294" data-name="Rectángulo 378294" width="99.274" height="1.884" transform="translate(577.996 439.814)" fill="#aec3ff"/>
          <rect id="Rectángulo_378295" data-name="Rectángulo 378295" width="99.274" height="1.884" transform="translate(577.996 448.712)" fill="#aec3ff"/>
          <rect id="Rectángulo_378296" data-name="Rectángulo 378296" width="28.731" height="28.731" transform="translate(577.996 379.393)" fill="#fff"/>
          <rect id="Rectángulo_378297" data-name="Rectángulo 378297" width="38.499" height="3.315" transform="translate(638.771 401.838)" fill="#aec3ff"/>
          <rect id="Rectángulo_378298" data-name="Rectángulo 378298" width="46.884" height="3.315" transform="translate(630.386 409.6)" fill="#aec3ff"/>
          <rect id="Rectángulo_378299" data-name="Rectángulo 378299" width="74.934" height="74.934" transform="translate(483.234 269.304)" fill="#fff"/>
          <path id="Trazado_824096" data-name="Trazado 824096" d="M1328.224,729.041c-4.593-1.276-10.933-.211-11.981-.126-12.553,1-16.06,20.317-15.332,25.781,1.347,10.07-3.566,12.714-9.594,20.51-6.576,8.5-7.372,16.372-5.237,22.367h31.873c6.837-6.011,16.174-14.254,22.034-19.357a9.907,9.907,0,0,0,2.214-1.145c12.814-8.832-2.846-44.944-13.977-48.03" transform="translate(-799.74 -453.334)" fill="#233862"/>
          <path id="Trazado_824097" data-name="Trazado 824097" d="M1373.637,825.732c.057.022-5.214,3.2-9.383,2.334-3.922-.807-7.908-6.111-7.855-6.126,1.612-.427,3.092-2.238,2.448-11.877l.747.1,12.567,1.673s-.036,3.924.189,7.6c.187,3.09.559,6.008,1.288,6.293" transform="translate(-844.159 -504.145)" fill="#ffb27d"/>
          <path id="Trazado_824098" data-name="Trazado 824098" d="M1377.428,812s-.036,3.924.188,7.6c-6.958.243-11.029-5.861-12.755-9.278Z" transform="translate(-849.426 -504.308)" fill="#ed975d"/>
          <path id="Trazado_824099" data-name="Trazado 824099" d="M1375.478,778.428s-16.416,1.309-17.074-8.926-3.22-16.96,7.233-18.228,12.743,2.506,13.793,5.869.3,20.681-3.953,21.286" transform="translate(-844.937 -467.402)" fill="#ffb27d"/>
          <path id="Trazado_824100" data-name="Trazado 824100" d="M1369.468,749.433s-8.308,11.009-15.1,13.221-9.9.551-9.9.551a27.752,27.752,0,0,0,4.636-10.3,5,5,0,0,1,3.4-3.75c4.868-1.5,14.228-3.73,16.966.282" transform="translate(-836.731 -465.001)" fill="#233862"/>
          <path id="Trazado_824101" data-name="Trazado 824101" d="M1393.322,750.146s4.131,2.564,5.736,4.781c1.55,2.14,3.084,7.727,2.743,10.152,0,0,3.084-11.5-1.017-15.878-4.349-4.641-7.462.945-7.462.945" transform="translate(-867.139 -465.121)" fill="#233862"/>
          <path id="Trazado_824102" data-name="Trazado 824102" d="M1346.22,848.62a6.191,6.191,0,0,0-1.869-2.858c-4.311-4.02-14-5.662-14-5.662v0a.914.914,0,0,1-.021.106v.008c-.139.518-.876,2.593-4.143,2.593-2.206,0-5.565-.951-10.672-3.966-.025-.017-.051-.029-.076-.046,0,0-.008,0-.008,0v0s-13.421.825-18.064,7.3c-2.522,3.515-5.995,11.446-8.891,20.169h62.553c-2.143-7.855-4.138-15.176-4.812-17.643" transform="translate(-801.889 -522.024)" fill="#aec3ff"/>
          <rect id="Rectángulo_378300" data-name="Rectángulo 378300" width="97.437" height="1.884" transform="translate(577.995 322.042)" fill="#aec3ff"/>
          <rect id="Rectángulo_378301" data-name="Rectángulo 378301" width="97.437" height="1.884" transform="translate(577.995 330.835)" fill="#aec3ff"/>
          <rect id="Rectángulo_378302" data-name="Rectángulo 378302" width="97.437" height="1.884" transform="translate(577.995 339.733)" fill="#aec3ff"/>
          <rect id="Rectángulo_378303" data-name="Rectángulo 378303" width="28.731" height="28.731" transform="translate(577.996 270.414)" fill="#fff"/>
          <rect id="Rectángulo_378304" data-name="Rectángulo 378304" width="40.62" height="3.314" transform="translate(631.274 292.859)" fill="#aec3ff"/>
          <rect id="Rectángulo_378305" data-name="Rectángulo 378305" width="49.467" height="3.315" transform="translate(622.427 300.62)" fill="#aec3ff"/>
          <path id="Trazado_824103" data-name="Trazado 824103" d="M1544.9,735.4l8.933,12.315,10.642-19.682-12.349,11.226Z" transform="translate(-961.477 -453.092)" fill="#233862"/>
          <rect id="Rectángulo_378306" data-name="Rectángulo 378306" width="98.598" height="1.654" transform="translate(534.128 491.644)" fill="#aec3ff"/>
          <rect id="Rectángulo_378307" data-name="Rectángulo 378307" width="98.598" height="1.654" transform="translate(534.128 499.546)" fill="#aec3ff"/>
          <rect id="Rectángulo_378308" data-name="Rectángulo 378308" width="98.598" height="1.654" transform="translate(534.128 509.102)" fill="#aec3ff"/>
          <path id="Trazado_824104" data-name="Trazado 824104" d="M1291.431,1296.874c1.326-1.868,2.715-5.145,1.663-7.455-.964-2.12-2.869-1.139-4.165.089a16.215,16.215,0,0,0-3.855,6.832,44.339,44.339,0,0,0-2.153,9.369c-.263,2.559-.437,6.506,1.212,8.691,1.4,1.856,3.652.332,5.2-.538,4.9-2.748,8.986-7.141,10.119-12.765.146-.724-.749-1.388-1.319-.768a6.787,6.787,0,0,0-1.927,4.408c-.026.927.059,2.4,1.177,2.668,1.314.314,2.337-1.511,2.9-2.382a15.037,15.037,0,0,0,2.175-5.768l-1.522-.42c-.219,1.493.049,4.155,2.266,3.694,2.1-.436,2.272-4.04,2.338-5.657a.793.793,0,0,0-1.551-.21,8.432,8.432,0,0,0,.185,4.318,13.753,13.753,0,0,0,.927,2.022,10.994,10.994,0,0,1,.85,1.683q.74,1.813-1.277,1.542-.235.579-.472,1.159c3.72-1.464,7.762-3.474,7.967-7.988.046-1.016-1.532-1.013-1.579,0-.168,3.7-3.83,5.293-6.807,6.465a.805.805,0,0,0-.472,1.159,2.244,2.244,0,0,0,4.046-.161,4.008,4.008,0,0,0-.221-3.432c-1.005-2.177-2.126-3.82-1.625-6.349l-1.55-.21a10.623,10.623,0,0,1-.349,2.517,4.36,4.36,0,0,1-.291.863q-.374,1.476-.862-1c.145-.987-1.354-1.428-1.522-.42a13.881,13.881,0,0,1-2.016,5.392c-.489.748-1.21,2.244-1.138.511a5.078,5.078,0,0,1,1.464-3.292l-1.32-.768a16.364,16.364,0,0,1-5.662,9.235,16.737,16.737,0,0,1-4.847,3.179,2.445,2.445,0,0,1-2.332-.288c-.232-.226-.318-1.112-.385-1.429a16.542,16.542,0,0,1-.324-3.812,37.175,37.175,0,0,1,2.636-12.005,13.019,13.019,0,0,1,3.025-4.932c1.8-1.695,1.8,1,1.543,2.227a8.757,8.757,0,0,1-1.52,3.225c-.589.83.778,1.619,1.363.8" transform="translate(-798.326 -801.702)" fill="#aec3ff"/>
          <path id="Trazado_824105" data-name="Trazado 824105" d="M1052.322,1444.213H38.8a1.128,1.128,0,0,1-1.124-1.124v-.322a1.128,1.128,0,0,1,1.124-1.125H1052.322a1.127,1.127,0,0,1,1.123,1.125v.322a1.127,1.127,0,0,1-1.123,1.124" transform="translate(-23.445 -897.211)" fill="#2e3552"/>
          <path id="Trazado_824106" data-name="Trazado 824106" d="M1716.148,1386.907c-.284,3.866-5.739,3.908-11.93,3.19s-4.545.849-13.213.969-11.656-2.744-12.076-3.983c-.374-1.1,3.8-2.024,8.267-3.111.562-.135,1.126-.277,1.689-.419,5.036-1.28,8.371-5.049,12.679-8.34,4.082-3.117,9.345-14.4,9.345-14.4l11.841-.534s-4.986,10.113-6.859,14.474c-1.1,2.565-.633,5.715-.154,8.134a15.147,15.147,0,0,1,.41,4.022" transform="translate(-1044.873 -846.573)" fill="#ffb27d"/>
          <path id="Trazado_824107" data-name="Trazado 824107" d="M1704.218,1427.353c-6.191-.718-4.545.849-13.213.969s-11.656-2.744-12.076-3.983c-.374-1.1,3.8-2.024,8.267-3.112l.053.082a24.288,24.288,0,0,0,12.719,2.278c5.818-.583,11.755-3.011,15.768-3.446a15.17,15.17,0,0,1,.41,4.022c-.284,3.866-5.739,3.908-11.93,3.19" transform="translate(-1044.873 -883.83)" fill="#233862"/>
          <path id="Trazado_824108" data-name="Trazado 824108" d="M1932.7,1375.978c-.28,3.867-5.736,3.914-11.927,3.2s-4.544.853-13.212.982-11.658-2.732-12.079-3.97c-.375-1.1,3.8-2.028,8.264-3.12.562-.136,1.125-.278,1.689-.421,5.035-1.286,8.365-5.058,12.671-8.353,4.078-3.121,0-21.6,0-21.6l13.024-1.267s-.625,15.561-.616,22.635c0,2.791,1.287,5.476,1.769,7.893a15.16,15.16,0,0,1,.414,4.022" transform="translate(-1179.645 -834.843)" fill="#ffb27d"/>
          <path id="Trazado_824109" data-name="Trazado 824109" d="M1920.772,1429.489c-6.191-.712-4.544.853-13.212.983s-11.658-2.733-12.079-3.971c-.375-1.1,3.8-2.028,8.264-3.12l.053.082a24.288,24.288,0,0,0,12.721,2.265c5.818-.589,11.752-3.023,15.765-3.463a15.156,15.156,0,0,1,.414,4.022c-.28,3.867-5.735,3.914-11.927,3.2" transform="translate(-1179.645 -885.152)" fill="#233862"/>
          <path id="Trazado_824110" data-name="Trazado 824110" d="M1892.19,545.51c-2.242-9.221,1.008-13.516,3.94-15.8,1.391-3.394,2.978-5.84,4.6-6.763a16.609,16.609,0,0,1,8.988-1.719,4.2,4.2,0,0,0-1.9-.9c1.539-.229,4.973,1.3,4.973,1.3,21.4-8.246,24.765,23.264,24.314,30.585s-.387,15.942,10.748,21.71c21.244,11.005-7.06,52.479-7.06,52.479.54-5.916-26.756-37.135-41-46.485-3.466-5.1-4.7-14.12-4.791-14.829.6,7.148,1.822,11.159,2.914,13.417-6.491-5.974-7.452-20.319-5.734-32.989" transform="translate(-1177.144 -323.784)" fill="#a9453d"/>
          <path id="Trazado_824111" data-name="Trazado 824111" d="M1915.812,644.7c-.071.032,6.876,3.64,12.1,2.21,4.915-1.34,8.127-7.714,8.059-7.728-2.082-.414-2.682-3.274-2.638-15.567l-.941.186-15.823,3.133s.36,4.98.37,9.671c.011,3.938-.228,7.674-1.13,8.095" transform="translate(-1192.313 -388.112)" fill="#ffb27d"/>
          <path id="Trazado_824112" data-name="Trazado 824112" d="M1917.823,627.245s.36,4.98.371,9.671c8.854-.25,13.534-8.327,15.452-12.8Z" transform="translate(-1193.564 -388.418)" fill="#ed975d"/>
          <path id="Trazado_824113" data-name="Trazado 824113" d="M1747.043,1087.6a3.883,3.883,0,0,0,3.518,5.057l6.182.288,6.541.2a5.252,5.252,0,0,0,4.233-1.933,183.88,183.88,0,0,0,31.038-58.766q.412-1.3.87-2.641c6.438-18.771,19.783-42.333,26.816-63.659,1.119-3.4,2.124-6.594,3.026-9.62.289-.97.57-1.921.837-2.859a226.217,226.217,0,0,0,8.067-42.464l-50.784.406s-10.691,83.1-40.344,175.989" transform="translate(-1087.163 -567.09)" fill="#2a4e96"/>
          <path id="Trazado_824114" data-name="Trazado 824114" d="M1860.875,726.547c.128,24.166-3.545,34.534-3.545,34.534A68.241,68.241,0,0,0,1904.917,764c.3-.1,18.489-5.245,18.489-5.245-.433-.978-4.026-17.147-4.447-18.045-5.457-11.716-6.943-16.636-7.591-20.238a76.618,76.618,0,0,1-.628-20.246,162.481,162.481,0,0,1,6.267-31.8c-7.042-1.6-13.635-4.417-20.965-7.165-1.686,2.1-6.839,4.3-11.309,4.2-5.148-.114-6.817-2.317-6.55-4.723-5.486,3.052-9.863,5.936-9.863,5.936-4.662,8.1-14.118,15.963-14.8,28.386-.17,3.055,7.354,30.815,7.358,31.492" transform="translate(-1153.542 -411.21)" fill="#fff"/>
          <path id="Trazado_824115" data-name="Trazado 824115" d="M1976.082,772.929c2.22,3.142,6.476,22.239,17.065,24.64-5.456-13.611-9.6-19.578-10.246-23.763a103.224,103.224,0,0,1-.629-23.518c-3.545-6.213-6.19-10.472-6.19-10.472-.278-1-5.633-17.562-7.349-2.762s4.869,32.361,7.349,35.875" transform="translate(-1225.074 -454.898)" fill="#5f9aa8"/>
          <path id="Trazado_824116" data-name="Trazado 824116" d="M1898.494,585.916s20.95.346,20.964-12.7,2.728-21.793-10.647-22.565-15.979,4.2-17.043,8.558,1.278,26.285,6.727,26.711" transform="translate(-1177.193 -342.647)" fill="#ffb27d"/>
          <path id="Trazado_824117" data-name="Trazado 824117" d="M1912.046,545.56s5.736,15.309,14.539,17.573,12.621-.095,12.621-.095a24.929,24.929,0,0,1-8.153-14.727s-14.679-10.038-19.006-2.751" transform="translate(-1189.969 -337.881)" fill="#a9453d"/>
          <path id="Trazado_824118" data-name="Trazado 824118" d="M1898.331,549.108s-4.284,3.418-5.328,6.741-1.514,10.163-3.508,9.931c0,0-4.321-10.406.535-16.292,5.15-6.242,8.3-.38,8.3-.38" transform="translate(-1174.832 -340.186)" fill="#a9453d"/>
          <path id="Trazado_824119" data-name="Trazado 824119" d="M1806.4,879.423l-9.895,30.167,5.644,2.263,16.36-26.652Z" transform="translate(-1118.063 -547.312)" fill="#ffb27d"/>
          <path id="Trazado_824120" data-name="Trazado 824120" d="M1845.333,671.746s-11.667,4.63-15.044,11.848-8.489,55.634-10.526,60.606-3.567,8.909-3.567,8.909,5.882,4.956,11.8,5.321,17.338-86.684,17.338-86.684" transform="translate(-1130.317 -418.064)" fill="#f99746"/>
          <path id="Trazado_824121" data-name="Trazado 824121" d="M1866.553,660.733s-12.121,29.943-12.477,36-1.426,99.094-1.426,99.094.713,4.277-7.486,2.495-10.337-3.564-10.337-3.564,7.842-57.389,5.7-77.351,16.4-52.517,16.4-52.517Z" transform="translate(-1141.911 -411.21)" fill="#f99746"/>
          <path id="Trazado_824122" data-name="Trazado 824122" d="M1773.034,1153.572l7.1.218a4.1,4.1,0,0,0,3.293-1.486c4.774-5.781,21.421-27.42,31.418-59.228q.411-1.305.87-2.641c6.438-18.771,19.783-42.333,26.816-63.66,1.119-3.4,2.124-6.594,3.027-9.62.289-.97.57-1.922.838-2.859l-7.479-5.674s-22.453,36.358-29.4,70.575c-6.038,29.721-30.22,65.484-36.48,74.377" transform="translate(-1103.454 -627.718)" fill="#1e3d70"/>
          <path id="Trazado_824123" data-name="Trazado 824123" d="M1937.2,1066.479c-.121,15.741.625,50.827,2.541,67.977a3.1,3.1,0,0,0,3.082,2.754h5.3c2.234,0,3.9-.016,5.014-.033a2.039,2.039,0,0,0,1.966-1.646c5.269-26.814,9.041-49.091,11.8-68.34,2.31-16.112,4.363-29.925,5.942-41.816,1.59-11.966,2.695-21.986,3.09-30.452.061-1.333.107-2.63.132-3.889s.032-2.5.022-3.689l-43.88-4.277c.552,29.154,5.061,73.74,4.99,83.41" transform="translate(-1202.519 -611.817)" fill="#2a4e96"/>
          <path id="Trazado_824124" data-name="Trazado 824124" d="M1974.346,1156.748c2.006,0,3.558-.013,4.658-.028a2.473,2.473,0,0,0,2.39-2c5.233-26.66,8.984-48.829,11.733-67.995,2.31-16.112,4.363-29.925,5.942-41.816,1.59-11.966,2.695-21.986,3.09-30.452l-16.1,9.471s10.277,3.625,6.356,31.072-12.612,97.857-18.069,101.743" transform="translate(-1228.741 -631.354)" fill="#1e3d70"/>
          <path id="Trazado_824125" data-name="Trazado 824125" d="M1944.147,795.053s3.09,11.168,13.784,9.742,25.9-7.842,25.9-7.842-4.57-14.44-10.252-33.41c-6.88-22.967-15.4-52.573-19.409-71.248a115.527,115.527,0,0,1-2.181-12.732l-8.873-17.214s-13.228,29.69-13.941,37.175,14.971,95.53,14.971,95.53" transform="translate(-1200.615 -412.215)" fill="#f99746"/>
          <path id="Trazado_824126" data-name="Trazado 824126" d="M1929.018,698.408l-11.709-36.059c.032.015,14.789,4.391,22.212,8.141,0,0,4.64,5.982,7.511,19.783,0,0,3.033,33.133-3.74,45.253,0,0-21.387,4.278-55.607-7.485V720.2s37.428,1.961,45.091,2.852Z" transform="translate(-1174.808 -412.215)" fill="#ffb27d"/>
          <path id="Trazado_824127" data-name="Trazado 824127" d="M1970.1,764.557c.478,12.119,3.329,35.645,28.755,48.239.067.032.135.068.2.1-6.88-22.966-15.4-52.573-19.409-71.248-4.669,6.979-9.809,16.24-9.549,22.913" transform="translate(-1226.092 -461.565)" fill="#ed7d2b"/>
          <path id="Trazado_824128" data-name="Trazado 824128" d="M1964.06,662.348s21.706,1.529,26.934,13.173,6.892,50.379.238,61.785c0,0-9.161,2.609-25.363-.421l-.6-.114s-5.169-12.654-.535-15.149c0,0,13.664.713,12.238-3.8s-12.913-55.473-12.913-55.473" transform="translate(-1221.56 -412.215)" fill="#f99746"/>
          <path id="Trazado_824129" data-name="Trazado 824129" d="M1822.022,810.1l.639,2.055,35.617-11.079a1.368,1.368,0,0,0,.241-1.26,1.008,1.008,0,0,0-.88-.8Z" transform="translate(-1133.942 -497.274)" fill="#a9453d"/>
          <path id="Trazado_824130" data-name="Trazado 824130" d="M1815.2,830.3l2.576-1.942.639,2.055Z" transform="translate(-1129.697 -515.533)" fill="#a9453d"/>
          <path id="Trazado_824131" data-name="Trazado 824131" d="M1782.439,957.12s-9.035,4.993-10.224,8.8-.372,11.769,1.062,11.651,3.574-8.56,4.764-9.154,2.853-2.377,2.853-1.07-1.188,3.685-.594,4.041,2.5-3.327,3.8-4.041,1.857-6.593,3.128-8.171-4.792-2.053-4.792-2.053" transform="translate(-1102.588 -595.667)" fill="#ffb27d"/>
          <path id="Trazado_824132" data-name="Trazado 824132" d="M1853.984,808.46s-8.08-4.976-11.47-4.211-12.028,7.022-7.873,8.377,7.52-.067,9.118.918,2.778,2.783,10.225,2.758,0-7.842,0-7.842" transform="translate(-1141.107 -500.478)" fill="#ffb27d"/>
          <rect id="Rectángulo_378309" data-name="Rectángulo 378309" width="143.268" height="170.83" transform="translate(274.84 359.078)" fill="#c3d2ff"/>
          <rect id="Rectángulo_378310" data-name="Rectángulo 378310" width="34.781" height="43.211" transform="translate(338.716 458.625) rotate(-25.725)" fill="#b0c3f4"/>
          <path id="Trazado_824133" data-name="Trazado 824133" d="M1066.345,1183.674v49.9l-6.206-3.585-7.215-4.165-5.812-3.356-1.806-1.04-3.716-2.146,2.339-4.052,13.038-22.582,6.23-10.789Z" transform="translate(-648.237 -735.533)" fill="#b0c3f4"/>
          <rect id="Rectángulo_378311" data-name="Rectángulo 378311" width="34.781" height="43.212" transform="translate(345.889 496.929) rotate(-67.794)" fill="#b0c3f4"/>
          <rect id="Rectángulo_378312" data-name="Rectángulo 378312" width="34.781" height="43.212" transform="matrix(0.811, -0.585, 0.585, 0.811, 305.865, 484.662)" fill="#b0c3f4"/>
          <path id="Trazado_824134" data-name="Trazado 824134" d="M1060.183,1248.851V1293.3l-6.832,5.44-19-23.874-.788-.99-1.752-2.2-.12-.151,5.955-4.737,0,0,3.3-2.629,17.509-13.936Z" transform="translate(-642.075 -777.227)" fill="#b0c3f4"/>
          <path id="Trazado_824135" data-name="Trazado 824135" d="M1029.264,1207.5v7.247l-13.421,6.465-8.638,4.164-3.078,1.481-1.485.719-1.875.9-1.493-3.1-4.563-9.466-6.148-12.761-6.554-13.6,5.251-2.529,26.081-12.567,6.546,13.584,7.652,15.885Z" transform="translate(-611.157 -730.926)" fill="#b0c3f4"/>
          <rect id="Rectángulo_378313" data-name="Rectángulo 378313" width="112.241" height="35.25" transform="translate(305.867 494.453)" fill="#b0c3f4"/>
          <rect id="Rectángulo_378314" data-name="Rectángulo 378314" width="139.218" height="170.83" transform="translate(239.784 359.079)" fill="#d7e1ff"/>
          <rect id="Rectángulo_378315" data-name="Rectángulo 378315" width="34.781" height="43.211" transform="matrix(0.901, -0.434, 0.434, 0.901, 272.635, 458.625)" fill="#e3ebff"/>
          <rect id="Rectángulo_378316" data-name="Rectángulo 378316" width="43.211" height="34.781" transform="translate(319.914 482.743) rotate(-51.062)" fill="#e3ebff"/>
          <rect id="Rectángulo_378317" data-name="Rectángulo 378317" width="34.781" height="43.212" transform="translate(279.807 496.929) rotate(-67.794)" fill="#e9efff"/>
          <rect id="Rectángulo_378318" data-name="Rectángulo 378318" width="34.781" height="43.212" transform="translate(239.784 484.662) rotate(-35.79)" fill="#e9efff"/>
          <rect id="Rectángulo_378319" data-name="Rectángulo 378319" width="43.211" height="34.781" transform="matrix(0.782, -0.623, 0.623, 0.782, 323.532, 494.304)" fill="#e9efff"/>
          <rect id="Rectángulo_378320" data-name="Rectángulo 378320" width="34.781" height="43.211" transform="matrix(0.901, -0.434, 0.434, 0.901, 304.771, 458.625)" fill="#e9efff"/>
          <rect id="Rectángulo_378321" data-name="Rectángulo 378321" width="139.218" height="35.248" transform="translate(239.784 494.454)" fill="#e9efff"/>
          <path id="Trazado_824136" data-name="Trazado 824136" d="M990.162,1204.028l-8.153,3.927,8.15,16.916Z" transform="translate(-611.157 -749.331)" fill="#e3ebff"/>
          <rect id="Rectángulo_378322" data-name="Rectángulo 378322" width="139.218" height="29.651" transform="translate(239.784 359.079)" fill="#f99746"/>
          <rect id="Rectángulo_378323" data-name="Rectángulo 378323" width="39.606" height="29.651" transform="translate(379.002 359.079)" fill="#ed7d2b"/>
          <rect id="Rectángulo_378324" data-name="Rectángulo 378324" width="7.062" height="14.788" transform="translate(371.943 529.702)" fill="#2b478b"/>
          <rect id="Rectángulo_378325" data-name="Rectángulo 378325" width="7.062" height="14.788" transform="translate(411.063 529.702)" fill="#2b478b"/>
          <rect id="Rectángulo_378326" data-name="Rectángulo 378326" width="7.062" height="14.788" transform="translate(239.793 529.702)" fill="#2b478b"/>
          <rect id="Rectángulo_378327" data-name="Rectángulo 378327" width="49.06" height="64.579" transform="matrix(0.997, -0.082, 0.082, 0.997, 288.637, 280.126)" fill="#fff"/>
          <rect id="Rectángulo_378328" data-name="Rectángulo 378328" width="44.575" height="60.18" transform="translate(291.077 282.063) rotate(-4.711)" fill="#e7edff"/>
          <rect id="Rectángulo_378329" data-name="Rectángulo 378329" width="23.237" height="0.381" transform="matrix(0.997, -0.082, 0.082, 0.997, 297.072, 310.09)" fill="#aec3ff"/>
          <rect id="Rectángulo_378330" data-name="Rectángulo 378330" width="23.237" height="0.381" transform="matrix(0.997, -0.082, 0.082, 0.997, 297.218, 311.863)" fill="#aec3ff"/>
          <rect id="Rectángulo_378331" data-name="Rectángulo 378331" width="23.237" height="0.381" transform="translate(297.366 313.657) rotate(-4.711)" fill="#aec3ff"/>
          <rect id="Rectángulo_378332" data-name="Rectángulo 378332" width="12.51" height="0.838" transform="translate(297.096 303.776) rotate(-4.711)" fill="#aec3ff"/>
          <rect id="Rectángulo_378333" data-name="Rectángulo 378333" width="15.235" height="0.838" transform="translate(297.096 305.956) rotate(-4.712)" fill="#aec3ff"/>
          <rect id="Rectángulo_378334" data-name="Rectángulo 378334" width="10.69" height="10.69" transform="translate(324.153 301.143) rotate(-4.711)" fill="#fff"/>
          <path id="Trazado_824137" data-name="Trazado 824137" d="M871,803.521l-2.543,4.191-3.939-6.039,4.263,3.278Z" transform="translate(-538.038 -498.924)" fill="#233862"/>
          <rect id="Rectángulo_378335" data-name="Rectángulo 378335" width="23.237" height="0.381" transform="translate(298.8 331.238) rotate(-4.711)" fill="#aec3ff"/>
          <rect id="Rectángulo_378336" data-name="Rectángulo 378336" width="23.237" height="0.381" transform="translate(298.947 333.011) rotate(-4.711)" fill="#aec3ff"/>
          <rect id="Rectángulo_378337" data-name="Rectángulo 378337" width="23.237" height="0.381" transform="translate(299.094 334.806) rotate(-4.711)" fill="#aec3ff"/>
          <rect id="Rectángulo_378338" data-name="Rectángulo 378338" width="12.51" height="0.838" transform="matrix(0.997, -0.082, 0.082, 0.997, 298.825, 324.925)" fill="#aec3ff"/>
          <rect id="Rectángulo_378339" data-name="Rectángulo 378339" width="15.235" height="0.838" transform="translate(298.825 327.105) rotate(-4.711)" fill="#aec3ff"/>
          <rect id="Rectángulo_378340" data-name="Rectángulo 378340" width="10.69" height="10.69" transform="translate(325.881 322.291) rotate(-4.711)" fill="#fff"/>
          <path id="Trazado_824138" data-name="Trazado 824138" d="M875.581,859.521l-2.543,4.191-3.938-6.039,4.262,3.278Z" transform="translate(-540.887 -533.776)" fill="#233862"/>
          <rect id="Rectángulo_378341" data-name="Rectángulo 378341" width="23.237" height="0.381" transform="translate(294.92 292.915) rotate(-4.711)" fill="#aec3ff"/>
          <rect id="Rectángulo_378342" data-name="Rectángulo 378342" width="23.237" height="0.381" transform="translate(295.066 294.688) rotate(-4.711)" fill="#aec3ff"/>
          <rect id="Rectángulo_378343" data-name="Rectángulo 378343" width="23.237" height="0.381" transform="matrix(0.997, -0.082, 0.082, 0.997, 295.214, 296.483)" fill="#aec3ff"/>
          <rect id="Rectángulo_378344" data-name="Rectángulo 378344" width="12.51" height="0.838" transform="translate(294.945 286.601) rotate(-4.711)" fill="#aec3ff"/>
          <rect id="Rectángulo_378345" data-name="Rectángulo 378345" width="15.235" height="0.838" transform="translate(294.945 288.782) rotate(-4.711)" fill="#aec3ff"/>
          <rect id="Rectángulo_378346" data-name="Rectángulo 378346" width="10.69" height="10.69" transform="translate(322.001 283.968) rotate(-4.711)" fill="#fff"/>
          <path id="Trazado_824139" data-name="Trazado 824139" d="M865.306,758.042l-2.543,4.191-3.938-6.039,4.263,3.278Z" transform="translate(-534.492 -470.62)" fill="#233862"/>
          <path id="Trazado_824140" data-name="Trazado 824140" d="M745.914,758.142c.847-.6,1.506-1.929,2.376-2.923a9.076,9.076,0,0,1,1.873-1.451s.126,1.729.258,3.128c2.568-.959,6.43-1.843,12.6-.658a4.622,4.622,0,0,1,3.034,2,2.039,2.039,0,0,1-.71,3.181c-3.147,1.957-2.234.784-6.608,3.634s-9.727,3.576-12.927,1.577l-4.292-.716-.533-7.061s2.447-.292,4.932-.707" transform="translate(-461.153 -469.11)" fill="#ffb27d"/>
          <path id="Trazado_824141" data-name="Trazado 824141" d="M456.151,571.282s10.121,12.007,23.01,6.984c0,0,2.773-6.706,2.812-11.649,0-.608.012-1.2.021-1.759.069-5.566.256-8.69.256-8.69l-.013,0c-.586-.245-19.7-8.093-19.687-7.441.328,15.055-6.4,22.557-6.4,22.557" transform="translate(-283.887 -341.477)" fill="#ffb27d"/>
          <path id="Trazado_824142" data-name="Trazado 824142" d="M478.159,558.062c1.843,3.417,8.169,10.1,17.524,12.544.069-5.567.256-8.69.256-8.69l-.013,0c-.529-.142-18.316-4.858-17.768-3.851" transform="translate(-297.576 -347.224)" fill="#ed975d"/>
          <path id="Trazado_824143" data-name="Trazado 824143" d="M490.216,508.576s-21.5,5.054-24.44-8.382-7.7-21.833,5.9-25.628,17.4.746,19.473,4.992,4.579,27.357-.937,29.018" transform="translate(-287.849 -294.463)" fill="#ffb27d"/>
          <path id="Trazado_824144" data-name="Trazado 824144" d="M448.456,486.493c-.293.188-4.919,1.609-13.68-15.843a15.2,15.2,0,0,1,.893-13.9c3.205-5.236,14.572-9.353,24.016-11.145s11.711,3.522,13.935,8.863c2.334,5.606,9.076,10.222,9.076,10.222-8.144,4.549-17.952-1.957-21.35-.887s-4.6,6.425-4.853,8.142-.647,3.143-4.92,1.61-1.932,6.055-1.248,7.507c0,0,.581,3.865-1.87,5.435" transform="translate(-269.794 -277.102)" fill="#a9453d"/>
          <path id="Trazado_824145" data-name="Trazado 824145" d="M281.5,1388.751H268.479c-2.729,0-5.761-2.732-6.52-7.734s-6.369-7.735-7.583-11.83,5.006-9.86,5.006-9.86l1.04-1.336,1.082-1.393,10.312,2.425s.254,2.456.414,5.583a71.439,71.439,0,0,1,.042,7.158c-.3,5.461,1.53,11.34,6.38,12.4s2.846,4.585,2.846,4.585" transform="translate(-158.214 -844.284)" fill="#2c3a64"/>
          <path id="Trazado_824146" data-name="Trazado 824146" d="M505.65,1410.779H471.144a3.113,3.113,0,0,1-.732-.212c-2.3-1.154-1.583-9.974-1.306-12.7.053-.505.091-.8.091-.8s12.133-9.7,13.8-2.273c.053.231.114.459.179.683v0c2.106,6.953,11.522,10.111,16.961,10.991,4.156.676,5.233,3.1,5.511,4.307" transform="translate(-291.746 -866.312)" fill="#2c3a64"/>
          <path id="Trazado_824147" data-name="Trazado 824147" d="M463.15,909.582s-1.843,22.991-4.008,50.627c-2.944,37.542-6.484,83.655-6.834,92.391-.605,15.169-3.035,39.434-3.035,39.434s-5.76,5.765-17.29,3.336c0,0-10.273-34.639-13.208-71.288-.046-.6-.091-1.206-.137-1.811-2.73-37.309-6.975-115.873-6.975-115.873Z" transform="translate(-256.2 -564.099)" fill="#f99746"/>
          <path id="Trazado_824148" data-name="Trazado 824148" d="M463.15,909.582s-1.843,22.991-4.008,50.627l-40.367,63.872c-.046-.6-.091-1.206-.137-1.811-2.73-37.309-6.975-115.873-6.975-115.873Z" transform="translate(-256.2 -564.099)" fill="#ed7d2b"/>
          <path id="Trazado_824149" data-name="Trazado 824149" d="M365.254,897.316S332.04,980.579,310.2,1019.709s-28.665,50.049-28.665,50.049-12.512-5.005-13.65-8.417c0,0,8.351-75.541,22.977-93.956,8.264-10.405,17.973-41.632,18.427-52.551s2.958-32.532,2.958-32.532Z" transform="translate(-166.72 -549.103)" fill="#f99746"/>
          <path id="Trazado_824150" data-name="Trazado 824150" d="M306.754,878.773l-.351,5.355a11.538,11.538,0,0,1-6.364,14.392s-4.235,1.708-4.408-1.589.371-2.057.026-6.7,1.481-9.031,4.552-10.509l2.52-2.908Z" transform="translate(-183.966 -545.688)" fill="#ffb27d"/>
          <path id="Trazado_824151" data-name="Trazado 824151" d="M307.369,717.89c3.676,1.18,4.265.914,4.265.914s17.894-32.578,19.706-35.56,37.992-36.532,37.992-36.532l-9.3-34.67s-41.149,53.285-45.593,60.932c-7.343,12.636-11.645,41.98-11.645,41.98a10.762,10.762,0,0,0,4.573,2.936" transform="translate(-188.446 -380.907)" fill="#1e3d70"/>
          <path id="Trazado_824152" data-name="Trazado 824152" d="M449.373,647.548c-.129,7.12-.543,15.124-1.1,23.253q-.051.723-.1,1.446c-.357,5.036-1.886,22.6-1.966,23.31-1.814,18.437-3.715,33-4.068,33.227a2.068,2.068,0,0,1-1.416.361c-4.835-.607-19.261.49-31.071-2.08-9.966-2.1-18.547-6.088-27.641-11.462-1.207-.713-3.958-2.6-3.735-4.015.22-1.552.626-3.8,1.142-6.615a357.978,357.978,0,0,0,5.94-46.42q.307-5.516.892-10.881a165.133,165.133,0,0,1,4.816-25.986c4.049-14.581,10-25.747,17.466-30.115.975-.546,6.224,2.794,11.044,5.886a21.282,21.282,0,0,0,13.7,3.245l4.012,4.437c4.858,5.647,10.031,13.165,11.443,23.853.106.79.2,1.628.273,2.52a156.618,156.618,0,0,1,.376,16.035" transform="translate(-235.412 -368.13)" fill="#2a4e96"/>
          <path id="Trazado_824153" data-name="Trazado 824153" d="M512.058,699.976c-.129,7.12-.543,15.124-1.1,23.253q-.052.723-.1,1.446c-27.618-17.287-31.872-48.92-31.872-48.92,13.587.6,24.38,3.719,32.7,8.186a156.619,156.619,0,0,1,.376,16.035" transform="translate(-298.097 -420.559)" fill="#1e3d70"/>
          <path id="Trazado_824154" data-name="Trazado 824154" d="M562.176,682.591c.285-4.1-1.836-4.778-1.836-4.778s-41.641-7.547-45.181-8.66-33.808-32.6-33.808-32.6-11.6-13.085-21.1-10.2c-8.255,2.511-11.482,8.95-12.581,15.085a18.069,18.069,0,0,0,8.391,18.549c14.21,8.716,42.66,25.89,49.36,27.854,14.912,4.372,54.978.35,54.978.35a12.926,12.926,0,0,0,1.78-5.6" transform="translate(-278.433 -389.557)" fill="#2a4e96"/>
          <path id="Trazado_824155" data-name="Trazado 824155" d="M710.289,565.04H673.313V528.063h36.977Zm-35.44-1.536h33.9V529.6h-33.9Z" transform="translate(-419.039 -328.642)" fill="#afcdfb"/>
          <path id="Trazado_824156" data-name="Trazado 824156" d="M689.72,549.047l12.027,16.579,14.327-26.5-16.624,15.113Z" transform="translate(-429.25 -335.529)" fill="#e7ffd1"/>
          <path id="Trazado_824157" data-name="Trazado 824157" d="M854.772,446.668H817.8V409.692h36.977Zm-35.44-1.536h33.9v-33.9h-33.9Z" transform="translate(-508.958 -254.973)" fill="#afcdfb"/>
          <path id="Trazado_824158" data-name="Trazado 824158" d="M834.2,430.675l12.027,16.579,14.327-26.5-16.625,15.113Z" transform="translate(-519.17 -261.86)" fill="#e7ffd1"/>
          <path id="Trazado_824159" data-name="Trazado 824159" d="M2422.373,808.949s-.849-8.433,3.561-8.144,5.579,2.311,5.086,3.932-4.782,6.983-4.782,6.983Z" transform="translate(-1507.532 -498.38)" fill="#ffb27d"/>
          <path id="Trazado_824160" data-name="Trazado 824160" d="M2302.333,865.014c-7.695.308-23.115-4.209-28.932-6.6a116.044,116.044,0,0,1-14.385-7.077q-1.644-.954-3.133-1.9c-10.5-6.621-15.383-12.36-15.383-12.36s19.675-17.01,27.612-12.556c9.311,5.228,25.365,22.116,28.076,20.383,3.054-1.953,11.573-25.888,11.573-25.888,5.609-1.069,6.824,3.174,6.824,3.174s-1.329,42.384-12.251,42.821" transform="translate(-1394.383 -509.612)" fill="#f99746"/>
          <path id="Trazado_824161" data-name="Trazado 824161" d="M2317.916,1408.446s-.807,9.33,1.166,10.3l25.238-.051s0-2.913-4.053-3.56-11.175-3.021-12.381-8.307-9.97,1.618-9.97,1.618" transform="translate(-1442.462 -874.305)" fill="#233862"/>
          <path id="Trazado_824162" data-name="Trazado 824162" d="M2314.368,1067.238c-.125,6.1-.417,12.393-.992,18.048-2.726,26.835-3.684,59.258-4.075,65.509-.679,10.851-2.823,28.187-2.823,28.187s-4.252,4.036-12.54,2.11c0,0-6.867-24.968-8.4-51.259-.024-.432-.048-.865-.069-1.3-.178-3.476-.364-7.45-.554-11.736-1.263-28.705-2.635-71.348-2.635-71.348l31.671-7.437s.728,14.017.417,29.225" transform="translate(-1420.385 -646.011)" fill="#2a4e96"/>
          <path id="Trazado_824163" data-name="Trazado 824163" d="M2314.368,1067.238c-8.027,13.848-23.326,39.361-29.454,49.561-1.263-28.705-2.635-71.348-2.635-71.348l31.671-7.437s.728,14.017.417,29.225" transform="translate(-1420.385 -646.011)" fill="#233862"/>
          <path id="Trazado_824164" data-name="Trazado 824164" d="M2189.557,1102.676s-1.965,7.709-1.643,9.422,2.242,7.515,3.438,8.954,1.246-6.257,2.041-7.465.365,2.873,1,3.207,1.7-3.092,2.175-4.307-1.7-5.443-1.9-8.474-5.112-1.337-5.112-1.337" transform="translate(-1361.634 -685.96)" fill="#ffb27d"/>
          <path id="Trazado_824165" data-name="Trazado 824165" d="M2145.556,1383.12s-4.492,4.1-3.615,7.012,4.93,4.855,5.479,8.415,2.738,5.5,4.71,5.5h9.4s1.451-2.5-2.054-3.26-4.828-4.938-4.609-8.822a68.522,68.522,0,0,0-.328-9.062l-7.45-1.726Z" transform="translate(-1332.974 -859.581)" fill="#233862"/>
          <path id="Trazado_824166" data-name="Trazado 824166" d="M2227.695,1043.543s-29.647,63.434-45.424,91.267-20.707,35.6-20.707,35.6-9.039-3.56-9.86-5.988c0,0,6.033-53.733,16.6-66.832,5.97-7.4,12.982-29.613,13.312-37.381s7.255-26.306,7.255-26.306Z" transform="translate(-1339.12 -643.454)" fill="#2a4e96"/>
          <path id="Trazado_824167" data-name="Trazado 824167" d="M2268.731,907.967a51.376,51.376,0,0,1-26.058,13.528c-7.2,1.378-21.813,2.71-25.438-2.416-.85-1.2-.858-2.985-.669-5.767.488-7.23,2.307-21.209-5.9-49.3a47.952,47.952,0,0,1-1.579-7.509c-1.792-14.371,4.268-24.571,11.385-29.122,17.355-11.1,25.837-3.434,25.837-3.434s9.936,4.644,14.477,18.175c9.079,27.067,7.95,65.846,7.95,65.846" transform="translate(-1374.633 -511.18)" fill="#f99746"/>
          <path id="Trazado_824168" data-name="Trazado 824168" d="M2253.44,796.585s9.935,3.222,19-.5c0,0,1.749-.915.316-2.884a28.594,28.594,0,0,0,.145-3.114,45.364,45.364,0,0,0-.05-5.013l-6.677-4.35-6.335-4.168c1.645,13.162-6.4,20.034-6.4,20.034" transform="translate(-1402.437 -483.289)" fill="#ffb27d"/>
          <path id="Trazado_824169" data-name="Trazado 824169" d="M2271.289,788.479s4.752,7.085,12.719,8.473c.11-3.213-.1-6.5-.1-6.5l-6.626-2.867Z" transform="translate(-1413.545 -490.159)" fill="#ed985f"/>
          <path id="Trazado_824170" data-name="Trazado 824170" d="M2281.3,751.683s-16.083,6-19.661-3.907-8.065-15.808,2.053-20.06,13.489-1.184,15.5,1.833,6.2,20.318,2.107,22.134" transform="translate(-1404.96 -451.596)" fill="#ffb27d"/>
          <path id="Trazado_824171" data-name="Trazado 824171" d="M2239.736,718.069c-.185-.143-.561-.214-1.343-.1a3.2,3.2,0,0,1,1.366-.693c-.051-1.109.146-3.128,1.907-3.958a2.369,2.369,0,0,0-.8,1.9c1.711-2.629,5.994-5.142,18.93-6.653,17.048-1.991,13.639,9.85,11.719,11.561s-8.084-.722-12.07.4-3.6,7.124-4.815,8.2-.956-.452-2.98-.925-1.593,2.642-.66,4.538-1.1,5.042-1.1,5.042l-3.13-2.269c-3.129-2.269-7.886-13.561-7.209-16.3.06-.242.118-.487.179-.733" transform="translate(-1393.072 -440.835)" fill="#2c3a64"/>
          <path id="Trazado_824172" data-name="Trazado 824172" d="M2217.09,970.357c.488-7.23,2.307-21.209-5.9-49.3a47.885,47.885,0,0,1-1.579-7.509h0c6.1-2.012,17.217,2.463,17.217,2.463s2.613,37.134-9.735,54.347" transform="translate(-1375.157 -568.225)" fill="#ed7d2b"/>
          <path id="Trazado_824173" data-name="Trazado 824173" d="M2197.865,836.078a39.923,39.923,0,0,0-16.9,23.047c-3.531,13.039-8.989,32.436-9.645,38.5s6.659,41.578,6.659,41.578,1.031.752,3.559.247a5.877,5.877,0,0,0,3.545-2.12s1.749-23.669,1.3-34.844c-.188-4.643,21.494-34.005,33.2-37.788,4.6-1.485-21.711-28.62-21.711-28.62" transform="translate(-1351.303 -520.336)" fill="#f99746"/>
          <path id="Trazado_824174" data-name="Trazado 824174" d="M2254.595,813.706s-2.1,1.028-6.181,6.453c0,0,7.594,9.524,18.555,8.281a36.624,36.624,0,0,1-1.282-8.071s-9.164-1.021-11.093-6.663" transform="translate(-1399.309 -506.413)" fill="#ed7d2b"/>
          <path id="Trazado_824175" data-name="Trazado 824175" d="M2294.154,824.677s5.855,1.528,7.26,5.738c0,0,1.241-3.621.147-5.665a18.257,18.257,0,0,0-3.468-4.121s.8,2.585-3.939,4.048" transform="translate(-1427.775 -510.721)" fill="#ed7d2b"/>
          <path id="Trazado_824176" data-name="Trazado 824176" d="M2421.473,710.263a249.7,249.7,0,0,0-46.737,3.993l-2.615-6.592-2.869-7.222s25.136-10.821,40.247-25.891Z" transform="translate(-1474.513 -419.809)" fill="#fff"/>
          <path id="Trazado_824177" data-name="Trazado 824177" d="M2474.915,673.242l12.457,36.773a3.315,3.315,0,0,0,2.183-4.287l-10.964-30.9a2.734,2.734,0,0,0-3.676-1.589" transform="translate(-1540.273 -418.851)" fill="#f99746"/>
          <path id="Trazado_824178" data-name="Trazado 824178" d="M2426.2,762.162a249.692,249.692,0,0,0-46.737,3.993l-2.615-6.592c23.527-4.8,49.352,2.6,49.352,2.6" transform="translate(-1479.24 -471.707)" fill="#d7e1ff"/>
          <path id="Trazado_824179" data-name="Trazado 824179" d="M2375.774,749.426l-6.779,1.193c.1,0-6.3,1.245-8.4-4.428a4.6,4.6,0,0,1-.4-1.225c-1.631-7.072,2.252-8.374,2.252-8.374l8.725-3.4,2.772,9.81v.035Z" transform="translate(-1468.628 -456.305)" fill="#f99746"/>
          <path id="Trazado_824180" data-name="Trazado 824180" d="M2377.1,765.593l-6.779,1.193c.1,0-6.3,1.246-8.4-4.428,3.836-2.79,13.348-3.189,13.348-3.189v.035Z" transform="translate(-1469.95 -472.472)" fill="#ed7d2b"/>
          <path id="Trazado_824181" data-name="Trazado 824181" d="M2427.506,791.567h0a4.5,4.5,0,0,1-5.285-3.524l-4.289-21.461a4.491,4.491,0,1,1,8.808-1.76l4.289,21.461a4.5,4.5,0,0,1-3.523,5.284" transform="translate(-1504.755 -473.742)" fill="#d7e1ff"/>
          <path id="Trazado_824182" data-name="Trazado 824182" d="M2437.307,786.252s-3.317,1.322-2.709,2.783,4.826,3.469,5.491,2.316-.7-6.331-2.782-5.1" transform="translate(-1515.135 -489.21)" fill="#ffb27d"/>
          <path id="Trazado_824183" data-name="Trazado 824183" d="M2420.777,806.113a46.662,46.662,0,0,1-.665-4.952c-.039-1.559-.49-2.737-.123-2.781s.57.228.719.729l1.055,3.53-.29,3Z" transform="translate(-1506 -496.872)" fill="#ffb27d"/>
        </g>
      </g>
    </g>
    <rect id="Rectángulo_378348" data-name="Rectángulo 378348" width="258" height="62" rx="31" transform="translate(265 3984)" fill="#ffbf9a"/>
    <rect id="Rectángulo_378350" data-name="Rectángulo 378350" width="258" height="62" rx="31" transform="translate(657 3984)" fill="#ffbf9a"/>
    <rect id="Rectángulo_378351" data-name="Rectángulo 378351" width="258" height="62" rx="31" transform="translate(1077 3984)" fill="#ffbf9a"/>
    <rect id="Rectángulo_378349" data-name="Rectángulo 378349" width="258" height="62" rx="31" transform="translate(265 3444)" fill="#ffbf9a"/>
    <rect id="Rectángulo_378352" data-name="Rectángulo 378352" width="258" height="62" rx="31" transform="translate(1077 3444)" fill="#ffbf9a"/>
    <rect id="Rectángulo_378353" data-name="Rectángulo 378353" width="258" height="62" rx="31" transform="translate(657 3444)" fill="#ffbf9a"/>
    <path id="Trazado_826955" data-name="Trazado 826955" d="M-53.833-2.637h-4.623L-59.335,0h-2.8l4.764-12.8h2.443L-50.142,0h-2.8Zm-3.911-2.136h3.2l-1.608-4.79ZM-43.77-7.128a6.9,6.9,0,0,0-.914-.07,1.86,1.86,0,0,0-1.89.976V0h-2.54V-9.51h2.4l.07,1.134a2.354,2.354,0,0,1,2.118-1.31,2.662,2.662,0,0,1,.791.114Zm.686,2.3A5.573,5.573,0,0,1-42.042-8.35a3.375,3.375,0,0,1,2.808-1.336A2.96,2.96,0,0,1-36.8-8.613l.105-.9h2.3V-.316a4.064,4.064,0,0,1-.567,2.171,3.641,3.641,0,0,1-1.6,1.406,5.608,5.608,0,0,1-2.408.483A5.215,5.215,0,0,1-41,3.327,3.619,3.619,0,0,1-42.5,2.25L-41.379.7a2.975,2.975,0,0,0,2.3,1.063A2.178,2.178,0,0,0-37.5,1.226,2.027,2.027,0,0,0-36.94-.308v-.51a2.938,2.938,0,0,1-2.312.993,3.366,3.366,0,0,1-2.773-1.34A5.572,5.572,0,0,1-43.084-4.72Zm2.54.189a3.47,3.47,0,0,0,.519,2.029,1.65,1.65,0,0,0,1.424.735,1.764,1.764,0,0,0,1.661-.871V-6.749a1.76,1.76,0,0,0-1.644-.871,1.66,1.66,0,0,0-1.437.748A3.911,3.911,0,0,0-40.544-4.636Zm13.8,3.669a3.185,3.185,0,0,1-2.6,1.143A3,3,0,0,1-31.68-.7,3.752,3.752,0,0,1-32.5-3.278V-9.51h2.54v6.151q0,1.487,1.354,1.487a1.834,1.834,0,0,0,1.775-.9V-9.51h2.549V0h-2.391Zm6.759-8.543.079,1.063a3.342,3.342,0,0,1,2.733-1.239,2.536,2.536,0,0,1,2.522,1.45,3.265,3.265,0,0,1,2.856-1.45,2.836,2.836,0,0,1,2.3.9,4.141,4.141,0,0,1,.756,2.711V0h-2.549V-6.064A1.811,1.811,0,0,0-11.6-7.247a1.4,1.4,0,0,0-1.116-.374A1.585,1.585,0,0,0-14.3-6.53L-14.291,0h-2.54V-6.056a1.789,1.789,0,0,0-.325-1.2,1.416,1.416,0,0,0-1.107-.369,1.646,1.646,0,0,0-1.564.9V0h-2.54V-9.51ZM-2.408.176A4.668,4.668,0,0,1-5.814-1.107,4.561,4.561,0,0,1-7.128-4.526v-.246a5.745,5.745,0,0,1,.554-2.562,4.064,4.064,0,0,1,1.569-1.74,4.4,4.4,0,0,1,2.316-.611A3.947,3.947,0,0,1,.382-8.455,5,5,0,0,1,1.5-4.966v1.037H-4.553A2.36,2.36,0,0,0-3.81-2.435a2.245,2.245,0,0,0,1.569.563A2.742,2.742,0,0,0,.053-2.936L1.3-1.538A3.813,3.813,0,0,1-.246-.277,5.075,5.075,0,0,1-2.408.176ZM-2.7-7.638a1.587,1.587,0,0,0-1.226.512,2.651,2.651,0,0,0-.6,1.466H-.993v-.2A1.891,1.891,0,0,0-1.45-7.174,1.638,1.638,0,0,0-2.7-7.638ZM5.282-9.51l.079,1.1A3.32,3.32,0,0,1,8.095-9.686a2.759,2.759,0,0,1,2.25.888A4.142,4.142,0,0,1,11.1-6.144V0H8.561V-6.082a1.648,1.648,0,0,0-.352-1.173A1.574,1.574,0,0,0,7.04-7.62a1.747,1.747,0,0,0-1.608.914V0H2.892V-9.51Zm10.784-2.338V-9.51h1.626v1.863H16.066V-2.9a1.133,1.133,0,0,0,.2.756,1.015,1.015,0,0,0,.773.229,4.051,4.051,0,0,0,.747-.062V-.053a5.229,5.229,0,0,1-1.538.229,2.425,2.425,0,0,1-2.725-2.7V-7.646H12.138V-9.51h1.389v-2.338ZM24.618,0a2.821,2.821,0,0,1-.255-.853,3.073,3.073,0,0,1-2.4,1.028,3.376,3.376,0,0,1-2.316-.809,2.6,2.6,0,0,1-.918-2.039,2.687,2.687,0,0,1,1.121-2.32,5.529,5.529,0,0,1,3.239-.817h1.169v-.545a1.567,1.567,0,0,0-.338-1.055,1.331,1.331,0,0,0-1.068-.4,1.513,1.513,0,0,0-1.006.308,1.045,1.045,0,0,0-.365.844H18.94a2.551,2.551,0,0,1,.51-1.529,3.37,3.37,0,0,1,1.441-1.1,5.253,5.253,0,0,1,2.092-.4,4.15,4.15,0,0,1,2.791.883,3.09,3.09,0,0,1,1.033,2.483V-2.2a4.546,4.546,0,0,0,.378,2.048V0Zm-2.1-1.767a2.188,2.188,0,0,0,1.037-.25,1.645,1.645,0,0,0,.7-.672V-4.324h-.949q-1.907,0-2.03,1.318l-.009.149a1.017,1.017,0,0,0,.334.782A1.3,1.3,0,0,0,22.518-1.767Zm10.2-.105a1.666,1.666,0,0,0,1.143-.387,1.355,1.355,0,0,0,.457-1.028h2.382a3.258,3.258,0,0,1-.527,1.771A3.48,3.48,0,0,1,34.748-.268a4.442,4.442,0,0,1-1.991.444,4.129,4.129,0,0,1-3.217-1.3A5.13,5.13,0,0,1,28.362-4.7v-.167a5.071,5.071,0,0,1,1.169-3.507,4.08,4.08,0,0,1,3.208-1.31A4,4,0,0,1,35.6-8.67a3.594,3.594,0,0,1,1.094,2.7H34.313a1.745,1.745,0,0,0-.457-1.206,1.524,1.524,0,0,0-1.16-.464,1.53,1.53,0,0,0-1.34.647,3.749,3.749,0,0,0-.453,2.1v.264a3.8,3.8,0,0,0,.448,2.113A1.549,1.549,0,0,0,32.713-1.872ZM40.825,0H38.276V-9.51h2.549Zm-2.7-11.971a1.251,1.251,0,0,1,.382-.94,1.436,1.436,0,0,1,1.042-.369,1.44,1.44,0,0,1,1.037.369,1.244,1.244,0,0,1,.387.94,1.247,1.247,0,0,1-.391.949,1.443,1.443,0,0,1-1.033.369,1.443,1.443,0,0,1-1.033-.369A1.247,1.247,0,0,1,38.127-11.971Zm4.395,7.128a5.64,5.64,0,0,1,.545-2.522,3.989,3.989,0,0,1,1.569-1.714,4.577,4.577,0,0,1,2.377-.606,4.33,4.33,0,0,1,3.142,1.178,4.727,4.727,0,0,1,1.358,3.2l.018.65a4.97,4.97,0,0,1-1.222,3.511A4.247,4.247,0,0,1,47.03.176a4.268,4.268,0,0,1-3.283-1.318,5.058,5.058,0,0,1-1.226-3.586Zm2.54.18a3.555,3.555,0,0,0,.51,2.073,1.682,1.682,0,0,0,1.459.717,1.686,1.686,0,0,0,1.441-.709,3.89,3.89,0,0,0,.519-2.267,3.519,3.519,0,0,0-.519-2.06,1.686,1.686,0,0,0-1.459-.731,1.658,1.658,0,0,0-1.441.726A3.955,3.955,0,0,0,45.062-4.662ZM47.514-13.5h2.769l-2.435,2.725H45.782Zm7.919,3.99.079,1.1a3.32,3.32,0,0,1,2.733-1.274A2.759,2.759,0,0,1,60.5-8.8a4.142,4.142,0,0,1,.756,2.654V0h-2.54V-6.082a1.648,1.648,0,0,0-.352-1.173A1.574,1.574,0,0,0,57.19-7.62a1.747,1.747,0,0,0-1.608.914V0h-2.54V-9.51Z" transform="translate(409 4021)" fill="#12263f"/>
    <path id="Trazado_826954" data-name="Trazado 826954" d="M-58.812-2.637h-4.623L-64.314,0h-2.8l4.764-12.8h2.443L-55.121,0h-2.8Zm-3.911-2.136h3.2l-1.608-4.79Zm12.586,2.9a1.666,1.666,0,0,0,1.143-.387,1.355,1.355,0,0,0,.457-1.028h2.382a3.258,3.258,0,0,1-.527,1.771A3.48,3.48,0,0,1-48.1-.268a4.442,4.442,0,0,1-1.991.444,4.129,4.129,0,0,1-3.217-1.3A5.13,5.13,0,0,1-54.488-4.7v-.167a5.071,5.071,0,0,1,1.169-3.507,4.08,4.08,0,0,1,3.208-1.31A4,4,0,0,1-47.25-8.67a3.594,3.594,0,0,1,1.094,2.7h-2.382a1.745,1.745,0,0,0-.457-1.206,1.524,1.524,0,0,0-1.16-.464,1.53,1.53,0,0,0-1.34.647,3.749,3.749,0,0,0-.453,2.1v.264A3.8,3.8,0,0,0-51.5-2.515,1.549,1.549,0,0,0-50.137-1.872Zm8.473-9.976V-9.51h1.626v1.863h-1.626V-2.9a1.133,1.133,0,0,0,.2.756,1.015,1.015,0,0,0,.773.229,4.051,4.051,0,0,0,.747-.062V-.053A5.229,5.229,0,0,1-41.48.176a2.425,2.425,0,0,1-2.725-2.7V-7.646h-1.389V-9.51H-44.2v-2.338Zm2.382,7a5.64,5.64,0,0,1,.545-2.522,3.989,3.989,0,0,1,1.569-1.714,4.577,4.577,0,0,1,2.377-.606,4.33,4.33,0,0,1,3.142,1.178,4.727,4.727,0,0,1,1.358,3.2l.018.65A4.97,4.97,0,0,1-31.5-1.147,4.247,4.247,0,0,1-34.774.176a4.268,4.268,0,0,1-3.283-1.318,5.058,5.058,0,0,1-1.226-3.586Zm2.54.18a3.555,3.555,0,0,0,.51,2.073,1.682,1.682,0,0,0,1.459.717,1.686,1.686,0,0,0,1.441-.709,3.89,3.89,0,0,0,.519-2.267,3.519,3.519,0,0,0-.519-2.06,1.686,1.686,0,0,0-1.459-.731,1.658,1.658,0,0,0-1.441.726A3.955,3.955,0,0,0-36.743-4.662Zm13.377-2.465a6.9,6.9,0,0,0-.914-.07,1.86,1.86,0,0,0-1.89.976V0h-2.54V-9.51h2.4l.07,1.134a2.354,2.354,0,0,1,2.118-1.31,2.662,2.662,0,0,1,.791.114Zm5.432,7.3A4.668,4.668,0,0,1-21.34-1.107a4.561,4.561,0,0,1-1.314-3.419v-.246A5.745,5.745,0,0,1-22.1-7.334a4.064,4.064,0,0,1,1.569-1.74,4.4,4.4,0,0,1,2.316-.611,3.947,3.947,0,0,1,3.072,1.23,5,5,0,0,1,1.121,3.489v1.037h-6.056a2.36,2.36,0,0,0,.743,1.494,2.245,2.245,0,0,0,1.569.563,2.742,2.742,0,0,0,2.294-1.063l1.248,1.4A3.813,3.813,0,0,1-15.772-.277,5.075,5.075,0,0,1-17.934.176Zm-.29-7.813a1.587,1.587,0,0,0-1.226.512,2.651,2.651,0,0,0-.6,1.466h3.533v-.2a1.891,1.891,0,0,0-.457-1.311A1.638,1.638,0,0,0-18.224-7.638Zm10.793,5.01a.818.818,0,0,0-.461-.734,5.241,5.241,0,0,0-1.481-.479q-3.393-.712-3.393-2.883a2.613,2.613,0,0,1,1.05-2.114,4.237,4.237,0,0,1,2.747-.848,4.56,4.56,0,0,1,2.9.853A2.687,2.687,0,0,1-4.988-6.618h-2.54a1.229,1.229,0,0,0-.352-.9,1.488,1.488,0,0,0-1.1-.356,1.52,1.52,0,0,0-.993.29.916.916,0,0,0-.352.738.783.783,0,0,0,.4.681,4.114,4.114,0,0,0,1.349.448,11.019,11.019,0,0,1,1.6.426A2.628,2.628,0,0,1-4.961-2.733a2.481,2.481,0,0,1-1.116,2.1,4.815,4.815,0,0,1-2.883.8A5.029,5.029,0,0,1-11.083-.25a3.561,3.561,0,0,1-1.455-1.169,2.716,2.716,0,0,1-.527-1.6h2.408a1.326,1.326,0,0,0,.5,1.037,1.987,1.987,0,0,0,1.248.36A1.839,1.839,0,0,0-7.8-1.9.861.861,0,0,0-7.431-2.628Zm13.737,0a.818.818,0,0,0-.461-.734,5.241,5.241,0,0,0-1.481-.479Q.971-4.553.971-6.724a2.613,2.613,0,0,1,1.05-2.114,4.237,4.237,0,0,1,2.747-.848,4.56,4.56,0,0,1,2.9.853A2.687,2.687,0,0,1,8.75-6.618H6.209a1.229,1.229,0,0,0-.352-.9,1.488,1.488,0,0,0-1.1-.356,1.52,1.52,0,0,0-.993.29.916.916,0,0,0-.352.738.783.783,0,0,0,.4.681,4.114,4.114,0,0,0,1.349.448,11.019,11.019,0,0,1,1.6.426A2.628,2.628,0,0,1,8.776-2.733,2.481,2.481,0,0,1,7.66-.628a4.815,4.815,0,0,1-2.883.8A5.029,5.029,0,0,1,2.654-.25,3.561,3.561,0,0,1,1.2-1.419a2.716,2.716,0,0,1-.527-1.6H3.081a1.326,1.326,0,0,0,.5,1.037,1.987,1.987,0,0,0,1.248.36,1.839,1.839,0,0,0,1.1-.277A.861.861,0,0,0,6.306-2.628Zm3.709-2.215a5.64,5.64,0,0,1,.545-2.522,3.989,3.989,0,0,1,1.569-1.714,4.577,4.577,0,0,1,2.377-.606,4.33,4.33,0,0,1,3.142,1.178,4.727,4.727,0,0,1,1.358,3.2l.018.65A4.97,4.97,0,0,1,17.8-1.147,4.247,4.247,0,0,1,14.524.176a4.268,4.268,0,0,1-3.283-1.318,5.058,5.058,0,0,1-1.226-3.586Zm2.54.18a3.555,3.555,0,0,0,.51,2.073,1.682,1.682,0,0,0,1.459.717,1.686,1.686,0,0,0,1.441-.709,3.89,3.89,0,0,0,.519-2.267,3.519,3.519,0,0,0-.519-2.06,1.686,1.686,0,0,0-1.459-.731,1.658,1.658,0,0,0-1.441.726A3.955,3.955,0,0,0,12.555-4.662Zm11.988,2.79a1.666,1.666,0,0,0,1.143-.387,1.355,1.355,0,0,0,.457-1.028h2.382A3.258,3.258,0,0,1,28-1.516,3.48,3.48,0,0,1,26.578-.268a4.442,4.442,0,0,1-1.991.444,4.129,4.129,0,0,1-3.217-1.3A5.13,5.13,0,0,1,20.193-4.7v-.167a5.071,5.071,0,0,1,1.169-3.507,4.08,4.08,0,0,1,3.208-1.31A4,4,0,0,1,27.431-8.67a3.594,3.594,0,0,1,1.094,2.7H26.143a1.745,1.745,0,0,0-.457-1.206,1.524,1.524,0,0,0-1.16-.464,1.53,1.53,0,0,0-1.34.647,3.749,3.749,0,0,0-.453,2.1v.264a3.8,3.8,0,0,0,.448,2.113A1.549,1.549,0,0,0,24.543-1.872ZM32.656,0H30.107V-9.51h2.549Zm-2.7-11.971a1.251,1.251,0,0,1,.382-.94,1.436,1.436,0,0,1,1.042-.369,1.44,1.44,0,0,1,1.037.369,1.244,1.244,0,0,1,.387.94,1.247,1.247,0,0,1-.391.949,1.443,1.443,0,0,1-1.033.369,1.443,1.443,0,0,1-1.033-.369A1.247,1.247,0,0,1,29.958-11.971ZM40.258,0A2.821,2.821,0,0,1,40-.853,3.073,3.073,0,0,1,37.6.176a3.376,3.376,0,0,1-2.316-.809,2.6,2.6,0,0,1-.918-2.039,2.687,2.687,0,0,1,1.121-2.32,5.529,5.529,0,0,1,3.239-.817H39.9v-.545a1.567,1.567,0,0,0-.338-1.055,1.331,1.331,0,0,0-1.068-.4,1.513,1.513,0,0,0-1.006.308,1.045,1.045,0,0,0-.365.844h-2.54a2.551,2.551,0,0,1,.51-1.529,3.37,3.37,0,0,1,1.441-1.1,5.253,5.253,0,0,1,2.092-.4,4.15,4.15,0,0,1,2.791.883,3.09,3.09,0,0,1,1.033,2.483V-2.2a4.546,4.546,0,0,0,.378,2.048V0Zm-2.1-1.767a2.188,2.188,0,0,0,1.037-.25,1.645,1.645,0,0,0,.7-.672V-4.324h-.949q-1.907,0-2.03,1.318l-.009.149a1.017,1.017,0,0,0,.334.782A1.3,1.3,0,0,0,38.158-1.767ZM47.079,0H44.53V-13.5h2.549Zm6.469.176a4.668,4.668,0,0,1-3.406-1.283,4.561,4.561,0,0,1-1.314-3.419v-.246a5.745,5.745,0,0,1,.554-2.562,4.064,4.064,0,0,1,1.569-1.74,4.4,4.4,0,0,1,2.316-.611,3.947,3.947,0,0,1,3.072,1.23,5,5,0,0,1,1.121,3.489v1.037H51.4a2.36,2.36,0,0,0,.743,1.494,2.245,2.245,0,0,0,1.569.563,2.742,2.742,0,0,0,2.294-1.063l1.248,1.4A3.813,3.813,0,0,1,55.709-.277,5.075,5.075,0,0,1,53.547.176Zm-.29-7.813a1.587,1.587,0,0,0-1.226.512,2.651,2.651,0,0,0-.6,1.466h3.533v-.2a1.891,1.891,0,0,0-.457-1.311A1.638,1.638,0,0,0,53.257-7.638ZM64.05-2.628a.818.818,0,0,0-.461-.734,5.241,5.241,0,0,0-1.481-.479q-3.393-.712-3.393-2.883a2.613,2.613,0,0,1,1.05-2.114,4.237,4.237,0,0,1,2.747-.848,4.56,4.56,0,0,1,2.9.853,2.687,2.687,0,0,1,1.085,2.215h-2.54a1.229,1.229,0,0,0-.352-.9,1.488,1.488,0,0,0-1.1-.356,1.52,1.52,0,0,0-.993.29.916.916,0,0,0-.352.738.783.783,0,0,0,.4.681,4.114,4.114,0,0,0,1.349.448,11.019,11.019,0,0,1,1.6.426A2.628,2.628,0,0,1,66.52-2.733,2.481,2.481,0,0,1,65.4-.628a4.815,4.815,0,0,1-2.883.8A5.029,5.029,0,0,1,60.4-.25a3.561,3.561,0,0,1-1.455-1.169,2.716,2.716,0,0,1-.527-1.6h2.408a1.326,1.326,0,0,0,.5,1.037,1.987,1.987,0,0,0,1.248.36,1.839,1.839,0,0,0,1.1-.277A.861.861,0,0,0,64.05-2.628Z" transform="translate(800 4021)" fill="#12263f"/>
    <path id="Trazado_826953" data-name="Trazado 826953" d="M-49.61-10.661h-3.92V0h-2.637V-10.661h-3.867V-12.8H-49.61ZM-50.5-4.843a5.64,5.64,0,0,1,.545-2.522,3.989,3.989,0,0,1,1.569-1.714,4.577,4.577,0,0,1,2.377-.606,4.33,4.33,0,0,1,3.142,1.178,4.727,4.727,0,0,1,1.358,3.2l.018.65A4.97,4.97,0,0,1-42.71-1.147,4.247,4.247,0,0,1-45.989.176a4.268,4.268,0,0,1-3.283-1.318A5.058,5.058,0,0,1-50.5-4.729Zm2.54.18a3.555,3.555,0,0,0,.51,2.073,1.682,1.682,0,0,0,1.459.717,1.686,1.686,0,0,0,1.441-.709,3.89,3.89,0,0,0,.519-2.267,3.519,3.519,0,0,0-.519-2.06,1.686,1.686,0,0,0-1.459-.731,1.658,1.658,0,0,0-1.441.726A3.955,3.955,0,0,0-47.958-4.662ZM-37.542-9.51l.079,1.063A3.342,3.342,0,0,1-34.73-9.686a2.536,2.536,0,0,1,2.522,1.45,3.265,3.265,0,0,1,2.856-1.45,2.836,2.836,0,0,1,2.3.9,4.141,4.141,0,0,1,.756,2.711V0h-2.549V-6.064a1.811,1.811,0,0,0-.316-1.182,1.4,1.4,0,0,0-1.116-.374,1.585,1.585,0,0,0-1.582,1.09L-31.847,0h-2.54V-6.056a1.789,1.789,0,0,0-.325-1.2A1.416,1.416,0,0,0-35.82-7.62a1.646,1.646,0,0,0-1.564.9V0h-2.54V-9.51ZM-18.831,0a2.821,2.821,0,0,1-.255-.853,3.073,3.073,0,0,1-2.4,1.028A3.376,3.376,0,0,1-23.8-.633a2.6,2.6,0,0,1-.918-2.039A2.687,2.687,0,0,1-23.6-4.992,5.529,5.529,0,0,1-20.36-5.81h1.169v-.545a1.567,1.567,0,0,0-.338-1.055A1.331,1.331,0,0,0-20.6-7.8,1.513,1.513,0,0,0-21.6-7.5a1.045,1.045,0,0,0-.365.844h-2.54A2.551,2.551,0,0,1-24-8.183a3.37,3.37,0,0,1,1.441-1.1,5.253,5.253,0,0,1,2.092-.4,4.15,4.15,0,0,1,2.791.883,3.09,3.09,0,0,1,1.033,2.483V-2.2a4.546,4.546,0,0,0,.378,2.048V0Zm-2.1-1.767a2.188,2.188,0,0,0,1.037-.25,1.645,1.645,0,0,0,.7-.672V-4.324h-.949q-1.907,0-2.03,1.318l-.009.149a1.017,1.017,0,0,0,.334.782A1.3,1.3,0,0,0-20.931-1.767ZM-9.347-7.128a6.9,6.9,0,0,0-.914-.07,1.86,1.86,0,0,0-1.89.976V0h-2.54V-9.51h2.4l.07,1.134A2.354,2.354,0,0,1-10.1-9.686a2.662,2.662,0,0,1,.791.114ZM1.868,0a2.821,2.821,0,0,1-.255-.853A3.073,3.073,0,0,1-.787.176,3.376,3.376,0,0,1-3.1-.633a2.6,2.6,0,0,1-.918-2.039A2.687,2.687,0,0,1-2.9-4.992,5.529,5.529,0,0,1,.338-5.81H1.507v-.545a1.567,1.567,0,0,0-.338-1.055A1.331,1.331,0,0,0,.1-7.8,1.513,1.513,0,0,0-.905-7.5a1.045,1.045,0,0,0-.365.844H-3.81A2.551,2.551,0,0,1-3.3-8.183a3.37,3.37,0,0,1,1.441-1.1,5.253,5.253,0,0,1,2.092-.4A4.15,4.15,0,0,1,3.023-8.8,3.09,3.09,0,0,1,4.056-6.319V-2.2A4.546,4.546,0,0,0,4.434-.149V0Zm-2.1-1.767A2.188,2.188,0,0,0,.8-2.017a1.645,1.645,0,0,0,.7-.672V-4.324H.558q-1.907,0-2.03,1.318l-.009.149a1.017,1.017,0,0,0,.334.782A1.3,1.3,0,0,0-.233-1.767Zm14.8-2.9a5.7,5.7,0,0,1-1,3.52A3.2,3.2,0,0,1,10.876.176a2.963,2.963,0,0,1-2.329-1V3.656H6.007V-9.51H8.363l.088.932a2.985,2.985,0,0,1,2.408-1.107,3.22,3.22,0,0,1,2.733,1.3A5.858,5.858,0,0,1,14.568-4.8Zm-2.54-.185a3.743,3.743,0,0,0-.47-2.048,1.532,1.532,0,0,0-1.367-.721,1.663,1.663,0,0,0-1.644.914v3.894a1.692,1.692,0,0,0,1.661.94Q12.028-1.872,12.028-4.852ZM21.836-.967a3.185,3.185,0,0,1-2.6,1.143A3,3,0,0,1,16.9-.7a3.752,3.752,0,0,1-.822-2.575V-9.51h2.54v6.151q0,1.487,1.354,1.487a1.834,1.834,0,0,0,1.775-.9V-9.51H24.3V0H21.907ZM28.551-9.51l.079,1.1a3.32,3.32,0,0,1,2.733-1.274,2.759,2.759,0,0,1,2.25.888,4.142,4.142,0,0,1,.756,2.654V0H31.83V-6.082a1.648,1.648,0,0,0-.352-1.173,1.574,1.574,0,0,0-1.169-.365,1.747,1.747,0,0,0-1.608.914V0h-2.54V-9.51Zm10.784-2.338V-9.51h1.626v1.863H39.335V-2.9a1.133,1.133,0,0,0,.2.756,1.015,1.015,0,0,0,.773.229,4.051,4.051,0,0,0,.747-.062V-.053A5.229,5.229,0,0,1,39.52.176a2.425,2.425,0,0,1-2.725-2.7V-7.646H35.407V-9.51H36.8v-2.338ZM46.753.176a4.668,4.668,0,0,1-3.406-1.283,4.561,4.561,0,0,1-1.314-3.419v-.246a5.745,5.745,0,0,1,.554-2.562,4.064,4.064,0,0,1,1.569-1.74,4.4,4.4,0,0,1,2.316-.611,3.947,3.947,0,0,1,3.072,1.23,5,5,0,0,1,1.121,3.489v1.037H44.609a2.36,2.36,0,0,0,.743,1.494,2.245,2.245,0,0,0,1.569.563,2.742,2.742,0,0,0,2.294-1.063l1.248,1.4A3.813,3.813,0,0,1,48.916-.277,5.075,5.075,0,0,1,46.753.176Zm-.29-7.813a1.587,1.587,0,0,0-1.226.512,2.651,2.651,0,0,0-.6,1.466h3.533v-.2a1.891,1.891,0,0,0-.457-1.311A1.638,1.638,0,0,0,46.463-7.638Zm10.793,5.01a.818.818,0,0,0-.461-.734,5.241,5.241,0,0,0-1.481-.479q-3.393-.712-3.393-2.883a2.613,2.613,0,0,1,1.05-2.114,4.237,4.237,0,0,1,2.747-.848,4.56,4.56,0,0,1,2.9.853A2.687,2.687,0,0,1,59.7-6.618H57.16a1.229,1.229,0,0,0-.352-.9,1.488,1.488,0,0,0-1.1-.356,1.52,1.52,0,0,0-.993.29.916.916,0,0,0-.352.738.783.783,0,0,0,.4.681,4.114,4.114,0,0,0,1.349.448,11.019,11.019,0,0,1,1.6.426,2.628,2.628,0,0,1,2.013,2.558,2.481,2.481,0,0,1-1.116,2.1,4.815,4.815,0,0,1-2.883.8A5.029,5.029,0,0,1,53.6-.25,3.561,3.561,0,0,1,52.15-1.419a2.716,2.716,0,0,1-.527-1.6h2.408a1.326,1.326,0,0,0,.5,1.037,1.987,1.987,0,0,0,1.248.36,1.839,1.839,0,0,0,1.1-.277A.861.861,0,0,0,57.256-2.628Z" transform="translate(1226 4021)" fill="#12263f"/>
    <path id="Trazado_826950" data-name="Trazado 826950" d="M-74.237,0h-2.637V-12.8h2.637Zm1.881-4.825a5.731,5.731,0,0,1,1-3.542,3.237,3.237,0,0,1,2.729-1.318,2.913,2.913,0,0,1,2.294,1.037V-13.5h2.549V0h-2.294L-66.2-1.011A2.989,2.989,0,0,1-68.647.176a3.228,3.228,0,0,1-2.694-1.323A5.916,5.916,0,0,1-72.356-4.825Zm2.54.189a3.754,3.754,0,0,0,.466,2.051A1.517,1.517,0,0,0-68-1.872a1.7,1.7,0,0,0,1.661-.995V-6.625a1.675,1.675,0,0,0-1.644-.995Q-69.816-7.62-69.816-4.636ZM-57.441.176a4.668,4.668,0,0,1-3.406-1.283,4.561,4.561,0,0,1-1.314-3.419v-.246a5.745,5.745,0,0,1,.554-2.562,4.064,4.064,0,0,1,1.569-1.74,4.4,4.4,0,0,1,2.316-.611,3.947,3.947,0,0,1,3.072,1.23A5,5,0,0,1-53.53-4.966v1.037h-6.056a2.36,2.36,0,0,0,.743,1.494,2.245,2.245,0,0,0,1.569.563A2.742,2.742,0,0,0-54.98-2.936l1.248,1.4A3.813,3.813,0,0,1-55.279-.277,5.075,5.075,0,0,1-57.441.176Zm-.29-7.813a1.587,1.587,0,0,0-1.226.512,2.651,2.651,0,0,0-.6,1.466h3.533v-.2a1.891,1.891,0,0,0-.457-1.311A1.638,1.638,0,0,0-57.731-7.638Zm7.98-1.872.079,1.1a3.32,3.32,0,0,1,2.733-1.274,2.759,2.759,0,0,1,2.25.888,4.142,4.142,0,0,1,.756,2.654V0h-2.54V-6.082a1.648,1.648,0,0,0-.352-1.173,1.574,1.574,0,0,0-1.169-.365,1.747,1.747,0,0,0-1.608.914V0h-2.54V-9.51Zm10.784-2.338V-9.51h1.626v1.863h-1.626V-2.9a1.133,1.133,0,0,0,.2.756,1.015,1.015,0,0,0,.773.229,4.051,4.051,0,0,0,.747-.062V-.053a5.229,5.229,0,0,1-1.538.229,2.425,2.425,0,0,1-2.725-2.7V-7.646H-42.9V-9.51h1.389v-2.338ZM-33.245,0h-2.549V-9.51h2.549Zm-2.7-11.971a1.251,1.251,0,0,1,.382-.94,1.436,1.436,0,0,1,1.042-.369,1.44,1.44,0,0,1,1.037.369,1.244,1.244,0,0,1,.387.94,1.247,1.247,0,0,1-.391.949,1.443,1.443,0,0,1-1.033.369,1.443,1.443,0,0,1-1.033-.369A1.247,1.247,0,0,1-35.943-11.971ZM-30.538,0V-7.646h-1.415V-9.51h1.415v-.439a3.566,3.566,0,0,1,1.1-2.764,4.438,4.438,0,0,1,3.063-.971,10.16,10.16,0,0,1,2.883.519l-.369,2.1a11.248,11.248,0,0,0-1.336-.33,6.564,6.564,0,0,0-1.02-.075q-1.775,0-1.775,1.573v.387h1.872v1.863h-1.872V0ZM-22.3,0h-2.549V-9.51H-22.3Zm6.056-1.872A1.666,1.666,0,0,0-15.1-2.259a1.355,1.355,0,0,0,.457-1.028h2.382a3.258,3.258,0,0,1-.527,1.771A3.48,3.48,0,0,1-14.212-.268,4.442,4.442,0,0,1-16.2.176a4.129,4.129,0,0,1-3.217-1.3A5.13,5.13,0,0,1-20.6-4.7v-.167a5.071,5.071,0,0,1,1.169-3.507,4.08,4.08,0,0,1,3.208-1.31A4,4,0,0,1-13.359-8.67a3.594,3.594,0,0,1,1.094,2.7h-2.382A1.745,1.745,0,0,0-15.1-7.174a1.524,1.524,0,0,0-1.16-.464,1.53,1.53,0,0,0-1.34.647,3.749,3.749,0,0,0-.453,2.1v.264a3.8,3.8,0,0,0,.448,2.113A1.549,1.549,0,0,0-16.247-1.872ZM-5.3,0a2.821,2.821,0,0,1-.255-.853A3.073,3.073,0,0,1-7.958.176a3.376,3.376,0,0,1-2.316-.809,2.6,2.6,0,0,1-.918-2.039,2.687,2.687,0,0,1,1.121-2.32A5.529,5.529,0,0,1-6.833-5.81h1.169v-.545A1.567,1.567,0,0,0-6-7.409a1.331,1.331,0,0,0-1.068-.4A1.513,1.513,0,0,0-8.077-7.5a1.045,1.045,0,0,0-.365.844h-2.54a2.551,2.551,0,0,1,.51-1.529,3.37,3.37,0,0,1,1.441-1.1,5.253,5.253,0,0,1,2.092-.4A4.15,4.15,0,0,1-4.148-8.8,3.09,3.09,0,0,1-3.116-6.319V-2.2A4.546,4.546,0,0,0-2.738-.149V0ZM-7.4-1.767a2.188,2.188,0,0,0,1.037-.25,1.645,1.645,0,0,0,.7-.672V-4.324h-.949q-1.907,0-2.03,1.318l-.009.149a1.017,1.017,0,0,0,.334.782A1.3,1.3,0,0,0-7.4-1.767ZM4.179-7.128a6.9,6.9,0,0,0-.914-.07,1.86,1.86,0,0,0-1.89.976V0h-2.54V-9.51h2.4l.07,1.134a2.354,2.354,0,0,1,2.118-1.31,2.662,2.662,0,0,1,.791.114ZM12.265-9.51l.079,1.063a3.342,3.342,0,0,1,2.733-1.239A2.536,2.536,0,0,1,17.6-8.235a3.265,3.265,0,0,1,2.856-1.45,2.836,2.836,0,0,1,2.3.9,4.141,4.141,0,0,1,.756,2.711V0H20.966V-6.064a1.811,1.811,0,0,0-.316-1.182,1.4,1.4,0,0,0-1.116-.374,1.585,1.585,0,0,0-1.582,1.09L17.96,0H15.42V-6.056a1.789,1.789,0,0,0-.325-1.2,1.416,1.416,0,0,0-1.107-.369,1.646,1.646,0,0,0-1.564.9V0H9.883V-9.51ZM29.843.176a4.668,4.668,0,0,1-3.406-1.283,4.561,4.561,0,0,1-1.314-3.419v-.246a5.745,5.745,0,0,1,.554-2.562,4.064,4.064,0,0,1,1.569-1.74,4.4,4.4,0,0,1,2.316-.611,3.947,3.947,0,0,1,3.072,1.23,5,5,0,0,1,1.121,3.489v1.037H27.7a2.36,2.36,0,0,0,.743,1.494,2.245,2.245,0,0,0,1.569.563A2.742,2.742,0,0,0,32.3-2.936l1.248,1.4A3.813,3.813,0,0,1,32.005-.277,5.075,5.075,0,0,1,29.843.176Zm-.29-7.813a1.587,1.587,0,0,0-1.226.512,2.651,2.651,0,0,0-.6,1.466h3.533v-.2A1.891,1.891,0,0,0,30.8-7.174,1.638,1.638,0,0,0,29.553-7.638ZM34.8-4.825a5.731,5.731,0,0,1,1-3.542,3.237,3.237,0,0,1,2.729-1.318,2.913,2.913,0,0,1,2.294,1.037V-13.5H43.37V0H41.076l-.123-1.011A2.989,2.989,0,0,1,38.509.176a3.228,3.228,0,0,1-2.694-1.323A5.916,5.916,0,0,1,34.8-4.825Zm2.54.189a3.754,3.754,0,0,0,.466,2.051,1.517,1.517,0,0,0,1.354.713,1.7,1.7,0,0,0,1.661-.995V-6.625a1.675,1.675,0,0,0-1.644-.995Q37.34-7.62,37.34-4.636ZM48.019,0H45.47V-9.51h2.549Zm-2.7-11.971a1.251,1.251,0,0,1,.382-.94,1.436,1.436,0,0,1,1.042-.369,1.44,1.44,0,0,1,1.037.369,1.244,1.244,0,0,1,.387.94,1.247,1.247,0,0,1-.391.949,1.443,1.443,0,0,1-1.033.369,1.443,1.443,0,0,1-1.033-.369A1.247,1.247,0,0,1,45.321-11.971Zm4.395,7.146a5.731,5.731,0,0,1,1-3.542,3.237,3.237,0,0,1,2.729-1.318,2.913,2.913,0,0,1,2.294,1.037V-13.5h2.549V0H55.991l-.123-1.011A2.989,2.989,0,0,1,53.424.176,3.228,3.228,0,0,1,50.73-1.147,5.916,5.916,0,0,1,49.715-4.825Zm2.54.189a3.754,3.754,0,0,0,.466,2.051,1.517,1.517,0,0,0,1.354.713,1.7,1.7,0,0,0,1.661-.995V-6.625a1.675,1.675,0,0,0-1.644-.995Q52.255-7.62,52.255-4.636ZM65.764,0a2.821,2.821,0,0,1-.255-.853A3.073,3.073,0,0,1,63.11.176a3.376,3.376,0,0,1-2.316-.809,2.6,2.6,0,0,1-.918-2.039A2.687,2.687,0,0,1,61-4.992a5.529,5.529,0,0,1,3.239-.817H65.4v-.545a1.567,1.567,0,0,0-.338-1.055A1.331,1.331,0,0,0,64-7.8a1.513,1.513,0,0,0-1.006.308,1.045,1.045,0,0,0-.365.844h-2.54a2.551,2.551,0,0,1,.51-1.529,3.37,3.37,0,0,1,1.441-1.1,5.253,5.253,0,0,1,2.092-.4A4.15,4.15,0,0,1,66.92-8.8a3.09,3.09,0,0,1,1.033,2.483V-2.2a4.546,4.546,0,0,0,.378,2.048V0Zm-2.1-1.767a2.188,2.188,0,0,0,1.037-.25,1.645,1.645,0,0,0,.7-.672V-4.324h-.949q-1.907,0-2.03,1.318l-.009.149a1.017,1.017,0,0,0,.334.782A1.3,1.3,0,0,0,63.664-1.767Zm11.391-.861a.818.818,0,0,0-.461-.734,5.241,5.241,0,0,0-1.481-.479q-3.393-.712-3.393-2.883a2.613,2.613,0,0,1,1.05-2.114,4.237,4.237,0,0,1,2.747-.848,4.56,4.56,0,0,1,2.9.853A2.687,2.687,0,0,1,77.5-6.618h-2.54a1.229,1.229,0,0,0-.352-.9,1.488,1.488,0,0,0-1.1-.356,1.52,1.52,0,0,0-.993.29.916.916,0,0,0-.352.738.783.783,0,0,0,.4.681,4.114,4.114,0,0,0,1.349.448,11.019,11.019,0,0,1,1.6.426,2.628,2.628,0,0,1,2.013,2.558,2.481,2.481,0,0,1-1.116,2.1,4.815,4.815,0,0,1-2.883.8A5.029,5.029,0,0,1,71.4-.25a3.561,3.561,0,0,1-1.455-1.169,2.716,2.716,0,0,1-.527-1.6h2.408a1.326,1.326,0,0,0,.5,1.037,1.987,1.987,0,0,0,1.248.36,1.839,1.839,0,0,0,1.1-.277A.861.861,0,0,0,75.054-2.628Zm-128.47,17.8a5.731,5.731,0,0,1,1-3.542,3.237,3.237,0,0,1,2.729-1.318A2.913,2.913,0,0,1-47.4,11.352V6.5h2.549V20H-47.14l-.123-1.011a2.989,2.989,0,0,1-2.443,1.187A3.228,3.228,0,0,1-52.4,18.853,5.916,5.916,0,0,1-53.416,15.175Zm2.54.189a3.754,3.754,0,0,0,.466,2.051,1.517,1.517,0,0,0,1.354.713,1.7,1.7,0,0,0,1.661-.995V13.375a1.675,1.675,0,0,0-1.644-.995Q-50.875,12.38-50.875,15.364ZM-38.5,20.176a4.668,4.668,0,0,1-3.406-1.283,4.561,4.561,0,0,1-1.314-3.419v-.246a5.745,5.745,0,0,1,.554-2.562,4.064,4.064,0,0,1,1.569-1.74,4.4,4.4,0,0,1,2.316-.611,3.947,3.947,0,0,1,3.072,1.23,5,5,0,0,1,1.121,3.489v1.037h-6.056a2.36,2.36,0,0,0,.743,1.494,2.245,2.245,0,0,0,1.569.563,2.742,2.742,0,0,0,2.294-1.063l1.248,1.4a3.813,3.813,0,0,1-1.547,1.261A5.075,5.075,0,0,1-38.5,20.176Zm-.29-7.813a1.587,1.587,0,0,0-1.226.512,2.651,2.651,0,0,0-.6,1.466h3.533v-.2a1.891,1.891,0,0,0-.457-1.311A1.638,1.638,0,0,0-38.791,12.362Zm9.729,2.795a5.64,5.64,0,0,1,.545-2.522,3.989,3.989,0,0,1,1.569-1.714,4.577,4.577,0,0,1,2.377-.606,4.33,4.33,0,0,1,3.142,1.178,4.727,4.727,0,0,1,1.358,3.2l.018.65a4.97,4.97,0,0,1-1.222,3.511,4.247,4.247,0,0,1-3.278,1.323,4.268,4.268,0,0,1-3.283-1.318,5.058,5.058,0,0,1-1.226-3.586Zm2.54.18a3.555,3.555,0,0,0,.51,2.073,1.682,1.682,0,0,0,1.459.717,1.686,1.686,0,0,0,1.441-.709,3.89,3.89,0,0,0,.519-2.267,3.519,3.519,0,0,0-.519-2.06,1.686,1.686,0,0,0-1.459-.731,1.658,1.658,0,0,0-1.441.726A3.955,3.955,0,0,0-26.521,15.338Zm16.6,0a5.758,5.758,0,0,1-.976,3.564,3.231,3.231,0,0,1-2.725,1.279,2.969,2.969,0,0,1-2.47-1.187L-16.2,20h-2.285V6.5h2.54v4.843a2.893,2.893,0,0,1,2.312-1.028,3.258,3.258,0,0,1,2.729,1.279,5.767,5.767,0,0,1,.989,3.6Zm-2.54-.185a3.783,3.783,0,0,0-.457-2.1,1.545,1.545,0,0,0-1.362-.664,1.676,1.676,0,0,0-1.67.993v3.753a1.7,1.7,0,0,0,1.688,1,1.568,1.568,0,0,0,1.617-1.213A6.257,6.257,0,0,0-12.458,15.148Zm6.794-4.658V20.519A3.4,3.4,0,0,1-6.5,22.966a3.174,3.174,0,0,1-2.408.875,5.165,5.165,0,0,1-1.257-.149V21.679a4.768,4.768,0,0,0,.8.079q1.151,0,1.151-1.222V10.49ZM-8.416,8.029a1.251,1.251,0,0,1,.382-.94A1.436,1.436,0,0,1-6.992,6.72a1.436,1.436,0,0,1,1.042.369,1.251,1.251,0,0,1,.382.94,1.247,1.247,0,0,1-.391.949,1.443,1.443,0,0,1-1.033.369,1.443,1.443,0,0,1-1.033-.369A1.247,1.247,0,0,1-8.416,8.029ZM.7,20.176a4.668,4.668,0,0,1-3.406-1.283,4.561,4.561,0,0,1-1.314-3.419v-.246a5.745,5.745,0,0,1,.554-2.562A4.064,4.064,0,0,1-1.9,10.925a4.4,4.4,0,0,1,2.316-.611,3.947,3.947,0,0,1,3.072,1.23A5,5,0,0,1,4.61,15.034v1.037H-1.446A2.36,2.36,0,0,0-.7,17.565a2.245,2.245,0,0,0,1.569.563A2.742,2.742,0,0,0,3.16,17.064l1.248,1.4a3.813,3.813,0,0,1-1.547,1.261A5.075,5.075,0,0,1,.7,20.176Zm-.29-7.813a1.587,1.587,0,0,0-1.226.512,2.651,2.651,0,0,0-.6,1.466H2.114v-.2a1.891,1.891,0,0,0-.457-1.311A1.638,1.638,0,0,0,.409,12.362Zm9.6,5.766a1.666,1.666,0,0,0,1.143-.387,1.355,1.355,0,0,0,.457-1.028h2.382a3.258,3.258,0,0,1-.527,1.771,3.48,3.48,0,0,1-1.419,1.248,4.442,4.442,0,0,1-1.991.444,4.129,4.129,0,0,1-3.217-1.3A5.13,5.13,0,0,1,5.656,15.3v-.167a5.071,5.071,0,0,1,1.169-3.507,4.08,4.08,0,0,1,3.208-1.31,4,4,0,0,1,2.861,1.015,3.594,3.594,0,0,1,1.094,2.7H11.606a1.745,1.745,0,0,0-.457-1.206,1.524,1.524,0,0,0-1.16-.464,1.53,1.53,0,0,0-1.34.647,3.749,3.749,0,0,0-.453,2.1v.264a3.8,3.8,0,0,0,.448,2.113A1.549,1.549,0,0,0,10.006,18.128ZM18.119,20H15.57V10.49h2.549ZM15.42,8.029a1.251,1.251,0,0,1,.382-.94,1.648,1.648,0,0,1,2.079,0,1.342,1.342,0,0,1,0,1.89,1.629,1.629,0,0,1-2.065,0A1.247,1.247,0,0,1,15.42,8.029Zm4.395,7.128a5.64,5.64,0,0,1,.545-2.522,3.989,3.989,0,0,1,1.569-1.714,4.577,4.577,0,0,1,2.377-.606,4.33,4.33,0,0,1,3.142,1.178,4.727,4.727,0,0,1,1.358,3.2l.018.65A4.97,4.97,0,0,1,27.6,18.853a4.247,4.247,0,0,1-3.278,1.323,4.268,4.268,0,0,1-3.283-1.318,5.058,5.058,0,0,1-1.226-3.586Zm2.54.18a3.555,3.555,0,0,0,.51,2.073,1.831,1.831,0,0,0,2.9.009,3.89,3.89,0,0,0,.519-2.267,3.519,3.519,0,0,0-.519-2.06,1.686,1.686,0,0,0-1.459-.731,1.658,1.658,0,0,0-1.441.726A3.955,3.955,0,0,0,22.355,15.338ZM32.726,10.49l.079,1.1a3.32,3.32,0,0,1,2.733-1.274,2.759,2.759,0,0,1,2.25.888,4.142,4.142,0,0,1,.756,2.654V20H36V13.918a1.648,1.648,0,0,0-.352-1.173,1.574,1.574,0,0,0-1.169-.365,1.747,1.747,0,0,0-1.608.914V20h-2.54V10.49Zm12.12,9.686a4.668,4.668,0,0,1-3.406-1.283,4.561,4.561,0,0,1-1.314-3.419v-.246a5.745,5.745,0,0,1,.554-2.562,4.064,4.064,0,0,1,1.569-1.74,4.4,4.4,0,0,1,2.316-.611,3.947,3.947,0,0,1,3.072,1.23,5,5,0,0,1,1.121,3.489v1.037H42.7a2.36,2.36,0,0,0,.743,1.494,2.245,2.245,0,0,0,1.569.563,2.742,2.742,0,0,0,2.294-1.063l1.248,1.4a3.813,3.813,0,0,1-1.547,1.261A5.075,5.075,0,0,1,44.846,20.176Zm-.29-7.813a1.587,1.587,0,0,0-1.226.512,2.651,2.651,0,0,0-.6,1.466h3.533v-.2a1.891,1.891,0,0,0-.457-1.311A1.638,1.638,0,0,0,44.556,12.362Zm10.793,5.01a.818.818,0,0,0-.461-.734,5.241,5.241,0,0,0-1.481-.479q-3.393-.712-3.393-2.883a2.613,2.613,0,0,1,1.05-2.114,4.237,4.237,0,0,1,2.747-.848,4.56,4.56,0,0,1,2.9.853,2.687,2.687,0,0,1,1.085,2.215h-2.54a1.229,1.229,0,0,0-.352-.9,1.488,1.488,0,0,0-1.1-.356,1.52,1.52,0,0,0-.993.29.916.916,0,0,0-.352.738.783.783,0,0,0,.4.681,4.114,4.114,0,0,0,1.349.448,11.019,11.019,0,0,1,1.6.426,2.628,2.628,0,0,1,2.013,2.558,2.481,2.481,0,0,1-1.116,2.1,4.815,4.815,0,0,1-2.883.8A5.029,5.029,0,0,1,51.7,19.75a3.561,3.561,0,0,1-1.455-1.169,2.716,2.716,0,0,1-.527-1.6h2.408a1.326,1.326,0,0,0,.5,1.037,1.987,1.987,0,0,0,1.248.36,1.839,1.839,0,0,0,1.1-.277A.861.861,0,0,0,55.349,17.372Z" transform="translate(412 3472)" fill="#12263f"/>
    <path id="Trazado_826952" data-name="Trazado 826952" d="M-42.126-2.637h-4.623L-47.628,0h-2.8l4.764-12.8h2.443L-38.435,0h-2.8Zm-3.911-2.136h3.2l-1.608-4.79ZM-35.49-9.51l.079,1.1a3.32,3.32,0,0,1,2.733-1.274,2.759,2.759,0,0,1,2.25.888,4.142,4.142,0,0,1,.756,2.654V0h-2.54V-6.082a1.648,1.648,0,0,0-.352-1.173,1.574,1.574,0,0,0-1.169-.365,1.747,1.747,0,0,0-1.608.914V0h-2.54V-9.51Zm10.784-2.338V-9.51h1.626v1.863h-1.626V-2.9a1.133,1.133,0,0,0,.2.756,1.015,1.015,0,0,0,.773.229,4.051,4.051,0,0,0,.747-.062V-.053a5.229,5.229,0,0,1-1.538.229,2.425,2.425,0,0,1-2.725-2.7V-7.646h-1.389V-9.51h1.389v-2.338ZM-18.984,0h-2.549V-9.51h2.549Zm-2.7-11.971a1.251,1.251,0,0,1,.382-.94,1.436,1.436,0,0,1,1.042-.369,1.44,1.44,0,0,1,1.037.369,1.244,1.244,0,0,1,.387.94,1.247,1.247,0,0,1-.391.949,1.443,1.443,0,0,1-1.033.369,1.443,1.443,0,0,1-1.033-.369A1.247,1.247,0,0,1-21.683-11.971Zm8.745,10.1a1.666,1.666,0,0,0,1.143-.387,1.355,1.355,0,0,0,.457-1.028h2.382a3.258,3.258,0,0,1-.527,1.771A3.48,3.48,0,0,1-10.9-.268a4.442,4.442,0,0,1-1.991.444,4.129,4.129,0,0,1-3.217-1.3A5.13,5.13,0,0,1-17.288-4.7v-.167a5.071,5.071,0,0,1,1.169-3.507,4.08,4.08,0,0,1,3.208-1.31A4,4,0,0,1-10.05-8.67a3.594,3.594,0,0,1,1.094,2.7h-2.382a1.745,1.745,0,0,0-.457-1.206,1.524,1.524,0,0,0-1.16-.464,1.53,1.53,0,0,0-1.34.647,3.749,3.749,0,0,0-.453,2.1v.264A3.8,3.8,0,0,0-14.3-2.515,1.549,1.549,0,0,0-12.937-1.872ZM-4.825,0H-7.374V-9.51h2.549Zm-2.7-11.971a1.251,1.251,0,0,1,.382-.94A1.436,1.436,0,0,1-6.1-13.28a1.44,1.44,0,0,1,1.037.369,1.244,1.244,0,0,1,.387.94,1.247,1.247,0,0,1-.391.949,1.443,1.443,0,0,1-1.033.369,1.443,1.443,0,0,1-1.033-.369A1.247,1.247,0,0,1-7.523-11.971Zm13.351,7.3a5.7,5.7,0,0,1-1,3.52A3.2,3.2,0,0,1,2.136.176a2.963,2.963,0,0,1-2.329-1V3.656h-2.54V-9.51H-.378l.088.932A2.985,2.985,0,0,1,2.118-9.686a3.22,3.22,0,0,1,2.733,1.3A5.858,5.858,0,0,1,5.827-4.8Zm-2.54-.185A3.743,3.743,0,0,0,2.817-6.9,1.532,1.532,0,0,0,1.45-7.62a1.663,1.663,0,0,0-1.644.914v3.894a1.692,1.692,0,0,0,1.661.94Q3.287-1.872,3.287-4.852ZM12.911,0a2.821,2.821,0,0,1-.255-.853,3.073,3.073,0,0,1-2.4,1.028A3.376,3.376,0,0,1,7.941-.633a2.6,2.6,0,0,1-.918-2.039,2.687,2.687,0,0,1,1.121-2.32,5.529,5.529,0,0,1,3.239-.817h1.169v-.545a1.567,1.567,0,0,0-.338-1.055,1.331,1.331,0,0,0-1.068-.4,1.513,1.513,0,0,0-1.006.308,1.045,1.045,0,0,0-.365.844H7.233a2.551,2.551,0,0,1,.51-1.529,3.37,3.37,0,0,1,1.441-1.1,5.253,5.253,0,0,1,2.092-.4,4.15,4.15,0,0,1,2.791.883A3.09,3.09,0,0,1,15.1-6.319V-2.2a4.546,4.546,0,0,0,.378,2.048V0Zm-2.1-1.767a2.188,2.188,0,0,0,1.037-.25,1.645,1.645,0,0,0,.7-.672V-4.324H11.6q-1.907,0-2.03,1.318l-.009.149a1.017,1.017,0,0,0,.334.782A1.3,1.3,0,0,0,10.811-1.767Zm10.2-.105a1.666,1.666,0,0,0,1.143-.387,1.355,1.355,0,0,0,.457-1.028h2.382a3.258,3.258,0,0,1-.527,1.771A3.48,3.48,0,0,1,23.041-.268,4.442,4.442,0,0,1,21.05.176a4.129,4.129,0,0,1-3.217-1.3A5.13,5.13,0,0,1,16.655-4.7v-.167a5.071,5.071,0,0,1,1.169-3.507,4.08,4.08,0,0,1,3.208-1.31A4,4,0,0,1,23.893-8.67a3.594,3.594,0,0,1,1.094,2.7H22.605a1.745,1.745,0,0,0-.457-1.206,1.524,1.524,0,0,0-1.16-.464,1.53,1.53,0,0,0-1.34.647,3.749,3.749,0,0,0-.453,2.1v.264a3.8,3.8,0,0,0,.448,2.113A1.549,1.549,0,0,0,21.006-1.872ZM29.118,0H26.569V-9.51h2.549Zm-2.7-11.971a1.251,1.251,0,0,1,.382-.94,1.436,1.436,0,0,1,1.042-.369,1.44,1.44,0,0,1,1.037.369,1.244,1.244,0,0,1,.387.94,1.247,1.247,0,0,1-.391.949,1.443,1.443,0,0,1-1.033.369,1.443,1.443,0,0,1-1.033-.369A1.247,1.247,0,0,1,26.42-11.971Zm4.395,7.128a5.64,5.64,0,0,1,.545-2.522,3.989,3.989,0,0,1,1.569-1.714,4.577,4.577,0,0,1,2.377-.606,4.33,4.33,0,0,1,3.142,1.178,4.727,4.727,0,0,1,1.358,3.2l.018.65A4.97,4.97,0,0,1,38.6-1.147,4.247,4.247,0,0,1,35.323.176a4.268,4.268,0,0,1-3.283-1.318,5.058,5.058,0,0,1-1.226-3.586Zm2.54.18a3.555,3.555,0,0,0,.51,2.073,1.682,1.682,0,0,0,1.459.717,1.686,1.686,0,0,0,1.441-.709,3.89,3.89,0,0,0,.519-2.267,3.519,3.519,0,0,0-.519-2.06,1.686,1.686,0,0,0-1.459-.731,1.658,1.658,0,0,0-1.441.726A3.955,3.955,0,0,0,33.354-4.662ZM35.807-13.5h2.769l-2.435,2.725H34.075Zm7.919,3.99.079,1.1a3.32,3.32,0,0,1,2.733-1.274,2.759,2.759,0,0,1,2.25.888,4.142,4.142,0,0,1,.756,2.654V0H47V-6.082a1.648,1.648,0,0,0-.352-1.173,1.574,1.574,0,0,0-1.169-.365,1.747,1.747,0,0,0-1.608.914V0h-2.54V-9.51Z" transform="translate(1223 3481)" fill="#12263f"/>
    <path id="Trazado_826951" data-name="Trazado 826951" d="M-47.382,0h-2.637V-12.8h2.637Zm4.614-9.51.079,1.1a3.32,3.32,0,0,1,2.733-1.274,2.759,2.759,0,0,1,2.25.888,4.142,4.142,0,0,1,.756,2.654V0h-2.54V-6.082a1.648,1.648,0,0,0-.352-1.173A1.574,1.574,0,0,0-41.01-7.62a1.747,1.747,0,0,0-1.608.914V0h-2.54V-9.51ZM-34.33,0V-7.646h-1.415V-9.51h1.415v-.809a3.283,3.283,0,0,1,.918-2.483,3.557,3.557,0,0,1,2.571-.883,5.938,5.938,0,0,1,1.292.176l-.026,1.969a3.238,3.238,0,0,0-.773-.079q-1.433,0-1.433,1.345v.765h1.89v1.863h-1.89V0Zm5.361-4.843a5.64,5.64,0,0,1,.545-2.522,3.989,3.989,0,0,1,1.569-1.714,4.577,4.577,0,0,1,2.377-.606,4.33,4.33,0,0,1,3.142,1.178,4.727,4.727,0,0,1,1.358,3.2l.018.65a4.97,4.97,0,0,1-1.222,3.511A4.247,4.247,0,0,1-24.46.176a4.268,4.268,0,0,1-3.283-1.318,5.058,5.058,0,0,1-1.226-3.586Zm2.54.18a3.555,3.555,0,0,0,.51,2.073,1.682,1.682,0,0,0,1.459.717,1.686,1.686,0,0,0,1.441-.709A3.89,3.89,0,0,0-22.5-4.847a3.519,3.519,0,0,0-.519-2.06,1.686,1.686,0,0,0-1.459-.731,1.658,1.658,0,0,0-1.441.726A3.955,3.955,0,0,0-26.429-4.662Zm13.377-2.465a6.9,6.9,0,0,0-.914-.07,1.86,1.86,0,0,0-1.89.976V0H-18.4V-9.51H-16l.07,1.134a2.354,2.354,0,0,1,2.118-1.31,2.662,2.662,0,0,1,.791.114Zm3.6-2.382.079,1.063A3.342,3.342,0,0,1-6.636-9.686a2.536,2.536,0,0,1,2.522,1.45,3.265,3.265,0,0,1,2.856-1.45,2.836,2.836,0,0,1,2.3.9A4.141,4.141,0,0,1,1.8-6.073V0H-.747V-6.064a1.811,1.811,0,0,0-.316-1.182A1.4,1.4,0,0,0-2.18-7.62,1.585,1.585,0,0,0-3.762-6.53L-3.753,0h-2.54V-6.056a1.789,1.789,0,0,0-.325-1.2A1.416,1.416,0,0,0-7.726-7.62a1.646,1.646,0,0,0-1.564.9V0h-2.54V-9.51ZM9.264,0a2.821,2.821,0,0,1-.255-.853A3.073,3.073,0,0,1,6.609.176,3.376,3.376,0,0,1,4.293-.633a2.6,2.6,0,0,1-.918-2.039A2.687,2.687,0,0,1,4.5-4.992,5.529,5.529,0,0,1,7.734-5.81H8.9v-.545a1.567,1.567,0,0,0-.338-1.055A1.331,1.331,0,0,0,7.5-7.8,1.513,1.513,0,0,0,6.491-7.5a1.045,1.045,0,0,0-.365.844H3.586A2.551,2.551,0,0,1,4.1-8.183a3.37,3.37,0,0,1,1.441-1.1,5.253,5.253,0,0,1,2.092-.4,4.15,4.15,0,0,1,2.791.883,3.09,3.09,0,0,1,1.033,2.483V-2.2A4.546,4.546,0,0,0,11.83-.149V0Zm-2.1-1.767A2.188,2.188,0,0,0,8.2-2.017a1.645,1.645,0,0,0,.7-.672V-4.324H7.954q-1.907,0-2.03,1.318l-.009.149a1.017,1.017,0,0,0,.334.782A1.3,1.3,0,0,0,7.163-1.767Zm10.2-.105A1.666,1.666,0,0,0,18.5-2.259a1.355,1.355,0,0,0,.457-1.028H21.34a3.258,3.258,0,0,1-.527,1.771A3.48,3.48,0,0,1,19.393-.268,4.442,4.442,0,0,1,17.4.176a4.129,4.129,0,0,1-3.217-1.3A5.13,5.13,0,0,1,13.008-4.7v-.167a5.071,5.071,0,0,1,1.169-3.507,4.08,4.08,0,0,1,3.208-1.31A4,4,0,0,1,20.246-8.67a3.594,3.594,0,0,1,1.094,2.7H18.958A1.745,1.745,0,0,0,18.5-7.174a1.524,1.524,0,0,0-1.16-.464A1.53,1.53,0,0,0,16-6.991a3.749,3.749,0,0,0-.453,2.1v.264A3.8,3.8,0,0,0,16-2.515,1.549,1.549,0,0,0,17.358-1.872ZM25.471,0H22.922V-9.51h2.549Zm-2.7-11.971a1.251,1.251,0,0,1,.382-.94A1.436,1.436,0,0,1,24.2-13.28a1.44,1.44,0,0,1,1.037.369,1.244,1.244,0,0,1,.387.94,1.247,1.247,0,0,1-.391.949,1.443,1.443,0,0,1-1.033.369,1.443,1.443,0,0,1-1.033-.369A1.247,1.247,0,0,1,22.772-11.971Zm4.395,7.128a5.64,5.64,0,0,1,.545-2.522,3.989,3.989,0,0,1,1.569-1.714,4.577,4.577,0,0,1,2.377-.606A4.33,4.33,0,0,1,34.8-8.508a4.727,4.727,0,0,1,1.358,3.2l.018.65a4.97,4.97,0,0,1-1.222,3.511A4.247,4.247,0,0,1,31.676.176a4.268,4.268,0,0,1-3.283-1.318,5.058,5.058,0,0,1-1.226-3.586Zm2.54.18a3.555,3.555,0,0,0,.51,2.073,1.682,1.682,0,0,0,1.459.717,1.686,1.686,0,0,0,1.441-.709,3.89,3.89,0,0,0,.519-2.267,3.519,3.519,0,0,0-.519-2.06,1.686,1.686,0,0,0-1.459-.731,1.658,1.658,0,0,0-1.441.726A3.955,3.955,0,0,0,29.707-4.662ZM32.159-13.5h2.769l-2.435,2.725H30.428Zm7.919,3.99.079,1.1a3.32,3.32,0,0,1,2.733-1.274,2.759,2.759,0,0,1,2.25.888A4.142,4.142,0,0,1,45.9-6.144V0h-2.54V-6.082A1.648,1.648,0,0,0,43-7.255a1.574,1.574,0,0,0-1.169-.365,1.747,1.747,0,0,0-1.608.914V0h-2.54V-9.51Z" transform="translate(798 3481)" fill="#12263f"/>
  </g>
</svg>
