<svg xmlns="http://www.w3.org/2000/svg" xmlns:xlink="http://www.w3.org/1999/xlink" width="169" height="169" viewBox="0 0 169 169">
  <defs>
    <clipPath id="clip-path">
      <circle id="Elipse_5910" data-name="Elipse 5910" cx="72.5" cy="72.5" r="72.5" transform="translate(404.833 2079.043)" fill="#fff" stroke="#707070" stroke-width="1"/>
    </clipPath>
    <clipPath id="clip-path-2">
      <rect id="Rectángulo_378513" data-name="Rectángulo 378513" width="112.835" height="291.332" fill="none"/>
    </clipPath>
    <clipPath id="clip-path-4">
      <path id="Trazado_825055" data-name="Trazado 825055" d="M49.864,224.381c-.011,8.207-5.75,97-4.711,105.136a22.749,22.749,0,0,0,9.941-.009,2.819,2.819,0,0,0,1.527-.718,3.029,3.029,0,0,0,.524-2.032C57.207,322.2,72.84,221.508,72.9,216.952Z" transform="translate(-45.028 -216.952)" fill="none"/>
    </clipPath>
    <clipPath id="clip-path-6">
      <path id="Trazado_825062" data-name="Trazado 825062" d="M98.543,327.677A3.023,3.023,0,0,0,99,329.725a2.818,2.818,0,0,0,1.5.77,22.754,22.754,0,0,0,9.934.348c1.315-8.1.993-98.922,1.26-107.124l-22.772-8.209c-.094,4.555,9.714,107.614,9.621,112.168" transform="translate(-88.921 -215.509)" fill="none"/>
    </clipPath>
    <clipPath id="clip-path-8">
      <rect id="Rectángulo_378500" data-name="Rectángulo 378500" width="37.685" height="118.659" fill="none"/>
    </clipPath>
    <clipPath id="clip-path-9">
      <path id="Trazado_825072" data-name="Trazado 825072" d="M88.922,215.509c-.094,4.555,9.714,107.614,9.621,112.168A3.022,3.022,0,0,0,99,329.725a2.812,2.812,0,0,0,1.5.77,22.742,22.742,0,0,0,9.934.348c1.315-8.1.993-98.922,1.26-107.124Z" transform="translate(-88.921 -215.509)" fill="none"/>
    </clipPath>
    <clipPath id="clip-path-10">
      <path id="Trazado_825076" data-name="Trazado 825076" d="M102.107,354.174a6.726,6.726,0,0,0-1.71,2.69,76.83,76.83,0,0,0-4.165,13,3.373,3.373,0,0,0-.021,2.031,3.1,3.1,0,0,0,1.37,1.33,15.892,15.892,0,0,0,15.877.055,3.381,3.381,0,0,0,1.576-1.563,3.791,3.791,0,0,0-.072-2.185l-2.444-10.454-1.567-2.273a14.014,14.014,0,0,0-4.038-3.026,5.742,5.742,0,0,0-2.213-.459,4.022,4.022,0,0,0-2.593.86" transform="translate(-96.06 -353.314)" fill="none"/>
    </clipPath>
    <clipPath id="clip-path-12">
      <rect id="Rectángulo_378502" data-name="Rectángulo 378502" width="39.437" height="115.871" fill="none"/>
    </clipPath>
    <clipPath id="clip-path-13">
      <path id="Trazado_825090" data-name="Trazado 825090" d="M72.9,216.952c-.061,4.555-15.7,105.25-15.756,109.806a3.02,3.02,0,0,1-.523,2.032,2.817,2.817,0,0,1-1.527.718,22.758,22.758,0,0,1-9.94.009c-1.04-8.141,4.7-96.929,4.71-105.136Z" transform="translate(-45.028 -216.952)" fill="none"/>
    </clipPath>
    <clipPath id="clip-path-14">
      <path id="Trazado_825094" data-name="Trazado 825094" d="M49.635,351.838a14.029,14.029,0,0,0-4.138,2.887l-1.643,2.218q-1.4,5.183-2.8,10.365a3.794,3.794,0,0,0-.147,2.182,3.389,3.389,0,0,0,1.523,1.616,15.9,15.9,0,0,0,15.87.486,3.1,3.1,0,0,0,1.415-1.283,3.369,3.369,0,0,0,.047-2.031,76.708,76.708,0,0,0-3.721-13.13,6.723,6.723,0,0,0-1.618-2.747,4.079,4.079,0,0,0-2.74-.951,5.786,5.786,0,0,0-2.051.386" transform="translate(-40.799 -351.452)" fill="none"/>
    </clipPath>
    <clipPath id="clip-path-16">
      <path id="Trazado_825104" data-name="Trazado 825104" d="M52.092,99.484a5.111,5.111,0,0,0-2.837,1.076,4.512,4.512,0,0,0-1.131,2.587c-.645,3.869.3,7.807,1.242,11.615l6.624,26.817a9.823,9.823,0,0,1,.414,2.874,10.269,10.269,0,0,1-1.048,3.429c-6.9,15.936-11.756,52.5-8.53,69.565.165.873,15.246,6.264,26.621,5.572,7.322-.445,26.362-3.5,32.853-6.912-.116-18.73-3.453-56.108-12.675-72.412a3.636,3.636,0,0,1-.324-4.007c4.416-11.961,6.418-25.949,6.389-38.7L89.52,99.02l-22.354.058q-2.948-.29-5.916-.289a60.6,60.6,0,0,0-9.158.7" transform="translate(-45.804 -98.789)" fill="none"/>
    </clipPath>
    <clipPath id="clip-path-17">
      <rect id="Rectángulo_378505" data-name="Rectángulo 378505" width="76.149" height="13.454" fill="none"/>
    </clipPath>
    <clipPath id="clip-path-18">
      <rect id="Rectángulo_378506" data-name="Rectángulo 378506" width="93.071" height="20.481" fill="none"/>
    </clipPath>
    <clipPath id="clip-path-19">
      <rect id="Rectángulo_378507" data-name="Rectángulo 378507" width="103.724" height="18.348" fill="none"/>
    </clipPath>
    <clipPath id="clip-path-20">
      <rect id="Rectángulo_378508" data-name="Rectángulo 378508" width="112.835" height="26.217" fill="none"/>
    </clipPath>
    <clipPath id="clip-path-22">
      <rect id="Rectángulo_378509" data-name="Rectángulo 378509" width="15.779" height="6.933" fill="none"/>
    </clipPath>
    <clipPath id="clip-path-23">
      <rect id="Rectángulo_378510" data-name="Rectángulo 378510" width="12.464" height="12.464" fill="none"/>
    </clipPath>
  </defs>
  <g id="Grupo_1075680" data-name="Grupo 1075680" transform="translate(-980 8778.721)">
    <g id="Grupo_159182" data-name="Grupo 159182" transform="translate(980 -8778.721)">
      <path id="Unión_12" data-name="Unión 12" d="M84.5,0A84.5,84.5,0,1,1,0,84.5,84.5,84.5,0,0,1,84.5,0Z" transform="translate(0 0)" fill="#ffae7e"/>
    </g>
    <g id="Enmascarar_grupo_414" data-name="Enmascarar grupo 414" transform="translate(587.167 -10844.053)" clip-path="url(#clip-path)">
      <g id="Grupo_1074955" data-name="Grupo 1074955" transform="translate(412.284 2082.046)">
        <g id="Grupo_1074954" data-name="Grupo 1074954" clip-path="url(#clip-path-2)">
          <g id="Grupo_1074902" data-name="Grupo 1074902">
            <g id="Grupo_1074901" data-name="Grupo 1074901" clip-path="url(#clip-path-2)">
              <path id="Trazado_825049" data-name="Trazado 825049" d="M72.9,216.952c-.061,4.556-15.695,105.251-15.755,109.806a3.029,3.029,0,0,1-.523,2.032,2.819,2.819,0,0,1-1.528.718,22.758,22.758,0,0,1-9.94.009c-1.04-8.141,4.7-96.929,4.711-105.136Z" transform="translate(-10.777 -51.927)" fill="#c13f37"/>
            </g>
          </g>
          <g id="Grupo_1074904" data-name="Grupo 1074904" transform="translate(34.25 165.025)">
            <g id="Grupo_1074903" data-name="Grupo 1074903" clip-path="url(#clip-path-4)">
              <path id="Trazado_825050" data-name="Trazado 825050" d="M35.311,320.473a7.731,7.731,0,1,0,7.432-8.034,7.737,7.737,0,0,0-7.432,8.034" transform="translate(-42.701 -239.805)" fill="#c13f37"/>
              <path id="Trazado_825051" data-name="Trazado 825051" d="M65.215,300.675a7.731,7.731,0,1,0,7.432-8.034,7.737,7.737,0,0,0-7.432,8.034" transform="translate(-49.858 -235.067)" fill="#c13f37"/>
              <path id="Trazado_825052" data-name="Trazado 825052" d="M37.006,289.7a7.731,7.731,0,1,0,7.432-8.034,7.737,7.737,0,0,0-7.432,8.034" transform="translate(-43.106 -232.439)" fill="#c13f37"/>
              <path id="Trazado_825053" data-name="Trazado 825053" d="M54.594,337.819a7.731,7.731,0,1,0,7.432-8.034,7.737,7.737,0,0,0-7.432,8.034" transform="translate(-47.316 -243.957)" fill="#c13f37"/>
              <path id="Trazado_825054" data-name="Trazado 825054" d="M34.407,356.959a7.731,7.731,0,1,0,7.43-8.034,7.736,7.736,0,0,0-7.43,8.034" transform="translate(-42.484 -248.538)" fill="#c13f37"/>
            </g>
          </g>
          <g id="Grupo_1074906" data-name="Grupo 1074906">
            <g id="Grupo_1074905" data-name="Grupo 1074905" clip-path="url(#clip-path-2)">
              <path id="Trazado_825056" data-name="Trazado 825056" d="M88.922,215.509c-.094,4.555,9.714,107.614,9.62,112.168A3.024,3.024,0,0,0,99,329.725a2.815,2.815,0,0,0,1.5.77,22.754,22.754,0,0,0,9.934.348c1.315-8.1.993-98.922,1.26-107.124Z" transform="translate(-21.283 -51.581)" fill="#c13f37"/>
            </g>
          </g>
          <g id="Grupo_1074908" data-name="Grupo 1074908" transform="translate(67.638 163.928)">
            <g id="Grupo_1074907" data-name="Grupo 1074907" clip-path="url(#clip-path-6)">
              <path id="Trazado_825057" data-name="Trazado 825057" d="M123.64,322.948a7.731,7.731,0,1,1-7.155-8.282,7.735,7.735,0,0,1,7.155,8.282" transform="translate(-93.535 -239.237)" fill="#c13f37"/>
              <path id="Trazado_825058" data-name="Trazado 825058" d="M94.425,302.144a7.731,7.731,0,1,1-7.155-8.282,7.735,7.735,0,0,1,7.155,8.282" transform="translate(-86.542 -234.257)" fill="#c13f37"/>
              <path id="Trazado_825059" data-name="Trazado 825059" d="M122.99,275.864c9.989-138.627-21.1,6.24-8.268,7.167a7.744,7.744,0,1,1,8.268-7.167" transform="translate(-93.379 -215.593)" fill="#c13f37"/>
              <path id="Trazado_825060" data-name="Trazado 825060" d="M103.78,339.629a7.731,7.731,0,1,1-7.155-8.282,7.735,7.735,0,0,1,7.155,8.282" transform="translate(-88.781 -243.229)" fill="#c13f37"/>
              <path id="Trazado_825061" data-name="Trazado 825061" d="M123.307,359.443a7.731,7.731,0,1,1-7.155-8.283,7.735,7.735,0,0,1,7.155,8.283" transform="translate(-93.455 -247.972)" fill="#c13f37"/>
            </g>
          </g>
          <g id="Grupo_1074915" data-name="Grupo 1074915">
            <g id="Grupo_1074914" data-name="Grupo 1074914" clip-path="url(#clip-path-2)">
              <g id="Grupo_1074913" data-name="Grupo 1074913" transform="translate(60.079 163.928)" opacity="0.38">
                <g id="Grupo_1074912" data-name="Grupo 1074912">
                  <g id="Grupo_1074911" data-name="Grupo 1074911" clip-path="url(#clip-path-8)">
                    <path id="Trazado_825063" data-name="Trazado 825063" d="M88.922,215.509c-.094,4.555,9.714,107.614,9.62,112.168A3.024,3.024,0,0,0,99,329.725a2.815,2.815,0,0,0,1.5.77,22.754,22.754,0,0,0,9.934.348c1.315-8.1.993-98.922,1.26-107.124Z" transform="translate(-81.361 -215.509)" fill="#c13f37"/>
                    <g id="Grupo_1074910" data-name="Grupo 1074910" transform="translate(7.56 0)">
                      <g id="Grupo_1074909" data-name="Grupo 1074909" clip-path="url(#clip-path-9)">
                        <path id="Trazado_825064" data-name="Trazado 825064" d="M123.64,322.948a7.731,7.731,0,1,1-7.155-8.282,7.735,7.735,0,0,1,7.155,8.282" transform="translate(-93.535 -239.237)" fill="#fff"/>
                        <path id="Trazado_825065" data-name="Trazado 825065" d="M123.64,288.793a7.731,7.731,0,1,1-7.155-8.282,7.735,7.735,0,0,1,7.155,8.282" transform="translate(-93.535 -231.062)" fill="#fff"/>
                        <path id="Trazado_825066" data-name="Trazado 825066" d="M123.032,240.3a7.731,7.731,0,1,1-7.155-8.282,7.736,7.736,0,0,1,7.155,8.282" transform="translate(-93.389 -219.457)" fill="#fff"/>
                        <path id="Trazado_825067" data-name="Trazado 825067" d="M94.425,302.144a7.731,7.731,0,1,1-7.155-8.282,7.735,7.735,0,0,1,7.155,8.282" transform="translate(-86.542 -234.257)" fill="#fff"/>
                        <path id="Trazado_825068" data-name="Trazado 825068" d="M103.253,262.8a7.731,7.731,0,1,1-7.155-8.283,7.735,7.735,0,0,1,7.155,8.283" transform="translate(-88.655 -224.842)" fill="#fff"/>
                        <path id="Trazado_825069" data-name="Trazado 825069" d="M100.818,235.358a7.731,7.731,0,1,1-7.155-8.283,7.735,7.735,0,0,1,7.155,8.283" transform="translate(-88.072 -218.273)" fill="#fff"/>
                        <path id="Trazado_825070" data-name="Trazado 825070" d="M103.78,339.629a7.731,7.731,0,1,1-7.155-8.282,7.735,7.735,0,0,1,7.155,8.282" transform="translate(-88.781 -243.229)" fill="#fff"/>
                        <path id="Trazado_825071" data-name="Trazado 825071" d="M123.307,359.443a7.731,7.731,0,1,1-7.155-8.283,7.735,7.735,0,0,1,7.155,8.283" transform="translate(-93.455 -247.972)" fill="#fff"/>
                      </g>
                    </g>
                  </g>
                </g>
              </g>
              <path id="Trazado_825073" data-name="Trazado 825073" d="M110.952,356.8a14.015,14.015,0,0,0-4.038-3.026,4.753,4.753,0,0,0-4.807.4,6.72,6.72,0,0,0-1.71,2.69,76.636,76.636,0,0,0-4.165,13,3.37,3.37,0,0,0-.022,2.032,3.094,3.094,0,0,0,1.371,1.329,15.892,15.892,0,0,0,15.877.055,3.383,3.383,0,0,0,1.576-1.562,3.788,3.788,0,0,0-.072-2.186q-1.222-5.227-2.443-10.454Z" transform="translate(-22.991 -84.564)" fill="#6da8c6"/>
            </g>
          </g>
          <g id="Grupo_1074917" data-name="Grupo 1074917" transform="translate(73.068 268.75)">
            <g id="Grupo_1074916" data-name="Grupo 1074916" clip-path="url(#clip-path-10)">
              <path id="Trazado_825074" data-name="Trazado 825074" d="M114.083,370.617a15.255,15.255,0,0,1-13.186,6.1,9.04,9.04,0,0,1-4.222-1.251c-2.294-1.465-3.538-4.292-5.977-5.5a5.723,5.723,0,0,0,.265,5.846,8.661,8.661,0,0,0,4.912,3.483,16.559,16.559,0,0,0,5.11.577,53,53,0,0,0,5.718-.527,15.47,15.47,0,0,0,5.973-1.636,5.413,5.413,0,0,0,2.873-5.134Z" transform="translate(-94.613 -357.301)" fill="#210a0a"/>
              <path id="Trazado_825075" data-name="Trazado 825075" d="M113.895,360.281c-2.508-1.774-4.191-4.844-7.148-5.671a7.327,7.327,0,0,0-5.57.977,21.758,21.758,0,0,0-4.4,3.772q.832-2.32,1.877-4.555a11.738,11.738,0,0,1,3.3-4.627c3.29-2.458,7.914-1.347,11.835-.132a13.085,13.085,0,0,1,4.22,1.881,4.455,4.455,0,0,1,1.89,4.009Z" transform="translate(-96.231 -352.212)" fill="#4b89af"/>
            </g>
          </g>
          <g id="Grupo_1074924" data-name="Grupo 1074924">
            <g id="Grupo_1074923" data-name="Grupo 1074923" clip-path="url(#clip-path-2)">
              <path id="Trazado_825077" data-name="Trazado 825077" d="M109.407,366.964a9.306,9.306,0,0,0-7.359-.687,8.82,8.82,0,0,0-1.96.921c-.509.318-.942-.506-.437-.821a10.228,10.228,0,0,1,8.068-1.111,9.836,9.836,0,0,1,2.188.914c.52.294.02,1.078-.5.784" transform="translate(-23.797 -87.335)" fill="#1c1c1b"/>
              <path id="Trazado_825078" data-name="Trazado 825078" d="M110.571,364.683a8.976,8.976,0,0,0-7.314-.76.469.469,0,0,1-.558-.348.476.476,0,0,1,.347-.559,9.891,9.891,0,0,1,8.026.882c.516.3.015,1.088-.5.784" transform="translate(-24.578 -86.772)" fill="#1c1c1b"/>
              <path id="Trazado_825079" data-name="Trazado 825079" d="M110.168,360.789a6.58,6.58,0,0,0-6.075-.512.477.477,0,0,1-.628-.192.471.471,0,0,1,.192-.63,7.55,7.55,0,0,1,7.012.549.465.465,0,0,1-.5.784" transform="translate(-24.752 -85.887)" fill="#1c1c1b"/>
              <path id="Trazado_825080" data-name="Trazado 825080" d="M110.611,375.968a8.418,8.418,0,0,0-4.814-3.063,8.257,8.257,0,0,0-8.038,2.824.479.479,0,0,1-.642.142.47.47,0,0,1-.141-.643,9.3,9.3,0,0,1,5.4-3.268,9.159,9.159,0,0,1,8.922,3.376.479.479,0,0,1-.026.657.468.468,0,0,1-.656-.026" transform="translate(-23.192 -88.988)" fill="#1c1c1b"/>
              <g id="Grupo_1074922" data-name="Grupo 1074922" transform="translate(26.167 165.025)" opacity="0.38">
                <g id="Grupo_1074921" data-name="Grupo 1074921">
                  <g id="Grupo_1074920" data-name="Grupo 1074920" clip-path="url(#clip-path-12)">
                    <path id="Trazado_825081" data-name="Trazado 825081" d="M72.9,216.952c-.061,4.556-15.695,105.251-15.755,109.806a3.029,3.029,0,0,1-.523,2.032,2.819,2.819,0,0,1-1.528.718,22.758,22.758,0,0,1-9.94.009c-1.04-8.141,4.7-96.929,4.711-105.136Z" transform="translate(-36.945 -216.952)" fill="#c13f37"/>
                    <g id="Grupo_1074919" data-name="Grupo 1074919" transform="translate(8.084 0)">
                      <g id="Grupo_1074918" data-name="Grupo 1074918" clip-path="url(#clip-path-13)">
                        <path id="Trazado_825082" data-name="Trazado 825082" d="M35.311,320.473a7.731,7.731,0,1,0,7.432-8.034,7.737,7.737,0,0,0-7.432,8.034" transform="translate(-42.701 -239.805)" fill="#fff"/>
                        <path id="Trazado_825083" data-name="Trazado 825083" d="M65.215,300.675a7.731,7.731,0,1,0,7.432-8.034,7.737,7.737,0,0,0-7.432,8.034" transform="translate(-49.859 -235.067)" fill="#fff"/>
                        <path id="Trazado_825084" data-name="Trazado 825084" d="M37.006,289.7a7.731,7.731,0,1,0,7.432-8.034,7.737,7.737,0,0,0-7.432,8.034" transform="translate(-43.107 -232.439)" fill="#fff"/>
                        <path id="Trazado_825085" data-name="Trazado 825085" d="M55.57,270.745a7.731,7.731,0,1,0,7.785-7.69,7.738,7.738,0,0,0-7.785,7.69" transform="translate(-47.551 -227.987)" fill="#fff"/>
                        <path id="Trazado_825086" data-name="Trazado 825086" d="M46.133,246.653a7.731,7.731,0,1,0,7.785-7.69,7.738,7.738,0,0,0-7.785,7.69" transform="translate(-45.293 -222.22)" fill="#fff"/>
                        <path id="Trazado_825087" data-name="Trazado 825087" d="M65.92,235.675a7.731,7.731,0,1,0,7.785-7.69,7.738,7.738,0,0,0-7.785,7.69" transform="translate(-50.029 -219.593)" fill="#fff"/>
                        <path id="Trazado_825088" data-name="Trazado 825088" d="M54.594,337.819a7.731,7.731,0,1,0,7.432-8.034,7.737,7.737,0,0,0-7.432,8.034" transform="translate(-47.317 -243.957)" fill="#fff"/>
                        <path id="Trazado_825089" data-name="Trazado 825089" d="M34.407,356.959a7.731,7.731,0,1,0,7.43-8.034,7.736,7.736,0,0,0-7.43,8.034" transform="translate(-42.485 -248.538)" fill="#fff"/>
                      </g>
                    </g>
                  </g>
                </g>
              </g>
              <path id="Trazado_825091" data-name="Trazado 825091" d="M45.5,354.725a14.032,14.032,0,0,1,4.139-2.887,4.755,4.755,0,0,1,4.79.564,6.743,6.743,0,0,1,1.619,2.747,76.755,76.755,0,0,1,3.721,13.13,3.375,3.375,0,0,1-.047,2.031,3.1,3.1,0,0,1-1.416,1.282,15.892,15.892,0,0,1-15.869-.485,3.382,3.382,0,0,1-1.523-1.616,3.8,3.8,0,0,1,.146-2.182q1.4-5.182,2.8-10.365Z" transform="translate(-9.765 -84.119)" fill="#6da8c6"/>
            </g>
          </g>
          <g id="Grupo_1074926" data-name="Grupo 1074926" transform="translate(31.034 267.333)">
            <g id="Grupo_1074925" data-name="Grupo 1074925" clip-path="url(#clip-path-14)">
              <path id="Trazado_825092" data-name="Trazado 825092" d="M40.019,368.467a15.256,15.256,0,0,0,12.971,6.548,9.029,9.029,0,0,0,4.262-1.107c2.342-1.386,3.681-4.169,6.16-5.291a5.724,5.724,0,0,1-.463,5.834,8.661,8.661,0,0,1-5.027,3.313,16.56,16.56,0,0,1-5.128.4,53.22,53.22,0,0,1-5.7-.721,15.486,15.486,0,0,1-5.914-1.839,5.416,5.416,0,0,1-2.7-5.23Z" transform="translate(-40.23 -355.524)" fill="#210a0a"/>
              <path id="Trazado_825093" data-name="Trazado 825093" d="M41.282,358.088c2.566-1.688,4.353-4.7,7.337-5.425a7.325,7.325,0,0,1,5.533,1.167,21.79,21.79,0,0,1,4.27,3.92q-.754-2.347-1.723-4.616a11.737,11.737,0,0,0-3.137-4.737c-3.205-2.569-7.864-1.616-11.824-.535a13.079,13.079,0,0,0-4.281,1.736,4.457,4.457,0,0,0-2.026,3.942Z" transform="translate(-39.509 -350.328)" fill="#4b89af"/>
            </g>
          </g>
          <g id="Grupo_1074928" data-name="Grupo 1074928">
            <g id="Grupo_1074927" data-name="Grupo 1074927" clip-path="url(#clip-path-2)">
              <path id="Trazado_825095" data-name="Trazado 825095" d="M49.512,364.97a9.3,9.3,0,0,1,7.377-.436,8.857,8.857,0,0,1,1.928.987c.5.335.959-.473.464-.806a10.223,10.223,0,0,0-8.025-1.385,9.8,9.8,0,0,0-2.218.838c-.531.276-.057,1.077.474.8" transform="translate(-11.681 -86.893)" fill="#1c1c1b"/>
              <path id="Trazado_825096" data-name="Trazado 825096" d="M49.085,362.673a8.978,8.978,0,0,1,7.335-.51.468.468,0,0,0,.57-.329.476.476,0,0,0-.328-.57,9.89,9.89,0,0,0-8.05.609c-.526.285-.052,1.087.473.8" transform="translate(-11.58 -86.327)" fill="#1c1c1b"/>
              <path id="Trazado_825097" data-name="Trazado 825097" d="M49.98,358.8a6.58,6.58,0,0,1,6.088-.305.476.476,0,0,0,.634-.17.469.469,0,0,0-.17-.635,7.546,7.546,0,0,0-7.026.31.465.465,0,0,0,.473.8" transform="translate(-11.796 -85.438)" fill="#1c1c1b"/>
              <path id="Trazado_825098" data-name="Trazado 825098" d="M46.781,373.91a8.411,8.411,0,0,1,4.915-2.9,8.253,8.253,0,0,1,7.937,3.1.479.479,0,0,0,.637.164.47.47,0,0,0,.163-.638,9.3,9.3,0,0,0-5.281-3.449,9.156,9.156,0,0,0-9.031,3.07.478.478,0,0,0,0,.658.467.467,0,0,0,.656,0" transform="translate(-11.008 -88.548)" fill="#1c1c1b"/>
              <path id="Trazado_825099" data-name="Trazado 825099" d="M67.166,99.078a60.677,60.677,0,0,0-15.074.405,5.11,5.11,0,0,0-2.837,1.078,4.508,4.508,0,0,0-1.131,2.586c-.645,3.869.3,7.807,1.243,11.615q3.311,13.409,6.623,26.817a9.8,9.8,0,0,1,.413,2.874,10.25,10.25,0,0,1-1.047,3.429c-6.9,15.936-11.756,52.5-8.53,69.565.165.873,15.245,6.264,26.621,5.573,7.322-.446,26.362-3.5,32.853-6.913-.116-18.73-3.453-56.108-12.674-72.412a3.634,3.634,0,0,1-.325-4.007c4.416-11.961,6.418-25.949,6.389-38.7L89.52,99.021Z" transform="translate(-10.963 -23.645)" fill="#847452"/>
            </g>
          </g>
          <g id="Grupo_1074942" data-name="Grupo 1074942" transform="translate(34.841 75.144)">
            <g id="Grupo_1074941" data-name="Grupo 1074941" clip-path="url(#clip-path-16)">
              <g id="Grupo_1074931" data-name="Grupo 1074931" transform="translate(-11.617 3.928)" opacity="0.3">
                <g id="Grupo_1074930" data-name="Grupo 1074930">
                  <g id="Grupo_1074929" data-name="Grupo 1074929" clip-path="url(#clip-path-17)">
                    <path id="Trazado_825100" data-name="Trazado 825100" d="M33.738,103.954q33.739,3.339,67.6,5.155a4.084,4.084,0,0,1,2.788.863,4.036,4.036,0,0,1,.834,1.718q.859,2.859,1.717,5.718-38.132.019-76.148-3.62Z" transform="translate(-30.532 -103.953)" fill="#fff"/>
                  </g>
                </g>
              </g>
              <g id="Grupo_1074934" data-name="Grupo 1074934" transform="translate(-27.276 24.944)" opacity="0.3">
                <g id="Grupo_1074933" data-name="Grupo 1074933" transform="translate(0)">
                  <g id="Grupo_1074932" data-name="Grupo 1074932" clip-path="url(#clip-path-18)">
                    <path id="Trazado_825101" data-name="Trazado 825101" d="M17.707,131.582a341.552,341.552,0,0,0,82.755,6.328l2.556,7.851a148.77,148.77,0,0,1-54.554,5.84c-12.887-1.025-25.609-3.73-38.517-4.437Z" transform="translate(-9.946 -131.582)" fill="#fff"/>
                  </g>
                </g>
              </g>
              <g id="Grupo_1074937" data-name="Grupo 1074937" transform="translate(-33.62 57.133)" opacity="0.3">
                <g id="Grupo_1074936" data-name="Grupo 1074936" transform="translate(0)">
                  <g id="Grupo_1074935" data-name="Grupo 1074935" clip-path="url(#clip-path-19)">
                    <path id="Trazado_825102" data-name="Trazado 825102" d="M4.287,175.377a313.357,313.357,0,0,0,89.5-1.217,8.729,8.729,0,0,1,4.42.055c4.161,1.565,3.675,8.056,7.118,10.869l-25.073,4.435c-7.179,1.27-14.391,2.542-21.679,2.709-7.886.181-15.736-.935-23.607-1.464a158.944,158.944,0,0,0-33.365,1.274Z" transform="translate(-1.606 -173.9)" fill="#fff"/>
                  </g>
                </g>
              </g>
              <g id="Grupo_1074940" data-name="Grupo 1074940" transform="translate(-34.841 83.932)" opacity="0.3">
                <g id="Grupo_1074939" data-name="Grupo 1074939">
                  <g id="Grupo_1074938" data-name="Grupo 1074938" clip-path="url(#clip-path-20)">
                    <path id="Trazado_825103" data-name="Trazado 825103" d="M6.714,209.131a338.1,338.1,0,0,0,78.76,9.12c6.893-.016,13.8-.243,20.667.364a6.286,6.286,0,0,1,3.074.84c3.065,2.122.877,7.689,3.621,10.215-20.811,3.339-41.826,6.688-62.863,5.4C33.237,234.036,16.758,230.079,0,229.5Z" transform="translate(0 -209.131)" fill="#fff"/>
                  </g>
                </g>
              </g>
            </g>
          </g>
          <g id="Grupo_1074953" data-name="Grupo 1074953">
            <g id="Grupo_1074952" data-name="Grupo 1074952" clip-path="url(#clip-path-2)">
              <path id="Trazado_825105" data-name="Trazado 825105" d="M69.256,73.764a3.331,3.331,0,0,1-4.187-2.014,1.28,1.28,0,0,1,.1-1.185c.261-.322.893-.3,1,.1a4.456,4.456,0,0,1-4.349-3.018c-.256-.812,0-2.006.851-2.023a4.417,4.417,0,0,1-3.128-2.541,2.3,2.3,0,0,1-.131-1.737,1.205,1.205,0,0,1,1.43-.752,6.035,6.035,0,0,1-2.011-2.652A2.084,2.084,0,0,1,60.2,55.29a10.285,10.285,0,0,1-.077-4.008,3.5,3.5,0,0,1,2.642-2.738A4.649,4.649,0,0,1,68.171,43a3.345,3.345,0,0,1,5.665-.841,3.045,3.045,0,0,1,5.444-.1,3.027,3.027,0,0,1,2.566-1.2,8.926,8.926,0,0,1,2.867.654L88.145,42.7a7.037,7.037,0,0,1,2.588,1.328,2.4,2.4,0,0,1,.705,2.649,2.19,2.19,0,0,1,1.356,3.871c1.543.031,2.21,1.94,2.446,3.466s.256,3.476-1.121,4.181A1.926,1.926,0,0,1,95.4,60.4a4.152,4.152,0,0,1-1.48,2.323,2.077,2.077,0,0,1,.768,2.658c-.353.673-1.072,1.119-1.34,1.83a6.721,6.721,0,0,0-.207,1.387,3.332,3.332,0,0,1-2.576,2.695,4.391,4.391,0,0,1-4.538,2.474c.442.081.273.764-.026,1.1a8.449,8.449,0,0,1-8.153,2.517,3.94,3.94,0,0,1-5.56-.163,2.032,2.032,0,0,1-2.585-1.938Z" transform="translate(-14.061 -9.676)"/>
              <path id="Trazado_825106" data-name="Trazado 825106" d="M71.671,86.426c-.006,2.964-.017,9.673-.017,9.673s-4.909-.126-7.4,0a24.634,24.634,0,0,0,3.71,5.214,12.732,12.732,0,0,0,4.845,3.5c3.392,1.285,10.957.482,14.249-.932a13.534,13.534,0,0,0,7.531-7.855c-1.181-.142-6.793.076-6.793.076s-.181-6.782-.45-10.249a113.435,113.435,0,0,1-15.481,1.533Z" transform="translate(-15.38 -20.548)" fill="#cc7748"/>
              <g id="Grupo_1074945" data-name="Grupo 1074945" transform="translate(56.274 67.56)" opacity="0.52">
                <g id="Grupo_1074944" data-name="Grupo 1074944">
                  <g id="Grupo_1074943" data-name="Grupo 1074943" clip-path="url(#clip-path-22)">
                    <path id="Trazado_825107" data-name="Trazado 825107" d="M74.237,88.963c1.854,1.737,3.879,3.557,6.395,3.912,3.4.48,6.5-1.838,9.128-4.057-1.345,2.747-2.983,5.757-5.9,6.677-3.458,1.092-7.214-1.457-8.77-4.734a4.07,4.07,0,0,0-1.11-1.685Z" transform="translate(-73.981 -88.818)" fill="#561e1c"/>
                  </g>
                </g>
              </g>
              <path id="Trazado_825108" data-name="Trazado 825108" d="M66.264,55.468c-.02,8.534.713,17.652,5.916,24.415,1.852,2.407,4.594,4.544,7.616,4.243,3.288-.329,7.279-2.636,8.879-5.527,3.86-6.974,4.452-15.523,4.944-23.479l-16.262-5.06Z" transform="translate(-15.86 -11.982)" fill="#cc7748"/>
              <path id="Trazado_825109" data-name="Trazado 825109" d="M71.111,123.451a19.993,19.993,0,0,1-2.142,12.831,10.822,10.822,0,0,1-1.3,1.957c-2.824,3.148-8.3,3.077-11.388.185a15.946,15.946,0,0,1-3.338-5.217,79.1,79.1,0,0,1-7.016-31.423c-.052-3.744.525-8.136,3.893-9.912a3.71,3.71,0,0,1,1.162-.4c2.24-.344,3.546,1.728,4.286,3.609,2.979,7.57,3.079,18.291,2.61,26.413.781-9.469-.45-21.291-1.156-30.765-.251-3.363-.516-6.79-1.783-9.915a8.664,8.664,0,0,1-1.026-3.6c.132-2.461,2.69-3.939,4.209-5.881,1.866-2.385,5.536-7.165,5.112-7.354,2.143-.279.784,3.4-.205,4.886s-2.372,2.853-2.535,4.627a1.687,1.687,0,0,1,2.125-.52,4.922,4.922,0,0,1,1.753,1.6c1.489,1.895,3.051,3.984,2.967,6.421a.911.911,0,0,1-.237.606c-.551.57-1.341-.079-1.772-.664l-2.3-3.121-1.283.711a6.715,6.715,0,0,1,3.515,4.323,14.29,14.29,0,0,1,.265,5.706,14.31,14.31,0,0,0-.161,2.005,12.16,12.16,0,0,0,.329,2.209c1.584,7.554,4.12,22.755,5.416,30.681" transform="translate(-10.991 -15.309)" fill="#dd8c64"/>
              <path id="Trazado_825110" data-name="Trazado 825110" d="M88.592,124.683a19.993,19.993,0,0,0,2.142,12.831,10.821,10.821,0,0,0,1.3,1.957c2.825,3.148,8.3,3.077,11.389.185a15.945,15.945,0,0,0,3.338-5.217,79.1,79.1,0,0,0,7.016-31.423c.052-3.744-.525-8.136-3.893-9.912a3.731,3.731,0,0,0-1.162-.4c-2.24-.343-3.546,1.729-4.286,3.609-2.979,7.57-3.079,18.291-2.61,26.413-.781-9.469.45-21.29,1.156-30.765.251-3.363.516-6.79,1.783-9.914a8.685,8.685,0,0,0,1.026-3.6c-.132-2.461-2.69-3.939-4.209-5.881-1.866-2.385-5.536-7.165-5.112-7.354-2.143-.279-.784,3.4.205,4.886s2.372,2.853,2.535,4.627a1.687,1.687,0,0,0-2.125-.52,4.922,4.922,0,0,0-1.753,1.6c-1.489,1.895-3.051,3.984-2.967,6.421a.911.911,0,0,0,.237.605c.551.57,1.341-.08,1.772-.664l2.3-3.121,1.283.711a6.715,6.715,0,0,0-3.515,4.323,14.291,14.291,0,0,0-.265,5.706,14.31,14.31,0,0,1,.161,2.005A12.16,12.16,0,0,1,94.008,94c-1.584,7.554-4.12,22.754-5.416,30.681" transform="translate(-21.14 -15.604)" fill="#dd8c64"/>
              <path id="Trazado_825111" data-name="Trazado 825111" d="M64.574,60.394c1.162.635,2.684-.319,3.113-1.572a6.3,6.3,0,0,0-.317-3.89A4.261,4.261,0,0,0,72.8,51.237a3.083,3.083,0,0,0,4.984-.685,3.3,3.3,0,0,0,4.893,2.05,4.116,4.116,0,0,0,6.351,1.039,3.11,3.11,0,0,0,2.87,2.994,2.693,2.693,0,0,0-.024,1.357.923.923,0,0,0,1.049.66,1.226,1.226,0,0,0,.678-1.006,5.83,5.83,0,0,0-.424-3.611c.112.269.557.207.7-.044a1.166,1.166,0,0,0,.025-.853,6.9,6.9,0,0,0-1.376-3.07,2.935,2.935,0,0,0-3.052-.972,6.143,6.143,0,0,0-10.168-2.474c-.232-1.778-2.307-2.849-4.081-2.584a8.406,8.406,0,0,0-4.5,2.765,3.989,3.989,0,0,0-3.678.546,11.766,11.766,0,0,0-2.668,2.786l-1.193,1.556a6.3,6.3,0,0,0-1.261,2.217,2.146,2.146,0,0,0,.716,2.3,3.5,3.5,0,0,0,.005,2,1.207,1.207,0,0,0,1.636.692,1.223,1.223,0,0,0,.483,1.619c.529.34-.666.04-.037.062Z" transform="translate(-14.802 -10.531)"/>
              <path id="Trazado_825112" data-name="Trazado 825112" d="M72.976,33.125a9.222,9.222,0,0,1-6.959-2.049,3.867,3.867,0,0,1-1.6-2.737c-.015-1.091,1.025-2.2,2.075-1.907a16.98,16.98,0,0,1-3.142-4.749,6.271,6.271,0,0,1,.264-5.512,3.912,3.912,0,0,1,4.953-1.541A8.3,8.3,0,0,1,69.8,6.2a6.355,6.355,0,0,1,8.111-1.166c.04-1.591.273-3.37,1.519-4.359C81-.581,83.375.093,85.017,1.259c1.565,1.11,2.929,3.153,2.032,4.848a.9.9,0,0,1,.667-1.02,2.17,2.17,0,0,1,1.324.142,5.933,5.933,0,0,1,3.674,3.314,3.72,3.72,0,0,1-1.429,4.467,4.609,4.609,0,0,1,3.7,3.793,4.607,4.607,0,0,1-2.5,4.668,5.255,5.255,0,0,1-4.362,8.773c.564-.141,1.061.531.976,1.106a2.491,2.491,0,0,1-.971,1.4,9.034,9.034,0,0,1-5.219,2.524c-1.966.111-4.105-1.085-4.5-3.014Z" transform="translate(-15.041 0)"/>
              <path id="Trazado_825113" data-name="Trazado 825113" d="M102.146,80.425a32.385,32.385,0,0,1,4.063-3.35c.328-.228.016-.77-.315-.539a33.377,33.377,0,0,0-4.189,3.447c-.289.281.152.722.441.442" transform="translate(-24.32 -18.305)" fill="#561e1c"/>
              <path id="Trazado_825114" data-name="Trazado 825114" d="M96.983,100.336a7.95,7.95,0,0,0,3.733.338.314.314,0,0,0,.218-.384.319.319,0,0,0-.384-.218,7.274,7.274,0,0,1-3.4-.338c-.38-.131-.544.472-.166.6" transform="translate(-23.161 -23.866)" fill="#561e1c"/>
              <path id="Trazado_825115" data-name="Trazado 825115" d="M65.926,100.21l2.976-.336a.322.322,0,0,0,.312-.313.314.314,0,0,0-.312-.312l-2.976.336a.322.322,0,0,0-.313.313.314.314,0,0,0,.313.312" transform="translate(-15.704 -23.755)" fill="#561e1c"/>
              <path id="Trazado_825116" data-name="Trazado 825116" d="M59.343,77.878a17.833,17.833,0,0,0,3.615,3.7.314.314,0,0,0,.427-.112.32.32,0,0,0-.112-.427,16.827,16.827,0,0,1-3.391-3.48.322.322,0,0,0-.427-.113.315.315,0,0,0-.112.427" transform="translate(-14.193 -18.528)" fill="#561e1c"/>
              <path id="Trazado_825117" data-name="Trazado 825117" d="M105.491,119.746q.2,5.2.158,10.4t-.338,10.4q-.167,2.946-.412,5.886c-.033.4.592.4.624,0q.432-5.183.619-10.384t.123-10.4q-.035-2.951-.151-5.9c-.015-.4-.64-.4-.624,0" transform="translate(-25.107 -28.589)" fill="#561e1c"/>
              <path id="Trazado_825118" data-name="Trazado 825118" d="M60.954,120.123Q60.622,130,60.5,139.876q-.033,2.755-.05,5.511a.312.312,0,0,0,.624,0q.062-9.879.334-19.755.076-2.754.169-5.509c.014-.4-.611-.4-.624,0" transform="translate(-14.469 -28.679)" fill="#561e1c"/>
              <path id="Trazado_825119" data-name="Trazado 825119" d="M58.535,149.362l1.784-1.628a.314.314,0,0,0,0-.442.319.319,0,0,0-.441,0l-1.785,1.628a.315.315,0,0,0,0,.442.32.32,0,0,0,.442,0" transform="translate(-13.883 -35.233)" fill="#561e1c"/>
              <path id="Trazado_825120" data-name="Trazado 825120" d="M105.22,150.131a7.8,7.8,0,0,0,1.607,2.054.312.312,0,0,0,.441-.442,7.108,7.108,0,0,1-1.509-1.927.316.316,0,0,0-.427-.113.32.32,0,0,0-.112.428" transform="translate(-25.174 -35.821)" fill="#561e1c"/>
              <path id="Trazado_825121" data-name="Trazado 825121" d="M88.515,71.828a2.635,2.635,0,0,0,4.8.708c.215-.341-.325-.655-.539-.316a2.009,2.009,0,0,1-3.659-.558.313.313,0,0,0-.6.166" transform="translate(-21.183 -17.099)"/>
              <path id="Trazado_825122" data-name="Trazado 825122" d="M71.7,71.585a2.635,2.635,0,0,0,4.8.708c.215-.341-.325-.655-.539-.315A2.009,2.009,0,0,1,72.3,71.42a.313.313,0,0,0-.6.166" transform="translate(-17.159 -17.041)"/>
              <path id="Trazado_825123" data-name="Trazado 825123" d="M81.426,77.831A11.823,11.823,0,0,1,80.4,76.19a6.7,6.7,0,0,1-.677-1.695.705.705,0,0,1,.084-.6c.188-.2.574-.178.825-.2l2.12-.2c.4-.038.4-.663,0-.624-.824.078-1.651.145-2.474.237a1.431,1.431,0,0,0-.913.35,1.125,1.125,0,0,0-.291.795,4.782,4.782,0,0,0,.615,1.913,11.748,11.748,0,0,0,1.193,1.988c.237.319.779.008.539-.315" transform="translate(-18.927 -17.439)" fill="#561e1c"/>
              <path id="Trazado_825124" data-name="Trazado 825124" d="M83.66,82.487a2.656,2.656,0,0,1,2.948-1.043c.385.119.549-.484.166-.6a3.293,3.293,0,0,0-3.653,1.33c-.221.337.319.65.539.315" transform="translate(-19.882 -19.317)" fill="#561e1c"/>
              <path id="Trazado_825125" data-name="Trazado 825125" d="M87.528,65.38c-.424.614.115,1.517.83,1.73a3.465,3.465,0,0,0,2.175-.307c1.306-.5,2.719-1.044,4.057-.647a5.076,5.076,0,0,0-7-.987Z" transform="translate(-20.914 -15.365)"/>
              <path id="Trazado_825126" data-name="Trazado 825126" d="M77.14,65.336c.386.638-.205,1.508-.932,1.678a3.466,3.466,0,0,1-2.153-.435c-1.273-.573-2.652-1.206-4.012-.888a5.075,5.075,0,0,1,7.051-.567Z" transform="translate(-16.765 -15.309)"/>
              <path id="Trazado_825127" data-name="Trazado 825127" d="M102.715,75.337a58.441,58.441,0,0,1-3.634-5.368,9.95,9.95,0,0,1-1.234-2.842,4.614,4.614,0,0,1-.106-1.494c.015-.135.04-.38.187-.443.175-.075.382.16.481.273a5.935,5.935,0,0,1,.493.736l.49.769,1.034,1.622c.215.338.756.024.539-.316l-1.034-1.622a17.008,17.008,0,0,0-1-1.537,1.1,1.1,0,0,0-1.248-.494,1.246,1.246,0,0,0-.576,1.195c-.112,2.347,1.4,4.485,2.626,6.357q1.166,1.78,2.446,3.48c.239.318.781.007.539-.316" transform="translate(-23.24 -15.451)" fill="#561e1c"/>
              <path id="Trazado_825128" data-name="Trazado 825128" d="M62.42,71.271l2.182-3.2L65.679,66.5a9.508,9.508,0,0,1,.993-1.381c.335-.339.785-.4,1.044.066a1.939,1.939,0,0,1-.171,1.616A14.644,14.644,0,0,1,65.9,69.8c-.636.9-1.78,1.858-1.634,3.078.047.394.672.4.624,0a2.162,2.162,0,0,1,.621-1.56c.37-.472.748-.933,1.085-1.43a13.332,13.332,0,0,0,1.721-3.41,1.983,1.983,0,0,0-.106-1.679,1.192,1.192,0,0,0-1.306-.558,2.225,2.225,0,0,0-1.132,1c-.4.58-.795,1.165-1.193,1.747l-2.706,3.964c-.227.332.314.645.539.315" transform="translate(-14.798 -15.368)" fill="#561e1c"/>
              <g id="Grupo_1074948" data-name="Grupo 1074948" transform="translate(70.819 45.972)" opacity="0.63">
                <g id="Grupo_1074947" data-name="Grupo 1074947">
                  <g id="Grupo_1074946" data-name="Grupo 1074946" clip-path="url(#clip-path-23)">
                    <path id="Trazado_825129" data-name="Trazado 825129" d="M105.567,66.669a6.232,6.232,0,1,1-6.232-6.232,6.232,6.232,0,0,1,6.232,6.232" transform="translate(-93.103 -60.437)" fill="#dc4345"/>
                    <path id="Trazado_825130" data-name="Trazado 825130" d="M104.261,67.269a4.326,4.326,0,1,1-4.326-4.326,4.326,4.326,0,0,1,4.326,4.326" transform="translate(-93.703 -61.037)" fill="#8e292e"/>
                  </g>
                </g>
              </g>
              <g id="Grupo_1074951" data-name="Grupo 1074951" transform="translate(44.686 45.045)" opacity="0.63">
                <g id="Grupo_1074950" data-name="Grupo 1074950">
                  <g id="Grupo_1074949" data-name="Grupo 1074949" clip-path="url(#clip-path-23)">
                    <path id="Trazado_825131" data-name="Trazado 825131" d="M71.211,65.451a6.232,6.232,0,1,1-6.232-6.232,6.232,6.232,0,0,1,6.232,6.232" transform="translate(-58.747 -59.219)" fill="#dc4345"/>
                    <path id="Trazado_825132" data-name="Trazado 825132" d="M69.905,66.051a4.326,4.326,0,1,1-4.327-4.326,4.326,4.326,0,0,1,4.327,4.326" transform="translate(-59.347 -59.819)" fill="#8e292e"/>
                  </g>
                </g>
              </g>
              <path id="Trazado_825133" data-name="Trazado 825133" d="M96.95,76.864a14.814,14.814,0,0,0-4.393,5.527c-.476,1.044-.856,2.361.038,3.3a1.5,1.5,0,0,0,1.422.453,2.82,2.82,0,0,0,1.352-.929A17.73,17.73,0,0,1,97.85,82.4l-.378-.049.5.456v-.441c-1.937,1.868-3.739,4.375-3.1,7.217.087.393.69.227.6-.166-.583-2.607,1.183-4.912,2.944-6.61a.315.315,0,0,0,0-.441l-.5-.456a.317.317,0,0,0-.378-.049,9.609,9.609,0,0,0-1.991,2.171c-.459.6-1.4,1.966-2.3,1.4-1.009-.644-.473-2.041-.078-2.879a14.293,14.293,0,0,1,1.666-2.709,14.584,14.584,0,0,1,2.557-2.535.315.315,0,0,0,0-.442.32.32,0,0,0-.442,0" transform="translate(-22.033 -18.376)" fill="#561e1c"/>
              <path id="Trazado_825134" data-name="Trazado 825134" d="M69.034,78.38a13.546,13.546,0,0,1,2.908,4.178c.218.593.619,1.746-.259,1.994-.791.223-1.433-.467-1.9-1-.745-.845-1.485-1.7-2.226-2.544a.318.318,0,0,0-.442,0l-1,.855a.314.314,0,0,0,.063.491,6,6,0,0,1,3.083,3.286,12.694,12.694,0,0,1,.686,5.549c-.021.4.6.4.624,0a13.136,13.136,0,0,0-.771-5.863,6.535,6.535,0,0,0-3.308-3.512c.021.164.043.327.063.491l1-.855h-.442c.752.859,1.5,1.723,2.255,2.576a2.652,2.652,0,0,0,2.278,1.168,1.386,1.386,0,0,0,.99-.6,1.858,1.858,0,0,0,.151-1.377,7.71,7.71,0,0,0-1.2-2.68,23.284,23.284,0,0,0-2.108-2.6c-.269-.3-.71.144-.442.442" transform="translate(-15.803 -18.63)" fill="#561e1c"/>
              <path id="Trazado_825135" data-name="Trazado 825135" d="M99.09,78.427a3.336,3.336,0,0,1,2.434,1.865.315.315,0,0,0,.428.112.32.32,0,0,0,.112-.427,3.922,3.922,0,0,0-2.808-2.152.321.321,0,0,0-.384.218.315.315,0,0,0,.218.384" transform="translate(-23.662 -18.626)" fill="#561e1c"/>
              <path id="Trazado_825136" data-name="Trazado 825136" d="M62.418,78.147a8.265,8.265,0,0,1,1.934-1.777.32.32,0,0,0,.112-.427.315.315,0,0,0-.427-.112A8.777,8.777,0,0,0,61.976,77.7a.323.323,0,0,0,0,.442.314.314,0,0,0,.442,0" transform="translate(-14.813 -18.139)" fill="#561e1c"/>
              <path id="Trazado_825137" data-name="Trazado 825137" d="M64.521,79.706a8.882,8.882,0,0,1,2.693-2.492.312.312,0,0,0-.315-.539,9.611,9.611,0,0,0-2.918,2.716.314.314,0,0,0,.112.427.319.319,0,0,0,.427-.112" transform="translate(-15.303 -18.341)" fill="#561e1c"/>
              <path id="Trazado_825138" data-name="Trazado 825138" d="M47.071,248.433a25.068,25.068,0,0,0,8.864,4.818,38.178,38.178,0,0,0,10.168,1.6,65.184,65.184,0,0,0,10.509-.592,121.7,121.7,0,0,0,24.508-5.849q.743-.26,1.482-.532c.374-.137.213-.74-.166-.6a121.647,121.647,0,0,1-24.225,6.135,71.868,71.868,0,0,1-10.581.841,40.417,40.417,0,0,1-10.151-1.2,25.408,25.408,0,0,1-8.97-4.244c-.341-.259-.672-.53-1-.809-.3-.26-.748.18-.442.442" transform="translate(-11.242 -59.179)" fill="#56482f"/>
              <path id="Trazado_825139" data-name="Trazado 825139" d="M80.378,151.429l4.578-.2c.4-.017.4-.642,0-.624l-4.578.2c-.4.017-.4.642,0,.624" transform="translate(-19.166 -36.047)" fill="#56482f"/>
              <path id="Trazado_825140" data-name="Trazado 825140" d="M82.06,151.395a22.136,22.136,0,0,0-3.246,12.758,7.44,7.44,0,0,0,.977,3.457.318.318,0,0,0,.427.112,3.459,3.459,0,0,0,1.448-2.1,24.112,24.112,0,0,0,.717-3.184,32,32,0,0,0,.423-6.68,32.441,32.441,0,0,0-.394-3.816c-.065-.4-.664-.227-.6.166.344,2.194.681,4.389,1.032,6.581a19.12,19.12,0,0,0,1.495,5.458,9.029,9.029,0,0,0,.693,1.184c.24.343.526.739.993.714a1.17,1.17,0,0,0,.9-.793,3.217,3.217,0,0,0,.258-1.357,13.09,13.09,0,0,0-.533-2.918q-.38-1.53-.852-3.034a52.961,52.961,0,0,0-2.584-6.622c-.17-.364-.709-.047-.539.315a50.589,50.589,0,0,1,3.719,11,3.53,3.53,0,0,1-.125,2.53c-.086.142-.217.323-.392.214a1.556,1.556,0,0,1-.377-.469,9.086,9.086,0,0,1-.639-1.115,18.046,18.046,0,0,1-1.371-5.011c-.373-2.277-.717-4.56-1.074-6.84l-.6.166a31.25,31.25,0,0,1-.572,12.725,3.492,3.492,0,0,1-1.334,2.35l.427.112c-1.106-1.786-1.018-4.128-.841-6.145a21.989,21.989,0,0,1,1.482-6.192A21.7,21.7,0,0,1,82.6,151.71c.209-.344-.331-.658-.539-.315" transform="translate(-18.853 -36.179)" fill="#56482f"/>
              <path id="Trazado_825141" data-name="Trazado 825141" d="M82.8,150.934l.968,7.964c.32,2.635.653,5.273.786,7.925.262,5.266-.278,10.524-.524,15.779a69.544,69.544,0,0,0,.056,8.894c.033.4.657.4.624,0-.427-5.272.052-10.552.345-15.817.146-2.627.246-5.259.162-7.889-.085-2.652-.388-5.29-.707-7.922q-.541-4.467-1.085-8.934c-.048-.394-.673-.4-.624,0" transform="translate(-19.817 -36.054)" fill="#56482f"/>
              <path id="Trazado_825142" data-name="Trazado 825142" d="M80.865,161.165a16.777,16.777,0,0,1,.446,7.359c-.29,2.5-.72,5-1.2,7.473A121.888,121.888,0,0,1,76.3,190.685q-1.333,4.074-2.949,8.046c-.151.373.453.534.6.167a122.041,122.041,0,0,0,4.883-14.573,118.46,118.46,0,0,0,3-15.039A18.288,18.288,0,0,0,81.467,161c-.129-.379-.733-.216-.6.166" transform="translate(-17.551 -38.483)" fill="#56482f"/>
              <path id="Trazado_825143" data-name="Trazado 825143" d="M74.458,113.615c2.1.345,4.193.739,6.3,1.028a8.888,8.888,0,0,0,2.99-.044,18.061,18.061,0,0,0,2.833-.9c.372-.141.211-.745-.166-.6a18.683,18.683,0,0,1-2.739.882,8.338,8.338,0,0,1-2.95.035c-2.039-.3-4.069-.665-6.1-1-.393-.065-.562.537-.166.6" transform="translate(-17.767 -27.048)" fill="#56482f"/>
              <path id="Trazado_825144" data-name="Trazado 825144" d="M80.755,207.792,84.436,219.5,88.1,231.156q1.037,3.3,2.075,6.6c.119.382.723.219.6-.166L87.1,225.881l-3.665-11.657-2.074-6.6c-.12-.383-.723-.219-.6.166" transform="translate(-19.325 -49.642)" fill="#56482f"/>
              <path id="Trazado_825145" data-name="Trazado 825145" d="M87.193,214.5q3.353,9.235,6.072,18.685.769,2.677,1.487,5.369a.312.312,0,0,0,.6-.166q-2.532-9.494-5.708-18.8-.9-2.636-1.851-5.254c-.136-.375-.74-.213-.6.166" transform="translate(-20.864 -51.249)" fill="#56482f"/>
            </g>
          </g>
        </g>
      </g>
    </g>
  </g>
</svg>
