<svg xmlns="http://www.w3.org/2000/svg" xmlns:xlink="http://www.w3.org/1999/xlink" width="169" height="169" viewBox="0 0 169 169">
  <defs>
    <clipPath id="clip-path">
      <circle id="Elipse_5910" data-name="Elipse 5910" cx="72.5" cy="72.5" r="72.5" transform="translate(404.833 2079.043)" fill="#fff" stroke="#707070" stroke-width="1"/>
    </clipPath>
    <clipPath id="clip-path-2">
      <rect id="Rectángulo_378581" data-name="Rectángulo 378581" width="98.387" height="111.783" fill="none"/>
    </clipPath>
    <clipPath id="clip-path-3">
      <rect id="Rectángulo_378580" data-name="Rectángulo 378580" width="98.388" height="111.784" fill="none"/>
    </clipPath>
    <clipPath id="clip-path-4">
      <rect id="Rectángulo_378579" data-name="Rectángulo 378579" width="49.39" height="27.145" fill="none"/>
    </clipPath>
  </defs>
  <g id="Grupo_1075686" data-name="Grupo 1075686" transform="translate(-1687.582 8358.72)">
    <g id="Grupo_1075144" data-name="Grupo 1075144" transform="translate(1302.081 -10416.719)">
      <g id="Grupo_159182" data-name="Grupo 159182" transform="translate(385.5 2057.999)">
        <path id="Unión_12" data-name="Unión 12" d="M84.5,0A84.5,84.5,0,1,1,0,84.5,84.5,84.5,0,0,1,84.5,0Z" transform="translate(0 0)" fill="#ffae7e"/>
      </g>
    </g>
    <g id="Grupo_1075156" data-name="Grupo 1075156" transform="translate(1724.613 -8329.008)">
      <g id="Grupo_1075155" data-name="Grupo 1075155" clip-path="url(#clip-path-2)">
        <g id="Grupo_1075154" data-name="Grupo 1075154" transform="translate(0 -0.001)">
          <g id="Grupo_1075153" data-name="Grupo 1075153" clip-path="url(#clip-path-3)">
            <path id="Trazado_825722" data-name="Trazado 825722" d="M46.917,15.425A15.425,15.425,0,1,1,31.492,0,15.425,15.425,0,0,1,46.917,15.425" transform="translate(11.135 0.001)" fill="#d98853"/>
            <rect id="Rectángulo_378578" data-name="Rectángulo 378578" width="49.391" height="59.247" transform="translate(1.927 51.71)" fill="#d98853"/>
            <path id="Trazado_825723" data-name="Trazado 825723" d="M51.436,49.071H1.927a1.927,1.927,0,0,1,0-3.853H51.436a1.927,1.927,0,0,1,0,3.853" transform="translate(0 31.338)" fill="#c16d3e"/>
            <path id="Trazado_825724" data-name="Trazado 825724" d="M34.924,51.933A13.623,13.623,0,1,1,21.3,38.309,13.623,13.623,0,0,1,34.924,51.933" transform="translate(5.321 26.55)" fill="#ffac3e"/>
            <path id="Trazado_825725" data-name="Trazado 825725" d="M16.468,48.028a3.372,3.372,0,0,1,1.607-.394,3.312,3.312,0,0,1,1.729.474l4.04-7.444a16.331,16.331,0,0,0-11.521-.007Z" transform="translate(8.539 27.451)" fill="#464f72"/>
            <path id="Trazado_825726" data-name="Trazado 825726" d="M18.863,49.26A3.307,3.307,0,0,1,17.7,48.077a3.25,3.25,0,0,1-.452-1.739l-8.611.347a15.983,15.983,0,0,0,5.8,9.955Z" transform="translate(5.989 32.114)" fill="#464f72"/>
            <path id="Trazado_825727" data-name="Trazado 825727" d="M16.855,49.243a3.383,3.383,0,0,0,1.172-1.166,3.327,3.327,0,0,0,.5-1.72l8.413.408a16.424,16.424,0,0,1-6,9.833Z" transform="translate(11.681 32.126)" fill="#464f72"/>
            <path id="Trazado_825728" data-name="Trazado 825728" d="M18.267,47a1.779,1.779,0,1,1-1.779-1.779A1.779,1.779,0,0,1,18.267,47" transform="translate(10.193 31.338)" fill="#464f72"/>
            <path id="Trazado_825729" data-name="Trazado 825729" d="M51.436,32.978H1.927a1.927,1.927,0,1,1,0-3.853H51.436a1.927,1.927,0,1,1,0,3.853" transform="translate(0 20.185)" fill="#c16d3e"/>
            <path id="Trazado_825730" data-name="Trazado 825730" d="M43.043,22.875c-.626-.091-7.485.943-8.788-.73-.943-1.212,2-5.121,2-5.121s.929,1.881,6.422.432c4.627-1.222.364,5.419.364,5.419" transform="translate(23.61 11.799)" fill="#7c4930"/>
            <path id="Trazado_825731" data-name="Trazado 825731" d="M34.134,24.1c1.7-5.937,12.417-12.9,12.417-12.9l.328,2.775L38.6,25.913s-5.633,2.255-4.463-1.812" transform="translate(23.545 7.763)" fill="#7c4930"/>
            <path id="Trazado_825732" data-name="Trazado 825732" d="M42.85,15.745a4,4,0,0,1,.918.181,5,5,0,0,0,1.715-.093c.315-.056,1.043.2,1.233-.166.313-.6-1.012-.691-1.288-.813a.665.665,0,0,1-.444-.637.831.831,0,0,1,.288-.455,17.358,17.358,0,0,1,1.359-1.1c.239-.186.46-.386.687-.587.168-.151.454-.284.576-.471a.31.31,0,0,0-.112-.459c-.166-.063-.262.081-.389.159-.286.174-.577.342-.869.506-.064.036-.332.242-.408.212-.371-.149.342-.711.45-.8a1.8,1.8,0,0,0,.645-.858.166.166,0,0,0-.012-.142c-.047-.063-.146-.039-.215-.005-.416.195-.75.537-1.17.723a.21.21,0,0,1-.213.008c-.237-.185.149-.647.262-.809.073-.1.151-.235.083-.34a.2.2,0,0,0-.218-.073.6.6,0,0,0-.215.113,5.923,5.923,0,0,0-.589.433c-.085.078-.317.334-.447.242a.118.118,0,0,1-.041-.081.62.62,0,0,1,.1-.32.306.306,0,0,0,0-.322c-.091-.107-.266-.063-.389.005a5.227,5.227,0,0,0-1.158.994c-.376.379-.736.777-1.077,1.19-.64.775-1.117,1.693-1.827,2.406a1.9,1.9,0,0,0-.295.344,1.171,1.171,0,0,0-.078.838,1.842,1.842,0,0,0,.957,1.266c.156.074.464.251.62.169.113-.059.22-.283.3-.383a4.041,4.041,0,0,1,.362-.416,1.663,1.663,0,0,1,.9-.457" transform="translate(27.495 6.734)" fill="#7c4930"/>
            <path id="Trazado_825733" data-name="Trazado 825733" d="M49.355,15.577c2.148-.322,3.312.951,3.7,2.783.22,1.04-.936,2.815-2.15,3.488a20.486,20.486,0,0,1-11.292,2.089c-1.679-.178-2.611-5.274,0-6.493,3.428-1.6,6.718-1.415,9.742-1.867" transform="translate(26.325 10.762)" fill="#db8e28"/>
            <path id="Trazado_825734" data-name="Trazado 825734" d="M59.2,59.224s2.253,2.927,2.289,3.571c.1,1.915-5.067,5.577-7.481,5.743-.337.022-.894-.286-.735-1.224s2.661-3.618,1.642-4.778S59.2,59.224,59.2,59.224" transform="translate(36.899 41.044)" fill="#e8a32b"/>
            <path id="Trazado_825735" data-name="Trazado 825735" d="M54.559,55.278s3.8-15.547,3.957-18.975c.23-5.037-4.349-9.5-9.743-7.363C45.062,30.409,40.784,61.116,46.4,64.8c5.094,3.345,8.159-9.527,8.159-9.527" transform="translate(30.279 19.676)" fill="#af75e1"/>
            <path id="Trazado_825736" data-name="Trazado 825736" d="M58.936,73.879C54.7,69.07,43.633,52.714,43.769,47.737c.146-5.382,7.343-4.375,11.149,1.6,2.467,3.874,10.646,17.108,12.613,20.851.477.907-1.583,2.726-3.017,3.457-.034.019-4.353,1.62-5.577.23" transform="translate(30.332 30.648)" fill="#af75e1"/>
            <path id="Trazado_825737" data-name="Trazado 825737" d="M46.175,58.961s1.234,3.483,1.068,4.1c-.5,1.854-6.55,3.73-8.9,3.137-.328-.083-.762-.55-.32-1.392s3.654-2.614,3.046-4.031,5.1-1.818,5.1-1.818" transform="translate(26.224 40.862)" fill="#e8a32b"/>
            <path id="Trazado_825738" data-name="Trazado 825738" d="M45.793,53.674s8.438-13.6,9.652-16.808c1.781-4.717-1.183-10.385-6.977-10.026-3.982.247-17.58,28.108-13.387,33.358,3.8,4.761,10.712-6.523,10.712-6.523" transform="translate(23.762 18.59)" fill="#af75e1"/>
            <path id="Trazado_825739" data-name="Trazado 825739" d="M40.857,73.217c-2.531-5.885-7.978-24.869-6.3-29.56,1.81-5.071,8.338-1.878,10.1,4.986,1.143,4.449,4.808,19.568,5.516,23.736.173,1.011-2.35,2.1-3.94,2.352-.039.005-4.642.188-5.374-1.514" transform="translate(23.729 28.533)" fill="#af75e1"/>
            <path id="Trazado_825740" data-name="Trazado 825740" d="M47.835,33.571c.94,1.422,3.454,4.9,5.484,3.477.273-.19.029-.654-.247-.46-1.686,1.18-3.984-2.067-4.776-3.266-.185-.278-.647-.032-.46.249" transform="translate(33.12 23.009)" fill="#9c67d3"/>
            <path id="Trazado_825741" data-name="Trazado 825741" d="M38.848,35.28a6.017,6.017,0,0,0,4.471-2.946c.242-.4.843.014.6.415a6.5,6.5,0,0,1-5.128,3.259c-.469.022-.41-.708.054-.728" transform="translate(26.66 22.295)" fill="#9c67d3"/>
            <path id="Trazado_825742" data-name="Trazado 825742" d="M43.682,18.422c1.624-4.434,9.63-2.678,15.1-1.576,3.687.742,5.7,2.543,5.187,9.322-.2,2.665-.427,10.813-1.906,14.858-.268.728-1.4,1.344-2,1.83-3.464,2.8-21.29-1.078-20.386-5.2a75.389,75.389,0,0,1,4-19.234" transform="translate(27.476 10.782)" fill="#e79e30"/>
            <path id="Trazado_825743" data-name="Trazado 825743" d="M53.517,12.73s-5.733.945-5.44,1.422-.3,1.387-.362,2.291a5.143,5.143,0,0,1-1.688,2.936c-.645.664.4,1.544,1.359,1.773,4.128.985,6.831-.444,6.017-1.834-1.834-3.125.113-6.588.113-6.588" transform="translate(31.76 8.823)" fill="#7c4930"/>
            <path id="Trazado_825744" data-name="Trazado 825744" d="M47.247,16.473c.056-.9.655-1.812.361-2.289s5.892-1.5,5.892-1.5a4.433,4.433,0,0,0-1.2,2.326c-1.818,2.191-4.224,2.744-5.788,3.268a8.152,8.152,0,0,0,.74-1.808" transform="translate(32.23 8.793)" fill="#56301b"/>
            <path id="Trazado_825745" data-name="Trazado 825745" d="M48.5,8.959c-2.314,1.58-4.5,7.314-2.3,10.2,1.211,1.586,5.958.193,8.308-3.019a7.177,7.177,0,0,0,.086-5.6C54.13,9.3,50.905,7.318,48.5,8.959" transform="translate(31.386 5.778)" fill="#7c4930"/>
            <path id="Trazado_825746" data-name="Trazado 825746" d="M45.531,14.152c-.014.357.672-3.5,2.868-3.657.892-.064.647.86,1.674.987.875.107,3.6-1.534,2.33,3.655-.061.251.164.557.268.789.132.286-.347.9-.356,1.214s.943-.579.911-.279c-.049.455-.9,1.691-.252,1.9.774.245,1.893-2.313,2.355-4.734.119-.623.762-3.037.826-3.562.137-1.116-5.291-3.064-7.707-3.179-1.427-.068-1.126,1.908-1.663,3.1a10.375,10.375,0,0,0-1.255,3.765" transform="translate(31.554 5.047)" fill="#282738"/>
            <path id="Trazado_825747" data-name="Trazado 825747" d="M49.55,13.077s1.681-1.341,2.55-.889S51.6,15,49.784,14.577s-.747-1.141-.234-1.5" transform="translate(33.797 8.383)" fill="#7c4930"/>
            <path id="Trazado_825748" data-name="Trazado 825748" d="M47.508,8.83a.753.753,0,1,1-.714-.787.752.752,0,0,1,.714.787" transform="translate(31.881 5.574)" fill="#282738"/>
            <path id="Trazado_825749" data-name="Trazado 825749" d="M49.028,8.182A1.413,1.413,0,1,1,47.685,6.7a1.413,1.413,0,0,1,1.343,1.48" transform="translate(32.02 4.645)" fill="#282738"/>
            <path id="Trazado_825750" data-name="Trazado 825750" d="M50.668,9.656a1.907,1.907,0,1,1,.13-2.694,1.906,1.906,0,0,1-.13,2.694" transform="translate(32.904 4.392)" fill="#282738"/>
            <path id="Trazado_825751" data-name="Trazado 825751" d="M52.039,8.485a1.347,1.347,0,1,1-1.28-1.41,1.346,1.346,0,0,1,1.28,1.41" transform="translate(34.199 4.902)" fill="#282738"/>
            <path id="Trazado_825752" data-name="Trazado 825752" d="M53.845,9.694a1.68,1.68,0,1,1-1.6-1.757,1.682,1.682,0,0,1,1.6,1.757" transform="translate(34.989 5.5)" fill="#282738"/>
            <path id="Trazado_825753" data-name="Trazado 825753" d="M53.442,10.677A1.217,1.217,0,1,1,52.285,9.4a1.216,1.216,0,0,1,1.156,1.275" transform="translate(35.35 6.516)" fill="#282738"/>
            <path id="Trazado_825754" data-name="Trazado 825754" d="M52.952,11.369A1.213,1.213,0,1,1,51.8,10.1a1.213,1.213,0,0,1,1.153,1.27" transform="translate(35.017 6.999)" fill="#282738"/>
            <path id="Trazado_825755" data-name="Trazado 825755" d="M47,9.463a.77.77,0,1,1-.731-.806A.769.769,0,0,1,47,9.463" transform="translate(31.509 6)" fill="#282738"/>
            <path id="Trazado_825756" data-name="Trazado 825756" d="M52.789,12.189a1.019,1.019,0,1,1-.968-1.067,1.019,1.019,0,0,1,.968,1.067" transform="translate(35.172 7.708)" fill="#282738"/>
            <path id="Trazado_825757" data-name="Trazado 825757" d="M48.94,12.208c.042-.03-.049.029-.066.037a1.086,1.086,0,0,1-.227.088c-.312.069-.481-.119-.591-.376-.068-.161-.318-.034-.251.127a.83.83,0,0,0,1.326.323c.147-.1-.044-.3-.191-.2" transform="translate(33.122 8.236)" fill="#201714"/>
            <path id="Trazado_825758" data-name="Trazado 825758" d="M47.137,11.732a.937.937,0,0,1-.24.207c-.29.174-.488.005-.635-.254-.086-.152-.339-.025-.251.127a.72.72,0,0,0,.838.447,1.148,1.148,0,0,0,.525-.379c.113-.139-.125-.284-.237-.147" transform="translate(31.874 8.05)" fill="#201714"/>
            <path id="Trazado_825759" data-name="Trazado 825759" d="M46.381,10.931a.84.84,0,0,1,1.062.442c.1.193.389.012.288-.179a1.161,1.161,0,0,0-1.451-.586c-.207.071-.1.394.1.323" transform="translate(31.994 7.302)" fill="#56301b"/>
            <path id="Trazado_825760" data-name="Trazado 825760" d="M48.075,11.44a.839.839,0,0,1,1.141.139c.152.157.379-.095.229-.252a1.161,1.161,0,0,0-1.554-.171c-.179.125.005.41.185.284" transform="translate(33.138 7.577)" fill="#56301b"/>
            <path id="Trazado_825761" data-name="Trazado 825761" d="M47.655,11.506a1.7,1.7,0,0,1,.066.94c-.12.438-.608.643-.87,1.007-.361.5.014.789.616.946.147.037.212-.147.068-.185-1.354-.352.2-1.078.391-1.644a1.8,1.8,0,0,0-.041-1.112c-.041-.12-.269-.073-.23.047" transform="translate(32.371 7.893)" fill="#56301b"/>
            <path id="Trazado_825762" data-name="Trazado 825762" d="M46.593,13.934s.472-.757,1.072-.323a.86.86,0,0,1,.191,1.126Z" transform="translate(32.29 9.34)" fill="#faffff"/>
            <path id="Trazado_825763" data-name="Trazado 825763" d="M49.432,13.638A.658.658,0,1,1,49,12.813a.658.658,0,0,1,.432.825" transform="translate(33.366 8.86)" fill="#56301b"/>
            <path id="Trazado_825764" data-name="Trazado 825764" d="M45.851,12.56a.666.666,0,1,1-.081.938.664.664,0,0,1,.081-.938" transform="translate(31.611 8.597)" fill="#56301b"/>
            <path id="Trazado_825765" data-name="Trazado 825765" d="M53.706,26.8c-.5.388-4.522,6.039-6.63,5.814-1.527-.164-2.292-5-2.292-5s2,.637,4.771-4.319c2.336-4.177,4.151,3.5,4.151,3.5" transform="translate(31.036 15.284)" fill="#7c4930"/>
            <path id="Trazado_825766" data-name="Trazado 825766" d="M45.817,34.841c-3.085-5.353-.648-17.9-.648-17.9l2.223,1.691,2.831,14.252s-2.292,5.619-4.405,1.952" transform="translate(30.67 11.745)" fill="#7c4930"/>
            <path id="Trazado_825767" data-name="Trazado 825767" d="M47.813,21.136a3.889,3.889,0,0,1,.769-.533,5.009,5.009,0,0,0,1.124-1.3c.179-.264.867-.611.738-1-.213-.64-1.2.249-1.481.362a.664.664,0,0,1-.765-.124.828.828,0,0,1-.127-.523,17.122,17.122,0,0,1,.154-1.74c.03-.3.042-.6.054-.9a3.354,3.354,0,0,0,.063-.74.31.31,0,0,0-.408-.239c-.161.074-.125.245-.157.391-.073.327-.154.652-.239.975-.019.071-.056.408-.132.44-.364.163-.273-.74-.264-.882a1.8,1.8,0,0,0-.169-1.06.168.168,0,0,0-.11-.091c-.078-.008-.129.078-.154.152-.149.433-.134.913-.293,1.344-.025.069-.068.149-.142.159-.3.041-.361-.557-.4-.752-.024-.122-.066-.273-.19-.3a.2.2,0,0,0-.2.107.611.611,0,0,0-.068.234,5.82,5.82,0,0,0-.1.725c0,.115.022.459-.135.489a.111.111,0,0,1-.086-.027.636.636,0,0,1-.161-.295c-.041-.107-.115-.22-.229-.227-.141-.007-.23.149-.267.284a5.218,5.218,0,0,0-.091,1.524c.014.535.049,1.07.11,1.6.112,1,.438,1.981.461,2.985a1.837,1.837,0,0,0,.042.452,1.17,1.17,0,0,0,.549.638,1.848,1.848,0,0,0,1.575.191c.163-.061.5-.159.554-.327a1.5,1.5,0,0,0-.069-.483,4,4,0,0,1-.046-.55,1.671,1.671,0,0,1,.293-.962" transform="translate(30.724 9.818)" fill="#7c4930"/>
            <path id="Trazado_825768" data-name="Trazado 825768" d="M52.494,18.181c1.261-1.768,2.985-1.72,4.573-.728.9.564,1.375,2.629,1.014,3.97A20.484,20.484,0,0,1,51.739,31c-1.3,1.085-5.609-1.786-4.669-4.512,1.231-3.576,3.648-5.814,5.424-8.3" transform="translate(32.528 11.62)" fill="#db8e28"/>
            <g id="Grupo_1075152" data-name="Grupo 1075152" transform="translate(1.927 83.813)" opacity="0.23" style="mix-blend-mode: overlay;isolation: isolate">
              <g id="Grupo_1075151" data-name="Grupo 1075151">
                <g id="Grupo_1075150" data-name="Grupo 1075150" clip-path="url(#clip-path-4)">
                  <path id="Trazado_825769" data-name="Trazado 825769" d="M18.954,65.909A39.184,39.184,0,0,1,1.138,61.681V76.649H50.529V49.505c-6.478,9.835-18.195,16.4-31.575,16.4" transform="translate(-1.138 -49.505)"/>
                </g>
              </g>
            </g>
            <path id="Trazado_825770" data-name="Trazado 825770" d="M51.436,67.6H1.927a1.927,1.927,0,0,1,0-3.853H51.436a1.927,1.927,0,0,1,0,3.853" transform="translate(0 44.181)" fill="#d98853"/>
            <path id="Trazado_825771" data-name="Trazado 825771" d="M21.282,25.388l4.791-7.817,3.093,3.968,5.76-18.261L27.576,15.27l-2.954-3.652Z" transform="translate(14.749 2.273)" fill="#ffd500"/>
          </g>
        </g>
      </g>
    </g>
  </g>
</svg>
