<svg xmlns="http://www.w3.org/2000/svg" xmlns:xlink="http://www.w3.org/1999/xlink" width="169" height="169" viewBox="0 0 169 169">
  <defs>
    <clipPath id="clip-path">
      <rect id="Rectángulo_378487" data-name="Rectángulo 378487" width="74.999" height="114.314" fill="none"/>
    </clipPath>
    <clipPath id="clip-path-3">
      <rect id="Rectángulo_378482" data-name="Rectángulo 378482" width="46.824" height="32.004" fill="none"/>
    </clipPath>
    <clipPath id="clip-path-4">
      <path id="Trazado_824921" data-name="Trazado 824921" d="M71.57,63.767c-.855.53-.447,1.819-.452,2.827a5.724,5.724,0,0,1-.806,2.481,140.6,140.6,0,0,1-8,12.465,16.426,16.426,0,0,1-6.055,5.174,3.189,3.189,0,0,0-1.39,1.358L61.7,91.616,67.649,94.7l8.615,4.469a90.859,90.859,0,0,1,9.358,5.335.675.675,0,0,0,1.051-.538,5.631,5.631,0,0,1,.317-1.758,7.9,7.9,0,0,1,.766-1.416l8.852-14.01c.865-1.37,1.732-2.742,2.708-4.036a29.6,29.6,0,0,1,4.067-4.39c-.759-.617-1.865-.316-2.839-.227a11.582,11.582,0,0,1-5.3-1.227c-6.36-2.588-12.755-5.193-18.6-8.792A6.614,6.614,0,0,1,74.415,66.2c-.508-.795-.686-1.785-1.533-2.366a1.291,1.291,0,0,0-.725-.229,1.114,1.114,0,0,0-.588.164" transform="translate(-54.87 -63.603)" fill="none"/>
    </clipPath>
    <clipPath id="clip-path-6">
      <rect id="Rectángulo_378484" data-name="Rectángulo 378484" width="3.492" height="4.544" fill="none"/>
    </clipPath>
    <clipPath id="clip-path-7">
      <rect id="Rectángulo_378485" data-name="Rectángulo 378485" width="23.396" height="23.397" fill="none"/>
    </clipPath>
  </defs>
  <g id="Grupo_1074870" data-name="Grupo 1074870" transform="translate(-719 -2877.911)">
    <g id="Grupo_1073327" data-name="Grupo 1073327" transform="translate(334 819.911)">
      <g id="Grupo_159182" data-name="Grupo 159182" transform="translate(385.001 2058)">
        <path id="Unión_12" data-name="Unión 12" d="M84.5,0A84.5,84.5,0,1,1,0,84.5,84.5,84.5,0,0,1,84.5,0Z" transform="translate(0 0)" fill="#ffae7e"/>
      </g>
    </g>
    <g id="Grupo_1074893" data-name="Grupo 1074893" transform="translate(766.001 2905.254)">
      <g id="Grupo_1074892" data-name="Grupo 1074892" clip-path="url(#clip-path)">
        <g id="Grupo_1074881" data-name="Grupo 1074881">
          <g id="Grupo_1074880" data-name="Grupo 1074880" clip-path="url(#clip-path)">
            <path id="Trazado_824905" data-name="Trazado 824905" d="M61.757,176.173a43.174,43.174,0,0,0-.462,9.444c.039.632.714.7.829.078l0-.017c.6-3.276,1.044-6.6,1.324-9.945Z" transform="translate(-35.81 -102.802)" fill="#70371d"/>
            <path id="Trazado_824906" data-name="Trazado 824906" d="M32.681,175.636l-9.715,37.158a1.82,1.82,0,0,0-.006,1.324c.218.4.918.5,1.08.077.231-3.6,7.817-29.843,10.339-39.346Z" transform="translate(-13.358 -102.284)" fill="#70371d"/>
            <path id="Trazado_824907" data-name="Trazado 824907" d="M49.559,179.045a19.408,19.408,0,0,0-9.09,9.035l-.064.132a13.5,13.5,0,0,0-.683,1.685.771.771,0,0,0,1.456.5,17.207,17.207,0,0,1,3.621-6.1,16.46,16.46,0,0,1,5.215-3.4c5.1-2.232,11.056-3.225,16.323-1.422,12.257,4.2,16.439,15.18,17.434,14.118.758-.809-3.989-9.167-13.816-14.27a19.5,19.5,0,0,0-9.833-2.282l-2.779.094a19.5,19.5,0,0,0-7.783,1.91" transform="translate(-23.211 -103.56)" fill="#70371d"/>
            <path id="Trazado_824908" data-name="Trazado 824908" d="M136.786,174.761c2.4,12.561,5.168,26.819,8.045,39.28a3.9,3.9,0,0,0,1.129,2.313,3.862,3.862,0,0,0,.013-2.124c-2.417-13.218-5.77-26.544-7.97-39.8Z" transform="translate(-80.018 -102.039)" fill="#70371d"/>
            <path id="Trazado_824909" data-name="Trazado 824909" d="M145.143,174.7a34.814,34.814,0,0,1,.742,7.823c-.006.32-.054.706-.329.841-.43.211-.792-.4-.918-.884q-1.013-3.9-1.9-7.846Z" transform="translate(-83.503 -102.158)" fill="#70371d"/>
            <path id="Trazado_824910" data-name="Trazado 824910" d="M13.353,68.963s6.043-16,9.349-20.782C26.972,42.01,36.434,35.975,49,36.063c10.52.073,23.559,4.726,26.773,15.805S80.929,81,80.929,81s.423,6.9-3.787,10.776-20.394,3.574-20.394,3.574l-31.3.146s-11.236-.053-13.61-6.277c-3.157-8.275-1.2-12.54.425-17.157l1.089-3.1.022-.062Z" transform="translate(-5.942 -21.096)" fill="#f7e3c9"/>
            <g id="Grupo_1074879" data-name="Grupo 1074879" transform="translate(21.838 37.668)" opacity="0.32">
              <g id="Grupo_1074878" data-name="Grupo 1074878">
                <g id="Grupo_1074877" data-name="Grupo 1074877" clip-path="url(#clip-path-3)">
                  <path id="Trazado_824911" data-name="Trazado 824911" d="M54.249,104.875a2.156,2.156,0,0,0-1.63,1.267c9.276,7.377,20.416,11.947,31.389,16.421a1.088,1.088,0,0,0,1.705-.5L98.826,99.542c.473-.813.932-1.895.331-2.618a2.459,2.459,0,0,0-1.964-.56A28.536,28.536,0,0,1,85.4,93.809c-2.877-1.31-5.718-3.144-8.877-3.041a15.185,15.185,0,0,0-5.033,1.357c-4.915,1.955-10.276,4.32-12.479,9.128Z" transform="translate(-52.619 -90.764)" fill="#c4ae94"/>
                </g>
              </g>
            </g>
            <path id="Trazado_824912" data-name="Trazado 824912" d="M56.26,86.714a3.191,3.191,0,0,0-1.39,1.357L61.7,91.616,67.649,94.7l8.615,4.469a90.857,90.857,0,0,1,9.358,5.335.675.675,0,0,0,1.051-.539,5.633,5.633,0,0,1,.317-1.758,7.927,7.927,0,0,1,.766-1.416l8.852-14.01c.865-1.37,1.732-2.742,2.708-4.036a29.577,29.577,0,0,1,4.067-4.39c-.759-.617-1.865-.316-2.839-.227a11.582,11.582,0,0,1-5.3-1.227c-6.361-2.588-12.755-5.193-18.6-8.792A6.614,6.614,0,0,1,74.415,66.2c-.508-.794-.686-1.785-1.533-2.365a1.207,1.207,0,0,0-1.312-.065c-.855.529-.447,1.819-.452,2.827a5.723,5.723,0,0,1-.806,2.48,140.638,140.638,0,0,1-8,12.466,16.437,16.437,0,0,1-6.055,5.174" transform="translate(-32.098 -37.207)" fill="#67acce"/>
            <path id="Trazado_824913" data-name="Trazado 824913" d="M147.323,143.935c1.185,1.158,2.351,2.336,3.527,3.5,1.106,1.1,2.225,2.178,3.384,3.218q1.086.973,2.212,1.9c.168.138.41-.1.241-.241q-1.919-1.576-3.719-3.288c-1.13-1.072-2.229-2.176-3.332-3.277q-1.032-1.031-2.073-2.052c-.157-.153-.4.088-.241.241" transform="translate(-86.152 -84.03)" fill="#b56012"/>
            <path id="Trazado_824914" data-name="Trazado 824914" d="M32.845,144.381l-8.221,5.936-2.343,1.692c-.176.127-.006.423.173.294l8.221-5.936,2.342-1.692c.176-.127.006-.423-.172-.294" transform="translate(-12.991 -84.443)" fill="#b56012"/>
            <path id="Trazado_824915" data-name="Trazado 824915" d="M17.2,150.65a5.767,5.767,0,0,0,.012,3.943,5.721,5.721,0,0,0,4.251,3.593c.214.042.306-.287.09-.329a5.458,5.458,0,0,1-2.976-1.666,5.306,5.306,0,0,1-1.374-3.356,5.426,5.426,0,0,1,.325-2.095c.075-.206-.254-.3-.329-.09" transform="translate(-9.86 -88.06)" fill="#b56012"/>
            <path id="Trazado_824916" data-name="Trazado 824916" d="M173.106,135.95a11.956,11.956,0,0,1-.225,6.652,11.619,11.619,0,0,1-.739,1.758c-.1.194.193.366.294.172a12.23,12.23,0,0,0,1-8.672.171.171,0,0,0-.329.09" transform="translate(-100.688 -79.405)" fill="#b56012"/>
          </g>
        </g>
        <g id="Grupo_1074883" data-name="Grupo 1074883" transform="translate(22.772 26.396)">
          <g id="Grupo_1074882" data-name="Grupo 1074882" clip-path="url(#clip-path-4)">
            <path id="Trazado_824917" data-name="Trazado 824917" d="M107.028,114.025,105,111.582a1.73,1.73,0,0,0-.5-.46,1.849,1.849,0,0,0-.962-.106,14.19,14.19,0,0,1-5.02-.619c-1.442-.449-3.074-1.73-2.513-3.131,2.569-.378,5.147,2.612,7.431,1.376-1.494-1.261-3.4-1.909-5.1-2.87s-3.33-2.448-3.541-4.391c1.279-.345,2.5.614,3.524,1.46s2.394,1.685,3.584,1.1A27.445,27.445,0,0,1,95.575,97.2a1.208,1.208,0,0,1,1.739-1.625,10.215,10.215,0,0,1,.926.819c1.127,1.117,2.331,2.414,3.915,2.5L97.6,93.221c-1.067-1.329-2.179-2.765-2.207-4.5a.756.756,0,0,1,.335-.647c.473-.305.935.127,1.247.511l6.079,7.474a20.621,20.621,0,0,1-1.03-5.777c-.015-.447.01-.96.452-1.191a.875.875,0,0,1,.868.059,2.195,2.195,0,0,1,.819,1.53,33.547,33.547,0,0,1,.722,8.3l1.645-5.874a.963.963,0,0,1,.681-.687c.805-.2,1.149.86,1.154,1.636a28.094,28.094,0,0,1-1.251,8.445l1.757-3.238c.2-.365.445-.77.906-.763a.811.811,0,0,1,.68.427,2.048,2.048,0,0,1,.008,1.6,34.806,34.806,0,0,1-2.206,5.844c.245-1.091.561-2.295,1.7-2.745a1.29,1.29,0,0,1,1.56.456,1.345,1.345,0,0,1-.131,1.483,8.647,8.647,0,0,1-2.685,2.9A5.205,5.205,0,0,0,107.4,109.5a2.092,2.092,0,0,0,1.018,3.122,1.71,1.71,0,0,1-.79,1.079Z" transform="translate(-78.229 -77.855)" fill="#fff"/>
            <path id="Trazado_824918" data-name="Trazado 824918" d="M136.577,81.163c1.193,1.306.911,3.366.318,5.033s-1.437,3.374-1.129,5.115a1.068,1.068,0,0,0,.234.563c.505.531,1.34-.144,1.738-.76l1.553-2.4c.615.948.252,2.206-.2,3.24A4.941,4.941,0,0,0,138.4,95.2a.564.564,0,0,0,.2.331c.248.161.559-.072.754-.294a14.135,14.135,0,0,0,2.612-4.344c-.2,1.076-.7,2.073-.954,3.135a3.386,3.386,0,0,0,.53,3.1,1.028,1.028,0,0,0,1.838-.136c.831-1.6-.27-3.725.6-5.31a3.085,3.085,0,0,0,3.131,1.96,1.339,1.339,0,0,0,.9-.393c.6-.7-.2-1.708-.93-2.267l-2.246-1.716a1.556,1.556,0,0,0,2.307-1.01,2.125,2.125,0,0,0-.86-1.83,11.493,11.493,0,0,0-1.816-1.072,9.247,9.247,0,0,1-4.19-5.027Z" transform="translate(-102.155 -73.386)" fill="#fff"/>
            <path id="Trazado_824919" data-name="Trazado 824919" d="M54.742,105.051a20.508,20.508,0,0,0,6.2-5.811,4.874,4.874,0,0,1,1.131-1.307,1.437,1.437,0,0,1,1.626-.1c.856.637.291,1.985-.331,2.852l-2.72,3.794a2.741,2.741,0,0,0,2.753-.357,4.628,4.628,0,0,1,2.691-1c.342.039.723.231.765.573a.9.9,0,0,1-.2.577,5.892,5.892,0,0,1-2.886,2.292.791.791,0,0,0-.411.248.6.6,0,0,0-.045.472c.176.737.867,1.217,1.287,1.848s.36,1.75-.389,1.862a1.388,1.388,0,0,1-.99-.393,16.608,16.608,0,0,1-2.356-2.207,6.093,6.093,0,0,0,.542,2.881,6.764,6.764,0,0,1,.686,1.668,1.333,1.333,0,0,1-.715,1.5c-.861.292-1.566-.707-1.93-1.539l-1.6-3.65A6.375,6.375,0,0,0,57,111.195a3.14,3.14,0,0,1-1.161,1.728A1.3,1.3,0,0,1,54,112.53c-.355-.8.452-1.651.439-2.524a2.271,2.271,0,0,0-1.457-1.8,9.014,9.014,0,0,1-2.155-1.115,2.594,2.594,0,0,1-.808-2.367Z" transform="translate(-52.01 -83.506)" fill="#fff"/>
            <path id="Trazado_824920" data-name="Trazado 824920" d="M100.3,68.529a17.7,17.7,0,0,0-4.879,3.525.686.686,0,0,0-.27.569c.044.207.262.325.464.388,1.5.47,3.009-.519,4.4-1.238.334-.172.786-.315,1.047-.044a.737.737,0,0,1,.171.395,9.684,9.684,0,0,1-.132,1.938c-.019.65.3,1.419.945,1.5,1.076.139,1.807-1.7,2.812-1.3.486.2.619.805.889,1.255a2.013,2.013,0,0,0,3.394-.247,3.4,3.4,0,0,0,.051-1.951,14.606,14.606,0,0,0-1.295-3.79Z" transform="translate(-78.429 -66.485)" fill="#fff"/>
          </g>
        </g>
        <g id="Grupo_1074891" data-name="Grupo 1074891">
          <g id="Grupo_1074890" data-name="Grupo 1074890" clip-path="url(#clip-path)">
            <path id="Trazado_824922" data-name="Trazado 824922" d="M137.932,49.119a15.266,15.266,0,0,1,4.688,3.255,15.825,15.825,0,0,1,3.2,4.707,14.91,14.91,0,0,1,.971,3.072c.043.215.371.124.328-.09a15.521,15.521,0,0,0-2.2-5.362,16.184,16.184,0,0,0-3.975-4.225,15.08,15.08,0,0,0-2.842-1.651c-.2-.088-.372.205-.172.294" transform="translate(-80.636 -28.553)" fill="#b56012"/>
            <path id="Trazado_824923" data-name="Trazado 824923" d="M142.49,56.974a11.388,11.388,0,0,1,3.414,4.037,11.087,11.087,0,0,1,.586,1.385c.071.206.4.117.329-.09a11.653,11.653,0,0,0-4.157-5.626c-.177-.129-.347.166-.172.294" transform="translate(-83.312 -33.138)" fill="#b56012"/>
            <path id="Trazado_824924" data-name="Trazado 824924" d="M52.243,56.144c-1.4,2.7-1.214,5.86-.695,8.764A28.4,28.4,0,0,0,54.172,73.1a16.914,16.914,0,0,0,2.77,3.9c.152.158.393-.083.241-.241A18.874,18.874,0,0,1,53.037,69.5a33.5,33.5,0,0,1-1.046-4.068,22.761,22.761,0,0,1-.489-4.389,10.261,10.261,0,0,1,1.034-4.728c.1-.194-.193-.367-.294-.172" transform="translate(-29.93 -32.794)" fill="#b56012"/>
            <path id="Trazado_824925" data-name="Trazado 824925" d="M77.32,167.438l-1.037,1.7c-.115.188.18.359.294.172l1.037-1.7c.115-.188-.18-.359-.294-.172" transform="translate(-44.609 -97.902)" fill="#b56012"/>
            <path id="Trazado_824926" data-name="Trazado 824926" d="M80.957,168.7l-.542.96a.17.17,0,1,0,.294.172l.542-.961a.17.17,0,0,0-.294-.172" transform="translate(-47.029 -98.641)" fill="#b56012"/>
            <path id="Trazado_824927" data-name="Trazado 824927" d="M33.691,103.3l-.288.976a.172.172,0,0,0,.119.209.174.174,0,0,0,.21-.119l.288-.976a.17.17,0,0,0-.329-.09" transform="translate(-19.537 -60.356)" fill="#b56012"/>
            <path id="Trazado_824928" data-name="Trazado 824928" d="M37.324,104.447a.755.755,0,0,0-.3.974.171.171,0,0,0,.233.061.175.175,0,0,0,.061-.233s-.015-.034,0-.007,0,0,0-.007-.01-.031-.014-.047,0-.033-.009-.048c.012.041,0,.024,0,.006a.147.147,0,0,1,0-.019c0-.033,0-.065,0-.1,0,.047,0,.022,0,.007s0-.013,0-.02.009-.035.014-.052,0-.016.008-.023.014-.034,0-.007,0,0,0-.007l.011-.022c.008-.015.016-.029.025-.042l.013-.021s.022-.029,0-.006,0,0,0-.005l.016-.018c.011-.012.023-.023.035-.034a.083.083,0,0,0,.018-.016c-.006.01-.031.022-.007.006s.03-.02.046-.029a.172.172,0,0,0,.061-.233.174.174,0,0,0-.233-.061" transform="translate(-21.617 -61.087)" fill="#b56012"/>
            <path id="Trazado_824929" data-name="Trazado 824929" d="M41.217,103.542l-.032,1.233a.17.17,0,0,0,.341,0l.032-1.233a.17.17,0,0,0-.341,0" transform="translate(-24.093 -60.471)" fill="#b56012"/>
            <path id="Trazado_824930" data-name="Trazado 824930" d="M96.2,44.28l-.484,1.482a.17.17,0,1,0,.328.09q.243-.741.485-1.482a.17.17,0,1,0-.329-.09" transform="translate(-55.991 -25.83)" fill="#b56012"/>
            <path id="Trazado_824931" data-name="Trazado 824931" d="M101.259,45.542l-.261.486a.17.17,0,0,0,.294.172l.261-.486a.17.17,0,0,0-.294-.172" transform="translate(-59.07 -26.593)" fill="#b56012"/>
            <path id="Trazado_824932" data-name="Trazado 824932" d="M106.664,43.93a1.778,1.778,0,0,0-.287,1.354.172.172,0,0,0,.21.119.174.174,0,0,0,.119-.21,1.453,1.453,0,0,1,.012-.558,1.433,1.433,0,0,1,.24-.534.171.171,0,0,0-.061-.233.174.174,0,0,0-.233.061" transform="translate(-62.211 -25.649)" fill="#b56012"/>
            <path id="Trazado_824933" data-name="Trazado 824933" d="M68.641,124.234A84.181,84.181,0,0,0,85.1,132.305q2.427.878,4.905,1.6a.171.171,0,0,0,.09-.329,83.572,83.572,0,0,1-16.84-7.013q-2.26-1.246-4.441-2.629c-.186-.118-.356.177-.172.294" transform="translate(-40.108 -72.487)" fill="#386b84"/>
            <path id="Trazado_824934" data-name="Trazado 824934" d="M105.016,94.053a17.519,17.519,0,0,1,3.118,5.267,56.626,56.626,0,0,0,2.512,5.689,13.21,13.21,0,0,0,2.026,2.784c.153.158.394-.083.241-.241a16.741,16.741,0,0,1-3.174-5.216c-.813-1.907-1.5-3.876-2.495-5.7a13.7,13.7,0,0,0-1.987-2.822c-.149-.161-.39.081-.241.241" transform="translate(-61.405 -54.848)" fill="#386b84"/>
            <path id="Trazado_824935" data-name="Trazado 824935" d="M111.913,94.651q1.315,2.468,2.59,4.957t2.505,5q.7,1.424,1.383,2.854c.095.2.388.025.294-.172q-1.208-2.522-2.457-5.024t-2.542-4.981q-.733-1.407-1.479-2.806c-.1-.194-.4-.022-.294.172" transform="translate(-65.455 -55.219)" fill="#386b84"/>
            <path id="Trazado_824936" data-name="Trazado 824936" d="M141.353,109.873a18.236,18.236,0,0,0-4.368,5.964c-1.142,2.259-2.1,4.615-3.4,6.793a16.552,16.552,0,0,1-2.541,3.328c-.156.154.085.4.241.241a22.085,22.085,0,0,0,4.106-6.254,56.769,56.769,0,0,1,3.468-6.714,14.208,14.208,0,0,1,2.732-3.117c.168-.141-.073-.381-.241-.241" transform="translate(-76.631 -64.25)" fill="#386b84"/>
            <path id="Trazado_824937" data-name="Trazado 824937" d="M85.27,217.086c.887,3.357,1.326,7.169,2.213,10.526.059.222.57,0,.725.17a1.443,1.443,0,0,0,.669.343l2.566.783c.413.126.981.189,1.163-.2a.914.914,0,0,0,.035-.484q-.665-6.067-1.33-12.134a.655.655,0,0,0-.828-.757l-4.123.318Z" transform="translate(-49.882 -125.96)" fill="#6da8c6"/>
            <path id="Trazado_824938" data-name="Trazado 824938" d="M77.61,237.905a15.665,15.665,0,0,1,3.436,1.916c.476.351,1.125.738,1.6.391.143-.1.246-.264.408-.334.462-.2.824.434.927.927a40.852,40.852,0,0,1,.674,4.5,1.708,1.708,0,0,1-.137,1.068,1.836,1.836,0,0,1-1.231.632,19.065,19.065,0,0,0-4.351,1.574,19.214,19.214,0,0,1-2.664,1.265,10.1,10.1,0,0,1-4.782.134,2.839,2.839,0,0,1-2.175-1.156,1.957,1.957,0,0,1,.207-1.949,4.7,4.7,0,0,1,1.549-1.329c1.759-1.06,3.838-1.924,4.765-3.757.63-1.244.647-2.818,1.618-3.819Z" transform="translate(-40.448 -139.171)"/>
            <path id="Trazado_824939" data-name="Trazado 824939" d="M96.649,222.65l.938,7.022a.176.176,0,0,0,.171.17.171.171,0,0,0,.17-.17l-.938-7.022a.177.177,0,0,0-.171-.171.171.171,0,0,0-.17.171" transform="translate(-56.538 -130.147)" fill="#1b4b5e"/>
            <path id="Trazado_824940" data-name="Trazado 824940" d="M93.538,224.024a33.747,33.747,0,0,1,.9,6.619c.008.219.349.22.341,0a34.221,34.221,0,0,0-.913-6.71c-.051-.213-.38-.123-.329.09" transform="translate(-54.716 -130.927)" fill="#1b4b5e"/>
            <path id="Trazado_824941" data-name="Trazado 824941" d="M88.323,223.54a23.067,23.067,0,0,1,.806,5.344c.007.219.348.22.341,0a23.5,23.5,0,0,0-.818-5.434.171.171,0,0,0-.329.09" transform="translate(-51.664 -130.645)" fill="#1b4b5e"/>
            <path id="Trazado_824942" data-name="Trazado 824942" d="M84.87,255.421a11.445,11.445,0,0,0-3.287.847c-1.017.421-1.988.94-2.971,1.43a15.9,15.9,0,0,1-2.934,1.2,7.768,7.768,0,0,1-2.752.261,4.6,4.6,0,0,1-2.717-1.148c-.161-.149-.4.091-.241.241a5.893,5.893,0,0,0,5.215,1.112c2.134-.424,3.994-1.643,5.949-2.532a11.777,11.777,0,0,1,3.738-1.071c.216-.021.219-.361,0-.341" transform="translate(-40.899 -149.417)" fill="#e2d5b7"/>
            <path id="Trazado_824943" data-name="Trazado 824943" d="M75.466,255.61a4.268,4.268,0,0,1,1.5,3.442c-.011.219.33.218.341,0a4.588,4.588,0,0,0-1.6-3.683c-.166-.141-.408.1-.24.241" transform="translate(-44.113 -149.363)" fill="#e2d5b7"/>
            <path id="Trazado_824944" data-name="Trazado 824944" d="M102.744,249.461a3.96,3.96,0,0,0-1.973,2.695c-.041.215.287.306.328.091a3.633,3.633,0,0,1,1.817-2.491c.193-.105.021-.4-.172-.294" transform="translate(-58.948 -145.918)" fill="#e2d5b7"/>
            <path id="Trazado_824945" data-name="Trazado 824945" d="M83.87,249.549a6.353,6.353,0,0,0-2.2-2.86l-.131.311a5.172,5.172,0,0,1,3.084,1.878c.121.154.363-.044.267-.207a10.049,10.049,0,0,0-2.583-2.908l-.086.318c1.291-.059,2.27,1.016,3.047,1.908.133.153.351-.041.268-.206a6.224,6.224,0,0,0-3-2.865q-.02.156-.041.311c1.355-.28,2.612.648,3.584,1.474.166.141.408-.1.241-.241-1.077-.915-2.423-1.87-3.916-1.562a.172.172,0,0,0-.041.311,5.939,5.939,0,0,1,2.881,2.743l.268-.207c-.839-.963-1.9-2.071-3.288-2.008a.172.172,0,0,0-.086.317,9.623,9.623,0,0,1,2.461,2.786l.268-.207a5.457,5.457,0,0,0-3.234-1.965.171.171,0,0,0-.131.312,5.947,5.947,0,0,1,2.043,2.657c.078.2.408.115.329-.09" transform="translate(-47.629 -143.229)" fill="#e2d5b7"/>
            <path id="Trazado_824946" data-name="Trazado 824946" d="M95.506,242.313a1.3,1.3,0,0,1-1.068.474,2.465,2.465,0,0,1-1.323-.457c-.861-.552-1.6-1.386-2.659-1.539-.215-.031-.307.3-.091.329,1.663.24,2.628,2.306,4.451,1.972a1.541,1.541,0,0,0,.983-.606c.129-.177-.166-.347-.294-.172" transform="translate(-52.791 -140.858)" fill="#e2d5b7"/>
            <path id="Trazado_824947" data-name="Trazado 824947" d="M28.215,218.25c1.991,2.845,3.719,6.27,5.711,9.115.132.188.535-.2.739-.091a1.437,1.437,0,0,0,.747.091l2.679-.15c.431-.024.986-.161,1.021-.591a.911.911,0,0,0-.134-.467L33.54,215.228c-.115-.231-.262-.488-.515-.541a.867.867,0,0,0-.523.116l-3.76,1.722Z" transform="translate(-16.505 -125.583)" fill="#6da8c6"/>
            <path id="Trazado_824948" data-name="Trazado 824948" d="M32.13,238.806a15.687,15.687,0,0,1,3.887.612c.568.165,1.311.3,1.64-.187a2.406,2.406,0,0,1,.268-.454c.365-.347.923.123,1.19.55a40.784,40.784,0,0,1,2.186,3.991,1.708,1.708,0,0,1,.24,1.05c-.1.464-.54.759-.937,1.018a19.089,19.089,0,0,0-3.54,2.979A19.179,19.179,0,0,1,35,250.471a10.1,10.1,0,0,1-4.442,1.776,2.84,2.84,0,0,1-2.44-.335,1.957,1.957,0,0,1-.478-1.9,4.705,4.705,0,0,1,1-1.782c1.285-1.6,2.937-3.131,3.175-5.171.161-1.385-.366-2.869.2-4.143Z" transform="translate(-16.13 -139.611)"/>
            <path id="Trazado_824949" data-name="Trazado 824949" d="M40.041,222.175l3.3,6.267c.1.193.4.022.294-.173L40.335,222c-.1-.195-.4-.022-.294.171" transform="translate(-23.411 -129.819)" fill="#1b4b5e"/>
            <path id="Trazado_824950" data-name="Trazado 824950" d="M37.56,224.5a33.752,33.752,0,0,1,3.134,5.9c.082.2.412.112.329-.09a34.2,34.2,0,0,0-2.358-4.7q-.391-.648-.811-1.279c-.121-.182-.416-.012-.294.172" transform="translate(-21.955 -131.186)" fill="#1b4b5e"/>
            <path id="Trazado_824951" data-name="Trazado 824951" d="M32.5,225.852a23.082,23.082,0,0,1,2.605,4.737c.081.2.411.113.328-.09a23.427,23.427,0,0,0-2.639-4.818c-.126-.177-.422-.007-.294.172" transform="translate(-18.991 -131.977)" fill="#1b4b5e"/>
            <path id="Trazado_824952" data-name="Trazado 824952" d="M41.492,249.8a11.323,11.323,0,0,0-2.663,1.821c-.781.705-1.486,1.489-2.2,2.257a18.328,18.328,0,0,1-2.283,2.165,8.01,8.01,0,0,1-2.586,1.332,4.7,4.7,0,0,1-3.13-.106.171.171,0,0,0-.21.119.175.175,0,0,0,.119.21,6.03,6.03,0,0,0,5.547-.955c1.776-1.187,3.064-2.941,4.588-4.409a11.557,11.557,0,0,1,2.993-2.141c.2-.1.025-.389-.172-.294" transform="translate(-16.62 -146.118)" fill="#e2d5b7"/>
            <path id="Trazado_824953" data-name="Trazado 824953" d="M31.564,260.385a4.247,4.247,0,0,1,2.566,2.689c.065.209.394.12.329-.09a4.609,4.609,0,0,0-2.8-2.927c-.206-.075-.3.254-.09.329" transform="translate(-18.396 -152.123)" fill="#e2d5b7"/>
            <path id="Trazado_824954" data-name="Trazado 824954" d="M56.2,244.267a3.983,3.983,0,0,0-.928,3.254c.035.216.364.124.329-.09a3.614,3.614,0,0,1,.84-2.922c.144-.165-.1-.407-.241-.241" transform="translate(-32.306 -142.861)" fill="#e2d5b7"/>
            <path id="Trazado_824955" data-name="Trazado 824955" d="M38.182,250.849a6.309,6.309,0,0,0-3.019-1.9v.328a5.138,5.138,0,0,1,3.5.7c.161.1.358-.142.206-.267a10.054,10.054,0,0,0-3.425-1.845v.328c1.2-.5,2.475.156,3.517.728.165.091.352-.132.206-.267a6.267,6.267,0,0,0-3.85-1.666q.044.158.086.317c1.193-.742,2.7-.3,3.912.148.206.076.3-.254.09-.329-1.307-.48-2.9-.907-4.175-.113a.172.172,0,0,0,.086.317,5.9,5.9,0,0,1,3.609,1.566l.206-.268c-1.117-.613-2.5-1.3-3.78-.762a.172.172,0,0,0,0,.328,9.632,9.632,0,0,1,3.274,1.758l.207-.268a5.5,5.5,0,0,0-3.76-.73c-.173.028-.151.286,0,.328a5.986,5.986,0,0,1,2.868,1.814c.145.164.386-.077.241-.242" transform="translate(-20.446 -144.238)" fill="#e2d5b7"/>
            <path id="Trazado_824956" data-name="Trazado 824956" d="M45.741,240.346a1.285,1.285,0,0,1-.78.805,2.372,2.372,0,0,1-1.412.062c-1.033-.221-2.024-.761-3.107-.532-.215.045-.124.374.09.329a5.552,5.552,0,0,1,2.586.448,2.794,2.794,0,0,0,2.278-.15,1.541,1.541,0,0,0,.674-.871.171.171,0,0,0-.329-.09" transform="translate(-23.586 -140.529)" fill="#e2d5b7"/>
            <path id="Trazado_824957" data-name="Trazado 824957" d="M24.216,134.009q-7.915.762-15.768,2.051c-3.006.493-6.476,1.407-7.638,4.223-.876,2.122-.066,4.528.774,6.664,3.929,10,6.722,19.98,11.937,29.372.236.425,7.471-.213,8.871-1.111-2.376-7.569-6.2-17.672-6.88-25.577l14.421-1.838c.336,8.525,3.91,19.284,6.144,27.518,1.316.415,6.521.221,7.883,0,1.858-7.748-.712-15.355-.145-23.3a5.163,5.163,0,0,1,.742-2.8,5.059,5.059,0,0,1,1.837-1.315l3.2-1.626a3.1,3.1,0,0,0,1.378-1.075,2.85,2.85,0,0,0,.286-1.317,18.484,18.484,0,0,0-3.217-11.156Z" transform="translate(-0.253 -77.636)" fill="#f59f18"/>
            <path id="Trazado_824958" data-name="Trazado 824958" d="M29.441,47.816a13.628,13.628,0,0,1-4.218,3.928A10.044,10.044,0,0,0,20.9,56.623c-.746,2.45-1.97,11.517-1.686,11.639,1.7.727,8.025.391,9.8.919a8.775,8.775,0,0,1,4.6,4.99,27.008,27.008,0,0,1,.572,5.874c4.155.141,8.182,2.494,12.269,1.729,1.194-.224,2.332-.709,3.536-.875,3.675-.506,7.45,2.009,10.98.868-2.319-4.737-2.442-10.213-3.748-15.324-1.147-4.49-3.234-8.812-3.367-13.444l4.025.593c.012-.01,2.75-6.123,2.564-9.721-3.287-2.726-9.1-5.219-13.267-4.286-1.326.3-4.168.259-5.437.745l-2.255.862a28.238,28.238,0,0,0-9.934,6.462Z" transform="translate(-11.217 -23.04)" fill="#32485e"/>
            <path id="Trazado_824959" data-name="Trazado 824959" d="M7.439,18.179a1.886,1.886,0,0,1-2.308-.273,1.885,1.885,0,0,1-.172-2.318c.2.983-1.115,1.713-2.061,1.375a4.322,4.322,0,0,1-2.02-2.146,1.072,1.072,0,0,1-.194-.954c.147-.305.758-.233.686.1A3.215,3.215,0,0,1,.262,10.072a3.214,3.214,0,0,1,3.67-1.7,2.885,2.885,0,0,1,.052-3.757A2.885,2.885,0,0,1,7.73,4.333,2.6,2.6,0,0,1,8.754.834a2.6,2.6,0,0,1,3.424,1.253A2.254,2.254,0,0,1,14.591.012a2.254,2.254,0,0,1,1.87,2.575,3.03,3.03,0,0,1,3.592,2.936,2.62,2.62,0,0,1,2.041,3.35,1.918,1.918,0,0,1,.653,3.01,2.152,2.152,0,0,1-.516,3.584c.173-.273.637-.186.806.089a1.115,1.115,0,0,1,.01.937,3.221,3.221,0,0,1-4.141,1.824.68.68,0,0,1,.9.535,1.308,1.308,0,0,1-.436,1.092,2.626,2.626,0,0,1-3.74-.164,2.379,2.379,0,0,1-4.322,1.368.856.856,0,0,1-.154-.882c.156-.274.691-.236.695.08s-.651.075-.4-.114Z" transform="translate(0 0)"/>
            <path id="Trazado_824960" data-name="Trazado 824960" d="M20.025,21.6c1.107,1.393,3.485,5.362,3.6,5.248.729-.714,2.086-1.4,2.964-.878a2.275,2.275,0,0,1,1.318,2.415c-.215.776-1.3,2.015-1.979,1.574a76.4,76.4,0,0,0,6.709,5.664c-.339,2.409-5.933,6.246-6.213,6.087-1.4-.8-2.32-2.9-3.608-3.871L20.5,39.049a2.709,2.709,0,0,1-1.791.451,2.286,2.286,0,0,1-1.03-.645,24.363,24.363,0,0,1-2.625-4.487l-3.644.29,3.086-2.12S13.426,30,12.584,28.17Z" transform="translate(-6.676 -12.637)" fill="#cc7748"/>
            <path id="Trazado_824961" data-name="Trazado 824961" d="M19.634,19.747A2.481,2.481,0,0,1,16.3,17.4a1.2,1.2,0,0,1-1.676-1.622,1.881,1.881,0,0,1-1.9,1.99,2.96,2.96,0,0,1-3.137,2.758A1.215,1.215,0,0,1,8.9,22.17a2.413,2.413,0,0,1-1.953-.249c-.25-.13-.523-.348-.481-.627s.6-.237.495.023a3.323,3.323,0,0,1-2.423-1.361A1.564,1.564,0,0,1,4.5,17.93c.561-.484,1.421-.2,2.1.106a3.885,3.885,0,0,1,.069-3.32,2.031,2.031,0,0,1,2.933-.65,7.36,7.36,0,0,1,.511-2.535A2.824,2.824,0,0,1,11.98,9.866a1.776,1.776,0,0,1,2.069,1.129,2.077,2.077,0,1,1,3.867,1.519c.585-.63,2.863-1.1,3.347-.385s-.693,2.392-.952,3.211c.486-.288,1.061.242,1.275.764a2.953,2.953,0,0,1-.225,2.759,2.227,2.227,0,0,1-2.536.852Z" transform="translate(-2.423 -5.654)"/>
            <g id="Grupo_1074886" data-name="Grupo 1074886" transform="translate(16.141 22.26)" opacity="0.52">
              <g id="Grupo_1074885" data-name="Grupo 1074885">
                <g id="Grupo_1074884" data-name="Grupo 1074884" clip-path="url(#clip-path-6)">
                  <path id="Trazado_824962" data-name="Trazado 824962" d="M38.894,56.581l3.492-2.944-1.929,4.544Z" transform="translate(-38.894 -53.636)" fill="#561e1c"/>
                </g>
              </g>
            </g>
            <path id="Trazado_824963" data-name="Trazado 824963" d="M43.83,36.185l1.108-1.554a.172.172,0,0,0-.061-.233.174.174,0,0,0-.233.061l-1.108,1.554a.171.171,0,0,0,.061.233.174.174,0,0,0,.233-.061" transform="translate(-25.453 -20.109)" fill="#561e1c"/>
            <path id="Trazado_824964" data-name="Trazado 824964" d="M45.486,37.045l.63.463a.171.171,0,0,0,.25-.193.2.2,0,0,0-.078-.1l-.63-.463a.17.17,0,0,0-.131-.017.174.174,0,0,0-.1.078.172.172,0,0,0-.017.132.2.2,0,0,0,.078.1" transform="translate(-26.559 -21.485)" fill="#561e1c"/>
            <path id="Trazado_824965" data-name="Trazado 824965" d="M24.733,53.871a2.1,2.1,0,0,1,1.694-1.45.176.176,0,0,0,.171-.171.171.171,0,0,0-.171-.17,2.454,2.454,0,0,0-2.023,1.7.171.171,0,0,0,.329.09" transform="translate(-14.272 -30.465)" fill="#561e1c"/>
            <path id="Trazado_824966" data-name="Trazado 824966" d="M24.612,43.712a.818.818,0,0,1-.4,1.054c-.353.1-.746-.222-.878-.708a.819.819,0,0,1,.4-1.054c.354-.1.747.222.878.708" transform="translate(-13.624 -25.146)"/>
            <path id="Trazado_824967" data-name="Trazado 824967" d="M19.581,37.662a.73.73,0,0,1,.094-.085,2.648,2.648,0,0,1,3.4.172,4.827,4.827,0,0,0-1.07.068,1.664,1.664,0,0,0-.926.506c-.164.19-.268.429-.449.6a.964.964,0,0,1-1.027.183c-.021-.009-.042-.02-.062-.03a.763.763,0,0,1-.168-1.2Z" transform="translate(-11.206 -21.669)"/>
            <path id="Trazado_824968" data-name="Trazado 824968" d="M46.363,123.4c-.208-.321-.622-.28-.973-.245a7.129,7.129,0,0,1-4.283-.936,13.734,13.734,0,0,0-1.878-1.1,11.873,11.873,0,0,0-2.314-.448c-2.345-.408-3.619-2.893-5.586-4.233.19-2.573-.393-4.034-.2-6.607l-7.447-.675c.056,2.669.288,5.6.374,8.179a9.5,9.5,0,0,0,.6,3.59,6.725,6.725,0,0,0,3.311,3.128,28.006,28.006,0,0,0,4.4,1.483,2.3,2.3,0,0,1,1.149.6,2.524,2.524,0,0,1,.413.892,17.2,17.2,0,0,0,3.227,5.81,2.771,2.771,0,0,0,1.031.826.4.4,0,0,0,.516-.47q-.482-1.91-1.1-3.782l2.489,3.883a2.547,2.547,0,0,0,.487.57.4.4,0,0,0,.626-.445q-.949-2.524-1.939-5.032l3.23,5.224a.693.693,0,0,0,.54.339c.7.04.65-1.012.351-1.617l-2.282-4.616a32.938,32.938,0,0,0,3.285,3.936.441.441,0,0,0,.753-.365,2.942,2.942,0,0,0-.269-.8l-2.872-5.922a9.856,9.856,0,0,0,3.269.025,1.484,1.484,0,0,0,1.071-.526.614.614,0,0,0,.033-.674" transform="translate(-13.851 -63.859)" fill="#cc7748"/>
            <path id="Trazado_824969" data-name="Trazado 824969" d="M124.388,54.625a3.831,3.831,0,0,0-2.079-1.108c-2.866-.817-5.609-2.727-8.5-3.435l-2.634,8.971a21.4,21.4,0,0,1,3.865.767c-.716,2.741-2.481,9.91-2.481,9.91a20.419,20.419,0,0,1-2.044,2.953l.748,3.556a10.681,10.681,0,0,1-.4,3.509,8.641,8.641,0,0,0-.549,3.152.771.771,0,0,0,1.475.268,16.5,16.5,0,0,0,.758-2.423c2.314-8.59,8.1-14.245,11.678-22.389.527-1.2.968-2.7.164-3.73" transform="translate(-64.526 -29.297)" fill="#cc7748"/>
            <path id="Trazado_824970" data-name="Trazado 824970" d="M48.135,141.593l1.639-2.615c.117-.186-.178-.358-.294-.172l-1.639,2.615c-.117.186.178.357.294.172" transform="translate(-27.971 -81.153)" fill="#561e1c"/>
            <path id="Trazado_824971" data-name="Trazado 824971" d="M112.853,110.369a9.557,9.557,0,0,1,1.624-3.44c.131-.176-.165-.346-.294-.172a9.813,9.813,0,0,0-1.658,3.522c-.052.213.276.3.329.09" transform="translate(-65.822 -62.409)" fill="#561e1c"/>
            <path id="Trazado_824972" data-name="Trazado 824972" d="M122.29,71.31a12.768,12.768,0,0,0,3.873-1.5.171.171,0,0,0-.172-.294,12.471,12.471,0,0,1-3.792,1.463c-.215.045-.124.374.09.329" transform="translate(-71.413 -40.653)" fill="#561e1c"/>
            <path id="Trazado_824973" data-name="Trazado 824973" d="M54.793,154.826l5.43-3.054a.17.17,0,0,0-.172-.294l-5.43,3.054a.17.17,0,0,0,.172.294" transform="translate(-31.904 -88.599)" fill="#561e1c"/>
            <path id="Trazado_824974" data-name="Trazado 824974" d="M85.58,227.883a14.679,14.679,0,0,0,6.245.095,14.412,14.412,0,0,0,1.71-.458c.207-.069.118-.4-.09-.329a14.343,14.343,0,0,1-6.048.659,13.909,13.909,0,0,1-1.726-.3c-.213-.05-.3.278-.09.329" transform="translate(-49.992 -132.898)" fill="#b77115"/>
            <path id="Trazado_824975" data-name="Trazado 824975" d="M29.194,227.367a26,26,0,0,0,6.314-.81q.875-.224,1.732-.51c.207-.069.118-.4-.09-.329a25.617,25.617,0,0,1-6.178,1.239q-.887.065-1.777.069a.17.17,0,0,0,0,.341" transform="translate(-16.982 -132.037)" fill="#b77115"/>
            <path id="Trazado_824976" data-name="Trazado 824976" d="M105.74,143.339a3.947,3.947,0,0,0,3.69,2.18c.218-.012.22-.353,0-.341a3.613,3.613,0,0,1-3.4-2.011c-.1-.2-.39-.025-.294.172" transform="translate(-61.846 -83.7)" fill="#b77115"/>
            <path id="Trazado_824977" data-name="Trazado 824977" d="M104.517,143.528a5.338,5.338,0,0,1-.7,2.993,5.21,5.21,0,0,1-.953,1.211,11.042,11.042,0,0,1-1.416,1.045,8.06,8.06,0,0,0-2.243,2.215,10.115,10.115,0,0,0-1.287,2.867,27.448,27.448,0,0,0-.62,7.488q0,3.944.167,7.886t.484,7.873q.039.479.081.957c.019.217.36.219.341,0q-.34-3.929-.523-7.87-.181-3.923-.205-7.851c-.008-1.3-.015-2.6.022-3.892a20.39,20.39,0,0,1,.4-3.768,8.76,8.76,0,0,1,3.253-5.4c.469-.333.961-.632,1.414-.988a5.519,5.519,0,0,0,1.089-1.144,5.708,5.708,0,0,0,1.032-2.865,5.378,5.378,0,0,0,0-.754c-.014-.218-.355-.219-.341,0" transform="translate(-56.919 -83.866)" fill="#b77115"/>
            <path id="Trazado_824978" data-name="Trazado 824978" d="M95.614,167.931a25.451,25.451,0,0,0,4.355,1.923c.209.07.3-.259.091-.329a24.957,24.957,0,0,1-4.274-1.888c-.191-.107-.364.187-.172.294" transform="translate(-55.884 -98.052)" fill="#b77115"/>
            <path id="Trazado_824979" data-name="Trazado 824979" d="M97.338,172.15l2.431.826c.208.071.3-.258.09-.329l-2.431-.826c-.208-.071-.3.259-.09.329" transform="translate(-56.873 -100.507)" fill="#b77115"/>
            <path id="Trazado_824980" data-name="Trazado 824980" d="M34.343,157.252a31.054,31.054,0,0,0-7.043,1.623,5.5,5.5,0,0,0-2.431,1.457,3.664,3.664,0,0,0-.649,2.927c.073.559.2,1.109.317,1.659q.2.909.4,1.817.41,1.828.849,3.65.875,3.63,1.865,7.231t2.093,7.168q.136.438.273.875c.065.208.394.12.328-.09q-1.1-3.5-2.083-7.026t-1.858-7.06q-.873-3.545-1.637-7.115a5.457,5.457,0,0,1-.058-3.12,3.569,3.569,0,0,1,2.062-1.8,22.48,22.48,0,0,1,3.2-1.039,31.131,31.131,0,0,1,3.5-.7c.289-.041.578-.077.868-.11.215-.024.218-.365,0-.341" transform="translate(-14.137 -91.99)" fill="#b77115"/>
            <path id="Trazado_824981" data-name="Trazado 824981" d="M22.959,163.987q2.953,1.4,5.81,3c.191.107.364-.187.172-.294q-2.854-1.6-5.81-3c-.2-.094-.37.2-.172.294" transform="translate(-13.38 -95.747)" fill="#b77115"/>
            <path id="Trazado_824982" data-name="Trazado 824982" d="M29.732,164.2a22.8,22.8,0,0,1,2.925,2.588c.152.159.393-.082.241-.241A23.309,23.309,0,0,0,29.9,163.9c-.176-.131-.346.165-.172.294" transform="translate(-17.35 -95.862)" fill="#b77115"/>
            <path id="Trazado_824983" data-name="Trazado 824983" d="M77.112,144.476l-2.561,4.867c-.1.194.192.366.294.172l2.561-4.867c.1-.194-.192-.366-.294-.172" transform="translate(-43.599 -84.467)" fill="#b77115"/>
            <path id="Trazado_824984" data-name="Trazado 824984" d="M76.228,147.93a1.642,1.642,0,0,0,.411,1.044.171.171,0,0,0,.241,0,.174.174,0,0,0,0-.241l-.04-.047c-.012-.015-.012-.016,0,0l-.018-.024c-.024-.033-.046-.068-.068-.1s-.041-.071-.059-.108l-.026-.056c.015.033-.007-.017-.009-.023a1.411,1.411,0,0,1-.067-.228c0-.02-.008-.04-.011-.06s0-.02,0-.03c0,.02,0,.02,0,0,0-.041-.007-.081-.008-.122a.17.17,0,1,0-.341,0" transform="translate(-44.592 -86.438)" fill="#b77115"/>
            <path id="Trazado_824985" data-name="Trazado 824985" d="M17.665,106.281c4.167-.045,7.852-.078,11.819,1.2a13.763,13.763,0,0,0-1.335-1.72,2.737,2.737,0,0,0-.557-.5,3.008,3.008,0,0,0-1.1-.341c-3.076-.525-5.6-.933-8.711-1.221Z" transform="translate(-10.334 -60.663)" fill="#132330"/>
            <path id="Trazado_824986" data-name="Trazado 824986" d="M111.876,46.432q-1.134,5.466-1.909,11a.56.56,0,0,0,.078.474.554.554,0,0,0,.33.125l1.268.184q1.64-5.222,3.061-10.509Z" transform="translate(-64.32 -27.162)" fill="#132330"/>
            <path id="Trazado_824987" data-name="Trazado 824987" d="M35.911,94.543q-1.68-2.193-3.177-4.519a51.867,51.867,0,0,1-2.746-4.7,11.984,11.984,0,0,1-1.049-2.815c-.046-.214-.375-.124-.328.09a17.456,17.456,0,0,0,2.175,4.888q1.388,2.4,2.973,4.687.9,1.294,1.857,2.544c.132.172.427,0,.294-.172" transform="translate(-16.735 -48.193)" fill="#132330"/>
            <path id="Trazado_824988" data-name="Trazado 824988" d="M27.647,85.129A2.5,2.5,0,0,0,28.73,86.16a.17.17,0,0,0,.172-.294,2.336,2.336,0,0,1-.305-.178l-.065-.047s-.042-.032-.017-.012l-.031-.025c-.046-.037-.09-.076-.133-.117a2.382,2.382,0,0,1-.232-.256c.015.019,0,0-.007-.01l-.024-.032q-.028-.039-.055-.08-.048-.074-.091-.151a.172.172,0,0,0-.233-.061.174.174,0,0,0-.061.233" transform="translate(-16.16 -49.649)" fill="#132330"/>
            <path id="Trazado_824989" data-name="Trazado 824989" d="M82.728,46.514A20.492,20.492,0,0,0,84.96,51.4a20.82,20.82,0,0,0,3.415,4.15,20.427,20.427,0,0,0,2.378,1.911c.181.125.352-.171.172-.294A20.178,20.178,0,0,1,87,53.623a20.51,20.51,0,0,1-2.865-4.418,19.866,19.866,0,0,1-1.082-2.781c-.064-.209-.393-.12-.329.09" transform="translate(-48.39 -27.088)" fill="#132330"/>
            <path id="Trazado_824990" data-name="Trazado 824990" d="M81.382,48.825a1.076,1.076,0,0,1,.363.263c.123.124.233.26.344.394a2.2,2.2,0,0,0,.75.679.176.176,0,0,0,.233-.061.171.171,0,0,0-.061-.233,1.081,1.081,0,0,1-.363-.263c-.123-.124-.233-.26-.344-.394a2.193,2.193,0,0,0-.75-.679.176.176,0,0,0-.233.061.172.172,0,0,0,.061.233" transform="translate(-47.559 -28.378)" fill="#132330"/>
            <path id="Trazado_824991" data-name="Trazado 824991" d="M55.985,107.838c2.816-.728,5.423-2.064,8.2-2.908a18.243,18.243,0,0,1,2.4-.567c.216-.035.124-.363-.091-.329-2.877.464-5.518,1.75-8.237,2.732-.777.281-1.563.536-2.364.743a.171.171,0,0,0,.09.329" transform="translate(-32.626 -60.857)" fill="#132330"/>
            <path id="Trazado_824992" data-name="Trazado 824992" d="M60.771,111.726q3.263-1.551,6.666-2.779.961-.346,1.931-.665c.207-.068.118-.4-.09-.328q-3.461,1.14-6.8,2.616-.946.418-1.88.862c-.2.095-.025.388.172.294" transform="translate(-35.399 -63.146)" fill="#132330"/>
            <path id="Trazado_824993" data-name="Trazado 824993" d="M62.923,134l3.7,1.091,1.836.542a9.419,9.419,0,0,0,1.787.407A4.148,4.148,0,0,0,72,135.773a7.76,7.76,0,0,1,1.721-.436,14.246,14.246,0,0,1,3.617.241l4.278.647c.215.032.307-.3.091-.329l-3.806-.576a20.112,20.112,0,0,0-3.628-.361,6.606,6.606,0,0,0-1.78.286,7.369,7.369,0,0,1-1.691.463,5.337,5.337,0,0,1-1.81-.274c-.609-.173-1.216-.357-1.824-.537l-4.158-1.227a.171.171,0,0,0-.09.329" transform="translate(-36.739 -78.191)" fill="#132330"/>
            <path id="Trazado_824994" data-name="Trazado 824994" d="M43.526,59.616a1,1,0,0,0,.569,1.133,2.667,2.667,0,0,0,1.46.159,6.143,6.143,0,0,0,2.692-1.06,16.531,16.531,0,0,0,2.327-1.962,7.746,7.746,0,0,0,1.938-2.508,2.191,2.191,0,0,0,.061-1.663,1.49,1.49,0,0,0-1.061-.92c-.214-.039-.306.289-.09.329a1.16,1.16,0,0,1,.833.706,1.789,1.789,0,0,1-.009,1.292,6.368,6.368,0,0,1-1.7,2.314,10.444,10.444,0,0,1-4.356,3.008,4,4,0,0,1-1.466.134c-.427-.049-1.022-.344-.871-.872a.171.171,0,0,0-.329-.09" transform="translate(-25.443 -30.883)" fill="#132330"/>
            <path id="Trazado_824995" data-name="Trazado 824995" d="M115.26,101a8.192,8.192,0,0,0,1.924,1.637c.187.115.359-.18.172-.294a7.885,7.885,0,0,1-1.854-1.584c-.143-.166-.383.076-.241.241" transform="translate(-67.4 -58.91)" fill="#561e1c"/>
            <path id="Trazado_824996" data-name="Trazado 824996" d="M36.16,125.244l-3.912,1.367c-.205.072-.117.4.091.329l3.911-1.367c.206-.072.117-.4-.09-.329" transform="translate(-18.797 -73.26)" fill="#561e1c"/>
            <g id="Grupo_1074889" data-name="Grupo 1074889" transform="translate(38.574 36.486)" opacity="0.63">
              <g id="Grupo_1074888" data-name="Grupo 1074888">
                <g id="Grupo_1074887" data-name="Grupo 1074887" clip-path="url(#clip-path-7)">
                  <path id="Trazado_824997" data-name="Trazado 824997" d="M116.343,99.613a11.7,11.7,0,1,1-11.7-11.7,11.7,11.7,0,0,1,11.7,11.7" transform="translate(-92.946 -87.915)" fill="#dc4345"/>
                  <path id="Trazado_824998" data-name="Trazado 824998" d="M117.809,104.657a8.121,8.121,0,1,1-8.121-8.121,8.12,8.12,0,0,1,8.121,8.121" transform="translate(-97.99 -92.958)" fill="#8e292e"/>
                </g>
              </g>
            </g>
          </g>
        </g>
      </g>
    </g>
  </g>
</svg>
