<svg xmlns="http://www.w3.org/2000/svg" xmlns:xlink="http://www.w3.org/1999/xlink" width="169" height="169" viewBox="0 0 169 169">
  <defs>
    <clipPath id="clip-path">
      <rect id="Rect치ngulo_378582" data-name="Rect치ngulo 378582" width="86.477" height="124.834" fill="none"/>
    </clipPath>
  </defs>
  <g id="Grupo_1075146" data-name="Grupo 1075146" transform="translate(-719 -2877.524)">
    <g id="Grupo_1073327" data-name="Grupo 1073327" transform="translate(334 819.524)">
      <g id="Grupo_159182" data-name="Grupo 159182" transform="translate(385.001 2058)">
        <path id="Uni칩n_12" data-name="Uni칩n 12" d="M84.5,0A84.5,84.5,0,1,1,0,84.5,84.5,84.5,0,0,1,84.5,0Z" transform="translate(0 0)" fill="#ffae7e"/>
      </g>
    </g>
    <g id="Grupo_1075158" data-name="Grupo 1075158" transform="translate(760.262 2892.896)">
      <g id="Grupo_1075157" data-name="Grupo 1075157" clip-path="url(#clip-path)">
        <path id="Trazado_825772" data-name="Trazado 825772" d="M18.151,62.914a1.842,1.842,0,0,0,1.691.625q19.034-.025,38.069-.013c.265,0,.529-.006.794-.01.876-.229,1.013-.434,1.13-1.689a15.538,15.538,0,0,1,3.58-3.386A10.157,10.157,0,0,1,65.7,57.18c.189.19.221.043.248-.115a6.849,6.849,0,0,1,2.072-.753c.021.155.076.285.265.232s.227-.206.214-.38l.628-.173c.014.078.026.171.128.166s.106-.1.117-.177c.385-.2.83-.076,1.222-.232.019.094.042.188.16.2.151.014.188-.09.207-.209a15.023,15.023,0,0,1,7.213,1.088c.09.248.194.46.5.215a13.664,13.664,0,0,1,3.4,2.083,15.838,15.838,0,0,1,3.6,3.953c.128.2.231.423.345.635-.015.192-.05.4.235.42a2.363,2.363,0,0,1-1.361,3.813,6.531,6.531,0,0,1-1.826.317c-.215-.276-.632-.439-.472-.962-.587.709-1.4.166-2.036.451.126.425.78.117.8.631h-3.3a.851.851,0,0,0-.022-.116c-.2-.574-.508-.778-1.07-.579-.506.18.181.468-.009.706a7.178,7.178,0,0,1-1.835.223,3.194,3.194,0,0,0-2.739,2.067,6.346,6.346,0,0,0-.068,1.376c-.187.18-.049.217.109.245a3.4,3.4,0,0,0,2.661,1.71c.256.049.514.09.771.135.012.078.02.171.118.174s.113-.088.126-.165a5.675,5.675,0,0,0,1.619.092c1.843.006,3.687-.026,5.525.127.187.015.406-.081.565.1.1.477.307.513.605.139A2.556,2.556,0,0,1,86.638,76.3a2.624,2.624,0,0,1-.222,2.039,15.734,15.734,0,0,1-8.362,7.615l-.621.248-.114.1c-.662.139-1.33.253-1.983.426a4.184,4.184,0,0,1-.83.091c-.079-.564-.5-.7-.969-.73-.546-.032-1.1.029-1.644-.018a1.822,1.822,0,0,0-1.566.815,15.684,15.684,0,0,1-11.386-7.309,3.813,3.813,0,0,1-.214-.429c-.012-.089,0-.207-.127-.2-.04,0-.074.106-.112.163-.244.007-.488.019-.732.019q-13.5,0-27.006,0c-.453,0-.907-.012-1.361-.019-.016-.148-.064-.3-.23-.3-.208,0-.246.164-.25.335l.009-.005c-.166,0-.284.081-.246.251.074.325.378.282.614.341a12.289,12.289,0,0,1,1.646,1.611c.8.794,1.611,1.585,2.371,2.418,3.3,3.616,6.728,7.109,10.144,10.615-.188.728-.188.728.627.721L54.1,105.543c-.005.138-.017.277-.014.416s-.011.291.171.335a.286.286,0,0,0,.362-.22,1.279,1.279,0,0,0,1.035.38c3.144-.009,6.289.005,9.433.012.034.17.088.282.25.088a1.648,1.648,0,0,1,1.745,1.4,7.545,7.545,0,0,1,.208,1.529q-.005,20.605-.005,41.21a2.3,2.3,0,0,1-1.559,2.5,1.735,1.735,0,0,1-.528.066q-21.274.007-42.547,0a2.115,2.115,0,0,1-2.31-2.306q-.006-21.215,0-42.429a2.129,2.129,0,0,1,2.3-2.079c1.121-.017,2.241,0,3.362-.006a1.577,1.577,0,0,0,.648-.093c.383-.162.5-.407.21-.709-1.686-1.779-3.133-3.754-4.689-5.64-3.247-3.935-6.5-7.867-9.7-11.842-1.272-1.58-2.564-3.146-3.81-4.748a18.335,18.335,0,0,0-3.76-3.75A10.037,10.037,0,0,1,.886,72.89,13.08,13.08,0,0,1,.8,70.6c.362.036.51-.211.562-.491a.827.827,0,0,0-.326-.972,6.385,6.385,0,0,1,.729-2.195c.47-.035.642-.212.3-.632l.2-.343c.369,0,.687-.041.311-.5l.157-.229c.158-.026.365.074.449-.144.051-.134-.059-.2-.166-.258a10.618,10.618,0,0,1,6.628-4.013,11,11,0,0,1,5.975.669,19.621,19.621,0,0,1,2.4,1.342l.129.087m-5.533,19.4.012.016c-.023.426.032.787.6.711,2.489,2.872,4.8,5.888,7.229,8.808-.019.28.022.507.392.45,1.437,1.737,2.88,3.47,4.309,5.215,1.213,1.482,2.4,2.981,3.613,4.466,1.024,1.257,2.095,2.477,3.076,3.765a1.752,1.752,0,0,0,1.6.721c5.112-.027,10.225-.014,15.337-.014h.7l.152-.252-2.885-2.679a.537.537,0,0,0-.592-.611c-3.107-3.087-6.078-6.3-9.07-9.5a1.286,1.286,0,0,0-1.3-1.347c-.745-.756-1.5-1.508-2.233-2.272-1.19-1.232-2.37-2.473-3.554-3.71l-.107-.112-1.727-1.95c.026-.347-.134-.513-.484-.491a1.42,1.42,0,0,1-.494-.485c.027-.27-.094-.393-.366-.367a.916.916,0,0,0-.952-.986l-.016-.017c.007-.289-.045-.519-.423-.445-.642-.647-1.278-1.3-1.932-1.936-.086-.084-.111-.267-.31-.237-1.37.2-2.75.015-4.123.1l-.19.092-.1.064c-.062-.115-.176-.213-.277-.119-.136.126.018.187.119.241A11.859,11.859,0,0,1,13.25,81.9c-.14-.326-.251-.133-.365.02l-.121.028c-.232-.2-.22,0-.236.146a.054.054,0,0,1,0,.065c.032.05.063.1.094.152M5.564,68.044c-.1.2-.184.4-.3.594a4.8,4.8,0,0,0-.637,2.734,7.4,7.4,0,0,0,1.087,3.473c-.059.044-.148.083-.094.175s.165.065.257.056a6.444,6.444,0,0,0,5.611,3.071,7.532,7.532,0,0,0,3.326-.855c.143.056.214.347.438.135.147-.139.259-.279-.008-.411a11.446,11.446,0,0,0,1.69-1.589A6.8,6.8,0,1,0,5.786,67.67c-.258.016-.518.032-.222.374m63.314,5.725c.125-.019.25-.055.217-.213-.039-.189-.21-.138-.341-.152a3.028,3.028,0,0,1-.331-1.342c.255,0,.521-.1.433-.364-.172-.518.084-1,.03-1.5-.028-.269-.026-.53-.271-.707q.087-.239.172-.48c.315-.022.494-.1.159-.388a2.912,2.912,0,0,1,.66-1.079c.425.061.554-.143.48-.531a4.748,4.748,0,0,1,1.7-1.237c.032.076.08.16.169.129.117-.04.09-.164.1-.261l.482-.183c.178.2.221.064.25-.1a3.51,3.51,0,0,1,.329-.145,21.7,21.7,0,0,1,7.495-.782c0,.261.1.424.384.431a.521.521,0,0,0,.6-.468.206.206,0,0,1,.108-.023,1.228,1.228,0,0,0,.193.029c.043-.139-.075-.123-.155-.145a8.227,8.227,0,0,0-1.159-1.317A11.186,11.186,0,0,0,74.5,59.847l-.124-.1a2.822,2.822,0,0,0-1.3-.194A9.9,9.9,0,0,0,71,59.437c-.719.109-1.4.359-2.117.434-.63-.4-.781-.341-.842.3l-.51.18c-.082-.156-.2-.274-.386-.207-.249.089-.224.305-.206.51l-1.56.936a1.4,1.4,0,0,0-1.4,1.176l-.748.751c-.684-.009-.834.426-.831.991a13.533,13.533,0,0,0-1.973,7.429c-.107.02-.281-.041-.285.119s.173.1.278.125a2.694,2.694,0,0,1,.148,1.209c-.292.364-.291.636.235.742l.745,2.058c-.146.283-.215.527.254.5A13.381,13.381,0,0,0,65.1,80.579a2.907,2.907,0,0,0,.015.48c.034.178.1.364.328.379s.467.079.513-.254a12.908,12.908,0,0,0,7.083,1.846c.173.759.524.973,1.1.581a.51.51,0,0,1-.486-.68l1.222-.234c.047.379.366.437.644.538.159.057.358.269.482.091.157-.225-.157-.256-.271-.364a.57.57,0,0,1-.243-.4l.366-.119c.069.322.335.6.58.42.337-.246.963-.207.969-.83,0-.041-.081-.082-.124-.123l.755-.412c.216.653.72.392,1.24.4-.365-.472-.3-.712.262-.727.73-.02,1.111-.53,1.59-1.006.617-.614,1.219-1.081.759-2.075-.115-.248.463-.587.205-.921s-.673.057-1.036-.062a24.418,24.418,0,0,0-3.663-.418,1.261,1.261,0,0,0-.65.133c-.086.032-.2.111-.214.185-.029.164.141.159.247.2a2.376,2.376,0,0,0,1.654.034,1.194,1.194,0,0,1,1.577.8,21.988,21.988,0,0,1-5.268-.345c.031-.094.066-.186.093-.282.062-.213.572-.264.318-.518-.232-.234-.491.1-.7.271-.136.11-.323.183-.317.406a3.272,3.272,0,0,1-1.344-.379c-.01-.35-.206-.205-.372-.139a5.4,5.4,0,0,1-3.534-3.3M56.553,72.306c.342.042.571-.1.577-.449a11.238,11.238,0,0,0,.121-2.218c-.085-.467.064-1.028-.421-1.38a2.053,2.053,0,0,0,.055-.824c.1-.074.135-.175,0-.222-.169-.062-.323-.025-.355.2-1.344.007-2.689.019-4.033.02q-15.129,0-30.258,0c-.726,0-.877.2-.506.807a3.028,3.028,0,0,1,.4,1.4,11.813,11.813,0,0,1-.448,4.97c-.2.515-.075.637.474.635,4.421-.021,8.843-.012,13.265-.012q10.514,0,21.028.008c.483,0,.661-.077.507-.6a14.275,14.275,0,0,1-.287-1.6c.138-.011.322.017.32-.184s-.186-.171-.324-.181l-.119-.365m-32.3,57.518c0,6.3.009,12.6-.015,18.9,0,.553.151.654.672.653q18.89-.023,37.78,0c.539,0,.7-.111.7-.683q-.028-18.837,0-37.675c0-.57-.162-.684-.7-.683q-18.89.024-37.779,0c-.52,0-.675.1-.673.652.023,6.279.015,12.558.015,18.838M77.61,75.495c.212-.022.415-.03.612-.07.054-.012.1-.111.125-.18.008-.024-.065-.108-.107-.112-.787-.076-1.444-.9-2.341-.4-.146.081-.441.047-.448.225-.009.241.267.371.473.373a10.955,10.955,0,0,1,1.685.161m-10.981,7.4a4.965,4.965,0,0,0,1.747.742c.113.007.258.045.314-.1.045-.119-.058-.181-.142-.234-.587-.37-1.288-.225-1.919-.406m5.356.519c-.152.045-.583-.141-.569.21.014.37.4.165.64.147.142-.01.285,0,.427-.008.1,0,.225.011.24-.122.018-.154-.107-.21-.23-.224a4.927,4.927,0,0,0-.508,0m2.935-8.339c-.2-.053-.276-.067-.349-.093-.134-.048-.262-.109-.4-.155s-.414-.137-.314.1c.115.274.49.307.8.29.048,0,.094-.05.257-.143m-4.686,8.794c.247-.013.427.1.558-.1a.132.132,0,0,0-.065-.2c-.192-.058-.342.014-.493.3m-1.129,1.959c-.218-.141-.385-.15-.533-.021-.056.049-.057.177.023.2.178.055.332-.025.509-.181m4.033-9.2c-.007-.1-.073-.15-.154-.115a.259.259,0,0,0-.135.166c-.018.1.077.121.158.114s.124-.081.131-.165m5.32-8.734c.1,0,.158-.04.139-.105a.158.158,0,0,0-.127-.085c-.04,0-.076.067-.114.1l.1.086m-12.442,14.5-.1-.043c-.014.034-.047.074-.038.1s.061.031.094.045c.015-.033.029-.066.043-.1" transform="translate(-0.404 -28.436)" fill="#403f40"/>
        <path id="Trazado_825773" data-name="Trazado 825773" d="M164.073,161.426c.138.623-.305,1.058-.738,1.443q-3.078,2.738-6.2,5.423c-.337.289-.38.392,0,.673,1.042.771,1.969,1.681,2.949,2.526,1.012.873,2.023,1.75,3.048,2.609a2.158,2.158,0,0,1,.838,1.534,2.086,2.086,0,0,1-.923,1.813q-2.34,2.052-4.691,4.091c-.429.374-.844.766-1.294,1.112-.282.217-.177.316.029.494,1.924,1.661,3.836,3.337,5.76,5,1.616,1.4,1.63,2.39.026,3.785-1.949,1.695-3.9,3.393-5.86,5.072-.336.287.006.32.11.411,1.984,1.748,3.978,3.485,5.962,5.231a2.084,2.084,0,0,1,.765,1.131,1.823,1.823,0,0,1-.651,1.98,1.724,1.724,0,0,1-2.131.1,13.181,13.181,0,0,1-1.134-.925q-3.222-2.8-6.437-5.616c-.275-.241-.547-.488-.8-.75a1.8,1.8,0,0,1,.063-2.828c1.251-1.132,2.533-2.232,3.8-3.343.735-.643,1.457-1.3,2.218-1.912.407-.326.42-.527.015-.873-1.808-1.547-3.593-3.121-5.386-4.686-.215-.187-.432-.372-.636-.57a1.818,1.818,0,0,1,0-2.918c1.348-1.217,2.727-2.4,4.123-3.564.689-.574,1.349-1.2,2.016-1.8a.4.4,0,0,0-.027-.675c-.706-.6-1.423-1.18-2.118-1.788-1.419-1.242-2.853-2.47-4.231-3.758a1.574,1.574,0,0,1-.1-2.369,15.421,15.421,0,0,1,2.021-1.85q3.143-2.757,6.3-5.491a1.858,1.858,0,0,1,1.983-.549,1.764,1.764,0,0,1,1.331,1.847" transform="translate(-77.622 -81.466)" fill="#414141"/>
        <path id="Trazado_825774" data-name="Trazado 825774" d="M9.659,206.168a4.162,4.162,0,0,1-1.31-.933c-2.181-1.918-4.377-3.82-6.564-5.731-.227-.2-.495-.332-.727-.527a2.374,2.374,0,0,1-.9-2.464l.091-.112.123-.249c.6.015.881-.272.848-.868a25.758,25.758,0,0,1,2.72-2.3c.275.013.368-.133.337-.386a.4.4,0,0,1,.252-.23c.586.2.825-.016.727-.619.517-.375.863-.96,1.485-1.206.5-.028.51-.041.338-.376.079-.171-.04-.292-.107-.425a.26.26,0,0,0-.078-.052,22.965,22.965,0,0,1-2.133-1.935c.039-.325-.127-.418-.419-.368l-.553-.38-.1-.124-1.006-.958c0-.112.038-.246-.078-.317-.082-.05-.136.031-.178.1a16.015,16.015,0,0,1-1.9-1.7,1.2,1.2,0,0,1-.326-.642c.232-.169.232-.3-.061-.386a1.278,1.278,0,0,1,.25-1.092c.382.021.356-.244.349-.5l1.222-1.1a.338.338,0,0,0,.369-.328c.944-.73,1.786-1.576,2.749-2.294.633-.472,1.212-1.052,1.808-1.591.39-.353.185-.6-.138-.88q-2.875-2.467-5.728-4.961a2.247,2.247,0,0,1-.991-2.138c.27-.027.2-.249.239-.411a5.432,5.432,0,0,1,1.207-1.33c.844-.74,1.718-1.443,2.58-2.163l.106-.128c1.463-1.455,3.208-2.586,4.649-4.068a1.952,1.952,0,0,1,2.536-.221,1.8,1.8,0,0,1,.617,2.3,5.618,5.618,0,0,1-1.461,1.53q-2.671,2.354-5.371,4.676c-.263.227-.208.352.036.557,1.1.926,2.187,1.873,3.278,2.813l.133.093c.589.5,1.062,1.11,1.705,1.558a9.657,9.657,0,0,1,1.348,1.232,1.866,1.866,0,0,1,.336,1.6c-.156.03-.284.071-.1.243a2.137,2.137,0,0,1-.709.954q-2.845,2.515-5.709,5.008a3.756,3.756,0,0,1-.4.268c-.2.018-.424-.091-.59.111.113.165.265.106.4.122q3,2.614,6,5.229a7.068,7.068,0,0,1,.7.668,1.667,1.667,0,0,1,.078,2.4c-.2.012-.444-.079-.557.174-.065.147.076.188.181.231l-5.975,5.207c-.19-.011-.38-.022-.388.249,0,.072,0,.145,0,.217.041.212-.084.616.385.33q2.277,1.972,4.552,3.946a17.55,17.55,0,0,1,1.907,1.759,1.756,1.756,0,0,1,.207,2.009,1.688,1.688,0,0,1-1.8.969c-.107-.379-.264-.454-.5-.083" transform="translate(0 -81.441)" fill="#403f40"/>
        <path id="Trazado_825775" data-name="Trazado 825775" d="M50.793,9.123A2.794,2.794,0,0,1,52,6.774c.664-.586,1.372-1.122,2.06-1.68l.128-.083.718-.52.138-.092.592-.4.141-.09,1.082-.642L57,3.183A26.827,26.827,0,0,1,64.266.55,30.831,30.831,0,0,1,68.99.018,21.834,21.834,0,0,1,72.835.3a20.343,20.343,0,0,1,3.053.632,21.2,21.2,0,0,1,3.847,1.379A34.369,34.369,0,0,1,84,4.677a23.885,23.885,0,0,1,3.477,3.046,1.538,1.538,0,0,1,.2,1.763c-.573.007-.789.311-.718.856a.749.749,0,0,1-.6.247c-.212-.074-.028-.461-.307-.436a.464.464,0,0,0-.449.477,1.838,1.838,0,0,1-1.052-.553,25.343,25.343,0,0,0-7.45-4.79,8.732,8.732,0,0,0-2.474-.669.794.794,0,0,1-.383-.15c-.122-.257.338-.677-.116-.779a.676.676,0,0,0-.862.555C72.114,4.125,70.96,4,69.8,3.89a20.969,20.969,0,0,0-3.153.147,16.03,16.03,0,0,0-4.277.945,21.137,21.137,0,0,0-7.915,4.791,2.5,2.5,0,0,1-1.9.939,1.472,1.472,0,0,1-.818-.291l-.125-.078c-.42-.25-.527-.705-.725-1.1l-.1-.119" transform="translate(-25.944 -0.001)" fill="#403f40"/>
        <path id="Trazado_825776" data-name="Trazado 825776" d="M64.883,19.294a9.587,9.587,0,0,1,1.574-1.012l.138-.084a17.181,17.181,0,0,1,6.344-2.014,17.286,17.286,0,0,1,14.262,4.6c.992.923,1.171,1.655.655,2.614-.094.024-.215.021-.276.08s.013.139.088.18a1.8,1.8,0,0,1-2.845.1,15.462,15.462,0,0,0-4.179-2.692,11.207,11.207,0,0,0-3.623-.973,16.584,16.584,0,0,0-2.107-.221,13.375,13.375,0,0,0-8.941,3.466,2.663,2.663,0,0,1-2.12,1.037,1.806,1.806,0,0,1-1.458-1,1.592,1.592,0,0,1,.059-1.8.782.782,0,0,0,.717-.871,11.191,11.191,0,0,1,1.581-1.325l.131-.085" transform="translate(-31.746 -8.184)" fill="#403f40"/>
        <path id="Trazado_825777" data-name="Trazado 825777" d="M80.655,32.076A9.491,9.491,0,0,1,87.777,34.8a1.79,1.79,0,0,1,.415,2.269,1.92,1.92,0,0,1-2.039.992,2.09,2.09,0,0,1-1.1-.622c-1.866-1.69-4.044-1.746-6.32-1.17a7.033,7.033,0,0,0-2.1,1.312,1.9,1.9,0,0,1-2.57-.007,2.047,2.047,0,0,1,.277-3.038,9.864,9.864,0,0,1,4.376-2.251,6.938,6.938,0,0,1,1.933-.214" transform="translate(-37.558 -16.382)" fill="#414141"/>
        <path id="Trazado_825778" data-name="Trazado 825778" d="M142.949,118.641a1.822,1.822,0,0,1,1.566-.815c.544.047,1.1-.014,1.644.018.466.027.89.166.969.73a3.66,3.66,0,0,1-1.375.218,12.608,12.608,0,0,1-2.8-.151" transform="translate(-73.026 -60.189)" fill="#414141"/>
        <path id="Trazado_825779" data-name="Trazado 825779" d="M164.657,80.538c-.017-.514-.67-.206-.8-.632.64-.285,1.448.258,2.036-.451-.16.522.256.686.472.962a4.761,4.761,0,0,1-1.712.12" transform="translate(-83.709 -40.59)" fill="#414141"/>
        <path id="Trazado_825780" data-name="Trazado 825780" d="M156.3,80.876c.189-.238-.5-.526.008-.706.562-.2.875,0,1.07.578a.832.832,0,0,1,.022.116l-1.1.011" transform="translate(-79.753 -40.917)" fill="#414141"/>
        <path id="Trazado_825781" data-name="Trazado 825781" d="M120.32,68.265c-.118,1.254-.255,1.459-1.131,1.689a6.71,6.71,0,0,1,1.131-1.689" transform="translate(-60.888 -34.873)" fill="#414141"/>
        <path id="Trazado_825782" data-name="Trazado 825782" d="M1.03,83.205a.828.828,0,0,1,.326.972c-.052.28-.2.527-.562.491a3.131,3.131,0,0,1,.236-1.464" transform="translate(-0.398 -42.505)" fill="#414141"/>
        <path id="Trazado_825783" data-name="Trazado 825783" d="M96.749,8.072a.677.677,0,0,1,.862-.555c.454.1-.006.521.116.779l-.978-.224" transform="translate(-49.424 -3.83)" fill="#414141"/>
        <path id="Trazado_825784" data-name="Trazado 825784" d="M1.618,232.738c.033.6-.251.883-.848.868.106-.461.565-.579.848-.868" transform="translate(-0.393 -118.895)" fill="#414141"/>
        <path id="Trazado_825785" data-name="Trazado 825785" d="M121.969,21.23a.464.464,0,0,1,.449-.477c.278-.025.094.362.307.436a.69.69,0,0,1-.756.041" transform="translate(-62.308 -10.601)" fill="#414141"/>
        <path id="Trazado_825786" data-name="Trazado 825786" d="M124.732,20.248c-.072-.544.144-.849.718-.856a1.34,1.34,0,0,1-.718.856" transform="translate(-63.713 -9.906)" fill="#414141"/>
        <path id="Trazado_825787" data-name="Trazado 825787" d="M88.517,135.534c-.815.006-.815.006-.627-.722.3.165.414.485.627.722" transform="translate(-44.846 -68.869)" fill="#414141"/>
        <path id="Trazado_825788" data-name="Trazado 825788" d="M10,225.519c.1.6-.141.814-.727.619l.727-.619" transform="translate(-4.735 -115.207)" fill="#414141"/>
        <path id="Trazado_825789" data-name="Trazado 825789" d="M63.5,25.6a.782.782,0,0,1-.717.871c.082-.419.438-.613.717-.871" transform="translate(-32.07 -13.076)" fill="#414141"/>
        <path id="Trazado_825790" data-name="Trazado 825790" d="M110.287,158.166a.285.285,0,0,1-.361.22c-.182-.044-.168-.2-.171-.335s.008-.277.013-.416a1.748,1.748,0,0,1,.519.53" transform="translate(-56.068 -80.529)" fill="#414141"/>
        <path id="Trazado_825791" data-name="Trazado 825791" d="M58.4,104.258c-.236-.06-.54-.017-.614-.341-.04-.17.078-.249.245-.251l.369.593" transform="translate(-29.515 -52.957)" fill="#414141"/>
        <path id="Trazado_825792" data-name="Trazado 825792" d="M3.086,77.426c.338.421.166.6-.3.632a1.541,1.541,0,0,1,.3-.632" transform="translate(-1.421 -39.553)" fill="#414141"/>
        <path id="Trazado_825793" data-name="Trazado 825793" d="M171.106,94.273c-.3.374-.5.338-.605-.138.2.035.427-.01.605.138" transform="translate(-87.101 -48.089)" fill="#414141"/>
        <path id="Trazado_825794" data-name="Trazado 825794" d="M4.115,75.695c.376.463.058.5-.311.5a1.17,1.17,0,0,1,.311-.5" transform="translate(-1.943 -38.669)" fill="#414141"/>
        <path id="Trazado_825795" data-name="Trazado 825795" d="M22.825,224.7c-.106-.043-.247-.084-.181-.23.113-.253.356-.162.557-.174a.92.92,0,0,1-.375.4" transform="translate(-11.559 -114.58)" fill="#414141"/>
        <path id="Trazado_825796" data-name="Trazado 825796" d="M138.708,56.689c.012.174-.026.328-.214.38s-.245-.077-.265-.232c.121-.174.321-.093.479-.147" transform="translate(-70.615 -28.96)" fill="#414141"/>
        <path id="Trazado_825797" data-name="Trazado 825797" d="M19.747,254.735c.232-.371.39-.3.5.083-.173.015-.353.076-.5-.083" transform="translate(-10.088 -130.008)" fill="#414141"/>
        <path id="Trazado_825798" data-name="Trazado 825798" d="M58.273,103.325c0-.171.042-.339.249-.335.167,0,.215.152.231.3l-.48.035" transform="translate(-29.769 -52.613)" fill="#414141"/>
        <path id="Trazado_825799" data-name="Trazado 825799" d="M5.044,74.4c.107.054.217.125.166.258-.084.218-.291.118-.449.145l.283-.4" transform="translate(-2.432 -38.009)" fill="#414141"/>
        <path id="Trazado_825800" data-name="Trazado 825800" d="M9.513,207.082c-.131-.017-.282.043-.4-.123.167-.2.393-.092.59-.11l-.194.233" transform="translate(-4.657 -105.662)" fill="#414141"/>
        <path id="Trazado_825801" data-name="Trazado 825801" d="M14.131,222.285c.171.335.159.347-.338.376l.338-.376" transform="translate(-7.046 -113.555)" fill="#414141"/>
        <path id="Trazado_825802" data-name="Trazado 825802" d="M10.407,237.059c-.47.286-.345-.118-.385-.33a.715.715,0,0,1,.385.33" transform="translate(-5.12 -120.933)" fill="#414141"/>
        <path id="Trazado_825803" data-name="Trazado 825803" d="M159.487,58.257c-.3.245-.408.032-.5-.215a.909.909,0,0,1,.5.215" transform="translate(-81.22 -29.651)" fill="#414141"/>
        <path id="Trazado_825804" data-name="Trazado 825804" d="M.291,176.331c-.035.163.031.384-.239.411.073-.141-.175-.468.239-.411" transform="translate(-0.022 -90.076)" fill="#414141"/>
        <path id="Trazado_825805" data-name="Trazado 825805" d="M1.148,204.344c.007.251.033.516-.349.5.13-.156.109-.417.349-.5" transform="translate(-0.408 -104.389)" fill="#414141"/>
        <path id="Trazado_825806" data-name="Trazado 825806" d="M4.379,201.431a.339.339,0,0,1-.369.329.31.31,0,0,1,.369-.329" transform="translate(-2.049 -102.901)" fill="#414141"/>
        <path id="Trazado_825807" data-name="Trazado 825807" d="M8.891,216.588c.292-.05.457.043.419.367a1.073,1.073,0,0,1-.419-.367" transform="translate(-4.542 -110.638)" fill="#414141"/>
        <path id="Trazado_825808" data-name="Trazado 825808" d="M8.4,227.256c.031.253-.062.4-.337.386a.709.709,0,0,1,.337-.386" transform="translate(-4.12 -116.094)" fill="#414141"/>
        <path id="Trazado_825809" data-name="Trazado 825809" d="M.273,207.589c.293.086.293.218.061.386a.445.445,0,0,1-.061-.386" transform="translate(-0.131 -106.047)" fill="#414141"/>
        <path id="Trazado_825810" data-name="Trazado 825810" d="M143.859,55.819c-.019.119-.056.223-.207.208-.118-.011-.141-.1-.16-.2l.367-.009" transform="translate(-73.303 -28.515)" fill="#414141"/>
        <path id="Trazado_825811" data-name="Trazado 825811" d="M175.248,72.541c-.286-.024-.251-.228-.236-.42a.68.68,0,0,1,.236.42" transform="translate(-89.4 -36.843)" fill="#414141"/>
        <path id="Trazado_825812" data-name="Trazado 825812" d="M4.975,213.044c.042-.067.1-.148.178-.1.116.072.075.2.078.317l-.256-.22" transform="translate(-2.541 -108.776)" fill="#414141"/>
        <path id="Trazado_825813" data-name="Trazado 825813" d="M114.2,31.368c-.074-.041-.154-.116-.088-.18s.182-.056.276-.08a.362.362,0,0,1-.189.26" transform="translate(-58.284 -15.892)" fill="#414141"/>
        <path id="Trazado_825814" data-name="Trazado 825814" d="M10.024,236.021c.008-.271.2-.26.388-.249a.46.46,0,0,1-.388.249" transform="translate(-5.121 -120.442)" fill="#414141"/>
        <path id="Trazado_825815" data-name="Trazado 825815" d="M118.745,103.432c.037-.057.072-.161.112-.163.128-.006.115.112.127.2l-.239-.037" transform="translate(-60.661 -52.755)" fill="#414141"/>
        <path id="Trazado_825816" data-name="Trazado 825816" d="M147.014,89.43c-.158-.028-.3-.065-.109-.246.112.049.119.143.109.246" transform="translate(-75.001 -45.56)" fill="#414141"/>
        <path id="Trazado_825817" data-name="Trazado 825817" d="M132.493,159.591c-.162.195-.216.082-.25-.088.1-.022.2-.047.25.088" transform="translate(-67.557 -81.474)" fill="#414141"/>
        <path id="Trazado_825818" data-name="Trazado 825818" d="M140.737,56.312c-.012.078-.019.172-.117.177s-.113-.087-.127-.165l.245-.012" transform="translate(-71.771 -28.767)" fill="#414141"/>
        <path id="Trazado_825819" data-name="Trazado 825819" d="M154.485,93.468c-.014.078-.026.169-.126.165s-.107-.1-.118-.174l.245.009" transform="translate(-78.794 -47.744)" fill="#414141"/>
        <path id="Trazado_825820" data-name="Trazado 825820" d="M133.736,58.528c-.026.158-.058.305-.248.115a.252.252,0,0,1,.248-.115" transform="translate(-68.193 -29.899)" fill="#414141"/>
        <path id="Trazado_825821" data-name="Trazado 825821" d="M24.165,193.873c-.18-.172-.052-.213.1-.243a.2.2,0,0,1-.1.243" transform="translate(-12.3 -98.916)" fill="#414141"/>
        <path id="Trazado_825822" data-name="Trazado 825822" d="M17.4,184.543l-.133-.093c.084-.025.112.028.133.093" transform="translate(-8.821 -94.223)" fill="#414141"/>
        <path id="Trazado_825823" data-name="Trazado 825823" d="M8.4,168.937l-.106.128c-.011-.081.036-.114.106-.128" transform="translate(-4.234 -86.302)" fill="#414141"/>
        <path id="Trazado_825824" data-name="Trazado 825824" d="M57.614,10.232l-.128.083c.021-.061.044-.118.128-.083" transform="translate(-29.367 -5.221)" fill="#414141"/>
        <path id="Trazado_825825" data-name="Trazado 825825" d="M50.8,18.649l.1.119c-.072-.007-.118-.036-.1-.119" transform="translate(-25.948 -9.527)" fill="#414141"/>
        <path id="Trazado_825826" data-name="Trazado 825826" d="M71.1,20.459l-.138.084c.027-.059.047-.129.138-.084" transform="translate(-36.251 -10.444)" fill="#414141"/>
        <path id="Trazado_825827" data-name="Trazado 825827" d="M7.55,215.57l.1.124c-.069-.012-.116-.043-.1-.124" transform="translate(-3.855 -110.124)" fill="#414141"/>
        <path id="Trazado_825828" data-name="Trazado 825828" d="M52.489,21.143l.125.078c-.084.042-.1-.019-.125-.078" transform="translate(-26.814 -10.801)" fill="#414141"/>
        <path id="Trazado_825829" data-name="Trazado 825829" d="M14.1,221.309a.259.259,0,0,1,.077.052c-.071.051-.1.037-.077-.052" transform="translate(-7.199 -113.056)" fill="#414141"/>
        <path id="Trazado_825830" data-name="Trazado 825830" d="M67.607,22.7l-.131.085c.023-.059.045-.121.131-.085" transform="translate(-34.47 -11.592)" fill="#414141"/>
        <path id="Trazado_825831" data-name="Trazado 825831" d="M63.349,6.494l-.14.088c.027-.06.05-.128.14-.088" transform="translate(-32.29 -3.312)" fill="#414141"/>
        <path id="Trazado_825832" data-name="Trazado 825832" d="M59.353,8.982l-.138.092c.026-.061.05-.124.138-.092" transform="translate(-30.25 -4.584)" fill="#414141"/>
        <path id="Trazado_825833" data-name="Trazado 825833" d="M.413,235.02l-.091.113c-.029-.086.02-.109.091-.113" transform="translate(-0.16 -120.06)" fill="#414141"/>
        <path id="Trazado_825834" data-name="Trazado 825834" d="M60.85,7.987l-.141.09c.027-.061.05-.128.141-.09" transform="translate(-31.013 -4.075)" fill="#414141"/>
        <path id="Trazado_825835" data-name="Trazado 825835" d="M36.146,70.386l-.128-.086c.083-.031.108.024.128.086" transform="translate(-18.4 -35.908)" fill="#414141"/>
        <path id="Trazado_825836" data-name="Trazado 825836" d="M157.244,118.2l.114-.1c0,.074-.031.118-.114.1" transform="translate(-80.328 -60.331)" fill="#414141"/>
        <path id="Trazado_825837" data-name="Trazado 825837" d="M48.741,186.922c0-6.279.008-12.558-.015-18.837,0-.555.153-.653.673-.652q18.89.023,37.78,0c.54,0,.7.113.7.684q-.027,18.837,0,37.674c0,.572-.163.684-.7.683q-18.89-.023-37.78,0c-.521,0-.674-.1-.672-.654.023-6.3.015-12.6.015-18.9" transform="translate(-24.892 -85.533)" fill="#e0dfe0"/>
        <path id="Trazado_825838" data-name="Trazado 825838" d="M24.777,106.576a.054.054,0,0,0,0-.065c.09-.028.2-.029.236-.145l.121-.029.364-.02a11.842,11.842,0,0,0,5.366-2.47l.158-.121.1-.065.19-.092c1.373-.086,2.752.1,4.123-.1.2-.028.223.153.31.237.653.635,1.29,1.288,1.931,1.936l.424.445.016.017a5.951,5.951,0,0,0,.952.986.828.828,0,0,0,.366.367,1.411,1.411,0,0,0,.494.485,1.473,1.473,0,0,0,.484.492l1.728,1.949c-.009.08.03.114.107.112,1.184,1.237,2.365,2.478,3.555,3.71.737.764,1.488,1.515,2.232,2.272a10.632,10.632,0,0,0,1.3,1.347c2.993,3.2,5.963,6.413,9.07,9.5a2.1,2.1,0,0,0,.592.611l2.885,2.679c-.05.084-.1.168-.152.252h-.7c-5.112,0-10.224-.012-15.337.014a1.753,1.753,0,0,1-1.6-.721c-.981-1.288-2.051-2.509-3.075-3.765-1.21-1.485-2.4-2.984-3.614-4.466-1.429-1.745-2.872-3.478-4.309-5.216a.915.915,0,0,0-.391-.449c-2.429-2.92-4.74-5.936-7.23-8.808a1.574,1.574,0,0,0-.6-.71l-.012-.016-.094-.152" transform="translate(-12.657 -52.856)" fill="#feebb2"/>
        <path id="Trazado_825839" data-name="Trazado 825839" d="M78.344,85.3a14.366,14.366,0,0,0,.287,1.6c.154.527-.024.605-.507.6Q67.61,87.487,57.1,87.5c-4.421,0-8.843-.009-13.264.011-.549,0-.674-.12-.474-.634a11.805,11.805,0,0,0,.448-4.97,3.03,3.03,0,0,0-.4-1.4c-.37-.609-.22-.807.506-.807q15.129,0,30.258,0c1.344,0,2.689-.012,4.033-.019l.353.027a2.063,2.063,0,0,1-.055.824,12.665,12.665,0,0,0-.277,4.047l.119.365c0,.122,0,.244,0,.366" transform="translate(-22.073 -40.702)" fill="#feebb2"/>
        <path id="Trazado_825840" data-name="Trazado 825840" d="M138.121,86.353l-.366.118-.612.131-1.222.234c-.209.005-.434-.087-.613.1a12.917,12.917,0,0,1-7.083-1.847l-.856-.605a13.357,13.357,0,0,1-3.291-3.89.957.957,0,0,0-.254-.5l-.745-2.057c-.087-.245-.044-.531-.235-.743a2.693,2.693,0,0,0-.148-1.208c0-.081,0-.163.006-.244a13.538,13.538,0,0,1,1.974-7.429l.831-.991.748-.751,1.4-1.176,1.56-.936a1.109,1.109,0,0,0,.592-.3l.51-.181a2.705,2.705,0,0,0,.842-.3c.718-.075,1.4-.325,2.116-.434a9.934,9.934,0,0,1,2.079.118,2.815,2.815,0,0,1,1.3.194c.011.07.042.118.124.1a11.18,11.18,0,0,1,6.081,3.093,8.227,8.227,0,0,1,1.159,1.317l-.039.115a.215.215,0,0,0-.108.023l-.979.037a21.687,21.687,0,0,0-7.495.782,3.508,3.508,0,0,0-.329.145c-.1-.008-.206-.027-.25.1l-.482.184-.271.131a4.751,4.751,0,0,0-1.7,1.237,1.445,1.445,0,0,0-.48.532,2.913,2.913,0,0,0-.659,1.079l-.159.388-.172.479a6.46,6.46,0,0,0-.193,2.569,3.03,3.03,0,0,0,.331,1.342.4.4,0,0,0,.124.365,5.4,5.4,0,0,0,3.534,3.3.458.458,0,0,0,.373.139,3.279,3.279,0,0,0,1.344.378,1.247,1.247,0,0,0,.607.124,21.985,21.985,0,0,0,5.268.344c.362.021.725.026,1.085.067.2.023.5-.124.594.127.078.2-.181.331-.308.48a12.569,12.569,0,0,1-3.343,2.776l-.755.413-1.425.532" transform="translate(-62.675 -32.341)" fill="#fef7e0"/>
        <path id="Trazado_825841" data-name="Trazado 825841" d="M9.716,84.181a7.4,7.4,0,0,1-1.087-3.472,4.8,4.8,0,0,1,.637-2.734c.112-.19.2-.4.3-.593l.222-.375a6.8,6.8,0,1,1,11.151,7.758,11.45,11.45,0,0,1-1.69,1.589.889.889,0,0,0-.43.275,7.529,7.529,0,0,1-3.326.854,6.444,6.444,0,0,1-5.611-3.071l-.163-.231" transform="translate(-4.402 -37.771)" fill="#feebb2"/>
        <path id="Trazado_825842" data-name="Trazado 825842" d="M157.122,103.461a12.571,12.571,0,0,0,3.344-2.776c.126-.149.386-.279.307-.48-.1-.25-.39-.1-.594-.127-.36-.041-.723-.046-1.085-.067a1.194,1.194,0,0,0-1.577-.8,2.373,2.373,0,0,1-1.654-.034c-.105-.044-.275-.039-.247-.2.013-.074.129-.153.214-.185a1.261,1.261,0,0,1,.65-.132,24.416,24.416,0,0,1,3.663.417c.363.119.768-.287,1.036.062s-.32.674-.205.922c.461.993-.141,1.461-.759,2.074-.479.476-.86.987-1.59,1.006-.559.015-.628.255-.262.727-.521-.011-1.024.249-1.24-.4" transform="translate(-79.495 -50.394)" fill="#414141"/>
        <path id="Trazado_825843" data-name="Trazado 825843" d="M114.759,85.46a12.679,12.679,0,0,1,.277-4.047c.484.352.335.913.42,1.38a11.2,11.2,0,0,1-.121,2.218c-.006.344-.234.491-.577.449" transform="translate(-58.611 -41.59)" fill="#414141"/>
        <path id="Trazado_825844" data-name="Trazado 825844" d="M155.584,95.245a11.021,11.021,0,0,0-1.685-.161c-.206,0-.481-.133-.473-.373.007-.178.3-.144.448-.225.9-.5,1.553.321,2.341.4.041,0,.115.088.107.112-.022.068-.071.169-.125.18a6.139,6.139,0,0,1-.612.071" transform="translate(-78.378 -48.186)" fill="#414141"/>
        <path id="Trazado_825845" data-name="Trazado 825845" d="M139.021,86.506a6.459,6.459,0,0,1,.193-2.569c.245.178.243.439.271.706.053.5-.2.981-.03,1.5.088.266-.178.368-.433.364" transform="translate(-71.002 -42.879)" fill="#414141"/>
        <path id="Trazado_825846" data-name="Trazado 825846" d="M154.24,109.864l1.425-.532c.043.041.124.082.124.122-.007.623-.633.585-.969.831-.245.179-.51-.1-.58-.421" transform="translate(-78.794 -55.852)" fill="#414141"/>
        <path id="Trazado_825847" data-name="Trazado 825847" d="M135.388,111.335c.631.182,1.332.035,1.919.406.084.053.187.115.142.234-.056.147-.2.109-.315.1a4.963,4.963,0,0,1-1.747-.742" transform="translate(-69.163 -56.876)" fill="#414141"/>
        <path id="Trazado_825848" data-name="Trazado 825848" d="M73.638,131.412a10.6,10.6,0,0,1-1.3-1.347,1.286,1.286,0,0,1,1.3,1.347" transform="translate(-36.952 -66.444)" fill="#414141"/>
        <path id="Trazado_825849" data-name="Trazado 825849" d="M148.488,111.489c.179-.187.4-.094.613-.1a.51.51,0,0,0,.486.68c-.575.392-.925.178-1.1-.581" transform="translate(-75.855 -56.894)" fill="#414141"/>
        <path id="Trazado_825850" data-name="Trazado 825850" d="M145.743,112.384a5.05,5.05,0,0,1,.508,0c.123.014.248.07.23.223-.015.134-.143.118-.24.123-.142.007-.285,0-.427.008-.24.018-.627.223-.64-.147-.013-.351.417-.166.569-.211" transform="translate(-74.162 -57.406)" fill="#414141"/>
        <path id="Trazado_825851" data-name="Trazado 825851" d="M151.328,99.813a1.251,1.251,0,0,1-.607-.124c-.006-.222.181-.3.317-.406.21-.169.47-.5.7-.271.253.255-.257.306-.318.519-.028.1-.062.188-.093.282" transform="translate(-76.996 -50.54)" fill="#414141"/>
        <path id="Trazado_825852" data-name="Trazado 825852" d="M152.24,110.793l.612-.131a.571.571,0,0,0,.243.4c.115.107.428.138.272.363-.124.179-.323-.034-.482-.091-.278-.1-.6-.158-.644-.537" transform="translate(-77.772 -56.532)" fill="#414141"/>
        <path id="Trazado_825853" data-name="Trazado 825853" d="M132.255,106.6l.856.605c-.045.333-.3.269-.513.254s-.294-.2-.328-.379a2.912,2.912,0,0,1-.015-.481" transform="translate(-67.561 -54.457)" fill="#414141"/>
        <path id="Trazado_825854" data-name="Trazado 825854" d="M131.378,67.784l-1.4,1.176a1.394,1.394,0,0,1,1.4-1.176" transform="translate(-66.399 -34.628)" fill="#414141"/>
        <path id="Trazado_825855" data-name="Trazado 825855" d="M163.986,73.555l.98-.037a.522.522,0,0,1-.6.469c-.284-.008-.389-.17-.384-.431" transform="translate(-83.772 -37.557)" fill="#414141"/>
        <path id="Trazado_825856" data-name="Trazado 825856" d="M53.011,109.845a5.97,5.97,0,0,1-.952-.986.916.916,0,0,1,.952.986" transform="translate(-26.594 -55.611)" fill="#414141"/>
        <path id="Trazado_825857" data-name="Trazado 825857" d="M127.581,71.725l-.831.991c0-.564.147-1,.831-.991" transform="translate(-64.751 -36.641)" fill="#414141"/>
        <path id="Trazado_825858" data-name="Trazado 825858" d="M139.124,64a2.705,2.705,0,0,1-.842.3c.061-.642.212-.7.842-.3" transform="translate(-70.642 -32.569)" fill="#414141"/>
        <path id="Trazado_825859" data-name="Trazado 825859" d="M151.21,95.028c-.163.093-.209.141-.257.144-.312.017-.686-.016-.8-.291-.1-.238.176-.147.314-.1s.263.106.4.155c.073.026.151.041.35.092" transform="translate(-76.694 -48.39)" fill="#414141"/>
        <path id="Trazado_825860" data-name="Trazado 825860" d="M24.989,110.169a1.58,1.58,0,0,1,.6.711c-.572.076-.627-.285-.6-.711" transform="translate(-12.763 -56.28)" fill="#414141"/>
        <path id="Trazado_825861" data-name="Trazado 825861" d="M136.611,65.014a1.11,1.11,0,0,1-.592.3c-.018-.2-.044-.422.206-.51.19-.067.3.051.386.207" transform="translate(-69.48 -33.097)" fill="#414141"/>
        <path id="Trazado_825862" data-name="Trazado 825862" d="M122.8,91.907c.191.212.149.5.235.743-.526-.107-.527-.379-.235-.743" transform="translate(-62.633 -46.951)" fill="#414141"/>
        <path id="Trazado_825863" data-name="Trazado 825863" d="M29.464,99.6a.889.889,0,0,1,.43-.275c.267.132.155.272.008.41-.225.212-.3-.079-.438-.135" transform="translate(-15.052 -50.738)" fill="#414141"/>
        <path id="Trazado_825864" data-name="Trazado 825864" d="M142.759,112.994c.151-.284.3-.357.493-.3a.131.131,0,0,1,.065.2c-.132.2-.312.087-.558.1" transform="translate(-72.929 -57.561)" fill="#414141"/>
        <path id="Trazado_825865" data-name="Trazado 825865" d="M94.133,152.85a2.106,2.106,0,0,1-.592-.611.537.537,0,0,1,.592.611" transform="translate(-47.786 -77.772)" fill="#414141"/>
        <path id="Trazado_825866" data-name="Trazado 825866" d="M139.852,117.212a.523.523,0,0,1-.509.181c-.08-.025-.08-.152-.023-.2.148-.129.315-.121.532.021" transform="translate(-71.152 -59.821)" fill="#414141"/>
        <path id="Trazado_825867" data-name="Trazado 825867" d="M141.477,79.4a1.435,1.435,0,0,1,.48-.531c.074.387-.055.592-.48.531" transform="translate(-72.274 -40.292)" fill="#414141"/>
        <path id="Trazado_825868" data-name="Trazado 825868" d="M124.895,97.631a.957.957,0,0,1,.254.5c-.47.03-.4-.214-.254-.5" transform="translate(-63.747 -49.875)" fill="#414141"/>
        <path id="Trazado_825869" data-name="Trazado 825869" d="M139.856,92.3a.407.407,0,0,1-.124-.365c.131.013.3-.037.341.152.033.158-.093.194-.218.213" transform="translate(-71.382 -46.964)" fill="#414141"/>
        <path id="Trazado_825870" data-name="Trazado 825870" d="M115.034,90.8c0-.122,0-.244,0-.366.137.011.322-.019.324.181s-.182.174-.32.185" transform="translate(-58.764 -46.198)" fill="#414141"/>
        <path id="Trazado_825871" data-name="Trazado 825871" d="M56.247,113.106a1.477,1.477,0,0,1-.484-.492c.351-.022.511.144.484.492" transform="translate(-28.487 -57.528)" fill="#414141"/>
        <path id="Trazado_825872" data-name="Trazado 825872" d="M148.391,98.385c-.007.084-.036.157-.131.165s-.176-.012-.158-.115a.26.26,0,0,1,.135-.166c.081-.034.147.017.154.116" transform="translate(-75.657 -50.195)" fill="#414141"/>
        <path id="Trazado_825873" data-name="Trazado 825873" d="M41,129.628a.918.918,0,0,1,.391.449c-.37.058-.411-.17-.391-.449" transform="translate(-20.944 -66.221)" fill="#414141"/>
        <path id="Trazado_825874" data-name="Trazado 825874" d="M51.586,108.345l-.423-.444c.377-.075.43.156.423.444" transform="translate(-26.137 -55.114)" fill="#414141"/>
        <path id="Trazado_825875" data-name="Trazado 825875" d="M115.1,79.468l-.353-.026c.032-.22.186-.257.355-.2.133.048.095.148,0,.222" transform="translate(-58.618 -40.469)" fill="#414141"/>
        <path id="Trazado_825876" data-name="Trazado 825876" d="M10.634,80.21l-.222.375c-.3-.343-.036-.359.222-.375" transform="translate(-5.251 -40.975)" fill="#414141"/>
        <path id="Trazado_825877" data-name="Trazado 825877" d="M139.8,82.552l.159-.388c.335.287.156.365-.159.388" transform="translate(-71.419 -41.974)" fill="#414141"/>
        <path id="Trazado_825878" data-name="Trazado 825878" d="M122.42,88.938c0,.081,0,.163-.007.244-.1-.021-.281.041-.278-.125s.179-.1.285-.119" transform="translate(-62.393 -45.434)" fill="#414141"/>
        <path id="Trazado_825879" data-name="Trazado 825879" d="M54.371,111.237A.83.83,0,0,1,54,110.87c.271-.026.393.1.366.367" transform="translate(-27.589 -56.637)" fill="#414141"/>
        <path id="Trazado_825880" data-name="Trazado 825880" d="M159.465,80.462l-.1-.087c.038-.037.074-.1.114-.1a.157.157,0,0,1,.127.085c.019.065-.035.108-.139.105" transform="translate(-81.411 -41.007)" fill="#414141"/>
        <path id="Trazado_825881" data-name="Trazado 825881" d="M37.209,103.834l-.158.121c-.1-.053-.256-.114-.119-.241.1-.094.215,0,.277.119" transform="translate(-18.839 -52.963)" fill="#414141"/>
        <path id="Trazado_825882" data-name="Trazado 825882" d="M25.88,109.11l-.364.02c.113-.153.225-.345.364-.02" transform="translate(-13.035 -55.648)" fill="#414141"/>
        <path id="Trazado_825883" data-name="Trazado 825883" d="M145.941,76.206l.27-.132c-.012.1.016.221-.1.261-.09.031-.137-.053-.17-.129" transform="translate(-74.554 -38.863)" fill="#414141"/>
        <path id="Trazado_825884" data-name="Trazado 825884" d="M147.584,99.47a.457.457,0,0,1-.372-.139c.166-.067.362-.211.372.139" transform="translate(-75.204 -50.699)" fill="#414141"/>
        <path id="Trazado_825885" data-name="Trazado 825885" d="M25.021,109.307c-.037.116-.145.117-.236.145.016-.149,0-.344.236-.145" transform="translate(-12.661 -55.796)" fill="#414141"/>
        <path id="Trazado_825886" data-name="Trazado 825886" d="M147.48,75.586c.044-.13.149-.111.25-.1-.029.166-.072.3-.25.1" transform="translate(-75.34 -38.558)" fill="#414141"/>
        <path id="Trazado_825887" data-name="Trazado 825887" d="M133.99,110.263l-.043.1c-.033-.015-.085-.022-.094-.045s.023-.065.037-.1l.1.044" transform="translate(-68.378 -56.306)" fill="#414141"/>
        <path id="Trazado_825888" data-name="Trazado 825888" d="M10.746,94.878l.163.231c-.092.008-.2.046-.257-.056s.036-.131.094-.175" transform="translate(-5.433 -48.469)" fill="#414141"/>
        <path id="Trazado_825889" data-name="Trazado 825889" d="M166.208,73.349l.039-.115c.08.022.2.006.155.145a1.248,1.248,0,0,1-.193-.03" transform="translate(-84.908 -37.412)" fill="#414141"/>
        <path id="Trazado_825890" data-name="Trazado 825890" d="M60.39,117.719c-.077,0-.116-.033-.107-.112Z" transform="translate(-30.795 -60.08)" fill="#414141"/>
        <path id="Trazado_825891" data-name="Trazado 825891" d="M24.777,109.825l.094.152-.094-.152" transform="translate(-12.657 -56.104)" fill="#414141"/>
        <path id="Trazado_825892" data-name="Trazado 825892" d="M37.954,103.678l-.19.092.19-.092" transform="translate(-19.292 -52.964)" fill="#414141"/>
        <path id="Trazado_825893" data-name="Trazado 825893" d="M151.356,64.113c-.083.018-.113-.029-.125-.1l.125.1" transform="translate(-77.257 -32.701)" fill="#414141"/>
      </g>
    </g>
  </g>
</svg>
