<svg xmlns="http://www.w3.org/2000/svg" xmlns:xlink="http://www.w3.org/1999/xlink" width="295" height="223.993" viewBox="0 0 295 223.993">
  <defs>
    <clipPath id="clip-path">
      <rect id="Rectángulo_379411" data-name="Rectángulo 379411" width="295" height="223.993" transform="translate(0 0)" fill="none"/>
    </clipPath>
  </defs>
  <g id="Grupo_1075346" data-name="Grupo 1075346" transform="translate(0 0.002)">
    <g id="Grupo_1075345" data-name="Grupo 1075345" transform="translate(0 -0.002)" clip-path="url(#clip-path)">
      <path id="Trazado_826315" data-name="Trazado 826315" d="M200.775,379.823s-18.592-84.584,5.4-105.478c19.51-16.993,40.552,16.348,61.687,1.522,18.816-13.2-.978-49.339,23.978-55.152,27.982-6.518,60.034,64.9,87.723,54.666,33.6-12.423,67.02,12.8,38.138,104.606Z" transform="translate(-169.985 -193.118)" fill="#c1e29a"/>
      <path id="Trazado_826316" data-name="Trazado 826316" d="M124.178,177.976c-.583-1.688-1.16-3.437-1.715-5.2l1.367-.384c.551,1.75,1.124,3.488,1.7,5.165Zm244.529-2.18-1.415-.165c.235-1.8.458-3.607.663-5.379l1.418.147c-.206,1.778-.43,3.594-.665,5.4M120.889,167.54c-.5-1.741-.983-3.514-1.439-5.271l1.385-.321c.453,1.746.934,3.508,1.43,5.239Zm249.067-2.548-1.42-.127c.181-1.8.348-3.619.5-5.394l1.421.106c-.15,1.782-.317,3.6-.5,5.414m-251.808-8.024c-.412-1.774-.8-3.567-1.165-5.331l1.4-.256c.359,1.752.748,3.535,1.157,5.3Zm252.716-2.812-1.423-.085c.121-1.8.227-3.621.315-5.405l1.424.063c-.088,1.791-.194,3.617-.316,5.427m-254.9-7.876c-.317-1.8-.611-3.606-.873-5.381l1.412-.186c.26,1.763.552,3.562.867,5.345ZM371.4,143.3l-1.425-.039c.056-1.811.094-3.631.114-5.411l1.426.014c-.02,1.788-.059,3.617-.115,5.436m-257.025-7.8c-.213-1.814-.4-3.637-.55-5.421l1.421-.108c.151,1.77.335,3.581.546,5.381Zm255.719-3.062c-.017-1.812-.053-3.632-.108-5.409l1.426-.039c.055,1.786.092,3.616.109,5.437ZM113.448,124.64c-.094-1.824-.157-3.656-.186-5.443l1.426-.021c.029,1.773.091,3.589.185,5.4Zm256.306-3.02c-.1-1.81-.218-3.626-.358-5.4l1.422-.1c.14,1.782.261,3.608.36,5.429ZM114.7,113.776l-1.426-.028c.04-1.829.116-3.661.228-5.445l1.424.079c-.11,1.767-.186,3.581-.226,5.393m254.2-2.94c-.19-1.809-.406-3.617-.641-5.372l1.415-.169c.236,1.767.453,3.586.645,5.407ZM115.379,103l-1.419-.135c.194-1.822.43-3.643.7-5.413l1.411.194c-.269,1.75-.5,3.552-.694,5.354m252.083-2.891c-.3-1.8-.622-3.59-.968-5.324l1.4-.249c.349,1.749.677,3.554.976,5.366Zm-168.653-.19a11.513,11.513,0,0,1-5.4-2.619l.9-1.044a10.4,10.4,0,0,0,4.651,2.324Zm4.948-3.206-1.27-.613a20.481,20.481,0,0,0,1.715-4.982l1.393.288a21.418,21.418,0,0,1-1.838,5.307m-14.533-3.278c-1.136-1.2-2.35-2.571-3.711-4.206l1.121-.833c1.342,1.612,2.537,2.965,3.652,4.139Zm-72.2-1.105-1.4-.257c.369-1.8.788-3.592,1.242-5.33l1.384.323c-.449,1.716-.862,3.487-1.227,5.263M365.342,89.5c-.422-1.78-.878-3.544-1.354-5.244l1.379-.345c.481,1.716.94,3.5,1.367,5.294ZM206.555,85.987l-1.414-.172c.219-1.608.415-3.369.6-5.384l1.421.116c-.186,2.034-.385,3.813-.606,5.44m-24.535-1.1c-1.159-1.479-2.361-3.043-3.4-4.392l1.154-.791c1.034,1.347,2.234,2.907,3.389,4.381Zm104.4-.111a6.276,6.276,0,0,1-3.239-.932l.76-1.14a4.814,4.814,0,0,0,4.751.19l.613,1.216a7.03,7.03,0,0,1-2.886.665m-166.653-2.9-1.364-.394c.567-1.751,1.188-3.492,1.848-5.175l1.337.468c-.65,1.659-1.263,3.375-1.821,5.1m174.2-1.285-1.048-.914a45.986,45.986,0,0,0,3.543-4.173l1.155.79a47.314,47.314,0,0,1-3.651,4.3m-14.843-.926a41,41,0,0,1-2.8-4.843l1.289-.576a39.7,39.7,0,0,0,2.7,4.686Zm83.283-.6c-.574-1.746-1.187-3.464-1.822-5.108l1.34-.462c.642,1.664,1.263,3.4,1.844,5.17ZM175.243,76.107c-1.3-1.685-2.392-3.068-3.422-4.353l1.137-.813c1.035,1.291,2.126,2.68,3.436,4.37Zm32.347-1-1.423-.087c.108-1.579.218-3.353.336-5.424l1.424.073c-.118,2.076-.229,3.855-.337,5.439m-83.862-3.317-1.3-.544q1.174-2.513,2.5-4.929l1.264.623q-1.308,2.374-2.463,4.85m177.162,0-1.191-.74c1.013-1.456,2.06-3,3.12-4.556l1.2.728c-1.062,1.562-2.11,3.106-3.128,4.568M274.038,69.8c-.646-1.531-1.313-3.2-2.04-5.106l1.341-.457c.722,1.891,1.384,3.547,2.024,5.064Zm84.455-.84c-.767-1.687-1.578-3.327-2.41-4.872l1.271-.611c.847,1.571,1.671,3.237,2.45,4.952ZM168.3,67.485c-1.294-1.518-2.5-2.868-3.682-4.129l1.067-.894c1.2,1.277,2.418,2.644,3.726,4.178Zm39.924-3.253-1.424-.068c.1-1.8.192-3.6.293-5.434l1.424.071c-.1,1.832-.2,3.632-.293,5.431m98.92-1.562-1.19-.743c1.191-1.7,2.257-3.177,3.258-4.5l1.161.782c-.991,1.315-2.048,2.776-3.23,4.466M129.02,62.29l-1.2-.725a41.917,41.917,0,0,1,3.434-4.451l1.089.869a40.592,40.592,0,0,0-3.322,4.307m141.073-2.741c-.654-1.811-1.3-3.622-1.837-5.156l1.353-.426c.541,1.531,1.181,3.34,1.834,5.147Zm-109.4-.094a48.432,48.432,0,0,0-4.259-3.521l.87-1.068a49.868,49.868,0,0,1,4.385,3.623ZM353.313,59.4c-1.022-1.575-2.093-3.065-3.184-4.429l1.137-.813c1.119,1.4,2.217,2.925,3.263,4.538Zm-216.972-5.08-.865-1.071a17.247,17.247,0,0,1,5.268-2.631l.417,1.288a15.8,15.8,0,0,0-4.82,2.414M313.813,53.9l-1.108-.848a53.825,53.825,0,0,1,3.874-4.1l1.009.952a52.56,52.56,0,0,0-3.775,4m-104.977-.53-1.423-.08c.123-1.958.246-3.737.375-5.437l1.422.1c-.128,1.695-.251,3.468-.374,5.421m-57.114-.282a17.623,17.623,0,0,0-5.2-1.587l.194-1.335a19.107,19.107,0,0,1,5.644,1.716ZM346.46,50.915a33.113,33.113,0,0,0-4.225-3.487l.84-1.089a34.532,34.532,0,0,1,4.406,3.635Zm-80.023-1.678c-.709-2-1.294-3.639-1.84-5.144l1.349-.437c.547,1.508,1.133,3.146,1.843,5.154Zm55.419-2.769-.817-1.1a20.575,20.575,0,0,1,5.265-2.552l.44,1.281a19.132,19.132,0,0,0-4.888,2.374m15.56-1.651a18.853,18.853,0,0,0-5.314-1.295l.133-1.342a20.345,20.345,0,0,1,5.735,1.395ZM209.666,42.544l-1.42-.119c.178-1.89.371-3.716.575-5.427l1.417.151c-.2,1.7-.395,3.515-.571,5.4M262.7,38.967c-.689-1.817-1.338-3.478-1.985-5.078l1.332-.481c.65,1.609,1.3,3.279,2,5.1Zm-51.736-7.191-1.411-.193c.288-1.887.606-3.7.942-5.392l1.4.249c-.333,1.673-.647,3.468-.932,5.336M258.6,28.858c-.766-1.742-1.539-3.408-2.3-4.952l1.294-.566c.765,1.561,1.545,3.243,2.319,5Zm-45.489-7.69-1.383-.327c.5-1.881,1.046-3.654,1.63-5.268l1.349.436c-.571,1.578-1.108,3.313-1.6,5.158m40.661-2.1c-.938-1.669-1.9-3.236-2.848-4.657l1.205-.72c.971,1.45,1.947,3.046,2.9,4.746Zm-36.924-8-1.279-.6a26.593,26.593,0,0,1,3.086-4.711l1.12.834a25.26,25.26,0,0,0-2.928,4.474m30.808-1.03a33.788,33.788,0,0,0-3.823-3.886l.957-1A35.165,35.165,0,0,1,248.767,9.2Zm-23.9-6.936-.769-1.135A14.729,14.729,0,0,1,228.514,0l.217,1.332a13.259,13.259,0,0,0-4.98,1.777m15.58,0a17.87,17.87,0,0,0-5.143-1.719l.25-1.326a19.348,19.348,0,0,1,5.57,1.86Z" transform="translate(-99.29 0.002)" fill="#b3d2ff"/>
      <path id="Trazado_826317" data-name="Trazado 826317" d="M280.013,697c-11.834-1.98-9.9,15.907-26.771,15.907-15.422,0-20.356-68.114-31.578-48.643-57.526,99.819-24.122-42.45-69.872-44.258-20.687-.818-34.471,24.079-39.555,68.16C104.87,728.016,87.782,657.771,70.2,664.3c-11.177,4.151-9.9,48.6-25.319,48.6-16.868,0-14.937-17.886-26.771-15.907-12.741,2.132-16.327,33.79-16.327,33.79H296.27s-3.516-31.658-16.257-33.79" transform="translate(-1.56 -543.505)" fill="#a6c285"/>
      <path id="Trazado_826318" data-name="Trazado 826318" d="M351.856,1070.47c-10.887-.845-9.11,6.792-24.628,6.792-14.188,0-13.8-17.117-23.293-20.755-17.485-6.7-31.9,27.207-38.678,10.19-12.875-45.153-50.425-67.8-67.748,0-6.779,17.017-22.631-13.347-38.678-10.19-9.878,1.943-9.1,20.755-23.293,20.755-15.518,0-13.742-7.638-24.628-6.792-11.721.91-15.222,14.429-15.222,14.429H367.078s-3.5-13.519-15.222-14.429" transform="translate(-83.881 -897.613)" fill="#d7ecbf"/>
      <path id="Trazado_826319" data-name="Trazado 826319" d="M.219,1518.207s-2.07,8.518,6.5,10.651c11.728,2.917,80.569,10.581,63.845,16.405-9.441,3.287,4.819,7.752,50.8,9.4s124.886-4.8,98.352-14.327,81.572-2.3,74.987-22.124Z" transform="translate(0.001 -1330.922)" fill="#c1e29a"/>
      <path id="Trazado_826320" data-name="Trazado 826320" d="M571.447,460.324h-38.54a27.8,27.8,0,0,1-27.8-27.8V413.411a51.029,51.029,0,0,0-50.971-50.971H402.772a30.327,30.327,0,0,1-30.327-30.327V309a1.234,1.234,0,1,1,2.467,0v23.111a27.891,27.891,0,0,0,27.86,27.86h51.367a53.394,53.394,0,0,1,53.438,53.438v19.116a25.359,25.359,0,0,0,25.33,25.33h38.54a1.234,1.234,0,0,1,0,2.467" transform="translate(-326.5 -269.802)" fill="#1d3f70"/>
      <path id="Trazado_826321" data-name="Trazado 826321" d="M763,440.479c-.449,13.2-11.37,24.419-20.681,33.1-15.87,15.967-38.865,39.048-54.777,55.059-15.973-15.885-39.133-38.915-55.072-54.764-9.359-8.617-20.327-19.832-20.85-33.016-3.116-21.967,16.637-43.69,38.51-42.934,14.959-.877,27.434,10.153,37.117,20.879.039-.076,9.245-9.247,9.583-9.636,24.839-25.982,70.519-4.181,66.17,31.311" transform="translate(-535.881 -348.694)" fill="#eb5648"/>
      <path id="Trazado_826322" data-name="Trazado 826322" d="M1302.747,440.479c-.449,13.2-11.37,24.419-20.682,33.1-15.87,15.967-38.865,39.048-54.777,55.059l-.294-109.836c.04-.076,9.245-9.247,9.583-9.636,24.839-25.982,70.519-4.181,66.17,31.311" transform="translate(-1075.633 -348.694)" fill="#ce3932"/>
      <path id="Trazado_826323" data-name="Trazado 826323" d="M568.576,673.987a3.1,3.1,0,0,1-2.921-2.063l-23.475-66.1-15.958,31.565a3.1,3.1,0,0,1-2.767,1.7H474.278a3.1,3.1,0,1,1,0-6.2h47.271l18.364-36.323a3.1,3.1,0,0,1,5.688.361l22.948,64.619,18.212-52.255a3.1,3.1,0,0,1,5.781-.191l10.093,23.788H646.83a3.1,3.1,0,0,1,0,6.2H600.583a3.1,3.1,0,0,1-2.854-1.889l-7.757-18.282L571.5,671.907a3.1,3.1,0,0,1-2.919,2.08Z" transform="translate(-413.054 -521.481)" fill="#fff"/>
      <path id="Trazado_826324" data-name="Trazado 826324" d="M232.635,122.562a24.608,24.608,0,1,1-24.508-24.707,24.608,24.608,0,0,1,24.508,24.707" transform="translate(-160.794 -85.783)" fill="#1d3f70"/>
      <path id="Trazado_826325" data-name="Trazado 826325" d="M269.126,165A18.632,18.632,0,1,1,250.57,146.3,18.632,18.632,0,0,1,269.126,165" transform="translate(-203.26 -128.248)" fill="#bedced"/>
      <path id="Trazado_826326" data-name="Trazado 826326" d="M246.468,184.582l-14.6-.059a18.623,18.623,0,0,1,8.855-15.789Z" transform="translate(-203.261 -147.919)" fill="#2fac66"/>
      <path id="Trazado_826327" data-name="Trazado 826327" d="M430.148,185.244l-14.6-.059,5.878-15.8a18.62,18.62,0,0,1,8.726,15.86" transform="translate(-364.282 -148.489)" fill="#eb5648"/>
      <path id="Trazado_826328" data-name="Trazado 826328" d="M363.486,353.9a3.1,3.1,0,1,1-3.092-3.117,3.1,3.1,0,0,1,3.092,3.117" transform="translate(-313.203 -307.513)" fill="#103663"/>
      <path id="Trazado_826329" data-name="Trazado 826329" d="M323.325,149.15l-5.878,15.8-8.054-.033-5.75-15.848a18.654,18.654,0,0,1,19.682.08" transform="translate(-266.186 -128.255)" fill="#f9b233"/>
      <path id="Trazado_826330" data-name="Trazado 826330" d="M368.275,270.4l10.892-13.453-7.694,15.506a1.912,1.912,0,1,1-3.425-1.7,2.008,2.008,0,0,1,.227-.353" transform="translate(-322.471 -225.252)" fill="#103663"/>
      <path id="Trazado_826331" data-name="Trazado 826331" d="M1695.244,1449.142a1.234,1.234,0,0,1-1.234-1.232l-.01-10.334a1.233,1.233,0,0,1,1.232-1.235h0a1.234,1.234,0,0,1,1.234,1.232l.01,10.334a1.233,1.233,0,0,1-1.232,1.235Z" transform="translate(-1485.029 -1259.155)" fill="#1d3f70"/>
      <path id="Trazado_826332" data-name="Trazado 826332" d="M1650.381,1436.894a1.542,1.542,0,0,1,0-3.084l10.526-.01h0a1.542,1.542,0,0,1,0,3.084l-10.525.01Z" transform="translate(-1445.439 -1256.926)" fill="#1d3f70"/>
      <path id="Trazado_826333" data-name="Trazado 826333" d="M1662.37,1500.491l-8.821.009a4.842,4.842,0,0,1-.01-9.685l8.821-.009Z" transform="translate(-1445.319 -1306.901)" fill="#1d3f70"/>
      <path id="Trazado_826334" data-name="Trazado 826334" d="M2139.35,1500.088l3.473,0a4.843,4.843,0,0,0,4.837-4.847h0a4.842,4.842,0,0,0-4.847-4.837l-3.473,0Z" transform="translate(-1875.432 -1306.545)" fill="#1d3f70"/>
      <path id="Trazado_826335" data-name="Trazado 826335" d="M1784.521,1430.6c.007,7.712-12.226,13.977-27.325,13.993-12.078.012-22.331-3.979-25.954-9.525a8.018,8.018,0,0,1-1.4-4.413c-.007-7.712,12.226-13.977,27.325-13.993,9.17-.009,17.29,2.29,22.253,5.824,3.208,2.285,5.1,5.086,5.1,8.114" transform="translate(-1516.451 -1241.905)" fill="#23659b"/>
      <path id="Trazado_826336" data-name="Trazado 826336" d="M1780.82,1426.9c.007,7.712-12.226,13.977-27.325,13.992-9.171.009-17.29-2.291-22.253-5.824a8.018,8.018,0,0,1-1.4-4.413c-.007-7.712,12.226-13.977,27.325-13.993,9.17-.009,17.29,2.29,22.253,5.824a8.015,8.015,0,0,1,1.4,4.413" transform="translate(-1516.451 -1241.905)" fill="#3a72aa"/>
      <path id="Trazado_826337" data-name="Trazado 826337" d="M2042.462,865.5h-4.855v20.353h-8.066V865.5h-4.854l8.887-11.63Z" transform="translate(-1774.922 -748.535)" fill="#fcb4b4"/>
      <path id="Trazado_826338" data-name="Trazado 826338" d="M2105.62,865.5h-4.855v20.353h-4.034V853.868Z" transform="translate(-1838.079 -748.535)" fill="#f49f9f"/>
      <path id="Trazado_826339" data-name="Trazado 826339" d="M703.509,1333.017h-4.855v20.353h-8.066v-20.353h-4.855l8.887-11.63Z" transform="translate(-601.141 -1158.381)" fill="#fcb4b4"/>
      <path id="Trazado_826340" data-name="Trazado 826340" d="M766.667,1333.017h-4.855v20.353h-4.034v-31.983Z" transform="translate(-664.299 -1158.381)" fill="#f49f9f"/>
      <path id="Trazado_826341" data-name="Trazado 826341" d="M1815.358,175.363H1810.5v20.353h-8.066V175.363h-4.854l8.887-11.63Z" transform="translate(-1575.834 -143.535)" fill="#fcb4b4"/>
      <path id="Trazado_826342" data-name="Trazado 826342" d="M1878.516,175.363h-4.855v20.353h-4.033V163.733Z" transform="translate(-1638.991 -143.535)" fill="#f49f9f"/>
      <path id="Trazado_826343" data-name="Trazado 826343" d="M1753.517,1293.3a2.2,2.2,0,0,1-4.363-.62,2.2,2.2,0,0,1,4.363.62" transform="translate(-1533.361 -1131.583)" fill="#fff"/>
      <path id="Trazado_826344" data-name="Trazado 826344" d="M1766.743,1084.252h0a2.123,2.123,0,0,1,1.784,2.483l-3.7,20.186a1.352,1.352,0,0,1-2.675-.387l2.177-20.406a2.122,2.122,0,0,1,2.415-1.875" transform="translate(-1544.767 -950.48)" fill="#fff"/>
      <path id="Trazado_826345" data-name="Trazado 826345" d="M1183.211,391.231a2.2,2.2,0,0,1-4.351-.7,2.2,2.2,0,0,1,4.351.7" transform="translate(-1033.412 -340.754)" fill="#eb5648"/>
      <path id="Trazado_826346" data-name="Trazado 826346" d="M1197.639,182.74h0a2.122,2.122,0,0,1,1.738,2.516l-4.072,20.114a1.352,1.352,0,0,1-2.667-.437l2.553-20.363a2.122,2.122,0,0,1,2.449-1.83" transform="translate(-1045.505 -160.172)" fill="#eb5648"/>
      <path id="Trazado_826347" data-name="Trazado 826347" d="M308.522,790.031a2.2,2.2,0,0,1-4.334.8,2.2,2.2,0,0,1,4.334-.8" transform="translate(-266.631 -691.015)" fill="#3a72aa"/>
      <path id="Trazado_826348" data-name="Trazado 826348" d="M269.141,582.93h0a2.122,2.122,0,0,1,2.481,1.787l2.911,20.315a1.352,1.352,0,0,1-2.659.484l-4.425-20.039a2.122,2.122,0,0,1,1.693-2.546" transform="translate(-234.411 -510.989)" fill="#3a72aa"/>
      <path id="Trazado_826349" data-name="Trazado 826349" d="M1673.343,777.974a2.2,2.2,0,0,1-4.407.011,2.2,2.2,0,0,1,4.407-.011" transform="translate(-1463.057 -680.104)" fill="#f49f9f"/>
      <path id="Trazado_826350" data-name="Trazado 826350" d="M1671.715,567.042h0a2.122,2.122,0,0,1,2.121,2.2l-.77,20.508a1.352,1.352,0,0,1-2.7,0l-.77-20.508a2.123,2.123,0,0,1,2.121-2.2" transform="translate(-1463.633 -497.092)" fill="#f49f9f"/>
      <path id="Trazado_826351" data-name="Trazado 826351" d="M262.081,1657.083c1.2-1.582-.259-8.814-.208-10.662h5.443c.062,1.843-1.305,9.092-.162,10.659.324.566-5.4.56-5.072,0" transform="translate(-229.567 -1443.319)" fill="#f99370"/>
      <path id="Trazado_826352" data-name="Trazado 826352" d="M400.683,1659.26h-9.527a.959.959,0,0,1-.955-1.047,22.538,22.538,0,0,0,.234-2.965c.038-.577-.793-8.054-.855-8.828h6l-.968,7.72a1.922,1.922,0,0,0,1.3,2.065c1.177.388,2.518.557,3.4.785a3.018,3.018,0,0,1,2.008,1.171.735.735,0,0,1-.642,1.1" transform="translate(-341.523 -1443.319)" fill="#f99370"/>
      <path id="Trazado_826353" data-name="Trazado 826353" d="M391.839,1720.991V1721a1.132,1.132,0,0,0,1.124.995h9.6a.818.818,0,0,0,.785-1.059c-.506-1.581-2.091-2.559-6.586-2.953a10.261,10.261,0,0,1-4.37,0,6.511,6.511,0,0,0-.552,3.006" transform="translate(-343.478 -1506.054)" fill="#395b96"/>
      <path id="Trazado_826354" data-name="Trazado 826354" d="M259.77,1721.808h4.186a1.034,1.034,0,0,0,1.038-1.071c-.181-3.94-6.108-3.973-6.262,0a1.035,1.035,0,0,0,1.038,1.067" transform="translate(-226.814 -1505.867)" fill="#395b96"/>
      <path id="Trazado_826355" data-name="Trazado 826355" d="M459.13,1726.66a.214.214,0,0,0,.2-.133,2.262,2.262,0,0,1,1.112-1.256.214.214,0,0,0-.158-.4,2.683,2.683,0,0,0-1.35,1.493.214.214,0,0,0,.2.294" transform="translate(-402.304 -1512.079)" fill="#e8c0a6"/>
      <path id="Trazado_826356" data-name="Trazado 826356" d="M445.68,1722.4a.213.213,0,0,0,.2-.15,2.977,2.977,0,0,1,1.313-1.618.214.214,0,0,0-.2-.379,3.362,3.362,0,0,0-1.523,1.871.215.215,0,0,0,.2.277" transform="translate(-390.513 -1508.022)" fill="#e8c0a6"/>
      <path id="Trazado_826357" data-name="Trazado 826357" d="M430.374,1719.531a.214.214,0,0,0,.2-.144,3.823,3.823,0,0,1,1.328-1.776.214.214,0,0,0-.236-.356,4.219,4.219,0,0,0-1.5,1.992.215.215,0,0,0,.2.284" transform="translate(-377.096 -1505.382)" fill="#e8c0a6"/>
      <path id="Trazado_826358" data-name="Trazado 826358" d="M270.146,1722.772c1.629-.921,3.078.286,3.313-.126.191-.432-1.943-1.081-3.421-.272a.215.215,0,0,0,.108.4" transform="translate(-236.636 -1509.565)" fill="#e8c0a6"/>
      <path id="Trazado_826359" data-name="Trazado 826359" d="M403.557,1742.356H392.032v.011a1.132,1.132,0,0,0,1.123.994h9.7a.745.745,0,0,0,.707-.988l-.006-.017" transform="translate(-343.671 -1527.42)" fill="#4867aa"/>
      <path id="Trazado_826360" data-name="Trazado 826360" d="M259.657,1743.362h4.357a.954.954,0,0,0,.957-.988c0-.006,0-.011,0-.017H258.7c0,.007,0,.014,0,.021a.954.954,0,0,0,.957.984" transform="translate(-226.787 -1527.421)" fill="#4867aa"/>
      <path id="Trazado_826361" data-name="Trazado 826361" d="M354.481,923.973s.548-3.092-2.165-4.093l-1.714,1.288Z" transform="translate(-307.352 -806.404)" fill="#8c4225"/>
      <path id="Trazado_826362" data-name="Trazado 826362" d="M382.1,1051.217c7.617,5.737,19.537,4.019,23.946-4.325l-1.116-2.319c-12.78,5.493-17.81-5.27-28.179-5.889l2.089,2.664s3.081,9.687,3.261,9.869" transform="translate(-330.276 -910.552)" fill="#e9f4ff"/>
      <path id="Trazado_826363" data-name="Trazado 826363" d="M255.737,1254.83s4.58,1.113,6.94-.083c1.228-7.7,4.638-29.149,5.826-43.845.045.857,2.54,35.417,3.015,43.845,1.629.545,4.905,1.2,6.738-.118.823-8.872,3.468-38.081-.516-61.936,0,0-10.916,1.214-19.44-1.362-2.346,7.567-2.968,54.418-2.563,63.5" transform="translate(-224.089 -1044.369)" fill="#eb5648"/>
      <path id="Trazado_826364" data-name="Trazado 826364" d="M334.359,981.95c.076-2.353.368-7.02-1.542-7.645a1.941,1.941,0,0,0-2.573,2.238,21.961,21.961,0,0,1,.248,5.552c-3.619,1.086,7.265,4.656,3.867-.145" transform="translate(-289.068 -854.02)" fill="#f99370"/>
      <path id="Trazado_826365" data-name="Trazado 826365" d="M333.335,976.116c.01.067.021.135.037.2a21.627,21.627,0,0,1,.343,4.137,6.721,6.721,0,0,0,3.8.389c.092-2.436.241-6.083-1.572-6.763a1.936,1.936,0,0,0-2.61,2.037" transform="translate(-292.195 -853.795)" fill="#e57d61"/>
      <path id="Trazado_826366" data-name="Trazado 826366" d="M311.724,930.647a7.856,7.856,0,0,0,2.226,4.818h0a5.66,5.66,0,0,0,6.927-.315h0c1.562-1.459,2.055-3.423,1.234-4.937-.538-.892-1.528-1.677-1.795-2.694-2.317-6.764-9.579-2.981-8.6,3.127" transform="translate(-273.19 -809.952)" fill="#f99370"/>
      <path id="Trazado_826367" data-name="Trazado 826367" d="M362.284,967.087a.262.262,0,0,0-.466-.237.262.262,0,0,0,.466.237" transform="translate(-317.156 -847.456)" fill="#c16256"/>
      <path id="Trazado_826368" data-name="Trazado 826368" d="M380.107,964.091a.262.262,0,0,0-.466-.237.262.262,0,0,0,.466.237" transform="translate(-332.781 -844.83)" fill="#c16256"/>
      <path id="Trazado_826369" data-name="Trazado 826369" d="M311.528,930.491a7.855,7.855,0,0,0,2.226,4.818h0a2.752,2.752,0,0,0,.314.219,8.441,8.441,0,0,1-1.6-3.2l.244-1.872a3.547,3.547,0,0,0,.955-3.609c2.8.786,3.748-.943,3.748-.943a3.754,3.754,0,0,0,1.819-.333c-3.328-4.545-8.7.284-7.709,4.92" transform="translate(-272.994 -809.794)" fill="#e57d61"/>
      <path id="Trazado_826370" data-name="Trazado 826370" d="M308.2,941.908c1.192.471,1.61,3.239-1.206,5.131,0,0-1.364-4.56,1.206-5.131" transform="translate(-268.809 -825.715)" fill="#8c4225"/>
      <path id="Trazado_826371" data-name="Trazado 826371" d="M596.006,1086.862a2.334,2.334,0,0,0,1.6,2.889,8.693,8.693,0,0,0,.589-1.008l-1.116-2.319a11,11,0,0,0-1.069.439" transform="translate(-522.421 -952.402)" fill="#d1e0f2"/>
      <path id="Trazado_826372" data-name="Trazado 826372" d="M373.806,970.145c.479-.006,1.223-.328.618-.754-.494-.267-.857-1.292-.861-1.3a.1.1,0,0,0-.187.066,3.05,3.05,0,0,0,.953,1.411c.388.237-.42.468-.753.35a.1.1,0,0,0-.125.064c-.028.178.23.153.354.166" transform="translate(-327.31 -848.609)" fill="#c16256"/>
      <path id="Trazado_826373" data-name="Trazado 826373" d="M266.175,1066.789c.527.931,20.691,2.665,22.122.92,2.8-6.912-2.367-25.338-8.763-30.446a6.289,6.289,0,0,0-1.184-.2c.028.113.744,3.093-3.869.142a5.586,5.586,0,0,0-1.418.253c.331,4.819-9.043,24.055-6.888,29.332" transform="translate(-233.058 -909.13)" fill="#e8c0a6"/>
      <path id="Trazado_826374" data-name="Trazado 826374" d="M422.568,1072.208l2.865,10.257c4.468,2.463,12.105,1.958,15.652-.813-12.7,4.918-13.733-4.8-18.346-9.443Z" transform="translate(-370.44 -939.941)" fill="#d1e0f2"/>
      <path id="Trazado_826375" data-name="Trazado 826375" d="M303.644,900.571l.028.058c.933-1.107,2.632-1.648,3.021-2.775a4.882,4.882,0,0,1,.51,2.285,8.971,8.971,0,0,0,1.191-1.656,2.665,2.665,0,0,1,.777,1.536,4.783,4.783,0,0,1,2.729.267,9.782,9.782,0,0,1-8.557,3.088l-1.688,2.182c-2.4-4.158,1.99-4.984,1.99-4.984" transform="translate(-263.814 -787.095)" fill="#8c4225"/>
      <path id="Trazado_826376" data-name="Trazado 826376" d="M363.049,1393.823c.038-.741-3.015-43.845-3.015-43.845s1.442.77,1.785,5.347c.3,3.98,2.077,30.425,2.536,37.262a9.48,9.48,0,0,0,5.575-.427c-.1,1-.142,1.545-.142,1.545-1.5,1.08-3.965.836-5.7.414-.422-.1-.751-.2-.916-.257l-.119-.039" transform="translate(-315.62 -1183.445)" fill="#ce3932"/>
      <path id="Trazado_826377" data-name="Trazado 826377" d="M256.135,1693.439s4.58,1.113,6.94-.083c0,0,.1-.6.268-1.663a16.634,16.634,0,0,1-7.264-.033c-.018,1.04.071,1.692.056,1.779" transform="translate(-224.486 -1482.978)" fill="#ce3932"/>
      <path id="Trazado_826378" data-name="Trazado 826378" d="M232.973,1100.586a28.644,28.644,0,0,0,9.968,1.009c.831-.069,1.3-.156,1.3-.156s1.466-30.285,1.911-36.687c.718-6.6,1.244-21.868-1.911-24.484l-1.167.375c-7.662,9.508-9.392,55.287-10.1,59.944" transform="translate(-204.234 -911.941)" fill="#e9f4ff"/>
      <path id="Trazado_826379" data-name="Trazado 826379" d="M384.34,1100.268a10.226,10.226,0,0,0,1.04.085c1.236.047,3.28-.072,4.422-1.179.146-2.444,2.129-57.357-11.648-60.386l0,0a5.712,5.712,0,0,0-1.395-.127c9,8.465,8.471,54.5,7.583,61.609" transform="translate(-330.28 -910.528)" fill="#e9f4ff"/>
      <path id="Trazado_826380" data-name="Trazado 826380" d="M331.53,978.731s4.79,2.856,6.793,1.1c1.767-1.552,2.05-3.42,1.234-4.937,0,0-2.254.785-7.346.57,0,0,.356,2.3-.68,3.269" transform="translate(-290.633 -854.63)" fill="#e9f4ff"/>
      <path id="Trazado_826381" data-name="Trazado 826381" d="M321.476,974.881a.1.1,0,0,0,.026-.194l-2.109-.57c-.685.22,2.106.7,2.083.765" transform="translate(-279.898 -853.95)" fill="#c16256"/>
      <path id="Trazado_826382" data-name="Trazado 826382" d="M317.139,996.39a.1.1,0,0,0,.055-.182c-.06.019-2.057-1.506-2.072-1.258-.15.153,1.948,1.384,2.017,1.44" transform="translate(-276.242 -872.19)" fill="#c16256"/>
      <path id="Trazado_826383" data-name="Trazado 826383" d="M303.149,973.021c.425,1.964,2.823,1.457,2.416-.511-.425-1.963-2.823-1.457-2.416.511" transform="translate(-265.713 -851.452)" fill="#f99370"/>
      <path id="Trazado_826384" data-name="Trazado 826384" d="M306.763,977.42a.1.1,0,0,0,.095-.128c-.374-1.045.089-1.484.793-1.194.693-.236-1.759-.875-.982,1.251a.1.1,0,0,0,.094.07" transform="translate(-268.703 -855.445)" fill="#c16256"/>
      <path id="Trazado_826385" data-name="Trazado 826385" d="M307.973,980.375c.3-.042-.269-.962-1.029-1.024a.1.1,0,0,0-.013.2c.765.079.861.8,1.042.826" transform="translate(-268.989 -858.539)" fill="#c16256"/>
      <path id="Trazado_826386" data-name="Trazado 826386" d="M301.964,1087.205c.495,3.857-3.133,10.077,2.543,11.819l-4.275,1.026-1.193-4.623Z" transform="translate(-262.15 -953.088)" fill="#d1e0f2"/>
      <path id="Trazado_826387" data-name="Trazado 826387" d="M384.34,1100.268a10.226,10.226,0,0,0,1.04.085,183.3,183.3,0,0,0,.416-23.292,192.976,192.976,0,0,0-2.579-25.441c-1.75-9.478-5.063-12.833-5.063-12.833l0,0a5.712,5.712,0,0,0-1.395-.127c9,8.465,8.471,54.5,7.583,61.609" transform="translate(-330.28 -910.528)" fill="#d1e0f2"/>
      <path id="Trazado_826388" data-name="Trazado 826388" d="M261.544,1198.738l-.074.73c3.374,1.666,9.662.787,9.662.787q.1-1.46.186-2.808l-8.89-2.61c-.285,1.559-.663,2.283-.884,3.9" transform="translate(-229.215 -1047.443)" fill="#d1e0f2"/>
      <path id="Trazado_826389" data-name="Trazado 826389" d="M313.775,1101.595c.831-.069,1.3-.156,1.3-.156s1.465-30.285,1.911-36.687c.718-6.6,1.244-21.868-1.911-24.484l-1.167.375c1.061.626,2.539,5.063,2.5,11.489-.055,8.615-.93,19.071-1.368,26.342-.374,6.235-1.072,19.476-1.263,23.122" transform="translate(-275.068 -911.94)" fill="#d1e0f2"/>
      <path id="Trazado_826390" data-name="Trazado 826390" d="M394.983,1172.456c.338.417-1.064,1-1.31,1.429a8.357,8.357,0,0,0,1.922.067c1.124-.33,2.227-.721,3.314-1.162a.311.311,0,0,1,.268.558c-1,.558-2.025,1.074-3.073,1.535l0,.017a26.768,26.768,0,0,0,3.453-.475.6.6,0,0,1,.416.056c1.089.6-3.49,1.326-3.87,1.411v.009a15.331,15.331,0,0,0,3.3-.062.6.6,0,0,1,.454.119c.875.7-3.682,1.04-4.093.993l-.006.013a15.258,15.258,0,0,0,2.576.362.605.605,0,0,1,.379.159c.84.8-3.112.531-3.495.459a7.011,7.011,0,0,1-3.916-.188c-.648-.225-.937-3.227-.28-3.377a9.089,9.089,0,0,0,1.641-.759c.418-.335,1.853-1.623,2.316-1.164" transform="translate(-342.464 -1027.737)" fill="#f99370"/>
      <path id="Trazado_826391" data-name="Trazado 826391" d="M234.084,1065.122q.7-.232,1.427-.5c.079-.418.569-2.389-.28-3.377-20.285-.886-4.824-7.692-9.724-17.941-14.547.959-21.824,30.35,8.577,21.818" transform="translate(-186.668 -914.602)" fill="#e9f4ff"/>
      <path id="Trazado_826392" data-name="Trazado 826392" d="M384.365,1192.2q.7-.232,1.427-.5c.079-.418.569-2.389-.28-3.377,0,0-.556-.059-1.147-.059a4.536,4.536,0,0,1,0,3.936" transform="translate(-336.95 -1041.683)" fill="#d1e0f2"/>
      <path id="Trazado_826393" data-name="Trazado 826393" d="M355.138,959.707a.081.081,0,0,0,.073-.047,1.307,1.307,0,0,1,1.173-.743.084.084,0,0,0,.083-.078.081.081,0,0,0-.078-.083,1.476,1.476,0,0,0-1.325.837.08.08,0,0,0,.04.106.082.082,0,0,0,.033.007" transform="translate(-311.258 -840.484)" fill="#c16256"/>
      <path id="Trazado_826394" data-name="Trazado 826394" d="M373.914,956.659a.08.08,0,0,0,.049-.144,1.289,1.289,0,0,0-1.191-.084.08.08,0,0,0,.054.152,1.136,1.136,0,0,1,1.041.06.079.079,0,0,0,.048.016" transform="translate(-326.739 -838.359)" fill="#c16256"/>
      <path id="Trazado_826395" data-name="Trazado 826395" d="M324.323,1037.456c.733,1.035,7.007,4.941,6.468-.195a6.344,6.344,0,0,0-1.184-.2c.028.113.494,2.9-3.869.142a4.553,4.553,0,0,0-1.416.253" transform="translate(-284.315 -909.13)" fill="#d1a68f"/>
      <path id="Trazado_826396" data-name="Trazado 826396" d="M604.96,1043.914c.493.21-.474,1.378-.488,1.876a8.361,8.361,0,0,0,1.73-.84c.838-.818,1.631-1.68,2.385-2.578a.311.311,0,0,1,.5.368c-.622.96-1.287,1.9-2,2.795l.012.013a26.739,26.739,0,0,0,2.83-2.036.6.6,0,0,1,.394-.145c1.245.023-2.463,2.805-2.76,3.058l.005.007a15.332,15.332,0,0,0,2.886-1.6.6.6,0,0,1,.457-.108c1.1.212-2.767,2.642-3.153,2.793v.014a15.276,15.276,0,0,0,2.446-.885.605.605,0,0,1,.409-.037c1.114.31-2.5,1.926-2.874,2.041a10.138,10.138,0,0,1-3.985,1.547c-.678.1-1.63-1.557-1.311-2.387a13.7,13.7,0,0,1,1.015-1.785c.213-.492.878-2.3,1.5-2.113" transform="translate(-528.071 -913.688)" fill="#f99370"/>
    </g>
  </g>
</svg>
