<svg xmlns="http://www.w3.org/2000/svg" xmlns:xlink="http://www.w3.org/1999/xlink" width="169" height="169" viewBox="0 0 169 169">
  <defs>
    <clipPath id="clip-path">
      <rect id="Rect치ngulo_378360" data-name="Rect치ngulo 378360" width="104.37" height="102.394" fill="none"/>
    </clipPath>
  </defs>
  <g id="Grupo_1073326" data-name="Grupo 1073326" transform="translate(-385.5 -2058.1)">
    <g id="Grupo_1074732" data-name="Grupo 1074732">
      <g id="Grupo_159182" data-name="Grupo 159182" transform="translate(385.5 2058.1)">
        <path id="Uni칩n_12" data-name="Uni칩n 12" d="M84.5,0A84.5,84.5,0,1,1,0,84.5,84.5,84.5,0,0,1,84.5,0Z" transform="translate(0 0)" fill="#ffae7e"/>
      </g>
      <g id="Grupo_1074731" data-name="Grupo 1074731" transform="translate(417.5 2091.1)">
        <g id="Grupo_1074730" data-name="Grupo 1074730" clip-path="url(#clip-path)">
          <path id="Trazado_824184" data-name="Trazado 824184" d="M19.688,40.852c.008-1.6.022-3.19.024-4.786,0-2.937,0-5.874.006-8.811a.509.509,0,0,0-.407-.576c-2.731-.913-5.436-1.905-8.177-2.791C9.509,23.363,7.907,22.768,6.3,22.2c-.829-.294-1.659-.589-2.478-.913a3.105,3.105,0,0,1-.025-5.853c1.235-.446,2.486-.849,3.717-1.306,1.621-.6,3.253-1.178,4.88-1.757q2.869-1.019,5.775-1.952c2.425-.785,4.784-1.777,7.212-2.554a41.557,41.557,0,0,1,4-1.26,1.538,1.538,0,0,1,1.9.946,1.62,1.62,0,0,1-1.241,1.931c-.419.179-.854.3-1.278.462-1.394.523-2.8,1.018-4.205,1.5-1.23.424-2.485.818-3.725,1.227-2.655.877-5.279,1.847-7.92,2.766-2.576.9-5.157,1.778-7.737,2.666-.155.053-.373.065-.357.289.014.2.237.168.365.213q5.184,1.81,10.374,3.6c1.353.469,2.707.935,4.086,1.41.014-.117.031-.2.032-.28a3.939,3.939,0,0,1,3.28-3.954c1.3-.24,2.6-.44,3.9-.647,3.423-.545,6.868-.912,10.32-1.214,3.48-.3,6.97-.411,10.46-.508,3.729-.1,7.45.109,11.171.293,1.26.063,2.515.244,3.775.294,1.369.053,2.721.247,4.078.391,1.96.207,3.913.481,5.86.8,1.2.2,2.413.344,3.609.566a3.994,3.994,0,0,1,3.356,3.192c.067.348-.2.869.2,1,.275.094.683-.2,1.033-.323Q87.2,20.993,93.68,18.75c.273-.095.757-.079.757-.36,0-.344-.493-.344-.779-.443q-6.646-2.313-13.3-4.6Q69.723,9.678,59.09,6c-2.335-.806-4.695-1.549-7.011-2.4a6.658,6.658,0,0,0-4.856-.057c-.664.249-1.338.472-2.007.708-2.514.884-5.058,1.679-7.554,2.616a1.828,1.828,0,0,1-1.988-.059c-.249-.2-.306-.514-.523-.722-.038-1.632.43-1.8,2.11-2.324C39.6,3.028,41.9,2.19,44.2,1.349A30.409,30.409,0,0,1,47.869.174a7.811,7.811,0,0,1,3.882.165c1.631.455,3.194,1.129,4.812,1.617,2.383.719,4.681,1.665,7.033,2.464,1.4.476,2.82.909,4.22,1.394,2.115.733,4.217,1.507,6.333,2.238,2.095.725,4.2,1.405,6.3,2.129,1.914.661,3.813,1.365,5.726,2.028,1.668.579,3.341,1.145,5.023,1.682,1,.32,1.937.8,2.95,1.081a5.093,5.093,0,0,1,2.378,1.176,2.881,2.881,0,0,1,.9,2c.043,1.646.039,3.294.037,4.94,0,1.935-.019,3.871-.038,5.806a.485.485,0,0,0,.379.55,6.144,6.144,0,0,1,3.9,8,7.255,7.255,0,0,1-.907,1.549.52.52,0,0,0-.086.617c.653,1.494,1.3,2.991,1.888,4.511.2.524.45,1.028.642,1.556.2.544.439,1.072.659,1.608a4.374,4.374,0,0,1,.321,3.043,4.22,4.22,0,0,1-2.319,2.781,5.18,5.18,0,0,1-2.144.484c-2.547,0-5.094-.017-7.64.007a4.341,4.341,0,0,1-3.139-1.189c-.232-.218-.3-.111-.37.1a12.716,12.716,0,0,0-.647,2.469c-.082.613-.089,1.236-.129,1.855a.565.565,0,0,0-.012.855,26.871,26.871,0,0,0,.13,3.105A7.6,7.6,0,0,0,88.5,62.86a3.984,3.984,0,0,1,.257.757c.055.432.32.512.684.567a4.833,4.833,0,0,1,3.02,1.379A4.681,4.681,0,0,1,93.6,70.085c-.111.441-.02.553.419.53a4.689,4.689,0,0,1,3.962,1.573,5.233,5.233,0,0,1,.824,4.918,4.669,4.669,0,0,1-3.264,2.818c-.048.012-.1.061-.139.056-.922-.129-1.16.5-1.37,1.2a13.852,13.852,0,0,0-.678,3.983c0,1.119-.07,2.243.016,3.355a13.786,13.786,0,0,0,.84,3.577c.153.426.293.69.859.766a4.967,4.967,0,0,1,3.247,1.926,5.221,5.221,0,0,1,.631,4.2,4.421,4.421,0,0,1-1.547,2.171,5.329,5.329,0,0,1-2.959,1.23,5.863,5.863,0,0,1-.837-.1q-22.745,0-45.489-.005c-10.663,0-21.327-.022-31.989.028a15.845,15.845,0,0,1-9.5-3,15.6,15.6,0,0,1-5.594-7.26,16.251,16.251,0,0,1-1-6.826,14.393,14.393,0,0,1,.633-3.2A16.583,16.583,0,0,1,3.9,76.091a15.16,15.16,0,0,1,5.345-4.042,10.028,10.028,0,0,1,2.905-.937c.081-.011.178,0,.189-.115.013-.143-.094-.209-.193-.274A13.511,13.511,0,0,1,9.727,68.63a15.5,15.5,0,0,1-3.238-5.1c-.323-.863-.634-1.738-.871-2.616a13.42,13.42,0,0,1-.2-1.793c-.123-1.019.025-2.045-.049-3.073a6.082,6.082,0,0,1,.25-1.269A14.848,14.848,0,0,1,6.89,50.943a15.9,15.9,0,0,1,1.952-3.066,19,19,0,0,1,2-2.1,15.272,15.272,0,0,1,4.781-2.857,18.818,18.818,0,0,1,3.462-.837c.693-.123.691-.137.6-.828a.28.28,0,0,0,0-.407M73.42,85.8l0-.337a.091.091,0,0,0,0-.144l.012-.373a5.255,5.255,0,0,0,.006-1.257q0-.136,0-.272c0-.046,0-.093,0-.139,0-.09,0-.179,0-.269,0-.046,0-.092,0-.138q0-.135,0-.27v-.137l0-.272a3.407,3.407,0,0,0-.019-1.065l0-.549a.324.324,0,0,0-.025-.355c-.012-.108-.086-.134-.177-.134-1.932,0-3.864,0-5.8,0-.269,0-.315.169-.307.363.08,1.83.032,3.66.028,5.49,0,.387.159.425.464.3.435-.176.863-.376,1.31-.514a3.116,3.116,0,0,1,2.509-.087,6.256,6.256,0,0,0,1.877.685c.329-.111.117-.343.117-.528M88.342,41.888c.18.218.359.225.539,0a4.4,4.4,0,0,1,.61.007.79.79,0,0,0,.946-.585c.241-.621.518-1.23.8-1.833a.3.3,0,0,0-.043-.4A5.48,5.48,0,0,1,90.25,37.5a5.591,5.591,0,0,1-.2-4.145,6.245,6.245,0,0,1,3.943-3.974c.364-.132.459-.243.457-.611-.012-2.223-.009-4.446.023-6.669.005-.383-.21-.361-.4-.3q-1.513.477-3.01,1.007c-.992.35-1.961.777-2.966,1.083-2.775.846-5.481,1.892-8.239,2.787-.238.077-.374.166-.373.482q.027,7.178.011,14.357c0,.309.08.406.4.4,2.816-.022,5.633-.027,8.45-.036m-27.8.005h.3a.066.066,0,0,0,.112,0h.3a.066.066,0,0,0,.112,0h.3a.066.066,0,0,0,.111,0h.3a.066.066,0,0,0,.112,0h.3a.066.066,0,0,0,.112,0h.3a.066.066,0,0,0,.111,0h.3a.066.066,0,0,0,.112,0h.3a.066.066,0,0,0,.112,0h.3a.066.066,0,0,0,.111,0h.3a.066.066,0,0,0,.112,0h.3a.066.066,0,0,0,.112,0h.3a.066.066,0,0,0,.111,0h.3a.066.066,0,0,0,.112,0h.3a.066.066,0,0,0,.112,0h.3a.066.066,0,0,0,.111,0h.3a.066.066,0,0,0,.112,0h.3a.066.066,0,0,0,.112,0h.3a.066.066,0,0,0,.111,0h.3a.066.066,0,0,0,.112,0h.3a.066.066,0,0,0,.112,0h.3a.066.066,0,0,0,.111,0h.3a.066.066,0,0,0,.112,0h.3a.066.066,0,0,0,.112,0h.3a.066.066,0,0,0,.111,0h.3a.066.066,0,0,0,.112,0h.3a.066.066,0,0,0,.112,0h.3a.066.066,0,0,0,.111,0h1.628l1.123-.005h.5l.323,0H75.2l.729,0h.095a.6.6,0,0,0,.423-.052c.091-.021.083-.082.057-.149q-.009-.994-.018-1.989l.018-.018-.016-.02c0-.124,0-.247,0-.37v-.036c0-.123,0-.247,0-.371v-.037c0-.124,0-.247,0-.371v-.037c0-.123,0-.245,0-.368l.017-.021-.018-.02q-.013-.639-.025-1.277l.019-.019-.027-.006a.791.791,0,0,0-.538-.091c-2.828,0-5.656-.014-8.484.016a1.9,1.9,0,0,1-1.922-1.187c.064-1.033.412-1.537,1.207-1.78a3.552,3.552,0,0,1,1.06-.086c2.733,0,5.466,0,8.2.017.415,0,.567-.1.554-.538-.034-1.137-.019-2.275-.022-3.413-.005-2.037,0-4.075-.018-6.112-.006-.832-.211-.956-1-1.169-.752-.2-1.522-.2-2.277-.352-1.024-.208-2.074-.286-3.1-.464-.822-.143-1.666-.147-2.472-.324-1.024-.225-2.072-.164-3.089-.372a14.6,14.6,0,0,1-2.953-.428c-.065-.027-.111-.045-.175.011-.265.231-.593.137-.877.1-1.385-.16-2.778-.209-4.167-.315-.37-.028-.781.15-1.076-.246-.059-.079-.2-.055-.273.031-.16.186-.371.136-.568.133-.8-.011-1.6-.041-2.393-.041-.842,0-1.7.035-2.525,0-1.8-.083-3.591.013-5.378.079-1.481.055-2.97.082-4.452.245a15.943,15.943,0,0,1-2.173.152,4.738,4.738,0,0,0-1.147.046c-.835.193-1.695.163-2.53.335-.945.195-1.923,0-2.872.275a9.693,9.693,0,0,1-2.02.328c-1.7.116-3.359.5-5.036.759-1.107.172-1.187.285-1.19,1.42-.009,3.123,0,6.248-.022,9.372,0,.353.092.479.454.472,1-.019,2-.006,3-.006q16.576,0,33.153,0c1.514,0,1.962.411,2.039,1.858-.254.875-.724,1.187-1.813,1.188q-7.993,0-15.986,0-10.182,0-20.364,0c-.393,0-.478.116-.473.491.021,1.409,0,2.818.008,4.227,0,.17-.092.38.122.505l.023.034.034-.02,2.459.011a.065.065,0,0,0,.111,0h1.927a.066.066,0,0,0,.111,0h1.112a.066.066,0,0,0,.111,0h.3a.066.066,0,0,0,.112,0h.3a.066.066,0,0,0,.112,0h.3a.066.066,0,0,0,.111,0h.3a.066.066,0,0,0,.112,0h.3a.066.066,0,0,0,.112,0h.3a.066.066,0,0,0,.112,0h.3a.066.066,0,0,0,.112,0h.3a.066.066,0,0,0,.112,0h.3a.066.066,0,0,0,.111,0h.3a.066.066,0,0,0,.112,0h.3a.066.066,0,0,0,.112,0h.3a.066.066,0,0,0,.111,0h.3a.066.066,0,0,0,.112,0h.3a.066.066,0,0,0,.112,0h.3a.066.066,0,0,0,.111,0h.3a.066.066,0,0,0,.112,0h.3a.066.066,0,0,0,.112,0h.3a.066.066,0,0,0,.111,0h.3a.066.066,0,0,0,.112,0h.3a.066.066,0,0,0,.112,0h.3a.066.066,0,0,0,.111,0h1.927a.064.064,0,0,0,.109,0H42.5a.066.066,0,0,0,.112,0h.3a.066.066,0,0,0,.112,0h.3a.066.066,0,0,0,.111,0h.3a.066.066,0,0,0,.112,0h.3a.066.066,0,0,0,.112,0h.3a.066.066,0,0,0,.111,0h.3a.066.066,0,0,0,.112,0h.3a.066.066,0,0,0,.112,0h.3a.066.066,0,0,0,.111,0h.3a.066.066,0,0,0,.112,0h.3a.066.066,0,0,0,.112,0h.3a.066.066,0,0,0,.111,0h.3a.066.066,0,0,0,.112,0h.3a.066.066,0,0,0,.112,0h.3a.066.066,0,0,0,.111,0h.3a.066.066,0,0,0,.112,0h.3a.066.066,0,0,0,.112,0h.3a.066.066,0,0,0,.111,0h.3a.066.066,0,0,0,.112,0h.3a.066.066,0,0,0,.112,0h.3a.066.066,0,0,0,.111,0h.3a.066.066,0,0,0,.112,0h.3a.066.066,0,0,0,.112,0h.3a.066.066,0,0,0,.111,0h.3a.066.066,0,0,0,.112,0h.3a.066.066,0,0,0,.112,0h.3a.066.066,0,0,0,.111,0h.3a.066.066,0,0,0,.112,0h.3a.066.066,0,0,0,.112,0h.3a.066.066,0,0,0,.111,0h.3a.066.066,0,0,0,.112,0h.3a.066.066,0,0,0,.112,0h.3a.066.066,0,0,0,.111,0h.3a.066.066,0,0,0,.112,0h.3a.066.066,0,0,0,.112,0h.3a.066.066,0,0,0,.111,0h.3a.066.066,0,0,0,.112,0h.3a.066.066,0,0,0,.112,0h.3a.066.066,0,0,0,.111,0h.3a.066.066,0,0,0,.112,0h.3a.066.066,0,0,0,.112,0h.3a.066.066,0,0,0,.111,0h.3a.066.066,0,0,0,.112,0h.3a.066.066,0,0,0,.112,0h.3a.066.066,0,0,0,.111,0M89.218,70.529a1.6,1.6,0,0,0,1.486-1.3,1.628,1.628,0,0,0-1.082-1.924,3.691,3.691,0,0,0-1.194-.149q-23.424,0-46.848.023a1.985,1.985,0,0,1-2.155-1.31c.052-.161.008-.328.065-.5.318-.947.842-1.275,2.1-1.275q20.817,0,41.633,0c.8,0,1.594.021,2.39.032.053.072.113.045.148-.008s0-.114-.062-.144a28.075,28.075,0,0,1-.823-4.453,20.247,20.247,0,0,1,.809-7.794c.058-.2.011-.205-.16-.3-.447-.247-.855.014-1.277.014q-21.792-.016-43.583-.009c-.357,0-.714.016-1.069,0-.276-.015-.348.094-.341.356.018.729.011,1.459.014,2.189,0,.078,0,.155,0,.232,0,1.816.025,3.631.008,5.447a1.635,1.635,0,0,1-2.375,1.6c-.9-.446-1.881-.724-2.786-1.159A2.415,2.415,0,0,0,32,60.053a28.359,28.359,0,0,1-3.358,1.285,1.355,1.355,0,0,1-1.6-.754,3.542,3.542,0,0,1-.2-1.2c.24-.163.234-.327,0-.491q-.006-3.458-.011-6.917c.235-.076.235-.187.048-.326-.028-.171-.147-.212-.3-.207-2.091.071-4.184-.126-6.277.1a6.24,6.24,0,0,0-4.82,8.883,6.255,6.255,0,0,0,2.921,2.993,4.961,4.961,0,0,0,2.186.64c4.376.031,8.752.028,13.128.036l.082.086.017-.081a1.637,1.637,0,0,1,1.47,1.789c-.178.243-.13.581-.386.8a1.943,1.943,0,0,1-1.357.465q-6.24-.006-12.48.007a8.779,8.779,0,0,1-2.952-.546,9.473,9.473,0,0,1-6.2-9.632,9.4,9.4,0,0,1,7.586-8.439,13.34,13.34,0,0,1,2.679-.159q31.99.006,63.979,0c.39,0,.781-.005,1.171.007a.4.4,0,0,0,.448-.328A21.459,21.459,0,0,1,88.78,45.5c.2-.488.157-.548-.373-.548-4.007,0-8.014-.025-12.021-.013-18.588.053-37.177-.121-55.766.09a10.818,10.818,0,0,0-4.5,1.018,12.666,12.666,0,0,0-7.381,9.1,12.271,12.271,0,0,0,0,5.259A12.8,12.8,0,0,0,22.158,70.551l.02.018.02-.018h.375c.134.012.268.034.4.034q8.55,0,17.1,0c.117,0,.234-.021.352-.032h.485c.168.011.337.032.5.032q23.6,0,47.2,0a1.1,1.1,0,0,0,.6-.058m-12.7,13.956c0,1.256.007,2.511,0,3.767a3.6,3.6,0,0,1-.067.757,1.359,1.359,0,0,1-.913,1.029,2.417,2.417,0,0,1-1.7-.209c-.788-.225-1.532-.605-2.3-.905-.509-.2-1.017-.547-1.583-.351-1.2.415-2.4.864-3.556,1.4-.481.222-.985.027-1.478.058-.093.006-.2-.111-.29-.185a1.614,1.614,0,0,1-.549-1.347c.007-2.7,0-5.394,0-8.092,0-.043-.005-.087-.008-.13-.088-.344-.367-.175-.548-.175Q40,80.086,16.466,80.092a9.674,9.674,0,0,0-1.452.09,6.313,6.313,0,0,0-3.6,1.727,6.083,6.083,0,0,0-1.824,5.568,6.3,6.3,0,0,0,2.825,4.285,6.64,6.64,0,0,0,3.92,1c8.08-.03,16.161-.02,24.242-.021l34.937,0c1.705,0,2.1.329,2.163,1.8a1.249,1.249,0,0,1-.865,1.144,2.731,2.731,0,0,1-1.1.155q-29.75,0-59.5-.011a10.435,10.435,0,0,1-2.6-.242A9.493,9.493,0,0,1,6.663,84.581,9.013,9.013,0,0,1,9.488,79.52a9.829,9.829,0,0,1,6.841-2.487q12.124,0,24.248,0,26.974,0,53.946,0a1.784,1.784,0,0,0,1.513-2.181c-.257-.728-.817-1.2-2.146-1.2q-38.435.006-76.871.013c-.878,0-1.753,0-2.635.089a11.717,11.717,0,0,0-4.16,1.208,12.817,12.817,0,0,0,5.735,24.279q35,.015,69.994,0c2.836,0,5.671-.023,8.507.015a1.873,1.873,0,0,0,1.643-1.4,1.7,1.7,0,0,0-1.237-1.906,5.117,5.117,0,0,0-1.367-.1c-3.226-.005-6.453-.013-9.679,0a1.883,1.883,0,0,1-2.014-1.289,1.572,1.572,0,0,1,.844-1.589,3.2,3.2,0,0,1,1.32-.245c1.443.026,2.886.012,4.329.013h2.958a32.543,32.543,0,0,1-.911-4.728,26.02,26.02,0,0,1,0-3.379,13.717,13.717,0,0,1,.731-3.783c.265-.767.267-.764-.5-.764q-2.522,0-5.043,0c-2.836,0-5.671.015-8.506-.013-.51-.005-.647.143-.589.619s.06.942.086,1.414l-.112.063.111.065q0,.189,0,.378c-.236.146-.249.293,0,.441v.984c-.244.148-.245.3,0,.443m19.41-33.939v0c1.272,0,2.544-.029,3.815.008,1.243.036,1.745-.847,1.347-1.964-.355-.995-.77-1.968-1.164-2.947-.541-1.344-1.123-2.673-1.611-4.035-.171-.476-.347-.5-.766-.382a8.3,8.3,0,0,1-1.483.242,4.084,4.084,0,0,1-1.692-.231c-.385-.131-.576-.063-.725.337a20.433,20.433,0,0,1-1.1,2.624,15.8,15.8,0,0,0-.851,1.924c-.307.811-.581,1.655-.923,2.446a1.352,1.352,0,0,0,1.386,2c1.251-.065,2.509-.015,3.764-.015m-62.884.9v0q-1.375,0-2.749,0c-.4,0-.553.163-.412.567a1.272,1.272,0,0,1,.019.4c0,1.578.007,3.157-.018,4.735-.007.463.181.469.52.334.6-.238,1.2-.468,1.8-.7a1.848,1.848,0,0,1,1.437-.067c.623.292,1.275.487,1.911.734.548.212.764.116.724-.441-.124-1.729-.042-3.457-.046-5.186,0-.337-.153-.393-.436-.39-.916.009-1.833,0-2.749,0M98.954,35.305a2.97,2.97,0,0,0-2.61-3.124c-2.1-.014-3.545,1.214-3.485,3.084a3.048,3.048,0,1,0,6.1.04" transform="translate(0 0)"/>
          <path id="Trazado_824185" data-name="Trazado 824185" d="M42.109,10.589c.218.207.274.517.523.721a1.828,1.828,0,0,0,1.989.059c2.5-.936,5.04-1.731,7.554-2.616.669-.236,1.343-.459,2.007-.708a6.66,6.66,0,0,1,4.857.058c2.317.846,4.676,1.59,7.011,2.4q10.635,3.672,21.267,7.352,6.65,2.3,13.3,4.6c.285.1.778.1.779.443,0,.281-.484.265-.757.36Q94.158,25.5,87.67,27.732c-.349.12-.757.418-1.033.323-.394-.135-.128-.656-.2-1a3.994,3.994,0,0,0-3.356-3.192c-1.2-.222-2.41-.368-3.609-.566-1.948-.322-3.9-.6-5.861-.8-1.356-.143-2.709-.338-4.078-.391-1.26-.049-2.515-.231-3.775-.293-3.721-.185-7.443-.4-11.171-.293-3.49.1-6.98.2-10.46.508-3.452.3-6.9.669-10.32,1.213-1.3.207-2.6.408-3.9.647a3.939,3.939,0,0,0-3.28,3.954c0,.082-.018.163-.032.281-1.379-.476-2.733-.942-4.086-1.41q-5.188-1.8-10.374-3.6c-.128-.045-.351-.016-.366-.213-.016-.225.2-.236.357-.289,2.579-.888,5.161-1.769,7.737-2.666,2.641-.919,5.265-1.889,7.92-2.766,1.241-.41,2.494-.8,3.725-1.228,1.4-.484,2.811-.979,4.205-1.5.424-.159.859-.283,1.278-.462a1.62,1.62,0,0,0,1.241-1.931,7.222,7.222,0,0,1,2.237-.933,6.687,6.687,0,0,1,1.632-.527" transform="translate(-6.96 -4.501)" fill="#858390"/>
          <path id="Trazado_824186" data-name="Trazado 824186" d="M214.47,139.839a.566.566,0,0,1,.012-.855,2.075,2.075,0,0,1-.012.855" transform="translate(-126.655 -82.149)" fill="#858390"/>
          <path id="Trazado_824187" data-name="Trazado 824187" d="M47.948,99.9a.279.279,0,0,1,0,.407c-.176-.136-.181-.272,0-.407" transform="translate(-28.261 -59.047)" fill="#858390"/>
          <path id="Trazado_824188" data-name="Trazado 824188" d="M91.406,210.262c-.067-1.475-.458-1.8-2.163-1.8q-17.469,0-34.937,0c-8.081,0-16.161-.009-24.242.021a6.646,6.646,0,0,1-3.92-1,6.3,6.3,0,0,1-2.824-4.285,6.085,6.085,0,0,1,1.823-5.568,6.314,6.314,0,0,1,3.6-1.727,9.677,9.677,0,0,1,1.452-.09q23.529,0,47.059.007c.181,0,.46-.169.548.175-.081.049-.064.091.008.13,0,2.7,0,5.394,0,8.092a1.612,1.612,0,0,0,.549,1.347c.09.074.2.191.29.186.493-.031,1,.163,1.478-.058,1.159-.534,2.352-.983,3.556-1.4.567-.2,1.075.153,1.584.351.768.3,1.512.68,2.3.905a2.416,2.416,0,0,0,1.7.209,1.359,1.359,0,0,0,.913-1.029,3.6,3.6,0,0,0,.067-.757c0-1.256,0-2.512,0-3.767a.593.593,0,0,0,0-.443q0-.492,0-.984a.6.6,0,0,0,0-.441q0-.189,0-.378v-.129c-.027-.471-.029-.946-.086-1.414s.079-.624.588-.619c2.835.028,5.671.013,8.506.013q2.522,0,5.043,0c.769,0,.768,0,.5.764a13.713,13.713,0,0,0-.73,3.783,26.018,26.018,0,0,0,0,3.379,32.525,32.525,0,0,0,.911,4.728h-2.958c-1.443,0-2.887.013-4.329-.013a3.2,3.2,0,0,0-1.32.245,1.572,1.572,0,0,0-.844,1.589l-4.129-.019" transform="translate(-13.728 -115.715)" fill="#f7f9fb"/>
          <path id="Trazado_824189" data-name="Trazado 824189" d="M56.781,140.086a1.638,1.638,0,0,0-1.47-1.789c-.031-.05-.064-.049-.1,0-4.376-.009-8.752-.006-13.128-.037a4.957,4.957,0,0,1-2.185-.64,6.257,6.257,0,0,1-2.921-2.994,6.24,6.24,0,0,1,4.82-8.882c2.093-.223,4.186-.025,6.277-.1.15,0,.269.036.3.207-.132.092-.1.207-.048.326q.006,3.458.011,6.917a.534.534,0,0,0,0,.491,3.544,3.544,0,0,0,.2,1.2,1.354,1.354,0,0,0,1.6.754,28.27,28.27,0,0,0,3.359-1.285,2.417,2.417,0,0,1,2.113.045c.9.436,1.886.713,2.786,1.159a1.634,1.634,0,0,0,2.375-1.595c.017-1.815,0-3.631-.008-5.447.07-.012.138-.036.138-.117s-.072-.1-.14-.115c0-.73,0-1.46-.014-2.189-.006-.262.065-.37.341-.355.355.019.712,0,1.069,0q21.792,0,43.583.009c.422,0,.83-.261,1.277-.014.171.094.218.1.16.3a20.255,20.255,0,0,0-.809,7.794,28.114,28.114,0,0,0,.824,4.453c-.071.027-.11.071-.085.152-.8-.011-1.594-.032-2.391-.032q-20.816,0-41.633,0c-1.257,0-1.781.328-2.1,1.275-.057.17-.014.336-.065.5l-4.124.02" transform="translate(-21.48 -74.194)" fill="#f7f9fb"/>
          <path id="Trazado_824190" data-name="Trazado 824190" d="M94.214,64.287c-.078-1.446-.525-1.859-2.039-1.859q-16.576,0-33.153,0c-1,0-2-.013-3,.007-.362.007-.456-.119-.454-.472.017-3.124.013-6.248.022-9.371,0-1.135.083-1.248,1.19-1.42,1.677-.26,3.335-.643,5.036-.759a9.7,9.7,0,0,0,2.02-.329c.95-.274,1.927-.081,2.872-.275.835-.172,1.695-.141,2.53-.335a4.676,4.676,0,0,1,1.147-.046,16.073,16.073,0,0,0,2.173-.152c1.482-.163,2.971-.191,4.452-.245,1.788-.066,3.58-.162,5.379-.079.829.038,1.683,0,2.525,0,.8,0,1.595.03,2.393.04.2,0,.408.054.568-.133.074-.085.213-.11.273-.03.3.4.706.217,1.077.245,1.389.106,2.782.154,4.167.315.283.033.611.127.876-.1.064-.056.11-.038.175-.011a14.649,14.649,0,0,0,2.953.428c1.017.208,2.064.146,3.088.371.806.177,1.65.182,2.472.324,1.031.178,2.081.256,3.1.464.754.154,1.525.15,2.277.352.788.212.992.337,1,1.169.016,2.037.012,4.075.017,6.112,0,1.138-.012,2.276.022,3.412.013.441-.138.541-.553.538-2.733-.02-5.466-.018-8.2-.017a3.542,3.542,0,0,0-1.06.086c-.795.243-1.143.747-1.207,1.78l-4.139-.013" transform="translate(-32.842 -28.836)" fill="#858390"/>
          <path id="Trazado_824191" data-name="Trazado 824191" d="M82.114,200.99l4.129.019a1.883,1.883,0,0,0,2.014,1.289c3.226-.014,6.453-.006,9.679,0a5.151,5.151,0,0,1,1.367.1,1.7,1.7,0,0,1,1.238,1.906,1.872,1.872,0,0,1-1.644,1.4c-2.835-.038-5.671-.014-8.507-.014q-35,0-69.994,0a12.525,12.525,0,0,1-9.624-4.351A12.749,12.749,0,0,1,14.66,181.4a11.721,11.721,0,0,1,4.16-1.208c.881-.087,1.757-.089,2.635-.089q38.435-.012,76.871-.013c1.33,0,1.89.475,2.147,1.2a1.784,1.784,0,0,1-1.513,2.181q-26.974-.013-53.946,0-12.124,0-24.248,0a9.83,9.83,0,0,0-6.842,2.487,9.01,9.01,0,0,0-2.824,5.061,9.493,9.493,0,0,0,6.947,11.012,10.432,10.432,0,0,0,2.6.242q29.749.027,59.5.01a2.729,2.729,0,0,0,1.1-.155,1.249,1.249,0,0,0,.866-1.144" transform="translate(-4.437 -106.444)" fill="#ee5227"/>
          <path id="Trazado_824192" data-name="Trazado 824192" d="M47.518,130.822l4.124-.02a1.985,1.985,0,0,0,2.155,1.309q23.424-.033,46.848-.023a3.68,3.68,0,0,1,1.194.149,1.628,1.628,0,0,1,1.082,1.923,1.6,1.6,0,0,1-1.486,1.3c-.067-.005-.134-.016-.2-.016q-23.827,0-47.654,0c-.15,0-.3.025-.45.039h-.485a3.038,3.038,0,0,0-.348-.039q-8.579,0-17.158,0a3.257,3.257,0,0,0-.349.036h-.375l-.02-.024-.021.024a12.8,12.8,0,0,1-13.417-10.146,12.266,12.266,0,0,1,0-5.26,12.666,12.666,0,0,1,7.381-9.1,10.8,10.8,0,0,1,4.5-1.018c18.588-.211,37.177-.037,55.765-.09,4.007-.011,8.014.008,12.021.013.53,0,.572.06.373.548a21.369,21.369,0,0,0-.986,2.572.4.4,0,0,1-.448.327c-.39-.012-.781-.007-1.172-.007q-31.989,0-63.979,0a13.368,13.368,0,0,0-2.679.159,9.4,9.4,0,0,0-7.586,8.44,9.472,9.472,0,0,0,6.2,9.632,8.779,8.779,0,0,0,2.952.546q6.239-.013,12.48-.007a1.941,1.941,0,0,0,1.357-.465c.256-.224.208-.562.386-.8" transform="translate(-12.217 -64.93)" fill="#b6e545"/>
          <path id="Trazado_824193" data-name="Trazado 824193" d="M94.218,86.692l4.139.013a1.9,1.9,0,0,0,1.922,1.187c2.828-.03,5.656-.015,8.484-.016a.792.792,0,0,1,.537.09l.009.025.025,1.277-.029.022.03.02c0,.123,0,.246,0,.368l-.03.018.03.019v.37l-.03.019.03.02v.37l-.03.018.03.019q0,.185,0,.37l-.031.018.03.02q.009.994.018,1.989a.106.106,0,0,0-.057.15.6.6,0,0,1-.422.052.085.085,0,0,0-.095,0l-.729,0a.068.068,0,0,0-.082,0l-.323,0a.079.079,0,0,0-.09,0h-.316a.081.081,0,0,0-.092,0l-1.123,0h-47.8l-2.459-.012a.037.037,0,0,0-.057-.013c-.213-.125-.121-.335-.122-.505-.006-1.409.013-2.818-.007-4.227-.006-.375.08-.492.473-.491q10.182.012,20.364,0,7.993,0,15.986,0c1.089,0,1.558-.312,1.813-1.188" transform="translate(-32.846 -51.241)" fill="#fdcd07"/>
          <path id="Trazado_824194" data-name="Trazado 824194" d="M226.9,110.041c-1.255,0-2.512-.05-3.763.015a1.353,1.353,0,0,1-1.386-2c.343-.791.616-1.635.924-2.446a15.823,15.823,0,0,1,.851-1.924,20.428,20.428,0,0,0,1.1-2.624c.149-.4.34-.468.725-.337a4.084,4.084,0,0,0,1.692.23,8.288,8.288,0,0,0,1.483-.242c.419-.117.6-.094.766.382.488,1.363,1.07,2.692,1.611,4.035.394.98.809,1.953,1.164,2.947.4,1.118-.1,2-1.347,1.965-1.271-.037-2.543-.008-3.815-.008Z" transform="translate(-130.979 -59.495)" fill="#fdcd07"/>
          <path id="Trazado_824195" data-name="Trazado 824195" d="M170.443,198.36c0,.09,0,.18,0,.269-.061.046-.06.092,0,.139q0,.134,0,.268c-.061.046-.059.093,0,.14v.272a3.568,3.568,0,0,0-.005,1.257q-.007.186-.013.372a.1.1,0,0,0,0,.144l0,.336c-.077.168.02.374-.117.529a6.256,6.256,0,0,1-1.877-.685,3.117,3.117,0,0,0-2.51.087c-.447.138-.875.338-1.31.514-.3.123-.464.085-.463-.3,0-1.83.052-3.66-.028-5.49-.009-.194.038-.364.307-.363,1.932,0,3.864,0,5.8,0,.091,0,.166.027.177.133s.017.237.025.356c0,.183,0,.366,0,.548a2.9,2.9,0,0,0,.019,1.066c0,.09,0,.181,0,.271-.061.046-.06.092,0,.138" transform="translate(-97.005 -115.76)" fill="#fdcd07"/>
          <path id="Trazado_824196" data-name="Trazado 824196" d="M76.153,125.794c.916,0,1.833.006,2.749,0,.283,0,.434.054.435.39,0,1.729-.078,3.458.046,5.186.04.556-.176.653-.724.44-.636-.247-1.288-.441-1.911-.734a1.847,1.847,0,0,0-1.437.067c-.6.23-1.2.46-1.8.7-.339.135-.527.129-.52-.334.024-1.578.015-3.157.017-4.735a1.252,1.252,0,0,0-.019-.4c-.141-.4.011-.568.412-.567q1.375,0,2.749,0v0" transform="translate(-43.113 -74.35)" fill="#ee5227"/>
          <path id="Trazado_824197" data-name="Trazado 824197" d="M233.169,81.819a3.048,3.048,0,1,1-6.1-.04c-.06-1.87,1.384-3.1,3.485-3.084a2.97,2.97,0,0,1,2.61,3.124" transform="translate(-134.215 -46.514)" fill="#fdcd07"/>
          <path id="Trazado_824198" data-name="Trazado 824198" d="M100.048,172.474c.15-.014.3-.039.451-.039q23.827,0,47.654,0c.067,0,.135.01.2.015a1.094,1.094,0,0,1-.6.059q-23.6,0-47.2,0c-.168,0-.337-.02-.5-.031" transform="translate(-59.135 -101.92)" fill="#858390"/>
          <path id="Trazado_824199" data-name="Trazado 824199" d="M55.2,172.47a3.277,3.277,0,0,1,.349-.037q8.579,0,17.158,0a3.038,3.038,0,0,1,.348.039c-.118.011-.235.032-.352.032q-8.551,0-17.1,0c-.134,0-.268-.022-.4-.034" transform="translate(-32.627 -101.919)" fill="#858390"/>
          <path id="Trazado_824200" data-name="Trazado 824200" d="M179.487,205.908a3.568,3.568,0,0,1,.006-1.257,5.3,5.3,0,0,1-.006,1.257" transform="translate(-106.058 -120.963)" fill="#ee5227"/>
          <path id="Trazado_824201" data-name="Trazado 824201" d="M179.493,199.45a2.9,2.9,0,0,1-.019-1.065,3.41,3.41,0,0,1,.019,1.065" transform="translate(-106.058 -117.259)" fill="#ee5227"/>
          <path id="Trazado_824202" data-name="Trazado 824202" d="M216.031,102.375a.924.924,0,0,1,.539,0c-.18.223-.36.216-.539,0" transform="translate(-127.689 -60.487)" fill="#858390"/>
          <path id="Trazado_824203" data-name="Trazado 824203" d="M65.579,144.52a.534.534,0,0,1,0-.49c.233.164.24.327,0,.49" transform="translate(-38.727 -85.132)" fill="#858390"/>
          <path id="Trazado_824204" data-name="Trazado 824204" d="M186.85,202.03a.6.6,0,0,1,0,.442c-.247-.148-.234-.3,0-.442" transform="translate(-110.334 -119.414)" fill="#858390"/>
          <path id="Trazado_824205" data-name="Trazado 824205" d="M186.844,205.516a.592.592,0,0,1,0,.443c-.244-.148-.243-.3,0-.443" transform="translate(-110.329 -121.474)" fill="#858390"/>
          <path id="Trazado_824206" data-name="Trazado 824206" d="M179.252,210.341c.137-.155.04-.361.117-.529,0,.185.212.417-.117.529" transform="translate(-105.95 -124.013)" fill="#ee5227"/>
          <path id="Trazado_824207" data-name="Trazado 824207" d="M65.575,126.645c-.054-.119-.084-.234.048-.326.187.139.186.249-.048.326" transform="translate(-38.732 -74.663)" fill="#858390"/>
          <path id="Trazado_824208" data-name="Trazado 824208" d="M179.5,196.53l-.026-.356a.325.325,0,0,1,.026.356" transform="translate(-106.083 -115.952)" fill="#ee5227"/>
          <path id="Trazado_824209" data-name="Trazado 824209" d="M209.342,156.62c-.025-.081.014-.125.085-.152.064.03.1.081.062.144s-.094.08-.147.008" transform="translate(-123.731 -92.483)" fill="#858390"/>
          <path id="Trazado_824210" data-name="Trazado 824210" d="M96.022,132.012c.068.014.139.034.14.115s-.068.1-.138.117c0-.077,0-.155,0-.232" transform="translate(-56.756 -78.028)" fill="#858390"/>
          <path id="Trazado_824211" data-name="Trazado 824211" d="M186.961,200.792c0,.043,0,.086,0,.128l-.111-.065.112-.063" transform="translate(-110.441 -118.682)" fill="#858390"/>
          <path id="Trazado_824212" data-name="Trazado 824212" d="M179.484,208.781a.1.1,0,0,1,0-.144.091.091,0,0,1,0,.144" transform="translate(-106.07 -123.319)" fill="#ee5227"/>
          <path id="Trazado_824213" data-name="Trazado 824213" d="M82.487,156.7c.035-.045.068-.046.1,0l-.017.082-.082-.086" transform="translate(-48.755 -92.6)" fill="#858390"/>
          <path id="Trazado_824214" data-name="Trazado 824214" d="M179.518,201.791c-.06-.046-.061-.092,0-.138v.138" transform="translate(-106.081 -119.191)" fill="#ee5227"/>
          <path id="Trazado_824215" data-name="Trazado 824215" d="M179.518,202.788c-.06-.047-.061-.093,0-.139,0,.047,0,.092,0,.139" transform="translate(-106.081 -119.779)" fill="#ee5227"/>
          <path id="Trazado_824216" data-name="Trazado 824216" d="M186.933,102.09a.106.106,0,0,1,.057-.15c.026.067.034.128-.057.15" transform="translate(-110.484 -60.254)" fill="#ee5227"/>
          <path id="Trazado_824217" data-name="Trazado 824217" d="M179.516,203.785c-.059-.047-.06-.094,0-.14,0,.047,0,.093,0,.14" transform="translate(-106.08 -120.368)" fill="#ee5227"/>
          <path id="Trazado_824218" data-name="Trazado 824218" d="M136.82,102.445h.112a.066.066,0,0,1-.112,0" transform="translate(-80.87 -60.552)" fill="#ee5227"/>
          <path id="Trazado_824219" data-name="Trazado 824219" d="M173.7,102.445h.111a.066.066,0,0,1-.111,0" transform="translate(-102.667 -60.552)" fill="#ee5227"/>
          <path id="Trazado_824220" data-name="Trazado 824220" d="M85.99,102.445H86.1a.066.066,0,0,1-.112,0" transform="translate(-50.826 -60.552)" fill="#ee5227"/>
          <path id="Trazado_824221" data-name="Trazado 824221" d="M86.986,102.445H87.1a.066.066,0,0,1-.112,0" transform="translate(-51.415 -60.552)" fill="#ee5227"/>
          <path id="Trazado_824222" data-name="Trazado 824222" d="M87.983,102.445h.112a.066.066,0,0,1-.112,0" transform="translate(-52.004 -60.552)" fill="#ee5227"/>
          <path id="Trazado_824223" data-name="Trazado 824223" d="M88.98,102.445h.112a.066.066,0,0,1-.112,0" transform="translate(-52.593 -60.552)" fill="#ee5227"/>
          <path id="Trazado_824224" data-name="Trazado 824224" d="M89.976,102.445h.112a.066.066,0,0,1-.112,0" transform="translate(-53.182 -60.552)" fill="#ee5227"/>
          <path id="Trazado_824225" data-name="Trazado 824225" d="M187,93.033l-.03-.02.029-.022.018.02Z" transform="translate(-110.514 -54.964)" fill="#ee5227"/>
          <path id="Trazado_824226" data-name="Trazado 824226" d="M187.008,94.031l-.03-.019.03-.018v.038" transform="translate(-110.517 -55.557)" fill="#ee5227"/>
          <path id="Trazado_824227" data-name="Trazado 824227" d="M187.008,95.028l-.03-.02.03-.019v.038" transform="translate(-110.517 -56.145)" fill="#ee5227"/>
          <path id="Trazado_824228" data-name="Trazado 824228" d="M103.929,102.445h.112a.067.067,0,0,1-.112,0" transform="translate(-61.429 -60.552)" fill="#ee5227"/>
          <path id="Trazado_824229" data-name="Trazado 824229" d="M104.926,102.445h.112a.066.066,0,0,1-.112,0" transform="translate(-62.018 -60.552)" fill="#ee5227"/>
          <path id="Trazado_824230" data-name="Trazado 824230" d="M105.923,102.445h.112a.066.066,0,0,1-.112,0" transform="translate(-62.608 -60.552)" fill="#ee5227"/>
          <path id="Trazado_824231" data-name="Trazado 824231" d="M106.92,102.445h.112a.066.066,0,0,1-.112,0" transform="translate(-63.197 -60.552)" fill="#ee5227"/>
          <path id="Trazado_824232" data-name="Trazado 824232" d="M107.916,102.445h.112a.066.066,0,0,1-.112,0" transform="translate(-63.786 -60.552)" fill="#ee5227"/>
          <path id="Trazado_824233" data-name="Trazado 824233" d="M108.913,102.445h.112a.066.066,0,0,1-.112,0" transform="translate(-64.375 -60.552)" fill="#ee5227"/>
          <path id="Trazado_824234" data-name="Trazado 824234" d="M109.91,102.445h.112a.066.066,0,0,1-.112,0" transform="translate(-64.964 -60.552)" fill="#ee5227"/>
          <path id="Trazado_824235" data-name="Trazado 824235" d="M110.906,102.445h.112a.066.066,0,0,1-.112,0" transform="translate(-65.553 -60.552)" fill="#ee5227"/>
          <path id="Trazado_824236" data-name="Trazado 824236" d="M111.9,102.445h.112a.066.066,0,0,1-.112,0" transform="translate(-66.142 -60.552)" fill="#ee5227"/>
          <path id="Trazado_824237" data-name="Trazado 824237" d="M112.9,102.445h.112a.066.066,0,0,1-.112,0" transform="translate(-66.732 -60.552)" fill="#ee5227"/>
          <path id="Trazado_824238" data-name="Trazado 824238" d="M113.9,102.445h.112a.066.066,0,0,1-.112,0" transform="translate(-67.32 -60.552)" fill="#ee5227"/>
          <path id="Trazado_824239" data-name="Trazado 824239" d="M114.893,102.445H115a.066.066,0,0,1-.112,0" transform="translate(-67.91 -60.552)" fill="#ee5227"/>
          <path id="Trazado_824240" data-name="Trazado 824240" d="M115.89,102.445H116a.066.066,0,0,1-.112,0" transform="translate(-68.499 -60.552)" fill="#ee5227"/>
          <path id="Trazado_824241" data-name="Trazado 824241" d="M116.886,102.445H117a.066.066,0,0,1-.112,0" transform="translate(-69.088 -60.552)" fill="#ee5227"/>
          <path id="Trazado_824242" data-name="Trazado 824242" d="M117.883,102.445h.112a.066.066,0,0,1-.112,0" transform="translate(-69.677 -60.552)" fill="#ee5227"/>
          <path id="Trazado_824243" data-name="Trazado 824243" d="M118.88,102.445h.112a.066.066,0,0,1-.112,0" transform="translate(-70.266 -60.552)" fill="#ee5227"/>
          <path id="Trazado_824244" data-name="Trazado 824244" d="M119.876,102.445h.112a.066.066,0,0,1-.112,0" transform="translate(-70.855 -60.552)" fill="#ee5227"/>
          <path id="Trazado_824245" data-name="Trazado 824245" d="M120.873,102.445h.112a.066.066,0,0,1-.112,0" transform="translate(-71.444 -60.552)" fill="#ee5227"/>
          <path id="Trazado_824246" data-name="Trazado 824246" d="M121.87,102.445h.112a.066.066,0,0,1-.112,0" transform="translate(-72.034 -60.552)" fill="#ee5227"/>
          <path id="Trazado_824247" data-name="Trazado 824247" d="M122.866,102.445h.112a.066.066,0,0,1-.112,0" transform="translate(-72.622 -60.552)" fill="#ee5227"/>
          <path id="Trazado_824248" data-name="Trazado 824248" d="M123.863,102.445h.112a.066.066,0,0,1-.112,0" transform="translate(-73.212 -60.552)" fill="#ee5227"/>
          <path id="Trazado_824249" data-name="Trazado 824249" d="M124.86,102.445h.112a.066.066,0,0,1-.112,0" transform="translate(-73.801 -60.552)" fill="#ee5227"/>
          <path id="Trazado_824250" data-name="Trazado 824250" d="M125.856,102.445h.112a.066.066,0,0,1-.112,0" transform="translate(-74.39 -60.552)" fill="#ee5227"/>
          <path id="Trazado_824251" data-name="Trazado 824251" d="M126.853,102.445h.112a.066.066,0,0,1-.112,0" transform="translate(-74.979 -60.552)" fill="#ee5227"/>
          <path id="Trazado_824252" data-name="Trazado 824252" d="M127.85,102.445h.112a.066.066,0,0,1-.112,0" transform="translate(-75.568 -60.552)" fill="#ee5227"/>
          <path id="Trazado_824253" data-name="Trazado 824253" d="M128.846,102.445h.112a.066.066,0,0,1-.112,0" transform="translate(-76.157 -60.552)" fill="#ee5227"/>
          <path id="Trazado_824254" data-name="Trazado 824254" d="M129.843,102.445h.112a.066.066,0,0,1-.112,0" transform="translate(-76.746 -60.552)" fill="#ee5227"/>
          <path id="Trazado_824255" data-name="Trazado 824255" d="M130.84,102.445h.112a.066.066,0,0,1-.112,0" transform="translate(-77.335 -60.552)" fill="#ee5227"/>
          <path id="Trazado_824256" data-name="Trazado 824256" d="M186.97,89.833l-.009-.025.028.006Z" transform="translate(-110.507 -53.082)" fill="#ee5227"/>
          <path id="Trazado_824257" data-name="Trazado 824257" d="M84,102.445h.112a.066.066,0,0,1-.112,0" transform="translate(-49.647 -60.552)" fill="#ee5227"/>
          <path id="Trazado_824258" data-name="Trazado 824258" d="M83,102.445h.112a.066.066,0,0,1-.112,0" transform="translate(-49.059 -60.552)" fill="#ee5227"/>
          <path id="Trazado_824259" data-name="Trazado 824259" d="M134.826,102.445h.112a.066.066,0,0,1-.112,0" transform="translate(-79.691 -60.552)" fill="#ee5227"/>
          <path id="Trazado_824260" data-name="Trazado 824260" d="M135.823,102.445h.112a.066.066,0,0,1-.112,0" transform="translate(-80.281 -60.552)" fill="#ee5227"/>
          <path id="Trazado_824261" data-name="Trazado 824261" d="M90.973,102.445h.112a.066.066,0,0,1-.112,0" transform="translate(-53.771 -60.552)" fill="#ee5227"/>
          <path id="Trazado_824262" data-name="Trazado 824262" d="M137.816,102.445h.112a.066.066,0,0,1-.112,0" transform="translate(-81.459 -60.552)" fill="#ee5227"/>
          <path id="Trazado_824263" data-name="Trazado 824263" d="M138.813,102.445h.112a.066.066,0,0,1-.112,0" transform="translate(-82.048 -60.552)" fill="#ee5227"/>
          <path id="Trazado_824264" data-name="Trazado 824264" d="M139.81,102.445h.112a.066.066,0,0,1-.112,0" transform="translate(-82.637 -60.552)" fill="#ee5227"/>
          <path id="Trazado_824265" data-name="Trazado 824265" d="M140.806,102.445h.112a.066.066,0,0,1-.112,0" transform="translate(-83.226 -60.552)" fill="#ee5227"/>
          <path id="Trazado_824266" data-name="Trazado 824266" d="M141.8,102.445h.112a.066.066,0,0,1-.112,0" transform="translate(-83.815 -60.552)" fill="#ee5227"/>
          <path id="Trazado_824267" data-name="Trazado 824267" d="M142.8,102.445h.112a.066.066,0,0,1-.112,0" transform="translate(-84.405 -60.552)" fill="#ee5227"/>
          <path id="Trazado_824268" data-name="Trazado 824268" d="M143.8,102.445h.112a.066.066,0,0,1-.112,0" transform="translate(-84.993 -60.552)" fill="#ee5227"/>
          <path id="Trazado_824269" data-name="Trazado 824269" d="M144.793,102.445h.112a.066.066,0,0,1-.112,0" transform="translate(-85.583 -60.552)" fill="#ee5227"/>
          <path id="Trazado_824270" data-name="Trazado 824270" d="M145.79,102.445h.112a.066.066,0,0,1-.112,0" transform="translate(-86.172 -60.552)" fill="#ee5227"/>
          <path id="Trazado_824271" data-name="Trazado 824271" d="M146.786,102.445h.112a.066.066,0,0,1-.112,0" transform="translate(-86.761 -60.552)" fill="#ee5227"/>
          <path id="Trazado_824272" data-name="Trazado 824272" d="M147.783,102.445h.112a.066.066,0,0,1-.112,0" transform="translate(-87.35 -60.552)" fill="#ee5227"/>
          <path id="Trazado_824273" data-name="Trazado 824273" d="M148.78,102.445h.112a.066.066,0,0,1-.112,0" transform="translate(-87.939 -60.552)" fill="#ee5227"/>
          <path id="Trazado_824274" data-name="Trazado 824274" d="M149.776,102.445h.112a.066.066,0,0,1-.112,0" transform="translate(-88.528 -60.552)" fill="#ee5227"/>
          <path id="Trazado_824275" data-name="Trazado 824275" d="M150.773,102.445h.112a.066.066,0,0,1-.112,0" transform="translate(-89.117 -60.552)" fill="#ee5227"/>
          <path id="Trazado_824276" data-name="Trazado 824276" d="M151.77,102.445h.112a.066.066,0,0,1-.112,0" transform="translate(-89.706 -60.552)" fill="#ee5227"/>
          <path id="Trazado_824277" data-name="Trazado 824277" d="M152.766,102.445h.112a.066.066,0,0,1-.112,0" transform="translate(-90.295 -60.552)" fill="#ee5227"/>
          <path id="Trazado_824278" data-name="Trazado 824278" d="M153.763,102.445h.112a.066.066,0,0,1-.112,0" transform="translate(-90.884 -60.552)" fill="#ee5227"/>
          <path id="Trazado_824279" data-name="Trazado 824279" d="M154.76,102.445h.112a.066.066,0,0,1-.112,0" transform="translate(-91.474 -60.552)" fill="#ee5227"/>
          <path id="Trazado_824280" data-name="Trazado 824280" d="M155.756,102.445h.112a.066.066,0,0,1-.112,0" transform="translate(-92.062 -60.552)" fill="#ee5227"/>
          <path id="Trazado_824281" data-name="Trazado 824281" d="M156.753,102.445h.112a.066.066,0,0,1-.112,0" transform="translate(-92.652 -60.552)" fill="#ee5227"/>
          <path id="Trazado_824282" data-name="Trazado 824282" d="M157.75,102.445h.112a.066.066,0,0,1-.112,0" transform="translate(-93.241 -60.552)" fill="#ee5227"/>
          <path id="Trazado_824283" data-name="Trazado 824283" d="M158.746,102.445h.112a.066.066,0,0,1-.112,0" transform="translate(-93.83 -60.552)" fill="#ee5227"/>
          <path id="Trazado_824284" data-name="Trazado 824284" d="M159.743,102.445h.112a.066.066,0,0,1-.112,0" transform="translate(-94.419 -60.552)" fill="#ee5227"/>
          <path id="Trazado_824285" data-name="Trazado 824285" d="M160.74,102.445h.112a.066.066,0,0,1-.112,0" transform="translate(-95.008 -60.552)" fill="#ee5227"/>
          <path id="Trazado_824286" data-name="Trazado 824286" d="M161.736,102.445h.112a.066.066,0,0,1-.112,0" transform="translate(-95.597 -60.552)" fill="#ee5227"/>
          <path id="Trazado_824287" data-name="Trazado 824287" d="M162.733,102.445h.112a.066.066,0,0,1-.112,0" transform="translate(-96.186 -60.552)" fill="#ee5227"/>
          <path id="Trazado_824288" data-name="Trazado 824288" d="M163.73,102.445h.112a.066.066,0,0,1-.112,0" transform="translate(-96.776 -60.552)" fill="#ee5227"/>
          <path id="Trazado_824289" data-name="Trazado 824289" d="M164.726,102.445h.112a.066.066,0,0,1-.112,0" transform="translate(-97.364 -60.552)" fill="#ee5227"/>
          <path id="Trazado_824290" data-name="Trazado 824290" d="M165.723,102.445h.112a.066.066,0,0,1-.112,0" transform="translate(-97.954 -60.552)" fill="#ee5227"/>
          <path id="Trazado_824291" data-name="Trazado 824291" d="M166.72,102.445h.112a.066.066,0,0,1-.112,0" transform="translate(-98.543 -60.552)" fill="#ee5227"/>
          <path id="Trazado_824292" data-name="Trazado 824292" d="M167.716,102.445h.112a.066.066,0,0,1-.112,0" transform="translate(-99.132 -60.552)" fill="#ee5227"/>
          <path id="Trazado_824293" data-name="Trazado 824293" d="M168.713,102.445h.112a.066.066,0,0,1-.112,0" transform="translate(-99.721 -60.552)" fill="#ee5227"/>
          <path id="Trazado_824294" data-name="Trazado 824294" d="M169.71,102.445h.112a.066.066,0,0,1-.112,0" transform="translate(-100.31 -60.552)" fill="#ee5227"/>
          <path id="Trazado_824295" data-name="Trazado 824295" d="M170.706,102.445h.112a.066.066,0,0,1-.112,0" transform="translate(-100.899 -60.552)" fill="#ee5227"/>
          <path id="Trazado_824296" data-name="Trazado 824296" d="M133.83,102.445h.112a.066.066,0,0,1-.112,0" transform="translate(-79.103 -60.552)" fill="#ee5227"/>
          <path id="Trazado_824297" data-name="Trazado 824297" d="M131.836,102.445h.112a.066.066,0,0,1-.112,0" transform="translate(-77.924 -60.552)" fill="#ee5227"/>
          <path id="Trazado_824298" data-name="Trazado 824298" d="M132.833,102.445h.112a.066.066,0,0,1-.112,0" transform="translate(-78.513 -60.552)" fill="#ee5227"/>
          <path id="Trazado_824299" data-name="Trazado 824299" d="M174.693,102.445h.112a.066.066,0,0,1-.112,0" transform="translate(-103.256 -60.552)" fill="#ee5227"/>
          <path id="Trazado_824300" data-name="Trazado 824300" d="M178.683,102.442h0" transform="translate(-105.614 -60.55)" fill="#ee5227"/>
          <path id="Trazado_824301" data-name="Trazado 824301" d="M181.694,102.409a.081.081,0,0,1,.092,0h-.092" transform="translate(-107.394 -60.522)" fill="#ee5227"/>
          <path id="Trazado_824302" data-name="Trazado 824302" d="M182.691,102.408a.079.079,0,0,1,.09,0h-.09" transform="translate(-107.983 -60.522)" fill="#ee5227"/>
          <path id="Trazado_824303" data-name="Trazado 824303" d="M183.7,102.4a.067.067,0,0,1,.082,0H183.7" transform="translate(-108.58 -60.52)" fill="#ee5227"/>
          <path id="Trazado_824304" data-name="Trazado 824304" d="M185.683,102.41a.084.084,0,0,1,.095,0h-.095" transform="translate(-109.751 -60.523)" fill="#ee5227"/>
          <path id="Trazado_824305" data-name="Trazado 824305" d="M82,102.445h.112a.066.066,0,0,1-.112,0" transform="translate(-48.469 -60.552)" fill="#ee5227"/>
          <path id="Trazado_824306" data-name="Trazado 824306" d="M81.006,102.445h.112a.066.066,0,0,1-.112,0" transform="translate(-47.88 -60.552)" fill="#ee5227"/>
          <path id="Trazado_824307" data-name="Trazado 824307" d="M80.01,102.445h.112a.066.066,0,0,1-.112,0" transform="translate(-47.291 -60.552)" fill="#ee5227"/>
          <path id="Trazado_824308" data-name="Trazado 824308" d="M79.013,102.445h.112a.066.066,0,0,1-.112,0" transform="translate(-46.702 -60.552)" fill="#ee5227"/>
          <path id="Trazado_824309" data-name="Trazado 824309" d="M78.016,102.445h.112a.066.066,0,0,1-.112,0" transform="translate(-46.113 -60.552)" fill="#ee5227"/>
          <path id="Trazado_824310" data-name="Trazado 824310" d="M77.02,102.445h.112a.066.066,0,0,1-.112,0" transform="translate(-45.524 -60.552)" fill="#ee5227"/>
          <path id="Trazado_824311" data-name="Trazado 824311" d="M76.023,102.445h.112a.066.066,0,0,1-.112,0" transform="translate(-44.935 -60.552)" fill="#ee5227"/>
          <path id="Trazado_824312" data-name="Trazado 824312" d="M75.026,102.445h.112a.066.066,0,0,1-.112,0" transform="translate(-44.346 -60.552)" fill="#ee5227"/>
          <path id="Trazado_824313" data-name="Trazado 824313" d="M74.03,102.445h.112a.066.066,0,0,1-.112,0" transform="translate(-43.757 -60.552)" fill="#ee5227"/>
          <path id="Trazado_824314" data-name="Trazado 824314" d="M73.033,102.445h.112a.066.066,0,0,1-.112,0" transform="translate(-43.168 -60.552)" fill="#ee5227"/>
          <path id="Trazado_824315" data-name="Trazado 824315" d="M54.184,172.492l.021-.024.02.024-.021.018Z" transform="translate(-32.026 -101.94)" fill="#858390"/>
          <path id="Trazado_824316" data-name="Trazado 824316" d="M72.036,102.445h.112a.066.066,0,0,1-.112,0" transform="translate(-42.578 -60.552)" fill="#ee5227"/>
          <path id="Trazado_824317" data-name="Trazado 824317" d="M71.04,102.445h.112a.066.066,0,0,1-.112,0" transform="translate(-41.99 -60.552)" fill="#ee5227"/>
          <path id="Trazado_824318" data-name="Trazado 824318" d="M70.043,102.445h.112a.066.066,0,0,1-.112,0" transform="translate(-41.4 -60.552)" fill="#ee5227"/>
          <path id="Trazado_824319" data-name="Trazado 824319" d="M67.053,102.445h.111a.066.066,0,0,1-.111,0" transform="translate(-39.633 -60.552)" fill="#ee5227"/>
          <path id="Trazado_824320" data-name="Trazado 824320" d="M66.059,102.444h0" transform="translate(-39.045 -60.551)" fill="#ee5227"/>
          <path id="Trazado_824321" data-name="Trazado 824321" d="M156.613,196.432c-.072-.039-.088-.081-.008-.13,0,.043.005.086.008.13" transform="translate(-92.533 -116.028)" fill="#858390"/>
          <path id="Trazado_824322" data-name="Trazado 824322" d="M65.062,102.444h0" transform="translate(-38.456 -60.551)" fill="#ee5227"/>
          <path id="Trazado_824323" data-name="Trazado 824323" d="M64.066,102.444h0" transform="translate(-37.867 -60.551)" fill="#ee5227"/>
          <path id="Trazado_824324" data-name="Trazado 824324" d="M63.068,102.444h0" transform="translate(-37.278 -60.551)" fill="#ee5227"/>
          <path id="Trazado_824325" data-name="Trazado 824325" d="M62.068,102.445h.112a.066.066,0,0,1-.112,0" transform="translate(-36.686 -60.552)" fill="#ee5227"/>
          <path id="Trazado_824326" data-name="Trazado 824326" d="M55.915,102.373a.037.037,0,0,1,.057.013l-.034.02Z" transform="translate(-33.05 -60.504)" fill="#ee5227"/>
          <path id="Trazado_824327" data-name="Trazado 824327" d="M187,97.021l-.03-.02.031-.018.016.02Z" transform="translate(-110.513 -57.324)" fill="#ee5227"/>
          <path id="Trazado_824328" data-name="Trazado 824328" d="M187.008,96.025l-.03-.019.03-.018v.037" transform="translate(-110.517 -56.735)" fill="#ee5227"/>
          <path id="Trazado_824329" data-name="Trazado 824329" d="M102.933,102.445h0" transform="translate(-60.84 -60.552)" fill="#ee5227"/>
          <path id="Trazado_824330" data-name="Trazado 824330" d="M95.958,102.443h.11a.064.064,0,0,1-.11,0" transform="translate(-56.718 -60.551)" fill="#ee5227"/>
          <path id="Trazado_824331" data-name="Trazado 824331" d="M171.7,102.445h.112a.066.066,0,0,1-.112,0" transform="translate(-101.488 -60.552)" fill="#ee5227"/>
          <path id="Trazado_824332" data-name="Trazado 824332" d="M172.7,102.445h.112a.066.066,0,0,1-.112,0" transform="translate(-102.078 -60.552)" fill="#ee5227"/>
          <path id="Trazado_824333" data-name="Trazado 824333" d="M84.993,102.445H85.1a.066.066,0,0,1-.112,0" transform="translate(-50.237 -60.552)" fill="#ee5227"/>
        </g>
      </g>
    </g>
  </g>
</svg>
