<svg xmlns="http://www.w3.org/2000/svg" xmlns:xlink="http://www.w3.org/1999/xlink" width="169" height="169" viewBox="0 0 169 169">
  <defs>
    <clipPath id="clip-path">
      <rect id="Rect치ngulo_378361" data-name="Rect치ngulo 378361" width="96.22" height="96.226" fill="none"/>
    </clipPath>
  </defs>
  <g id="Grupo_1073333" data-name="Grupo 1073333" transform="translate(-719 -2877.911)">
    <g id="Grupo_1073327" data-name="Grupo 1073327" transform="translate(334 819.911)">
      <g id="Grupo_159182" data-name="Grupo 159182" transform="translate(385.001 2058)">
        <path id="Uni칩n_12" data-name="Uni칩n 12" d="M84.5,0A84.5,84.5,0,1,1,0,84.5,84.5,84.5,0,0,1,84.5,0Z" transform="translate(0 0)" fill="#ffae7e"/>
      </g>
    </g>
    <g id="Grupo_1074734" data-name="Grupo 1074734" transform="translate(755 2913.911)">
      <g id="Grupo_1074733" data-name="Grupo 1074733" clip-path="url(#clip-path)">
        <path id="Trazado_824334" data-name="Trazado 824334" d="M0,49.418Q0,29.733.011,10.048A5.371,5.371,0,0,1,.6,7.761,8.274,8.274,0,0,1,2.6,5.022a6.793,6.793,0,0,1,4-1.795c3.915-.271,7.838-.064,11.757-.1a.766.766,0,0,0,.8-.508A4.1,4.1,0,0,1,21.783.289a2.928,2.928,0,0,1,.78-.167c.708.016,1.4-.124,2.11-.122C30.267.016,35.86.005,41.452.011a5.027,5.027,0,0,1,3.621,1.266,4.342,4.342,0,0,1,1.28,2.374c.056.321.154.307.353.142A15.515,15.515,0,0,1,51.744.977a18.377,18.377,0,0,1,4.217-.9,21.334,21.334,0,0,1,3.161.053A15.085,15.085,0,0,1,63.7,1.212a15.785,15.785,0,0,1,5.9,3.965,17.773,17.773,0,0,1,3.733,5.79,17.638,17.638,0,0,1,.964,4.24c.026.221.1.319.321.318,1.568,0,3.136.005,4.7-.008a.71.71,0,0,0,.713-.485,43.222,43.222,0,0,1,2.1-4.255,10.543,10.543,0,0,0,.538-1.047.653.653,0,0,1,.713-.421c3.879.012,7.759.007,11.638.008.489,0,.525.052.319.469-1.03,2.088-2,4.207-3.123,6.247a1.936,1.936,0,0,0,.018,2.156c1.166,2.034,2.118,4.18,3.162,6.278.051.1.194.239.095.327s-.255.218-.426.1-.344-.056-.516-.056c-3.734,0-7.468-.011-11.2.007a.666.666,0,0,1-.769-.513,23.686,23.686,0,0,0-1.172-2.286c-.477-1.007-.944-2.02-1.419-3.028-.138-.293-.3-.523-.692-.325-.218.109-.446-.08-.689-.076-1.212.023-2.424.021-3.637.005-.431-.006-.633.015-.705.589A16.315,16.315,0,0,1,71.492,26.7a15.59,15.59,0,0,1-2.039,2.425c-.208.2-.232.308-.039.541,1.164,1.407,2.311,2.828,3.46,4.249.554.685,1.119,1.364,1.639,2.075.229.313.385.306.692.113a12.563,12.563,0,0,1,5.159-1.842,14.618,14.618,0,0,1,6.468.7A12.9,12.9,0,0,1,92.4,38.612a13.409,13.409,0,0,1,3.443,6.673,13.6,13.6,0,0,1,.357,3.487,15.9,15.9,0,0,1-1.217,4.987,11.248,11.248,0,0,1-2.619,3.887,20.068,20.068,0,0,1-1.984,1.793,13.22,13.22,0,0,1-5.056,2.232,13.087,13.087,0,0,1-3.953.4,13.287,13.287,0,0,1-3.2-.675,19.1,19.1,0,0,1-2.448-.956,13.867,13.867,0,0,1-5.868-6.014,11.333,11.333,0,0,1-1.2-3.243,16.72,16.72,0,0,1-.322-4.1,13.666,13.666,0,0,1,3.821-8.521c.183-.2.257-.3.046-.584-1.207-1.623-2.536-3.146-3.777-4.742-.43-.553-.882-1.089-1.312-1.644-.192-.248-.353-.4-.659-.127a2.634,2.634,0,0,1-.694.4.959.959,0,0,0-.587,1.047q.027,17.406,0,34.812c0,.48.126.563.578.562q11.178-.023,22.355-.005a7.849,7.849,0,0,1,4.974,1.528A7.735,7.735,0,0,1,91.493,83.14a6.351,6.351,0,0,1-2.344.56c-7.783.214-15.567.037-23.35.081-.491,0-.636.151-.627.621.023,1.212.037,2.425,0,3.636a8.164,8.164,0,0,1-1.615,5.109,7.774,7.774,0,0,1-4.239,2.779,10.107,10.107,0,0,1-2.513.271c-16.148.01-32.3-.008-48.444.028a8.442,8.442,0,0,1-5.193-1.537A7.393,7.393,0,0,1,.27,90.33,11.51,11.51,0,0,1,0,87.526Q.007,68.472,0,49.418m9.311.077q0,18.326,0,36.652c0,.683.181.759.73.759q22.645-.017,45.29-.009a1.278,1.278,0,0,1,.193,0c.272.042.357-.066.35-.342-.018-.775-.029-1.552,0-2.327.016-.372-.1-.447-.453-.444-2.375.017-4.752.008-7.127.01a1.8,1.8,0,0,1-.653-.108c-1.588-.6-3.183-1.174-4.772-1.767-2.05-.766-4.093-1.546-6.144-2.309a3.785,3.785,0,0,1-.388-7.041c1.314-.5,2.644-.955,3.961-1.443q3.337-1.236,6.667-2.49a5.243,5.243,0,0,1,1.913-.366c2.149.019,4.3-.006,6.449.018.436.005.55-.1.549-.545q-.02-16.556-.011-33.112a2.4,2.4,0,0,1,0-.242c.025-.242-.063-.337-.323-.351a12.57,12.57,0,0,1-2.824-.552,19.139,19.139,0,0,1-3.893-1.729c-.336-.185-.546-.193-.8.16-.617.862-1.276,1.694-1.939,2.522-.147.183-.1.216.051.355a19.74,19.74,0,0,1,2.706,3.013A19.505,19.505,0,0,1,52.68,50.7a22.8,22.8,0,0,1-.494,3.631,19.518,19.518,0,0,1-1.624,4.51A19.059,19.059,0,0,1,48.882,61.5a20.22,20.22,0,0,1-8.962,6.938,20.852,20.852,0,0,1-5.968,1.373,17.645,17.645,0,0,1-4.562-.19A20.753,20.753,0,0,1,15.446,60.24a20.66,20.66,0,0,1-2.521-6.089,17.735,17.735,0,0,1-.5-3.779,22.85,22.85,0,0,1,.183-3.45,19.4,19.4,0,0,1,1.125-4.4A20.479,20.479,0,0,1,24.994,30.981,20.564,20.564,0,0,1,34.221,29.6a18.64,18.64,0,0,1,4.047.758,15.2,15.2,0,0,1,2.467.832,21.8,21.8,0,0,1,2.5,1.394c.259.183.426.111.539-.129a3.78,3.78,0,0,1,.658-.943c.413-.451.7-1,1.149-1.432a.454.454,0,0,0-.014-.773,11.431,11.431,0,0,1-1.655-1.815,18.523,18.523,0,0,1-1.788-2.911,17.736,17.736,0,0,1-1.67-5.434,16.737,16.737,0,0,1-.088-3.132c.015-.388-.086-.5-.5-.5-5.4.017-10.8.011-16.2.011a4.624,4.624,0,0,1-.966-.012,4.842,4.842,0,0,1-3.587-2.741.524.524,0,0,0-.571-.358c-2.893.014-5.787.022-8.679,0-.479,0-.566.125-.566.58q.021,18.254.012,36.507m-6.2.145H3.107q0,19.2,0,38.4A5.138,5.138,0,0,0,3.636,90.6a4.307,4.307,0,0,0,3.885,2.481q24.8.051,49.606.016a6.376,6.376,0,0,0,1.376-.148A4.519,4.519,0,0,0,62.067,88.4c.042-1.421,0-2.844.015-4.266,0-.272-.069-.356-.346-.35q-1.211.027-2.424,0c-.279-.006-.351.08-.345.351q.025,1.284,0,2.57a3.421,3.421,0,0,1-.324,1.521A3.165,3.165,0,0,1,55.582,90q-15.42,0-30.841,0L9.078,90a2.612,2.612,0,0,1-1.825-.783A3.443,3.443,0,0,1,6.2,86.644q.019-37.09.019-74.18a3.06,3.06,0,0,1,3.141-3.14c2.958-.019,5.917-.011,8.874,0,.316,0,.408-.079.4-.4-.024-.759-.03-1.52,0-2.278.017-.373-.1-.445-.452-.443-3.459.014-6.918.009-10.378.008a5.028,5.028,0,0,0-1.045.1,4.57,4.57,0,0,0-3.633,4.2Q3.09,30.076,3.113,49.639M68.095,15.525c.937,0,1.875-.022,2.812.011.393.014.435-.166.379-.457a15.473,15.473,0,0,0-1.633-4.783A13.956,13.956,0,0,0,55.1,3.3a13.851,13.851,0,0,0-4.951,1.848,14.523,14.523,0,0,0-5.455,6.112,12.218,12.218,0,0,0-1.234,4.59c-.039.627.022,1.26-.012,1.887a10.758,10.758,0,0,0,.567,3.446,13.2,13.2,0,0,0,3.058,5.27,10.348,10.348,0,0,0,2.378,2.179c.7.406,1.417.809,2.16,1.159a12.271,12.271,0,0,0,4.708,1.235,15.928,15.928,0,0,0,3.306-.16,13.92,13.92,0,0,0,11.66-11.837c.037-.248.042-.414-.318-.41-1.89.019-3.781.01-5.672.007-.232,0-.348.032-.406.327a6.774,6.774,0,0,1-2.456,4.022,7.758,7.758,0,0,1-12.737-5.121,7.326,7.326,0,0,1,2.42-6.4,7.463,7.463,0,0,1,7.593-1.767,7.438,7.438,0,0,1,5,5.069c.2.78.227.773,1.057.773h2.327M43.455,49.659c0,2.456.006,4.912-.008,7.368,0,.316.081.4.4.4,1.212-.019,2.424-.016,3.636,0a.467.467,0,0,0,.512-.329c.133-.341.286-.673.418-1.014A14.525,14.525,0,0,0,49.332,53,19.335,19.335,0,0,0,49.6,48.51a19.1,19.1,0,0,0-1.077-4.964,16.053,16.053,0,0,0-5.4-7.3,18.355,18.355,0,0,0-5.825-3,15.8,15.8,0,0,0-3.066-.592,11.207,11.207,0,0,0-2.89.009,30.946,30.946,0,0,0-3.189.483,17.652,17.652,0,0,0-7.184,3.98,15.751,15.751,0,0,0-3.387,4.418,15.55,15.55,0,0,0-2.03,6.244,18.4,18.4,0,0,0,.158,4.512,21.444,21.444,0,0,0,1.481,4.775.506.506,0,0,0,.55.347c1.18-.018,2.36-.028,3.539,0,.406.011.459-.134.457-.486-.013-2.779,0-5.559-.017-8.338,0-.385.063-.515.485-.509,1.746.028,3.491,0,5.236.022.389,0,.51-.07.507-.488-.022-2.811-.007-5.623-.018-8.435,0-.3.06-.406.389-.4,2.844.014,5.688.01,8.533.005.248,0,.418-.011.4.339-.03.791.005,1.584-.017,2.375-.009.313.074.4.395.4,1.794-.017,3.588,0,5.382-.018.362,0,.45.084.448.447-.018,2.44-.009,4.88-.009,7.32m38.783,9.325A10.86,10.86,0,1,0,80.9,37.351a10,10,0,0,0-6.421,3.137,10.669,10.669,0,0,0-3.076,8.8,10.909,10.909,0,0,0,10.838,9.692M32.51,3.112H27.955c-1.534,0-3.069-.02-4.6.008-.873.016-1.288.182-1.607,1.216-.061.2-.358.363-.163.59a.836.836,0,0,1,.145.632c0,1.728.049,3.458-.017,5.183a1.707,1.707,0,0,0,1.719,1.7c3.763-.05,7.527-.021,11.291-.021,1.986,0,3.973,0,5.96,0,.272,0,.4-.039.482-.361a8.825,8.825,0,0,1,1.265-3.017,5.625,5.625,0,0,0,1.029-4.13,1.379,1.379,0,0,0-.015-.289,2.74,2.74,0,0,0-.158-.607,1.753,1.753,0,0,0-1.662-.909H32.51M45.726,60.556H19.47a17.036,17.036,0,0,0,26.256,0m16.35-9.642q0-8.457.011-16.914c0-.422-.166-.536-.494-.424a11.635,11.635,0,0,1-2.145.418c-.435.061-.483.231-.483.6q.014,16.576.007,33.151a1.674,1.674,0,0,1,0,.242c-.035.243.078.294.3.291.775-.012,1.553-.033,2.326.007.424.022.488-.123.487-.508q-.02-8.433-.009-16.866m3.075,29.77q7.536,0,15.072.009c.373,0,.5-.083.478-.471-.034-.693-.035-1.39,0-2.083.022-.429-.086-.558-.541-.557q-10.347.025-20.694.012c-3.117,0-6.236.006-9.353-.009-.357,0-.471.077-.454.447.033.709.035,1.422,0,2.131-.021.413.077.534.518.533,4.991-.019,9.984-.012,14.975-.012m.077-9.3q-7.561,0-15.122-.008c-.353,0-.472.072-.455.445.033.725.037,1.455,0,2.18-.021.411.105.5.5.5q9.815-.02,19.629-.01c3.49,0,6.979-.005,10.469.008.354,0,.472-.072.455-.445-.033-.726-.037-1.455,0-2.18.021-.413-.107-.5-.5-.5q-7.488.022-14.976.009M86.49,80.689v0a18.147,18.147,0,0,0,2.517-.019,4.64,4.64,0,0,0,4.025-4.705,4.476,4.476,0,0,0-3.851-4.478c-1.7-.223-3.419-.044-5.127-.1-.237-.008-.256.11-.253.295.008.439,0,.877,0,1.316q0,3.638,0,7.275c0,.264-.012.45.365.434.774-.034,1.55-.01,2.326-.01m-27.7-62.048v0c-.872,0-1.745-.009-2.617.006-.257,0-.329-.073-.324-.327.016-.775.025-1.551,0-2.326-.013-.372.081-.5.476-.489,1.615.024,3.231.013,4.846.005.164,0,.388.1.485-.072s-.039-.365-.142-.533a4.659,4.659,0,0,0-8.7,2.953,4.572,4.572,0,0,0,4.613,3.859,4.679,4.679,0,0,0,4.2-2.691c.123-.286.062-.4-.269-.389-.856.017-1.713.006-2.568.006M34.138,49.668c0-2.456-.005-4.912.007-7.367,0-.308-.068-.413-.393-.4-.775.025-1.551.019-2.326,0-.275-.006-.39.034-.389.358q.019,7.391,0,14.783c0,.291.059.388.368.379.775-.025,1.552-.029,2.326,0,.357.014.415-.109.413-.434-.014-2.439-.008-4.879-.008-7.319M46.5,80.009c.021-.037.035-.049.035-.062.007-2.536.01-5.072.024-7.608,0-.328-.175-.238-.334-.178-.679.254-1.352.523-2.031.778-2.1.788-4.2,1.567-6.292,2.361-.345.131-.667.278-.67.771s.355.587.663.712c.78.315,1.581.581,2.368.88,1.335.507,2.671,1.01,4,1.521a18.259,18.259,0,0,0,2.232.825M40.345,51.238c0-1.938-.009-3.877.009-5.816,0-.344-.088-.432-.426-.421-.775.026-1.551.019-2.326,0-.263-.005-.357.054-.356.34q.014,5.864,0,11.728c0,.277.079.352.35.346.759-.018,1.52-.025,2.278,0,.363.013.487-.067.483-.463-.024-1.906-.011-3.812-.011-5.719M24.838,54.314c0,.9.016,1.809-.009,2.713-.009.329.1.4.405.391.791-.021,1.583-.016,2.374,0,.245,0,.33-.055.329-.318q-.018-2.786,0-5.572c0-.265-.085-.321-.33-.317-.807.014-1.615.016-2.423,0-.267-.005-.358.062-.353.343.017.92.007,1.841.007,2.762m61.35-35.681c-.873,0-1.745.01-2.618-.005-.346-.006-.374.08-.217.376.417.782.808,1.578,1.2,2.373.1.206.213.35.464.35q2.666-.005,5.332,0c.247,0,.265-.084.158-.29-.43-.83-.858-1.661-1.261-2.505a.494.494,0,0,0-.536-.3c-.84.008-1.68,0-2.52,0M83.2,15.518c1.926,0,3.782,0,5.639,0a.372.372,0,0,0,.378-.235c.392-.812.786-1.623,1.192-2.428.153-.3.119-.436-.257-.434-1.7.009-3.391.005-5.087,0-.187,0-.358.015-.452.206-.46.937-.918,1.874-1.413,2.887" transform="translate(-0.001 0)"/>
        <path id="Trazado_824335" data-name="Trazado 824335" d="M23.911,68.965q0-18.252-.011-36.506c0-.455.087-.584.566-.58,2.893.026,5.786.019,8.679,0a.524.524,0,0,1,.571.358A4.841,4.841,0,0,0,37.3,34.984a4.651,4.651,0,0,0,.966.012c5.4,0,10.8.006,16.2-.011.414,0,.515.116.5.5a16.708,16.708,0,0,0,.089,3.132,17.732,17.732,0,0,0,1.67,5.434,18.567,18.567,0,0,0,1.787,2.911,11.463,11.463,0,0,0,1.655,1.815.454.454,0,0,1,.015.773c-.444.429-.736.981-1.15,1.432a3.791,3.791,0,0,0-.657.944c-.113.239-.28.311-.539.128a21.808,21.808,0,0,0-2.5-1.394,15.194,15.194,0,0,0-2.466-.832,18.644,18.644,0,0,0-4.048-.758,20.558,20.558,0,0,0-9.227,1.379A20.48,20.48,0,0,0,28.324,61.994a19.391,19.391,0,0,0-1.124,4.4,22.85,22.85,0,0,0-.183,3.451,17.735,17.735,0,0,0,.5,3.778,20.653,20.653,0,0,0,2.521,6.089,20.054,20.054,0,0,0,9.6,8.109,20.282,20.282,0,0,0,4.339,1.268,17.66,17.66,0,0,0,4.562.19,20.845,20.845,0,0,0,5.969-1.373,20.216,20.216,0,0,0,8.961-6.939,19.059,19.059,0,0,0,1.68-2.653,19.516,19.516,0,0,0,1.624-4.51,22.808,22.808,0,0,0,.494-3.631,19.51,19.51,0,0,0-3.83-12.894,19.744,19.744,0,0,0-2.706-3.013c-.152-.139-.2-.172-.051-.355.663-.827,1.323-1.66,1.939-2.522.253-.353.464-.344.8-.159a19.153,19.153,0,0,0,3.893,1.729,12.541,12.541,0,0,0,2.823.552c.26.014.348.109.323.351a2.391,2.391,0,0,0,0,.242q0,16.556.011,33.112c0,.444-.114.55-.549.545-2.149-.024-4.3,0-6.449-.018a5.246,5.246,0,0,0-1.914.366Q58.233,89.358,54.9,90.6c-1.318.488-2.647.946-3.962,1.443a3.784,3.784,0,0,0,.388,7.04c2.05.763,4.095,1.543,6.144,2.309,1.589.593,3.184,1.171,4.772,1.767a1.79,1.79,0,0,0,.653.107c2.376,0,4.752.007,7.128-.009.355,0,.469.072.453.444-.033.774-.022,1.551,0,2.326.007.277-.078.384-.35.342a1.335,1.335,0,0,0-.193,0q-22.645,0-45.289.009c-.549,0-.73-.076-.73-.759q0-18.325,0-36.652M42.535,38.1c-2.972,0-5.945,0-8.917-.007-.307,0-.414.066-.4.392.025.791.019,1.583,0,2.374-.006.273.072.35.347.349q8.966-.011,17.932,0c.266,0,.362-.062.355-.344-.019-.775-.028-1.551,0-2.325.015-.365-.088-.45-.449-.448-2.956.016-5.913.009-8.869.009M36.3,103.265c2.972,0,5.945-.005,8.917.007.333,0,.442-.071.43-.42-.028-.79-.019-1.583,0-2.374.005-.256-.072-.329-.325-.322-.662.016-1.325.005-1.987.005q-7.924,0-15.848-.009c-.369,0-.5.076-.478.467.035.725.032,1.454,0,2.179-.016.379.091.476.472.474,2.94-.017,5.88-.009,8.821-.009m6.235-58.959c-2.972,0-5.945,0-8.917-.007-.311,0-.411.072-.4.4.025.791.02,1.583,0,2.374-.006.276.077.347.35.347q8.966-.011,17.932,0c.27,0,.36-.068.353-.346-.018-.775-.029-1.551,0-2.326.015-.369-.094-.447-.451-.445-2.957.016-5.913.009-8.869.009M36.327,97.059c2.957,0,5.913-.007,8.869.009.364,0,.464-.087.449-.45-.03-.758-.019-1.518,0-2.277.005-.268-.024-.393-.353-.393q-8.966.018-17.932,0c-.275,0-.353.076-.347.348.018.775.029,1.552,0,2.325-.016.374.1.446.454.444,2.956-.015,5.913-.009,8.869-.009m-7.761-49.65c.42,0,.84-.012,1.259.005.236.009.3-.073.3-.3-.012-.839-.013-1.678,0-2.517,0-.24-.079-.3-.3-.293-.823.012-1.646.017-2.469,0-.284-.007-.336.092-.343.355a13.992,13.992,0,0,1-.069,2.157c-.056.3.023.7.564.609a6.684,6.684,0,0,1,1.064-.011m1.551-7.631c0-.517-.013-.953.005-1.388.01-.239-.076-.3-.3-.294-.823.012-1.646.017-2.469,0-.283-.007-.337.09-.344.354a13.943,13.943,0,0,1-.068,2.157c-.056.3.023.7.564.61a7.784,7.784,0,0,1,1.112-.012c.482-.005,1.125.168,1.4-.074.321-.28.053-.94.1-1.351" transform="translate(-14.598 -19.471)" fill="#efcfb3"/>
        <path id="Trazado_824336" data-name="Trazado 824336" d="M7.981,59.379q0-19.563.013-39.126a4.57,4.57,0,0,1,3.633-4.2,5.027,5.027,0,0,1,1.046-.1c3.459,0,6.918.007,10.377-.007.354,0,.469.07.453.443-.033.758-.026,1.519,0,2.278.01.318-.082.4-.4.4-2.958-.012-5.916-.021-8.874,0a3.06,3.06,0,0,0-3.141,3.14q-.022,37.09-.019,74.18a3.444,3.444,0,0,0,1.052,2.57,2.611,2.611,0,0,0,1.825.783l15.663,0q15.421,0,30.841,0a3.165,3.165,0,0,0,3.063-1.773,3.431,3.431,0,0,0,.323-1.521q.022-1.284,0-2.57c-.005-.271.067-.357.345-.351q1.211.027,2.424,0c.277-.006.349.078.346.35-.013,1.422.027,2.845-.015,4.266a4.519,4.519,0,0,1-3.564,4.545,6.379,6.379,0,0,1-1.376.148q-24.8.01-49.606-.016A4.307,4.307,0,0,1,8.5,100.34a5.126,5.126,0,0,1-.534-2.562q.009-19.2,0-38.4Z" transform="translate(-4.869 -9.739)" fill="#fee9a6"/>
        <path id="Trazado_824337" data-name="Trazado 824337" d="M136.26,20.372h-2.327c-.831,0-.857.007-1.057-.773a7.44,7.44,0,0,0-5-5.069,7.463,7.463,0,0,0-7.593,1.767,7.325,7.325,0,0,0-2.42,6.4A7.758,7.758,0,0,0,130.6,27.823a6.771,6.771,0,0,0,2.456-4.022c.059-.295.175-.327.407-.327,1.891,0,3.782.012,5.672-.007.36,0,.355.162.318.41a13.92,13.92,0,0,1-11.66,11.837,15.926,15.926,0,0,1-3.306.16,12.268,12.268,0,0,1-4.708-1.235c-.743-.35-1.461-.752-2.161-1.159a10.336,10.336,0,0,1-2.377-2.179,13.2,13.2,0,0,1-3.058-5.27,10.726,10.726,0,0,1-.567-3.446c.034-.627-.026-1.26.012-1.887a12.213,12.213,0,0,1,1.234-4.59A14.52,14.52,0,0,1,118.315,10a13.855,13.855,0,0,1,4.951-1.848,13.958,13.958,0,0,1,14.551,7,15.491,15.491,0,0,1,1.634,4.783c.056.291.014.471-.379.457-.936-.032-1.874-.011-2.811-.011" transform="translate(-68.166 -4.848)" fill="#e5e8ec"/>
        <path id="Trazado_824338" data-name="Trazado 824338" d="M67.75,100.761c0-2.44-.009-4.88.009-7.32,0-.363-.085-.451-.448-.447-1.794.021-3.588,0-5.382.018-.321,0-.4-.087-.395-.4.023-.791-.013-1.584.017-2.375.013-.351-.156-.34-.4-.339-2.844,0-5.689.009-8.533-.005-.329,0-.391.1-.39.4.011,2.811,0,5.623.018,8.435,0,.418-.117.493-.506.488-1.745-.023-3.491.007-5.236-.022-.423-.007-.488.124-.486.509.018,2.779,0,5.559.017,8.338,0,.353-.051.5-.457.486-1.179-.032-2.359-.022-3.539,0a.505.505,0,0,1-.55-.347,21.463,21.463,0,0,1-1.48-4.775,18.4,18.4,0,0,1-.158-4.512,15.556,15.556,0,0,1,2.03-6.244,15.758,15.758,0,0,1,3.387-4.418,17.651,17.651,0,0,1,7.184-3.98,30.909,30.909,0,0,1,3.189-.483,11.207,11.207,0,0,1,2.89-.009,15.828,15.828,0,0,1,3.066.592,18.353,18.353,0,0,1,5.826,3,16.056,16.056,0,0,1,5.4,7.3,19.1,19.1,0,0,1,1.077,4.964,19.357,19.357,0,0,1-.267,4.489,14.525,14.525,0,0,1-.922,3.082c-.132.341-.285.673-.418,1.014a.466.466,0,0,1-.512.329c-1.212-.016-2.424-.018-3.637,0-.317,0-.4-.081-.4-.4.014-2.456.007-4.912.007-7.368" transform="translate(-24.296 -51.102)" fill="#e5e8ec"/>
        <path id="Trazado_824339" data-name="Trazado 824339" d="M194.178,117.5a10.909,10.909,0,0,1-10.838-9.692,10.666,10.666,0,0,1,3.076-8.8,10,10,0,0,1,6.421-3.137,10.86,10.86,0,1,1,1.34,21.633m-7.747-10.887c0,.646-.019,1.293,0,1.938a15.5,15.5,0,0,0,.09,2.494A3.982,3.982,0,0,0,192.095,114c2.69-1.2,5.318-2.542,7.911-3.939a3.983,3.983,0,0,0,1.368-5.473,4.881,4.881,0,0,0-2.093-1.809c-1.367-.686-2.725-1.39-4.1-2.052a23.768,23.768,0,0,0-3.579-1.655,3.612,3.612,0,0,0-2.57.069,4.155,4.155,0,0,0-2.6,4.03c0,1.147,0,2.294,0,3.44" transform="translate(-111.941 -58.513)" fill="#e5e8ec"/>
        <path id="Trazado_824340" data-name="Trazado 824340" d="M66.272,7.984h9.11a1.753,1.753,0,0,1,1.662.909A2.761,2.761,0,0,1,77.2,9.5a1.379,1.379,0,0,1,.014.289,5.624,5.624,0,0,1-1.029,4.13,8.808,8.808,0,0,0-1.265,3.017c-.086.322-.211.362-.482.361-1.987-.007-3.974,0-5.96,0-3.764,0-7.528-.029-11.291.021a1.706,1.706,0,0,1-1.718-1.7c.065-1.725.019-3.455.017-5.183a.839.839,0,0,0-.145-.632c-.2-.227.1-.392.162-.59.32-1.033.734-1.2,1.608-1.216,1.534-.028,3.069-.008,4.6-.008h4.555" transform="translate(-33.763 -4.872)" fill="#b3dc7e"/>
        <path id="Trazado_824341" data-name="Trazado 824341" d="M76.276,155.583a17.036,17.036,0,0,1-26.256,0Z" transform="translate(-30.551 -95.027)" fill="#e5e8ec"/>
        <path id="Trazado_824342" data-name="Trazado 824342" d="M154.6,103.54q0,8.433.009,16.866c0,.385-.063.53-.487.508-.774-.04-1.551-.019-2.326-.007-.223,0-.337-.048-.3-.291a1.73,1.73,0,0,0,0-.242q0-16.576-.007-33.151c0-.373.048-.543.482-.6a11.629,11.629,0,0,0,2.145-.418c.329-.111.5,0,.495.424q-.025,8.457-.011,16.915" transform="translate(-92.528 -52.625)" fill="#fee9a6"/>
        <path id="Trazado_824343" data-name="Trazado 824343" d="M143.07,202.426c-4.992,0-9.984-.007-14.975.012-.441,0-.538-.119-.518-.533.035-.709.033-1.422,0-2.131-.017-.371.1-.449.454-.448,3.118.015,6.236.009,9.353.009q10.347,0,20.694-.011c.455,0,.564.128.542.557a20.759,20.759,0,0,0,0,2.082c.019.389-.105.473-.478.472q-7.536-.019-15.072-.009" transform="translate(-77.92 -121.743)" fill="#b3dc7e"/>
        <path id="Trazado_824344" data-name="Trazado 824344" d="M143.137,183.378q7.488,0,14.976-.01c.4,0,.525.084.5.5-.037.725-.034,1.454,0,2.18.017.373-.1.447-.455.445-3.49-.014-6.979-.008-10.469-.008q-9.814,0-19.629.01c-.4,0-.525-.085-.5-.5.037-.725.034-1.455,0-2.18-.017-.373.1-.446.455-.445q7.561.018,15.121.008" transform="translate(-77.909 -111.997)" fill="#b3dc7e"/>
        <path id="Trazado_824345" data-name="Trazado 824345" d="M217.989,192.679c-.775,0-1.552-.024-2.326.01-.377.017-.365-.17-.365-.434q.008-3.638,0-7.275c0-.439.005-.877,0-1.316,0-.185.016-.3.253-.3,1.709.059,3.423-.12,5.127.1a4.475,4.475,0,0,1,3.851,4.478,4.639,4.639,0,0,1-4.025,4.7,18.089,18.089,0,0,1-2.517.019Z" transform="translate(-131.5 -111.99)" fill="#b3dc7e"/>
        <path id="Trazado_824346" data-name="Trazado 824346" d="M141.561,38.225c.856,0,1.713.011,2.568-.005.331-.007.392.1.269.389a4.679,4.679,0,0,1-4.2,2.691,4.623,4.623,0,0,1-.675-9.2,4.622,4.622,0,0,1,4.76,2.391c.1.168.243.351.142.533s-.322.071-.485.072c-1.615.007-3.231.018-4.846-.006-.4-.006-.488.117-.475.489.027.775.018,1.551,0,2.326-.005.253.067.331.324.327.872-.015,1.745-.006,2.617-.006Z" transform="translate(-82.768 -19.585)" fill="#efcfb3"/>
        <path id="Trazado_824347" data-name="Trazado 824347" d="M82.84,115.415c0,2.44-.006,4.879.007,7.319,0,.325-.056.448-.413.434-.775-.03-1.551-.025-2.326,0-.309.01-.369-.088-.369-.379q.014-7.391,0-14.783c0-.323.114-.364.388-.358.775.016,1.552.023,2.326,0,.326-.011.4.095.394.4-.012,2.456-.007,4.912-.007,7.367" transform="translate(-48.703 -65.747)" fill="#fee9a6"/>
        <path id="Trazado_824348" data-name="Trazado 824348" d="M104.931,193.154a18.179,18.179,0,0,1-2.232-.825c-1.333-.511-2.67-1.014-4-1.521-.787-.3-1.588-.566-2.368-.88-.308-.125-.665-.22-.663-.712s.325-.64.67-.77c2.1-.794,4.2-1.574,6.292-2.361.679-.255,1.352-.523,2.031-.778.158-.06.336-.149.334.178-.014,2.536-.017,5.072-.024,7.608,0,.012-.014.025-.035.062" transform="translate(-58.429 -113.145)" fill="#b3dc7e"/>
        <path id="Trazado_824349" data-name="Trazado 824349" d="M98.791,121.853c0,1.906-.013,3.813.011,5.719.005.4-.119.476-.482.463-.759-.027-1.519-.02-2.278,0-.272.006-.351-.069-.35-.346q.013-5.864,0-11.728c0-.285.093-.345.356-.339.775.016,1.552.024,2.326,0,.338-.012.429.077.426.421-.018,1.938-.009,3.877-.009,5.816" transform="translate(-58.446 -70.615)" fill="#fee9a6"/>
        <path id="Trazado_824350" data-name="Trazado 824350" d="M63.8,134.674c0-.921.011-1.841-.007-2.762-.005-.281.086-.348.353-.343.807.016,1.615.015,2.423,0,.246,0,.332.052.33.317q-.018,2.786,0,5.572c0,.262-.084.322-.329.318-.791-.014-1.583-.019-2.374,0-.306.008-.413-.062-.4-.391.025-.9.009-1.808.009-2.713" transform="translate(-38.961 -80.359)" fill="#fee9a6"/>
        <path id="Trazado_824351" data-name="Trazado 824351" d="M216.844,47.865c.84,0,1.68.005,2.52,0a.494.494,0,0,1,.536.3c.4.843.83,1.675,1.26,2.505.107.206.089.29-.158.29q-2.666,0-5.332,0c-.251,0-.364-.144-.464-.349-.39-.8-.781-1.592-1.2-2.373-.158-.3-.13-.381.217-.376.872.015,1.745,0,2.617.005" transform="translate(-130.656 -29.231)" fill="#b3dc7e"/>
        <path id="Trazado_824352" data-name="Trazado 824352" d="M213.758,35.013c.5-1.013.954-1.95,1.413-2.887.093-.19.265-.206.452-.206,1.7,0,3.392.007,5.087,0,.376,0,.41.131.257.434-.406.805-.8,1.616-1.192,2.428a.372.372,0,0,1-.378.235c-1.857,0-3.713,0-5.639,0" transform="translate(-130.559 -19.495)" fill="#b3dc7e"/>
        <path id="Trazado_824353" data-name="Trazado 824353" d="M57.15,47.845c2.957,0,5.913.007,8.869-.009.361,0,.464.083.449.448-.031.774-.022,1.55,0,2.325.007.282-.089.344-.355.344q-8.966-.011-17.932,0c-.275,0-.353-.076-.347-.349.018-.791.023-1.583,0-2.374-.011-.327.1-.394.4-.392,2.972.011,5.945.007,8.917.007" transform="translate(-29.212 -29.217)"/>
        <path id="Trazado_824354" data-name="Trazado 824354" d="M41.167,210.4c-2.94,0-5.88-.008-8.821.009-.381,0-.488-.095-.472-.474.032-.726.034-1.455,0-2.18-.019-.391.109-.468.478-.467q7.924.018,15.848.008c.662,0,1.325.011,1.987-.005.253-.006.33.067.325.323-.016.791-.025,1.583,0,2.374.012.349-.1.422-.43.42-2.972-.013-5.945-.008-8.917-.008" transform="translate(-19.467 -126.608)"/>
        <path id="Trazado_824355" data-name="Trazado 824355" d="M57.149,63.79c2.957,0,5.913.007,8.869-.009.357,0,.467.076.451.446-.032.774-.021,1.551,0,2.326.007.279-.084.346-.353.346q-8.966-.011-17.932,0c-.272,0-.356-.071-.35-.347.018-.791.023-1.583,0-2.374-.01-.323.09-.4.4-.4,2.972.012,5.945.007,8.917.007" transform="translate(-29.213 -38.956)"/>
        <path id="Trazado_824356" data-name="Trazado 824356" d="M41.2,194.455c-2.957,0-5.913-.007-8.869.009-.353,0-.469-.07-.453-.443.033-.774.021-1.55,0-2.325-.006-.273.072-.349.347-.349q8.966.011,17.932,0c.329,0,.358.125.353.393-.015.759-.026,1.519,0,2.277.014.363-.085.453-.449.451-2.957-.016-5.913-.009-8.869-.009" transform="translate(-19.468 -116.869)"/>
        <path id="Trazado_824357" data-name="Trazado 824357" d="M33.311,66.9a6.679,6.679,0,0,0-1.063.011c-.541.089-.62-.3-.565-.609a13.943,13.943,0,0,0,.069-2.157c.007-.263.06-.361.344-.355.822.019,1.646.014,2.469,0,.225,0,.307.053.3.293q-.02,1.258,0,2.517c0,.229-.062.312-.3.3-.419-.017-.839,0-1.259,0" transform="translate(-19.342 -38.959)"/>
        <path id="Trazado_824358" data-name="Trazado 824358" d="M34.863,49.526c-.048.411.22,1.071-.1,1.351-.278.242-.921.069-1.4.074a7.784,7.784,0,0,0-1.112.012c-.541.086-.62-.3-.564-.61a13.943,13.943,0,0,0,.068-2.157c.008-.264.062-.36.344-.354.823.019,1.646.014,2.469,0,.227,0,.313.054.3.294-.018.435-.005.871-.005,1.388" transform="translate(-19.342 -29.22)"/>
        <path id="Trazado_824359" data-name="Trazado 824359" d="M191.371,111.421c0-1.147,0-2.294,0-3.44a4.156,4.156,0,0,1,2.6-4.031,3.611,3.611,0,0,1,2.57-.069,23.7,23.7,0,0,1,3.579,1.655c1.378.662,2.736,1.367,4.1,2.052a4.881,4.881,0,0,1,2.093,1.809,3.983,3.983,0,0,1-1.368,5.473c-2.593,1.4-5.22,2.737-7.911,3.939a3.982,3.982,0,0,1-5.569-2.957,15.5,15.5,0,0,1-.09-2.494c-.023-.645,0-1.292,0-1.938m3.115.061c0,1.163,0,2.326,0,3.489a.976.976,0,0,0,1.494.95c.829-.393,1.648-.808,2.468-1.221,1.568-.788,3.14-1.57,4.7-2.378.625-.324.736-.659.531-1.258a1.132,1.132,0,0,0-.661-.6q-1.483-.758-2.977-1.5c-1.341-.665-2.677-1.344-4.033-1.978-.919-.43-1.52-.031-1.521.955q0,1.768,0,3.537" transform="translate(-116.881 -63.325)"/>
        <path id="Trazado_824360" data-name="Trazado 824360" d="M199.383,116.408q0-1.768,0-3.537c0-.986.6-1.384,1.521-.955,1.356.634,2.691,1.312,4.033,1.978q1.492.74,2.977,1.5a1.133,1.133,0,0,1,.66.6c.206.6.095.934-.531,1.258-1.558.808-3.13,1.59-4.7,2.378-.82.412-1.639.828-2.468,1.221a.976.976,0,0,1-1.494-.95c0-1.163,0-2.326,0-3.489" transform="translate(-121.778 -68.251)" fill="#efcfb3"/>
      </g>
    </g>
  </g>
</svg>
