<svg xmlns="http://www.w3.org/2000/svg" xmlns:xlink="http://www.w3.org/1999/xlink" width="169" height="169" viewBox="0 0 169 169">
  <defs>
    <clipPath id="clip-path">
      <rect id="Rect치ngulo_378363" data-name="Rect치ngulo 378363" width="94.5" height="94.563" fill="none"/>
    </clipPath>
  </defs>
  <g id="Grupo_1073684" data-name="Grupo 1073684" transform="translate(-385.5 -2057.999)">
    <g id="Grupo_159182" data-name="Grupo 159182" transform="translate(385.5 2057.999)">
      <path id="Uni칩n_12" data-name="Uni칩n 12" d="M84.5,0A84.5,84.5,0,1,1,0,84.5,84.5,84.5,0,0,1,84.5,0Z" transform="translate(0 0)" fill="#ffae7e"/>
    </g>
    <g id="Grupo_1074738" data-name="Grupo 1074738" transform="translate(418.5 2092.046)">
      <g id="Grupo_1074737" data-name="Grupo 1074737" clip-path="url(#clip-path)">
        <path id="Trazado_824394" data-name="Trazado 824394" d="M81.356,76.715a6.832,6.832,0,0,1,.966.334,2.053,2.053,0,0,1,.976,2.067c.01,2.368.016,4.736,0,7.1a.785.785,0,0,0,.585.9c2.743,1.095,5.46,2.253,8.185,3.391.449.187.908.36,1.336.589a1.8,1.8,0,0,1,1.043,1.819,1.593,1.593,0,0,1-1.07,1.451,1.881,1.881,0,0,1-1.322,0c-1.5-.485-2.889-1.24-4.413-1.647a3.547,3.547,0,0,1-.456-.19c-.053-.135-.185-.147-.3-.193q-4.317-1.786-8.633-3.572-6.011-2.476-12.027-4.94Q59.1,80.888,51.982,77.951c-1.338-.551-2.669-1.122-4.022-1.635-.3-.112-.62-.323-.987-.172-1.542.634-3.089,1.259-4.63,1.9-1.875.775-3.744,1.567-5.621,2.339-2.118.871-4.243,1.725-6.364,2.59q-1.995.813-3.986,1.634-1.892.779-3.782,1.565c-1.68.7-3.357,1.4-5.037,2.1q-1.986.821-3.977,1.63c-1.332.543-2.672,1.067-4,1.629a10.64,10.64,0,0,0-2.221,1l-.124.027c-.077-.009-.16-.038-.2.064-1.41.494-2.788,1.066-4.162,1.65a1.919,1.919,0,0,1-1.648.167A1.87,1.87,0,0,1,.028,92.876a1.668,1.668,0,0,1,1.018-1.731c1.619-.777,3.286-1.448,4.947-2.13q2.372-.975,4.748-1.941a.706.706,0,0,0,.521-.762q-.028-18.9-.019-37.809,0-1.823.012-3.647a.965.965,0,0,0-.137-.514Q8.832,40.3,6.561,36.258c-.532-.945-1.071-1.887-1.6-2.833-.82-1.464-1.649-2.922-2.467-4.387-.575-1.031-1.149-2.064-1.711-3.1A6.255,6.255,0,0,1,0,22.948,4.449,4.449,0,0,1,.932,20.4,4.481,4.481,0,0,1,3.966,18.46,5.024,5.024,0,0,1,9.028,20.3c.841,1.028,1.667,2.068,2.5,3.1.074.092.142.21.295.177.178-.037.107-.209.132-.3a11.24,11.24,0,0,0,.129-1.786A8.685,8.685,0,0,1,13.722,17.3,10.345,10.345,0,0,1,17.4,14a8.807,8.807,0,0,1,2.4-.823,9.224,9.224,0,0,1,2.279-.233A9.433,9.433,0,0,1,28.3,15.3a12.14,12.14,0,0,1,2.081,2.405,9.347,9.347,0,0,1,1.311,3.53,21.72,21.72,0,0,1,.159,5.152,16.48,16.48,0,0,1-.407,2.444,11.026,11.026,0,0,1-1.738,3.6c-.006.009.006.029.018.084h1.538q5.768,0,11.537,0a8.387,8.387,0,0,1,2.242.269c.386.107.4-.114.4-.413q-.008-12.488,0-24.975a1.644,1.644,0,0,1,1.529-1.752,30.719,30.719,0,0,1,3.9-.09c.663-.019.665,0,.664-.69,0-.984,0-1.969-.006-2.953A1.92,1.92,0,0,1,53.057.1,6.719,6.719,0,0,1,54.231,0q7.453.008,14.906,0a3.669,3.669,0,0,1,1.335.186A1.742,1.742,0,0,1,71.2,2.966,13.6,13.6,0,0,1,69.66,4.593Q67.88,6.384,66.09,8.165c-.468.469-.465.468.014.944,1.309,1.3,2.719,2.5,3.976,3.863.274.3.657.187.956.119a6.76,6.76,0,0,1,1.9-.15,10.211,10.211,0,0,1,9.271,7.3,11.977,11.977,0,0,1,.4,3.472c-.048.055-.043.119.023.136s.084-.053.086-.112c1.027-1.249,2.016-2.53,3.089-3.738a4.682,4.682,0,0,1,5-1.439,4.618,4.618,0,0,1,3.61,3.836,5.094,5.094,0,0,1-.525,3.3c-1.255,2.445-2.657,4.809-4.019,7.194-1.138,1.993-2.239,4.008-3.379,6-1.008,1.759-1.96,3.551-3.052,5.26a1.093,1.093,0,0,0-.165.64q.019,9.254.035,18.508a2.353,2.353,0,0,1-.647,1.914,2.818,2.818,0,0,1-1.236.536c-.349-.134-.753-.109-1.055-.386a2,2,0,0,1-.711-1.495c-.015-1.138-.019-2.277-.034-3.415,0-.135.069-.361-.185-.329a7.644,7.644,0,0,1-.951-.106q-6.23.016-12.459,0c-.375,0-.451.105-.451.466q0,9.348-.026,18.7a.551.551,0,0,0,.412.578c.941.376,1.879.757,2.819,1.137q.832.336,1.663.675c.226.092.355.113.355-.226q-.021-7.894-.016-15.787c0-.723,0-1.447.042-2.168a1.787,1.787,0,0,1,2.726-1.315,2.114,2.114,0,0,1,.883,1.96q-.008,4.455,0,8.909,0,4.916-.007,9.832c0,.276.014.5.334.621,1.451.573,2.89,1.172,4.337,1.757.491.2.559.144.559-.372,0-2.169-.05-4.339.028-6.508a1.213,1.213,0,0,1,.17-.549,2.2,2.2,0,0,1,1.5-1.007M78.784,21.638a6.3,6.3,0,0,0-9.51-4.06,6.207,6.207,0,0,0-2.754,3.868c-.055.21-.064.375.231.344a1.294,1.294,0,0,0,1.3-1.163,1.828,1.828,0,0,1,1.631-1.913,1.885,1.885,0,0,1,1.6.555,14.135,14.135,0,0,0,1.554,1.369A7.791,7.791,0,0,0,77.5,21.82l.013.027.015-.027.789.013.026.027.026-.027.252-.009c.223.034.229.027.167-.186m-.669,3.9a18.684,18.684,0,0,1-3.375-.2,10.521,10.521,0,0,1-3.611-1.457.554.554,0,0,0-.8.091,4.86,4.86,0,0,1-3.131,1.441c-.3.029-.778.015-.84.162a2.8,2.8,0,0,0-.038,1.08c0,.087.062.172.069.259a5.8,5.8,0,0,0,1.661,3.614,5.973,5.973,0,0,0,6.205,1.734,6.152,6.152,0,0,0,4.593-6.4c0-.125.059-.295-.163-.31a.861.861,0,0,0-.567-.01m-61.6.016h-.428a.317.317,0,0,0-.316-.012c-.266.082-.175.313-.152.465a11,11,0,0,0,.358,2.23,6.086,6.086,0,0,0,1.677,2.63,6.314,6.314,0,0,0,10.238-2.7,12.293,12.293,0,0,0,.309-2.242c.027-.362-.06-.42-.355-.432a5.152,5.152,0,0,1-3.529-1.471.7.7,0,0,0-.967-.118,11.087,11.087,0,0,1-1.307.724,10.75,10.75,0,0,1-3.945.891l-.18.01-.279.02c-.042-.04-.079-.032-.112.011l-.886.006c-.038-.053-.08-.059-.125-.009m49.1,30.686c.091.156.245.1.374.1q6.575,0,13.151,0c.341,0,.478-.078.476-.466-.013-3.784,0-7.569,0-11.353a3.2,3.2,0,0,1,.484-1.826c.335-.512.612-1.063.913-1.6,3.216-5.729,6.536-11.4,9.662-17.179a1.531,1.531,0,0,0-.2-1.456,1.391,1.391,0,0,0-2.129.19c-.842,1.016-1.663,2.049-2.5,3.074q-3.532,4.348-7.065,8.7a3.7,3.7,0,0,0-.753,1.1Q77.5,37.1,77.007,38.7c-.374,1.206-.725,2.42-1.095,3.628-.5,1.618-1.01,3.229-1.5,4.85a1.942,1.942,0,0,1-1.434,1.4A1.738,1.738,0,0,1,70.95,47.6a10.114,10.114,0,0,1-.6-1.79c-.594-1.862-1.172-3.728-1.753-5.594-.386-1.238-.771-2.477-1.14-3.72a.352.352,0,0,0-.412-.295q-8.075.013-16.151.013a1.719,1.719,0,0,0-.336,3.415c.591.154,1.2.111,1.793.258,1,.25,2.025.29,3.035.463,1.358.233,2.737.347,4.1.578,1.4.237,2.8.4,4.2.63a2.053,2.053,0,0,1,1.614.888,2.638,2.638,0,0,1,.295,1.367q0,6.047-.009,12.094c-.025.115-.09.234.04.33M61.786,45.055c-1.542-.442-3.155-.455-4.721-.775-.823-.168-1.7-.213-2.546-.336-.92-.133-1.838-.288-2.759-.412a16.769,16.769,0,0,1-2.637-.524v.548q0,7.571,0,15.142a6.317,6.317,0,0,1-.077.9,1.761,1.761,0,0,1-2.59,1.254,1.922,1.922,0,0,1-1.022-1.851q-.007-7.71,0-15.419c0-.123,0-.246,0-.369,0-.093-.01-.2-.146-.16a10.934,10.934,0,0,1-1.473.257c-1.05.178-2.1.321-3.159.468-.823.114-1.66.183-2.468.333-.842.156-1.693.235-2.533.4s-1.721.266-2.583.394c-.328.049-.492.179-.448.567a13.786,13.786,0,0,1,.034,1.522q0,14.588,0,29.177c0,.446-.012.892-.028,1.338-.005.147-.1.343.035.422a.579.579,0,0,0,.484-.057c2.107-.9,4.214-1.8,6.331-2.673,2.1-.869,4.222-1.692,6.319-2.571a3.346,3.346,0,0,1,2.713-.051c1.013.422,2.041.809,3.057,1.223q3.2,1.3,6.394,2.623c1.159.477,2.318.957,3.471,1.448.281.12.411.16.449-.242.043-.457.006-.907.006-1.359q.012-14.773.008-29.546c0-.492.02-.984.03-1.476.04-.125.1-.263-.137-.194M21.926,56.334h6.461c.6,0,.6,0,.6-.6,0-4.078.018-8.156,0-12.234a1.939,1.939,0,0,1,1.8-1.948c1.536-.2,3.075-.389,4.6-.656,1.614-.283,3.242-.462,4.859-.725,1.226-.2,2.461-.353,3.687-.553A1.678,1.678,0,0,0,45.1,36.994a1.853,1.853,0,0,0-1.716-.78c-5.277-.015-10.553,0-15.829-.019a.522.522,0,0,0-.575.454c-.5,1.9-1.142,3.763-1.706,5.646-.5,1.669-1.041,3.325-1.558,4.989A1.9,1.9,0,0,1,21.7,48.654a1.818,1.818,0,0,1-1.361-1,23.391,23.391,0,0,1-.928-2.794c-.675-2.13-1.382-4.25-2.007-6.394-.2-.7-.457-1.378-.635-2.086A3.542,3.542,0,0,0,16.19,34.9q-3.695-4.517-7.367-9.053c-.877-1.08-1.773-2.145-2.626-3.245A1.511,1.511,0,0,0,4.3,22.245a1.362,1.362,0,0,0-.356,1.9c1.191,2.119,2.377,4.24,3.575,6.355q3.382,5.97,6.785,11.929a4.693,4.693,0,0,1,.656,2.448c-.026,3.678-.011,7.356-.031,11.034,0,.361.1.43.441.428,2.185-.015,4.369-.008,6.553-.008M14.945,72.639h0q0,5.469,0,10.939c0,.477-.018.954-.02,1.431,0,.14-.023.4.213.258a6.671,6.671,0,0,1,.835-.347c1.217-.521,2.438-1.038,3.677-1.5a.607.607,0,0,0,.491-.678q-.018-8.954-.008-17.908c0-.431-.011-.863.019-1.292A1.813,1.813,0,0,1,21.4,61.881a1.736,1.736,0,0,1,1.913.565,2.328,2.328,0,0,1,.453,1.65c.049,5.63.04,11.261,0,16.891,0,.678.04.683.665.434,1.34-.533,2.654-1.134,4-1.651a.717.717,0,0,0,.537-.8q-.016-9.231,0-18.462c0-.4-.13-.484-.5-.483q-6.528.014-13.057,0c-.376,0-.489.09-.488.481.015,4.046.009,8.092.009,12.138m50-40.127a10.794,10.794,0,0,1-1.873-3.455,8.906,8.906,0,0,1-.472-2.643c.037-1.312-.043-2.627.085-3.937a13.284,13.284,0,0,1,.237-1.7A9.562,9.562,0,0,1,64.4,17.389c.173-.247.228-.4-.18-.394-.877.013-1.754.014-2.63,0-.26,0-.3.094-.3.319.013.784.019,1.569,0,2.354a4.755,4.755,0,0,1-.117,1.082,1.787,1.787,0,0,1-1.906,1.416q-4.868.027-9.737,0c-.338,0-.431.069-.429.421.016,3.247.009,6.493.009,9.74v.464a17.972,17.972,0,0,1,2.927-.28c4.092.013,8.183.006,12.275.006ZM60.2,13.3q2.284,0,4.568,0c.1,0,.236.057.29-.056.07-.149-.085-.2-.169-.286-.989-.946-1.991-1.88-2.963-2.843a1.821,1.821,0,0,1-.073-2.888c1.018-1.068,2.085-2.09,3.134-3.128.086-.085.235-.142.183-.284s-.211-.094-.324-.095c-3.091,0-6.182,0-9.274-.008-.274,0-.366.076-.365.368q.019,4.407,0,8.815c0,.336.108.416.422.414,1.522-.013,3.045-.006,4.568-.007M22.064,16.628a6.018,6.018,0,0,0-3.68,1.072,6.587,6.587,0,0,0-2.636,3.92c-.071.269.15.2.243.193a20.263,20.263,0,0,0,2.77-.03,8.477,8.477,0,0,0,2.258-.731,9.809,9.809,0,0,0,2.3-1.818,1.913,1.913,0,0,1,2.169-.32,1.485,1.485,0,0,1,.932,1.475,1.4,1.4,0,0,0,.939,1.362.685.685,0,0,0,.657,0c.162-.118.017-.341-.033-.511a6.143,6.143,0,0,0-5.92-4.607m27.056-2.783c0,1.385.013,2.77-.009,4.154-.006.374.076.492.472.489,2.369-.02,4.737-.01,7.106-.01.9,0,.9,0,.834-.876a.9.9,0,0,1,0-.23c.063-.322-.092-.383-.38-.38-1.261.012-2.522-.005-3.784.007a1.969,1.969,0,0,1-1.829-1.828c-.01-1.816-.017-3.631-.007-5.447,0-.358-.117-.5-.476-.489-.507.017-1.016.023-1.522,0-.323-.016-.417.083-.413.41.018,1.4.007,2.8.007,4.2M21.943,36.2c-.353,0-.707.016-1.059,0-.3-.017-.334.11-.256.355.15.474.285.954.435,1.428.242.763.491,1.524.736,2.285.021.066-.014.18.1.172a.238.238,0,0,0,.17-.125c.059-.153.082-.32.132-.478.339-1.081.67-2.164,1.029-3.238.1-.3.075-.418-.269-.4s-.675,0-1.013,0m50.653,0c-.383,0-.767.006-1.149,0-.207,0-.317.017-.23.277.384,1.15.745,2.307,1.132,3.456.062.183.057.508.316.481.156-.017.1-.34.177-.514a2.031,2.031,0,0,0,.064-.213c.328-1.053.642-2.11.992-3.156.1-.3.022-.342-.244-.332-.352.014-.705,0-1.057,0" transform="translate(0 0.001)"/>
        <path id="Trazado_824395" data-name="Trazado 824395" d="M19.865,221.8a10.633,10.633,0,0,1,2.221-1c1.324-.561,2.664-1.086,4-1.629s2.653-1.082,3.977-1.63c1.68-.7,3.358-1.4,5.037-2.1q1.89-.785,3.782-1.565,1.992-.82,3.986-1.634c2.121-.864,4.246-1.719,6.364-2.59,1.877-.771,3.746-1.563,5.621-2.339,1.541-.637,3.087-1.262,4.63-1.9.367-.151.691.06.987.172,1.353.513,2.684,1.084,4.022,1.635q7.123,2.934,14.246,5.868,6.012,2.473,12.027,4.94,4.32,1.778,8.633,3.572c.112.046.243.058.3.193-.066.265-.286.189-.455.19-.923.007-1.846,0-2.768,0q-37.908,0-75.816-.008c-.262,0-.594.166-.785-.185" transform="translate(-12.505 -129.277)" fill="#a5db68"/>
        <path id="Trazado_824396" data-name="Trazado 824396" d="M192.728,178.684a2.2,2.2,0,0,0-1.5,1.007,1.21,1.21,0,0,0-.17.549c-.078,2.169-.027,4.338-.028,6.508,0,.517-.068.571-.559.372-1.446-.584-2.886-1.183-4.336-1.757-.32-.126-.335-.345-.335-.621q.008-4.916.007-9.833,0-4.455,0-8.909a2.115,2.115,0,0,0-.883-1.959,1.786,1.786,0,0,0-2.726,1.315c-.042.721-.042,1.445-.042,2.168q0,7.894.016,15.787c0,.339-.128.319-.354.226l-1.663-.675c-.939-.38-1.878-.761-2.818-1.137a.552.552,0,0,1-.413-.578q.028-9.348.026-18.7c0-.361.076-.467.451-.466q6.23.02,12.46,0a7.645,7.645,0,0,0,.951.106c.254-.031.183.195.185.329.015,1.138.019,2.277.034,3.415a2,2,0,0,0,.711,1.495c.3.276.706.251,1.055.385a5.807,5.807,0,0,0,.029,1.522c.06.733-.043,1.458.007,2.185-.108.006-.194.037-.183.172a.984.984,0,0,1-.206.093,1.854,1.854,0,0,0-1.4,1.694,1.8,1.8,0,0,0,1.286,1.76c.129.044.252.1.378.155a1.58,1.58,0,0,1,.1.805,16.312,16.312,0,0,1-.087,2.58" transform="translate(-111.372 -101.969)" fill="#868691"/>
        <path id="Trazado_824397" data-name="Trazado 824397" d="M216.7,191.62c-.126-.052-.249-.111-.378-.154a1.8,1.8,0,0,1-1.286-1.761,1.855,1.855,0,0,1,1.4-1.693,1.012,1.012,0,0,0,.206-.093l.2,0a1.875,1.875,0,0,1,1.558,1.063,1.763,1.763,0,0,1-1.251,2.546,4.384,4.384,0,0,1-.448.1" transform="translate(-135.363 -118.29)"/>
        <path id="Trazado_824398" data-name="Trazado 824398" d="M219.566,187.628l-.2,0c-.01-.134.075-.165.183-.172.006.057.013.113.019.169" transform="translate(-138.086 -118.003)" fill="#77d1f9"/>
        <path id="Trazado_824399" data-name="Trazado 824399" d="M223.008,64.018c0,.059-.009.132-.086.112s-.07-.08-.023-.135l.108.023" transform="translate(-140.292 -40.284)" fill="#868691"/>
        <path id="Trazado_824400" data-name="Trazado 824400" d="M18.984,249.843c.042-.1.125-.073.2-.064-.045.091-.121.084-.2.064" transform="translate(-11.95 -157.225)" fill="#a5db68"/>
        <path id="Trazado_824401" data-name="Trazado 824401" d="M149.022,93.361q0-6.047.009-12.094a2.644,2.644,0,0,0-.295-1.367,2.055,2.055,0,0,0-1.615-.888c-1.395-.233-2.8-.393-4.2-.63-1.359-.231-2.737-.345-4.1-.578-1.009-.173-2.038-.213-3.035-.463-.588-.147-1.2-.1-1.793-.258a1.719,1.719,0,0,1,.336-3.415q8.075-.013,16.151-.013a.351.351,0,0,1,.411.295c.369,1.243.755,2.481,1.14,3.72.581,1.866,1.159,3.733,1.753,5.594a10.114,10.114,0,0,0,.6,1.79,1.738,1.738,0,0,0,2.032.981,1.942,1.942,0,0,0,1.434-1.4c.486-1.62,1-3.232,1.5-4.85.37-1.208.72-2.422,1.094-3.628q.495-1.6,1.026-3.183a3.7,3.7,0,0,1,.753-1.1q3.53-4.351,7.065-8.7c.832-1.024,1.653-2.058,2.5-3.074a1.391,1.391,0,0,1,2.129-.19,1.531,1.531,0,0,1,.2,1.456c-3.126,5.779-6.446,11.45-9.662,17.179-.3.535-.577,1.086-.913,1.6a3.2,3.2,0,0,0-.484,1.826c0,3.784-.012,7.569,0,11.353,0,.388-.135.466-.476.466q-6.576-.006-13.151,0c-.129,0-.283.054-.374-.1-.008-.111.04-.228-.04-.331" transform="translate(-83.443 -37.454)" fill="#f1d8ff"/>
        <path id="Trazado_824402" data-name="Trazado 824402" d="M28.238,93.812c-2.185,0-4.369-.007-6.553.008-.336,0-.443-.067-.441-.428.019-3.678.005-7.356.031-11.034a4.689,4.689,0,0,0-.656-2.448Q17.2,73.96,13.834,67.981c-1.2-2.115-2.384-4.236-3.575-6.355a1.362,1.362,0,0,1,.356-1.9,1.511,1.511,0,0,1,1.893.362c.853,1.1,1.749,2.165,2.627,3.244q3.681,4.529,7.367,9.054a3.542,3.542,0,0,1,.579,1.476c.178.707.432,1.389.635,2.086.625,2.145,1.332,4.265,2.007,6.394a23.458,23.458,0,0,0,.928,2.794,1.817,1.817,0,0,0,1.361,1,1.9,1.9,0,0,0,2.018-1.371c.517-1.664,1.057-3.32,1.558-4.989.564-1.883,1.206-3.743,1.706-5.646a.522.522,0,0,1,.575-.454c5.276.016,10.553,0,15.829.019a1.853,1.853,0,0,1,1.716.78A1.678,1.678,0,0,1,50.242,77.1c-1.226.2-2.461.353-3.687.553-1.616.263-3.244.442-4.859.725-1.525.267-3.065.455-4.6.656a1.939,1.939,0,0,0-1.8,1.948c.019,4.078,0,8.156,0,12.234,0,.594,0,.6-.6.6H28.238" transform="translate(-6.312 -37.477)" fill="#77d1f9"/>
        <path id="Trazado_824403" data-name="Trazado 824403" d="M40.29,174.613c0-4.046.006-8.092-.009-12.138,0-.391.112-.482.488-.481q6.529.019,13.057,0c.367,0,.5.082.5.483q-.019,9.231,0,18.462a.717.717,0,0,1-.537.8c-1.346.517-2.66,1.117-4,1.651-.625.249-.67.244-.666-.434.035-5.63.044-11.261,0-16.891a2.327,2.327,0,0,0-.454-1.65,1.735,1.735,0,0,0-1.913-.565,1.812,1.812,0,0,0-1.259,1.657c-.03.429-.019.861-.019,1.292q0,8.954.008,17.908a.607.607,0,0,1-.491.678c-1.239.466-2.46.982-3.677,1.5a6.673,6.673,0,0,0-.835.347c-.236.14-.214-.118-.213-.258,0-.477.02-.954.02-1.431q0-5.469,0-10.939Z" transform="translate(-25.345 -101.973)" fill="#868691"/>
        <path id="Trazado_824404" data-name="Trazado 824404" d="M43.13,65.921l.886-.006a.068.068,0,0,0,.112-.011l.279-.02c.064.07.124.064.18-.01a10.75,10.75,0,0,0,3.945-.891,11.082,11.082,0,0,0,1.306-.724.7.7,0,0,1,.967.118,5.153,5.153,0,0,0,3.529,1.471c.295.011.382.07.355.431a12.325,12.325,0,0,1-.309,2.242,6.315,6.315,0,0,1-10.238,2.7,6.09,6.09,0,0,1-1.677-2.63,11.032,11.032,0,0,1-.358-2.23c-.022-.152-.114-.383.152-.465a.317.317,0,0,0,.317.012H43l.126.009" transform="translate(-26.485 -40.361)" fill="#fee581"/>
        <path id="Trazado_824405" data-name="Trazado 824405" d="M191.291,65.892c.222.016.158.185.163.311a6.152,6.152,0,0,1-4.593,6.4,5.973,5.973,0,0,1-6.205-1.734,5.8,5.8,0,0,1-1.661-3.614c-.007-.088-.067-.173-.069-.259a2.807,2.807,0,0,1,.038-1.081c.062-.147.545-.133.84-.162a4.864,4.864,0,0,0,3.131-1.441.554.554,0,0,1,.8-.091,10.536,10.536,0,0,0,3.611,1.457,18.716,18.716,0,0,0,3.375.2.789.789,0,0,0,.567.01" transform="translate(-112.609 -40.346)" fill="#fee581"/>
        <path id="Trazado_824406" data-name="Trazado 824406" d="M153.982,19.6c-1.522,0-3.045-.007-4.568.006-.315,0-.424-.078-.422-.414q.018-4.407,0-8.815c0-.293.091-.369.365-.368,3.091.007,6.183,0,9.274.008.113,0,.272-.051.324.095s-.1.2-.183.284c-1.049,1.039-2.116,2.06-3.134,3.128a1.821,1.821,0,0,0,.073,2.888c.972.963,1.974,1.9,2.963,2.843.084.081.24.137.169.286-.054.113-.192.056-.29.056q-2.284.005-4.568,0" transform="translate(-93.786 -6.297)" fill="#fee581"/>
        <path id="Trazado_824407" data-name="Trazado 824407" d="M48.8,44.879a6.143,6.143,0,0,1,5.92,4.606c.05.17.2.394.033.512a.687.687,0,0,1-.657,0,1.4,1.4,0,0,1-.939-1.362,1.486,1.486,0,0,0-.932-1.475,1.912,1.912,0,0,0-2.169.32,9.809,9.809,0,0,1-2.3,1.818,8.481,8.481,0,0,1-2.258.731,20.263,20.263,0,0,1-2.77.03c-.093,0-.314.076-.243-.194a6.586,6.586,0,0,1,2.636-3.919,6.012,6.012,0,0,1,3.68-1.072" transform="translate(-26.733 -28.25)" fill="#868691"/>
        <path id="Trazado_824408" data-name="Trazado 824408" d="M191.58,50.05l-.252.009c-.017-.043-.035-.043-.053,0l-.789-.013-.014-.021-.014.02a7.789,7.789,0,0,1-4.658-1.182,14.1,14.1,0,0,1-1.554-1.369,1.886,1.886,0,0,0-1.6-.554,1.828,1.828,0,0,0-1.631,1.913,1.294,1.294,0,0,1-1.3,1.163c-.295.031-.286-.134-.231-.344a6.21,6.21,0,0,1,2.754-3.869,6.3,6.3,0,0,1,9.51,4.06l-.167.186" transform="translate(-112.962 -28.224)" fill="#8e4411"/>
        <path id="Trazado_824409" data-name="Trazado 824409" d="M132.558,29.533c0-1.4.01-2.8-.007-4.2,0-.326.09-.426.413-.409.507.026,1.015.019,1.522,0,.359-.012.478.13.476.489-.01,1.816,0,3.631.007,5.447a1.968,1.968,0,0,0,1.829,1.828c1.261-.013,2.522,0,3.784-.008.288,0,.443.058.38.38a.889.889,0,0,0,0,.23c.062.875.063.875-.835.875-2.368,0-4.737-.01-7.106.01-.4,0-.479-.115-.472-.489.023-1.385.009-2.77.01-4.154" transform="translate(-83.437 -15.688)" fill="#868691"/>
        <path id="Trazado_824410" data-name="Trazado 824410" d="M56.929,97.705c.338,0,.676.016,1.013,0s.37.095.269.4c-.359,1.074-.69,2.158-1.029,3.239-.05.157-.073.324-.132.478a.237.237,0,0,1-.17.125c-.11.009-.075-.106-.1-.171-.245-.762-.494-1.522-.735-2.286-.15-.474-.285-.953-.435-1.428-.077-.245-.044-.372.256-.355.352.02.706,0,1.059,0" transform="translate(-34.985 -61.5)" fill="#f8f9fb"/>
        <path id="Trazado_824411" data-name="Trazado 824411" d="M193.538,97.709c.352,0,.705.01,1.057,0,.266-.01.343.036.244.332-.35,1.046-.664,2.1-.992,3.156a2.056,2.056,0,0,1-.064.213c-.077.174-.021.5-.177.514-.259.027-.254-.3-.316-.481-.387-1.149-.748-2.306-1.132-3.456-.087-.26.023-.282.23-.277.383.008.766,0,1.149,0" transform="translate(-120.942 -61.504)" fill="#f8f9fb"/>
        <path id="Trazado_824412" data-name="Trazado 824412" d="M211.395,68.857a.789.789,0,0,1-.567-.01.864.864,0,0,1,.567.01" transform="translate(-132.713 -43.311)" fill="#868691"/>
        <path id="Trazado_824413" data-name="Trazado 824413" d="M212.184,58.589l.167-.186c.062.213.056.22-.167.186" transform="translate(-133.567 -36.764)" fill="#868691"/>
        <path id="Trazado_824414" data-name="Trazado 824414" d="M166.894,121.766c-.132,0-.138-.1-.137-.194.235-.069.177.069.137.194" transform="translate(-104.971 -76.516)" fill="#868691"/>
        <path id="Trazado_824415" data-name="Trazado 824415" d="M176.929,150.891c.08.1.032.22.04.331-.13-.1-.065-.216-.04-.331" transform="translate(-111.35 -94.984)" fill="#868691"/>
        <path id="Trazado_824416" data-name="Trazado 824416" d="M42.891,68.88a.317.317,0,0,1-.317-.012.317.317,0,0,1,.317.012" transform="translate(-26.8 -43.328)" fill="#868691"/>
        <path id="Trazado_824417" data-name="Trazado 824417" d="M48.552,68.859c-.056.074-.116.08-.18.01l.18-.01" transform="translate(-30.449 -43.346)" fill="#868691"/>
        <path id="Trazado_824418" data-name="Trazado 824418" d="M44.71,68.913l-.126-.009c.046-.051.087-.044.126.009" transform="translate(-28.065 -43.352)" fill="#868691"/>
        <path id="Trazado_824419" data-name="Trazado 824419" d="M211.362,58.875c.018-.042.036-.042.053,0l-.027.027Z" transform="translate(-133.049 -37.041)" fill="#868691"/>
        <path id="Trazado_824420" data-name="Trazado 824420" d="M209.157,58.859l.014-.02.014.021-.015.027Z" transform="translate(-131.661 -37.038)" fill="#868691"/>
        <path id="Trazado_824421" data-name="Trazado 824421" d="M47.427,68.9a.068.068,0,0,1-.112.011c.034-.043.07-.052.112-.011" transform="translate(-29.784 -43.352)" fill="#868691"/>
        <path id="Trazado_824422" data-name="Trazado 824422" d="M122.612,177.456a1.894,1.894,0,0,1,1.756-1.775,1.673,1.673,0,0,1,1.9,1.729,1.826,1.826,0,1,1-3.652.046" transform="translate(-77.182 -110.584)"/>
      </g>
    </g>
  </g>
</svg>
