<svg xmlns="http://www.w3.org/2000/svg" xmlns:xlink="http://www.w3.org/1999/xlink" width="169" height="169" viewBox="0 0 169 169">
  <defs>
    <clipPath id="clip-path">
      <rect id="Rect치ngulo_378365" data-name="Rect치ngulo 378365" width="110.847" height="114" fill="none"/>
    </clipPath>
  </defs>
  <g id="Grupo_1073685" data-name="Grupo 1073685" transform="translate(-384.743 -2057.999)">
    <g id="Grupo_159182" data-name="Grupo 159182" transform="translate(384.743 2057.999)">
      <path id="Uni칩n_12" data-name="Uni칩n 12" d="M84.5,0A84.5,84.5,0,1,1,0,84.5,84.5,84.5,0,0,1,84.5,0Z" transform="translate(0 0)" fill="#ffae7e"/>
    </g>
    <g id="Grupo_1074742" data-name="Grupo 1074742" transform="translate(406.409 2085.713)">
      <g id="Grupo_1074741" data-name="Grupo 1074741" clip-path="url(#clip-path)">
        <path id="Trazado_824450" data-name="Trazado 824450" d="M93.732,6.617a1.948,1.948,0,0,1,2.985.127,19.583,19.583,0,0,1,4.135,5.812,15.9,15.9,0,0,1,1.242,4.691,62.656,62.656,0,0,1,.138,7.264,1.486,1.486,0,0,0,.339.962,6.506,6.506,0,0,1,1.406,3.824,6.38,6.38,0,0,1-1.143,4.187,6.531,6.531,0,0,1-5.256,2.889c-.868.035-1.737.024-2.606.033a.238.238,0,0,0-.284.056,9.674,9.674,0,0,0-.145,1.859,13.025,13.025,0,0,1-4.127,9.131,10.6,10.6,0,0,1-1.883,1.436.376.376,0,0,0-.228.379q.023,2.805.036,5.61c-.035.292.148.2.3.172l.678-.011.211,0c2.312,0,4.625-.019,6.937,0a13.982,13.982,0,0,1,8.645,2.76,15.457,15.457,0,0,1,3.775,4.284,14.025,14.025,0,0,1,1.843,5.2,10.372,10.372,0,0,1,.112,1.595c.008,4.751,0,9.5.008,14.254a8.79,8.79,0,0,1-1.067,4.194,7.256,7.256,0,0,1-2.494,2.756,9.133,9.133,0,0,1-5.3,1.609c-.739-.037-1.481.012-2.22-.011-.369-.011-.474.122-.471.483.015,2.06-.006,4.12.012,6.18.012,1.363-.51,1.882-1.664,2.091a1.691,1.691,0,0,1-1.474-1.021,3.021,3.021,0,0,1-.187-1.256c0-1.985-.012-3.97,0-5.955,0-.389-.109-.514-.5-.5-.887.029-1.776.012-2.664.011q-5.633,0-11.266-.006c-.368,0-.6,0-.6.519.029,2.8.01,5.6.01,8.4a6.624,6.624,0,0,1-.1,1.273,4.193,4.193,0,0,1-2.649,3.239,5.924,5.924,0,0,1-2.313.308c-4.144-.017-8.288,0-12.431-.022-.521,0-.652.168-.639.669.034,1.316.037,2.635,0,3.952-.013.5.142.617.624.617q15.983-.021,31.966,0c.439,0,.572-.1.561-.552-.028-1.149-.029-2.3.009-3.45a1.556,1.556,0,0,1,1.639-1.7c.925-.029,1.631.548,1.65,1.892.024,1.761.046,3.524.007,5.285-.03,1.337-.723,1.682-2.01,1.855a2.127,2.127,0,0,1-.277,0q-17.5,0-35-.021a4.075,4.075,0,0,1-1.58-.16,2.164,2.164,0,0,1-1.036-1.721c.124-2.089,0-4.181.067-6.27.009-.267-.109-.3-.329-.3-.684.011-1.368,0-2.052,0-.02-.082-.024-.065-.019,0-.011.7-.018,1.4-.033,2.107a4.251,4.251,0,0,1-2.816,4.061,3.229,3.229,0,0,1-1.228.175c-1.863.013-3.732.074-5.59-.027a3.9,3.9,0,0,1-3.736-3.318,7.5,7.5,0,0,0-.106-1.24c.144-.1.142-.2-.009-.3a.914.914,0,0,0,0-.6c.168-.141.166-.277-.011-.409,0-.047,0-.094,0-.14a.2.2,0,0,0,0-.09c.1-.364-.233-.3-.38-.334a3.033,3.033,0,0,0-.718-.018c-4.052,0-8.1.017-12.155-.018a3.464,3.464,0,0,1-2.664-1.516,4.224,4.224,0,0,1-1.041-2.694q.015-14.5.016-29c0-.8.006-1.6.047-2.392.019-.364-.063-.476-.449-.466a35.154,35.154,0,0,1-3.547-.008,15.8,15.8,0,0,1-3.452-.569,32.665,32.665,0,0,1-4.376-1.491,25.6,25.6,0,0,1-4.3-2.493A27.992,27.992,0,0,1,3.23,56.545,22.625,22.625,0,0,1,.849,50.591a25.611,25.611,0,0,1-.781-8.443,23.909,23.909,0,0,1,1.025-5.327,27.779,27.779,0,0,1,3.315-6.931,25.8,25.8,0,0,1,3.358-3.965,21.985,21.985,0,0,1,5.094-3.862,25.974,25.974,0,0,1,7.486-2.7,8.249,8.249,0,0,1,2.014-.294c1.347.087,2.676-.135,4.033,0a35.014,35.014,0,0,1,5.382.968,20.528,20.528,0,0,1,4.641,1.857,24.47,24.47,0,0,1,6.521,5.08,23.736,23.736,0,0,1,3.608,5.1c.372.738.769,1.465,1.176,2.185.1.179.024.357.093.532a30.469,30.469,0,0,1,1.412,5.063,19.33,19.33,0,0,1,.419,4.518,28.39,28.39,0,0,1-.461,4.333,21.8,21.8,0,0,0-.577,2.607c.049.047-.022.263.166.121a4.477,4.477,0,0,0,1.105.025q10.934,0,21.869,0c1.024,0,.989.008,1.035-1.054a1.894,1.894,0,0,0-.872-1.9,12.5,12.5,0,0,1-4.727-6.424,14.292,14.292,0,0,1-.715-5.171c.021-.421-.14-.513-.5-.509-.758.009-1.517,0-2.276,0a6.59,6.59,0,0,1-5.8-3.46,6.411,6.411,0,0,1-.858-4.219,6.019,6.019,0,0,1,1.353-3.2,1.243,1.243,0,0,0,.312-.615c.132,0,.238-.023.11-.184a1.965,1.965,0,0,0-.033-.818.448.448,0,0,0-.033-.623c.131-.185.063-.4.064-.594.011-5.194.046-10.388.007-15.582A6.873,6.873,0,0,1,60.333,2.5,6.57,6.57,0,0,1,64.644.066a7.171,7.171,0,0,1,5.1,1.359A5.878,5.878,0,0,0,73.136,2.46c3.976-.044,7.953-.021,11.929-.028a18.889,18.889,0,0,1,3.325.3A.9.9,0,0,1,89,3.177a2,2,0,0,1,.481,1.509A2.138,2.138,0,0,1,87.19,6a13.9,13.9,0,0,0-2.548-.22c-3.849.015-7.7-.012-11.546.022a10.9,10.9,0,0,1-2.217-.3A7.21,7.21,0,0,1,68.1,4.281a4.187,4.187,0,0,0-3.083-.844,3.358,3.358,0,0,0-2.464,1.721,4.335,4.335,0,0,0-.4,2.434c-.012,4.937,0,9.873-.018,14.81,0,.4.124.531.5.478a20.755,20.755,0,0,1,3.323-.092c.4.008.491-.13.486-.509-.022-1.912-.024-3.823-.018-5.735a2.518,2.518,0,0,1,2.777-2.8c5,0,9.992-.018,14.988.016a10.3,10.3,0,0,1,3.165.372A9.888,9.888,0,0,1,94.5,22.183c.094.5.277.617.751.608a14.053,14.053,0,0,1,3.044.095c.642.127.648.148.64-.514-.014-1.238.015-2.475-.086-3.715a19.439,19.439,0,0,0-.32-2.508A13.4,13.4,0,0,0,94.4,9.137c-.985-.929-1.109-1.344-.664-2.52M72.726,54.88c-8-.168-16.005-.007-24.008-.086l-.2,0h-.136a.542.542,0,0,0-.416,0l-.361.005c-.114-.038-.21-.028-.262.1a1.616,1.616,0,0,0-.3.385,18.2,18.2,0,0,1-1.794,3.212c-.084.134-.336.2-.254.383.093.2.332.107.505.107q13.833,0,27.666-.008c1.413.128,2.837-.083,4.247.136.255.04.255-.133.255-.307,0-.962.023-1.924-.006-2.885-.023-.767-.308-1.13-.979-1.135a18.471,18.471,0,0,0-3.956.1m4.9,24.25c.007-.11.02-.221.02-.332q0-7.487,0-14.974a1.906,1.906,0,0,0-.034-.44c-.1-.4-.14-.9-.682-.928-.493-.026-.973-.135-1.472-.135q-14.6.017-29.192.006c-1.258,0-2.516.005-3.774,0a1.041,1.041,0,0,0-.807.262,23.218,23.218,0,0,1-3.436,2.715,23.545,23.545,0,0,1-7.614,3.341c-.6.155-.692.368-.691.934q.041,15.363.036,30.726c0,.351,0,.7.025,1.054a.716.716,0,0,0,.79.733q.887.01,1.775.009,21.811-.008,43.622-.018c1.138,0,1.443-.259,1.449-1.344.017-2.894,0-5.789.011-8.684,0-.26-.066-.338-.336-.353a6,6,0,0,1-2.913-.847,5.564,5.564,0,0,1-2.827-4.917c-.007-1-.019-2-.007-3.005,0-.349-.078-.477-.467-.458a21.675,21.675,0,0,1-2.495,0,1.626,1.626,0,0,1-1.42-2.332,1.921,1.921,0,0,1,1.9-.956c2.811-.008,5.623,0,8.434,0,.083.069.108.034.1-.057M24.6,66.047a22.286,22.286,0,0,0,5.675-.736,21.179,21.179,0,0,0,12.84-9.664,21.829,21.829,0,0,0,2.382-5.51,24.31,24.31,0,0,0,.738-4.277,17.476,17.476,0,0,0,0-2.929,22.608,22.608,0,0,0-.562-4.023,21.387,21.387,0,0,0-2.267-5.566A26.708,26.708,0,0,0,41.868,30.9a21.263,21.263,0,0,0-7.349-6.224,20.692,20.692,0,0,0-7.37-2.193,20.253,20.253,0,0,0-4.242-.046A21.678,21.678,0,0,0,3.4,42.583a23.8,23.8,0,0,0,.069,3.985,21.908,21.908,0,0,0,6.022,12.9,21.011,21.011,0,0,0,8.021,5.275,20.071,20.071,0,0,0,7.094,1.3M93.617,88.32V88.29c3.015,0,6.031.042,9.045-.018a4.707,4.707,0,0,0,3.8-1.977,5.992,5.992,0,0,0,1.08-3.76c-.006-4.36,0-8.721-.013-13.081a11.037,11.037,0,0,0-1.336-5.437,10.189,10.189,0,0,0-6.845-5.279,10.84,10.84,0,0,0-2.605-.342c-1.165.008-2.33,0-3.5-.008-1.5-.008-3,0-4.494-.043-.393-.012-.5.082-.561.452a6.856,6.856,0,0,1-3.555,5.093,7.047,7.047,0,0,1-3.172.866c-.5.02-.5.229-.5.606.007,4.379.012,8.758-.018,13.137,0,.556.15.678.674.676q6.91-.025,13.819.007c.461,0,.56-.118.557-.552-.018-3.173-.012-6.346-.016-9.518a3.422,3.422,0,0,1,.1-.992,1.366,1.366,0,0,1,1.065-1.092,1.663,1.663,0,0,1,1.829.593,2.156,2.156,0,0,1,.329,1.265c0,3.006,0,6.012-.005,9.018,0,1.335-.014,1.335,1.319,1.357a1.614,1.614,0,0,1,.119,3.22c-.2.018-.407.015-.61.015q-3.663,0-7.326,0c-2.775,0-5.55.014-8.324.006-.4,0-.53.1-.521.532.033,1.6.024,3.192,0,4.787,0,.38.091.515.492.513,3.053-.015,6.1-.008,9.157-.008M69.778,28.01h.013q0,5.066,0,10.132a2.338,2.338,0,0,0,.017.66c.246.806.35,1.638.646,2.449a9.89,9.89,0,0,0,1.89,3.211c2.825,3.2,6.531,3.807,10.467,3.218a9.8,9.8,0,0,0,6.8-4.48,9.609,9.609,0,0,0,1.667-5.3c.074-4.675.043-9.352.029-14.029a6.653,6.653,0,0,0-.381-2.313,6.463,6.463,0,0,0-6.416-4.414c-4.7-.036-9.4,0-14.1-.019-.5,0-.653.122-.649.64.023,3.414.012,6.829.012,10.243m15.2,26.474h0V51.367c0-.658-.091-.719-.727-.587a13.878,13.878,0,0,1-2.252.4,19.8,19.8,0,0,1-5.462-.37c-.142-.034-.3-.134-.388.019a.59.59,0,0,0-.019.431c.092.261.346.138.523.147a4.388,4.388,0,0,1,4.331,4.441c.021,1.669.033,3.34-.016,5.009-.016.559.237.627.638.564a3.637,3.637,0,0,0,3.376-3.875c0-1.02,0-2.041,0-3.061M66.453,29.653h0c0-1.02-.012-2.039.007-3.059.007-.338-.1-.469-.437-.462a16.432,16.432,0,0,0-3.084.124,2.739,2.739,0,0,0-1.88,1.152,3.443,3.443,0,0,0-.363,3.641,3.231,3.231,0,0,0,2.859,2c.828.057,1.663,0,2.494.025.321.008.413-.106.407-.417-.016-1-.006-2-.006-3M94.629,29.5c0,1.261.024,2.207-.012,3.15-.014.379.149.437.445.431.683-.012,1.367-.05,2.049-.021a3.412,3.412,0,0,0,2.239-.8,3.276,3.276,0,0,0,1.246-3.449,3.151,3.151,0,0,0-2.346-2.5A12.858,12.858,0,0,0,94.8,26.14c-.219,0-.306.112-.262.313a19.667,19.667,0,0,1,.094,3.048M77.8,82.511v-.005c-.832,0-1.663,0-2.495,0-.241,0-.441,0-.436.333.016,1.093.011,2.187.028,3.28a2.343,2.343,0,0,0,2.163,2.189c1.089.017,2.179.016,3.268.028.26,0,.34-.109.339-.372q-.017-2.529,0-5.059c0-.322-.12-.405-.428-.4-.813.021-1.627.007-2.44.007M50.3,105.427v0c-.962,0-1.925.026-2.885-.012-.445-.017-.531.159-.517.544.02.575,0,1.15,0,1.726s.2.834.781.841q2.636.033,5.272,0a.663.663,0,0,0,.724-.772c-.024-.63-.022-1.262.005-1.892.015-.347-.107-.452-.441-.447-.981.015-1.961.005-2.942.005" transform="translate(0 0)"/>
        <path id="Trazado_824451" data-name="Trazado 824451" d="M175.861,219.1a1.556,1.556,0,0,0-1.639,1.7c-.037,1.149-.037,2.3-.009,3.45.011.448-.122.552-.561.552q-15.984-.019-31.966,0c-.482,0-.637-.116-.624-.617q.053-1.975,0-3.952c-.013-.5.119-.671.64-.669,4.144.02,8.287.006,12.431.023a5.935,5.935,0,0,0,2.313-.309,4.193,4.193,0,0,0,2.649-3.239,6.658,6.658,0,0,0,.1-1.273c0-2.8.019-5.6-.011-8.4-.005-.516.227-.519.6-.519q5.633.01,11.266.007c.888,0,1.777.018,2.664-.012.393-.013.505.111.5.5-.016,1.985-.006,3.97,0,5.956a3.023,3.023,0,0,0,.188,1.256,1.691,1.691,0,0,0,1.474,1.021q0,2.264-.006,4.528" transform="translate(-78.218 -114.14)" fill="#487fac"/>
        <path id="Trazado_824452" data-name="Trazado 824452" d="M171.065,10.851c-.445,1.175-.32,1.591.665,2.52a13.4,13.4,0,0,1,4.135,7.012,19.434,19.434,0,0,1,.32,2.508c.1,1.24.072,2.477.086,3.715.008.662,0,.641-.64.514a14.08,14.08,0,0,0-3.044-.1c-.474.01-.657-.105-.75-.607a9.889,9.889,0,0,0-7.15-8.048A10.3,10.3,0,0,0,161.523,18c-5-.035-9.992-.02-14.988-.016a2.518,2.518,0,0,0-2.777,2.8c-.005,1.912,0,3.823.018,5.735,0,.379-.084.517-.486.508a20.812,20.812,0,0,0-3.324.093c-.378.053-.5-.075-.5-.478.015-4.937.007-9.873.018-14.81a4.339,4.339,0,0,1,.4-2.434,3.357,3.357,0,0,1,2.464-1.721,4.186,4.186,0,0,1,3.083.844,7.21,7.21,0,0,0,2.782,1.226,10.9,10.9,0,0,0,2.217.3c3.849-.035,7.7-.008,11.547-.022a13.859,13.859,0,0,1,2.548.22,2.138,2.138,0,0,0,2.289-1.313,13.858,13.858,0,0,1,4.253,1.932" transform="translate(-77.334 -4.233)" fill="#a15528"/>
        <path id="Trazado_824453" data-name="Trazado 824453" d="M131.723,52.218a.447.447,0,0,1,.033.623.492.492,0,0,1-.033-.623" transform="translate(-72.989 -28.955)" fill="#487fac"/>
        <path id="Trazado_824454" data-name="Trazado 824454" d="M97.473,237.93c.177.131.178.268.011.409q-.427-.194-.011-.409" transform="translate(-53.935 -131.934)" fill="#487fac"/>
        <path id="Trazado_824455" data-name="Trazado 824455" d="M97.613,240.183c.151.094.154.192.009.295-.153-.094-.144-.192-.009-.295" transform="translate(-54.07 -133.183)" fill="#487fac"/>
        <path id="Trazado_824456" data-name="Trazado 824456" d="M198.588,123.338c-.151.032-.334.121-.3-.172.145-.022.288-.041.3.172" transform="translate(-109.95 -68.289)" fill="#ffccbd"/>
        <path id="Trazado_824457" data-name="Trazado 824457" d="M200.695,123.357l-.211,0c-.011-.083.019-.147.106-.148s.118.062.106.146" transform="translate(-111.168 -68.321)" fill="#ffccbd"/>
        <path id="Trazado_824458" data-name="Trazado 824458" d="M109.268,115.285c-.188.142-.116-.073-.166-.121.1-.016.177-.011.166.121" transform="translate(-60.498 -63.856)" fill="#487fac"/>
        <path id="Trazado_824459" data-name="Trazado 824459" d="M131.828,55.453c.129.16.022.18-.11.184-.031-.1-.041-.192.11-.184" transform="translate(-73.028 -30.749)" fill="#487fac"/>
        <path id="Trazado_824460" data-name="Trazado 824460" d="M212.543,81.751a.238.238,0,0,1,.284-.056.269.269,0,0,1-.284.056" transform="translate(-117.856 -45.288)" fill="#dceafd"/>
        <path id="Trazado_824461" data-name="Trazado 824461" d="M128.087,236.826c0-.069,0-.086.019,0l-.019,0" transform="translate(-71.024 -131.289)" fill="#487fac"/>
        <path id="Trazado_824462" data-name="Trazado 824462" d="M97.623,237.413a.2.2,0,0,1,0,.09l-.077-.046.078-.044" transform="translate(-54.089 -131.647)" fill="#487fac"/>
        <path id="Trazado_824463" data-name="Trazado 824463" d="M114.8,156.757c-2.811,0-5.623-.006-8.434,0a1.921,1.921,0,0,0-1.9.956,1.625,1.625,0,0,0,1.42,2.332,21.675,21.675,0,0,0,2.495,0c.389-.019.471.109.467.458-.012,1,0,2,.007,3.005a5.565,5.565,0,0,0,2.827,4.917,6,6,0,0,0,2.914.847c.27.016.336.094.335.353-.008,2.895.007,5.789-.011,8.684-.007,1.084-.311,1.343-1.45,1.344q-21.811.011-43.621.018-.887,0-1.775-.009a.716.716,0,0,1-.79-.733c-.025-.35-.024-.7-.024-1.054q-.012-15.364-.037-30.726c0-.565.092-.779.691-.934a23.546,23.546,0,0,0,7.614-3.341,23.242,23.242,0,0,0,3.436-2.715,1.041,1.041,0,0,1,.807-.262c1.258,0,2.516,0,3.774,0q14.6,0,29.192-.006c.5,0,.979.109,1.472.135.542.029.584.524.682.928a1.907,1.907,0,0,1,.034.44q0,7.487,0,14.974c0,.11-.013.221-.021.332l-.1.057M78.863,169.823c-.646.013-1.293.019-1.939.04a1.646,1.646,0,0,0-1.421,1.748,1.785,1.785,0,0,0,1.509,1.529,14.5,14.5,0,0,0,1.882,0c.27-.012.389.069.519.342a5.284,5.284,0,0,0,3.637,3.045,4.481,4.481,0,0,0,2.7-.2,5.212,5.212,0,0,0,3-2.74c.163-.347.3-.4.608-.4q7.516,0,15.032-.008a4.248,4.248,0,0,0,.992-.078,1.685,1.685,0,0,0,1.042-2.373,1.8,1.8,0,0,0-1.759-.887c-5.011,0-10.022,0-15.032.025a.871.871,0,0,1-.944-.576,4.787,4.787,0,0,0-4-2.872,5,5,0,0,0-5.179,2.851.912.912,0,0,1-.567.5l-.087.057m4.33-17.009H83.2q0,3.2,0,6.4a2.7,2.7,0,0,0,4.178,2.312,12.539,12.539,0,0,1,1.373-.867,25.417,25.417,0,0,0,3.332-1.949c1.785-1.13,3.606-2.2,5.372-3.366a3.486,3.486,0,0,0,1.084-1.161,2.574,2.574,0,0,0-.934-3.581c-1.432-.95-2.908-1.834-4.359-2.757s-2.872-1.83-4.346-2.683a10.35,10.35,0,0,0-2.4-1.277,2.556,2.556,0,0,0-3.279,2.363c-.141,2.179-.036,4.375-.036,6.563" transform="translate(-37.273 -77.57)" fill="#dceafd"/>
        <path id="Trazado_824464" data-name="Trazado 824464" d="M28.768,93.86a20.081,20.081,0,0,1-7.094-1.3,21.019,21.019,0,0,1-8.021-5.275,21.908,21.908,0,0,1-6.022-12.9A23.9,23.9,0,0,1,7.563,70.4,21.409,21.409,0,0,1,27.071,50.248a20.313,20.313,0,0,1,4.242.046,20.707,20.707,0,0,1,7.37,2.193,21.259,21.259,0,0,1,7.349,6.224,26.616,26.616,0,0,1,1.539,2.445,21.4,21.4,0,0,1,2.268,5.566,22.612,22.612,0,0,1,.561,4.023,17.422,17.422,0,0,1,0,2.929,24.3,24.3,0,0,1-.738,4.277,21.806,21.806,0,0,1-2.382,5.51,21.177,21.177,0,0,1-12.84,9.664,22.282,22.282,0,0,1-5.675.736M16.6,80.765a2.594,2.594,0,0,0-.05.748,3.2,3.2,0,0,0,2.024,2.513,26.269,26.269,0,0,0,3.024.885q3.069.734,6.119,1.549a5.211,5.211,0,0,0,2.148.07,34.973,34.973,0,0,0,3.7-.9c1.9-.5,3.819-.932,5.693-1.523a3.011,3.011,0,0,0,1.419-.952A3.3,3.3,0,0,0,41.4,80.96c.019-2.3.01-4.6,0-6.9,0-.309.053-.422.416-.542,1.515-.5,3.093-.8,4.566-1.43a2.249,2.249,0,0,0,1.169-2.374,2.519,2.519,0,0,0-1.978-1.892c-1.522-.456-3.041-.924-4.563-1.377-1.439-.429-2.885-.834-4.321-1.27-2.062-.626-4.119-1.267-6.177-1.907a4.108,4.108,0,0,0-2.728-.106c-.647.233-1.327.4-1.992.591-1.232.357-2.453.752-3.7,1.074-.917.238-1.836.568-2.746.882-.566.2-1.213.221-1.717.455-.64.3-1.324.4-1.968.652-1.266.489-2.6.828-3.907,1.205A2.322,2.322,0,0,0,10.4,70.695a7.657,7.657,0,0,1,.369,2.783c-.025,1.187-.01,2.375,0,3.563a1.879,1.879,0,0,0,1.482,1.516,1.772,1.772,0,0,0,1.831-1.8c.026-.964.006-1.93.008-2.894a3.539,3.539,0,0,1,.084-.644c.058-.311.22-.257.388-.184.651.285,1.37.377,2,.721,0,.183.015.366.015.549,0,2.153-.062,4.307.032,6.46" transform="translate(-4.165 -27.813)" fill="#f1d8ff"/>
        <path id="Trazado_824465" data-name="Trazado 824465" d="M194.375,160.939c-3.053,0-6.1-.007-9.157.008-.4,0-.5-.133-.492-.513.019-1.6.028-3.192,0-4.787-.009-.433.12-.534.521-.533,2.775.008,5.55,0,8.324-.005q3.663,0,7.326,0c.2,0,.408,0,.61-.015a1.614,1.614,0,0,0-.119-3.22c-1.333-.021-1.323-.021-1.319-1.357.008-3.006,0-6.012.005-9.018a2.155,2.155,0,0,0-.329-1.265,1.664,1.664,0,0,0-1.829-.594,1.366,1.366,0,0,0-1.065,1.092,3.408,3.408,0,0,0-.1.993c0,3.173,0,6.346.015,9.518,0,.434-.1.555-.557.552q-6.91-.036-13.819-.007c-.523,0-.677-.119-.673-.676.031-4.379.025-8.758.018-13.137,0-.376,0-.586.5-.606a7.053,7.053,0,0,0,3.172-.866,6.856,6.856,0,0,0,3.555-5.093c.063-.371.169-.465.562-.452,1.5.048,3,.036,4.493.043,1.165.006,2.331.017,3.5.008a10.863,10.863,0,0,1,2.605.343,10.188,10.188,0,0,1,6.845,5.278,11.04,11.04,0,0,1,1.336,5.438c.014,4.36.008,8.721.013,13.081a5.993,5.993,0,0,1-1.08,3.76,4.709,4.709,0,0,1-3.8,1.977c-3.014.06-6.03.017-9.045.017v.031" transform="translate(-100.759 -72.619)" fill="#487fac"/>
        <path id="Trazado_824466" data-name="Trazado 824466" d="M156.613,49.327c0-3.414.011-6.829-.012-10.243,0-.519.147-.642.65-.64,4.7.019,9.4-.017,14.1.019a6.464,6.464,0,0,1,6.416,4.414,6.652,6.652,0,0,1,.381,2.313c.014,4.676.044,9.353-.029,14.029a9.611,9.611,0,0,1-1.667,5.3,9.8,9.8,0,0,1-6.8,4.481c-3.936.589-7.642-.017-10.468-3.218a9.9,9.9,0,0,1-1.89-3.212c-.3-.811-.4-1.642-.646-2.448a2.339,2.339,0,0,1-.017-.66q0-5.066,0-10.132h-.013M167.231,64.6c.24,0,.481.012.72,0a5.632,5.632,0,0,0,3.689-1.636,1.781,1.781,0,0,0,.047-2.279,1.751,1.751,0,0,0-2.321-.081,2.972,2.972,0,0,1-3.962.023,1.851,1.851,0,0,0-1.281-.377,1.48,1.48,0,0,0-1.386,1,1.178,1.178,0,0,0,.149,1.365,5.269,5.269,0,0,0,4.345,1.993" transform="translate(-86.836 -21.317)" fill="#ffccbd"/>
        <path id="Trazado_824467" data-name="Trazado 824467" d="M129.147,127.163q-13.833.005-27.666.008c-.173,0-.413.1-.506-.107-.082-.182.171-.249.254-.383a18.225,18.225,0,0,0,1.794-3.212,1.632,1.632,0,0,1,.3-.385c.109.024.208.023.262-.1l.361-.005a.257.257,0,0,0,.416,0h.136c.064.1.13.107.2,0,8,.079,16.006-.082,24.008.086.472,1.328.178,2.739.438,4.091" transform="translate(-55.983 -68.193)" fill="#dceafd"/>
        <path id="Trazado_824468" data-name="Trazado 824468" d="M179.683,117.619c0,1.021,0,2.041,0,3.061a3.636,3.636,0,0,1-3.375,3.875c-.4.062-.655-.006-.639-.564.049-1.668.037-3.339.016-5.009a4.387,4.387,0,0,0-4.33-4.441c-.178-.008-.432.114-.523-.147a.591.591,0,0,1,.019-.431c.084-.153.246-.053.388-.019a19.781,19.781,0,0,0,5.462.369,13.873,13.873,0,0,0,2.252-.4c.637-.132.728-.072.728.587v3.117Z" transform="translate(-94.709 -63.135)" fill="#ffccbd"/>
        <path id="Trazado_824469" data-name="Trazado 824469" d="M141.539,62.166c0,1-.01,2,.006,3,0,.311-.086.425-.407.417-.831-.021-1.667.033-2.494-.025a3.229,3.229,0,0,1-2.859-2,3.443,3.443,0,0,1,.363-3.641,2.739,2.739,0,0,1,1.88-1.151,16.4,16.4,0,0,1,3.084-.124c.336-.008.444.123.437.462-.02,1.019-.007,2.039-.007,3.059h0" transform="translate(-75.086 -32.513)" fill="#ffccbd"/>
        <path id="Trazado_824470" data-name="Trazado 824470" d="M212.282,62a19.611,19.611,0,0,0-.094-3.048c-.044-.2.043-.315.262-.313a12.856,12.856,0,0,1,3.453.173,3.151,3.151,0,0,1,2.346,2.5A3.275,3.275,0,0,1,217,64.76a3.412,3.412,0,0,1-2.239.8c-.682-.028-1.366.009-2.049.021-.3.005-.459-.052-.445-.431.035-.943.012-1.888.012-3.15" transform="translate(-117.653 -32.499)" fill="#ffccbd"/>
        <path id="Trazado_824471" data-name="Trazado 824471" d="M170.979,185.2c.813,0,1.626.013,2.44-.007.307-.008.429.076.428.4q-.016,2.529,0,5.059c0,.263-.078.375-.339.372-1.089-.011-2.179-.01-3.269-.028a2.343,2.343,0,0,1-2.162-2.189c-.017-1.093-.012-2.187-.028-3.28,0-.336.2-.335.436-.333.831.005,1.663,0,2.495,0Z" transform="translate(-93.184 -102.692)" fill="#ffccbd"/>
        <path id="Trazado_824472" data-name="Trazado 824472" d="M108.673,236.638c.981,0,1.961.01,2.942-.005.334,0,.456.1.441.447-.027.63-.029,1.262-.005,1.892a.663.663,0,0,1-.724.772q-2.636.029-5.272,0c-.577-.008-.779-.263-.781-.841s.019-1.151,0-1.726c-.014-.385.071-.562.517-.544.96.038,1.924.012,2.885.012v0" transform="translate(-58.372 -131.211)" fill="#ffccbd"/>
        <path id="Trazado_824473" data-name="Trazado 824473" d="M163.686,127.082c-.26-1.351.034-2.762-.438-4.091a18.5,18.5,0,0,1,3.956-.1c.671,0,.956.368.979,1.135.029.961.006,1.923.006,2.885,0,.175,0,.347-.255.307-1.41-.219-2.835-.008-4.248-.136" transform="translate(-90.522 -68.112)" fill="#487fac"/>
        <path id="Trazado_824474" data-name="Trazado 824474" d="M108.09,122.932a.256.256,0,0,1-.415,0,.547.547,0,0,1,.415,0" transform="translate(-59.706 -68.143)" fill="#487fac"/>
        <path id="Trazado_824475" data-name="Trazado 824475" d="M106.539,122.967c-.054.121-.153.122-.262.1.052-.127.147-.137.262-.1" transform="translate(-58.931 -68.175)" fill="#487fac"/>
        <path id="Trazado_824476" data-name="Trazado 824476" d="M109.111,122.99c-.068.1-.134.1-.2,0l.2,0" transform="translate(-60.393 -68.196)" fill="#487fac"/>
        <path id="Trazado_824477" data-name="Trazado 824477" d="M174.02,177.679l.1-.057c.006.091-.019.127-.1.057" transform="translate(-96.495 -98.493)" fill="#487fac"/>
        <path id="Trazado_824478" data-name="Trazado 824478" d="M103.029,157.661c0-2.188-.106-4.384.036-6.563a2.555,2.555,0,0,1,3.279-2.362,10.341,10.341,0,0,1,2.4,1.277c1.475.853,2.909,1.769,4.346,2.683s2.927,1.806,4.359,2.757a2.574,2.574,0,0,1,.934,3.581,3.487,3.487,0,0,1-1.084,1.161c-1.766,1.161-3.588,2.235-5.372,3.366a25.416,25.416,0,0,1-3.332,1.949,12.56,12.56,0,0,0-1.373.866,2.7,2.7,0,0,1-4.178-2.311q-.006-3.2,0-6.4Zm3.33-5.263v10.184c0,.018,0,.037,0,.056,0,.271.083.352.325.17.68-.511,1.453-.868,2.176-1.308,1.878-1.142,3.741-2.31,5.628-3.437.437-.261.375-.393,0-.619q-2.719-1.661-5.429-3.338c-.876-.542-1.742-1.1-2.7-1.708" transform="translate(-57.109 -82.418)"/>
        <path id="Trazado_824479" data-name="Trazado 824479" d="M89.253,202.752a.914.914,0,0,0,.567-.5A5,5,0,0,1,95,199.4a4.789,4.789,0,0,1,4,2.872.87.87,0,0,0,.943.577c5.011-.027,10.022-.024,15.033-.025a1.8,1.8,0,0,1,1.758.887,1.685,1.685,0,0,1-1.042,2.373,4.24,4.24,0,0,1-.991.078q-7.516.007-15.032.008a.545.545,0,0,0-.609.4,5.214,5.214,0,0,1-3,2.74,4.482,4.482,0,0,1-2.7.2,5.283,5.283,0,0,1-3.637-3.045c-.131-.273-.249-.354-.519-.342a14.511,14.511,0,0,1-1.883,0,1.785,1.785,0,0,1-1.509-1.528,1.645,1.645,0,0,1,1.422-1.747c.646-.022,1.292-.028,1.939-.04.059.028.081,0,.088-.057m5.227-.011a1.805,1.805,0,0,0-1.869,1.711,1.839,1.839,0,0,0,1.83,1.822,1.721,1.721,0,0,0,1.794-1.716,1.748,1.748,0,0,0-1.754-1.817" transform="translate(-47.576 -110.556)"/>
        <path id="Trazado_824480" data-name="Trazado 824480" d="M93.444,206.951c-.007.054-.028.086-.088.057l.088-.057" transform="translate(-51.767 -114.756)" fill="#ffccbd"/>
        <path id="Trazado_824481" data-name="Trazado 824481" d="M20.043,89.7c-.629-.343-1.348-.435-2-.72-.168-.074-.331-.127-.389.183a3.544,3.544,0,0,0-.084.644c0,.965.019,1.93-.007,2.894a1.772,1.772,0,0,1-1.831,1.8,1.88,1.88,0,0,1-1.482-1.517c-.007-1.187-.022-2.375,0-3.563a7.646,7.646,0,0,0-.369-2.783,2.323,2.323,0,0,1,1.362-2.676c1.31-.377,2.64-.715,3.907-1.205.644-.249,1.328-.354,1.968-.652.5-.235,1.151-.26,1.717-.455.909-.315,1.828-.645,2.746-.883,1.245-.323,2.465-.717,3.7-1.074.666-.193,1.345-.358,1.992-.591A4.105,4.105,0,0,1,34,79.211c2.058.64,4.115,1.281,6.178,1.907,1.436.436,2.882.842,4.321,1.27,1.523.454,3.041.921,4.563,1.377a2.518,2.518,0,0,1,1.978,1.892,2.248,2.248,0,0,1-1.169,2.374c-1.474.625-3.051.93-4.566,1.43-.362.12-.417.233-.416.542.006,2.3.016,4.6,0,6.9a3.3,3.3,0,0,1-.718,2.195,3.011,3.011,0,0,1-1.419.952c-1.874.591-3.793,1.026-5.693,1.523a34.857,34.857,0,0,1-3.7.9,5.211,5.211,0,0,1-2.148-.069c-2.031-.548-4.073-1.06-6.119-1.549a26.354,26.354,0,0,1-3.024-.884,3.2,3.2,0,0,1-2.024-2.513,2.574,2.574,0,0,1,.051-.746q.014-3.388.024-6.78c0-.075.053-.187-.071-.232m3.406,4.077h-.007c0,.853.024,1.707-.01,2.558a.6.6,0,0,0,.537.726c2.645.673,5.283,1.374,7.924,2.063a2.3,2.3,0,0,0,1.207,0c2.684-.745,5.371-1.48,8.087-2.1.242-.055.384-.155.382-.445q-.019-2.781-.007-5.563c0-.344-.094-.4-.421-.3-1.637.516-3.287.99-4.921,1.515-2.042.656-4.065,1.465-6.208.37a2.562,2.562,0,0,0-.423-.132q-2.831-.867-5.662-1.734c-.342-.105-.52-.1-.494.372.049.887.014,1.78.014,2.67m-3.408-7.8a1.526,1.526,0,0,0,.836.388q5.482,1.659,10.964,3.313a1.686,1.686,0,0,0,1.057.067c3.456-1.06,6.921-2.089,10.379-3.14a7.673,7.673,0,0,0,1.569-.573,1.513,1.513,0,0,0-.238-.138q-5.717-1.738-11.438-3.465a2.363,2.363,0,0,0-1.365.013q-3.127.938-6.254,1.876c-1.817.546-3.633,1.1-5.509,1.66" transform="translate(-7.652 -43.759)"/>
        <path id="Trazado_824482" data-name="Trazado 824482" d="M27.807,103.128c.124.045.072.156.072.232q-.007,3.391-.025,6.78c-.094-2.155-.032-4.309-.033-6.462,0-.183-.009-.366-.015-.549" transform="translate(-15.416 -57.185)" fill="#487fac"/>
        <path id="Trazado_824483" data-name="Trazado 824483" d="M174.68,91.684a5.269,5.269,0,0,1-4.345-1.993,1.178,1.178,0,0,1-.149-1.365,1.48,1.48,0,0,1,1.386-1,1.851,1.851,0,0,1,1.281.377,2.972,2.972,0,0,0,3.962-.023,1.751,1.751,0,0,1,2.321.081,1.781,1.781,0,0,1-.047,2.279,5.632,5.632,0,0,1-3.689,1.636c-.239.015-.48,0-.72,0" transform="translate(-94.285 -48.4)"/>
        <path id="Trazado_824484" data-name="Trazado 824484" d="M110.55,157.084c.962.608,1.829,1.165,2.7,1.708q2.71,1.677,5.429,3.338c.371.226.432.359,0,.619-1.887,1.128-3.75,2.3-5.628,3.437-.723.439-1.5.8-2.176,1.308-.242.182-.328.1-.325-.17,0-.019,0-.037,0-.056V157.084" transform="translate(-61.301 -87.104)" fill="#7816c2"/>
        <path id="Trazado_824485" data-name="Trazado 824485" d="M102.959,206.917a1.748,1.748,0,0,1,1.754,1.817,1.722,1.722,0,0,1-1.794,1.716,1.839,1.839,0,0,1-1.83-1.822,1.805,1.805,0,0,1,1.869-1.711" transform="translate(-56.054 -114.732)" fill="#7816c2"/>
        <path id="Trazado_824486" data-name="Trazado 824486" d="M35.436,108.412c0-.89.035-1.782-.014-2.669-.026-.474.151-.478.494-.372q2.83.869,5.662,1.733a2.6,2.6,0,0,1,.422.132c2.143,1.1,4.166.286,6.208-.37,1.634-.525,3.284-1,4.921-1.515.328-.1.422-.045.421.3q-.013,2.781.007,5.563c0,.29-.14.389-.382.445-2.716.621-5.4,1.356-8.086,2.1a2.3,2.3,0,0,1-1.207,0c-2.641-.689-5.28-1.39-7.925-2.063a.6.6,0,0,1-.536-.726c.033-.852.01-1.706.01-2.559Z" transform="translate(-19.639 -58.393)" fill="#487fac"/>
        <path id="Trazado_824487" data-name="Trazado 824487" d="M27.808,90.228c1.876-.565,3.692-1.114,5.509-1.66q3.127-.94,6.254-1.876a2.363,2.363,0,0,1,1.365-.013Q46.66,88.4,52.375,90.144a1.513,1.513,0,0,1,.238.138,7.673,7.673,0,0,1-1.569.573c-3.458,1.051-6.923,2.08-10.379,3.14a1.686,1.686,0,0,1-1.057-.067q-5.48-1.662-10.964-3.313a1.526,1.526,0,0,1-.836-.388" transform="translate(-15.42 -48.012)" fill="#487fac"/>
      </g>
    </g>
  </g>
</svg>
