<svg xmlns="http://www.w3.org/2000/svg" width="149.728" height="148.396" viewBox="0 0 149.728 148.396">
  <g id="Grupo_1073446" data-name="Grupo 1073446" transform="translate(11909 11875)">
    <path id="Trazado_821549" data-name="Trazado 821549" d="M241.315,360.15a17.313,17.313,0,0,1-8.322-5.053l-29.212-32.05a17.356,17.356,0,0,1-3.7-16.908l13.151-41.324a17.358,17.358,0,0,1,12.792-11.66l42.362-9.272a17.356,17.356,0,0,1,16.493,5.248l29.212,32.05a17.353,17.353,0,0,1,3.7,16.91l-13.148,41.322a17.361,17.361,0,0,1-12.794,11.66l-.067-.309.067.309-42.36,9.272a17.264,17.264,0,0,1-8.174-.2" transform="translate(-12173.758 -12008.114) rotate(-18)" fill="#264100"/>
    <g id="Grupo_1073445" data-name="Grupo 1073445" transform="translate(-11873 -11835)">
      <path id="Trazado_821548" data-name="Trazado 821548" d="M69.909,66.24c.619.039,1.2.037,1.768.12a1.437,1.437,0,0,1,1.256,1.422,1.451,1.451,0,0,1-1.248,1.435,4.123,4.123,0,0,1-.748.072q-32.268,0-64.535-.008A3.113,3.113,0,0,1,5.134,69a1.354,1.354,0,0,1-.669-1.476,1.392,1.392,0,0,1,1.108-1.151,4,4,0,0,1,.784-.094c.351-.015.7,0,1.074,0a1.546,1.546,0,0,0,.034-.227c-.012-4.091-.032-8.183-.037-12.274q-.01-8.736,0-17.471a10.659,10.659,0,0,1,.041-1.278c.042-.346-.1-.462-.4-.53a8.692,8.692,0,0,1-4.5-2.518,8.568,8.568,0,0,1-2.477-5.7C.032,25.086.041,23.894,0,22.7a3.122,3.122,0,0,1,.356-1.556Q2.231,17.479,4.1,13.808c1.047-2.055,2.112-4.1,3.131-6.171a2.89,2.89,0,0,0,.211-1.195c.028-1.605-.014-3.213.038-4.817A1.544,1.544,0,0,1,9.141.006C9.278,0,9.417,0,9.556,0Q38.69,0,67.823,0a4.089,4.089,0,0,1,.748.066,1.42,1.42,0,0,1,1.3,1.461c.044,1.367.1,2.738.021,4.1A5.415,5.415,0,0,0,70.6,8.6c1.389,2.6,2.69,5.242,4.025,7.868.773,1.52,1.538,3.043,2.317,4.56a3.469,3.469,0,0,1,.412,1.771c-.059,1.391.018,2.8-.159,4.17a8.561,8.561,0,0,1-5.073,6.905,12.065,12.065,0,0,1-1.851.623c-.266.079-.387.18-.387.485q.012,15.532.006,31.063c0,.06.009.121.015.2m-59.457.013H48.763V63.266h-33.3a1.709,1.709,0,0,1-1.987-1.871c-.005-.1,0-.2,0-.3q0-9.319,0-18.639c0-.539.006-1.08.043-1.618a1.6,1.6,0,0,1,1.737-1.671c.113,0,.227,0,.34,0H61.775c.1,0,.2,0,.3,0a1.613,1.613,0,0,1,1.775,1.674c.01.125.022.25.022.376Q63.868,53.509,63.86,65.8v.446H66.9V64.157q0-13.706,0-27.412c0-.59,0-1.18.026-1.769.013-.275-.058-.389-.346-.452a8.908,8.908,0,0,1-5.387-3.48c-.064-.085-.137-.165-.228-.274a8.97,8.97,0,0,1-14.856-.011,8.973,8.973,0,0,1-14.867,0,8.958,8.958,0,0,1-14.831.04c-.508.555-.951,1.107-1.463,1.584a8.953,8.953,0,0,1-4.169,2.159c-.264.061-.361.173-.346.431.017.3.017.6.017.9q0,14.554,0,29.106v1.27m6.02-6.036h32.3V42.21a.878.878,0,0,0-.14-.028q-3.851,0-7.7,0a.562.562,0,0,0-.349.166q-2.3,2.287-4.584,4.585a3.165,3.165,0,0,1-.462.386,1.462,1.462,0,0,1-2.153-.612,1.531,1.531,0,0,1,.46-1.834c.79-.809,1.6-1.6,2.394-2.4.074-.074.138-.158.235-.27-.1-.013-.147-.024-.194-.024-1.624,0-3.247-.007-4.871.009a.727.727,0,0,0-.44.221q-3.175,3.143-6.337,6.3-3.925,3.913-7.843,7.833a.877.877,0,0,0-.3.492c-.027,1.052-.014,2.1-.014,3.184M43.275,9.06c-.1-.009-.159-.02-.22-.02-2.894,0-5.789,0-8.683-.007-.264,0-.315.122-.334.334-.086.924-.179,1.847-.269,2.771-.168,1.7-.315,3.4-.509,5.09a55.586,55.586,0,0,0-.5,8.441,8.961,8.961,0,0,0,.157,1.53,5.906,5.906,0,0,0,6,4.543,5.842,5.842,0,0,0,5.573-4.815,17.946,17.946,0,0,0,.092-2.815c-.014-1.214-.037-2.431-.142-3.64-.2-2.336-.463-4.667-.7-7-.15-1.459-.3-2.917-.461-4.413m-12.192,0c-.114-.011-.163-.021-.212-.021-2.894,0-5.788,0-8.682-.008-.233,0-.294.107-.35.292q-1.538,5.049-3.081,10.1a17.322,17.322,0,0,0-.828,3,22.16,22.16,0,0,0-.015,3.828,5.9,5.9,0,0,0,8.8,4.744,5.78,5.78,0,0,0,3.033-5.5c-.012-1.217-.049-2.437.025-3.65.091-1.475.286-2.944.437-4.416q.295-2.88.591-5.761c.089-.859.183-1.717.278-2.6m15.186,0c.091.744.188,1.438.258,2.135.215,2.133.4,4.27.636,6.4a52.412,52.412,0,0,1,.456,7.691,8.507,8.507,0,0,0,.094,1.575A5.908,5.908,0,0,0,53.7,31.745a5.819,5.819,0,0,0,5.662-4.888,37.022,37.022,0,0,0,.13-4.244,2.873,2.873,0,0,0-.173-.844q-1.892-6.219-3.788-12.436a.363.363,0,0,0-.425-.3q-4.247.011-8.494.005c-.1,0-.2.012-.343.022M58.55,9.039c.027.126.037.2.058.266,1.2,3.916,2.4,7.829,3.58,11.751a7.361,7.361,0,0,1,.279,1.767c.043.964-.016,1.932.014,2.9a8.175,8.175,0,0,0,.206,1.635A5.915,5.915,0,0,0,74.24,26.8a33.864,33.864,0,0,0,.081-3.8,2.065,2.065,0,0,0-.206-.9q-3.2-6.384-6.431-12.758a.487.487,0,0,0-.51-.321c-2.743.011-5.487.006-8.23.006Zm-39.718,0H18.35c-2.492,0-4.985.04-7.475-.023a1.406,1.406,0,0,0-1.519.929c-1.934,3.895-3.923,7.763-5.908,11.634a3.35,3.35,0,0,0-.43,1.75c.045.889,0,1.782.017,2.672a6.193,6.193,0,0,0,.12,1.081A5.92,5.92,0,0,0,14.8,26.669c.116-1.257.039-2.531.079-3.8a5.747,5.747,0,0,1,.18-1.447c.939-3.157,1.909-6.3,2.87-9.455.292-.957.589-1.912.9-2.932M60.863,42.2c-.119-.009-.193-.019-.267-.019-2.831,0-5.662.005-8.494-.009-.354,0-.34.176-.34.421q.005,4.949,0,9.9a1.42,1.42,0,0,0,.042.232c.279,0,.544-.016.805,0a6.583,6.583,0,0,1,1.115.134,1.413,1.413,0,0,1,1.038,1.367,1.428,1.428,0,0,1-1,1.363,4.568,4.568,0,0,1-.964.14c-.333.023-.668.005-1.022.005V66.253h9.078ZM10.429,5.991H66.894V3.014H10.938c-.088,0-.192-.03-.261.007-.1.053-.237.152-.238.234-.017.9-.011,1.8-.011,2.735M26.843,42.2c-.085,0-.206-.016-.326-.016-3.209,0-6.419,0-9.628-.008-.326,0-.426.074-.424.415.015,3.225.011,6.45.014,9.675,0,.094.01.188.015.284L26.843,42.2" transform="translate(0 0)" fill="#fff"/>
      <rect id="Rectángulo_377694" data-name="Rectángulo 377694" width="77.361" height="69.291" transform="translate(0 0)" fill="none"/>
    </g>
  </g>
</svg>
