<svg xmlns="http://www.w3.org/2000/svg" xmlns:xlink="http://www.w3.org/1999/xlink" width="169" height="169" viewBox="0 0 169 169">
  <defs>
    <clipPath id="clip-path">
      <rect id="Rect치ngulo_378573" data-name="Rect치ngulo 378573" width="121.444" height="117.451" fill="#ffae7e"/>
    </clipPath>
  </defs>
  <g id="Grupo_1074957" data-name="Grupo 1074957" transform="translate(-719 -2877.524)">
    <g id="Grupo_1073327" data-name="Grupo 1073327" transform="translate(334 819.524)">
      <g id="Grupo_159182" data-name="Grupo 159182" transform="translate(385.001 2058)">
        <path id="Uni칩n_12" data-name="Uni칩n 12" d="M84.5,0A84.5,84.5,0,1,1,0,84.5,84.5,84.5,0,0,1,84.5,0Z" transform="translate(0 0)" fill="#ffae7e"/>
      </g>
    </g>
    <g id="Grupo_1075143" data-name="Grupo 1075143" transform="translate(488.529 2816.106)">
      <g id="Grupo_1075142" data-name="Grupo 1075142" transform="translate(253 81)" clip-path="url(#clip-path)">
        <path id="Trazado_825587" data-name="Trazado 825587" d="M143.133,100.785c2.089-.79,2.793-1.687,2.807-3.663a28.779,28.779,0,0,0-.141-4.27c-.068-.477.1-.653.613-.653,3.225,0,6.439.36,9.666.3.42-.008.555.152.468.616a27.147,27.147,0,0,0-.65,4.7,3.65,3.65,0,0,0,1.19,2.8,9.268,9.268,0,0,0,5.535,2.575,3.822,3.822,0,0,0,3.186-1.264,18.34,18.34,0,0,0,2.7-3.025c.273-.4.487-.452.818-.1.878.939,1.776,1.86,2.644,2.808,1.246,1.359,2.464,2.744,3.711,4.1.556.6.572.773-.138,1.211a20.638,20.638,0,0,0-3.424,2.762,3.331,3.331,0,0,0-1.05,2.49,9.342,9.342,0,0,0,2.526,6.767,2.911,2.911,0,0,0,2.258.959,32.074,32.074,0,0,0,4.342-.119c.843-.131.922-.046.876.776-.164,2.908-.359,5.814-.539,8.721a3.526,3.526,0,0,0-.007.631c.077.646-.228.8-.787.63a11.922,11.922,0,0,0-3.154-.5c-.412-.009-.858-.11-1.29-.163a3.41,3.41,0,0,0-3.026,1.3,10.853,10.853,0,0,0-2.854,6.039,3.924,3.924,0,0,0,1.271,3.409,26.116,26.116,0,0,0,2.628,2.528c.621.48.579.7-.034,1.181-1.78,1.4-3.5,2.868-5.187,4.37q-.967.859-1.968,1.681c-.442.365-.731.106-.945-.293a19.06,19.06,0,0,0-2.686-3.739,3.1,3.1,0,0,0-2.745-1.146,9.864,9.864,0,0,0-3.871,1.078,3.863,3.863,0,0,0-2.2,3.613,16.131,16.131,0,0,0,.261,4.114c.146.546-.056.807-.685.768-2.885-.179-5.773-.315-8.659-.494-.26-.016-.4.026-.5.237l-.934-2.148c.455.07.547-.168.541-.57-.017-1.12-.025-2.241.005-3.36a2.564,2.564,0,0,0-.629-1.659,3.667,3.667,0,0,0-.613-.745c-.71-.513-1.316-1.267-2.32-1.238-.836-2.045-1.681-4.086-2.5-6.138a7.633,7.633,0,0,1-.785-2.175,1.673,1.673,0,0,1,1.336.433,14.485,14.485,0,0,0,2.6,1.876,17.811,17.811,0,0,0,13.361,1.957,17.951,17.951,0,0,0,13.48-14.847,17.784,17.784,0,0,0-.264-6.934,18.068,18.068,0,0,0-17.031-13.82,17.233,17.233,0,0,0-6.384.99l-.942-.007c.2-1.777.093-3.561.123-5.342" transform="translate(-59.64 -40.181)" fill="#b3dc7e"/>
        <path id="Trazado_825588" data-name="Trazado 825588" d="M123.122,89.254c-.03,1.781.076,3.565-.123,5.342l-.142,1.265q-.278,2.246-.558,4.492c-.195,1.013-.42,2.02-.579,3.039-.513,3.295-1.342,6.523-2.059,9.774-.506,2.3-1.056,4.581-1.587,6.871a1.451,1.451,0,0,0-.147.3c-.315,1.461-.72,2.9-1.154,4.328a.373.373,0,0,1-.4-.393,3.416,3.416,0,0,0-.6-1.462,1.623,1.623,0,0,1-.269-.835,10.324,10.324,0,0,0,.594-1.835,28.944,28.944,0,0,1,.587-3.028c.474-1.812.55-3.684.917-5.511.291-1.448.252-2.941.517-4.4a7.771,7.771,0,0,0,.265-2.02,29.622,29.622,0,0,1,.159-3.936,28.123,28.123,0,0,0,.172-2.847,6.851,6.851,0,0,1,.049-1.254,16.45,16.45,0,0,0,.2-4.093q.009-5.228.016-10.455c0-.4-.032-.794-.058-1.191-.015-.223.034-.558-.267-.559-.354,0-.289.357-.307.6a2.447,2.447,0,0,0,0,.7,39.49,39.49,0,0,1,.223,4.442c.238,2.144-.165,4.308-.111,6.467-.038.051-.109.1-.109.152,0,1.726-.1,3.451,0,5.177a25.123,25.123,0,0,0-.3,3.668,8.988,8.988,0,0,1-.168,1.93c-.256,1.754-.279,3.526-.53,5.276-.172,1.2-.3,2.4-.476,3.6-.15,1.03-.379,2.049-.5,3.082a36.354,36.354,0,0,1-1.13,5.366c-.122-.012-.276-.052-.263-.178.064-.633-.352-1.09-.547-1.629-.943-2.6-1.964-5.173-3.009-7.734q-1.667-4.085-3.346-8.164a.884.884,0,0,0,.071-.7c-.157-1.289-.115-2.589-.191-3.882-.112-1.908-.094-3.826-.156-5.741-.019-.588-.059-.759-.679-.425a13.681,13.681,0,0,1-2.675,1.344c-.257-.538-.532-1.068-.768-1.614-.932-2.157-1.87-4.312-2.763-6.486a.935.935,0,0,0-1.013-.65q-3.4.014-6.806,0a3.832,3.832,0,0,0-1.584.2c-.326.141-.548.076-.594-.316L92.18,84.7l1.014-.507c.908-.419,1.826-.853,2.748-1.2,1.105-.414,2.2-.862,3.321-1.252,1.055-.368,1-.449,1.1-1.572a60.781,60.781,0,0,1,.793-7.123,7.538,7.538,0,0,0,.064-1.256,4.668,4.668,0,0,0,.245-.982c.278-1.632.574-3.259.873-4.887.013-.071.116-.125.177-.186a11.645,11.645,0,0,1,2.459.924,2.113,2.113,0,0,0,.864,1.313,3.1,3.1,0,0,0,3.765.073c.271-.188.6-.551.82.017.229.593.626.6,1.127.46a18.357,18.357,0,0,0,3.1-1c.487-.231.752-.107.736.482a5.677,5.677,0,0,0,.055,1.394,9.046,9.046,0,0,0,3.473,5.167,4.5,4.5,0,0,0,2.067,1.2,4.427,4.427,0,0,1,.845,2.582,49.077,49.077,0,0,1,.834,5.429,40.565,40.565,0,0,1,.384,5.192c-.015.014-.047.034-.044.041a.756.756,0,0,0,.055.1l.063.139" transform="translate(-39.629 -28.65)" fill="#7816c2"/>
        <path id="Trazado_825589" data-name="Trazado 825589" d="M103.582,137.109a1.628,1.628,0,0,0,.269.834,3.4,3.4,0,0,1,.6,1.462.373.373,0,0,0,.4.393c.022.093.043.186.065.279a7.644,7.644,0,0,0,.785,2.175c.82,2.051,1.666,4.092,2.5,6.137.1.261.194.524.3.783q1.358,3.4,2.719,6.79l.934,2.148c.08.218.148.441.244.652.415.911.354,1-.613,1.312-.359.117-.462.035-.588-.281-1.3-3.25-2.613-6.492-3.9-9.746a.566.566,0,0,0-.61-.432q-3.158.017-6.316.028a27.953,27.953,0,0,0-3.376,0c-.983-.011-1.966-.015-2.949-.037-.476-.011-.473.162-.313.55,1.205,2.907,2.389,5.824,3.576,8.738.306.75-.124,1.337-.916,1.234a.383.383,0,0,1-.376-.25c-.9-2.8-2.122-5.468-3.213-8.191-1.378-3.441-2.783-6.872-4.184-10.3-.071-.173-.052-.487-.351-.438-.231.038-.133.313-.2.474q-1.089,2.8-2.147,5.606c-.631,1.678-1.237,3.367-1.864,5.047-.735,1.971-1.483,3.936-2.221,5.906-.339.9-.715,1.8-.988,2.726-.232.793-.775.472-1.183.366-.448-.117-.417-.451-.243-.887.745-1.861,1.425-3.748,2.131-5.625.632-1.681,1.312-3.347,1.89-5.046.465-1.369,1.03-2.7,1.491-4.069.641-1.9,1.44-3.754,2.2-5.615a2.231,2.231,0,0,0-.017-2.165,34.546,34.546,0,0,1-1.737-4.29c-1.154-2.669-2.191-5.389-3.246-8.1-.5-1.3-1.1-2.551-1.5-3.895a3.715,3.715,0,0,0-.675-1.247,4.921,4.921,0,0,0-.67,1.508c-.657,1.678-1.265,3.376-1.913,5.058-.636,1.65-1.311,3.295-1.8,5.009-.3,1.052-.8,2.045-1.192,3.072-.534,1.4-1.049,2.8-1.572,4.2-.475,1.273-.947,2.548-1.425,3.82q-1.46,3.884-2.924,7.767-1.368,3.647-2.725,7.3c-.225.6-.453,1.2-.656,1.814s-.653.491-1.054.319c-.367-.157-.625-.354-.384-.9.816-1.854,1.48-3.77,2.16-5.68.726-2.038,1.6-4.024,2.319-6.065.662-1.878,1.425-3.716,2.046-5.611.552-1.684,1.325-3.295,1.9-4.972.6-1.726,1.309-3.406,1.89-5.139.594-1.773,1.352-3.491,2.022-5.239.767-2,1.562-3.993,2.245-6.022a6.141,6.141,0,0,0,.648-1.947c.545-.337.166-.75.038-1.08-.657-1.693-1.354-3.372-2.042-5.053q-1.735-4.235-3.477-8.467a15.287,15.287,0,0,0-1.021-2.584c-.283-.641-.249-.7.453-.7q2.942,0,5.883,0c.095.034.125-.024.142-.1l.143.008c.045.392.267.458.594.316a3.839,3.839,0,0,1,1.584-.2q3.4.009,6.807,0a.935.935,0,0,1,1.013.651c.893,2.173,1.83,4.328,2.762,6.485.236.547.512,1.076.768,1.614-.1.63.327,1.1.534,1.623.942,2.412,1.923,4.81,2.891,7.213a.659.659,0,0,0,.205.567q1.674,4.082,3.346,8.164c1.045,2.561,2.067,5.132,3.009,7.734.2.539.612,1,.547,1.629-.012.125.142.166.263.178,0,.256-.081.546.257.675m-11.357-5.87c-.057.41-.686.179-.687.555a5.2,5.2,0,0,1-.424,1.372c-.09.34-.014.473.341.464.718-.019,1.436-.024,2.154-.034l1.281.016c.437.01.875.037,1.311.022.3-.01.674.127.824-.306.152.315.436.278.72.292a9.505,9.505,0,0,1,2.023.1c.683.181.856-.038.588-.728-.539-1.393-1.113-2.772-1.662-4.162a1.384,1.384,0,0,0-2-.807l-1.373-.007L95,127.991a10.482,10.482,0,0,0-1.709.025c-.22-.015-.288.21-.352.382-.315.842-.617,1.689-.939,2.529-.1.25.056.274.222.311m9.415,16.965.418-.01.7.01c.812.005,1.624.022,2.435.013,1.37-.016,1.548.216.783-1.24-.407-1.447-1.084-2.79-1.623-4.186-.028-.073-.142-.113-.216-.168a1.671,1.671,0,0,0-1.97-.258,12.1,12.1,0,0,0-2.524-.06,57.468,57.468,0,0,0-5.9-.011,15.3,15.3,0,0,0-3.282.1,3.775,3.775,0,0,1,.519.938q.652,1.655,1.337,3.3c.7,1.664.7,1.662,2.549,1.542a6.874,6.874,0,0,0,2.262-.077,27.653,27.653,0,0,0,4.508.108M95.16,126.59a3.792,3.792,0,0,0,1.5-.15c1.045.032,1.044.014.636-.964-.194-.464-.294-.967-.473-1.438-.073-.191-.027-.494-.349-.531a6.481,6.481,0,0,0-.9-2.225c-.3.788-.547,1.459-.8,2.131a1.827,1.827,0,0,0-.194,1.215c-.337.036-.34.324-.417.554-.438,1.321-.389,1.391,1,1.407M90.543,130.1c.2.008.381-.006.4-.269a3.185,3.185,0,0,1,.44-1.309c.227-.424.041-.518-.364-.529a7.191,7.191,0,0,1-1.941-.108c-.291-.087-.493.073-.52.4A2.409,2.409,0,0,0,86.728,128c-.465-.015-.932-.016-1.4-.049-.5-.035-.536.145-.361.572.567,1.38,1.067,2.788,1.662,4.155.142.326.2.866.658.91a4.894,4.894,0,0,0,1.993-.073.551.551,0,0,0,.26-.3q.493-1.2.956-2.4c.067-.174.264-.366.022-.561.007-.049.014-.1.021-.147m12.235,8.919a16.3,16.3,0,0,0-1.06-2.77c-.424-1.236-.468-1.247-1.821-1.21a9.614,9.614,0,0,0-2.766.127l-2.677-.005a11.755,11.755,0,0,0-2.942-.091c-.6-.089-1.074-.11-1.361.658-.252.673-.471,1.361-.742,2.028-.139.342-.5.658-.35,1.043.827,2.124.839,2.119,3.16,2.081.093,0,.186-.015.278-.023h.131a26.123,26.123,0,0,0,3.235-.047,5.112,5.112,0,0,0,2.1-.019,13.994,13.994,0,0,0,4.211-.007c.7.149.556-.528.766-.825s.306-.7-.164-.939M75.9,101.993a8.11,8.11,0,0,0-.828,0c-.233.023-.548-.15-.683.136s.063.526.253.737q.7,1.749,1.4,3.5c1.649,4.091,3.281,8.189,4.961,12.268a20.085,20.085,0,0,0,1.639,3.717c-.037.145-.189.245-.078.443a30.36,30.36,0,0,1,1.44,3.317.517.517,0,0,0,.528.371l2.025-.038a1.868,1.868,0,0,0,.674.122,18.8,18.8,0,0,1,3.347-.108c1.806-.056,1.422.3,2.051-1.48.07-.2.181-.38.247-.578a12.423,12.423,0,0,0,.9-2.777,8.307,8.307,0,0,0,.757-1.632,1.767,1.767,0,0,0-.017-1.533c-1.042-2.528-2.032-5.077-3.043-7.617-.1-.26-.213-.526-.541-.584.169-.662-.3-1.135-.487-1.7-.631-1.919-1.6-3.7-2.236-5.612a1.275,1.275,0,0,0-1.453-.967c-3.62.026-7.241.012-10.861.012m12.4,33.018c-.215.069-.641-.093-.553.313.079.368.133,1.021.458,1.025.449.005.423-.609.513-1s-.231-.277-.417-.339" transform="translate(-27.698 -43.777)" fill="#434c6e"/>
        <path id="Trazado_825590" data-name="Trazado 825590" d="M79.7,34.573l-5.755-.016c-.99,0-1.056-.011-.91-.973A11.73,11.73,0,0,1,82.16,23.294a15.631,15.631,0,0,1,4.5-.019,12.7,12.7,0,0,1,4.262,1.842,11.178,11.178,0,0,1,4.831,8.422c.081,1.019.059,1.021-.99,1.018l-1.821,0a4.714,4.714,0,0,1,.195-1.8,1.834,1.834,0,0,0,.049-.968c-.073-.314-.069-.727-.573-.752-.443-.021-.634.2-.829.581-.474.936-.3,1.968-.537,2.934l-2.1.016-1.289,0a.114.114,0,0,0-.108,0l-.307,0-.41.01-.412.008h-.157l-.269,0h-.3l-.263,0h-.3l-.389,0-.173,0h-.564l-.385.006-.147.005-.445.007-.125,0-.434.013c-.046-.057-.09-.053-.13.006l-.572.011c-.046-.06-.088-.055-.126.008H81.41a.149.149,0,0,0-.265.011l-.3-.011a.619.619,0,0,0-.557-.068l-.3-.018-.288,0" transform="translate(-31.803 -10.077)" fill="#b3dc7e"/>
        <path id="Trazado_825591" data-name="Trazado 825591" d="M131.834,69.271a4.5,4.5,0,0,1-2.067-1.2,9.047,9.047,0,0,1-3.473-5.167,5.7,5.7,0,0,1-.054-1.394c.015-.589-.25-.713-.736-.482a18.409,18.409,0,0,1-3.1,1c-.5.137-.9.133-1.128-.46-.219-.568-.548-.205-.819-.017a3.1,3.1,0,0,1-3.765-.074,2.108,2.108,0,0,1-.864-1.312.779.779,0,0,1,.736-.046,8.563,8.563,0,0,0,3.577.429c.516.016.554-.27.352-.627a16.007,16.007,0,0,1-1.247-4.305c-.122-.509-.286-.582-.7-.562-.439.021-.9.069-1.165-.415a15.833,15.833,0,0,1,1.347-2.552,1.953,1.953,0,0,0,.476-1.1c.39-.284.847-.033,1.258-.155-.191.568-.77.849-1,1.4-.274.64-.122,1.111.473,1.119a9.531,9.531,0,0,0,5.5-1.4,12.279,12.279,0,0,0,.977-.783l.669.348a.716.716,0,0,0-.343.81c.139.419.506.076.775.076.324,0,.648,0,.972-.008s.662.091.881-.253a4.064,4.064,0,0,1,2.837,4.049.291.291,0,0,0,.028.319l.02.225a.238.238,0,0,0,.013.313c0,.087,0,.174,0,.261a.214.214,0,0,0-.008.3l-.008.248a.987.987,0,0,0-.056.722,26.524,26.524,0,0,0-.748,6.9,15.988,15.988,0,0,0,.479,3.207.764.764,0,0,1-.083.584" transform="translate(-50.478 -22.15)" fill="#d39f6b"/>
        <path id="Trazado_825592" data-name="Trazado 825592" d="M112.592,48.677c.265.484.726.436,1.164.415.416-.02.581.052.7.562a15.986,15.986,0,0,0,1.247,4.305c.2.358.163.643-.352.627a8.558,8.558,0,0,1-3.578-.429.78.78,0,0,0-.736.047,11.648,11.648,0,0,0-2.458-.924c-.1-.371-.442-.545-.71-.73a6.235,6.235,0,0,1-2.2-2.967,13.172,13.172,0,0,1-.819-5.358c.222-1.176.168-2.375.285-3.56.239-.965.062-2,.537-2.934.2-.385.386-.6.829-.581.5.024.5.438.573.752a1.834,1.834,0,0,1-.049.968,4.715,4.715,0,0,0-.195,1.8,6.381,6.381,0,0,0,.844,3.625.671.671,0,0,0-.039.6,6.336,6.336,0,0,0,2.773,3.044c.683.378,1.262,1.061,2.182.744" transform="translate(-45.693 -16.191)" fill="#fac6b3"/>
        <path id="Trazado_825593" data-name="Trazado 825593" d="M123.667,31.866A9.078,9.078,0,0,1,122,29.753c-.442-.97-.23-1.5.786-1.812a2.383,2.383,0,0,0,1-.091l.384,0c.058.073.117.078.179.005l.684.081c.124.053.231.056.293-.091a8.118,8.118,0,0,1,2.356-.775c3.058-.357,5.628,1.282,5.648,4.559a6.869,6.869,0,0,1-1.606,4.436.911.911,0,0,1-.488.378,9.69,9.69,0,0,0-2.46-1.26c-.285-.444-.808-.536-1.214-.8-1.21-.775-2.453-1.5-3.682-2.245l-.09-.117-.127-.162" transform="translate(-53.073 -11.778)" fill="#d39f6b"/>
        <path id="Trazado_825594" data-name="Trazado 825594" d="M123.343,36.1c1.23.745,2.472,1.47,3.682,2.245.406.26.929.352,1.214.8a2.252,2.252,0,0,1-.575,2.1,2.606,2.606,0,0,0-.6.924c-.086.273-.054.452.274.473-.046.641.624.893.781,1.43a4.191,4.191,0,0,0,.339.684,12.117,12.117,0,0,1-.977.783,9.534,9.534,0,0,1-5.505,1.4c-.595-.009-.746-.48-.473-1.12.235-.55.814-.831,1-1.4.051-.534-.384-.685-.733-.8-1.041-.339-1.376-.7-1.189-2.116a10.409,10.409,0,0,1,2.137-4.964,1.119,1.119,0,0,1,.616-.43" transform="translate(-52.533 -15.733)" fill="#fac6b3"/>
        <path id="Trazado_825595" data-name="Trazado 825595" d="M94.9,55.636a12.67,12.67,0,0,1-4.9-2.356A11.17,11.17,0,0,1,87.564,51a4.85,4.85,0,0,1-1.136-3.622c.158.134.318.267.474.4a4.951,4.951,0,0,0,3.9,1.4,8.722,8.722,0,0,0,2.229-.8,3.453,3.453,0,0,0,2.282,1.148,21.353,21.353,0,0,0-.408,6.1" transform="translate(-37.653 -20.649)" fill="#fac6b3"/>
        <path id="Trazado_825596" data-name="Trazado 825596" d="M79.379,106.443q1.739,4.233,3.477,8.467c.688,1.681,1.385,3.36,2.042,5.053.129.33.507.743-.038,1.08a14.934,14.934,0,0,0-2.289-2.569,9.413,9.413,0,0,1-1.413-1.748,48.544,48.544,0,0,1-2.7-4.132,12.242,12.242,0,0,1-1.117-2.608,2.006,2.006,0,0,1,.254-1.643,6.447,6.447,0,0,1,1.779-1.9" transform="translate(-33.675 -46.389)" fill="#7816c2"/>
        <path id="Trazado_825597" data-name="Trazado 825597" d="M93.733,13.2a15.631,15.631,0,0,0-4.5.019c-.006-.783.017-1.568-.027-2.35-.029-.524.1-.789.674-.692a.582.582,0,0,0,.572-.164l.077.071-.042-.091a.672.672,0,0,0,.1-.467c0-2.878,0-5.755-.016-8.633,0-.48-.11-.924.663-.889,1.14.052,1.185.037,1.185.95q0,4.211,0,8.423c0,.848.045.876.891.843.4-.015.491.251.48.6-.025.795-.04,1.59-.059,2.385" transform="translate(-38.875 0)" fill="#434c6e"/>
        <path id="Trazado_825598" data-name="Trazado 825598" d="M92.4,46.653a8.725,8.725,0,0,1-2.229.8,4.95,4.95,0,0,1-3.9-1.4c-.157-.136-.316-.269-.474-.4-.289-.706-.868-1.3-.846-2.127l.253-.112.3.018a.584.584,0,0,0,.558.068l.3.011.266-.011h.436l.065.019.062-.027.572-.012.066.022.064-.028.434-.013.064.026.062-.031.445-.007.146-.006.385-.006a.105.105,0,0,0,.173,0h.391a.107.107,0,0,0,.173.005l.389,0a.208.208,0,0,0,.3,0l.262,0a.2.2,0,0,0,.3,0l.268,0a.093.093,0,0,0,.157,0l.413-.008a.335.335,0,0,0,.41-.01l.306,0,.109,0,1.289,0A4.827,4.827,0,0,1,92.4,46.653" transform="translate(-37.022 -18.917)" fill="#eda404"/>
        <path id="Trazado_825599" data-name="Trazado 825599" d="M101.422,56.6a21.358,21.358,0,0,1,.408-6.1l.014-.017.072-.172c.179-.847.808-.728,1.414-.657a13.174,13.174,0,0,0,.819,5.358,6.237,6.237,0,0,0,2.2,2.967c.269.184.608.358.71.73-.062.061-.164.116-.177.186-.3,1.627-.6,3.255-.873,4.886a4.658,4.658,0,0,1-.245.982c-.231-.229-.156-.524-.155-.794a39.221,39.221,0,0,1,.136-4.818c.087-.666-.189-.866-.814-.832-.651.036-1.3,0-1.957.007-1.144.016-1.37-.19-1.448-1.322a2.117,2.117,0,0,0-.106-.4" transform="translate(-44.17 -21.618)" fill="#d39f6b"/>
        <path id="Trazado_825600" data-name="Trazado 825600" d="M64.07,72.978c1.519-.278,3.114,1.5,3.024,3.031a3.065,3.065,0,0,1-6.131.024c-.069-1.559,1.538-3.328,3.106-3.055m.01,1.445c-1.079,0-1.652.534-1.653,1.538a1.6,1.6,0,0,0,1.614,1.658A1.782,1.782,0,0,0,65.709,75.8a1.545,1.545,0,0,0-1.629-1.381" transform="translate(-26.567 -31.792)" fill="#b3dc7e"/>
        <path id="Trazado_825601" data-name="Trazado 825601" d="M39.6,168.665q2.739,0,5.478,0c.319,0,.661-.069.679.456.019.553-.35.456-.655.458q-5.583.017-11.165.02c-.313,0-.581.017-.591-.456-.011-.534.3-.476.636-.476q2.809,0,5.618,0Z" transform="translate(-14.532 -73.505)" fill="#1b2644"/>
        <path id="Trazado_825602" data-name="Trazado 825602" d="M112.522,53.449a6.334,6.334,0,0,1-2.773-3.044.671.671,0,0,1,.039-.6l.418,0,.143.014q1.757.3,3.514.592a1.08,1.08,0,0,1,.786.4,6.923,6.923,0,0,0-2.127,2.639" transform="translate(-47.804 -21.705)" fill="#d39f6b"/>
        <path id="Trazado_825603" data-name="Trazado 825603" d="M114.709,54a6.923,6.923,0,0,1,2.127-2.639,4.419,4.419,0,0,1,1.877-.273,1.948,1.948,0,0,1-.475,1.1,15.791,15.791,0,0,0-1.347,2.552c-.92.318-1.5-.366-2.182-.744" transform="translate(-49.991 -22.258)" fill="#7816c2"/>
        <path id="Trazado_825604" data-name="Trazado 825604" d="M132.354,44.982c-.328-.021-.36-.2-.274-.473a2.614,2.614,0,0,1,.6-.923,2.251,2.251,0,0,0,.576-2.1,9.69,9.69,0,0,1,2.46,1.26c-.1.56-.589.8-.957,1.115a4.518,4.518,0,0,1-2.4,1.117" transform="translate(-57.544 -18.082)" fill="#1b2644"/>
        <path id="Trazado_825605" data-name="Trazado 825605" d="M46.77,163.058h.418c.049.075.1.072.144,0a2.767,2.767,0,0,1,1.031.027.441.441,0,0,1,.378.526c-.008.377-.231.406-.509.406l-3.293-.007-.277,0-.285,0h-.138c-.6,0-1.205-.014-1.807.007-.368.013-.584-.1-.582-.495s.211-.537.58-.5c.276.025.552.048.828.072.045.058.089.058.133,0a.558.558,0,0,1,.428,0c.043.061.087.062.133,0h.435a.165.165,0,0,0,.27-.013l.285.005c.048.063.094.061.139,0H45.5c.047.064.094.062.139,0l.982-.014c.047.076.1.074.144,0" transform="translate(-18.239 -71.041)" fill="#1b2644"/>
        <path id="Trazado_825606" data-name="Trazado 825606" d="M122.813,187.607a27.962,27.962,0,0,1,3.376,0c-.051,1-.812,1.566-1.365,2.26a.205.205,0,0,1-.31.039c-.665-.692-1.545-1.225-1.7-2.3" transform="translate(-53.523 -81.738)" fill="#b3dc7e"/>
        <path id="Trazado_825607" data-name="Trazado 825607" d="M63.129,50.384c.233,0,.467-.009.7,0s.506-.069.535.283c.028.332.027.673-.362.816a5.485,5.485,0,0,1-2.144.136c-.411-.015-.166-.417-.214-.616a.516.516,0,0,1,.508-.614,8.7,8.7,0,0,1,.978-.008" transform="translate(-26.852 -21.953)" fill="#ffae7e"/>
        <path id="Trazado_825608" data-name="Trazado 825608" d="M89.866,78.382a.505.505,0,0,1-.588-.439c-.129-.541-.265-1.082-.419-1.616-.1-.343-.074-.547.335-.675s.637,0,.752.363a16.948,16.948,0,0,1,.465,1.677c.077.375-.013.718-.546.691" transform="translate(-38.705 -32.948)" fill="#ffae7e"/>
        <path id="Trazado_825609" data-name="Trazado 825609" d="M44.861,108.156c0,.256-.01.513,0,.769.026.538-.305.6-.728.579-.5-.029-.531-.3-.468-.721a13.97,13.97,0,0,0,.08-1.461c.016-.373.149-.614.58-.621.447-.008.562.228.547.616-.011.279,0,.559,0,.839Z" transform="translate(-19.02 -46.501)" fill="#ffae7e"/>
        <path id="Trazado_825610" data-name="Trazado 825610" d="M41.394,127.542a4.968,4.968,0,0,1-.555,1.773.512.512,0,0,1-.64.291c-.294-.068-.386-.278-.383-.575a5.309,5.309,0,0,1,.631-1.97c.108-.26.381-.239.612-.187.37.083.339.386.335.667" transform="translate(-17.352 -55.279)" fill="#ffae7e"/>
        <path id="Trazado_825611" data-name="Trazado 825611" d="M44.516,88.413c0,.486-.127.849-.583.884s-.635-.313-.671-.724a10.067,10.067,0,0,0-.1-1.526.392.392,0,0,1,.447-.486c.276.043.733-.068.763.4a8.659,8.659,0,0,0,.143,1.448" transform="translate(-18.805 -37.722)" fill="#ffae7e"/>
        <path id="Trazado_825612" data-name="Trazado 825612" d="M42.325,123.07c-.511.014-.729-.207-.629-.687.109-.521.235-1.038.353-1.558.1-.424.41-.477.751-.4s.582.251.44.7c-.155.484-.242.988-.365,1.483-.074.3-.225.513-.55.464" transform="translate(-18.161 -52.47)" fill="#ffae7e"/>
        <path id="Trazado_825613" data-name="Trazado 825613" d="M43.707,113.888c.507-.093.657.142.6.588-.067.507-.1,1.021-.191,1.522-.055.291-.162.62-.6.507-.363-.095-.644-.221-.556-.711a5.881,5.881,0,0,0,.054-1.253c-.02-.524.192-.748.691-.652" transform="translate(-18.716 -49.624)" fill="#ffae7e"/>
        <path id="Trazado_825614" data-name="Trazado 825614" d="M77.016,55.1c0,.526-.393.812-.808.605a10.1,10.1,0,0,1-1.428-.864.643.643,0,0,1-.24-.807.519.519,0,0,1,.737-.187,16.032,16.032,0,0,1,1.608.946c.093.06.106.243.131.307" transform="translate(-32.458 -23.434)" fill="#ffae7e"/>
        <path id="Trazado_825615" data-name="Trazado 825615" d="M93.123,91.228c.117.478-.264.4-.46.49a.432.432,0,0,1-.644-.329,15.056,15.056,0,0,1-.3-1.856c-.033-.322.2-.507.52-.548.252-.032.469.019.551.3a1.374,1.374,0,0,1,.022.138c.107.618.215,1.236.313,1.8" transform="translate(-39.969 -38.777)" fill="#ffae7e"/>
        <path id="Trazado_825616" data-name="Trazado 825616" d="M80.2,58c0-.325.23-.507.625-.359.762.287,1.138.994,1.6,1.594.12.156-.019.37-.147.5a.568.568,0,0,1-.56.206A4.332,4.332,0,0,1,80.2,58" transform="translate(-34.953 -25.097)" fill="#ffae7e"/>
        <path id="Trazado_825617" data-name="Trazado 825617" d="M8.2,145.414c-.3-.067-.8-.153-1.288-.3a.646.646,0,0,1-.432-.841c.085-.408.445-.3.686-.27a11.97,11.97,0,0,1,1.565.326.566.566,0,0,1,.391.723c-.074.417-.405.38-.922.359" transform="translate(-2.812 -62.743)" fill="#ffae7e"/>
        <path id="Trazado_825618" data-name="Trazado 825618" d="M27.171,144.887c-.469.008-.671-.15-.759-.408a.462.462,0,0,1,.315-.609q.765-.337,1.52-.7a.49.49,0,0,1,.719.178.536.536,0,0,1-.128.754c-.578.331-1.206.572-1.668.783" transform="translate(-11.497 -62.359)" fill="#ffae7e"/>
        <path id="Trazado_825619" data-name="Trazado 825619" d="M71.008,52.237c-.23.3-.533.631-.851.531a5.969,5.969,0,0,1-1.64-.54.557.557,0,0,1-.231-.671c.072-.273.269-.487.556-.422a4.611,4.611,0,0,1,1.957.829,1.488,1.488,0,0,1,.209.274" transform="translate(-29.746 -22.28)" fill="#ffae7e"/>
        <path id="Trazado_825620" data-name="Trazado 825620" d="M43.846,81.776c0,.324.067.673-.46.671-.442,0-.671-.19-.669-.613,0-.516-.2-1-.165-1.524.029-.379.172-.556.55-.563.353-.007.581.093.6.5.027.511.091,1.02.142,1.528" transform="translate(-18.542 -34.754)" fill="#ffae7e"/>
        <path id="Trazado_825621" data-name="Trazado 825621" d="M1.873,143.253a3.564,3.564,0,0,1-1.635-.759.573.573,0,0,1-.184-.7c.143-.3.408-.254.666-.16.5.184,1,.375,1.508.551a.565.565,0,0,1,.428.7c-.077.422-.413.37-.783.369" transform="translate(0 -61.696)" fill="#ffae7e"/>
        <path id="Trazado_825622" data-name="Trazado 825622" d="M44.005,73.588a8.471,8.471,0,0,0-.212,1.654c-.1.534-.442.476-.78.438-.428-.047-.405-.346-.338-.683.1-.525.158-1.06.253-1.587.062-.343.31-.429.63-.4s.46.191.446.581" transform="translate(-18.582 -31.815)" fill="#ffae7e"/>
        <path id="Trazado_825623" data-name="Trazado 825623" d="M45.643,67.2c-.143.461-.287,1.017-.491,1.55-.125.328-.452.279-.734.234a.418.418,0,0,1-.351-.577,12.239,12.239,0,0,1,.537-1.655.641.641,0,0,1,.763-.369c.357.1.24.455.276.817" transform="translate(-19.195 -28.921)" fill="#ffae7e"/>
        <path id="Trazado_825624" data-name="Trazado 825624" d="M37.126,135.769c-.3-.087-.557-.266-.419-.676a6.154,6.154,0,0,1,1.018-1.722.451.451,0,0,1,.616-.159.46.46,0,0,1,.245.533,6.193,6.193,0,0,1-.97,1.833.555.555,0,0,1-.49.191" transform="translate(-15.981 -58.025)" fill="#ffae7e"/>
        <path id="Trazado_825625" data-name="Trazado 825625" d="M86.937,69.818c.015-.263.053-.471.315-.521a.6.6,0,0,1,.687.222,5.813,5.813,0,0,1,.658,1.9c.057.25-.162.362-.364.445a.535.535,0,0,1-.682-.175c-.257-.617-.424-1.272-.614-1.874" transform="translate(-37.888 -30.191)" fill="#ffae7e"/>
        <path id="Trazado_825626" data-name="Trazado 825626" d="M91.834,84.238c.037.5-.035.761-.452.786-.379.023-.627-.069-.674-.51-.052-.484-.158-.961-.244-1.441-.052-.289,0-.544.333-.573.3-.026.7-.181.8.31.1.525.179,1.055.241,1.429" transform="translate(-39.417 -35.935)" fill="#ffae7e"/>
        <path id="Trazado_825627" data-name="Trazado 825627" d="M47.869,60.292c.443.016.579.245.5.605a8.026,8.026,0,0,1-.837,1.742.53.53,0,0,1-.685.181.38.38,0,0,1-.281-.429,3.685,3.685,0,0,1,1.022-2c.066-.073.211-.076.282-.1" transform="translate(-20.292 -26.276)" fill="#ffae7e"/>
        <path id="Trazado_825628" data-name="Trazado 825628" d="M52.336,55.372a.623.623,0,0,1-.167.448c-.349.408-.68.833-1.05,1.22a.574.574,0,0,1-.824.071.481.481,0,0,1-.048-.745,5.689,5.689,0,0,1,1.388-1.373c.406-.26.7-.074.7.378" transform="translate(-21.831 -23.915)" fill="#ffae7e"/>
        <path id="Trazado_825629" data-name="Trazado 825629" d="M20.952,146.643a2.546,2.546,0,0,0-.418.049.447.447,0,0,1-.617-.386.516.516,0,0,1,.319-.688,5.061,5.061,0,0,1,2.08-.074c.28.027.269.338.271.576,0,.262-.134.358-.385.395a5.362,5.362,0,0,1-1.251.129" transform="translate(-8.669 -63.398)" fill="#ffae7e"/>
        <path id="Trazado_825630" data-name="Trazado 825630" d="M32.364,140.588a.752.752,0,0,1,.091-.332,6.5,6.5,0,0,1,1.405-1.351.5.5,0,0,1,.592-.02c.238.171.1.406.023.572a3.973,3.973,0,0,1-1.431,1.592c-.4.268-.674.086-.68-.461" transform="translate(-14.104 -60.489)" fill="#ffae7e"/>
        <path id="Trazado_825631" data-name="Trazado 825631" d="M84.419,63.419c.014-.322.064-.523.314-.587a.407.407,0,0,1,.489.181,18.141,18.141,0,0,1,.872,1.662c.112.26.143.64-.227.785s-.593-.068-.75-.414a5.546,5.546,0,0,1-.7-1.627" transform="translate(-36.79 -27.374)" fill="#ffae7e"/>
        <path id="Trazado_825632" data-name="Trazado 825632" d="M57.707,51.876a.883.883,0,0,1-.536.7,10.092,10.092,0,0,0-1.344.587.5.5,0,0,1-.739-.15.5.5,0,0,1,.266-.75,7.485,7.485,0,0,1,1.617-.808c.467-.107.5.3.736.421" transform="translate(-23.975 -22.416)" fill="#ffae7e"/>
        <path id="Trazado_825633" data-name="Trazado 825633" d="M44.961,95.211c.012.465-.1.772-.464.789a.582.582,0,0,1-.669-.634c0-.513-.011-1.027,0-1.541a.539.539,0,0,1,.566-.582c.392-.012.436.265.432.573a3.429,3.429,0,0,0,.133,1.4" transform="translate(-19.099 -40.636)" fill="#ffae7e"/>
        <path id="Trazado_825634" data-name="Trazado 825634" d="M13.966,145.513c.46.052.9.1,1.338.152s.487.422.481.729c-.007.38-.278.377-.608.315-.408-.078-.842-.024-1.254-.094-.359-.06-.82-.035-.768-.659.053-.64.508-.384.81-.443" transform="translate(-5.732 -63.415)" fill="#ffae7e"/>
        <path id="Trazado_825635" data-name="Trazado 825635" d="M45.076,101.578c0,.257,0,.513,0,.77,0,.3-.124.493-.453.5s-.567-.085-.57-.455c-.006-.583,0-1.167.014-1.75a.434.434,0,0,1,.47-.486c.358-.008.509.182.517.514.007.3,0,.607,0,.91h.022" transform="translate(-19.198 -43.648)" fill="#ffae7e"/>
        <path id="Trazado_825636" data-name="Trazado 825636" d="M93.97,97.281l-1.014.507c-.078-.4-.178-.806-.227-1.214s0-.719.534-.8c.566-.084.541.26.579.615.033.3.085.594.128.89" transform="translate(-40.406 -41.734)" fill="#ffae7e"/>
        <path id="Trazado_825637" data-name="Trazado 825637" d="M137.766,52.663c-.218.345-.568.242-.881.253s-.648.007-.972.008c-.269,0-.636.344-.775-.076a.715.715,0,0,1,.343-.81,7.94,7.94,0,0,1,2.284.624" transform="translate(-58.883 -22.677)" fill="#7816c2"/>
        <path id="Trazado_825638" data-name="Trazado 825638" d="M124.567,28.449a2.389,2.389,0,0,1-1,.091,1.362,1.362,0,0,1,1-.091" transform="translate(-53.85 -12.376)" fill="#fac6b3"/>
        <path id="Trazado_825639" data-name="Trazado 825639" d="M144.792,64.006a.984.984,0,0,1,.056-.722.869.869,0,0,1-.056.722" transform="translate(-63.084 -27.58)" fill="#fac6b3"/>
        <path id="Trazado_825640" data-name="Trazado 825640" d="M46.616,163.117a.165.165,0,0,1-.27.013l.27-.013" transform="translate(-20.198 -71.088)" fill="#434c6e"/>
        <path id="Trazado_825641" data-name="Trazado 825641" d="M127.847,28.479c-.062.147-.17.144-.293.091a.284.284,0,0,1,.293-.091" transform="translate(-55.589 -12.409)" fill="#fac6b3"/>
        <path id="Trazado_825642" data-name="Trazado 825642" d="M144.846,60.643a.292.292,0,0,1-.028-.319.252.252,0,0,1,.028.319" transform="translate(-63.098 -26.29)" fill="#fac6b3"/>
        <path id="Trazado_825643" data-name="Trazado 825643" d="M144.9,61.6a.238.238,0,0,1-.013-.313c0,.1.008.208.013.313" transform="translate(-63.122 -26.71)" fill="#fac6b3"/>
        <path id="Trazado_825644" data-name="Trazado 825644" d="M144.893,62.609a.213.213,0,0,1,.008-.3c0,.1-.005.2-.008.3" transform="translate(-63.119 -27.153)" fill="#fac6b3"/>
        <path id="Trazado_825645" data-name="Trazado 825645" d="M85.179,43.415l-.253.112a.259.259,0,0,1-.034-.109l.288,0" transform="translate(-36.996 -18.921)" fill="#fac6b3"/>
        <path id="Trazado_825646" data-name="Trazado 825646" d="M46.834,164.779l.276,0c-.093.12-.185.118-.276,0" transform="translate(-20.411 -71.812)" fill="#cbe8f3"/>
        <path id="Trazado_825647" data-name="Trazado 825647" d="M45.472,163.141c-.046.059-.09.058-.133,0l.133,0" transform="translate(-19.759 -71.097)" fill="#434c6e"/>
        <path id="Trazado_825648" data-name="Trazado 825648" d="M47.468,163.121c-.045.064-.091.067-.138,0l.138,0" transform="translate(-20.627 -71.089)" fill="#434c6e"/>
        <path id="Trazado_825649" data-name="Trazado 825649" d="M48.465,163.118c-.045.065-.092.067-.139,0l.139,0" transform="translate(-21.061 -71.088)" fill="#434c6e"/>
        <path id="Trazado_825650" data-name="Trazado 825650" d="M50.458,163.1c-.049.073-.1.074-.144,0h.144" transform="translate(-21.927 -71.078)" fill="#434c6e"/>
        <path id="Trazado_825651" data-name="Trazado 825651" d="M51.455,163.095c-.047.073-.1.077-.144,0l.144,0" transform="translate(-22.362 -71.078)" fill="#434c6e"/>
        <path id="Trazado_825652" data-name="Trazado 825652" d="M46.083,164.772h.138c-.046.07-.093.068-.138,0" transform="translate(-20.083 -71.809)" fill="#cbe8f3"/>
        <path id="Trazado_825653" data-name="Trazado 825653" d="M44.477,163.141c-.043.059-.087.06-.133,0l.133,0" transform="translate(-19.325 -71.098)" fill="#434c6e"/>
        <path id="Trazado_825654" data-name="Trazado 825654" d="M110.748,49.785l-.143-.014c.055-.068.1-.055.143.014" transform="translate(-48.203 -21.671)" fill="#fac6b3"/>
        <path id="Trazado_825655" data-name="Trazado 825655" d="M126.2,28.5c-.062.073-.122.067-.18-.005l.18.005" transform="translate(-54.922 -12.417)" fill="#fac6b3"/>
        <path id="Trazado_825656" data-name="Trazado 825656" d="M90.571,100.451c-.017.076-.047.134-.142.1l.142-.1" transform="translate(-39.41 -43.777)" fill="#cbe8f3"/>
        <path id="Trazado_825657" data-name="Trazado 825657" d="M125.124,35.6l.127.162a.138.138,0,0,1-.127-.162" transform="translate(-54.53 -15.517)" fill="#fac6b3"/>
        <path id="Trazado_825658" data-name="Trazado 825658" d="M147.833,107.061a.689.689,0,0,1-.055-.1c0-.007.028-.027.044-.041,0,.047.007.094.011.141" transform="translate(-64.403 -46.597)" fill="#434c6e"/>
        <path id="Trazado_825659" data-name="Trazado 825659" d="M91.451,17.709l.042.091-.077-.071.035-.021" transform="translate(-39.84 -7.718)" fill="#cbe8f3"/>
        <path id="Trazado_825660" data-name="Trazado 825660" d="M136.8,146.47c-.021-.093-.043-.186-.065-.278.434-1.43.839-2.867,1.154-4.328a1.423,1.423,0,0,1,.147-.3.9.9,0,0,1,.9.424,13.885,13.885,0,0,0,2.667,2.558A13.416,13.416,0,0,0,151,147.195a13.745,13.745,0,0,0,8.132-3.656,14.279,14.279,0,0,0,3.605-5.342,13.457,13.457,0,0,0-1.153-11.95,13.59,13.59,0,0,0-12.667-6.611,12.255,12.255,0,0,0-5.224,1.387,8.7,8.7,0,0,1-1.429.85q.278-2.245.558-4.491c1.066-.235,1.121-.3,1.083-1.259a17.233,17.233,0,0,1,6.384-.989,18.071,18.071,0,0,1,3.815,35.6,17.809,17.809,0,0,1-13.361-1.958,14.475,14.475,0,0,1-2.6-1.875,1.671,1.671,0,0,0-1.335-.433" transform="translate(-59.591 -50.172)" fill="#f1d8ff"/>
        <path id="Trazado_825661" data-name="Trazado 825661" d="M148.6,116.893c.038.96-.017,1.024-1.083,1.259q.071-.633.142-1.265l.942.006" transform="translate(-64.29 -50.94)" fill="#fac6b3"/>
        <path id="Trazado_825662" data-name="Trazado 825662" d="M143.265,125.339a8.767,8.767,0,0,0,1.429-.85,12.245,12.245,0,0,1,5.223-1.388,13.593,13.593,0,0,1,12.667,6.611,13.452,13.452,0,0,1,1.153,11.95A14.288,14.288,0,0,1,160.133,147,13.745,13.745,0,0,1,152,150.659a13.417,13.417,0,0,1-9.392-2.653,13.871,13.871,0,0,1-2.668-2.558.9.9,0,0,0-.9-.424c.53-2.291,1.08-4.576,1.587-6.872.717-3.251,1.546-6.479,2.059-9.773.159-1.018.384-2.027.579-3.039" transform="translate(-60.595 -53.636)" fill="#b3dc7e"/>
        <path id="Trazado_825663" data-name="Trazado 825663" d="M134.3,147.2c-.338-.129-.252-.42-.257-.675a36.435,36.435,0,0,0,1.13-5.367c.12-1.032.349-2.051.5-3.081.175-1.2.3-2.4.476-3.6.251-1.751.274-3.523.53-5.276a8.99,8.99,0,0,0,.168-1.93,25.139,25.139,0,0,1,.3-3.668l.363.014a27.951,27.951,0,0,1-.172,2.847,29.733,29.733,0,0,0-.159,3.937,7.746,7.746,0,0,1-.265,2.02c-.264,1.462-.226,2.954-.516,4.4-.367,1.828-.443,3.7-.917,5.512a28.93,28.93,0,0,0-.588,3.027,10.272,10.272,0,0,1-.594,1.835" transform="translate(-58.413 -53.868)" fill="#cbe8f3"/>
        <path id="Trazado_825664" data-name="Trazado 825664" d="M139.633,104.73c-.054-2.159.349-4.322.112-6.467a39.644,39.644,0,0,0-.223-4.442,2.448,2.448,0,0,1,0-.7c.019-.243-.046-.6.307-.6.3,0,.252.336.267.559.027.4.058.794.058,1.191q0,5.228-.016,10.455l-.507,0" transform="translate(-60.793 -40.321)" fill="#cbe8f3"/>
        <path id="Trazado_825665" data-name="Trazado 825665" d="M139.621,114.158l.507,0a16.481,16.481,0,0,1-.2,4.093,6.793,6.793,0,0,0-.049,1.253l-.363-.013c-.1-1.725,0-3.451,0-5.177,0-.05.072-.1.109-.152" transform="translate(-60.781 -49.749)" fill="#fac6b3"/>
        <path id="Trazado_825666" data-name="Trazado 825666" d="M120.981,131.739l.276-.132a.887.887,0,0,1-.071.7.662.662,0,0,1-.206-.568" transform="translate(-52.724 -57.355)" fill="#fac6b3"/>
        <path id="Trazado_825667" data-name="Trazado 825667" d="M102.354,122.8a12.406,12.406,0,0,1-.9,2.778c-.067.2-.177.38-.247.577-.629,1.777-.245,1.424-2.051,1.48a18.756,18.756,0,0,0-3.347.108,1.88,1.88,0,0,1-.674-.122,1.649,1.649,0,0,0-.281-.458c-1.335-1.088-2.406-2.441-3.633-3.635a20.067,20.067,0,0,1-1.64-3.717c-1.679-4.079-3.311-8.177-4.96-12.268q-.7-1.747-1.4-3.5a2.175,2.175,0,0,0,1.257-.873c3.621,0,7.241.014,10.862-.012a1.275,1.275,0,0,1,1.453.967c.639,1.91,1.605,3.693,2.236,5.611.184.561.656,1.034.487,1.7-.286.1-.537.263-.4.6.518,1.313.872,2.676,1.263,4.028.65,2.248,1.322,4.49,1.985,6.734" transform="translate(-36.266 -44.959)" fill="#7816c2"/>
        <path id="Trazado_825668" data-name="Trazado 825668" d="M115.665,174.559a57.464,57.464,0,0,1,5.9.01,19.127,19.127,0,0,0,.034,2.234,1.745,1.745,0,0,1-1.88,2.042,4.941,4.941,0,0,0-1.515-.007c-.544.1-.6.379-.231.806.3.344.788.377,1.079.716a6.875,6.875,0,0,1-2.262.078.871.871,0,0,0-.272-.695c-.737-.712-1.332-1.547-2.019-2.3-.956-1.049-.891-1.445.4-2.03a1.209,1.209,0,0,1,.257-.105.568.568,0,0,0,.513-.749" transform="translate(-49.615 -76.044)" fill="#b3dc7e"/>
        <path id="Trazado_825669" data-name="Trazado 825669" d="M123.317,164.66a11.315,11.315,0,0,1-.262-2.807,9.614,9.614,0,0,1,2.766-.127c1.354-.037,1.4-.026,1.821,1.21a16.318,16.318,0,0,1,1.06,2.77q-.3.883-.6,1.765a14.031,14.031,0,0,1-4.211.007l-.572-2.818" transform="translate(-53.622 -70.465)" fill="#7816c2"/>
        <path id="Trazado_825670" data-name="Trazado 825670" d="M124.251,178.862a1.746,1.746,0,0,0,1.881-2.043,18.867,18.867,0,0,1-.034-2.233,12.132,12.132,0,0,1,2.524.06c.212.313.59.256.878.4a16.424,16.424,0,0,1-1.013,4.763c-.211-.345-.55-.281-.869-.265a4.854,4.854,0,0,1-3.367-.68" transform="translate(-54.15 -76.06)" fill="#fac6b3"/>
        <path id="Trazado_825671" data-name="Trazado 825671" d="M122.29,149.194a1.384,1.384,0,0,1,2,.807c.549,1.389,1.122,2.769,1.662,4.161.267.691.094.909-.588.728a9.469,9.469,0,0,0-2.023-.1c-.284-.015-.568.023-.72-.292-.067-.373.066-.779-.19-1.12a5.989,5.989,0,0,0-.144-2.243q0-.972,0-1.944" transform="translate(-53.294 -64.951)" fill="#7816c2"/>
        <path id="Trazado_825672" data-name="Trazado 825672" d="M131.741,180.1a16.405,16.405,0,0,0,1.013-4.763,1.973,1.973,0,0,0,1.092-.139c.074.055.188.1.216.168.539,1.4,1.216,2.739,1.623,4.186a4.22,4.22,0,0,1-1.883.29,1.356,1.356,0,0,0-1.334.936l-.7-.01c-.015-.137-.031-.274-.046-.411l.024-.258" transform="translate(-57.403 -76.353)" fill="#b3dc7e"/>
        <path id="Trazado_825673" data-name="Trazado 825673" d="M119.8,151.238a5.988,5.988,0,0,1,.144,2.243,3.152,3.152,0,0,0-1.944,1.4l-1.281-.016a8.138,8.138,0,0,1,.376-.957.935.935,0,0,0-.17-1.3,1.107,1.107,0,0,1-.349-.871,8.733,8.733,0,0,0,1.536-2.48l.317.023a4.406,4.406,0,0,1,.909,1.489.567.567,0,0,0,.462.462" transform="translate(-50.803 -65.051)" fill="#fac6b3"/>
        <path id="Trazado_825674" data-name="Trazado 825674" d="M108.422,151.489a6.551,6.551,0,0,1-3.2.412c-.434,0-.6-.289-.594-.7.006-.653,0-1.306,0-1.958a2.41,2.41,0,0,1,1.826.282,19.637,19.637,0,0,1,1.989,1.818c-.007.049-.014.1-.021.147" transform="translate(-45.598 -65.021)" fill="#b3dc7e"/>
        <path id="Trazado_825675" data-name="Trazado 825675" d="M118.5,140.721a1.828,1.828,0,0,1,.194-1.215l.8-2.131a6.48,6.48,0,0,1,.9,2.225,9.466,9.466,0,0,0,.187,2.932,3.786,3.786,0,0,1-1.5.15l-.583-1.961" transform="translate(-51.623 -59.869)" fill="#b3dc7e"/>
        <path id="Trazado_825676" data-name="Trazado 825676" d="M126.956,183.108l-.024.258c-.206.068-.261.268-.371.421a27.59,27.59,0,0,1-4.508-.109c-.292-.34-.783-.372-1.079-.716-.37-.428-.313-.705.231-.806a4.926,4.926,0,0,1,1.515.007,4.852,4.852,0,0,0,3.367.68c.318-.016.657-.08.868.265" transform="translate(-52.619 -79.361)" fill="#eda404"/>
        <path id="Trazado_825677" data-name="Trazado 825677" d="M114.728,153.66a1.107,1.107,0,0,0,.35.871.934.934,0,0,1,.17,1.3,8.146,8.146,0,0,0-.376.957c-.718.01-1.436.015-2.154.034-.355.009-.432-.125-.341-.464a5.223,5.223,0,0,0,.424-1.372c0-.376.63-.145.687-.555a5.12,5.12,0,0,0,1.241-.767" transform="translate(-48.959 -66.966)" fill="#fefeff"/>
        <path id="Trazado_825678" data-name="Trazado 825678" d="M115.419,151.709a5.12,5.12,0,0,1-1.241.767c-.166-.037-.318-.061-.222-.311.322-.84.623-1.686.939-2.529.064-.172.132-.4.352-.382a10.482,10.482,0,0,1,1.709-.025,8.732,8.732,0,0,1-1.536,2.48" transform="translate(-49.65 -65.015)" fill="#7816c2"/>
        <path id="Trazado_825679" data-name="Trazado 825679" d="M109.853,151.271a19.568,19.568,0,0,0-1.989-1.818c.027-.324.229-.486.52-.4a7.17,7.17,0,0,0,1.941.108c.405.011.592.106.364.529a3.187,3.187,0,0,0-.44,1.309c-.016.263-.2.278-.4.269" transform="translate(-47.008 -64.949)" fill="#7816c2"/>
        <path id="Trazado_825680" data-name="Trazado 825680" d="M122.349,166.956l.572,2.818a5.122,5.122,0,0,1-2.1.019c.671-.761.671-1.844,1.271-2.642a.4.4,0,0,1,.258-.194" transform="translate(-52.654 -72.761)" fill="#cbe8f3"/>
        <path id="Trazado_825681" data-name="Trazado 825681" d="M119.1,158.141a3.154,3.154,0,0,1,1.944-1.4c.256.341.124.747.19,1.12-.15.432-.525.3-.824.305-.436.015-.873-.012-1.311-.022" transform="translate(-51.903 -68.308)" fill="#eda404"/>
        <path id="Trazado_825682" data-name="Trazado 825682" d="M122.041,144.251a9.483,9.483,0,0,1-.187-2.932c.323.038.276.34.349.531.18.471.28.973.473,1.438.408.978.408,1-.636.964" transform="translate(-53.083 -61.588)" fill="#7816c2"/>
        <path id="Trazado_825683" data-name="Trazado 825683" d="M116.047,161.864a2.9,2.9,0,0,1-1.059.5,1.561,1.561,0,0,1-1.883-.59,11.757,11.757,0,0,1,2.942.091" transform="translate(-49.292 -70.481)" fill="#fac6b3"/>
        <path id="Trazado_825684" data-name="Trazado 825684" d="M118.026,143.306l.583,1.961c-1.389-.016-1.439-.085-1-1.406.076-.231.08-.518.416-.555" transform="translate(-51.149 -62.454)" fill="#7816c2"/>
        <path id="Trazado_825685" data-name="Trazado 825685" d="M121.228,151.255a.567.567,0,0,1-.462-.461,4.406,4.406,0,0,0-.909-1.489l1.374.007q0,.972,0,1.944" transform="translate(-52.235 -65.068)" fill="#cbe8f3"/>
        <path id="Trazado_825686" data-name="Trazado 825686" d="M132.007,170.573l.6-1.765c.471.239.365.653.164.939s-.071.974-.766.826" transform="translate(-57.53 -73.568)" fill="#cbe8f3"/>
        <path id="Trazado_825687" data-name="Trazado 825687" d="M84.244,103.16a2.179,2.179,0,0,1-1.257.873c-.191-.212-.386-.457-.254-.738s.45-.113.683-.135a7.955,7.955,0,0,1,.828,0" transform="translate(-36.037 -44.944)" fill="#cbe8f3"/>
        <path id="Trazado_825688" data-name="Trazado 825688" d="M133.968,174.846a1.979,1.979,0,0,1-1.092.139c-.289-.141-.667-.085-.879-.4a1.671,1.671,0,0,1,1.971.258" transform="translate(-57.525 -76.001)" fill="#7816c2"/>
        <path id="Trazado_825689" data-name="Trazado 825689" d="M131.059,184.764c.109-.153.164-.354.371-.421q.023.206.047.411l-.417.011" transform="translate(-57.117 -80.338)" fill="#fac6b3"/>
        <path id="Trazado_825690" data-name="Trazado 825690" d="M114.853,172.034c.043-.057.087-.059.131,0h-.131" transform="translate(-50.054 -74.955)" fill="#cbe8f3"/>
        <path id="Trazado_825691" data-name="Trazado 825691" d="M86.488,43.489a.586.586,0,0,1-.558-.068.62.62,0,0,1,.558.068" transform="translate(-37.449 -18.909)" fill="#fac6b3"/>
        <path id="Trazado_825692" data-name="Trazado 825692" d="M98.311,43.416a.335.335,0,0,1-.411.01l.411-.01" transform="translate(-42.666 -18.921)" fill="#fac6b3"/>
        <path id="Trazado_825693" data-name="Trazado 825693" d="M96.186,43.452a.2.2,0,0,1-.3,0l.3,0" transform="translate(-41.789 -18.937)" fill="#fac6b3"/>
        <path id="Trazado_825694" data-name="Trazado 825694" d="M87.721,43.509l-.266.011a.149.149,0,0,1,.266-.011" transform="translate(-38.114 -18.928)" fill="#fac6b3"/>
        <path id="Trazado_825695" data-name="Trazado 825695" d="M95.19,43.462a.208.208,0,0,1-.3,0h.3" transform="translate(-41.353 -18.941)" fill="#fac6b3"/>
        <path id="Trazado_825696" data-name="Trazado 825696" d="M88.826,43.522l-.062.027L88.7,43.53c.039-.063.081-.069.127-.008" transform="translate(-38.656 -18.949)" fill="#fac6b3"/>
        <path id="Trazado_825697" data-name="Trazado 825697" d="M92.094,43.471l-.147.005.147-.005" transform="translate(-40.071 -18.945)" fill="#fac6b3"/>
        <path id="Trazado_825698" data-name="Trazado 825698" d="M99.28,43.4l-.109,0a.113.113,0,0,1,.109,0" transform="translate(-43.22 -18.907)" fill="#fac6b3"/>
        <path id="Trazado_825699" data-name="Trazado 825699" d="M91.062,43.493,91,43.524l-.064-.027.125,0" transform="translate(-39.631 -18.955)" fill="#fac6b3"/>
        <path id="Trazado_825700" data-name="Trazado 825700" d="M90.067,43.493,90,43.52l-.067-.021c.041-.059.084-.063.13-.006" transform="translate(-39.195 -18.937)" fill="#fac6b3"/>
        <path id="Trazado_825701" data-name="Trazado 825701" d="M97.048,43.448a.093.093,0,0,1-.158,0h.158" transform="translate(-42.225 -18.935)" fill="#fac6b3"/>
        <path id="Trazado_825702" data-name="Trazado 825702" d="M94.063,43.464a.107.107,0,0,1-.174-.005l.174.005" transform="translate(-40.918 -18.94)" fill="#fac6b3"/>
        <path id="Trazado_825703" data-name="Trazado 825703" d="M93.063,43.461a.105.105,0,0,1-.173,0h.173" transform="translate(-40.482 -18.94)" fill="#fac6b3"/>
        <path id="Trazado_825704" data-name="Trazado 825704" d="M102.225,51.03l.072-.172-.072.172" transform="translate(-44.55 -22.164)" fill="#fac6b3"/>
        <path id="Trazado_825705" data-name="Trazado 825705" d="M65.212,75.562a1.545,1.545,0,0,1,1.629,1.381,1.782,1.782,0,0,1-1.668,1.815A1.6,1.6,0,0,1,63.559,77.1c0-1,.573-1.537,1.653-1.538" transform="translate(-27.7 -32.931)" fill="#f1d8ff"/>
      </g>
    </g>
  </g>
</svg>
