<svg xmlns="http://www.w3.org/2000/svg" xmlns:xlink="http://www.w3.org/1999/xlink" width="169" height="169" viewBox="0 0 169 169">
  <defs>
    <clipPath id="clip-path">
      <rect id="Rect치ngulo_378577" data-name="Rect치ngulo 378577" width="111.274" height="111.286" fill="none"/>
    </clipPath>
  </defs>
  <g id="Grupo_1075685" data-name="Grupo 1075685" transform="translate(-1336 8359.007)">
    <g id="Grupo_1075145" data-name="Grupo 1075145" transform="translate(617 -11236.531)">
      <g id="Grupo_1073327" data-name="Grupo 1073327" transform="translate(334 819.524)">
        <g id="Grupo_159182" data-name="Grupo 159182" transform="translate(385.001 2058)">
          <path id="Uni칩n_12" data-name="Uni칩n 12" d="M84.5,0A84.5,84.5,0,1,1,0,84.5,84.5,84.5,0,0,1,84.5,0Z" transform="translate(0 0)" fill="#ffae7e"/>
        </g>
      </g>
    </g>
    <g id="Grupo_1075149" data-name="Grupo 1075149" transform="translate(1364.863 -8335.727)">
      <g id="Grupo_1075148" data-name="Grupo 1075148" clip-path="url(#clip-path)">
        <path id="Trazado_825706" data-name="Trazado 825706" d="M41.512,104.88c.344,1.536.147,1.737-1.094,2.55a12,12,0,0,1-1.762,1.022,37.829,37.829,0,0,1-5.173,1.857,22.338,22.338,0,0,1-3.29.717,29.916,29.916,0,0,1-5.855.167,26.483,26.483,0,0,1-6.121-1.34A26.568,26.568,0,0,1,9.1,104.707,29.715,29.715,0,0,1,3.84,98.3,26.353,26.353,0,0,1,.846,91.159,22.24,22.24,0,0,1,.109,87.1a29.4,29.4,0,0,1-.068-4.105,25.449,25.449,0,0,1,1.094-6.029A23.632,23.632,0,0,1,3.507,71.54a26.7,26.7,0,0,1,2.8-4.011,33.886,33.886,0,0,1,2.673-2.764,23.31,23.31,0,0,1,2.342-1.854,1.323,1.323,0,0,0,.694-1.2q-.046-23.685-.04-47.371a13.579,13.579,0,0,1,2.84-8.408,14.686,14.686,0,0,1,5.155-4.4A14.962,14.962,0,0,1,25.14.076a16.247,16.247,0,0,1,5.328.477A13.145,13.145,0,0,1,34.921,2.57a13.951,13.951,0,0,1,5.3,6.685,14.4,14.4,0,0,1,.992,4.762c.233,9.264.048,18.53.094,27.8q.049,9.834-.017,19.669a1.727,1.727,0,0,0,.864,1.654,23.17,23.17,0,0,1,5.992,5.951A25,25,0,0,1,51.1,74.323a25.783,25.783,0,0,1,1.627,5.558,33.142,33.142,0,0,1,.522,4.831,25.741,25.741,0,0,1-.395,3.875A26.97,26.97,0,0,1,51.517,94a24.272,24.272,0,0,1-3.987,7.093,14.158,14.158,0,0,1-1.107,1.314,1.673,1.673,0,0,1-2.37.367,1.714,1.714,0,0,1,.05-2.61,23.081,23.081,0,0,0,3.023-4.3A23.469,23.469,0,0,0,50,85.042a29.024,29.024,0,0,0-.189-3.052,20.517,20.517,0,0,0-.749-3.9,22.771,22.771,0,0,0-1.828-4.524,23.351,23.351,0,0,0-3.462-4.9,20.221,20.221,0,0,0-4.538-3.712,2.3,2.3,0,0,1-1.181-2.172q.022-23.174.01-46.348c0-.917-.017-1.831-.094-2.751A11.309,11.309,0,0,0,27.383,3.262a10.714,10.714,0,0,0-5.7,1.083A11.256,11.256,0,0,0,17.094,8.4a10.224,10.224,0,0,0-1.843,5.523c-.034,10.342-.019,20.684-.02,31.025q0,8.966,0,17.931a2.156,2.156,0,0,1-1.105,2.057,17.7,17.7,0,0,0-1.907,1.316A22.823,22.823,0,0,0,7.532,71.14a23.344,23.344,0,0,0-3.251,6.634,20.969,20.969,0,0,0-.974,5.311,27.847,27.847,0,0,0,.161,4.788,22.845,22.845,0,0,0,1.595,5.832,23.612,23.612,0,0,0,8.624,10.405,22.7,22.7,0,0,0,6.818,3.1,21.133,21.133,0,0,0,5.417.8c.719,0,1.439-.057,2.154-.077a22.427,22.427,0,0,0,6.557-1.326,23.823,23.823,0,0,0,4.627-2.28,1.553,1.553,0,0,1,1.324-.128,2.427,2.427,0,0,1,.927.684" transform="translate(0 -0.009)"/>
        <path id="Trazado_825707" data-name="Trazado 825707" d="M141.438,67.551c-.794-1.161-.5-1.831.383-2.623a18.612,18.612,0,0,1,2.952-2.234.378.378,0,0,0,.238-.368c0-.109,0-.218,0-.326q0-24.208.019-48.415a11.536,11.536,0,0,1,1.011-4.379,15.335,15.335,0,0,1,4.735-6.218,13.581,13.581,0,0,1,6.53-2.805,14.42,14.42,0,0,1,10.93,2.569,14.673,14.673,0,0,1,4.6,5.585,12.421,12.421,0,0,1,1.089,3.059,18.7,18.7,0,0,1,.406,3.555q-.016,23.04-.025,46.079a2.257,2.257,0,0,0,1.081,2.23,18.864,18.864,0,0,1,3.943,3.492,26.923,26.923,0,0,1,4.04,5.911,26.165,26.165,0,0,1,2.082,5.775,37.041,37.041,0,0,1,.753,4.675,23.058,23.058,0,0,1-.523,6.792,27.742,27.742,0,0,1-1.272,4.5,23.665,23.665,0,0,1-3.5,6.227,28.392,28.392,0,0,1-2.572,2.962,32.68,32.68,0,0,1-7.656,5.258,28.424,28.424,0,0,1-12.925,2.384,24.621,24.621,0,0,1-6.732-1.477,28.319,28.319,0,0,1-7.367-3.832,23.678,23.678,0,0,1-3.693-3.372,29.632,29.632,0,0,1-3.3-4.6,23.065,23.065,0,0,1-2.58-5.926c-.343-1.331-.588-2.683-.816-4.041a30.256,30.256,0,0,1-.2-4.946,19,19,0,0,1,.35-2.834c.214-1.448.69-2.833,1.024-4.252a8.667,8.667,0,0,1,.686-1.632,22.057,22.057,0,0,1,1.91-3.567c.705-.981.978-1.142,2.416-.557a1.7,1.7,0,0,1,.225,2.336,26.237,26.237,0,0,0-2.365,5.2,21.176,21.176,0,0,0-.976,5.355,23.024,23.024,0,0,0,.071,3.836,24.583,24.583,0,0,0,1.178,5.359,23.559,23.559,0,0,0,13.129,13.946,23.508,23.508,0,0,0,20.866-1.484,23.29,23.29,0,0,0,7.43-6.988,23.74,23.74,0,0,0,4.023-12.337c.037-.717-.062-1.435-.082-2.149a24.176,24.176,0,0,0-1.033-5.791c-.1-.352-.349-.639-.437-.955a8.42,8.42,0,0,0-.269-.992,23.444,23.444,0,0,0-9.148-10.728,1.971,1.971,0,0,1-.986-1.769q.016-23.527,0-47.053c0-.771-.014-1.541-.08-2.317a10.817,10.817,0,0,0-2.272-5.955,11.141,11.141,0,0,0-10.251-4.383,10.771,10.771,0,0,0-5.97,2.428,11.354,11.354,0,0,0-3.936,6.19,14.078,14.078,0,0,0-.3,3.565q0,23.5.017,47a2.831,2.831,0,0,1-1.524,2.656,31.043,31.043,0,0,0-3.027,2.29c-.846.669-1.436.826-2.307.089" transform="translate(-75.014 0)"/>
        <path id="Trazado_825708" data-name="Trazado 825708" d="M45.742,109.02a2.419,2.419,0,0,0-.927-.684,1.552,1.552,0,0,0-1.324.128,23.784,23.784,0,0,1-4.627,2.28,22.418,22.418,0,0,1-6.557,1.326c-.715.02-1.436.075-2.155.077a21.157,21.157,0,0,1-5.417-.8,22.684,22.684,0,0,1-6.818-3.1A23.606,23.606,0,0,1,9.293,97.845,22.806,22.806,0,0,1,7.7,92.013a27.847,27.847,0,0,1-.161-4.788,20.965,20.965,0,0,1,.974-5.311,23.338,23.338,0,0,1,3.251-6.634,22.813,22.813,0,0,1,4.689-4.892,17.738,17.738,0,0,1,1.906-1.316,2.155,2.155,0,0,0,1.105-2.057q-.007-8.965,0-17.931c0-10.342-.015-20.684.02-31.025a10.22,10.22,0,0,1,1.843-5.523,11.26,11.26,0,0,1,4.592-4.052,10.718,10.718,0,0,1,5.7-1.083A11.309,11.309,0,0,1,42.2,17.828c.078.921.093,1.834.093,2.751q.009,23.174-.009,46.348A2.3,2.3,0,0,0,43.462,69.1,20.238,20.238,0,0,1,48,72.811a23.322,23.322,0,0,1,3.462,4.9,22.734,22.734,0,0,1,1.828,4.524,20.445,20.445,0,0,1,.749,3.9,29.039,29.039,0,0,1,.189,3.052A23.474,23.474,0,0,1,51.355,100a23.085,23.085,0,0,1-3.022,4.3,1.714,1.714,0,0,0-.051,2.611A17.011,17.011,0,0,0,46.7,108.08a6.328,6.328,0,0,0-.96.939M37.285,49.569c1.166-.171,1.733-.676,1.726-1.931-.055-9.809.141-19.619-.085-29.428a6.575,6.575,0,0,0-.595-2.594,8.023,8.023,0,0,0-7.649-4.961,7.185,7.185,0,0,0-2.791.563,8.255,8.255,0,0,0-5.154,7.4c.018,7.245,0,14.49,0,21.735q0,14.725.007,29.451a.848.848,0,0,1-.547.9,19.7,19.7,0,0,0-7.666,6.472,15.8,15.8,0,0,0-2.1,3.569,18.981,18.981,0,0,0-1.29,4.272,21.969,21.969,0,0,0-.37,3.053,27.9,27.9,0,0,0,.089,2.8,25.746,25.746,0,0,0,.591,3.191,16.622,16.622,0,0,0,1.386,3.556,20.354,20.354,0,0,0,5.384,6.748,20.933,20.933,0,0,0,4.994,2.953,19.466,19.466,0,0,0,6.19,1.547,19.863,19.863,0,0,0,5.278-.358,20.094,20.094,0,0,0,6.206-2.34,19.224,19.224,0,0,0,4.841-3.919A19.914,19.914,0,0,0,49.99,94.9a19.066,19.066,0,0,0,.951-5.952,22.45,22.45,0,0,0-.265-3.186A19.9,19.9,0,0,0,44.8,74.377a18.716,18.716,0,0,0-5.148-3.6.9.9,0,0,1-.645-.951q.024-7.309,0-14.617a4.956,4.956,0,0,0-.14-1.268,1.657,1.657,0,0,0-1.584-1.153,11.564,11.564,0,0,0-.006-3.221" transform="translate(-4.23 -4.149)" fill="#b8effe"/>
        <path id="Trazado_825709" data-name="Trazado 825709" d="M145.612,71.794c.871.737,1.461.58,2.307-.089a31,31,0,0,1,3.027-2.29,2.831,2.831,0,0,0,1.525-2.655q-.049-23.5-.017-47a14.082,14.082,0,0,1,.3-3.566,11.36,11.36,0,0,1,3.936-6.19,10.774,10.774,0,0,1,5.97-2.427,11.141,11.141,0,0,1,10.251,4.383,10.812,10.812,0,0,1,2.272,5.955c.067.776.08,1.545.08,2.317q.01,23.526,0,47.053a1.969,1.969,0,0,0,.986,1.769,23.442,23.442,0,0,1,9.148,10.728,8.312,8.312,0,0,1,.27.992c.089.315.339.6.437.955a24.2,24.2,0,0,1,1.033,5.791c.021.714.12,1.433.082,2.149a23.733,23.733,0,0,1-4.023,12.336,23.285,23.285,0,0,1-7.43,6.988,23.081,23.081,0,0,1-20.866,1.484,23.56,23.56,0,0,1-13.129-13.946,24.557,24.557,0,0,1-1.178-5.359,22.973,22.973,0,0,1-.071-3.836,21.182,21.182,0,0,1,.976-5.356,26.192,26.192,0,0,1,2.364-5.2,1.7,1.7,0,0,0-.225-2.336,18.862,18.862,0,0,1,1.785-2.392c.063-.087.131-.171.2-.256M170.377,23.47c.183-.066.372-.005.574-.083.831-.322,1.012-.816,1.04-1.745a28.453,28.453,0,0,0-.067-3.293,8.6,8.6,0,0,0-.645-2.727,8.051,8.051,0,0,0-8.4-4.784A7.717,7.717,0,0,0,158.4,12.87a8.13,8.13,0,0,0-2.695,6.217q.009,25.294,0,50.589a2.356,2.356,0,0,1,0,.434c-.059.308-.116.6-.525.681a3.445,3.445,0,0,0-.934.406,21.9,21.9,0,0,0-4.578,3.466,18.392,18.392,0,0,0-3.082,4.006,19.723,19.723,0,0,0-2.8,9.525A21.065,21.065,0,0,0,144,92.133a19.73,19.73,0,0,0,1.648,5.18,20.037,20.037,0,0,0,6.515,7.875,12.517,12.517,0,0,0,2.8,1.592c.8.313,1.554.831,2.391,1.119a20.43,20.43,0,0,0,2.119.632c.706.161,1.43.244,2.145.362s1.41,0,2.117.074a8.5,8.5,0,0,0,2.1-.077,25.6,25.6,0,0,0,3.68-.729,19.927,19.927,0,0,0,9.232-5.839,19.391,19.391,0,0,0,4.046-6.824,21.947,21.947,0,0,0,1.155-6.944c.007-.634-.13-1.277-.182-1.912a18.094,18.094,0,0,0-1.127-4.79,19.7,19.7,0,0,0-4.621-7.17,18.265,18.265,0,0,0-5.473-3.87.829.829,0,0,1-.547-.893q.022-20.376.03-40.753c0-1.178-.281-2.058-1.542-2.357a10.27,10.27,0,0,1-.116-1.755,6.925,6.925,0,0,0,.013-1.584" transform="translate(-79.188 -4.242)" fill="#b8effe"/>
        <path id="Trazado_825710" data-name="Trazado 825710" d="M102.133,107.925a6.509,6.509,0,0,1,10.967-4.857,1.47,1.47,0,0,1,.458,1.794,1.724,1.724,0,0,1-1.55,1.119,1.466,1.466,0,0,1-1.04-.5,3.629,3.629,0,0,0-2.607-.911,3.245,3.245,0,0,0-.651,6.346,3.273,3.273,0,0,0,3.022-.63,1.662,1.662,0,0,1,2.04-.4,1.518,1.518,0,0,1,.489,2.414,6.32,6.32,0,0,1-3.828,1.974,5.951,5.951,0,0,1-4.133-.821,6.457,6.457,0,0,1-2.617-2.922,5.153,5.153,0,0,1-.55-2.608" transform="translate(-57.566 -57.108)"/>
        <path id="Trazado_825711" data-name="Trazado 825711" d="M129.871,50c0,1.085-.017,2.17-.011,3.255a1.638,1.638,0,0,1-3.274-.123q-.014-4.995.007-9.99a1.518,1.518,0,0,1,1.556-1.359c1.664-.031,3.33-.044,4.993,0a1.607,1.607,0,0,1,1.594,2.108c-.188.649-.858,1.078-1.9,1.113-.849.029-1.7.027-2.551.01-.334-.007-.468.055-.463.437.016,1.21,0,1.206,1.235,1.212a2.553,2.553,0,0,1,1.876.423,1.518,1.518,0,0,1,.474,1.752,1.541,1.541,0,0,1-1.238.987c-.749.169-1.515,0-2.265.125l-.046.006Z" transform="translate(-71.358 -23.539)"/>
        <path id="Trazado_825712" data-name="Trazado 825712" d="M149.76,35.914c0,1.114-.673,1.571-1.752,1.646A1.717,1.717,0,0,1,146.5,36.02a1.63,1.63,0,0,1,1.654-1.7,1.554,1.554,0,0,1,1.605,1.6" transform="translate(-82.588 -19.346)"/>
        <path id="Trazado_825713" data-name="Trazado 825713" d="M128.206,94.855a1.543,1.543,0,0,1,1.622,1.53,1.58,1.58,0,0,1-1.519,1.6,1.63,1.63,0,0,1-1.735-1.629,1.548,1.548,0,0,1,1.632-1.5" transform="translate(-71.355 -53.473)"/>
        <path id="Trazado_825714" data-name="Trazado 825714" d="M134.112,60.591l-.008-.044.046-.005,0,.043Z" transform="translate(-75.6 -34.13)" fill="#ff8d9e"/>
        <path id="Trazado_825715" data-name="Trazado 825715" d="M41.518,57.045A1.656,1.656,0,0,1,43.1,58.2a4.976,4.976,0,0,1,.14,1.268q.014,7.308,0,14.617a.9.9,0,0,0,.644.951,18.716,18.716,0,0,1,5.148,3.6A19.9,19.9,0,0,1,54.9,90.02a22.451,22.451,0,0,1,.265,3.186,19.066,19.066,0,0,1-.952,5.952,19.908,19.908,0,0,1-4.258,7.351,19.217,19.217,0,0,1-4.841,3.919,20.094,20.094,0,0,1-6.206,2.34,19.861,19.861,0,0,1-5.278.358,19.472,19.472,0,0,1-6.19-1.547,20.941,20.941,0,0,1-4.994-2.953,20.354,20.354,0,0,1-5.384-6.748,16.6,16.6,0,0,1-1.385-3.556,25.666,25.666,0,0,1-.592-3.191,27.9,27.9,0,0,1-.089-2.8,21.969,21.969,0,0,1,.37-3.053A18.981,18.981,0,0,1,16.661,85a15.821,15.821,0,0,1,2.1-3.569,19.7,19.7,0,0,1,7.666-6.472.849.849,0,0,0,.547-.9q-.02-14.726-.007-29.451c0-7.245.019-14.49,0-21.735a8.256,8.256,0,0,1,5.155-7.4,7.181,7.181,0,0,1,2.79-.563,8.023,8.023,0,0,1,7.649,4.961,6.583,6.583,0,0,1,.6,2.594c.226,9.809.03,19.619.085,29.428.007,1.256-.56,1.76-1.726,1.931A1.864,1.864,0,0,1,40,51.7q0-7.281,0-14.561c0-4.672.021-9.345-.026-14.017A5.038,5.038,0,0,0,38.734,19.8a4.934,4.934,0,0,0-7.6.358A6.088,6.088,0,0,0,30.2,24.22c.013.3.2.243.37.243.724,0,1.449-.009,2.173,0a1.63,1.63,0,0,1,1.706,2.077A1.6,1.6,0,0,1,32.806,27.7c-.742.023-1.485.03-2.226-.007-.338-.017-.386.1-.381.387.014.851.018,1.7,0,2.553-.007.3.1.364.373.357q1.086-.025,2.173,0a1.63,1.63,0,0,1,1.7,2.079A1.607,1.607,0,0,1,32.8,34.222c-.742.022-1.485.021-2.226,0-.273-.009-.387.024-.38.331q.028,1.3,0,2.608c-.007.3.1.361.375.356.742-.016,1.485-.022,2.227,0a1.715,1.715,0,0,1,1.749,1.614,1.649,1.649,0,0,1-1.693,1.616c-.451.026-.9,0-1.358,0-.413,0-.952-.146-1.2.058-.271.219-.132.793-.067,1.189.05.308-.33.465-.177.722a1.509,1.509,0,0,1,.148.937c-.025.324.109.389.4.382.724-.018,1.449-.021,2.173,0a1.622,1.622,0,1,1,0,3.234c-.724.019-1.451.037-2.172-.009-.376-.024-.421.113-.4.419.02.361-.012.725.01,1.086.012.2-.355.252-.155.5a1.148,1.148,0,0,1,.143.88c-.037.357.112.42.43.411.724-.022,1.449-.024,2.173,0a1.659,1.659,0,0,1,1.734,1.614,1.577,1.577,0,0,1-1.679,1.615c-.45.035-.9,0-1.357.005-.413,0-.952-.146-1.2.058-.271.219-.132.793-.067,1.189.05.309-.33.466-.177.723a1.509,1.509,0,0,1,.148.937c-.025.324.11.387.4.382.905-.016,1.81,0,2.716-.006q4.1-.01,8.2-.024M39.987,68.4h0q0-3.587,0-7.173c0-.844-.052-.906-.916-.909-2.843-.01-5.686-.007-8.529-.026-.272,0-.342.066-.338.324.012.869.017,1.739,0,2.608-.006.289.083.37.367.363.742-.018,1.485-.022,2.228,0a1.655,1.655,0,0,1,1.645,2.136,1.7,1.7,0,0,1-1.636,1.106,19.8,19.8,0,0,1-2.117-.016c-.445-.034-.49.13-.488.505.014,2.645.008,5.289.007,7.934a1.971,1.971,0,0,1-1.487,2.214,16.2,16.2,0,0,0-4.589,2.8,17.046,17.046,0,0,0-5.411,8.725,16.559,16.559,0,0,0-.335,6.394,16.153,16.153,0,0,0,1.9,5.713,16.78,16.78,0,0,0,9.6,8,15.739,15.739,0,0,0,6.976.69,16.786,16.786,0,0,0,7.263-2.508,16.446,16.446,0,0,0,7.328-10.262,14.764,14.764,0,0,0,.4-5.262,18.968,18.968,0,0,0-.969-4.523,16.482,16.482,0,0,0-3.367-5.5,18.112,18.112,0,0,0-4.436-3.519c-.658-.371-1.372-.645-2.057-.969a1.657,1.657,0,0,1-1.04-1.615c.007-2.409,0-4.818,0-7.227" transform="translate(-8.456 -8.404)"/>
        <path id="Trazado_825716" data-name="Trazado 825716" d="M60.893,61.277l-8.2.024c-.905,0-1.811-.01-2.716.006-.293.005-.427-.058-.4-.382a1.5,1.5,0,0,0-.148-.937c-.153-.257.228-.414.178-.723-.065-.4-.2-.969.067-1.189.252-.2.791-.055,1.2-.058.453,0,.907.029,1.358-.005A1.577,1.577,0,0,0,53.911,56.4a1.659,1.659,0,0,0-1.734-1.614c-.724-.021-1.449-.019-2.173,0-.318.01-.467-.054-.431-.41a1.147,1.147,0,0,0-.143-.88c-.2-.252.167-.307.155-.5-.021-.361.01-.725-.01-1.086-.017-.306.027-.442.4-.418.721.046,1.448.028,2.171.009a1.622,1.622,0,1,0,0-3.234c-.724-.02-1.449-.017-2.173,0-.293.007-.427-.058-.4-.382a1.5,1.5,0,0,0-.148-.937c-.153-.257.228-.414.178-.723-.065-.4-.2-.969.067-1.189.252-.2.791-.056,1.2-.058.453,0,.907.022,1.358,0a1.648,1.648,0,0,0,1.693-1.615,1.714,1.714,0,0,0-1.749-1.614c-.742-.022-1.485-.015-2.227,0-.273.006-.382-.056-.375-.356q.029-1.3,0-2.608c-.007-.307.107-.34.38-.331.742.025,1.485.027,2.226,0A1.607,1.607,0,0,0,53.824,37.3a1.63,1.63,0,0,0-1.7-2.079c-.724-.014-1.449-.014-2.173,0-.275.006-.38-.061-.373-.358.02-.851.016-1.7,0-2.553,0-.288.043-.4.381-.387.74.038,1.485.03,2.226.007a1.6,1.6,0,0,0,1.642-1.157A1.629,1.629,0,0,0,52.118,28.7c-.724-.014-1.448,0-2.173,0-.17,0-.356.058-.37-.243a6.09,6.09,0,0,1,.938-4.064,4.935,4.935,0,0,1,7.6-.359,5.04,5.04,0,0,1,1.241,3.322c.048,4.672.026,9.345.026,14.018q0,7.28,0,14.561a1.865,1.865,0,0,0,1.513,2.127,11.581,11.581,0,0,1,.006,3.221" transform="translate(-27.832 -12.636)" fill="#87c4fc"/>
        <path id="Trazado_825717" data-name="Trazado 825717" d="M174.743,31.01c1.26.3,1.543,1.178,1.541,2.356q-.033,20.376-.03,40.754a.829.829,0,0,0,.547.892,18.248,18.248,0,0,1,5.473,3.87,19.694,19.694,0,0,1,4.621,7.17,18.091,18.091,0,0,1,1.127,4.79c.051.636.188,1.278.182,1.912a21.947,21.947,0,0,1-1.156,6.944A19.4,19.4,0,0,1,183,106.522a19.926,19.926,0,0,1-9.232,5.839,25.615,25.615,0,0,1-3.68.729,8.5,8.5,0,0,1-2.1.077c-.706-.075-1.407.044-2.118-.074s-1.438-.2-2.144-.362a20.5,20.5,0,0,1-2.119-.632c-.837-.289-1.587-.806-2.391-1.119a12.523,12.523,0,0,1-2.8-1.592,20.043,20.043,0,0,1-6.514-7.875,19.728,19.728,0,0,1-1.648-5.18,20.989,20.989,0,0,1-.218-3.938,19.719,19.719,0,0,1,2.8-9.524,18.37,18.37,0,0,1,3.081-4.006A21.906,21.906,0,0,1,158.5,75.4a3.472,3.472,0,0,1,.934-.406c.41-.086.466-.373.525-.681a2.393,2.393,0,0,0,.005-.434q0-25.295,0-50.589a8.129,8.129,0,0,1,2.7-6.217,7.711,7.711,0,0,1,4.48-2.033,8.05,8.05,0,0,1,8.4,4.784,8.585,8.585,0,0,1,.644,2.727,28.456,28.456,0,0,1,.068,3.293c-.028.93-.209,1.424-1.04,1.745-.2.079-.39.017-.574.083A1.594,1.594,0,0,1,173,25.942c-.041-1.151.047-2.3-.084-3.455a4.746,4.746,0,0,0-5.145-4.268,4.639,4.639,0,0,0-3.548,1.881,5.618,5.618,0,0,0-1.025,3.756c.009.539.149.668.664.662a11.523,11.523,0,0,1,2.529.085,1.612,1.612,0,0,1-.619,3.14c-.669.014-1.339.019-2.008,0-.4-.012-.58.069-.553.535.045.758.023,1.52-.007,2.28-.014.359.1.475.458.473q5.538-.02,11.077-.019m-1.75,45.121a10.511,10.511,0,0,1,.014-1.519V35c0-.108-.009-.218,0-.325.029-.3-.1-.417-.4-.417q-4.482.017-8.963.01c-.34,0-.428.125-.42.449.017.778.014,1.558-.013,2.336-.014.388.134.507.507.5.669-.022,1.34-.01,2.01-.006,1.2.008,1.73.564,1.749,1.828a1.584,1.584,0,0,1-1.725,1.424c-.706.011-1.413.007-2.119,0-.294,0-.416.084-.409.4.017.8.01,1.594-.012,2.39-.009.345.1.5.462.484.67-.02,1.34-.008,2.01,0,1.094,0,1.777.586,1.783,1.516a1.583,1.583,0,0,1-1.788,1.739c-.67.007-1.34.008-2.01-.007-.309-.007-.456.066-.446.422.022.8.012,1.594-.011,2.39-.01.363.136.475.481.465.67-.017,1.34-.007,2.01,0,1.082.006,1.76.6,1.765,1.534a1.575,1.575,0,0,1-1.752,1.719c-.688.009-1.376.011-2.064-.007-.333-.009-.435.109-.428.442.019.8.007,1.594-.011,2.39-.007.327.114.455.444.448.688-.016,1.376-.008,2.064,0a1.555,1.555,0,0,1,1.746,1.5,1.574,1.574,0,0,1-1.716,1.753c-.706.012-1.413.008-2.118,0-.294,0-.416.085-.409.4.017.8.01,1.594-.012,2.39-.009.346.1.494.463.484.688-.019,1.376-.01,2.064,0a1.551,1.551,0,0,1,1.728,1.461,1.577,1.577,0,0,1-1.68,1.788c-.652.015-1.305.03-1.955-.006-.46-.026-.62.09-.614.589.027,2.536-.024,5.072.025,7.607.035,1.838-.625,2.06-1.7,2.527a16.369,16.369,0,0,0-5.922,4.216,16.639,16.639,0,0,0-3.946,7.727,14.52,14.52,0,0,0-.415,3.424,19.346,19.346,0,0,0,.454,3.944,16.84,16.84,0,0,0,13.8,12.827,13.93,13.93,0,0,0,4.461.048,5.441,5.441,0,0,1,.958-.085,16.373,16.373,0,0,0,4.828-1.616,17.879,17.879,0,0,0,3.528-2.41,18.111,18.111,0,0,0,3.07-3.6A15.207,15.207,0,0,0,184.492,97a15.516,15.516,0,0,0,.389-4.791,18.742,18.742,0,0,0-1.29-5.652,16.87,16.87,0,0,0-2.733-4.456,15.69,15.69,0,0,0-6.1-4.486,2.956,2.956,0,0,1-1.767-1.486" transform="translate(-83.45 -8.443)"/>
        <path id="Trazado_825718" data-name="Trazado 825718" d="M194.348,35.193q-5.538.007-11.077.02c-.356,0-.472-.115-.458-.474.03-.759.052-1.523.007-2.28-.027-.465.157-.547.553-.535.669.02,1.339.015,2.008,0a1.612,1.612,0,0,0,.619-3.14,11.523,11.523,0,0,0-2.529-.085c-.515,0-.655-.123-.664-.662a5.617,5.617,0,0,1,1.025-3.756A4.638,4.638,0,0,1,187.38,22.4a4.746,4.746,0,0,1,5.145,4.268c.131,1.157.043,2.3.084,3.455a1.594,1.594,0,0,0,1.635,1.729,6.949,6.949,0,0,1-.012,1.585,10.1,10.1,0,0,0,.116,1.755" transform="translate(-103.055 -12.625)" fill="#87c4fc"/>
        <path id="Trazado_825719" data-name="Trazado 825719" d="M44.157,127.051c0,2.409,0,4.818,0,7.227a1.657,1.657,0,0,0,1.04,1.615c.685.325,1.4.6,2.057.969a18.112,18.112,0,0,1,4.436,3.519,16.482,16.482,0,0,1,3.367,5.5,18.968,18.968,0,0,1,.969,4.523,14.764,14.764,0,0,1-.4,5.262A16.446,16.446,0,0,1,48.3,165.925a16.786,16.786,0,0,1-7.263,2.508,15.739,15.739,0,0,1-6.976-.69,16.78,16.78,0,0,1-9.6-8,16.153,16.153,0,0,1-1.9-5.713,16.559,16.559,0,0,1,.335-6.394,17.046,17.046,0,0,1,5.411-8.725,16.2,16.2,0,0,1,4.589-2.8,1.971,1.971,0,0,0,1.487-2.214c0-2.645.007-5.289-.007-7.934,0-.376.043-.54.488-.505a19.8,19.8,0,0,0,2.117.016,1.7,1.7,0,0,0,1.636-1.106,1.655,1.655,0,0,0-1.645-2.136c-.742-.02-1.485-.016-2.228,0-.284.007-.373-.074-.367-.363.018-.869.014-1.739,0-2.608,0-.258.066-.326.338-.324,2.843.018,5.686.015,8.529.026.864,0,.916.065.916.909q0,3.587,0,7.173Z" transform="translate(-12.626 -67.053)" fill="#87c4fc"/>
        <path id="Trazado_825720" data-name="Trazado 825720" d="M177.17,59.915c0-.109-.009-.218,0-.326.029-.3-.1-.417-.4-.416q-4.481.016-8.963.01c-.34,0-.428.125-.42.449q.026,1.167-.013,2.336c-.014.389.134.508.507.5.669-.021,1.34-.01,2.01-.006,1.2.008,1.73.565,1.749,1.828a1.584,1.584,0,0,1-1.725,1.424c-.706.011-1.413.008-2.119,0-.293-.005-.416.084-.409.4.017.8.01,1.594-.011,2.39-.009.345.1.495.462.484.67-.02,1.34-.008,2.01-.005,1.094,0,1.777.586,1.783,1.516a1.583,1.583,0,0,1-1.788,1.738c-.67.007-1.34.008-2.01-.007-.309-.007-.456.066-.446.422.022.8.012,1.594-.011,2.39-.01.363.136.475.481.465.67-.017,1.34-.008,2.01,0,1.082,0,1.76.6,1.765,1.534a1.575,1.575,0,0,1-1.752,1.719c-.688.009-1.376.011-2.064-.007-.332-.009-.435.11-.428.442.019.8.007,1.594-.011,2.39-.007.327.114.455.444.447.688-.016,1.376-.008,2.064,0a1.555,1.555,0,0,1,1.746,1.5,1.574,1.574,0,0,1-1.716,1.754c-.706.012-1.413.008-2.118,0-.294-.005-.416.085-.409.4.017.8.01,1.594-.011,2.39-.01.346.1.494.462.484.688-.019,1.376-.01,2.064,0A1.551,1.551,0,0,1,171.627,90a1.577,1.577,0,0,1-1.68,1.788c-.652.015-1.305.03-1.955-.006-.46-.026-.619.09-.614.589.028,2.536-.024,5.072.025,7.607.035,1.838-.625,2.06-1.7,2.527a16.368,16.368,0,0,0-5.922,4.215,16.641,16.641,0,0,0-3.946,7.727,14.5,14.5,0,0,0-.415,3.424,19.315,19.315,0,0,0,.453,3.944,16.84,16.84,0,0,0,13.8,12.827,13.93,13.93,0,0,0,4.461.048,6.12,6.12,0,0,0-1.351-.952,17.983,17.983,0,0,1-3.745-2.989,19.069,19.069,0,0,1-3.183-4.515,19.326,19.326,0,0,1-1.946-6.966,4.812,4.812,0,0,0-.205-.831,13.433,13.433,0,0,0,.417-4.349,18.323,18.323,0,0,1,4.857-8.809,16.394,16.394,0,0,1,7.7-4.2,3.17,3.17,0,0,1,.484-.035,10.518,10.518,0,0,1,.014-1.519V59.915" transform="translate(-87.613 -33.358)" fill="#e95a6f"/>
        <path id="Trazado_825721" data-name="Trazado 825721" d="M184.793,188.8a6.106,6.106,0,0,0-1.351-.952,18,18,0,0,1-3.745-2.989,19.071,19.071,0,0,1-3.183-4.515,19.308,19.308,0,0,1-1.946-6.966,14.612,14.612,0,0,1,5.068-13.99,16.4,16.4,0,0,1,7.7-4.2,3.178,3.178,0,0,1,.484-.035,2.955,2.955,0,0,0,1.767,1.485,15.693,15.693,0,0,1,6.1,4.486,16.859,16.859,0,0,1,2.732,4.456,18.717,18.717,0,0,1,1.29,5.652,15.5,15.5,0,0,1-.388,4.791,15.219,15.219,0,0,1-2.142,5.065,18.124,18.124,0,0,1-3.07,3.6,17.879,17.879,0,0,1-3.528,2.41,16.364,16.364,0,0,1-4.828,1.615,5.482,5.482,0,0,0-.958.085" transform="translate(-98.276 -87.467)" fill="#ff8d9e"/>
      </g>
    </g>
  </g>
</svg>
