<svg xmlns="http://www.w3.org/2000/svg" xmlns:xlink="http://www.w3.org/1999/xlink" width="295" height="296" viewBox="0 0 295 296">
  <defs>
    <clipPath id="clip-path">
      <rect id="Rectángulo_378620" data-name="Rectángulo 378620" width="295" height="296" transform="translate(285 2956)" fill="#fff" stroke="#707070" stroke-width="1"/>
    </clipPath>
    <clipPath id="clip-path-2">
      <rect id="Rectángulo_378619" data-name="Rectángulo 378619" width="295" height="234.571" fill="none"/>
    </clipPath>
  </defs>
  <g id="Enmascarar_grupo_421" data-name="Enmascarar grupo 421" transform="translate(-285 -2956)" clip-path="url(#clip-path)">
    <g id="Grupo_1075178" data-name="Grupo 1075178" transform="translate(285 2992.715)">
      <g id="Grupo_1075177" data-name="Grupo 1075177" clip-path="url(#clip-path-2)">
        <path id="Trazado_825896" data-name="Trazado 825896" d="M41.993,108.99c5.821-4.731,14.822-3.047,14.822-3.047L39.693,142.649c-1.333,3.329-6.625,4.061-11.106,2.567-3.109-1.037-4.4-5.759-2.807-8.912,7.39-14.6,11.283-23.344,16.212-27.314" transform="translate(-14.356 -60.44)" fill="#56edde"/>
        <path id="Trazado_825897" data-name="Trazado 825897" d="M47.946,133.822l13.336,4.544-.759,1.524-13.417-4.572q.426-.773.84-1.5" transform="translate(-26.948 -76.556)" fill="#fff"/>
        <path id="Trazado_825898" data-name="Trazado 825898" d="M147.805,112.8c-3.984-6.356-15.088-9.8-15.088-9.8l5.32,39.524c.188,3.581,3.706,5.793,8.429,5.824,3.278.021,5.852-3.067,5.834-6.6-.074-15.533-1.11-23.6-4.495-28.948" transform="translate(-75.924 -58.924)" fill="#56edde"/>
        <path id="Trazado_825899" data-name="Trazado 825899" d="M138.651,147.094l-.237-1.764h15.732c.114.565.219,1.155.317,1.764Z" transform="translate(-79.183 -83.139)" fill="#fff"/>
        <path id="Trazado_825900" data-name="Trazado 825900" d="M164.345,259.544l-8.848,3.47-2.426-14.1,10.788-2.2Z" transform="translate(-87.568 -141.142)" fill="#243d66"/>
        <path id="Trazado_825901" data-name="Trazado 825901" d="M157.91,276.8l1.119,6.807,9.715-2.437-2.034-7.584Z" transform="translate(-90.336 -156.508)" fill="#243d66"/>
        <path id="Trazado_825902" data-name="Trazado 825902" d="M159.661,294.891a42.407,42.407,0,0,0,.991-10.918,1.9,1.9,0,1,0-3.791,0,40.429,40.429,0,0,1-.109,5.137q-.056.653-.134,1.3c-.007.059-.079.609-.036.3q-.042.3-.089.6c-.135.864-.3,1.722-.489,2.575a1.9,1.9,0,1,0,3.656,1.008" transform="translate(-89.218 -161.368)" fill="#243d66"/>
        <path id="Trazado_825903" data-name="Trazado 825903" d="M168.435,300.359c.2-2.962.665-6.009.285-8.973a1.557,1.557,0,0,0-1.517-1.517c-.735.033-1.624.674-1.517,1.517.381,2.965-.084,6.011-.285,8.973a1.525,1.525,0,0,0,1.517,1.517,1.553,1.553,0,0,0,1.517-1.517" transform="translate(-94.62 -165.825)" fill="#243d66"/>
        <path id="Trazado_825904" data-name="Trazado 825904" d="M175.5,297.817c-.045-.312-.064-.457-.11-.861q-.059-.52-.107-1.041c-.06-.649-.11-1.3-.161-1.948-.113-1.446-.251-2.885-.458-4.32a1.426,1.426,0,0,0-1.749-.993,1.467,1.467,0,0,0-.993,1.749c.045.313.064.457.11.861.04.347.075.694.107,1.041.061.649.111,1.3.162,1.949.113,1.445.251,2.885.458,4.32a1.426,1.426,0,0,0,1.749.993,1.467,1.467,0,0,0,.993-1.749" transform="translate(-98.336 -165.1)" fill="#243d66"/>
        <path id="Trazado_825905" data-name="Trazado 825905" d="M151.485,284.48l3.2-3.853a2.036,2.036,0,0,0,.555-1.34,1.929,1.929,0,0,0-.555-1.341,1.907,1.907,0,0,0-1.341-.555,1.858,1.858,0,0,0-1.34.555l-3.2,3.853a2.037,2.037,0,0,0-.555,1.341,1.929,1.929,0,0,0,.555,1.34,1.908,1.908,0,0,0,1.341.555,1.856,1.856,0,0,0,1.34-.555" transform="translate(-84.809 -158.687)" fill="#243d66"/>
        <path id="Trazado_825906" data-name="Trazado 825906" d="M179.451,289.241a9.973,9.973,0,0,0-.279-3.987,27.673,27.673,0,0,0-1.25-4.183,1.455,1.455,0,0,0-1.749-.993,1.437,1.437,0,0,0-.993,1.749,27.985,27.985,0,0,1,1.2,3.966c.071.319.137.639.194.96q.04.227.074.455c.042.279,0-.039,0-.039s.02.172.021.187a7.828,7.828,0,0,1,.049.807c0,.11-.006.219-.009.328-.013.351.066-.33,0-.005a1.422,1.422,0,0,0,2.742.756" transform="translate(-100.174 -160.189)" fill="#243d66"/>
        <path id="Trazado_825907" data-name="Trazado 825907" d="M148.455,220.932l-2.268-30.7a7.37,7.37,0,0,1,6.185-7.381c4.082-.725,7.657,1.824,7.868,5.5l2.281,30.924a5.7,5.7,0,0,1-5.213,5.656l-3.064.362c-3.038.359-5.63-1.591-5.789-4.356" transform="translate(-83.623 -104.531)" fill="#56edde"/>
        <path id="Trazado_825908" data-name="Trazado 825908" d="M160.084,271.051l-3.064.362c-3.038.359-5.63-1.591-5.789-4.356l-.2-3.235.223-.084c.227,2.7,2.782,4.589,5.775,4.236l3.064-.362a5.9,5.9,0,0,0,5.078-4.262l.127,2.045a5.7,5.7,0,0,1-5.213,5.656" transform="translate(-86.4 -150.655)" fill="#fff"/>
        <path id="Trazado_825909" data-name="Trazado 825909" d="M132.007,253.258h0l-.354,58.592-2.244,60.756H115.023l-1.3-119.348Z" transform="translate(-65.059 -144.881)" fill="#56edde"/>
        <path id="Trazado_825910" data-name="Trazado 825910" d="M116.185,390.536l-.3-.9,3.943-1.315.3.9Z" transform="translate(-66.325 -222.238)" fill="#fff"/>
        <path id="Trazado_825911" data-name="Trazado 825911" d="M117.874,394.521a3.076,3.076,0,0,1-.816-.111,2.886,2.886,0,0,1-1.755-1.327l.828-.467a2.028,2.028,0,0,0,2.642.728l.472.825A2.761,2.761,0,0,1,117.874,394.521Z" transform="translate(-66.045 -224.651)" fill="#fff"/>
        <path id="Trazado_825912" data-name="Trazado 825912" d="M121.778,454.826l-.949-.048,1.484-29.582.949.048Z" transform="translate(-69.219 -243.247)" fill="#fff"/>
        <path id="Trazado_825913" data-name="Trazado 825913" d="M134.449,393.249h-.011a24.345,24.345,0,0,1-4.758-.472.664.664,0,0,1,.261-1.3,22.834,22.834,0,0,0,9,0,.664.664,0,0,1,.26,1.3A24.322,24.322,0,0,1,134.449,393.249Z" transform="translate(-74.016 -224.078)" fill="#282828"/>
        <path id="Trazado_825914" data-name="Trazado 825914" d="M88.512,253.258l-1.3,119.348H72.647l-2.5-59.365.078-59.983Z" transform="translate(-40.132 -144.881)" fill="#56edde"/>
        <path id="Trazado_825915" data-name="Trazado 825915" d="M73.3,341.829q-.072-8.629-.144-17.259-.073-8.786-.147-17.573l.95-.008q.073,8.786.147,17.573.072,8.629.144,17.259Z" transform="translate(-41.865 -175.621)" fill="#fff"/>
        <path id="Trazado_825916" data-name="Trazado 825916" d="M82.388,389.881l-.134-.941,4.6-.657.134.941Z" transform="translate(-47.069 -222.221)" fill="#fff"/>
        <path id="Trazado_825917" data-name="Trazado 825917" d="M78.711,447.851l-2-21.984-2-21.984.946-.086,2,21.984,2,21.984Z" transform="translate(-42.836 -231.01)" fill="#fff"/>
        <path id="Trazado_825918" data-name="Trazado 825918" d="M77.115,395.518a.664.664,0,0,1-.011-1.327l8.906-.145a.664.664,0,0,1,.022,1.327l-8.906.145Z" transform="translate(-43.87 -225.556)" fill="#282828"/>
        <rect id="Rectángulo_378604" data-name="Rectángulo 378604" width="17.634" height="13.263" transform="translate(39.323 108.376)" fill="#56edde"/>
        <path id="Línea_1153" data-name="Línea 1153" d="M11.589.09H-.574a.664.664,0,0,1-.664-.664.664.664,0,0,1,.664-.664H11.589a.664.664,0,0,1,.664.664A.664.664,0,0,1,11.589.09Z" transform="translate(42.904 122.213)" fill="#282828"/>
        <path id="Trazado_825919" data-name="Trazado 825919" d="M116.329,525.364s2.224-6.536,6.99-7,11.439,2.568,11.863,6.186.529,6.536.529,6.536H116.329Z" transform="translate(-66.548 -296.512)" fill="#243d66"/>
        <path id="Trazado_825920" data-name="Trazado 825920" d="M84.779,525.364s-2.224-6.536-6.99-7-11.439,2.568-11.863,6.186-.53,6.536-.53,6.536H84.779Z" transform="translate(-37.411 -296.512)" fill="#243d66"/>
        <path id="Trazado_825921" data-name="Trazado 825921" d="M88.427,35.649c0,3.052.294,9.436,2.145,13.225a9.216,9.216,0,0,0,8.379,5.586c3.768.114,6.575-1.358,8.824-5.975s2.142-12.78,2.142-12.78,0-10.9-10.628-10.9c-11.194,0-10.862,10.844-10.862,10.844" transform="translate(-50.586 -14.19)" fill="#ffb1a5"/>
        <path id="Trazado_825922" data-name="Trazado 825922" d="M110.574,63.457a1.224,1.224,0,0,1-.315-.041l-.823-.219a.356.356,0,1,1,.183-.689l.823.219a.444.444,0,0,0,.531-.23.46.46,0,0,0,.032-.17V59.844a.356.356,0,1,1,.713,0v2.483a1.171,1.171,0,0,1-.083.434A1.132,1.132,0,0,1,110.574,63.457Z" transform="translate(-62.526 -34.103)" fill="#282828"/>
        <path id="Trazado_825923" data-name="Trazado 825923" d="M121.439,60.411a.965.965,0,1,0,.965-.965.965.965,0,0,0-.965.965" transform="translate(-69.472 -34.007)" fill="#282828"/>
        <path id="Trazado_825924" data-name="Trazado 825924" d="M100.291,60.411a.965.965,0,1,0,.965-.965.965.965,0,0,0-.965.965" transform="translate(-57.374 -34.007)" fill="#282828"/>
        <path id="Trazado_825925" data-name="Trazado 825925" d="M99.644,47.854l-6.49,1.677s.3-1.82,2.95-2.482,3.54.805,3.54.805" transform="translate(-53.291 -26.817)" fill="#282828"/>
        <path id="Trazado_825926" data-name="Trazado 825926" d="M117.744,47.854l6.49,1.677s-.3-1.82-2.95-2.482-3.54.805-3.54.805" transform="translate(-67.358 -26.817)" fill="#282828"/>
        <path id="Trazado_825927" data-name="Trazado 825927" d="M75.091,104.316c.718-.429,1.48-.855,2.291-1.271,2.423-1.243,6.821-1.73,11.2-1.625,4.378-.1,8.775.382,11.2,1.625.81.416,1.572.843,2.29,1.271l5.18,62.071H69.911Z" transform="translate(-39.994 -58.011)" fill="#56edde"/>
        <rect id="Rectángulo_378605" data-name="Rectángulo 378605" width="37.157" height="1.38" transform="translate(29.962 107.863)" fill="#fff"/>
        <path id="Línea_1154" data-name="Línea 1154" d="M4.1,53.039A.475.475,0,0,1,3.63,52.6L-.884-.37A.475.475,0,0,1-.451-.884a.475.475,0,0,1,.514.433L4.577,52.524a.475.475,0,0,1-.433.514Z" transform="translate(62.968 55.477)" fill="#282828"/>
        <path id="Línea_1155" data-name="Línea 1155" d="M-.411,5.933a.476.476,0,0,1-.12-.015.475.475,0,0,1-.341-.579L.652-.53a.475.475,0,0,1,.579-.341.475.475,0,0,1,.341.579L.049,5.577A.475.475,0,0,1-.411,5.933Z" transform="translate(63.683 57.943)" fill="#282828"/>
        <path id="Línea_1156" data-name="Línea 1156" d="M-.41,53.039l-.041,0a.475.475,0,0,1-.433-.514L3.63-.451a.475.475,0,0,1,.514-.433.475.475,0,0,1,.433.514L.063,52.6A.475.475,0,0,1-.41,53.039Z" transform="translate(30.364 55.477)" fill="#282828"/>
        <path id="Línea_1157" data-name="Línea 1157" d="M1.112,5.933a.475.475,0,0,1-.46-.356L-.871-.292A.475.475,0,0,1-.53-.871.475.475,0,0,1,.049-.53L1.572,5.339a.476.476,0,0,1-.46.595Z" transform="translate(32.641 57.943)" fill="#282828"/>
        <path id="Trazado_825928" data-name="Trazado 825928" d="M95.853,20.009h0A13.229,13.229,0,0,0,82.624,33.238V57.871s3.35,3.873,13.229,3.873c9.708,0,13.229-3.873,13.229-3.873V33.238A13.228,13.228,0,0,0,95.853,20.009M86.519,35.183a4.967,4.967,0,0,1,4.967-4.967h8.735a4.967,4.967,0,0,1,4.967,4.967V43.4a4.967,4.967,0,0,1-4.967,4.967H91.486A4.967,4.967,0,0,1,86.519,43.4Z" transform="translate(-47.267 -11.447)" fill="#56edde"/>
        <rect id="Rectángulo_378606" data-name="Rectángulo 378606" width="1.433" height="71.452" transform="translate(47.784 36.925)" fill="#fff"/>
        <path id="Trazado_825929" data-name="Trazado 825929" d="M96.692,40.141h8.735a4.967,4.967,0,0,1,4.967,4.967V46.7a4.967,4.967,0,0,0-4.967-4.967H96.692A4.967,4.967,0,0,0,91.725,46.7V45.108a4.967,4.967,0,0,1,4.967-4.967" transform="translate(-52.473 -22.964)" fill="#fff"/>
        <path id="Trazado_825930" data-name="Trazado 825930" d="M95.853,108.638c9.708,0,13.229-3.872,13.229-3.872v1.592s-3.521,3.872-13.229,3.872c-9.879,0-13.229-3.872-13.229-3.872v-1.592s3.35,3.872,13.229,3.872" transform="translate(-47.267 -59.934)" fill="#fff"/>
        <path id="Trazado_825931" data-name="Trazado 825931" d="M12.933,104.516l8.086-4.995,4.9,13.436L15.7,117.045Z" transform="translate(-7.399 -56.933)" fill="#243d66"/>
        <path id="Trazado_825932" data-name="Trazado 825932" d="M16.761,94.329l-2.317-6.5L4.383,92.016l4.293,7.048Z" transform="translate(-2.508 -50.246)" fill="#243d66"/>
        <path id="Trazado_825933" data-name="Trazado 825933" d="M21.13,71.64a42.4,42.4,0,0,0,1.019,10.915,1.911,1.911,0,0,0,2.332,1.324A1.939,1.939,0,0,0,25.8,81.547c-.192-.853-.359-1.71-.5-2.574q-.047-.3-.09-.6a1.716,1.716,0,0,1-.039-.3c-.051-.434-.1-.868-.137-1.3a40.433,40.433,0,0,1-.122-5.137,1.911,1.911,0,0,0-1.9-1.9,1.935,1.935,0,0,0-1.9,1.9" transform="translate(-12.07 -39.898)" fill="#243d66"/>
        <path id="Trazado_825934" data-name="Trazado 825934" d="M9.969,70.243c.615,2.576,1.591,5.046,2.205,7.622a1.53,1.53,0,0,0,1.865,1.059A1.549,1.549,0,0,0,15.1,77.059c-.615-2.576-1.591-5.046-2.2-7.622a1.53,1.53,0,0,0-1.866-1.059,1.549,1.549,0,0,0-1.059,1.865" transform="translate(-5.677 -39.082)" fill="#243d66"/>
        <path id="Trazado_825935" data-name="Trazado 825935" d="M2.125,77.655c1.392,2.36,2.483,4.88,3.875,7.24a1.422,1.422,0,1,0,2.455-1.435C7.063,81.1,5.971,78.58,4.58,76.22a1.44,1.44,0,0,0-1.945-.51,1.447,1.447,0,0,0-.51,1.945" transform="translate(-1.106 -43.199)" fill="#243d66"/>
        <path id="Trazado_825936" data-name="Trazado 825936" d="M29.261,89.04,26.8,93.4a1.974,1.974,0,0,0-.191,1.461,1.9,1.9,0,0,0,3.465.453l2.461-4.362a1.977,1.977,0,0,0,.191-1.461,1.9,1.9,0,0,0-3.465-.453" transform="translate(-15.186 -50.411)" fill="#243d66"/>
        <path id="Trazado_825937" data-name="Trazado 825937" d="M.418,91.624c.66.81,1.357,1.589,2.026,2.392q.238.286.469.576l.1.125c.177.224-.153-.2-.05-.065.082.11.166.219.247.33.347.473.673.962.982,1.461a1.422,1.422,0,0,0,2.455-1.435,52.862,52.862,0,0,0-4.217-5.4A1.427,1.427,0,0,0,1.423,89.2a1.447,1.447,0,0,0-1.005.416A1.431,1.431,0,0,0,0,90.619a1.63,1.63,0,0,0,.416,1.005" transform="translate(0 -51.027)" fill="#243d66"/>
        <path id="Trazado_825938" data-name="Trazado 825938" d="M21.937,98.022a.476.476,0,0,1-.459-.6,4.832,4.832,0,0,1,3.571-3.379.475.475,0,0,1,.2.929,3.878,3.878,0,0,0-2.855,2.7A.475.475,0,0,1,21.937,98.022Z" transform="translate(-12.374 -53.889)" fill="#fff"/>
        <path id="Trazado_825939" data-name="Trazado 825939" d="M24.245,113.2l6.675,25.529a7.37,7.37,0,0,1-4.767,8.367c-3.887,1.443-7.86-.427-8.725-4.006L10.7,117.351a5.694,5.694,0,0,1,4.119-6.5l2.95-.9c2.925-.9,5.824.56,6.474,3.252" transform="translate(-6.048 -62.749)" fill="#56edde"/>
        <path id="Trazado_825940" data-name="Trazado 825940" d="M14.821,110.854l2.95-.9c2.925-.9,5.824.56,6.474,3.252l.776,3.147-.2.122c-.706-2.616-3.557-4.019-6.439-3.136l-2.95.9a5.9,5.9,0,0,0-4.235,5.1l-.49-1.989a5.7,5.7,0,0,1,4.119-6.5" transform="translate(-6.048 -62.748)" fill="#fff"/>
        <path id="Trazado_825941" data-name="Trazado 825941" d="M17.336,152.388a.475.475,0,0,1-.464-.375c-.891-4.145-1.941-8.114-2.957-11.952-1.423-5.379-2.9-10.942-4-17.209a.475.475,0,0,1,.936-.165c1.1,6.228,2.562,11.771,3.981,17.131,1.018,3.849,2.072,7.829,2.967,12a.476.476,0,0,1-.465.575Z" transform="translate(-5.765 -70.056)" fill="#282828"/>
        <path id="Trazado_825942" data-name="Trazado 825942" d="M50.16,174.659a.475.475,0,0,1-.389-.747,13.425,13.425,0,0,0,1.852-10.816.475.475,0,1,1,.927-.211,15.787,15.787,0,0,1,.253,5.893,13.308,13.308,0,0,1-2.253,5.679A.475.475,0,0,1,50.16,174.659Z" transform="translate(-28.519 -93.065)" fill="#282828"/>
        <path id="Trazado_825943" data-name="Trazado 825943" d="M48.228,145.777a.476.476,0,0,1-.444-.645c.88-2.306.187-6.243-.991-8.716a.474.474,0,0,1-.028-.076L41.045,115.99a.475.475,0,0,1,.915-.257l5.71,20.312c1.236,2.62,2.005,6.8,1,9.427A.475.475,0,0,1,48.228,145.777Z" transform="translate(-23.566 -66.105)" fill="#282828"/>
        <path id="Línea_1158" data-name="Línea 1158" d="M-.308,2.824a.355.355,0,0,1-.2-.064.356.356,0,0,1-.089-.5L1.333-.512a.356.356,0,0,1,.5-.089.356.356,0,0,1,.089.5L-.016,2.671A.356.356,0,0,1-.308,2.824Z" transform="translate(56.186 27.691)" fill="#282828"/>
        <path id="Trazado_825944" data-name="Trazado 825944" d="M131.016,79.875a.357.357,0,0,1-.329-.494c.765-1.825,1.775-4.438,1.785-4.464a.356.356,0,1,1,.665.257c-.01.026-1.024,2.648-1.793,4.482A.356.356,0,0,1,131.016,79.875Z" transform="translate(-74.818 -42.8)" fill="#282828"/>
        <path id="Línea_1159" data-name="Línea 1159" d="M1.113,2.824A.356.356,0,0,1,.8,2.63L-.625-.146a.356.356,0,0,1,.155-.48.356.356,0,0,1,.48.155L1.43,2.3a.357.357,0,0,1-.317.519Z" transform="translate(39.588 27.691)" fill="#282828"/>
        <path id="Línea_1160" data-name="Línea 1160" d="M1.325,3.935A.356.356,0,0,1,1,3.717L-.637-.17A.356.356,0,0,1-.446-.637.356.356,0,0,1,.02-.446L1.653,3.441a.357.357,0,0,1-.328.495Z" transform="translate(39.494 33.068)" fill="#282828"/>
        <path id="Trazado_825945" data-name="Trazado 825945" d="M102.706,78.832s-3.456.021-7.883-4.047a.681.681,0,0,1-.219-.519l.19-6.208a.668.668,0,0,1,.527-.632l7.384-1.584,7.384,1.584a.668.668,0,0,1,.527.632l.19,6.208a.681.681,0,0,1-.218.519c-4.428,4.068-7.883,4.047-7.883,4.047" transform="translate(-54.12 -37.666)" fill="#243d66"/>
        <rect id="Rectángulo_378607" data-name="Rectángulo 378607" width="28.759" height="1.71" transform="translate(34.049 16.058)" fill="#282828"/>
        <path id="Trazado_825946" data-name="Trazado 825946" d="M102.3,66.743H88.493a6.556,6.556,0,0,1-6.556-6.556V39.822h26.921V60.187a6.556,6.556,0,0,1-6.556,6.556ZM82.887,40.772V60.187a5.612,5.612,0,0,0,5.606,5.606H102.3a5.612,5.612,0,0,0,5.606-5.606V40.772Z" transform="translate(-46.97 -22.877)"/>
        <path id="Línea_1161" data-name="Línea 1161" d="M11.639,12.114a.474.474,0,0,1-.336-.139L-.747-.075a.475.475,0,0,1,0-.672.475.475,0,0,1,.672,0L11.975,11.3a.475.475,0,0,1-.336.811Z" transform="translate(48.413 19.532)" fill="#fff"/>
        <path id="Línea_1162" data-name="Línea 1162" d="M11.639,12.114a.474.474,0,0,1-.336-.139L-.747-.075a.475.475,0,0,1,0-.672.475.475,0,0,1,.672,0L11.975,11.3a.475.475,0,0,1-.336.811Z" transform="translate(43.421 24.428)" fill="#fff"/>
        <path id="Línea_1163" data-name="Línea 1163" d="M11.639,12.114a.474.474,0,0,1-.336-.139L-.747-.075a.475.475,0,0,1,0-.672.475.475,0,0,1,.672,0L11.975,11.3a.475.475,0,0,1-.336.811Z" transform="translate(38.428 29.325)" fill="#fff"/>
        <path id="Trazado_825947" data-name="Trazado 825947" d="M144.17,138.45c8.244-14.131,12.81-26.528,17.967-30.2,3.386-2.433,7.632-2.828,10.739-2.7l-1.72,11.551L157.682,145.61c-1.529,3.244-6.855,3.661-11.239,1.9-3.042-1.22-4.053-6.011-2.273-9.063" transform="translate(-81.973 -60.371)" fill="#bfe8ff"/>
        <path id="Trazado_825948" data-name="Trazado 825948" d="M158.294,215.369l-15.036-33.494c-1.4-3.3,1.846-7.548,6.08-9.641,2.938-1.452,7.538,2.236,8.479,5.641,3.545,12.834,7.859,28.407,8.571,34.4Z" transform="translate(-81.766 -98.344)" fill="#bfe8ff"/>
        <path id="Trazado_825949" data-name="Trazado 825949" d="M168.922,188.251a.475.475,0,0,1-.451-.325,8,8,0,0,0-7.891-5.247.475.475,0,1,1-.072-.948,8.9,8.9,0,0,1,8.865,5.894.476.476,0,0,1-.451.626Z" transform="translate(-91.667 -104.047)" fill="#282828"/>
        <path id="Trazado_825950" data-name="Trazado 825950" d="M176.268,186.009a.475.475,0,0,1-.471-.418,14.824,14.824,0,0,0-3.026-7.32.475.475,0,1,1,.749-.585,15.862,15.862,0,0,1,3.22,7.79.475.475,0,0,1-.414.529A.481.481,0,0,1,176.268,186.009Z" transform="translate(-98.876 -101.641)" fill="#282828"/>
        <path id="Trazado_825951" data-name="Trazado 825951" d="M282.063,138.45c-8.244-14.131-12.81-26.528-17.966-30.2-3.386-2.433-7.633-2.828-10.739-2.7l1.72,11.551,13.474,28.507c1.529,3.244,6.855,3.661,11.239,1.9,3.042-1.22,4.053-6.011,2.273-9.063" transform="translate(-144.939 -60.371)" fill="#bfe8ff"/>
        <path id="Trazado_825952" data-name="Trazado 825952" d="M275.971,215.369l15.036-33.494c1.4-3.3-1.846-7.548-6.08-9.641-2.938-1.452-7.538,2.236-8.479,5.641-3.545,12.834-7.859,28.407-8.57,34.4Z" transform="translate(-153.245 -98.344)" fill="#bfe8ff"/>
        <path id="Trazado_825953" data-name="Trazado 825953" d="M284.68,188.251a.476.476,0,0,1-.451-.626,8.9,8.9,0,0,1,8.865-5.894.475.475,0,1,1-.072.948,8,8,0,0,0-7.892,5.247A.475.475,0,0,1,284.68,188.251Z" transform="translate(-162.681 -104.047)" fill="#282828"/>
        <path id="Trazado_825954" data-name="Trazado 825954" d="M284.361,186.009a.476.476,0,0,1-.472-.533,15.862,15.862,0,0,1,3.22-7.79.475.475,0,1,1,.749.585,14.825,14.825,0,0,0-3.026,7.32A.475.475,0,0,1,284.361,186.009Z" transform="translate(-162.498 -101.641)" fill="#282828"/>
        <path id="Trazado_825955" data-name="Trazado 825955" d="M222.509,84.571h0V73.364H211.493V84.571l-5.38,2.085s.951,6.465,11,6.6,11.02-6.4,11.02-6.4Z" transform="translate(-117.911 -41.969)" fill="#ffb1a5"/>
        <path id="Trazado_825956" data-name="Trazado 825956" d="M229.7,73.364H218.686v5.229l.195.587c.449,1.354,1.749,4.166,4.876,4.579,3.888.513,5.449-3.259,5.893-4.667l.053-.187Z" transform="translate(-125.104 -41.969)" fill="#282828"/>
        <path id="Trazado_825957" data-name="Trazado 825957" d="M190.608,354.67h15.243l1.1-101.413H188.672l.354,58.592Z" transform="translate(-107.934 -144.881)" fill="#407ad6"/>
        <path id="Línea_1164" data-name="Línea 1164" d="M.064,11.426h-.95V0h.95Z" transform="translate(94.145 130.759)" fill="#fff"/>
        <path id="Trazado_825958" data-name="Trazado 825958" d="M211.611,456.236l-.942-.127q2.535-18.856,5.07-37.713l.091-.678.942.127-.091.678Q214.146,437.38,211.611,456.236Z" transform="translate(-120.613 -238.978)" fill="#fff"/>
        <path id="Trazado_825959" data-name="Trazado 825959" d="M191.931,269.774a.664.664,0,0,1-.281-1.265,12.718,12.718,0,0,0,6.209-6.391.664.664,0,1,1,1.218.527,14.022,14.022,0,0,1-6.866,7.066A.662.662,0,0,1,191.931,269.774Z" transform="translate(-109.553 -149.856)" fill="#282828"/>
        <path id="Trazado_825960" data-name="Trazado 825960" d="M197.149,393.249a24.319,24.319,0,0,1-4.747-.468.664.664,0,0,1,.26-1.3,22.834,22.834,0,0,0,9,0,.664.664,0,1,1,.261,1.3,24.344,24.344,0,0,1-4.758.472Z" transform="translate(-109.896 -224.078)" fill="#282828"/>
        <path id="Trazado_825961" data-name="Trazado 825961" d="M248.821,351.347l1.6-38.106-.078-59.983H232.063l1.067,98.089Z" transform="translate(-132.756 -144.881)" fill="#407ad6"/>
        <path id="Línea_1165" data-name="Línea 1165" d="M.064,35.886h-.95V0h.95Z" transform="translate(116.471 127.644)" fill="#fff"/>
        <path id="Trazado_825962" data-name="Trazado 825962" d="M236.781,393.851l-2.076-.26.118-.943,2.077.26Z" transform="translate(-134.279 -224.718)" fill="#fff"/>
        <path id="Trazado_825963" data-name="Trazado 825963" d="M235.231,397.77l-2.665-3.319.741-.595,2.665,3.319Z" transform="translate(-133.119 -225.373)" fill="#fff"/>
        <path id="Trazado_825964" data-name="Trazado 825964" d="M261.481,458.115l-.95-.036q.58-15.315,1.161-30.629l.95.036Q262.061,442.8,261.481,458.115Z" transform="translate(-149.139 -244.536)" fill="#fff"/>
        <path id="Trazado_825965" data-name="Trazado 825965" d="M241.887,477.578l-.931-.193,2.918-14.061,3.051-14.7.931.193-3.051,14.7Z" transform="translate(-137.938 -256.663)" fill="#fff"/>
        <path id="Trazado_825966" data-name="Trazado 825966" d="M258.714,269.774a.662.662,0,0,1-.28-.062,14.021,14.021,0,0,1-6.866-7.066.664.664,0,0,1,1.218-.527A12.717,12.717,0,0,0,259,268.509a.664.664,0,0,1-.281,1.265Z" transform="translate(-144.018 -149.856)" fill="#282828"/>
        <path id="Trazado_825967" data-name="Trazado 825967" d="M254.951,395.518h-.011l-8.906-.145a.664.664,0,1,1,.022-1.327l8.906.145a.664.664,0,0,1-.011,1.327Z" transform="translate(-140.51 -225.556)" fill="#282828"/>
        <rect id="Rectángulo_378608" data-name="Rectángulo 378608" width="17.634" height="13.263" transform="translate(90.73 108.376)" fill="#407ad6"/>
        <path id="Línea_1166" data-name="Línea 1166" d="M11.589.09H-.574a.664.664,0,0,1-.664-.664.664.664,0,0,1,.664-.664H11.589a.664.664,0,0,1,.664.664A.664.664,0,0,1,11.589.09Z" transform="translate(93.767 122.213)" fill="#282828"/>
        <path id="Trazado_825968" data-name="Trazado 825968" d="M204.78,500.284H192.5l-2.457-28.615h17.776Z" transform="translate(-108.715 -269.828)" fill="#ffe072"/>
        <path id="Trazado_825969" data-name="Trazado 825969" d="M202.879,525.364s-2.224-6.536-6.99-7-11.439,2.568-11.863,6.186-.53,6.536-.53,6.536h19.383Z" transform="translate(-104.973 -296.512)" fill="#d9aa29"/>
        <path id="Trazado_825970" data-name="Trazado 825970" d="M235.627,500.284h12.285l2.457-28.615H232.592Z" transform="translate(-133.059 -269.828)" fill="#ffe072"/>
        <path id="Trazado_825971" data-name="Trazado 825971" d="M234.429,525.364s2.224-6.536,6.99-7,11.439,2.568,11.863,6.186.53,6.536.53,6.536H234.429Z" transform="translate(-134.11 -296.512)" fill="#d9aa29"/>
        <path id="Trazado_825972" data-name="Trazado 825972" d="M181.586,236.9l2.642,2.565a1.966,1.966,0,0,0,1.34.555,2.111,2.111,0,0,0,1.341-.555,1.906,1.906,0,0,0,.555-1.34,1.954,1.954,0,0,0-.555-1.341l-2.642-2.565a1.969,1.969,0,0,0-1.341-.555,2.108,2.108,0,0,0-1.34.555,1.908,1.908,0,0,0-.555,1.341,1.953,1.953,0,0,0,.555,1.34" transform="translate(-103.562 -133.673)" fill="#cf8079"/>
        <path id="Trazado_825973" data-name="Trazado 825973" d="M269.912,234.222l-2.642,2.565a1.945,1.945,0,0,0-.555,1.34,2.112,2.112,0,0,0,.555,1.341,1.906,1.906,0,0,0,1.34.555,2,2,0,0,0,1.341-.555l2.642-2.565a1.947,1.947,0,0,0,.555-1.341,2.108,2.108,0,0,0-.555-1.34,1.908,1.908,0,0,0-1.341-.555,2,2,0,0,0-1.34.555" transform="translate(-152.579 -133.673)" fill="#cf8079"/>
        <path id="Trazado_825974" data-name="Trazado 825974" d="M224.555,109.1a5.573,5.573,0,0,0-2.949-4.874l-.031-.017a19.576,19.576,0,0,0-5.967-1.688,7.1,7.1,0,0,1-2.156,1.811,13.479,13.479,0,0,1-6.228,1.331c-3.4-.034-7.381-.207-9.309-3.187a20.1,20.1,0,0,0-6.269,1.733l-.031.017a5.572,5.572,0,0,0-2.949,4.874l-.725,57.9H225.28Z" transform="translate(-107.516 -58.623)" fill="#ff8542"/>
        <path id="Trazado_825975" data-name="Trazado 825975" d="M226.593,104.336a13.477,13.477,0,0,1-6.228,1.331c-3.4-.035-7.378-.207-9.307-3.183-.047.007-.1.011-.146.017l8.931,14.875,8.907-14.851h0a7.112,7.112,0,0,1-2.156,1.811" transform="translate(-120.657 -58.628)" fill="#bfe8ff"/>
        <path id="Línea_1167" data-name="Línea 1167" d="M-.411,23.485a.475.475,0,0,1-.475-.475V-.411A.475.475,0,0,1-.411-.886a.475.475,0,0,1,.475.475V23.01A.475.475,0,0,1-.411,23.485Z" transform="translate(99.538 59.421)" fill="#282828"/>
        <path id="Trazado_825976" data-name="Trazado 825976" d="M203.028,164.006V102.865a20.866,20.866,0,0,0-4.325,1.168v59.973Z" transform="translate(-113.672 -58.846)" fill="#fff"/>
        <path id="Trazado_825977" data-name="Trazado 825977" d="M258.374,164.006V104.033a20.866,20.866,0,0,0-4.325-1.168v61.141Z" transform="translate(-145.334 -58.846)" fill="#fff"/>
        <path id="Trazado_825978" data-name="Trazado 825978" d="M188.079,236.757l-.051,4.059h37.264l-.051-4.059Z" transform="translate(-107.565 -135.442)" fill="#fff"/>
        <path id="Línea_1168" data-name="Línea 1168" d="M-.411,49.99H-.418a.475.475,0,0,1-.468-.483L-.1-.418A.475.475,0,0,1,.381-.886.475.475,0,0,1,.849-.4L.064,49.522A.475.475,0,0,1-.411,49.99Z" transform="translate(80.995 58.613)" fill="#282828"/>
        <path id="Línea_1169" data-name="Línea 1169" d="M2.02,6.707A.475.475,0,0,1,1.574,6.4L-.857-.248a.475.475,0,0,1,.283-.61.475.475,0,0,1,.61.283L2.466,6.069a.476.476,0,0,1-.446.639Z" transform="translate(79.194 61.522)" fill="#282828"/>
        <path id="Línea_1170" data-name="Línea 1170" d="M.334,49.99a.475.475,0,0,1-.475-.468L-.886-.4A.475.475,0,0,1-.418-.886a.475.475,0,0,1,.482.468L.81,49.507a.475.475,0,0,1-.468.482Z" transform="translate(117.418 58.613)" fill="#282828"/>
        <path id="Línea_1171" data-name="Línea 1171" d="M-.411,6.707a.474.474,0,0,1-.164-.029.475.475,0,0,1-.283-.61L1.579-.575a.475.475,0,0,1,.61-.283.475.475,0,0,1,.283.61L.035,6.4A.475.475,0,0,1-.411,6.707Z" transform="translate(117.565 61.522)" fill="#282828"/>
        <path id="Trazado_825979" data-name="Trazado 825979" d="M254.872,55.683a2.457,2.457,0,0,1,3.046-.8c2.051.778,1.123,5.759-1.954,6.395A2.434,2.434,0,0,1,254,60.759s.757-3.68.876-5.076" transform="translate(-145.304 -31.272)" fill="#cf8079"/>
        <path id="Trazado_825980" data-name="Trazado 825980" transform="translate(-27.679 -6.411)" fill="#282828"/>
        <path id="Trazado_825981" data-name="Trazado 825981" d="M201.438,55.683a2.458,2.458,0,0,0-3.046-.8c-2.051.778-1.123,5.759,1.954,6.395a2.435,2.435,0,0,0,1.968-.515s-.756-3.68-.875-5.076" transform="translate(-112.867 -31.272)" fill="#cf8079"/>
        <path id="Trazado_825982" data-name="Trazado 825982" transform="translate(-21.767 -6.411)" fill="#282828"/>
        <path id="Trazado_825983" data-name="Trazado 825983" d="M227.862,33.225c0,3-.294,9.286-2.14,13.015a9.2,9.2,0,0,1-8.359,5.5c-3.759.112-6.559-1.336-8.8-5.881s-2.137-12.577-2.137-12.577,0-10.728,10.6-10.728c11.168,0,10.836,10.673,10.836,10.673" transform="translate(-118.088 -12.901)" fill="#ffb1a5"/>
        <path id="Trazado_825984" data-name="Trazado 825984" d="M230.186,61.205a1.13,1.13,0,0,1-1.061-.7,1.162,1.162,0,0,1-.084-.435V57.592a.356.356,0,0,1,.713,0v2.483a.453.453,0,0,0,.032.17.443.443,0,0,0,.531.231l.823-.219a.356.356,0,1,1,.183.689l-.823.219A1.225,1.225,0,0,1,230.186,61.205Z" transform="translate(-131.1 -32.815)" fill="#282828"/>
        <path id="Trazado_825985" data-name="Trazado 825985" d="M219.807,58.159a.965.965,0,1,1-.965-.965.965.965,0,0,1,.965.965" transform="translate(-124.641 -32.719)" fill="#282828"/>
        <path id="Trazado_825986" data-name="Trazado 825986" d="M240.955,58.159a.965.965,0,1,1-.965-.965.965.965,0,0,1,.965.965" transform="translate(-136.739 -32.719)" fill="#282828"/>
        <path id="Trazado_825987" data-name="Trazado 825987" d="M235.507,45.6,242,47.28s-.3-1.82-2.95-2.482-3.54.805-3.54.805" transform="translate(-134.727 -25.53)" fill="#282828"/>
        <path id="Trazado_825988" data-name="Trazado 825988" d="M217.407,45.6l-6.49,1.677s.3-1.82,2.95-2.482,3.54.805,3.54.805" transform="translate(-120.66 -25.53)" fill="#282828"/>
        <path id="Línea_1172" data-name="Línea 1172" d="M3.386,5.352A.356.356,0,0,1,3.094,5.2L-.6-.1A.356.356,0,0,1-.512-.6a.356.356,0,0,1,.5.089l3.694,5.3a.356.356,0,0,1-.292.56Z" transform="translate(88.05 23.58)" fill="#282828"/>
        <path id="Trazado_825989" data-name="Trazado 825989" d="M209.666,75.338a.356.356,0,0,1-.329-.219c-.77-1.837-2.079-5.407-2.093-5.443a.356.356,0,0,1,.669-.245c.013.036,1.317,3.591,2.081,5.413a.357.357,0,0,1-.329.494Z" transform="translate(-118.618 -39.658)" fill="#282828"/>
        <path id="Línea_1173" data-name="Línea 1173" d="M-.308,5.228a.355.355,0,0,1-.208-.067.356.356,0,0,1-.081-.5L3.14-.517a.356.356,0,0,1,.5-.081.356.356,0,0,1,.081.5L-.019,5.08A.356.356,0,0,1-.308,5.228Z" transform="translate(106.921 23.703)" fill="#282828"/>
        <path id="Trazado_825990" data-name="Trazado 825990" d="M249.738,75.41a.357.357,0,0,1-.329-.494c.77-1.838,2.459-5.356,2.476-5.392a.356.356,0,0,1,.643.309c-.017.035-1.7,3.538-2.461,5.359A.357.357,0,0,1,249.738,75.41Z" transform="translate(-142.736 -39.729)" fill="#282828"/>
        <path id="Trazado_825991" data-name="Trazado 825991" d="M220.561,75.133s3.575.021,8.111-4.259l-.216-7.037-7.9-1.694-7.9,1.694-.216,7.037c4.536,4.281,8.111,4.259,8.111,4.259" transform="translate(-121.536 -35.55)" fill="#fff"/>
        <rect id="Rectángulo_378609" data-name="Rectángulo 378609" width="6.911" height="3.521" transform="translate(95.525)" fill="#ffe072"/>
        <path id="Trazado_825992" data-name="Trazado 825992" d="M212.982,3.943c-13.443,0-13.443,15.138-13.443,15.138s-.008.68.021,1.8a2.057,2.057,0,0,0,1.941,2.1h.667c3.634-8.7,18.012-7.749,22.589,0a2.051,2.051,0,0,0,1.941-2.1c.017-.7.023-1.331.023-1.886,0,0,.421-15.059-13.739-15.059" transform="translate(-114.15 -2.256)" fill="#ffe072"/>
        <path id="Línea_1174" data-name="Línea 1174" d="M-.308,13.511a.356.356,0,0,1-.356-.356V-.308A.356.356,0,0,1-.308-.665a.356.356,0,0,1,.356.356V13.155A.356.356,0,0,1-.308,13.511Z" transform="translate(94.212 3.057)" fill="#282828"/>
        <path id="Línea_1175" data-name="Línea 1175" d="M-.308,13.8a.356.356,0,0,1-.356-.356V-.308A.356.356,0,0,1-.308-.664a.356.356,0,0,1,.356.356V13.445A.356.356,0,0,1-.308,13.8Z" transform="translate(104.022 2.742)" fill="#282828"/>
        <path id="Trazado_825993" data-name="Trazado 825993" d="M199.219,35.194l-.038,0a.356.356,0,0,1-.317-.392c.152-1.428,1.721-3.106,3.139-4.2a12.767,12.767,0,0,1,2.7-1.613,6.546,6.546,0,0,1,2.765-.614.356.356,0,0,1-.025.712,8.61,8.61,0,0,0-5,2.079,11.188,11.188,0,0,0-2,1.954,3.808,3.808,0,0,0-.865,1.756A.356.356,0,0,1,199.219,35.194Z" transform="translate(-113.835 -16.302)" fill="#282828"/>
        <path id="Línea_1176" data-name="Línea 1176" d="M2.31.048H-.308A.356.356,0,0,1-.664-.308.356.356,0,0,1-.308-.664H2.31a.356.356,0,0,1,.356.356A.356.356,0,0,1,2.31.048Z" transform="translate(89.181 9.17)" fill="#282828"/>
        <path id="Trazado_825994" data-name="Trazado 825994" d="M251.754,35.194a.356.356,0,0,1-.354-.319,3.808,3.808,0,0,0-.865-1.756,11.187,11.187,0,0,0-2-1.954,8.609,8.609,0,0,0-5-2.079.356.356,0,1,1-.025-.712,6.546,6.546,0,0,1,2.765.614,12.766,12.766,0,0,1,2.7,1.613c1.418,1.094,2.987,2.771,3.139,4.2a.356.356,0,0,1-.317.392Z" transform="translate(-139.177 -16.302)" fill="#282828"/>
        <path id="Línea_1177" data-name="Línea 1177" d="M2.31.048H-.308A.356.356,0,0,1-.665-.308.356.356,0,0,1-.308-.664H2.31a.356.356,0,0,1,.356.356A.356.356,0,0,1,2.31.048Z" transform="translate(106.777 9.17)" fill="#282828"/>
        <path id="Trazado_825995" data-name="Trazado 825995" d="M226.548,35.524a16.97,16.97,0,0,0-8.937-4.679,17.16,17.16,0,0,0-10.248,1.379,16.643,16.643,0,0,0-4.694,3.3,1.9,1.9,0,0,0,2.681,2.681c.246-.244.5-.482.758-.71.13-.114.264-.224.4-.334.013-.011.238-.187.08-.065s.128-.092.154-.112a15.127,15.127,0,0,1,1.913-1.182c.308-.16.621-.306.938-.447.2-.09-.023.012-.054.023.081-.03.161-.064.242-.095q.283-.108.57-.206a15.151,15.151,0,0,1,2.093-.546c.17-.032.341-.056.512-.086.222-.038-.044.006-.075.01l.258-.029q.56-.057,1.123-.071t1.125.017q.259.014.518.037c.117.011.629.075.27.023a15.29,15.29,0,0,1,2.113.461q.5.147.986.328c.075.028.485.186.338.127-.19-.076.074.032.092.04.105.047.211.095.315.144a15.181,15.181,0,0,1,2.175,1.25c.166.115.329.234.491.354-.258-.192.149.125.226.189.332.279.649.573.956.879a1.9,1.9,0,1,0,2.681-2.681" transform="translate(-115.628 -17.499)" fill="#d9aa29"/>
        <path id="Rectángulo_378610" data-name="Rectángulo 378610" d="M-.665-.664H3.47V4.348H-.665ZM2.757.048H.048V3.635H2.757Z" transform="translate(97.577 7.233)" fill="#282828"/>
        <path id="Trazado_825996" data-name="Trazado 825996" d="M180.134,247.216l4.592-.072a1.97,1.97,0,0,0,1.341-.555,1.9,1.9,0,0,0-1.341-3.236l-4.592.071a1.966,1.966,0,0,0-1.34.555,1.9,1.9,0,0,0,1.34,3.236" transform="translate(-101.964 -139.215)" fill="#ffb1a5"/>
        <path id="Trazado_825997" data-name="Trazado 825997" d="M178.458,254.738h6.889a1.9,1.9,0,0,0,0-3.791h-6.889a1.9,1.9,0,1,0,0,3.791" transform="translate(-101.005 -143.56)" fill="#ffb1a5"/>
        <path id="Trazado_825998" data-name="Trazado 825998" d="M180.468,262.167l5.455-.113a1.9,1.9,0,0,0,0-3.791l-5.455.113a1.9,1.9,0,0,0,0,3.791" transform="translate(-102.155 -147.744)" fill="#ffb1a5"/>
        <path id="Trazado_825999" data-name="Trazado 825999" d="M180.806,270.166h2.01a1.947,1.947,0,0,0,1.9-1.9q-.033-.252-.068-.5a1.892,1.892,0,0,0-.487-.837,1.969,1.969,0,0,0-1.34-.555h-2.01a1.949,1.949,0,0,0-1.9,1.9q.034.252.068.5a1.9,1.9,0,0,0,.488.837,1.97,1.97,0,0,0,1.34.555" transform="translate(-102.349 -152.384)" fill="#ffb1a5"/>
        <path id="Trazado_826000" data-name="Trazado 826000" d="M271.437,243.424l-4.592-.072a1.9,1.9,0,0,0,0,3.791l4.592.072a1.9,1.9,0,1,0,0-3.791" transform="translate(-151.569 -139.214)" fill="#ffb1a5"/>
        <path id="Trazado_826001" data-name="Trazado 826001" d="M270.042,250.948h-6.889a1.9,1.9,0,0,0,0,3.791h6.889a1.9,1.9,0,0,0,0-3.791" transform="translate(-149.457 -143.56)" fill="#ffb1a5"/>
        <path id="Trazado_826002" data-name="Trazado 826002" d="M269.95,258.377l-5.455-.113a1.9,1.9,0,1,0,0,3.791l5.455.113a1.9,1.9,0,1,0,0-3.791" transform="translate(-150.225 -147.745)" fill="#ffb1a5"/>
        <path id="Trazado_826003" data-name="Trazado 826003" d="M274.219,266.374h-2.01a1.947,1.947,0,0,0-1.9,1.9q.033.252.068.5a1.891,1.891,0,0,0,.487.837,1.969,1.969,0,0,0,1.34.555h2.01a1.949,1.949,0,0,0,1.9-1.9q-.034-.252-.068-.5a1.9,1.9,0,0,0-.488-.837,1.97,1.97,0,0,0-1.34-.555" transform="translate(-154.638 -152.384)" fill="#ffb1a5"/>
        <path id="Trazado_826004" data-name="Trazado 826004" d="M454.695,160.521c2.658-9.289,5.479-23.281,7.979-28.453,2.368,1.535,4.741,3.064,7.161,4.515.163.1.329.191.494.287l-5.8,26.035c-.451,2.33-3.8,3.466-6.894,3.055-2.149-.285-3.58-3.192-2.937-5.439" transform="translate(-260.029 -75.552)" fill="#ffb1a5"/>
        <path id="Trazado_826005" data-name="Trazado 826005" d="M472.119,132.813l7.425-15.709,1.719-11.551c-3.106-.129-7.353.266-10.739,2.7-3.079,2.192-7.692,9-9.8,21.67,3.511,3.58,11.4,2.891,11.4,2.891" transform="translate(-263.565 -60.372)" fill="#fff"/>
        <path id="Trazado_826006" data-name="Trazado 826006" d="M455.383,223.546l-1.007-28.686c.468-4.16,3.133-5.007,6.392-5.358,2.261-.244,4.262,3.734,3.987,6.487-1.037,10.374-2.287,22.967-3.377,27.548Z" transform="translate(-259.935 -108.402)" fill="#ffb1a5"/>
        <path id="Trazado_826007" data-name="Trazado 826007" d="M456.257,269.06l5.994-.009.411,8.059-3.52,6.055-3.239-.422Z" transform="translate(-260.809 -153.916)" fill="#ffb1a5"/>
        <path id="Trazado_826008" data-name="Trazado 826008" d="M469.141,286.094q-.784-3.448-1.568-6.895a1.911,1.911,0,0,0-2.332-1.324,1.937,1.937,0,0,0-1.324,2.332l1.568,6.895a1.911,1.911,0,0,0,2.332,1.324,1.938,1.938,0,0,0,1.324-2.332" transform="translate(-265.362 -158.921)" fill="#ffb1a5"/>
        <path id="Trazado_826009" data-name="Trazado 826009" d="M460.426,296.9c-.027-.16-.05-.32-.077-.48q-.048-.332,0,.023-.016-.121-.03-.241-.058-.483-.1-.969-.08-1.012-.077-2.027,0-.974.086-1.946a8.609,8.609,0,0,1,.1-.968c-.092.454.019-.125.034-.218.029-.187.061-.373.094-.559a1.94,1.94,0,0,0-1.324-2.332,1.92,1.92,0,0,0-2.332,1.324,27.41,27.41,0,0,0-.033,9.4,1.9,1.9,0,0,0,2.332,1.324,1.95,1.95,0,0,0,1.324-2.332" transform="translate(-261.082 -164.262)" fill="#ffb1a5"/>
        <path id="Trazado_826010" data-name="Trazado 826010" d="M460.221,298.663a24.466,24.466,0,0,1-.727-2.828,16.815,16.815,0,0,1-.332-2.694,24.672,24.672,0,0,1,0-2.933,17.064,17.064,0,0,1,.342-2.692,1.9,1.9,0,1,0-3.656-1.008,26.679,26.679,0,0,0,.713,13.163,1.9,1.9,0,0,0,3.656-1.008" transform="translate(-260.491 -163.118)" fill="#ffb1a5"/>
        <path id="Trazado_826011" data-name="Trazado 826011" d="M587.466,151.166c-5.282-9.054-12-23.009-16.009-27.778-2.079,2.248-4.164,4.49-6.32,6.665-.146.147-.3.289-.442.434l13.072,25.818c1.1,2.328,4.92,2.627,8.066,1.366,2.184-.876,2.909-4.314,1.632-6.5" transform="translate(-323.046 -70.587)" fill="#ffb1a5"/>
        <path id="Trazado_826012" data-name="Trazado 826012" d="M614.378,126.114l-8.927,29.835c-1.925,4.113-4.959,4.058-8.43,3.288-2.409-.534-3.084-5.319-1.845-8.053,4.668-10.3,10.326-22.812,13.037-27.142Z" transform="translate(-340.136 -70.961)" fill="#ffb1a5"/>
        <path id="Trazado_826013" data-name="Trazado 826013" d="M571.343,125.454c-4.252-8.274-7.464-14.725-10.943-17.2-3.386-2.433-7.633-2.828-10.739-2.7l1.72,11.551,8.326,17.617q5.752-4.716,11.636-9.266" transform="translate(-314.445 -60.371)" fill="#fff"/>
        <path id="Trazado_826014" data-name="Trazado 826014" d="M518.813,84.571h0V73.364H507.8V84.571l-5.38,2.085s.95,6.465,11,6.6,11.02-6.4,11.02-6.4Z" transform="translate(-287.418 -41.969)" fill="#ffb1a5"/>
        <path id="Trazado_826015" data-name="Trazado 826015" d="M526,73.364H514.989v5.229l.195.587c.45,1.354,1.749,4.166,4.876,4.579,3.888.513,5.448-3.259,5.892-4.667L526,78.9Z" transform="translate(-294.61 -41.969)" fill="#282828"/>
        <path id="Trazado_826016" data-name="Trazado 826016" d="M520.858,109.1a5.573,5.573,0,0,0-2.949-4.874l-.031-.017a19.575,19.575,0,0,0-5.967-1.688,7.1,7.1,0,0,1-2.156,1.811,13.478,13.478,0,0,1-6.228,1.331c-3.4-.034-7.381-.207-9.309-3.187a20.1,20.1,0,0,0-6.269,1.733l-.031.017a5.572,5.572,0,0,0-2.949,4.874l-.725,57.9h37.339Z" transform="translate(-277.022 -58.623)" fill="#fff"/>
        <path id="Trazado_826017" data-name="Trazado 826017" d="M486.911,354.67h15.243l1.1-101.413H484.975l.354,58.592Z" transform="translate(-277.44 -144.881)" fill="#407ad6"/>
        <path id="Línea_1178" data-name="Línea 1178" d="M.064,11.426h-.95V0h.95Z" transform="translate(220.941 130.759)" fill="#fff"/>
        <path id="Trazado_826018" data-name="Trazado 826018" d="M507.915,456.236l-.942-.127,2.393-17.8,2.768-20.591.942.127-2.768,20.591Z" transform="translate(-290.12 -238.978)" fill="#fff"/>
        <path id="Trazado_826019" data-name="Trazado 826019" d="M488.234,269.774a.664.664,0,0,1-.281-1.265,12.718,12.718,0,0,0,6.209-6.391.664.664,0,0,1,1.218.527,14.022,14.022,0,0,1-6.866,7.066A.661.661,0,0,1,488.234,269.774Z" transform="translate(-279.059 -149.856)" fill="#282828"/>
        <path id="Trazado_826020" data-name="Trazado 826020" d="M493.452,393.249a24.32,24.32,0,0,1-4.747-.468.664.664,0,0,1,.26-1.3,22.831,22.831,0,0,0,9,0,.664.664,0,0,1,.261,1.3,24.341,24.341,0,0,1-4.758.472Z" transform="translate(-279.402 -224.078)" fill="#282828"/>
        <path id="Trazado_826021" data-name="Trazado 826021" d="M545.124,351.347l1.6-38.106-.078-59.983H528.366l1.067,98.089Z" transform="translate(-302.263 -144.881)" fill="#407ad6"/>
        <path id="Línea_1179" data-name="Línea 1179" d="M.064,35.886h-.95V0h.95Z" transform="translate(243.267 127.644)" fill="#fff"/>
        <path id="Trazado_826022" data-name="Trazado 826022" d="M533.084,393.851l-2.076-.26.118-.943,2.077.26Z" transform="translate(-303.786 -224.718)" fill="#fff"/>
        <path id="Trazado_826023" data-name="Trazado 826023" d="M531.534,397.77l-1.162-1.448-1.5-1.872.741-.595,1.5,1.872,1.162,1.448Z" transform="translate(-302.626 -225.373)" fill="#fff"/>
        <path id="Trazado_826024" data-name="Trazado 826024" d="M557.785,458.115l-.95-.036q.58-15.315,1.16-30.629l.95.036Q558.365,442.8,557.785,458.115Z" transform="translate(-318.645 -244.536)" fill="#fff"/>
        <path id="Trazado_826025" data-name="Trazado 826025" d="M538.191,477.578l-.93-.193,3.146-15.158,2.823-13.6.93.193-2.823,13.6Z" transform="translate(-307.445 -256.663)" fill="#fff"/>
        <path id="Trazado_826026" data-name="Trazado 826026" d="M555.017,269.774a.661.661,0,0,1-.281-.062,14.021,14.021,0,0,1-6.866-7.066.664.664,0,1,1,1.218-.527,12.718,12.718,0,0,0,6.209,6.391.664.664,0,0,1-.281,1.265Z" transform="translate(-313.524 -149.856)" fill="#282828"/>
        <path id="Trazado_826027" data-name="Trazado 826027" d="M551.254,395.518h-.011l-8.905-.145a.664.664,0,0,1,.011-1.327h.011l8.905.145a.664.664,0,0,1-.011,1.327Z" transform="translate(-310.016 -225.556)" fill="#282828"/>
        <rect id="Rectángulo_378611" data-name="Rectángulo 378611" width="17.634" height="13.263" transform="translate(217.527 108.376)" fill="#407ad6"/>
        <path id="Trazado_826028" data-name="Trazado 826028" d="M501.118,102.674a24.988,24.988,0,0,0-3.868.884v63.555h3.868Z" transform="translate(-284.462 -58.737)" fill="#407ad6"/>
        <path id="Trazado_826029" data-name="Trazado 826029" d="M549.956,102.674a24.989,24.989,0,0,1,3.868.884v63.555h-3.868Z" transform="translate(-314.614 -58.737)" fill="#407ad6"/>
        <rect id="Rectángulo_378612" data-name="Rectángulo 378612" width="25.952" height="39.517" transform="translate(212.936 70.579)" fill="#407ad6"/>
        <path id="Línea_1180" data-name="Línea 1180" d="M14.783.09H-.574a.664.664,0,0,1-.664-.664.664.664,0,0,1,.664-.664H14.783a.664.664,0,0,1,.664.664A.664.664,0,0,1,14.783.09Z" transform="translate(218.532 75.875)" fill="#282828"/>
        <path id="Línea_1181" data-name="Línea 1181" d="M11.589.09H-.574a.664.664,0,0,1-.664-.664.664.664,0,0,1,.664-.664H11.589a.664.664,0,0,1,.664.664A.664.664,0,0,1,11.589.09Z" transform="translate(220.564 122.213)" fill="#282828"/>
        <path id="Trazado_826030" data-name="Trazado 826030" d="M501.083,500.284H488.8l-2.457-28.615h17.776Z" transform="translate(-278.222 -269.828)" fill="#e2dddd"/>
        <path id="Trazado_826031" data-name="Trazado 826031" d="M499.183,525.364s-2.224-6.536-6.99-7-11.439,2.568-11.863,6.186-.53,6.536-.53,6.536h19.383Z" transform="translate(-274.48 -296.512)" fill="#cbcbcb"/>
        <path id="Trazado_826032" data-name="Trazado 826032" d="M531.93,500.284h12.284l2.457-28.615H528.9Z" transform="translate(-302.566 -269.828)" fill="#e2dddd"/>
        <path id="Trazado_826033" data-name="Trazado 826033" d="M530.732,525.364s2.224-6.536,6.99-7,11.439,2.568,11.863,6.186.53,6.536.53,6.536H530.732Z" transform="translate(-303.616 -296.512)" fill="#cbcbcb"/>
        <path id="Línea_1182" data-name="Línea 1182" d="M-.411,49.99H-.418a.475.475,0,0,1-.468-.483L-.1-.418A.475.475,0,0,1,.381-.886.475.475,0,0,1,.849-.4L.064,49.522A.475.475,0,0,1-.411,49.99Z" transform="translate(207.792 58.613)" fill="#282828"/>
        <path id="Línea_1183" data-name="Línea 1183" d="M2.02,6.707A.475.475,0,0,1,1.574,6.4L-.857-.248a.475.475,0,0,1,.283-.61.475.475,0,0,1,.61.283L2.466,6.069a.476.476,0,0,1-.446.639Z" transform="translate(205.991 61.522)" fill="#282828"/>
        <path id="Línea_1184" data-name="Línea 1184" d="M.334,49.99a.475.475,0,0,1-.475-.468L-.886-.4A.475.475,0,0,1-.418-.886a.475.475,0,0,1,.482.468L.81,49.507a.475.475,0,0,1-.468.482Z" transform="translate(244.215 58.613)" fill="#282828"/>
        <path id="Línea_1185" data-name="Línea 1185" d="M-.411,6.707a.474.474,0,0,1-.164-.029.475.475,0,0,1-.283-.61L1.579-.575a.475.475,0,0,1,.61-.283.475.475,0,0,1,.283.61L.035,6.4A.475.475,0,0,1-.411,6.707Z" transform="translate(244.362 61.522)" fill="#282828"/>
        <path id="Trazado_826034" data-name="Trazado 826034" d="M551.176,55.683a2.457,2.457,0,0,1,3.046-.8c2.052.778,1.124,5.759-1.953,6.395a2.434,2.434,0,0,1-1.968-.515s.757-3.68.875-5.076" transform="translate(-314.811 -31.272)" fill="#cf8079"/>
        <path id="Trazado_826035" data-name="Trazado 826035" transform="translate(-59.798 -6.411)" fill="#282828"/>
        <path id="Trazado_826036" data-name="Trazado 826036" d="M497.741,55.683a2.456,2.456,0,0,0-3.045-.8c-2.052.778-1.123,5.759,1.953,6.395a2.434,2.434,0,0,0,1.968-.515s-.757-3.68-.876-5.076" transform="translate(-282.374 -31.272)" fill="#cf8079"/>
        <path id="Trazado_826037" data-name="Trazado 826037" d="M499.475,61.247a.664.664,0,0,1-.6-.376,2.756,2.756,0,0,0-1.517-1.579,1.252,1.252,0,0,0-.612-.036.664.664,0,0,1-.42-1.259,2.479,2.479,0,0,1,1.411.023,3.925,3.925,0,0,1,2.335,2.275.664.664,0,0,1-.6.952Z" transform="translate(-283.809 -33.261)" fill="#282828"/>
        <path id="Trazado_826038" data-name="Trazado 826038" d="M524.165,33.225c0,3-.294,9.286-2.14,13.015a9.2,9.2,0,0,1-8.359,5.5c-3.759.112-6.559-1.336-8.8-5.881s-2.137-12.577-2.137-12.577,0-10.728,10.6-10.728c11.168,0,10.836,10.673,10.836,10.673" transform="translate(-287.595 -12.901)" fill="#ffb1a5"/>
        <path id="Trazado_826039" data-name="Trazado 826039" d="M526.489,61.205a1.132,1.132,0,0,1-1.061-.7,1.174,1.174,0,0,1-.083-.435V57.592a.356.356,0,1,1,.713,0v2.483a.461.461,0,0,0,.033.171.444.444,0,0,0,.531.229l.823-.219a.356.356,0,1,1,.183.689l-.823.219A1.224,1.224,0,0,1,526.489,61.205Z" transform="translate(-300.606 -32.815)" fill="#282828"/>
        <path id="Trazado_826040" data-name="Trazado 826040" d="M516.111,58.159a.965.965,0,1,1-.965-.965.965.965,0,0,1,.965.965" transform="translate(-294.148 -32.719)" fill="#282828"/>
        <path id="Trazado_826041" data-name="Trazado 826041" d="M537.258,58.159a.965.965,0,1,1-.965-.965.965.965,0,0,1,.965.965" transform="translate(-306.246 -32.719)" fill="#282828"/>
        <path id="Trazado_826042" data-name="Trazado 826042" d="M531.81,45.6l6.49,1.677s-.3-1.82-2.95-2.482-3.54.805-3.54.805" transform="translate(-304.233 -25.53)" fill="#282828"/>
        <path id="Trazado_826043" data-name="Trazado 826043" d="M513.71,45.6l-6.49,1.677s.3-1.82,2.95-2.482,3.54.805,3.54.805" transform="translate(-290.166 -25.53)" fill="#282828"/>
        <path id="Línea_1186" data-name="Línea 1186" d="M3.386,5.352A.356.356,0,0,1,3.094,5.2L-.6-.1A.356.356,0,0,1-.512-.6a.356.356,0,0,1,.5.089l3.694,5.3a.356.356,0,0,1-.292.56Z" transform="translate(214.847 23.58)" fill="#282828"/>
        <path id="Trazado_826044" data-name="Trazado 826044" d="M505.969,75.338a.357.357,0,0,1-.329-.219c-.77-1.837-2.079-5.407-2.092-5.443a.356.356,0,1,1,.669-.245c.013.036,1.317,3.591,2.081,5.413a.357.357,0,0,1-.329.494Z" transform="translate(-288.124 -39.658)" fill="#282828"/>
        <path id="Línea_1187" data-name="Línea 1187" d="M-.308,5.228a.355.355,0,0,1-.208-.067.356.356,0,0,1-.081-.5L3.14-.517a.356.356,0,0,1,.5-.081.356.356,0,0,1,.081.5L-.019,5.08A.356.356,0,0,1-.308,5.228Z" transform="translate(233.718 23.703)" fill="#282828"/>
        <path id="Trazado_826045" data-name="Trazado 826045" d="M546.041,75.41a.357.357,0,0,1-.328-.494c.77-1.838,2.459-5.356,2.476-5.392a.356.356,0,0,1,.643.309c-.017.035-1.7,3.538-2.461,5.359A.357.357,0,0,1,546.041,75.41Z" transform="translate(-312.242 -39.729)" fill="#282828"/>
        <path id="Trazado_826046" data-name="Trazado 826046" d="M516.865,75.133s3.575.021,8.111-4.259l-.216-7.037-7.895-1.694-7.9,1.694-.216,7.037c4.536,4.281,8.111,4.259,8.111,4.259" transform="translate(-291.043 -35.55)" fill="#243d66"/>
        <path id="Trazado_826047" data-name="Trazado 826047" d="M511.276,8.778c-11.982,0-11.982,13.493-11.982,13.493s-.007.606.019,1.6a1.834,1.834,0,0,0,1.73,1.876h.594c3.239-7.751,16.054-6.907,20.135,0a1.828,1.828,0,0,0,1.73-1.87c.015-.62.021-1.186.02-1.681,0,0,.375-13.422-12.246-13.422" transform="translate(-285.631 -5.022)" fill="#243d66"/>
        <path id="Trazado_826048" data-name="Trazado 826048" d="M522.851,35.524a16.97,16.97,0,0,0-8.937-4.679,17.16,17.16,0,0,0-10.248,1.379,16.643,16.643,0,0,0-4.694,3.3,1.9,1.9,0,1,0,2.681,2.681c.246-.244.5-.482.758-.71.13-.114.264-.224.4-.334.013-.011.237-.187.08-.065s.128-.092.154-.112a15.137,15.137,0,0,1,1.913-1.182c.308-.16.621-.306.938-.447.2-.09-.023.012-.054.023.081-.03.161-.064.242-.095q.283-.108.57-.206a15.146,15.146,0,0,1,2.093-.546c.17-.032.341-.056.512-.086.222-.038-.044.006-.075.01l.258-.029q.56-.057,1.123-.071c.375-.009.751,0,1.125.017q.259.014.518.037c.117.011.629.075.27.023a15.289,15.289,0,0,1,2.113.461q.5.147.986.328c.075.028.485.186.338.127-.19-.076.074.032.092.04.105.047.211.095.315.144a15.173,15.173,0,0,1,2.175,1.25c.166.115.329.234.491.354-.258-.192.149.125.226.189.332.279.649.573.956.879a1.9,1.9,0,1,0,2.681-2.681" transform="translate(-285.135 -17.499)" fill="#fff"/>
        <path id="Trazado_826049" data-name="Trazado 826049" d="M629.74,129.044l-3.318-6.5,5.408-8.137,1.9,2.09,1.5,4.307c-.67,0-2.43,3.088-3.1,3.088Z" transform="translate(-358.358 -65.451)" fill="#ffb1a5"/>
        <path id="Trazado_826050" data-name="Trazado 826050" d="M623.109,106.3l4.877,7.769a1.9,1.9,0,0,0,3.274-1.914l-4.877-7.769a1.9,1.9,0,1,0-3.274,1.914" transform="translate(-356.313 -59.177)" fill="#cf8079"/>
        <path id="Trazado_826051" data-name="Trazado 826051" d="M636.878,255.783V56.23a1.934,1.934,0,1,0-3.868,0V255.783a1.934,1.934,0,1,0,3.868,0" transform="translate(-362.127 -31.061)" fill="#a37768"/>
        <path id="Trazado_826052" data-name="Trazado 826052" d="M583.369,22.86a19.249,19.249,0,0,0-6.333-14.123l.633-.709a20.184,20.184,0,0,1,6.65,14.831Z" transform="translate(-330.169 -4.664)" fill="#fff"/>
        <path id="Trazado_826053" data-name="Trazado 826053" d="M588.356,22.22a31.319,31.319,0,0,0-3.833-13.34l.832-.459A32.275,32.275,0,0,1,589.3,22.168Z" transform="translate(-334.472 -4.864)" fill="#fff"/>
        <path id="Trazado_826054" data-name="Trazado 826054" d="M593.107,7.031l32.038,8.162a2.6,2.6,0,0,1,1.959,2.6l-.439,13.814L590.053,22.3V9.4a2.449,2.449,0,0,1,3.054-2.373" transform="translate(-337.552 -3.978)" fill="#fff"/>
        <path id="Trazado_826055" data-name="Trazado 826055" d="M674.95,29.722c-1.073,4.1-2.953,7.93-4.026,12.03a1.138,1.138,0,0,0,2.194.6c1.073-4.1,2.953-7.93,4.026-12.03a1.138,1.138,0,0,0-2.194-.6" transform="translate(-383.792 -16.541)" fill="#fff"/>
        <path id="Trazado_826056" data-name="Trazado 826056" d="M670.666,42.637q-.032,0-.065,0a.664.664,0,0,1-.6-.725l1.2-12.288a.664.664,0,1,1,1.321.129l-1.2,12.288A.664.664,0,0,1,670.666,42.637Z" transform="translate(-383.423 -16.736)" fill="#282828"/>
        <path id="Trazado_826057" data-name="Trazado 826057" d="M673.739,49.613a.664.664,0,0,1-.618-.9,30.455,30.455,0,0,1,6.045-9.658.664.664,0,1,1,.973.9,29.327,29.327,0,0,0-5.781,9.235A.664.664,0,0,1,673.739,49.613Z" transform="translate(-385.181 -22.353)" fill="#282828"/>
        <path id="Trazado_826058" data-name="Trazado 826058" d="M662.716,37.733h-.022a.664.664,0,0,1-.642-.685q.1-3.2.209-6.4l.176-5.372a.664.664,0,1,1,1.327.043l-.175,5.372q-.1,3.2-.209,6.4A.664.664,0,0,1,662.716,37.733Z" transform="translate(-378.875 -14.225)" fill="#282828"/>
        <path id="Trazado_826059" data-name="Trazado 826059" d="M657.285,38.573a.664.664,0,0,1-.663-.637q-.254-6.315-.508-12.63a.664.664,0,0,1,1.326-.053q.254,6.315.508,12.63a.664.664,0,0,1-.637.69Z" transform="translate(-375.478 -14.216)" fill="#282828"/>
        <path id="Trazado_826060" data-name="Trazado 826060" d="M648.106,35.389a.664.664,0,0,1-.663-.655l-.15-11.436a.664.664,0,1,1,1.327-.017l.15,11.436a.664.664,0,0,1-.655.672Z" transform="translate(-370.431 -13.078)" fill="#282828"/>
        <path id="Trazado_826061" data-name="Trazado 826061" d="M640.7,35.728a.664.664,0,0,1-.664-.658L639.9,19.709a.664.664,0,0,1,.658-.67h.006a.664.664,0,0,1,.664.658l.139,15.361a.664.664,0,0,1-.658.67Z" transform="translate(-366.202 -11.026)" fill="#282828"/>
        <path id="Trazado_826062" data-name="Trazado 826062" d="M630.014,32.252a.664.664,0,0,1-.663-.645q-.081-2.861-.163-5.723-.076-2.686-.153-5.372a.664.664,0,0,1,.645-.682h.019a.664.664,0,0,1,.663.645l.153,5.372q.081,2.861.163,5.722a.664.664,0,0,1-.645.682Z" transform="translate(-359.987 -11.478)" fill="#282828"/>
        <path id="Trazado_826063" data-name="Trazado 826063" d="M622.038,35.678a.664.664,0,0,1-.664-.664V25.286a.664.664,0,1,1,1.327,0v9.729A.664.664,0,0,1,622.038,35.678Z" transform="translate(-355.605 -14.22)" fill="#282828"/>
        <path id="Trazado_826064" data-name="Trazado 826064" d="M613.96,25.359h-.009a.664.664,0,0,1-.655-.672q.05-3.869.1-7.737l.083-6.429a.664.664,0,0,1,.664-.655h.009a.664.664,0,0,1,.655.672l-.083,6.429q-.05,3.869-.1,7.737A.664.664,0,0,1,613.96,25.359Z" transform="translate(-350.983 -5.778)" fill="#282828"/>
        <path id="Trazado_826065" data-name="Trazado 826065" d="M604.631,22.939a.664.664,0,0,1-.662-.624l-.848-14.177a.664.664,0,1,1,1.325-.079l.848,14.177a.664.664,0,0,1-.623.7Z" transform="translate(-345.161 -4.387)" fill="#282828"/>
        <path id="Trazado_826066" data-name="Trazado 826066" d="M596.039,22.258a.664.664,0,0,1-.657-.573l-.994-7.2L593.521,8.2a.664.664,0,1,1,1.315-.182L595.7,14.3l.994,7.2a.664.664,0,0,1-.658.755Z" transform="translate(-339.667 -4.393)" fill="#282828"/>
        <path id="Trazado_826067" data-name="Trazado 826067" d="M591.956,21.22a.664.664,0,0,1-.657-.577v-.006q-.844-6.4-1.688-12.8a.664.664,0,0,1,1.316-.174q.845,6.4,1.688,12.8v.006a.664.664,0,0,1-.659.751Z" transform="translate(-337.43 -4.19)" fill="#282828"/>
        <path id="Trazado_826068" data-name="Trazado 826068" d="M584.485,28.515a.671.671,0,0,1-.08,0,.664.664,0,0,1-.58-.738,8.112,8.112,0,0,0-4.591-8.1.664.664,0,0,1,.541-1.212,9.408,9.408,0,0,1,5.368,9.467A.664.664,0,0,1,584.485,28.515Z" transform="translate(-331.272 -10.663)" fill="#282828"/>
        <path id="Trazado_826069" data-name="Trazado 826069" d="M590.053,41.014l37.116,9.456a2.94,2.94,0,0,1-3.666,2.849L592.267,45.36a2.939,2.939,0,0,1-2.214-2.849Z" transform="translate(-337.552 -23.463)" fill="#ff8542"/>
        <path id="Trazado_826070" data-name="Trazado 826070" d="M636.451,109.195l-4.592-.072a1.9,1.9,0,1,0,0,3.791l4.592.072a1.9,1.9,0,1,0,0-3.791" transform="translate(-360.383 -62.426)" fill="#ffb1a5"/>
        <path id="Trazado_826071" data-name="Trazado 826071" d="M635.056,116.718h-6.889a1.9,1.9,0,0,0,0,3.791h6.889a1.9,1.9,0,0,0,0-3.791" transform="translate(-358.271 -66.771)" fill="#ffb1a5"/>
        <path id="Trazado_826072" data-name="Trazado 826072" d="M634.964,124.146l-5.455-.113a1.9,1.9,0,0,0,0,3.791l5.455.113a1.9,1.9,0,1,0,0-3.791" transform="translate(-359.039 -70.956)" fill="#ffb1a5"/>
        <path id="Trazado_826073" data-name="Trazado 826073" d="M630.059,135.31c1.754-.321,3.517-.646,5.245-1.087a1.422,1.422,0,0,0-.756-2.742c-1.728.441-3.491.766-5.245,1.087a1.429,1.429,0,0,0-.993,1.749,1.46,1.46,0,0,0,1.749.993" transform="translate(-359.407 -75.189)" fill="#ffb1a5"/>
        <path id="Trazado_826074" data-name="Trazado 826074" d="M412.559,73.864h-12.8V48.518a6.4,6.4,0,1,1,12.8,0Z" transform="translate(-228.692 -24.095)" fill="#282828"/>
        <path id="Trazado_826075" data-name="Trazado 826075" d="M373.867,176.247c-.2-9.66-1.5-17.6-.632-23.277,2.716.769,5.433,1.529,8.174,2.2.185.045.371.086.556.129l1.487,18.479c0,4.409-2.093,6.277-5.175,6.8-2.138.362-4.362-1.994-4.41-4.331" transform="translate(-213.349 -87.51)" fill="#cb826e"/>
        <path id="Trazado_826076" data-name="Trazado 826076" d="M382.769,134.092,386.953,103s-11.1,3.444-15.089,9.8c-2.778,4.389-3.973,10.614-4.354,21.29Z" transform="translate(-210.242 -58.924)" fill="#243d66"/>
        <path id="Trazado_826077" data-name="Trazado 826077" d="M481.5,176.247c.2-9.66,1.5-17.6.632-23.277-2.716.769-5.433,1.529-8.174,2.2-.185.045-.371.086-.556.129l-1.487,18.479c0,4.409,2.093,6.277,5.174,6.8,2.138.362,4.362-1.994,4.41-4.331" transform="translate(-269.968 -87.51)" fill="#cb826e"/>
        <path id="Trazado_826078" data-name="Trazado 826078" d="M456.833,134.092,452.649,103s11.1,3.444,15.088,9.8c2.778,4.389,3.973,10.614,4.354,21.29Z" transform="translate(-258.947 -58.924)" fill="#243d66"/>
        <path id="Trazado_826079" data-name="Trazado 826079" d="M487.982,161.463h4.128c-.083-1.306-.186-2.527-.305-3.687h-3.823Z" transform="translate(-279.16 -90.259)" fill="#ffe072"/>
        <path id="Trazado_826080" data-name="Trazado 826080" d="M426.741,106.282s-5.577-2.607-6.488-3c-5.394-1.932-14.92-2.629-22.022-.2-.831.416-6.488,3.2-6.488,3.2V168.93h35Z" transform="translate(-224.104 -58.083)" fill="#243d66"/>
        <path id="Línea_1188" data-name="Línea 1188" d="M-.411,56.146a.475.475,0,0,1-.475-.475V-.411A.475.475,0,0,1-.411-.886a.475.475,0,0,1,.475.475V55.671A.475.475,0,0,1-.411,56.146Z" transform="translate(185.233 54.247)" fill="#fff"/>
        <rect id="Rectángulo_378613" data-name="Rectángulo 378613" width="7.17" height="1.619" transform="translate(191.408 60.062)" fill="#ffe072"/>
        <path id="Trazado_826081" data-name="Trazado 826081" d="M428.636,192.786a.474.474,0,0,1-.163-.029,29.126,29.126,0,0,1-18.137-20.916.475.475,0,0,1,.93-.2,28.225,28.225,0,0,0,17.534,20.22.475.475,0,0,1-.163.922Z" transform="translate(-234.832 -98.073)" fill="#fff"/>
        <path id="Línea_1189" data-name="Línea 1189" d="M-.411,50.732a.475.475,0,0,1-.475-.475V-.411A.475.475,0,0,1-.411-.886a.475.475,0,0,1,.475.475V50.257A.475.475,0,0,1-.411,50.732Z" transform="translate(202.741 58.723)" fill="#fff"/>
        <path id="Trazado_826082" data-name="Trazado 826082" d="M472.715,143.216a.475.475,0,0,1-.444-.645l2.438-6.392a.475.475,0,0,1,.888.339l-2.438,6.392A.475.475,0,0,1,472.715,143.216Z" transform="translate(-270.251 -77.826)" fill="#fff"/>
        <path id="Línea_1190" data-name="Línea 1190" d="M-.411,50.732a.475.475,0,0,1-.475-.475V-.411A.475.475,0,0,1-.411-.886a.475.475,0,0,1,.475.475V50.257A.475.475,0,0,1-.411,50.732Z" transform="translate(168.158 58.723)" fill="#fff"/>
        <path id="Trazado_826083" data-name="Trazado 826083" d="M388.014,143.216a.475.475,0,0,1-.444-.306l-2.438-6.392a.475.475,0,1,1,.888-.339l2.438,6.392a.476.476,0,0,1-.444.645Z" transform="translate(-220.401 -77.826)" fill="#fff"/>
        <path id="Trazado_826084" data-name="Trazado 826084" d="M430.536,85.3h0V74.1H419.52V85.3l5.622,9.628Z" transform="translate(-239.995 -42.389)" fill="#cb826e"/>
        <path id="Trazado_826085" data-name="Trazado 826085" d="M430.536,74.1H419.52v5.229l.2.587c.449,1.354,1.748,4.166,4.876,4.579,3.888.513,5.448-3.259,5.892-4.667l.053-.187Z" transform="translate(-239.995 -42.389)" fill="#282828"/>
        <path id="Trazado_826086" data-name="Trazado 826086" d="M423.355,93.008v3.114l-5.514,8.519-5.513-8.519V93.008l-5.38,5.2,1.993,7.786,3.773-2.808,5.128,3.846,5.128-3.846,3.773,2.808,1.993-7.786Z" transform="translate(-232.803 -53.207)" fill="#4c6fa8"/>
        <path id="Trazado_826087" data-name="Trazado 826087" d="M417.8,106.988a.475.475,0,0,1-.454-.336l-1.469-4.773a.475.475,0,0,1,.908-.279l1.469,4.773a.476.476,0,0,1-.454.615Z" transform="translate(-237.998 -58.027)" fill="#fff"/>
        <path id="Trazado_826088" data-name="Trazado 826088" d="M445.295,106.1a.475.475,0,0,1-.441-.652l1.652-4.13a.475.475,0,0,1,.882.353l-1.652,4.13A.475.475,0,0,1,445.295,106.1Z" transform="translate(-254.565 -57.888)" fill="#fff"/>
        <path id="Trazado_826089" data-name="Trazado 826089" d="M455.392,56.417s.567-1.582,1.734-.8.64,5.759-1.113,6.395a.961.961,0,0,1-1.12-.515s.431-3.68.5-5.076" transform="translate(-260.231 -31.692)" fill="#965548"/>
        <path id="Trazado_826090" data-name="Trazado 826090" d="M455.228,61.958a.5.5,0,0,1-.483-.634c.353-1.285.831-2.035,1.462-2.292a1.107,1.107,0,0,1,.947.035.5.5,0,0,1-.479.879.176.176,0,0,0-.12.027c-.141.074-.505.38-.844,1.615A.5.5,0,0,1,455.228,61.958Z" transform="translate(-260.237 -33.821)" fill="#282828"/>
        <path id="Trazado_826091" data-name="Trazado 826091" d="M405.539,56.417s-.574-1.582-1.759-.8-.649,5.759,1.128,6.395a.982.982,0,0,0,1.137-.515s-.437-3.68-.506-5.076" transform="translate(-230.629 -31.692)" fill="#965548"/>
        <path id="Trazado_826092" data-name="Trazado 826092" d="M406.435,61.959a.5.5,0,0,1-.486-.369c-.343-1.232-.712-1.538-.855-1.613a.188.188,0,0,0-.13-.028.5.5,0,0,1-.478-.888,1.128,1.128,0,0,1,.96-.032c.636.26,1.118,1.009,1.475,2.29a.5.5,0,0,1-.486.64Z" transform="translate(-231.353 -33.818)" fill="#282828"/>
        <path id="Trazado_826093" data-name="Trazado 826093" d="M428.758,33.958c0,3-.294,9.286-2.14,13.015a9.2,9.2,0,0,1-8.359,5.5c-3.759.112-6.559-1.336-8.8-5.881s-2.137-12.577-2.137-12.577,0-10.728,10.6-10.728c11.168,0,10.836,10.673,10.836,10.673" transform="translate(-233.015 -13.321)" fill="#cb826e"/>
        <path id="Trazado_826094" data-name="Trazado 826094" d="M431.082,64.078a1.131,1.131,0,0,1-1.061-.7,1.172,1.172,0,0,1-.083-.435V58.325a.356.356,0,1,1,.713,0v4.622a.462.462,0,0,0,.033.171.444.444,0,0,0,.531.229l.823-.219a.356.356,0,1,1,.183.689l-.823.219A1.224,1.224,0,0,1,431.082,64.078Z" transform="translate(-246.027 -33.234)" fill="#282828"/>
        <path id="Trazado_826095" data-name="Trazado 826095" d="M420.7,58.893a.965.965,0,1,1-.965-.965.965.965,0,0,1,.965.965" transform="translate(-239.568 -33.139)" fill="#282828"/>
        <path id="Trazado_826096" data-name="Trazado 826096" d="M419.507,59.9a1.234,1.234,0,1,1,1.234-1.234A1.235,1.235,0,0,1,419.507,59.9Zm0-1.931a.7.7,0,1,0,.7.7A.7.7,0,0,0,419.507,57.964Z" transform="translate(-239.337 -32.907)" fill="#282828"/>
        <path id="Trazado_826097" data-name="Trazado 826097" d="M441.852,58.893a.965.965,0,1,1-.965-.965.965.965,0,0,1,.965.965" transform="translate(-251.667 -33.139)" fill="#282828"/>
        <path id="Trazado_826098" data-name="Trazado 826098" d="M440.655,59.9a1.234,1.234,0,1,1,1.234-1.234A1.235,1.235,0,0,1,440.655,59.9Zm0-1.931a.7.7,0,1,0,.7.7A.7.7,0,0,0,440.655,57.964Z" transform="translate(-251.435 -32.907)" fill="#282828"/>
        <path id="Trazado_826099" data-name="Trazado 826099" d="M436.4,47.378l6.49.853s-.3-.926-2.95-1.263-3.54.41-3.54.41" transform="translate(-249.654 -26.819)" fill="#282828"/>
        <path id="Trazado_826100" data-name="Trazado 826100" d="M418.3,47.378l-6.49.853s.3-.926,2.95-1.263,3.54.41,3.54.41" transform="translate(-235.587 -26.819)" fill="#282828"/>
        <path id="Línea_1191" data-name="Línea 1191" d="M3.386,5.352A.356.356,0,0,1,3.094,5.2L-.6-.1A.356.356,0,0,1-.512-.6a.356.356,0,0,1,.5.089l3.694,5.3a.356.356,0,0,1-.292.56Z" transform="translate(174.019 23.894)" fill="#282828"/>
        <path id="Trazado_826101" data-name="Trazado 826101" d="M410.562,76.073a.356.356,0,0,1-.329-.219c-.77-1.837-2.079-5.408-2.092-5.443a.356.356,0,1,1,.669-.245c.013.036,1.316,3.591,2.08,5.413a.357.357,0,0,1-.329.494Z" transform="translate(-233.545 -40.078)" fill="#282828"/>
        <path id="Línea_1192" data-name="Línea 1192" d="M-.308,5.228a.355.355,0,0,1-.208-.067.356.356,0,0,1-.081-.5L3.14-.517a.356.356,0,0,1,.5-.081.356.356,0,0,1,.081.5L-.019,5.08A.356.356,0,0,1-.308,5.228Z" transform="translate(192.891 24.017)" fill="#282828"/>
        <path id="Trazado_826102" data-name="Trazado 826102" d="M450.635,76.143a.357.357,0,0,1-.329-.494c.77-1.838,2.459-5.356,2.476-5.392a.356.356,0,0,1,.643.309c-.017.035-1.7,3.538-2.461,5.359A.357.357,0,0,1,450.635,76.143Z" transform="translate(-257.663 -40.148)" fill="#282828"/>
        <path id="Trazado_826103" data-name="Trazado 826103" d="M421.458,75.867s3.575.021,8.111-4.259l-.216-7.037-7.9-1.694-7.9,1.694-.216,7.037c4.536,4.281,8.111,4.259,8.111,4.259" transform="translate(-236.464 -35.97)" fill="#56edde"/>
        <path id="Trazado_826104" data-name="Trazado 826104" d="M428.758,26.944a11.106,11.106,0,0,0-1.9-4.73,10.865,10.865,0,0,0-3.336-2.6,12.19,12.19,0,0,0-8.414-1.146A11.547,11.547,0,0,0,412.2,19.6a12.421,12.421,0,0,0-3.534,2.91A8.6,8.6,0,0,0,406.5,26.5c-.355,3.693.369,7.275.815,10.928.86-2.971,1.611-6.023,2.479-9.016a11.763,11.763,0,0,0,7.891-.79,11.763,11.763,0,0,0,7.891.79c.868,2.993,1.619,6.044,2.479,9.016.414-3.39,1.326-7.075.7-10.483" transform="translate(-232.493 -10.395)" fill="#282828"/>
        <path id="Trazado_826105" data-name="Trazado 826105" d="M410.728,27.063s9.081,8.379,20.888,12.123a41.024,41.024,0,0,0,.045-7.723,9.8,9.8,0,0,0-6.477-8.513A23.04,23.04,0,0,0,420,21.736c-6.469-.721-9.276,5.326-9.276,5.326" transform="translate(-234.966 -12.4)" fill="#282828"/>
        <path id="Trazado_826106" data-name="Trazado 826106" d="M428.723,21.9H404.7v7.382a34.362,34.362,0,0,0,11.978,2.239h.065a34.362,34.362,0,0,0,11.978-2.239Z" transform="translate(-231.518 -12.528)"/>
        <path id="Trazado_826107" data-name="Trazado 826107" d="M416.746,21.9H404.7v7.382s.425.177,1.167.428a12.88,12.88,0,0,1,2.625-2.238,15.148,15.148,0,0,1,16.438,0,12.888,12.888,0,0,1,2.624,2.238c.742-.251,1.167-.428,1.167-.428V21.9Z" transform="translate(-231.519 -12.528)" fill="#fff"/>
        <path id="Trazado_826108" data-name="Trazado 826108" d="M421.94,7.169s-7.741-.142-11-4.268V2.828c-.01.013-.022.024-.032.036-.01-.013-.022-.024-.033-.036V2.9c-3.257,4.126-11,4.268-11,4.268-.42,5.881-5.322,6.582-5.322,6.582l4.341,4.621A13.782,13.782,0,0,1,403.03,14.7a15.223,15.223,0,0,1,15.76,0,13.79,13.79,0,0,1,4.131,3.669l4.341-4.621s-4.9-.7-5.321-6.582" transform="translate(-225.715 -1.618)" fill="#243d66"/>
        <path id="Trazado_826109" data-name="Trazado 826109" d="M429.593,26.509h0a2.376,2.376,0,0,1-2.377-2.376V20.8a1.342,1.342,0,0,0,2.377,0,1.342,1.342,0,0,0,2.376,0v3.332a2.376,2.376,0,0,1-2.376,2.376" transform="translate(-244.398 -11.9)" fill="#ffe072"/>
        <path id="Trazado_826110" data-name="Trazado 826110" d="M410.647,170.836c6.5,2.2,24.6,7.5,31.805,10.174A5.419,5.419,0,0,1,445.4,188.1c-1.333,3.9-5.537,3.281-6.847,2.241l-28.941-12.932Z" transform="translate(-234.325 -97.73)" fill="#cb826e"/>
        <path id="Trazado_826111" data-name="Trazado 826111" d="M423.019,185.79l9.271,4.142q3.959-3.324,8.159-6.342c-2.671-.847-5.522-1.732-8.3-2.592-3.077,1.535-6.132,3.109-9.129,4.792" transform="translate(-241.997 -103.544)" fill="#282828"/>
        <path id="Trazado_826112" data-name="Trazado 826112" d="M410.427,170.836c-6.5,2.2-24.6,7.5-31.805,10.174a5.419,5.419,0,0,0-2.945,7.093c1.333,3.9,5.537,3.281,6.847,2.241l28.942-12.932Z" transform="translate(-214.7 -97.73)" fill="#cb826e"/>
        <path id="Trazado_826113" data-name="Trazado 826113" d="M397.274,178.252l-.856-3.318-2-.641-.154.037a1.248,1.248,0,0,0-.2-.043,10.649,10.649,0,0,0-8.245,2.556,1.133,1.133,0,0,0,.523,1.948,12.032,12.032,0,0,0-1.759,1.983c-.822,1.164.932,2.388,1.808,1.362.013.989,1.422,1.7,2.058.658a7.113,7.113,0,0,1,3.172-2.863,15.451,15.451,0,0,0-2.294,2.029c-.982,1.066.508,2.787,1.5,1.709a14.231,14.231,0,0,1,2.036-1.817Z" transform="translate(-219.89 -99.663)" fill="#282828"/>
        <path id="Trazado_826114" data-name="Trazado 826114" d="M457.381,170.836l7.269,4.961-.231,3.346-6-1.731Z" transform="translate(-261.655 -97.73)" fill="#cb826e"/>
        <path id="Trazado_826115" data-name="Trazado 826115" d="M404.572,170.829l-.02,7.045,4.248-1.49.695-4.67-1.838-1.012Z" transform="translate(-231.432 -97.654)" fill="#cb826e"/>
        <path id="Trazado_826116" data-name="Trazado 826116" d="M397.1,184.344a14.676,14.676,0,0,1,2.466-1.509c.1-.048.206-.095.309-.141.256-.116-.148.058.006,0l.163-.066q.377-.15.764-.277a15.988,15.988,0,0,1,1.771-.465,1.145,1.145,0,0,0,.794-1.4,1.165,1.165,0,0,0-1.4-.794,15.15,15.15,0,0,0-6.023,2.692,1.166,1.166,0,0,0-.408,1.556,1.149,1.149,0,0,0,1.556.408" transform="translate(-226.188 -102.778)" fill="#cb826e"/>
        <path id="Trazado_826117" data-name="Trazado 826117" d="M391.742,181.276a8.428,8.428,0,0,1,.611-.632c.113-.1.231-.2.349-.3.068-.058.1-.083.011-.013.054-.042.109-.082.164-.122a7.934,7.934,0,0,1,.73-.468q.2-.113.4-.214c.06-.03.122-.06.183-.088.024-.012.275-.119.142-.065-.116.048.079-.029.1-.037l.19-.07c.143-.05.286-.1.432-.139a7.776,7.776,0,0,1,.832-.191c.023,0,.235-.039.1-.018s.074-.008.1-.01c.149-.016.3-.027.449-.033a7.623,7.623,0,0,1,.9.018,1.143,1.143,0,0,0,1.137-1.137,1.165,1.165,0,0,0-1.137-1.137,9,9,0,0,0-7.3,3.052,1.137,1.137,0,1,0,1.609,1.609" transform="translate(-222.998 -101.023)" fill="#cb826e"/>
        <path id="Trazado_826118" data-name="Trazado 826118" d="M387.521,178.455a8.687,8.687,0,0,1,7.77-2.432,1.165,1.165,0,0,0,1.4-.795,1.149,1.149,0,0,0-.794-1.4,11.024,11.024,0,0,0-9.984,3.017,1.138,1.138,0,0,0,1.609,1.609" transform="translate(-220.577 -99.315)" fill="#cb826e"/>
        <path id="Trazado_826119" data-name="Trazado 826119" d="M391.353,172.721a8.076,8.076,0,0,1,6.828-.7,1.138,1.138,0,0,0,.605-2.194,10.4,10.4,0,0,0-8.581.933,1.138,1.138,0,1,0,1.148,1.964" transform="translate(-222.906 -96.848)" fill="#cb826e"/>
        <path id="Trazado_826120" data-name="Trazado 826120" d="M391.312,253.258l-.086.064.425,58.528,2.145,60.756h13.752l1.241-119.348Z" transform="translate(-223.809 -144.881)" fill="#243d66"/>
        <path id="Trazado_826121" data-name="Trazado 826121" d="M399.5,393.249a22.318,22.318,0,0,1-4.55-.47.664.664,0,0,1,.271-1.3,20.832,20.832,0,0,0,8.577,0,.664.664,0,0,1,.272,1.3,22.341,22.341,0,0,1-4.56.474Z" transform="translate(-225.774 -224.078)" fill="#fff"/>
        <path id="Trazado_826122" data-name="Trazado 826122" d="M432.908,253.258l1.241,119.348h13.926l2.386-59.365.011-59.919-.086-.064Z" transform="translate(-247.654 -144.881)" fill="#243d66"/>
        <path id="Trazado_826123" data-name="Trazado 826123" d="M454.764,395.518h-.012l-8.514-.145a.664.664,0,0,1,.011-1.327h.012l8.514.145a.664.664,0,0,1-.011,1.327Z" transform="translate(-255.041 -225.556)" fill="#fff"/>
        <rect id="Rectángulo_378614" data-name="Rectángulo 378614" width="16.858" height="13.199" transform="translate(177.055 108.44)" fill="#243d66"/>
        <rect id="Rectángulo_378615" data-name="Rectángulo 378615" width="36.469" height="3.072" transform="translate(166.924 107.875)"/>
        <rect id="Rectángulo_378616" data-name="Rectángulo 378616" width="7.498" height="4.162" transform="translate(181.409 107.33)" fill="#ffe072"/>
        <path id="Trazado_826124" data-name="Trazado 826124" d="M394.569,271.56a.475.475,0,0,1-.373-.769l2.484-3.161,1.569-2a.475.475,0,1,1,.747.587l-1.569,2-2.484,3.161A.474.474,0,0,1,394.569,271.56Z" transform="translate(-225.546 -151.953)" fill="#fff"/>
        <path id="Trazado_826125" data-name="Trazado 826125" d="M464.182,271.37a.475.475,0,0,1-.42-.252l-3.331-6.254a.475.475,0,1,1,.839-.447l3.331,6.254a.475.475,0,0,1-.419.7Z" transform="translate(-263.463 -151.217)" fill="#fff"/>
        <path id="Línea_1193" data-name="Línea 1193" d="M11.054.09H-.574a.664.664,0,0,1-.664-.664.664.664,0,0,1,.664-.664H11.054a.664.664,0,0,1,.664.664A.664.664,0,0,1,11.054.09Z" transform="translate(179.984 122.213)" fill="#fff"/>
        <path id="Trazado_826126" data-name="Trazado 826126" d="M405.009,525.364s-2.126-6.536-6.683-7-10.935,2.568-11.341,6.186-.506,6.536-.506,6.536h18.53Z" transform="translate(-221.093 -296.512)" fill="#282828"/>
        <path id="Trazado_826127" data-name="Trazado 826127" d="M435.17,525.364s2.126-6.536,6.683-7,10.935,2.568,11.341,6.186.506,6.536.506,6.536H435.17Z" transform="translate(-248.948 -296.512)" fill="#282828"/>
        <path id="Trazado_826128" data-name="Trazado 826128" d="M329.837,85.046H296.212l3.655-55.056h26.315Z" transform="translate(-169.454 -17.156)" fill="#282828"/>
        <path id="Trazado_826129" data-name="Trazado 826129" d="M371.4,112.8c-3.984-6.356-15.088-9.8-15.088-9.8l5.32,39.524c.188,3.581,3.706,5.793,8.429,5.824,3.278.021,5.851-3.067,5.834-6.6-.074-15.533-1.11-23.6-4.495-28.948" transform="translate(-203.836 -58.924)" fill="#fff"/>
        <path id="Trazado_826130" data-name="Trazado 826130" d="M276.685,112.8c3.984-6.356,15.088-9.8,15.088-9.8l-5.32,39.524c-.188,3.581-3.706,5.793-8.429,5.824-3.278.021-5.851-3.067-5.834-6.6.074-15.533,1.11-23.6,4.495-28.948" transform="translate(-155.712 -58.924)" fill="#fff"/>
        <path id="Trazado_826131" data-name="Trazado 826131" d="M294.556,253.258l-.086.064.425,58.528,2.145,60.756h13.752l1.241-119.348Z" transform="translate(-168.458 -144.881)" fill="#243d66"/>
        <path id="Trazado_826132" data-name="Trazado 826132" d="M302.749,393.249a22.317,22.317,0,0,1-4.55-.47.664.664,0,1,1,.271-1.3,20.833,20.833,0,0,0,8.577,0,.664.664,0,1,1,.272,1.3,22.34,22.34,0,0,1-4.56.474Z" transform="translate(-170.423 -224.078)" fill="#282828"/>
        <path id="Trazado_826133" data-name="Trazado 826133" d="M336.152,253.258l1.241,119.348h13.926L353.7,313.24l.011-59.919-.086-.064Z" transform="translate(-192.303 -144.881)" fill="#243d66"/>
        <path id="Trazado_826134" data-name="Trazado 826134" d="M358.008,395.518H358l-8.514-.145a.664.664,0,0,1,.011-1.327h.012l8.514.145a.664.664,0,0,1-.011,1.327Z" transform="translate(-199.69 -225.556)" fill="#282828"/>
        <rect id="Rectángulo_378617" data-name="Rectángulo 378617" width="16.858" height="13.199" transform="translate(135.65 108.44)" fill="#243d66"/>
        <path id="Línea_1194" data-name="Línea 1194" d="M11.054.09H-.574a.664.664,0,0,1-.664-.664.664.664,0,0,1,.664-.664H11.054a.664.664,0,0,1,.664.664A.664.664,0,0,1,11.054.09Z" transform="translate(138.579 122.213)" fill="#282828"/>
        <path id="Trazado_826135" data-name="Trazado 826135" d="M308.253,525.364s-2.126-6.536-6.683-7-10.935,2.568-11.341,6.186-.506,6.536-.506,6.536h18.53Z" transform="translate(-165.742 -296.512)" fill="#282828"/>
        <path id="Trazado_826136" data-name="Trazado 826136" d="M338.414,525.364s2.126-6.536,6.683-7,10.935,2.568,11.341,6.186.506,6.536.506,6.536h-18.53Z" transform="translate(-193.597 -296.512)" fill="#282828"/>
        <path id="Trazado_826137" data-name="Trazado 826137" d="M333.69,104.561a27.407,27.407,0,0,0-2.613-1.339c-4.893-2.154-17.253-2.619-22.01-.179-.81.416-1.573.842-2.29,1.271v64.542H333.69Z" transform="translate(-175.498 -58.008)" fill="#56edde"/>
        <path id="Trazado_826138" data-name="Trazado 826138" d="M328.875,125.138a15.885,15.885,0,0,1-6.606-1.4.475.475,0,0,1,.4-.863,15.428,15.428,0,0,0,12.546-.058.475.475,0,0,1,.406.859,15.871,15.871,0,0,1-6.666,1.462Z" transform="translate(-184.299 -70.33)" fill="#282828"/>
        <path id="Trazado_826139" data-name="Trazado 826139" d="M328.4,85.3h0V74.1H317.385V85.3l-5.38,2.085s.95,6.465,11,6.6,11.02-6.4,11.02-6.4Z" transform="translate(-178.489 -42.389)" fill="#cb826e"/>
        <path id="Trazado_826140" data-name="Trazado 826140" d="M335.593,74.1H324.577v5.229l.2.587c.449,1.354,1.749,4.166,4.876,4.579,3.888.513,5.448-3.259,5.892-4.667l.053-.187Z" transform="translate(-185.681 -42.389)" fill="#282828"/>
        <path id="Trazado_826141" data-name="Trazado 826141" d="M300.674,103.459c-7.58,3.306-9.769,5.436-9.769,5.436l.763,56.409-2.051,64.562h11.057Z" transform="translate(-165.682 -59.186)" fill="#fff"/>
        <path id="Trazado_826142" data-name="Trazado 826142" d="M299.988,189.136a3.217,3.217,0,0,1-3.214-3.214V176.93a.475.475,0,0,1,.475-.475h5.477a.475.475,0,0,1,.475.475v8.992A3.217,3.217,0,0,1,299.988,189.136Zm-2.264-11.73v8.517a2.263,2.263,0,0,0,4.527,0v-8.517Z" transform="translate(-169.872 -101.041)" fill="#282828"/>
        <path id="Trazado_826143" data-name="Trazado 826143" d="M299.988,317.773a3.218,3.218,0,0,1-3.214-3.214v-8.992a.475.475,0,0,1,.475-.475h5.477a.475.475,0,0,1,.475.475v8.992A3.217,3.217,0,0,1,299.988,317.773Zm-2.264-11.731v8.517a2.263,2.263,0,1,0,4.527,0v-8.517Z" transform="translate(-169.872 -174.63)" fill="#282828"/>
        <path id="Línea_1195" data-name="Línea 1195" d="M.5,16.567a.475.475,0,0,1-.474-.449L-.885-.385a.475.475,0,0,1,.448-.5.475.475,0,0,1,.5.448l.911,16.5a.475.475,0,0,1-.448.5Z" transform="translate(125.372 60.767)" fill="#282828"/>
        <path id="Trazado_826144" data-name="Trazado 826144" d="M303.558,229.959a.475.475,0,0,1-.475-.475V135.726a.475.475,0,0,1-.1-.126l-7.141-12.915a.475.475,0,0,1,.032-.51l3.9-5.357-4.729-.681a.475.475,0,0,1-.328-.733l8.446-12.73a.475.475,0,0,1,.871.263V229.484A.475.475,0,0,1,303.558,229.959Zm-6.738-107.468,6.263,11.327v-29.3l-7.16,10.791,4.766.687a.475.475,0,0,1,.316.75Z" transform="translate(-168.649 -58.712)" fill="#282828"/>
        <path id="Trazado_826145" data-name="Trazado 826145" d="M289.545,144.618a.474.474,0,0,1-.384-.194l-.35-.478-.881-1.2a.475.475,0,0,1,.766-.562l.881,1.2.35.478a.475.475,0,0,1-.383.756Z" transform="translate(-164.76 -81.323)" fill="#282828"/>
        <path id="Trazado_826146" data-name="Trazado 826146" d="M358.3,103.075c7.58,3.306,9.768,5.436,9.768,5.436l-.763,56.409,2.052,64.562H358.3Z" transform="translate(-204.975 -58.966)" fill="#fff"/>
        <path id="Trazado_826147" data-name="Trazado 826147" d="M365.628,188.751a3.217,3.217,0,0,1-3.214-3.213v-8.993a.475.475,0,0,1,.475-.475h5.477a.475.475,0,0,1,.475.475v8.993A3.217,3.217,0,0,1,365.628,188.751Zm-2.264-11.731v8.517a2.263,2.263,0,0,0,4.527,0V177.02Z" transform="translate(-207.423 -100.821)" fill="#282828"/>
        <path id="Trazado_826148" data-name="Trazado 826148" d="M365.628,317.387a3.217,3.217,0,0,1-3.214-3.214v-8.992a.475.475,0,0,1,.475-.475h5.477a.475.475,0,0,1,.475.475v8.992A3.217,3.217,0,0,1,365.628,317.387Zm-2.264-11.731v8.517a2.263,2.263,0,0,0,4.527,0v-8.517Z" transform="translate(-207.423 -174.409)" fill="#282828"/>
        <path id="Línea_1196" data-name="Línea 1196" d="M-.41,16.567H-.437a.475.475,0,0,1-.448-.5L.026-.437a.475.475,0,0,1,.5-.448.475.475,0,0,1,.448.5l-.911,16.5A.475.475,0,0,1-.41,16.567Z" transform="translate(162.86 60.602)" fill="#282828"/>
        <path id="Trazado_826149" data-name="Trazado 826149" d="M358.088,229.575a.475.475,0,0,1-.475-.475V102.554a.475.475,0,0,1,.871-.263l8.446,12.73a.475.475,0,0,1-.328.733l-4.729.681,3.9,5.357a.475.475,0,0,1,.032.51l-7.141,12.915a.474.474,0,0,1-.1.126V229.1A.475.475,0,0,1,358.088,229.575Zm.475-125.445v29.3l6.263-11.327-4.186-5.75a.475.475,0,0,1,.316-.75l4.766-.686Z" transform="translate(-204.676 -58.492)" fill="#282828"/>
        <path id="Trazado_826150" data-name="Trazado 826150" d="M381.745,144.233a.475.475,0,0,1-.383-.756l.377-.514.855-1.166a.475.475,0,1,1,.766.562l-.855,1.165-.377.514A.475.475,0,0,1,381.745,144.233Z" transform="translate(-218.21 -81.103)" fill="#282828"/>
        <path id="Trazado_826151" data-name="Trazado 826151" d="M330.888,16.5a12.894,12.894,0,0,0-4.521-8.4c-5.374-4.186-15.442-3.212-18.314,3.571-.112.264-.2.868-.447,1.021-.352.215-1,.02-1.453.263-1.753.945-1.872,3.162-1.707,4.917a41.555,41.555,0,0,0,1.22,6.426q.354,1.357.819,2.682c.2.566,1.142,2.05,1.053,2.6.5-3.039.71-6.313,2.112-9.1.742-1.474,2.072-3.677,3.635-4.408a5.783,5.783,0,0,1,2.063-.163c.848-.056,1.7-.134,2.541-.2l3.244-.258,3.335,5.551c.935,1.556,1.8,3.153,2.583,4.792.294.617.416,1.24.659,1.858.129.33,1.357,1.618,1.266,1.867,1.489-4.053,2.592-8.639,1.914-13.005" transform="translate(-174.133 -3.2)" fill="#282828"/>
        <path id="Trazado_826152" data-name="Trazado 826152" d="M360.764,56.417a2.457,2.457,0,0,1,3.046-.8c2.051.778,1.124,5.759-1.953,6.395a2.434,2.434,0,0,1-1.968-.515s.757-3.68.876-5.076" transform="translate(-205.882 -31.692)" fill="#965548"/>
        <path id="Trazado_826153" data-name="Trazado 826153" transform="translate(-39.158 -6.491)" fill="#282828"/>
        <path id="Trazado_826154" data-name="Trazado 826154" d="M307.329,56.417a2.457,2.457,0,0,0-3.046-.8c-2.052.778-1.124,5.759,1.953,6.395a2.434,2.434,0,0,0,1.968-.515s-.757-3.68-.876-5.076" transform="translate(-173.445 -31.692)" fill="#965548"/>
        <path id="Trazado_826155" data-name="Trazado 826155" transform="translate(-33.246 -6.491)" fill="#282828"/>
        <path id="Trazado_826156" data-name="Trazado 826156" d="M333.753,33.958c0,3-.294,9.286-2.14,13.015a9.2,9.2,0,0,1-8.359,5.5c-3.759.112-6.559-1.336-8.8-5.881s-2.137-12.577-2.137-12.577,0-10.728,10.6-10.728c11.168,0,10.836,10.673,10.836,10.673" transform="translate(-178.665 -13.321)" fill="#cb826e"/>
        <path id="Trazado_826157" data-name="Trazado 826157" d="M336.077,61.938a1.132,1.132,0,0,1-1.061-.7,1.173,1.173,0,0,1-.083-.435V58.325a.356.356,0,1,1,.713,0v2.483a.462.462,0,0,0,.033.171.444.444,0,0,0,.531.229l.823-.219a.356.356,0,1,1,.183.689l-.823.219A1.224,1.224,0,0,1,336.077,61.938Z" transform="translate(-191.677 -33.234)" fill="#282828"/>
        <path id="Trazado_826158" data-name="Trazado 826158" d="M325.7,58.893a.965.965,0,1,1-.965-.965.965.965,0,0,1,.965.965" transform="translate(-185.219 -33.139)" fill="#282828"/>
        <path id="Trazado_826159" data-name="Trazado 826159" d="M346.847,58.893a.965.965,0,1,1-.965-.965.965.965,0,0,1,.965.965" transform="translate(-197.317 -33.139)" fill="#282828"/>
        <path id="Trazado_826160" data-name="Trazado 826160" d="M341.4,46.336l6.49,1.677s-.3-1.82-2.95-2.482-3.54.805-3.54.805" transform="translate(-195.304 -25.949)" fill="#282828"/>
        <path id="Trazado_826161" data-name="Trazado 826161" d="M323.3,46.336l-6.49,1.677s.3-1.82,2.95-2.482,3.54.805,3.54.805" transform="translate(-181.237 -25.949)" fill="#282828"/>
        <path id="Línea_1197" data-name="Línea 1197" d="M3.386,5.352A.356.356,0,0,1,3.094,5.2L-.6-.1A.356.356,0,0,1-.512-.6a.356.356,0,0,1,.5.089l3.694,5.3a.356.356,0,0,1-.292.56Z" transform="translate(133.364 23.894)" fill="#282828"/>
        <path id="Trazado_826162" data-name="Trazado 826162" d="M315.557,76.073a.357.357,0,0,1-.329-.219c-.77-1.837-2.079-5.408-2.092-5.443a.356.356,0,1,1,.669-.245c.013.036,1.317,3.591,2.081,5.413a.357.357,0,0,1-.329.494Z" transform="translate(-179.195 -40.078)" fill="#282828"/>
        <path id="Línea_1198" data-name="Línea 1198" d="M-.308,5.228a.355.355,0,0,1-.208-.067.356.356,0,0,1-.081-.5L3.14-.517a.356.356,0,0,1,.5-.081.356.356,0,0,1,.081.5L-.019,5.08A.356.356,0,0,1-.308,5.228Z" transform="translate(152.235 24.017)" fill="#282828"/>
        <path id="Trazado_826163" data-name="Trazado 826163" d="M355.63,76.143a.357.357,0,0,1-.329-.494c.77-1.838,2.459-5.356,2.476-5.392a.356.356,0,1,1,.642.309c-.017.035-1.7,3.537-2.461,5.359A.356.356,0,0,1,355.63,76.143Z" transform="translate(-203.314 -40.148)" fill="#282828"/>
        <path id="Trazado_826164" data-name="Trazado 826164" d="M326.453,75.867s3.575.021,8.111-4.259l-.216-7.037-7.9-1.694-7.9,1.694-.216,7.037c4.536,4.281,8.111,4.259,8.111,4.259" transform="translate(-182.114 -35.97)" fill="#56edde"/>
        <path id="Trazado_826165" data-name="Trazado 826165" d="M315.5,27.476a16.31,16.31,0,0,1-.928,1.842,53.178,53.178,0,0,1-4.355,7.438c.19-.271-.227-1.893-.164-2.391.108-.854.116-1.716.166-2.578.112-1.933.6-4.114,2.249-5.332.784-.58,2.051-1.188,2.883-.365a1.269,1.269,0,0,1,.149,1.386" transform="translate(-177.369 -14.696)" fill="#282828"/>
        <path id="Trazado_826166" data-name="Trazado 826166" d="M319.8,20.971c.313.4.624.769.872,1.082a28.185,28.185,0,0,0,4.915,4.757,81.511,81.511,0,0,0,9.786,6.1,3.453,3.453,0,0,1,1.209.932c.214.312.235.7.486.951a25.447,25.447,0,0,0,.641-9.884,12.328,12.328,0,0,0-11.975-10.286c-2.3-.063-5.285.143-6.927,1.99-1.144,1.286-.06,3.011.992,4.358" transform="translate(-182.101 -8.36)" fill="#282828"/>
        <path id="Trazado_826167" data-name="Trazado 826167" d="M293.161,161.675l2.747-7.872,9.809,3.231-2.021,9.26Z" transform="translate(-167.709 -87.986)" fill="#ffb1a5"/>
        <path id="Trazado_826168" data-name="Trazado 826168" d="M289.094,154.7l-5.415,2.268a9.956,9.956,0,0,1-.425-5.315A7.237,7.237,0,0,1,289,146.092c4.449-.629,8.1,3.387,7.862,8.17,0,.021,0,.042,0,.063-.169,2.975-3.142,4.665-5.468,3.229Z" transform="translate(-161.928 -83.538)" fill="#cb826e"/>
        <path id="Trazado_826169" data-name="Trazado 826169" d="M306.005,151.351l30.58,9.442a8.869,8.869,0,0,1,5.688,10.1c-.915,4.905-5.3,7.849-9.533,6.528L301.909,167.9c-3.182-.994-5.043-4.7-4.158-8.271l.893-3.6c.884-3.574,4.181-5.665,7.362-4.671" transform="translate(-170.209 -86.442)" fill="#fff"/>
        <path id="Trazado_826170" data-name="Trazado 826170" d="M306.005,151.351l30.58,9.442a8.869,8.869,0,0,1,5.688,10.1c-.915,4.905-5.3,7.849-9.533,6.528L301.909,167.9c-3.182-.994-5.043-4.7-4.158-8.271l.893-3.6c.884-3.574,4.181-5.665,7.362-4.671" transform="translate(-170.209 -86.442)" fill="#fff"/>
        <path id="Trazado_826171" data-name="Trazado 826171" d="M348.354,168.621l-12.415-3.833c-5.952,4.09-12.026,7.967-17.836,12.3l11.676,3.6q10.1-5.486,19.96-11.483a7.531,7.531,0,0,0-1.385-.593" transform="translate(-181.978 -94.27)" fill="#e5e5e5"/>
        <path id="Trazado_826172" data-name="Trazado 826172" d="M382.242,177.113a.475.475,0,0,1-.434-.281,16.252,16.252,0,0,0-10.078-8.656.475.475,0,0,1,.3-.9,18.9,18.9,0,0,1,6.208,3.367,15.919,15.919,0,0,1,4.442,5.8.475.475,0,0,1-.433.669Z" transform="translate(-212.565 -95.774)" fill="#282828"/>
        <path id="Trazado_826173" data-name="Trazado 826173" d="M382.456,172.833a.474.474,0,0,1-.374-.181c-1.853-2.355-6.375-4.09-9.677-4.406a.475.475,0,0,1,.091-.946c3.453.331,8.247,2.113,10.333,4.765a.475.475,0,0,1-.373.769Z" transform="translate(-212.893 -95.802)" fill="#282828"/>
        <path id="Trazado_826174" data-name="Trazado 826174" d="M354.01,162.7l-2.545-7.056-9.812,3.215,1.792,8.335Z" transform="translate(-195.449 -89.041)" fill="#cb826e"/>
        <path id="Trazado_826175" data-name="Trazado 826175" d="M369.961,158.086l-2.135-8.744-5.248-1.9a33.042,33.042,0,0,0-6.9,7.257c-.012.018,1.724,5.6,7.481,4.055l3.96-1.549Z" transform="translate(-203.473 -84.348)" fill="#cb826e"/>
        <path id="Trazado_826176" data-name="Trazado 826176" d="M304.619,152.922,279.6,160.612a8.87,8.87,0,0,0-5.688,10.1c.915,4.9,5.3,7.849,9.533,6.527l25.276-7.768c3.181-.994,5.043-4.7,4.158-8.271l-.893-3.6c-.884-3.574-4.181-5.665-7.362-4.671" transform="translate(-156.605 -87.341)" fill="#fff"/>
        <path id="Trazado_826177" data-name="Trazado 826177" d="M292.06,198.974a.475.475,0,0,1-.153-.925c4.488-1.528,7.969-2.6,11.335-3.646,5.182-1.6,10.077-3.117,17.574-5.989a.475.475,0,0,1,.34.888c-7.526,2.883-12.436,4.4-17.633,6.009-3.36,1.039-6.835,2.114-11.31,3.638A.474.474,0,0,1,292.06,198.974Z" transform="translate(-166.903 -107.864)" fill="#282828"/>
        <path id="Trazado_826178" data-name="Trazado 826178" d="M279.284,174.589a.475.475,0,0,1-.433-.669,15.919,15.919,0,0,1,4.442-5.8,18.9,18.9,0,0,1,6.208-3.367.475.475,0,1,1,.3.9,16.252,16.252,0,0,0-10.078,8.656A.475.475,0,0,1,279.284,174.589Z" transform="translate(-159.595 -94.33)" fill="#282828"/>
        <path id="Trazado_826179" data-name="Trazado 826179" d="M279.55,163a.475.475,0,0,1-.373-.769c2.077-2.64,6.84-4.419,10.29-4.761l19.047-5.459a.475.475,0,1,1,.262.914l-19.088,5.471a.474.474,0,0,1-.086.016c-3.3.316-7.825,2.051-9.677,4.406A.474.474,0,0,1,279.55,163Z" transform="translate(-159.747 -87.044)" fill="#282828"/>
        <rect id="Rectángulo_378618" data-name="Rectángulo 378618" width="28.758" height="1.71" transform="translate(129.697 14.315)" fill="#56edde"/>
        <path id="Trazado_826180" data-name="Trazado 826180" d="M325.816,62.67H312.007a6.556,6.556,0,0,1-6.556-6.556V35.749h26.921V56.114a6.556,6.556,0,0,1-6.556,6.556ZM306.4,36.7V56.114a5.612,5.612,0,0,0,5.606,5.606h13.809a5.612,5.612,0,0,0,5.606-5.606V36.7Z" transform="translate(-174.836 -20.547)" fill="#fff"/>
        <path id="Línea_1199" data-name="Línea 1199" d="M-.411,12.114a.474.474,0,0,1-.336-.139.475.475,0,0,1,0-.672L11.3-.747a.475.475,0,0,1,.672,0,.475.475,0,0,1,0,.672L-.075,11.975A.474.474,0,0,1-.411,12.114Z" transform="translate(132.862 17.789)" fill="#fff"/>
        <path id="Línea_1200" data-name="Línea 1200" d="M-.411,12.114a.474.474,0,0,1-.336-.139.475.475,0,0,1,0-.672L11.3-.747a.475.475,0,0,1,.672,0,.475.475,0,0,1,0,.672L-.075,11.975A.474.474,0,0,1-.411,12.114Z" transform="translate(137.855 22.685)" fill="#fff"/>
        <path id="Línea_1201" data-name="Línea 1201" d="M-.411,12.114a.474.474,0,0,1-.336-.139.475.475,0,0,1,0-.672L11.3-.747a.475.475,0,0,1,.672,0,.475.475,0,0,1,0,.672L-.075,11.975A.474.474,0,0,1-.411,12.114Z" transform="translate(142.847 27.582)" fill="#fff"/>
      </g>
    </g>
  </g>
</svg>
