<svg xmlns="http://www.w3.org/2000/svg" xmlns:xlink="http://www.w3.org/1999/xlink" width="169" height="169" viewBox="0 0 169 169">
  <defs>
    <clipPath id="clip-path">
      <circle id="Elipse_5912" data-name="Elipse 5912" cx="72.5" cy="72.5" r="72.5" transform="translate(404.833 2079.043)" fill="#fff" stroke="#707070" stroke-width="1"/>
    </clipPath>
    <clipPath id="clip-path-2">
      <rect id="Rectángulo_378567" data-name="Rectángulo 378567" width="95.328" height="312.912" fill="none"/>
    </clipPath>
    <clipPath id="clip-path-4">
      <path id="Trazado_825480" data-name="Trazado 825480" d="M58.09,58.831c-15.157-2.6-27.414-4.334-40.906,3.045,5.433,27.46,17.408,41.368,21.5,64.547,14.355,2.593,28.768,6.976,40.458-1.749-1.281-12.359,5.48-21.4,4.2-33.755-.826-7.988-8.967-26-6.452-33.624L65.877,54.536Z" transform="translate(-17.184 -54.536)" fill="none"/>
    </clipPath>
    <clipPath id="clip-path-6">
      <rect id="Rectángulo_378565" data-name="Rectángulo 378565" width="9.244" height="7.914" fill="none"/>
    </clipPath>
  </defs>
  <g id="Grupo_1075681" data-name="Grupo 1075681" transform="translate(-1336 8779.007)">
    <g id="Grupo_1073686" data-name="Grupo 1073686" transform="translate(617 -11656.531)">
      <g id="Grupo_1073327" data-name="Grupo 1073327" transform="translate(334 819.524)">
        <g id="Grupo_159182" data-name="Grupo 159182" transform="translate(385.001 2058)">
          <path id="Unión_12" data-name="Unión 12" d="M84.5,0A84.5,84.5,0,1,1,0,84.5,84.5,84.5,0,0,1,84.5,0Z" transform="translate(0 0)" fill="#ffae7e"/>
        </g>
      </g>
    </g>
    <g id="Enmascarar_grupo_416" data-name="Enmascarar grupo 416" transform="translate(943.167 -10844.053)" clip-path="url(#clip-path)">
      <g id="Grupo_1075134" data-name="Grupo 1075134" transform="translate(421.647 2088.798)">
        <g id="Grupo_1075133" data-name="Grupo 1075133" clip-path="url(#clip-path-2)">
          <g id="Grupo_1075125" data-name="Grupo 1075125">
            <g id="Grupo_1075124" data-name="Grupo 1075124" clip-path="url(#clip-path-2)">
              <path id="Trazado_825437" data-name="Trazado 825437" d="M75.036,3.511c-8.093-5.641-18.982-4.1-26.829,1.882s-12.8,14.9-17.525,23.56l7.394,4.2,3.231-2.263q-.2,1.939-.39,3.878a131.694,131.694,0,0,0,33.37,12.53c2.2.5,5.1.619,6.057-1.421-.227,1.64,1.262,3.118,2.875,3.489a10.12,10.12,0,0,0,4.886-.511,126.3,126.3,0,0,0,2.385-19.876c.224-5.583.033-11.374-2.343-16.432s-7.43-9.216-13.014-8.987Z" transform="translate(-3.68 0)"/>
              <path id="Trazado_825438" data-name="Trazado 825438" d="M64.631,215.345c-.738-4.2-6.373,48.719-5.541,88.15a15.2,15.2,0,0,1-1.593,6.786c-.665,1.391-1.625,2.633-2.2,4.061a4.557,4.557,0,0,0,.221,4.413c1.687,2.214,5.116,1.19,7.9,1.218,4.831.048,9.5,3.946,14.07,2.386-.5-3.277-3.833-5.334-5.208-8.349a13.224,13.224,0,0,1-.5-7.918c3.093-16.2,11.5-102.481,13.044-109.362Z" transform="translate(-6.576 -23.594)" fill="#fed5b7"/>
              <path id="Trazado_825439" data-name="Trazado 825439" d="M73.111,330.276c-1.127,3.931-3.154,5.049-7.186,5.736-3.228.55-8.72-1.167-11.866-2.073-.531,1.5.6,7.165.6,7.165s7.934,1.838,8.867,1.5c1.027-.366,3.029-3.09,3.445-2.588,2.889,3.492,7.613,4.826,12.095,5.5a65.7,65.7,0,0,0,14.923.539,1.333,1.333,0,0,0,1.131-.783c.283-.668-.194-1.141-.635-1.522a30,30,0,0,0-9.187-5.043,31.017,31.017,0,0,1-12.184-8.44" transform="translate(-6.466 -39.61)" fill="#60523b"/>
              <path id="Trazado_825440" data-name="Trazado 825440" d="M46.1,193.449c-2.322,11-25.655,98.63-31.758,125.346A23.409,23.409,0,0,1,3.89,317.123,2.39,2.39,0,0,1,2.459,316a2.461,2.461,0,0,1,.012-1.443C5.525,300.383,17.8,205.1,31.555,186.111Z" transform="translate(-0.282 -22.32)" fill="#fed5b7"/>
              <path id="Trazado_825441" data-name="Trazado 825441" d="M16.222,331.4A20.515,20.515,0,0,0,2.6,327.77Q1.724,331.434.847,335.1a19.793,19.793,0,0,0-.808,6.276c.29,3.321,2.23,6.272,4.436,8.771A5.733,5.733,0,0,0,7.121,352.1a5.169,5.169,0,0,0,4.135-1.162c1.76-1.241,4.162-6.108,4.062-8.259-.373-8.045.9-11.285.9-11.285" transform="translate(0 -39.299)" fill="#60523b"/>
              <path id="Trazado_825442" data-name="Trazado 825442" d="M78.156,137.492c3.034,7.592,6.657,22.125,6.9,30.3.19,6.544-2.484,86.187-7.9,111.87-.191.9-8.765,3.6-9.349,4.319-.6.743-15.795,2.017-21.147.011a3.083,3.083,0,0,1-1.641-1.15,3.55,3.55,0,0,1-.291-2.069c1.2-19.812.478-26.772,1.677-46.584-5.33,12.687-7.3,35.115-9.237,42.46a11.694,11.694,0,0,1-1.594,4.062,7.787,7.787,0,0,1-2.764,2.2c-6.788,3.494-25.717-4.6-28.3-11.785C8.513,226.3,25.679,166.758,30.736,147.7a7.815,7.815,0,0,1,1.079-2.675c.8-1.095,6.208-11.987,7.449-12.536,7.1-3.131,9.575-3.148,17.285-4.025s15.376-.143,20.821,5.387Z" transform="translate(-0.539 -15.37)" fill="#dc4345"/>
              <path id="Trazado_825443" data-name="Trazado 825443" d="M93.551,345.136a82.548,82.548,0,0,1-16.036-1.9q-2.212-.487-4.4-1.095a.361.361,0,0,0-.192.7,83.586,83.586,0,0,0,15.982,2.8q2.318.177,4.643.224a.362.362,0,0,0,0-.723" transform="translate(-8.715 -41.031)" fill="#c2b38c"/>
              <path id="Trazado_825444" data-name="Trazado 825444" d="M63.151,342.066l-7.525-1.256c-.455-.076-.65.62-.192.7l7.525,1.256c.454.076.649-.62.192-.7" transform="translate(-6.617 -40.873)" fill="#c2b38c"/>
              <path id="Trazado_825445" data-name="Trazado 825445" d="M65.721,322.079a3.03,3.03,0,0,1-.075,4.036c-.326.333.185.844.511.51a3.767,3.767,0,0,0,.075-5.058c-.315-.343-.826.169-.511.511" transform="translate(-7.86 -38.552)" fill="#89563d"/>
              <path id="Trazado_825446" data-name="Trazado 825446" d="M52.477,236.55a133.074,133.074,0,0,0,3.335-13.336c1.279-5.955,2.442-11.935,3.616-17.91,1.165-5.928,2.323-11.859,3.607-17.762.532-2.443,1.085-4.884,1.7-7.308.259-1.023.529-2.043.82-3.057q.193-.669.4-1.334a3.69,3.69,0,0,1,.773-1.72,2,2,0,0,1,1.286-.267,2.124,2.124,0,0,0,1.171-.373,3.183,3.183,0,0,0,1.049-1.867c.538-2.162.846-4.411,1.212-6.608q1.129-6.766,1.853-13.592.178-1.682.332-3.367c.042-.463-.68-.46-.723,0q-.632,6.908-1.68,13.769-.519,3.387-1.139,6.759c-.187,1.022-.325,2.079-.614,3.078a2.789,2.789,0,0,1-.481,1.021,1.53,1.53,0,0,1-1.268.466,2,2,0,0,0-1.945,1.068,9.713,9.713,0,0,0-.562,1.567c-.289.936-.554,1.881-.806,2.828-.614,2.3-1.157,4.626-1.677,6.953-1.295,5.794-2.44,11.622-3.587,17.447-1.184,6.012-2.348,12.028-3.608,18.025-.992,4.722-1.989,9.47-3.373,14.1q-.185.616-.385,1.23c-.144.443.554.633.7.192" transform="translate(-6.208 -17.714)" fill="#8e292e"/>
              <path id="Trazado_825447" data-name="Trazado 825447" d="M36.969,156.863q-2.549,5.768-5.1,11.536-.729,1.648-1.457,3.3c-.187.422.436.789.624.365q2.548-5.769,5.1-11.536l1.457-3.3c.187-.422-.437-.789-.624-.364" transform="translate(-3.644 -18.79)" fill="#8e292e"/>
              <path id="Trazado_825448" data-name="Trazado 825448" d="M69.3,156.662a93.594,93.594,0,0,1-.8,13.629q-.259,1.937-.6,3.861c-.081.455.615.65.7.192A94.275,94.275,0,0,0,70,160.608q.055-1.972.027-3.945a.361.361,0,0,0-.723,0" transform="translate(-8.142 -18.747)" fill="#8e292e"/>
              <path id="Trazado_825449" data-name="Trazado 825449" d="M83.915,137.226l-1.247,5.091c-.11.451.586.644.7.192q.623-2.545,1.247-5.091c.11-.451-.586-.644-.7-.192" transform="translate(-9.913 -16.427)" fill="#8e292e"/>
              <path id="Trazado_825450" data-name="Trazado 825450" d="M81.537,137.776c-.121.877-.136,1.767-.209,2.65-.04.478-.086.957-.171,1.43a3.233,3.233,0,0,1-.309,1.033.361.361,0,0,0,.624.364,6.461,6.461,0,0,0,.561-2.624c.045-.506.077-1.014.11-1.521.014-.219.028-.438.046-.657.007-.1.016-.2.026-.293l.011-.109c0-.014.018-.139.01-.081a.375.375,0,0,0-.253-.444.364.364,0,0,0-.444.253" transform="translate(-9.69 -16.492)" fill="#8e292e"/>
              <path id="Trazado_825451" data-name="Trazado 825451" d="M54.285,141.492a7.948,7.948,0,0,1-.456,3.578.365.365,0,0,0,.253.444.37.37,0,0,0,.444-.253,8.454,8.454,0,0,0,.481-3.769.371.371,0,0,0-.361-.361.364.364,0,0,0-.362.361" transform="translate(-6.454 -16.926)" fill="#8e292e"/>
              <path id="Trazado_825452" data-name="Trazado 825452" d="M51.265,141.929q-.243,1.608-.484,3.216a.373.373,0,0,0,.252.444.364.364,0,0,0,.444-.253q.243-1.608.485-3.216a.373.373,0,0,0-.253-.444.364.364,0,0,0-.444.253" transform="translate(-6.09 -16.99)" fill="#8e292e"/>
              <path id="Trazado_825453" data-name="Trazado 825453" d="M78.911,146.317a37.058,37.058,0,0,1-13.22,1.4c-.464-.034-.462.688,0,.723A37.663,37.663,0,0,0,79.1,147.014a.362.362,0,0,0-.192-.7" transform="translate(-7.837 -17.546)" fill="#8e292e"/>
              <path id="Trazado_825454" data-name="Trazado 825454" d="M68.335,143.98a2.259,2.259,0,1,0,2.258-2.259,2.258,2.258,0,0,0-2.258,2.259" transform="translate(-8.195 -16.997)" fill="#8e292e"/>
              <path id="Trazado_825455" data-name="Trazado 825455" d="M68.858,181.6c-.216,5.161-.574,10.316-.936,15.468q-.793,11.245-1.75,22.477-1.046,12.423-2.262,24.833c-.755,7.654-1.563,15.305-2.511,22.939-.676,5.446-1.363,10.915-2.448,16.3q-.137.677-.287,1.351c-.1.452.595.646.7.192C60.489,280.138,61.138,275,61.8,269.9c.961-7.436,1.766-14.892,2.521-22.35q1.261-12.467,2.319-24.953.987-11.509,1.83-23.03c.4-5.522.788-11.048,1.053-16.581q.032-.689.062-1.38c.019-.465-.7-.464-.723,0" transform="translate(-7.034 -21.738)" fill="#8e292e"/>
              <path id="Trazado_825456" data-name="Trazado 825456" d="M31.529,181.472c-1.226,4.9-2.129,9.885-3.027,14.853-1.244,6.887-2.388,13.792-3.517,20.7-1.243,7.6-2.457,15.2-3.694,22.8-1.148,7.062-2.308,14.122-3.556,21.167-.935,5.28-1.882,10.567-3.1,15.788q-.165.706-.341,1.409a.362.362,0,0,0,.7.192c1.226-4.9,2.129-9.884,3.027-14.852,1.244-6.887,2.388-13.792,3.517-20.7,1.242-7.6,2.457-15.2,3.694-22.8,1.148-7.062,2.308-14.122,3.555-21.167.936-5.279,1.882-10.567,3.1-15.788.111-.47.224-.94.341-1.409a.362.362,0,0,0-.7-.192" transform="translate(-1.712 -21.733)" fill="#8e292e"/>
              <path id="Trazado_825457" data-name="Trazado 825457" d="M35.123,303.6A45.659,45.659,0,0,1,1,290.912a2.435,2.435,0,0,1-.762-1.1,2.5,2.5,0,0,1,.325-1.566q1.464-3.251,2.928-6.5c.2-.451.473-.958.958-1.051a1.59,1.59,0,0,1,1.222.515,70.426,70.426,0,0,0,14.869,9.835,34.386,34.386,0,0,0,17.334,3.442Z" transform="translate(-0.024 -33.662)" fill="#8e292e"/>
              <path id="Trazado_825458" data-name="Trazado 825458" d="M84.1,302.048a28.9,28.9,0,0,1-17.387,4.732c-6.107-.194-12.678.149-18.29-2.27a1.375,1.375,0,0,1-.546-.348,1.407,1.407,0,0,1-.055-1.258l1.764-6.338a1.124,1.124,0,0,1,1.634-1,67.32,67.32,0,0,0,32.925-.779Z" transform="translate(-5.721 -35.354)" fill="#8e292e"/>
              <path id="Trazado_825459" data-name="Trazado 825459" d="M79.075,58.815c4.2-.974,8.616,1.353,11.313,4.714s4.014,7.595,5.2,11.739a348.927,348.927,0,0,1,7.9,34.123,47.563,47.563,0,0,1,.98,8.817c-.1,10.22-6.285,19.594-6.67,29.807-.087,2.31.122,4.662-.457,6.9-.756,2.917-3.551,7.182-6.077,9.786a.766.766,0,0,1-1.3-.694c.457-2.129,1.875-4.863,3.111-5.5-.957,1.4-5.323,5.522-7.082,7.4a1.2,1.2,0,0,1-1.912-1.405c.883-1.559,4.58-4.973,5.386-5.654-.745,1.571-5.147,4.928-6.6,6.5-2.605,2.817-2.907.527-2.377-.6l6.154-9.144c-1.772,2.394-8.237,11.606-8.208,7.775.033-4.362,4.6-11.522,6.659-15.369a20.336,20.336,0,0,1-7.5,1.7,1.044,1.044,0,0,1-.72-1.835,5.042,5.042,0,0,1,1.667-.89c1.289-.411,7.049-5.911,9.569-7a13.414,13.414,0,0,0,2.029-.789c1.252-.807,1.514-2.5,1.656-3.978.508-5.3-2.71-15.086-2.2-20.384a33.934,33.934,0,0,0,.194-6.819,33.98,33.98,0,0,0-1.562-6.454c-4.135-13.226-8.4-12.786-12.073-27.606Z" transform="translate(-9.133 -7.027)" fill="#fed5b7"/>
              <path id="Trazado_825460" data-name="Trazado 825460" d="M65.877,54.537,76.888,57.3c-2.515,7.627,5.625,25.636,6.452,33.624,1.28,12.36-5.479,21.4-4.2,33.756-11.69,8.724-26.1,4.34-40.458,1.749-4.092-23.18-16.067-37.088-21.5-64.548C30.676,54.5,42.932,56.232,58.09,58.832Z" transform="translate(-2.061 -6.541)" fill="#6da8c6"/>
            </g>
          </g>
          <g id="Grupo_1075127" data-name="Grupo 1075127" transform="translate(15.123 47.995)">
            <g id="Grupo_1075126" data-name="Grupo 1075126" clip-path="url(#clip-path-4)">
              <path id="Trazado_825461" data-name="Trazado 825461" d="M34.271,65.382l1.405,2.57,2.57,1.405-2.57,1.405-1.405,2.57-1.405-2.57L30.3,69.357l2.57-1.405Z" transform="translate(-18.756 -55.837)" fill="#fff"/>
              <path id="Trazado_825462" data-name="Trazado 825462" d="M46.453,52.681l1.405,2.57,2.57,1.405-2.57,1.405-1.405,2.57-1.405-2.57-2.57-1.405,2.57-1.405Z" transform="translate(-20.218 -54.314)" fill="#fff"/>
              <path id="Trazado_825463" data-name="Trazado 825463" d="M24.162,55.014l1.405,2.57,2.57,1.405-2.57,1.405-1.405,2.57-1.405-2.57-2.57-1.405,2.57-1.405Z" transform="translate(-17.544 -54.593)" fill="#fff"/>
              <path id="Trazado_825464" data-name="Trazado 825464" d="M50.86,76.528l1.405,2.57,2.57,1.405-2.57,1.405-1.405,2.57-1.405-2.57L46.884,80.5l2.57-1.405Z" transform="translate(-20.746 -57.174)" fill="#fff"/>
              <path id="Trazado_825465" data-name="Trazado 825465" d="M64.6,59.42,66,61.99l2.57,1.405L66,64.8,64.6,67.371,63.192,64.8,60.622,63.4l2.57-1.405Z" transform="translate(-22.394 -55.122)" fill="#fff"/>
              <path id="Trazado_825466" data-name="Trazado 825466" d="M73.151,79.638l1.405,2.57,2.57,1.405-2.57,1.405-1.405,2.57-1.405-2.57-2.57-1.405,2.57-1.405Z" transform="translate(-23.419 -57.547)" fill="#fff"/>
              <path id="Trazado_825467" data-name="Trazado 825467" d="M89.74,90.784l1.405,2.57,2.57,1.405-2.57,1.405-1.405,2.57-1.405-2.57-2.57-1.405,2.57-1.405Z" transform="translate(-25.409 -58.883)" fill="#fff"/>
              <path id="Trazado_825468" data-name="Trazado 825468" d="M76.521,131.738l1.405,2.57,2.57,1.405-2.57,1.405-1.405,2.57-1.405-2.57-2.57-1.405,2.57-1.405Z" transform="translate(-23.824 -63.795)" fill="#fff"/>
              <path id="Trazado_825469" data-name="Trazado 825469" d="M101.145,74.454l1.405,2.57,2.57,1.405-2.57,1.405-1.405,2.57-1.405-2.57L97.17,78.43l2.57-1.405Z" transform="translate(-26.777 -56.925)" fill="#fff"/>
              <path id="Trazado_825470" data-name="Trazado 825470" d="M33.752,99.856l1.405,2.57,2.57,1.405-2.57,1.405-1.405,2.57-1.405-2.57-2.57-1.405,2.57-1.405Z" transform="translate(-18.694 -59.971)" fill="#fff"/>
              <path id="Trazado_825471" data-name="Trazado 825471" d="M50.341,111l1.405,2.57,2.57,1.405-2.57,1.405-1.405,2.57-1.405-2.57-2.57-1.405,2.57-1.405Z" transform="translate(-20.684 -61.308)" fill="#fff"/>
              <path id="Trazado_825472" data-name="Trazado 825472" d="M22.866,80.934l1.405,2.57,2.57,1.405-2.57,1.405-1.405,2.57-1.405-2.57L18.89,84.91,21.46,83.5Z" transform="translate(-17.389 -57.702)" fill="#fff"/>
              <path id="Trazado_825473" data-name="Trazado 825473" d="M61.746,94.672l1.405,2.57,2.57,1.405-2.57,1.405-1.405,2.57-1.405-2.57-2.57-1.405,2.57-1.405Z" transform="translate(-22.052 -59.35)" fill="#fff"/>
              <path id="Trazado_825474" data-name="Trazado 825474" d="M73.929,110.224l1.405,2.57L77.9,114.2l-2.57,1.405-1.405,2.57-1.405-2.57-2.57-1.405,2.57-1.405Z" transform="translate(-23.513 -61.215)" fill="#fff"/>
              <path id="Trazado_825475" data-name="Trazado 825475" d="M82.26,53.466l1.405,2.57,2.57,1.405-2.57,1.405-1.405,2.57-1.405-2.57-2.57-1.405,2.57-1.405Z" transform="translate(-24.512 -54.408)" fill="#fff"/>
              <path id="Trazado_825476" data-name="Trazado 825476" d="M60.969,125.777l1.405,2.57,2.57,1.405-2.57,1.405-1.405,2.57-1.405-2.57-2.57-1.405,2.57-1.405Z" transform="translate(-21.958 -63.08)" fill="#fff"/>
              <path id="Trazado_825477" data-name="Trazado 825477" d="M42.824,130.442l1.405,2.57,2.57,1.405-2.57,1.405-1.405,2.57-1.405-2.57-2.57-1.405,2.57-1.405Z" transform="translate(-19.782 -63.64)" fill="#fff"/>
              <path id="Trazado_825478" data-name="Trazado 825478" d="M90.518,121.37l1.405,2.57,2.57,1.405-2.57,1.405-1.405,2.57L88.656,132l-2.114-6.652,2.57-1.405Z" transform="translate(-25.502 -62.551)" fill="#fff"/>
              <path id="Trazado_825479" data-name="Trazado 825479" d="M101.923,105.04l1.405,2.57,2.57,1.405-2.57,1.405-1.405,2.57-1.405-2.57-2.57-1.405,2.57-1.405Z" transform="translate(-26.87 -60.593)" fill="#fff"/>
            </g>
          </g>
          <g id="Grupo_1075132" data-name="Grupo 1075132">
            <g id="Grupo_1075131" data-name="Grupo 1075131" clip-path="url(#clip-path-2)">
              <path id="Trazado_825481" data-name="Trazado 825481" d="M87.279,10.469C90.731,13.045,91,19.7,90.466,23.978c-.713,5.716-1.561,12.483-2.274,18.2-.058.461-3.976-.5-5.263-.824.143-1.82,1.241-3.515,1.384-5.335-1.556,1.385-1.6,3.213-2.052,5.246-5.654-3.946-13.648-7.494-19.873-10.459Z" transform="translate(-7.482 -1.256)"/>
              <path id="Trazado_825482" data-name="Trazado 825482" d="M85.714,16.694A180.6,180.6,0,0,1,78.47,38.236,11.8,11.8,0,0,1,75.525,43c-3.442,2.9-8.637,1.216-12.757-.594q-1.249,3.8-2.5,7.6c3.436-.353,4.407-.594,7.841-.947-1.143,4.565-.235,8.915-2.178,13.2-1.61,3.55-3.646,7.152-7.012,9.12-5.239,3.064-8.571.833-13.04-3.275S39.016,56.634,36.756,51c-.019-.049,4.652-1.765,7.756-3.423.707-.378,6.667-15.427,9.514-21.6a5.43,5.43,0,0,1-2.488-7.349,5.43,5.43,0,0,1,7.578-1.662c-.023,0,2.447-10.886,2.5-10.9Z" transform="translate(-4.408 -0.727)" fill="#fed5b7"/>
              <path id="Trazado_825483" data-name="Trazado 825483" d="M63.166,11.586l9.809,4.334,2.671-2.58.01,4.219s10.28,4.5,10.321,4.52,2.394-9.865-.472-12.9a17.934,17.934,0,0,0-3.9-2.864C75.886,2.86,69.188-.723,62.854,1.4c-4.229,1.42-7.241,5.107-9.829,8.74a136.953,136.953,0,0,0-9.089,14.621c1.108,1.43,4.691,2.334,4.691,2.334l3.124-.689.779,2.78,1.92.626A36.557,36.557,0,0,0,57.3,24.177a4.307,4.307,0,0,1-4.057-4.844,4.307,4.307,0,0,1,5.48-3.144c.433.16.914.393,1.329.19a1.443,1.443,0,0,0,.582-.752,26.515,26.515,0,0,1,2.535-4.04" transform="translate(-5.269 -0.092)"/>
              <g id="Grupo_1075130" data-name="Grupo 1075130" transform="translate(49.115 37.386)" opacity="0.48">
                <g id="Grupo_1075129" data-name="Grupo 1075129">
                  <g id="Grupo_1075128" data-name="Grupo 1075128" clip-path="url(#clip-path-6)">
                    <path id="Trazado_825484" data-name="Trazado 825484" d="M65.052,46.779l-9.244-4.3,8.02,7.914Z" transform="translate(-55.808 -42.481)" fill="#7f4924"/>
                  </g>
                </g>
              </g>
              <path id="Trazado_825485" data-name="Trazado 825485" d="M65.577,12.663a5.641,5.641,0,0,0-2.3,5.248c.1.723.334,1.423.386,2.15.147,2.085-1.25,3.962-2.788,5.378.846-1.783,1.7-3.851.9-5.656-.455-1.028-1.388-1.788-1.832-2.821-.591-1.377-.214-2.956.172-4.4Z" transform="translate(-7.152 -1.506)"/>
              <path id="Trazado_825486" data-name="Trazado 825486" d="M58.382,20.1a13.838,13.838,0,0,1,.838,3.615.371.371,0,0,0,.361.361.364.364,0,0,0,.362-.361,14.566,14.566,0,0,0-.863-3.807.371.371,0,0,0-.444-.253.365.365,0,0,0-.253.444" transform="translate(-7 -2.356)" fill="#7f4924"/>
              <path id="Trazado_825487" data-name="Trazado 825487" d="M57.858,22.982l1.278-.146a.4.4,0,0,0,.255-.106.359.359,0,0,0,0-.51.348.348,0,0,0-.255-.106l-1.278.146a.394.394,0,0,0-.255.106.368.368,0,0,0-.106.256.36.36,0,0,0,.106.255.348.348,0,0,0,.255.106" transform="translate(-6.896 -2.652)" fill="#7f4924"/>
              <path id="Trazado_825488" data-name="Trazado 825488" d="M24.348,55.982c-2.881,0-4.887,1.312-7.65,2.131a10.216,10.216,0,0,0-6.575,5.193c-1.114,2.462-.83,5.34-.083,7.936,1.559,5.427,4.966,10.129,8.646,14.411,5.727,6.665,8.854,10.8,16.03,15.874,3.853,2.724,8.589,4.563,13.065,3.068,3.486-1.165,7.5-7.887,8.048-10.518s-1.825-27.146-1.6-43.8c.052-3.84-3.293-7.878-3.651-11.862-.106-1.2-.715-3.42-1.824-3.878-1.676-.692-2.632.026-3.195,1.749-1.69-1.074-3.506.08-2.581,1.855-2.193-.609-3.219.99-1.972,2.894-.911-.647-1.607-.064-1.833,1.031s3.9,8.325,4.334,9.353c4.584,10.763-1.728,31.972-2.281,33.077-5.308-7.592-14.7-19.509-16.881-28.514" transform="translate(-1.125 -4.111)" fill="#fed5b7"/>
              <path id="Trazado_825489" data-name="Trazado 825489" d="M45.546,48.1l-2.261-1.069A.93.93,0,0,0,42.7,46.9c-.5.112-.462.837-.262,1.305a8.2,8.2,0,0,0,7.546,4.858Z" transform="translate(-5.073 -5.623)" fill="#fed5b7"/>
              <path id="Trazado_825490" data-name="Trazado 825490" d="M76.532,29.678q-.943,3.868-2.046,7.7l.6-.159-1.273-1.165c-.342-.313-.855.2-.511.511l1.274,1.164a.365.365,0,0,0,.6-.159q1.1-3.826,2.046-7.7c.11-.451-.587-.644-.7-.192" transform="translate(-8.778 -3.528)" fill="#7f4924"/>
              <path id="Trazado_825491" data-name="Trazado 825491" d="M69.842,37.778l.1.008c-.079-.006.016,0,.033.007a1.663,1.663,0,0,1,.19.046,1.774,1.774,0,0,1,.185.065c-.069-.029.019.01.033.017s.057.028.087.045c.057.032.113.066.167.1l.079.058c-.057-.043.019.016.031.026a2.157,2.157,0,0,1,.289.292l.032.038c-.02-.025-.022-.027-.007-.008s.039.055.057.082a1.939,1.939,0,0,1,.1.168.835.835,0,0,1,.046.088c.005.01.047.1.03.061s.02.053.025.063c.011.031.022.062.032.093a1.75,1.75,0,0,1,.05.188c.008.033.011.064.019.1s0,.021,0-.016l0,.049a1.816,1.816,0,0,1,.009.2c0,.033,0,.065-.005.1,0,.016-.014.131,0,.05a.372.372,0,0,0,.253.445.364.364,0,0,0,.444-.253,2.473,2.473,0,0,0-.553-1.926,2.424,2.424,0,0,0-1.726-.9.363.363,0,0,0-.362.362.368.368,0,0,0,.362.36" transform="translate(-8.333 -4.444)" fill="#7f4924"/>
              <path id="Trazado_825492" data-name="Trazado 825492" d="M78.884,34.514A8.323,8.323,0,0,0,81.6,37.29a.361.361,0,0,0,.364-.624,7.545,7.545,0,0,1-2.459-2.516.361.361,0,1,0-.624.364" transform="translate(-9.455 -4.074)"/>
              <path id="Trazado_825493" data-name="Trazado 825493" d="M65.072,30.939h4.369a.361.361,0,0,0,0-.723H65.072a.361.361,0,0,0,0,.723" transform="translate(-7.762 -3.624)"/>
              <path id="Trazado_825494" data-name="Trazado 825494" d="M81.661,27.964a.792.792,0,0,0-.874.8,1.445,1.445,0,0,0,.689,1.118,11.032,11.032,0,0,0,1.214.624A4.668,4.668,0,0,1,84.9,33.078a6.853,6.853,0,0,0-.547-3.327,3.083,3.083,0,0,0-2.677-1.8Z" transform="translate(-9.689 -3.352)"/>
              <path id="Trazado_825495" data-name="Trazado 825495" d="M72.707,23.97a.794.794,0,0,1-.069,1.186,1.446,1.446,0,0,1-1.3.173,11.065,11.065,0,0,1-1.251-.544A4.669,4.669,0,0,0,66.7,24.7a6.851,6.851,0,0,1,2.921-1.682,3.08,3.08,0,0,1,3.089.931Z" transform="translate(-7.999 -2.75)"/>
              <path id="Trazado_825496" data-name="Trazado 825496" d="M85.09,178.341a70.524,70.524,0,0,0,5.229-7.261c.247-.4-.378-.758-.624-.364a69.02,69.02,0,0,1-5.117,7.114c-.292.357.216.871.511.511" transform="translate(-10.133 -20.454)" fill="#7f4924"/>
              <path id="Trazado_825497" data-name="Trazado 825497" d="M86.7,167.985a36.593,36.593,0,0,0,7.516,4.99c.415.207.782-.416.365-.624a35.76,35.76,0,0,1-7.37-4.877c-.351-.3-.865.208-.511.511" transform="translate(-10.383 -20.074)" fill="#7f4924"/>
              <path id="Trazado_825498" data-name="Trazado 825498" d="M96.451,111.5a12.069,12.069,0,0,1,1.562,5.406c.022.463.745.466.723,0a12.88,12.88,0,0,0-1.661-5.771.361.361,0,0,0-.624.364" transform="translate(-11.561 -13.308)" fill="#7f4924"/>
              <path id="Trazado_825499" data-name="Trazado 825499" d="M45.613,88.4a83.185,83.185,0,0,0-1.882,13.659c-.026.465.7.464.723,0A81.922,81.922,0,0,1,46.31,88.59c.1-.452-.6-.646-.7-.192" transform="translate(-5.245 -10.571)" fill="#7f4924"/>
              <path id="Trazado_825500" data-name="Trazado 825500" d="M47.463,78.462q.737-6.643,1.14-13.32c.138-2.25.247-4.5.295-6.757.021-1.007.039-2.015.013-3.022a4.713,4.713,0,0,0-.324-1.806,3.64,3.64,0,0,0-1.134-1.338,17.193,17.193,0,0,1-2.87-2.646,8.238,8.238,0,0,1-1.7-3.525l-.444.444a9.988,9.988,0,0,1,3.018,1.877c.345.311.857-.2.511-.51A10.956,10.956,0,0,0,42.632,45.8c-.278-.11-.493.2-.444.444a10.245,10.245,0,0,0,3.735,5.7c.455.376.953.7,1.388,1.1a2.512,2.512,0,0,1,.818,1.512,10.948,10.948,0,0,1,.069,1.682q0,.741-.011,1.48c-.067,4.567-.381,9.132-.764,13.683q-.3,3.535-.682,7.064c-.051.461.671.458.723,0" transform="translate(-5.059 -5.49)" fill="#7f4924"/>
              <path id="Trazado_825501" data-name="Trazado 825501" d="M54.088,34.592l3.06,9c.5,1.471,1.009,2.941,1.5,4.416a26.86,26.86,0,0,1,1.137,4.311c.481,3.07-.257,6.164-.469,9.224a68.536,68.536,0,0,0,.043,9.118c.223,3.488.614,6.961.966,10.438.047.458.769.463.723,0-.623-6.149-1.379-12.324-1.072-18.516.077-1.553.247-3.093.43-4.637a23.327,23.327,0,0,0,.216-4.66c-.247-3.024-1.424-5.908-2.393-8.756Q56.508,39.463,54.785,34.4c-.15-.438-.848-.25-.7.192" transform="translate(-6.484 -4.096)" fill="#7f4924"/>
              <path id="Trazado_825502" data-name="Trazado 825502" d="M44.033,45.325l3.041,5.818c.216.412.839.048.624-.364L44.657,44.96c-.216-.413-.84-.048-.624.364" transform="translate(-5.276 -5.37)" fill="#7f4924"/>
              <path id="Trazado_825503" data-name="Trazado 825503" d="M43.618,42.673a1.282,1.282,0,0,1,1.4-1.32c.287.047.595-.24.408-.531-.341-.53-.724-1.429-.232-1.992.279-.319.938-.454,1.169-.021l.624-.365A1.477,1.477,0,0,1,49.1,36.472a.363.363,0,0,0,.531-.216A2.006,2.006,0,0,1,52.3,34.818c.43.175.618-.523.192-.7a2.723,2.723,0,0,0-3.56,1.942l.531-.216a2.2,2.2,0,0,0-3.1,2.961.362.362,0,0,0,.624-.365,1.447,1.447,0,0,0-2.207-.217c-.875.763-.517,2.119.023,2.961l.408-.531A2.009,2.009,0,0,0,42.9,42.673c.025.463.747.466.723,0" transform="translate(-5.144 -4.072)" fill="#7f4924"/>
              <path id="Trazado_825504" data-name="Trazado 825504" d="M81.858,176.352l5.3-7.09c.279-.373-.349-.733-.624-.365l-5.3,7.091c-.278.372.349.733.624.364" transform="translate(-9.734 -20.237)" fill="#7f4924"/>
              <path id="Trazado_825505" data-name="Trazado 825505" d="M95.767,150.587l3.484,2.114a.361.361,0,0,0,.364-.624l-3.484-2.114a.361.361,0,0,0-.364.624" transform="translate(-11.465 -17.979)" fill="#7f4924"/>
              <path id="Trazado_825506" data-name="Trazado 825506" d="M47.288,43.346a20.7,20.7,0,0,1,4.582-4.473c.376-.268.015-.894-.365-.624a21.775,21.775,0,0,0-4.84,4.732.364.364,0,0,0,.129.494.369.369,0,0,0,.495-.129" transform="translate(-5.59 -4.579)" fill="#7f4924"/>
              <path id="Trazado_825507" data-name="Trazado 825507" d="M22.993,63.718A112.978,112.978,0,0,1,32.6,74.458q1.261,1.608,2.461,3.259c.271.373.9.013.624-.364a113.4,113.4,0,0,0-9.3-11.2q-1.415-1.5-2.885-2.941c-.332-.327-.844.184-.511.51" transform="translate(-2.745 -7.568)" fill="#7f4924"/>
              <path id="Trazado_825508" data-name="Trazado 825508" d="M62.611,80.131a9.978,9.978,0,0,0,6.5-5.233c1.676-3.037,2.316-6.555,3.136-9.889Q73,61.941,73.75,58.873c.111-.451-.586-.644-.7-.192-.848,3.456-1.658,6.924-2.555,10.367-.775,2.979-1.812,6.033-4.083,8.221a8.009,8.009,0,0,1-4,2.165c-.456.09-.263.786.192.7" transform="translate(-7.455 -7.007)" fill="#1b4b5e"/>
              <path id="Trazado_825509" data-name="Trazado 825509" d="M74.418,57.018l5.589.717a.364.364,0,0,0,.361-.361.369.369,0,0,0-.361-.362L74.418,56.3a.365.365,0,0,0-.362.362.37.37,0,0,0,.362.361" transform="translate(-8.882 -6.751)" fill="#1b4b5e"/>
              <path id="Trazado_825510" data-name="Trazado 825510" d="M57.994,118.534a59.148,59.148,0,0,1,12.2-6.274q1.823-.681,3.688-1.242a.362.362,0,0,0-.193-.7,59.878,59.878,0,0,0-12.708,5.5q-1.708.989-3.347,2.089c-.385.258-.023.884.364.624" transform="translate(-6.892 -13.229)" fill="#1b4b5e"/>
              <path id="Trazado_825511" data-name="Trazado 825511" d="M61.1,120.72a42.393,42.393,0,0,1,10.028-5.247c.434-.157.246-.855-.192-.7a43.029,43.029,0,0,0-10.2,5.319c-.377.267-.017.893.364.624" transform="translate(-7.265 -13.762)" fill="#1b4b5e"/>
              <path id="Trazado_825512" data-name="Trazado 825512" d="M67.6,131.163l.743,2.784a.362.362,0,0,0,.7-.192q-.372-1.391-.743-2.784a.362.362,0,0,0-.7.192" transform="translate(-8.105 -15.677)" fill="#1b4b5e"/>
              <path id="Trazado_825513" data-name="Trazado 825513" d="M70.444,131.238a2.433,2.433,0,0,0-.348,2.033.361.361,0,1,0,.7-.192c-.02-.074-.035-.147-.049-.222-.006-.041-.005-.037,0,.012,0-.019,0-.038-.006-.056,0-.038-.006-.076-.007-.114a1.86,1.86,0,0,1,0-.2.544.544,0,0,1,.01-.114c-.027.094,0-.023.008-.044a1.5,1.5,0,0,1,.12-.407c-.043.084.013-.027.021-.043q.025-.05.053-.1a2.067,2.067,0,0,1,.122-.191.363.363,0,0,0-.129-.494.371.371,0,0,0-.495.129" transform="translate(-8.396 -15.718)" fill="#1b4b5e"/>
              <path id="Trazado_825514" data-name="Trazado 825514" d="M51.442,131.747a3.117,3.117,0,0,0,.3,2.4.361.361,0,0,0,.624-.364,1.912,1.912,0,0,1-.2-.43c-.026-.078-.048-.158-.066-.238-.011-.047-.02-.092-.028-.139,0-.024-.008-.047-.011-.07,0,.032,0,.034,0,.008a3.111,3.111,0,0,1-.011-.512c0-.048.007-.094.013-.142-.008.064.006-.029.009-.044a2.775,2.775,0,0,1,.065-.275.361.361,0,1,0-.7-.192" transform="translate(-6.155 -15.769)" fill="#1b4b5e"/>
              <path id="Trazado_825515" data-name="Trazado 825515" d="M53.393,132.626v1.4a.361.361,0,1,0,.723,0v-1.4a.361.361,0,0,0-.723,0" transform="translate(-6.403 -15.863)" fill="#1b4b5e"/>
              <path id="Trazado_825516" data-name="Trazado 825516" d="M79.809,127.727q-.28.9-.558,1.791a.364.364,0,0,0,.252.444.369.369,0,0,0,.444-.253q.28-.9.559-1.791a.365.365,0,0,0-.253-.444.369.369,0,0,0-.444.253" transform="translate(-9.503 -15.287)" fill="#1b4b5e"/>
              <path id="Trazado_825517" data-name="Trazado 825517" d="M81.941,127.563a.489.489,0,0,1,.022.094c0-.032-.008-.064-.012-.1a.544.544,0,0,1,0,.131l.013-.1a.581.581,0,0,1-.04.143l.037-.086a.63.63,0,0,1-.076.129l.056-.073a.552.552,0,0,1-.093.093l.074-.056a.523.523,0,0,1-.114.066l.086-.036-.05.018a.376.376,0,0,0-.216.165.372.372,0,0,0-.036.279.364.364,0,0,0,.165.216.372.372,0,0,0,.279.036.878.878,0,0,0,.528-.432,1,1,0,0,0,.109-.375.543.543,0,0,0,0-.114.942.942,0,0,0-.036-.2.386.386,0,0,0-.166-.216.37.37,0,0,0-.278-.036.361.361,0,0,0-.253.444" transform="translate(-9.784 -15.244)" fill="#1b4b5e"/>
              <path id="Trazado_825518" data-name="Trazado 825518" d="M34.247,58.9a54.2,54.2,0,0,0,5.875,12.84q1.065,1.7,2.257,3.315c.273.371.9.011.624-.364a53.552,53.552,0,0,1-6.759-12.246q-.719-1.843-1.3-3.737c-.136-.444-.834-.254-.7.192" transform="translate(-4.105 -7.01)" fill="#1b4b5e"/>
              <path id="Trazado_825519" data-name="Trazado 825519" d="M87.881,5.956a28.159,28.159,0,0,1,9.149,13.486c2.022,5.994,2.394,12.371,2.131,18.652-.161,3.855-.554,7.7-.95,11.532-.048.462.675.459.723,0,.715-6.943,1.436-13.955.752-20.932a37.973,37.973,0,0,0-5.2-16.4,26.116,26.116,0,0,0-6.241-6.961c-.369-.283-.729.344-.364.624" transform="translate(-10.521 -0.631)"/>
              <path id="Trazado_825520" data-name="Trazado 825520" d="M61.833.6a5.961,5.961,0,0,0-2.2-.142c-.706.036-1.413.1-2.115.194a28.477,28.477,0,0,0-4.049.837,33.051,33.051,0,0,0-7.71,3.336A44.753,44.753,0,0,0,33.293,16.183a77.337,77.337,0,0,0-5.372,7.992.362.362,0,0,0,.624.365A63.615,63.615,0,0,1,38.67,11.2,36.255,36.255,0,0,1,52.5,2.541a28.7,28.7,0,0,1,4.414-1.076q1.151-.183,2.315-.261a6.375,6.375,0,0,1,2.414.092c.442.149.631-.549.193-.7" transform="translate(-3.342 -0.051)"/>
            </g>
          </g>
        </g>
      </g>
    </g>
  </g>
</svg>
