<svg xmlns="http://www.w3.org/2000/svg" xmlns:xlink="http://www.w3.org/1999/xlink" width="169" height="169" viewBox="0 0 169 169">
  <defs>
    <clipPath id="clip-path">
      <rect id="Rectángulo_378493" data-name="Rectángulo 378493" width="131.579" height="125.519" fill="none"/>
    </clipPath>
    <clipPath id="clip-path-2">
      <path id="Trazado_825032" data-name="Trazado 825032" d="M45.283,128.59l.857,23.452,27.241,1.57V127.57Z" transform="translate(-45.283 -127.57)" fill="none"/>
    </clipPath>
    <linearGradient id="linear-gradient" x1="-0.14" y1="2.672" x2="-0.134" y2="2.672" gradientUnits="objectBoundingBox">
      <stop offset="0" stop-color="#7f898f"/>
      <stop offset="1" stop-color="#4a5466"/>
    </linearGradient>
  </defs>
  <g id="Grupo_1074869" data-name="Grupo 1074869" transform="translate(-384.743 -2058.1)">
    <g id="Grupo_159182" data-name="Grupo 159182" transform="translate(384.743 2058.1)">
      <path id="Unión_12" data-name="Unión 12" d="M84.5,0A84.5,84.5,0,1,1,0,84.5,84.5,84.5,0,0,1,84.5,0Z" transform="translate(0 0)" fill="#ffae7e"/>
    </g>
    <g id="Grupo_1074900" data-name="Grupo 1074900" transform="translate(407.164 2071.045)">
      <g id="Grupo_1074895" data-name="Grupo 1074895">
        <g id="Grupo_1074894" data-name="Grupo 1074894" clip-path="url(#clip-path)">
          <path id="Trazado_824999" data-name="Trazado 824999" d="M126.793,515.621c0,2.214-27.558,4.008-61.551,4.008S3.69,517.835,3.69,515.621s27.558-4.008,61.551-4.008,61.551,1.795,61.551,4.008" transform="translate(-2.843 -394.111)" fill="#653870"/>
          <path id="Trazado_825000" data-name="Trazado 825000" d="M394.129,254.155v2.913h7.424l-.5,17.28.777.066,2.674-18.678.226-1.581Z" transform="translate(-303.61 -195.783)" fill="#1b3753"/>
          <path id="Trazado_825001" data-name="Trazado 825001" d="M255.461,258.446l-7.569,2.131-1.049.3-.01,1.023-.146,14.283,1.555.09,1.388-13.154,6.621-1.864Z" transform="translate(-190.029 -199.089)" fill="#1b3753"/>
          <rect id="Rectángulo_378488" data-name="Rectángulo 378488" width="30.645" height="1.959" transform="matrix(0.006, -1, 1, 0.006, 75.797, 109.71)" fill="#542360"/>
          <path id="Trazado_825002" data-name="Trazado 825002" d="M264.022,483.815l14.521-7.509L278.5,483.9l1.037.006.042-7.5,14.969,7.581,1.6.008-16.321-8.265-.339.228-.94-.005v.063l-.442-.291-15.632,8.083Z" transform="translate(-202.189 -366.464)" fill="#1b3753"/>
          <path id="Trazado_825003" data-name="Trazado 825003" d="M330.81,468.641l-3.3-.018.009-1.728a1.577,1.577,0,0,1,1.586-1.568h.151a1.578,1.578,0,0,1,1.569,1.586Z" transform="translate(-252.287 -358.456)" fill="#542360"/>
          <path id="Trazado_825004" data-name="Trazado 825004" d="M290.467,315.817H250.072l6.405-4.077h26.68Z" transform="translate(-192.638 -240.143)" fill="#f3763f"/>
          <path id="Trazado_825005" data-name="Trazado 825005" d="M296.6,164H270.165l-2.61-32.291A10.881,10.881,0,0,1,278.4,119.947h9.59a10.882,10.882,0,0,1,10.855,11.635Z" transform="translate(-206.078 -92.399)" fill="#f3763f"/>
          <path id="Trazado_825006" data-name="Trazado 825006" d="M278.46,122.638h9.59a10.886,10.886,0,0,1,10.77,9.314l.026-.371a10.882,10.882,0,0,0-10.855-11.635H278.4A10.882,10.882,0,0,0,267.555,131.7l.068.838a10.884,10.884,0,0,1,10.838-9.9" transform="translate(-206.078 -92.398)" fill="#ffc976"/>
          <path id="Trazado_825007" data-name="Trazado 825007" d="M184.128,189.567s-11.535,9.2-13.327,13.87,2.054,6.178,2.054,6.178h15.28l.505-4.387s-9.159-1.091-9.159-2.025,7.569-2.719,7.569-2.719Z" transform="translate(-131.207 -146.029)" fill="#0e1d43"/>
          <path id="Trazado_825008" data-name="Trazado 825008" d="M246.019,149.023s-13.021,5.854-16.478,9.312c-.045.045-1.553,9.217,3.18,13.949a39.331,39.331,0,0,1,8.39,12.146c1.285,2.921,0,7.245,0,7.245l13.371-2.609,12.22.272s1.4-9.7-.818-13.555S255.25,161.76,253.5,156.735s-7.479-7.712-7.479-7.712" transform="translate(-176.619 -114.797)" fill="#0e1d43"/>
          <path id="Trazado_825009" data-name="Trazado 825009" d="M255.5,160.046l-7.175,3.495,1.253,11.5,2.335,9.874,4.033,5.375,4.074,3.214,2.28,3.8,4.864-10.518-5.31-14.9-1-4.265-4.557-7.576Z" transform="translate(-191.295 -123.289)" fill="#b1ccf3"/>
          <path id="Trazado_825010" data-name="Trazado 825010" d="M261.805,201.7l-4.074-3.214c-2.359-3.593-5.155-4.1-7.073-21.72L250,170.744l-2.131,1.038,1.253,11.5,2.335,9.874,4.034,5.375,4.074,3.213,2.28,3.8.986-2.133Z" transform="translate(-190.943 -131.529)" fill="#86b4f6"/>
          <path id="Trazado_825011" data-name="Trazado 825011" d="M269.528,211.952l3.036-1.16v3l-1.477.486Z" transform="translate(-207.626 -162.38)" fill="#396fa5"/>
          <path id="Trazado_825012" data-name="Trazado 825012" d="M281.02,243.965s-4.8-19.614-4.708-19.838a1.43,1.43,0,0,1,1.477-.486c.138.085,6.479,17.191,6.479,17.191l.638,2.388Z" transform="translate(-212.85 -172.228)" fill="#396fa5"/>
          <path id="Trazado_825013" data-name="Trazado 825013" d="M251.124,176.893l-1.269,3.528-3.555-3.661-2.53-5.631,8.343-4.29a8.108,8.108,0,0,1,2.018,2.549c.5,1.274.621,8.859.621,8.859Z" transform="translate(-187.783 -128.522)" fill="#e0ebfa"/>
          <path id="Trazado_825014" data-name="Trazado 825014" d="M251.032,158.1c1.013,1.013,5.74,9.161,5.74,9.161l-.209,3.021,3.965,1.577s2.921,23.851,4.37,25.3c0,0-5.3-15.334-7.4-22.423s-6.172-14.773-7.187-14.773l-7.049,2.48a56.483,56.483,0,0,1,2.16,10.423c.7,6.076,1.714,12.854,6.934,16.671s5.517,8.263,5.517,8.263-2.69-5.642-5.985-7.172-9.2-13.458-9.2-13.458l1.588-2.519-1.588-1.032s-2.564-10.88-1.085-12.361,8.413-4.171,9.426-3.158" transform="translate(-185.762 -121.617)" fill="#3e4a69"/>
          <path id="Trazado_825015" data-name="Trazado 825015" d="M254.832,166.8a26.089,26.089,0,0,0,1.551,4.2,4.323,4.323,0,0,0,3.227.817c1.212-.187,2.511-6.9,2.252-7.908s-2.668-3.661-2.668-3.661-4.925,3.389-4.363,6.556" transform="translate(-196.27 -123.439)" fill="#fd5e5a"/>
          <path id="Trazado_825016" data-name="Trazado 825016" d="M230.651,179.436s-1.149-.237-.683.228a5.032,5.032,0,0,0,1.937,1.275c.409,0-1.254-1.5-1.254-1.5" transform="translate(-177.066 -138.178)" fill="#fd5e5a"/>
          <path id="Trazado_825017" data-name="Trazado 825017" d="M231.982,139.777s-2.512,1.169-4.061,1.957-3.768,3.739-3.3,5.171,2.574,2.728,3.353,3.747c1.938,2.533,4.7,4.279,7.549,2.935,2.822-1.332,2.641-4.947,1.79-7.614-.438-1.373-2.789-6.634-5.331-6.2" transform="translate(-172.983 -107.655)" fill="#fc7575"/>
          <path id="Trazado_825018" data-name="Trazado 825018" d="M259.058,133.414s-3.668-3.571-4.661-3.775-.152-3.071-.152-3.071c.7,0,1.841-.586,2.425,1.109a4.466,4.466,0,0,0,1.694,2.366,18.223,18.223,0,0,1,.694,3.371" transform="translate(-195.597 -97.424)" fill="#0a142d"/>
          <path id="Trazado_825019" data-name="Trazado 825019" d="M288.279,331.447H246.024v-1.53a2.207,2.207,0,0,1,2.207-2.208h37.84a2.207,2.207,0,0,1,2.208,2.208Z" transform="translate(-189.52 -252.444)" fill="#ffc976"/>
          <path id="Trazado_825020" data-name="Trazado 825020" d="M288.279,343.985H246.024a3.588,3.588,0,0,0,3.588,3.589H284.69a3.589,3.589,0,0,0,3.589-3.589" transform="translate(-189.52 -264.982)" fill="#f7931e"/>
          <path id="Trazado_825021" data-name="Trazado 825021" d="M282.374,316.9c-.171-3.806-2.126-7-5.933-7.153a5.526,5.526,0,0,0-3.286.83c-4.067,2.632,10.675,41.492,10.675,41.492l5.179-1.124Z" transform="translate(-209.874 -238.602)" fill="#0e1d43"/>
          <path id="Trazado_825022" data-name="Trazado 825022" d="M279.967,295.6l20.8-4.812s2.265,5.948,2.265,7.23-2.762,4.987-2.762,4.987L289.3,300.882l-.895-1.935-5.236,2.172-9.459-.218-.082-4.417Z" transform="translate(-210.787 -224.004)" fill="#0e1d43"/>
          <path id="Trazado_825023" data-name="Trazado 825023" d="M326.771,316.278s.6-2.034,4.306-2.512,6.459,3.439,6.459,7.775-10.343,33.932-10.343,33.932l-5.179-.335s2.74-28,4.756-38.861" transform="translate(-248.058 -241.673)" fill="#0e1d43"/>
          <path id="Trazado_825024" data-name="Trazado 825024" d="M327.364,489.576l2.271,4.3,2.819,2.335-5.09.187-2.335-3.409-1.261-.841.514-3.176Z" transform="translate(-249.408 -376.668)" fill="#0e1d43"/>
          <path id="Trazado_825025" data-name="Trazado 825025" d="M318.86,486.985l-2.306,5.684,1.254,3.648h6.27l-2.85-8.835Z" transform="translate(-243.852 -375.139)" fill="#0e1d43"/>
          <rect id="Rectángulo_378489" data-name="Rectángulo 378489" width="113.039" height="2.992" transform="translate(4.366 68.605)" fill="#531010"/>
          <rect id="Rectángulo_378490" data-name="Rectángulo 378490" width="113.039" height="1.267" transform="translate(4.366 68.605)" fill="#420d0d"/>
          <rect id="Rectángulo_378491" data-name="Rectángulo 378491" width="4.127" height="49.58" transform="translate(8.313 71.597)" fill="#531010"/>
          <rect id="Rectángulo_378492" data-name="Rectángulo 378492" width="4.127" height="49.58" transform="translate(105.742 71.597)" fill="#531010"/>
          <path id="Trazado_825026" data-name="Trazado 825026" d="M470.936,186.183c-.049,0-1.169.765-1.329,1.2s.41.81.888.833a1.559,1.559,0,0,0,1.313-1.076c.023-.47-.871-.961-.871-.961" transform="translate(-361.731 -143.422)" fill="#dd5252"/>
          <path id="Trazado_825027" data-name="Trazado 825027" d="M472.355,188.082a6.929,6.929,0,0,1-.391,1.079,2.088,2.088,0,0,1-1.9.525c-.236-.158-.559-.38-.347-.573s1-.191,1.13-.307.184-.461.475-.725,1.027,0,1.027,0" transform="translate(-361.788 -144.795)" fill="#fd5e5a"/>
          <path id="Trazado_825028" data-name="Trazado 825028" d="M425.477,167.475s3.949-.691,5.169.194,1.943,1.649,2.629,2.1,2.245,1.83,2.64,1.751a7.246,7.246,0,0,1,1.239-.161c.252.012.717-.184.727-.379s-1.021-.829-1.346-.394a5.278,5.278,0,0,0-.605-.491c-.19-.107-.544-.268-.291-.5s1.022-.134,1.687-.257a27.941,27.941,0,0,1,3.6.185c.487.024,1.81.113,1.925-.41s-3.12-.957-3.12-.957l-1.359-.321a.54.54,0,0,0,.118-.606c-.184-.358-.005-.553-.276-.852s-.532-1.1-1.285-1.366-11.72-1.979-11.72-1.979Z" transform="translate(-327.551 -125.589)" fill="#fc7575"/>
          <path id="Trazado_825029" data-name="Trazado 825029" d="M302.17,147.053s3.506,9.341,6.985,9.988,6.634-4.588,22.329-.676l3.479,1.344.728-8.079s-19.794-4.8-33.52-2.576" transform="translate(-232.771 -112.827)" fill="#0e1d43"/>
          <path id="Trazado_825030" data-name="Trazado 825030" d="M162.7,270.1H140.81v1.507l21.893-.115Z" transform="translate(-108.47 -208.066)" fill="#3a1942"/>
          <path id="Trazado_825031" data-name="Trazado 825031" d="M90.249,270.8h8.128a1.161,1.161,0,0,1,1.161,1.161v.231H89.088v-.231a1.161,1.161,0,0,1,1.161-1.161" transform="translate(-68.627 -208.602)" fill="#12113f"/>
        </g>
      </g>
      <g id="Grupo_1074897" data-name="Grupo 1074897" transform="translate(10.4 29.299)">
        <g id="Grupo_1074896" data-name="Grupo 1074896" clip-path="url(#clip-path-2)">
          <rect id="Rectángulo_378494" data-name="Rectángulo 378494" width="38.217" height="38.309" transform="matrix(0.684, -0.729, 0.729, 0.684, -12.995, 13.847)" fill="url(#linear-gradient)"/>
        </g>
      </g>
      <g id="Grupo_1074899" data-name="Grupo 1074899">
        <g id="Grupo_1074898" data-name="Grupo 1074898" clip-path="url(#clip-path)">
          <path id="Trazado_825033" data-name="Trazado 825033" d="M168.64,127.9l-1.019-.326v26.042l.745-.186Z" transform="translate(-129.124 -98.271)" fill="#000f2e"/>
          <path id="Trazado_825034" data-name="Trazado 825034" d="M85.607,203.043a3.367,3.367,0,1,1,3.312,2.765c-.069,0-.138,0-.206-.006-.784,2.473-1.7,6.8-1.147,8.794a5.176,5.176,0,0,0,2.045,2.935l-.149.244a5.653,5.653,0,0,1-2.567-3c-.785-2.07-.39-6.58.214-9.413a2.684,2.684,0,0,1-1.5-2.315" transform="translate(-65.946 -154.281)" fill="#12113f"/>
          <rect id="Rectángulo_378495" data-name="Rectángulo 378495" width="121.053" height="5.263" transform="translate(0 63.342)" fill="#6e1515"/>
          <rect id="Rectángulo_378496" data-name="Rectángulo 378496" width="121.053" height="0.936" transform="translate(0 63.342)" fill="#f8ad8c"/>
          <path id="Trazado_825035" data-name="Trazado 825035" d="M261.764,252.485l-3.813-5.948a.243.243,0,0,0-.409.262l3.814,5.948a.243.243,0,1,0,.408-.262" transform="translate(-198.363 -189.829)" fill="#2f499f"/>
          <path id="Trazado_825036" data-name="Trazado 825036" d="M248.222,263.578l-.351,2.806h8.01c.222,0-.043-.076-.185-.46s-.528-.384-.345-.566-.251-.92-.545-1.213a2.76,2.76,0,0,0-2.063-.344c-3.115.818-4.522-.223-4.522-.223" transform="translate(-190.943 -203.042)" fill="#fd5e5a"/>
          <path id="Trazado_825037" data-name="Trazado 825037" d="M220.108,126.9s.751,2.471.152,3.071-3.1,1.134-3.1,1.806-.234,1.285-1.665,2.132-1.983,3.883-1.5,4.365c0,0-3.583-.625-4.255-2.728s1.17-7.391,4.238-5.989c0,0-.238-3.907,5.317-2.089.371.121.818-.568.818-.568" transform="translate(-161.459 -97.752)" fill="#132759"/>
          <path id="Trazado_825038" data-name="Trazado 825038" d="M264.4,145.683s-1.5-1.659-.691-2.144,2.87,1.327,2.791,2.144-1.222,1.4-2.1,0" transform="translate(-202.957 -110.51)" fill="#fc7575"/>
          <path id="Trazado_825039" data-name="Trazado 825039" d="M265.747,146.808s-.935-.433-.731.093,1.368,1.729,1.762,1.335-1.031-1.428-1.031-1.428" transform="translate(-204.127 -112.961)" fill="#fd5e5a"/>
          <path id="Trazado_825040" data-name="Trazado 825040" d="M265.114,185.371s1.45-2.149,1.954-1.645-1.414,1.105-1.954,1.645" transform="translate(-204.225 -141.471)" fill="#0a142d"/>
          <path id="Trazado_825041" data-name="Trazado 825041" d="M254.487,179.378c-.145-.265-.429-1.208-.833-1.926.017.467.3,2.2.743,2.279.316.028.888-.6,1.083-.855-.444.208-.822.436-.993.5m-.052.018,0,0s-.01,0,0,0" transform="translate(-195.397 -136.697)" fill="#0a142d"/>
          <path id="Trazado_825042" data-name="Trazado 825042" d="M251.989,154.7a19.847,19.847,0,0,0-1.871,1.341,4.006,4.006,0,0,0-.668,1.112,20,20,0,0,1,2.275-1.712c.486-.2.263-.741.263-.741" transform="translate(-192.159 -119.173)" fill="#0a142d"/>
          <path id="Trazado_825043" data-name="Trazado 825043" d="M232.519,171.114a19.91,19.91,0,0,1,1.659-1.6,4.011,4.011,0,0,1,1.215-.454,20.013,20.013,0,0,0-2.1,1.926c-.284.441-.777.124-.777.124" transform="translate(-179.116 -130.235)" fill="#0a142d"/>
          <path id="Trazado_825044" data-name="Trazado 825044" d="M256.638,165.173a.614.614,0,1,1,.047-.72.523.523,0,0,1-.047.72" transform="translate(-197.091 -126.439)" fill="#0a142d"/>
          <path id="Trazado_825045" data-name="Trazado 825045" d="M243.165,178.31a.614.614,0,1,1,.048-.72.524.524,0,0,1-.048.72" transform="translate(-186.712 -136.558)" fill="#0a142d"/>
          <path id="Trazado_825046" data-name="Trazado 825046" d="M309.527,0l19.665,14.077,3.435-3.721,20.311,23.15L332.628,14.4l-3.435,1.618Z" transform="translate(-238.438 0)" fill="#f7931e"/>
          <path id="Trazado_825047" data-name="Trazado 825047" d="M187.013,120.5a.243.243,0,0,1-.24-.2c-1.655-10.146,7.722-16.679,7.817-16.744a.243.243,0,0,1,.274.4c-.093.063-9.216,6.427-7.612,16.264a.243.243,0,0,1-.2.279.259.259,0,0,1-.039,0" transform="translate(-143.727 -79.734)" fill="#0e1d43"/>
          <path id="Trazado_825048" data-name="Trazado 825048" d="M525.106,109.811h-.485c0-9.6-13.628-14.283-13.766-14.33l.155-.46c.141.048,14.1,4.842,14.1,14.79" transform="translate(-393.527 -73.198)" fill="#0e1d43"/>
        </g>
      </g>
    </g>
  </g>
</svg>
