<svg xmlns="http://www.w3.org/2000/svg" xmlns:xlink="http://www.w3.org/1999/xlink" width="169" height="169" viewBox="0 0 169 169">
  <defs>
    <clipPath id="clip-path">
      <circle id="Elipse_5910" data-name="Elipse 5910" cx="72.5" cy="72.5" r="72.5" transform="translate(404.833 2079.043)" fill="#fff" stroke="#707070" stroke-width="1"/>
    </clipPath>
    <clipPath id="clip-path-3">
      <rect id="Rectángulo_378572" data-name="Rectángulo 378572" width="182.036" height="135.716" fill="none"/>
    </clipPath>
    <clipPath id="clip-path-5">
      <rect id="Rectángulo_378570" data-name="Rectángulo 378570" width="33.826" height="37.685" fill="none"/>
    </clipPath>
  </defs>
  <g id="Grupo_1075684" data-name="Grupo 1075684" transform="translate(-1687.582 8778.72)">
    <g id="Grupo_1075682" data-name="Grupo 1075682" transform="translate(1302.081 -10836.719)">
      <g id="Grupo_159182" data-name="Grupo 159182" transform="translate(385.5 2057.999)">
        <path id="Unión_12" data-name="Unión 12" d="M84.5,0A84.5,84.5,0,1,1,0,84.5,84.5,84.5,0,0,1,84.5,0Z" transform="translate(0 0)" fill="#ffae7e"/>
      </g>
    </g>
    <g id="Grupo_1075683" data-name="Grupo 1075683" transform="translate(943.167 -10844.053)">
      <g id="Enmascarar_grupo_415" data-name="Enmascarar grupo 415" transform="translate(351.582)" clip-path="url(#clip-path)">
        <g id="Grupo_1075141" data-name="Grupo 1075141" transform="translate(360.858 2099.994)">
          <g id="Grupo_1075140" data-name="Grupo 1075140" clip-path="url(#clip-path-3)">
            <rect id="Rectángulo_378568" data-name="Rectángulo 378568" width="10.283" height="1.326" transform="matrix(0.993, -0.116, 0.116, 0.993, 87.171, 20.688)" fill="#f59829"/>
            <path id="Trazado_825521" data-name="Trazado 825521" d="M65.888,78.94l-8.417,3.032.069.575,18.792-2.2-.065-.575-8.891-1.005Z" transform="translate(38.796 53.17)" fill="#f59829"/>
            <rect id="Rectángulo_378569" data-name="Rectángulo 378569" width="1.548" height="120.215" transform="translate(90.694 12.767) rotate(-6.648)" fill="#f59829"/>
            <path id="Trazado_825522" data-name="Trazado 825522" d="M63.794,0,51.234,1.47,48.139,21.7,71.482,18.97Z" transform="translate(32.496 0)" fill="#733296"/>
            <path id="Trazado_825523" data-name="Trazado 825523" d="M56.03,19.921,56.035.543l-4.8.563-3.1,20.233L71.482,18.6l-.189-.471Z" transform="translate(32.496 0.366)" fill="#592577"/>
            <g id="Grupo_1075139" data-name="Grupo 1075139" transform="translate(0 0)">
              <g id="Grupo_1075138" data-name="Grupo 1075138" clip-path="url(#clip-path-3)">
                <path id="Trazado_825524" data-name="Trazado 825524" d="M46.475,15.4a.361.361,0,0,1-.072-.007.393.393,0,0,1-.317-.457L48.348,2.623a.393.393,0,1,1,.774.141l-2.26,12.308a.394.394,0,0,1-.387.323" transform="translate(31.106 1.553)" fill="#733296"/>
                <path id="Trazado_825525" data-name="Trazado 825525" d="M44.945,11.416a.177.177,0,0,1-.042,0,.237.237,0,0,1-.191-.275l1.43-7.787a.239.239,0,0,1,.275-.189.233.233,0,0,1,.189.273l-1.429,7.787a.236.236,0,0,1-.233.194" transform="translate(30.18 2.132)" fill="#733296"/>
                <path id="Trazado_825526" data-name="Trazado 825526" d="M65.066,13.394a.4.4,0,0,1-.362-.238L59.739,1.669a.393.393,0,1,1,.722-.312l4.967,11.487a.4.4,0,0,1-.2.518.413.413,0,0,1-.157.032" transform="translate(40.305 0.755)" fill="#733296"/>
                <path id="Trazado_825527" data-name="Trazado 825527" d="M65.472,9.748a.237.237,0,0,1-.216-.142L62.114,2.338a.236.236,0,0,1,.434-.188l3.141,7.268a.232.232,0,0,1-.122.31.236.236,0,0,1-.094.02" transform="translate(41.917 1.355)" fill="#733296"/>
                <path id="Trazado_825528" data-name="Trazado 825528" d="M138.567,41.166s-17.5,1.005-33.826,1.005-29.774-1.005-29.774-1.005L63.8,81.607H131.25Z" transform="translate(43.067 27.789)" fill="#9b431c"/>
                <g id="Grupo_1075137" data-name="Grupo 1075137" transform="translate(147.807 69.377)" opacity="0.4" style="mix-blend-mode: multiply;isolation: isolate">
                  <g id="Grupo_1075136" data-name="Grupo 1075136">
                    <g id="Grupo_1075135" data-name="Grupo 1075135" clip-path="url(#clip-path-5)">
                      <path id="Trazado_825529" data-name="Trazado 825529" d="M88.241,65.487,105.573,79.1h8.039l8.456-37.684-8.821,0c-2.188.092-4.675.186-7.365.273Z" transform="translate(-88.241 -41.418)" fill="#9b431c"/>
                    </g>
                  </g>
                </g>
                <path id="Trazado_825530" data-name="Trazado 825530" d="M62.163,79.274s11.186-38.39,13.591-38.107-6.7,66.761-8.514,66.761S64.7,97.046,64.7,97.046Z" transform="translate(41.963 27.788)" fill="#9b431c"/>
                <path id="Trazado_825531" data-name="Trazado 825531" d="M120.589,33.3c-3.662-1.967-30.111-2.714-36.622,0s-17.7,30.586-13.224,36.622c2.848,2.916,31.678,4.816,39.817,0S124.25,35.262,120.589,33.3" transform="translate(47.06 21.284)" fill="#e8c7b5"/>
                <path id="Trazado_825532" data-name="Trazado 825532" d="M113.435,32.994c-3.035-1.63-24.962-2.248-30.359,0S68.4,58.349,72.114,63.352c2.362,2.417,26.261,3.992,33.008,0s11.348-28.729,8.313-30.359" transform="translate(48.104 21.284)" fill="#fff2e9"/>
                <path id="Trazado_825533" data-name="Trazado 825533" d="M78.535,26.47c12.077,2.064-6.3,20.275-12.084,18.429C60.558,43.018,76.57,26.133,78.535,26.47" transform="translate(43.983 17.865)" fill="#495eab"/>
                <path id="Trazado_825534" data-name="Trazado 825534" d="M77.934,19.818l-2.4,5.276-3.285-1.012L75.28,19.27Z" transform="translate(48.771 13.008)" fill="#e08344"/>
                <path id="Trazado_825535" data-name="Trazado 825535" d="M85.769,9.121C91.178,7.176,87.7,26.8,83.147,27.139c-4.372.323-7.95-19.951,2.621-18.018" transform="translate(53.227 6.065)" fill="#7f2300"/>
                <path id="Trazado_825536" data-name="Trazado 825536" d="M74.705,22.287s-.322.069-1.811-5.3c0,0-2.089-.884-2.017-1.918.268-3.9,9.951-12.633,19.772-6.948,3.4,1.97-.973,4.425-5.707,7.429-4.9,3.111-10.238,6.737-10.238,6.737" transform="translate(47.844 4.22)" fill="#7f2300"/>
                <path id="Trazado_825537" data-name="Trazado 825537" d="M79.735,10.918l2.307-.124s3.219,3.231,5.876,1.524c0,5.307-2.461,13.384-5.369,13.6a2.269,2.269,0,0,1-1.827-1.06c-.384-4.7-.987-13.94-.987-13.94" transform="translate(53.825 7.286)" fill="#721a00"/>
                <path id="Trazado_825538" data-name="Trazado 825538" d="M70.878,14.093a2.284,2.284,0,0,1,.032-.229c2.861-4.806,7.469-2.263,13.764-2.425,5.539-.144,6.518-2.928,6.685-3.742a1.892,1.892,0,0,1,.405,2.2c-1.69,2.7-5.941,3.886-5.941,3.886l-5.214,4.628c-3.236,1.719-5.9,2.9-5.9,2.9s-.322.069-1.811-5.3c0,0-2.087-.886-2.015-1.92" transform="translate(47.844 5.195)" fill="#721a00"/>
                <path id="Trazado_825539" data-name="Trazado 825539" d="M72.543,46.063l27.3.24-25.776,6.37Z" transform="translate(48.97 31.094)" fill="#2a2e3d"/>
                <path id="Trazado_825540" data-name="Trazado 825540" d="M79.83,46.892C88.52,44.106,93.736,46.92,93.806,59l-34.747.1s.273-6.137,3.052-8.181C63.535,49.876,73.6,47.9,79.83,46.892" transform="translate(39.868 30.986)" fill="#323749"/>
                <path id="Trazado_825541" data-name="Trazado 825541" d="M71.459,46.724a15.794,15.794,0,0,1,8.476,2.858l6.477-2.573s-9.585-1.722-14.953-.285" transform="translate(48.238 31.154)" fill="#2a2f3d"/>
                <path id="Trazado_825542" data-name="Trazado 825542" d="M103.029,46.324S102.681,55.088,99.9,58.8l-32.745.018s-1.333-5.859,1.219-8.181c3.037-2.76,24.68-4.082,34.658-4.315" transform="translate(45.095 31.271)" fill="#3d4359"/>
                <path id="Trazado_825543" data-name="Trazado 825543" d="M71.459,61.791s4.551-.972,14.07,1.384A50.561,50.561,0,0,1,99.2,68.937c3.6-7.429,6.821-41.293.025-43.844-3.122-1.173-8.591-1.7-13.856-.826-5.1.849-11.407,3.467-12.251,4.928C72.1,30.96,74.04,38.806,74.9,42.8c2.933,13.57.9,15.849-3.444,18.99" transform="translate(48.238 16.087)" fill="#f9dcee"/>
                <path id="Trazado_825544" data-name="Trazado 825544" d="M83.291,65.046a49.5,49.5,0,0,1,7.925,3.913c3.6-7.43,6.821-41.293.025-43.846a33.559,33.559,0,0,0-7.7-1.312c3.631,6.377,4.01,24.548-.251,41.245" transform="translate(56.225 16.067)" fill="#e0b1d0"/>
                <path id="Trazado_825545" data-name="Trazado 825545" d="M83.632,24.266a37.748,37.748,0,0,0-9.595,3.074c.007.012,3.168,4.566,10.362,3.422a12.251,12.251,0,0,0,9.271-6.59,33.074,33.074,0,0,0-10.039.094" transform="translate(49.978 16.089)" fill="#495eab"/>
                <path id="Trazado_825546" data-name="Trazado 825546" d="M75.379,59.754H95.243a15.155,15.155,0,0,0,4.61-7.538L91.858,48.6s-.794,3.75-2.31,4.593-18.323.858-19,1.536,4.826,5.025,4.826,5.025" transform="translate(47.588 32.807)" fill="#323749"/>
                <path id="Trazado_825547" data-name="Trazado 825547" d="M77.8,46.9A47.941,47.941,0,0,1,94.92,53.363l-.742,2.157S87.255,48.6,77.8,46.9" transform="translate(52.521 31.66)" fill="#323749"/>
                <path id="Trazado_825548" data-name="Trazado 825548" d="M85.052,16.64s.228,9.012,1.771,12.625l-9.64,1.529a37.872,37.872,0,0,0-.248-6.963c-.678-6.754,8.117-7.191,8.117-7.191" transform="translate(51.909 11.233)" fill="#e08344"/>
                <path id="Trazado_825549" data-name="Trazado 825549" d="M82.444,24.253a34.73,34.73,0,0,1,9.2-.258S90,28.733,83.129,29.645c-6.025.8-8.385-2.831-8.385-2.831a33.17,33.17,0,0,1,7.7-2.561" transform="translate(50.456 16.066)" fill="#e08344"/>
                <path id="Trazado_825550" data-name="Trazado 825550" d="M90.194,28.827A8.655,8.655,0,0,1,86.278,33a12.876,12.876,0,0,1-9.037-4.141c-.012-1.136-.08-2.792-.3-5.028a5.991,5.991,0,0,1,.312-2.74l5.136-3.978a13.441,13.441,0,0,1,2.67-.472s.2,8.028,1.524,11.968a27.406,27.406,0,0,1,3.616.218" transform="translate(51.91 11.233)" fill="#d1652f"/>
                <path id="Trazado_825551" data-name="Trazado 825551" d="M86.922,22.453c-.156,5.057-.561,4.34-4.632,7.93a6.246,6.246,0,0,1-4.5.6c-.787-.389-.884-1.139-2.022-2.777a11,11,0,0,1-2.117-4.275c-.213-1.462-.142-2.469-.266-3.509-.238-2-.772-3.766-.886-6.064-.112-2.266,2.469-3.918,5.884-4.107,7.821-.436,8.065,2.831,8.538,12.206" transform="translate(48.938 6.892)" fill="#ffb476"/>
                <path id="Trazado_825552" data-name="Trazado 825552" d="M79.383,29.824c5.673-4.266,3.9-17.067,1.307-18.824,4.977.553,4.474,5.245,4.29,11.975-.161,3.67-.705,4.1-4.884,7.245a6.016,6.016,0,0,1-4.369.236,1.3,1.3,0,0,1-.288-.24,6.215,6.215,0,0,0,3.945-.392" transform="translate(50.924 7.425)" fill="#ed9558"/>
                <path id="Trazado_825553" data-name="Trazado 825553" d="M80.643,17.552a2.047,2.047,0,1,0,1.662-2.37,2.047,2.047,0,0,0-1.662,2.37" transform="translate(54.416 10.227)" fill="#ed9558"/>
                <path id="Trazado_825554" data-name="Trazado 825554" d="M81.821,17.845a.959.959,0,0,0-.394-1.878,1.135,1.135,0,1,1,.936,2.013,1.118,1.118,0,0,1-.817-.129.892.892,0,0,0,.275-.007" transform="translate(54.967 10.623)" fill="#e08344"/>
                <path id="Trazado_825555" data-name="Trazado 825555" d="M86.485,11.217s.832,1.5.677,7.573l-.392,2.69-.791.154s.092-6.057-1.243-9.387a6.144,6.144,0,0,1-3.231-.367c-7.967-2.647-9.02,1.75-9.02,1.75.241-2.911,1.858-3.781,5.774-3.653a31.534,31.534,0,0,1,8.226,1.24" transform="translate(48.931 6.727)" fill="#721a00"/>
                <path id="Trazado_825556" data-name="Trazado 825556" d="M75.721,14.524a3.494,3.494,0,0,1,.995,1.149c1.307,2.883-1.563,3.29-1.332,4,.338,1.028,2.561.549,2.561.549-.188.72-2.678.663-2.992-.38-.369-1.231,2.543-1.293,1.508-4.037a8.381,8.381,0,0,0-.74-1.278" transform="translate(50.576 9.804)" fill="#e08344"/>
                <path id="Trazado_825557" data-name="Trazado 825557" d="M81.174,13.771c.035.365-1.059.35-2.31.851s-1.973,1.268-2.226.8c-.295-.548.593-1.4,1.844-1.893,1.623-.64,2.65-.181,2.692.241" transform="translate(51.696 8.919)" fill="#721a00"/>
                <path id="Trazado_825558" data-name="Trazado 825558" d="M76.07,15.344c-.1.352-.874-.084-1.791-.245-.956-.168-1.389.106-1.4-.281-.012-.628.652-.978,1.668-.816,1.189.191,1.621.99,1.519,1.342" transform="translate(49.199 9.425)" fill="#721a00"/>
                <path id="Trazado_825559" data-name="Trazado 825559" d="M80.244,16.009a2.321,2.321,0,0,0-.452-.241,3.064,3.064,0,0,0-1.1-.235,3.443,3.443,0,0,0-1.121.139,3.254,3.254,0,0,0-.489.181.113.113,0,0,1-.151-.052.115.115,0,0,1,.05-.149,3.506,3.506,0,0,1,.509-.224,2.957,2.957,0,0,1,1.214-.2,3.311,3.311,0,0,1,1.193.31,2.605,2.605,0,0,1,.486.29.112.112,0,0,1,.02.157.115.115,0,0,1-.156.022" transform="translate(51.922 10.276)" fill="#5e302a"/>
                <path id="Trazado_825560" data-name="Trazado 825560" d="M77.832,16.318l-.023,0-.915-.276a.082.082,0,0,1-.054-.059.076.076,0,0,1,.023-.074l.9-.848a.076.076,0,0,1,.111,0,.077.077,0,0,1,0,.111l-.8.754.786.238a.08.08,0,0,1,.052.1.079.079,0,0,1-.075.055" transform="translate(51.87 10.15)" fill="#5e302a"/>
                <path id="Trazado_825561" data-name="Trazado 825561" d="M73.3,16.38a2.949,2.949,0,0,1,1.414-.759,2.335,2.335,0,0,1,1.112.062,2.533,2.533,0,0,1,.472.174.114.114,0,0,1,.059.149.119.119,0,0,1-.147.057,2.483,2.483,0,0,0-.444-.131,2.628,2.628,0,0,0-1-.012,2.566,2.566,0,0,0-.941.347,2.22,2.22,0,0,0-.37.271.11.11,0,0,1-.157,0,.113.113,0,0,1,0-.157" transform="translate(49.458 10.516)" fill="#5e302a"/>
                <path id="Trazado_825562" data-name="Trazado 825562" d="M74.7,16.624a.075.075,0,0,1-.07-.045.078.078,0,0,1,.037-.1l.685-.318-.73-.667a.081.081,0,0,1-.005-.111.078.078,0,0,1,.112-.007l.817.747a.092.092,0,0,1,.025.07.087.087,0,0,1-.045.06l-.792.367a.08.08,0,0,1-.034.007" transform="translate(50.359 10.363)" fill="#5e302a"/>
                <path id="Trazado_825563" data-name="Trazado 825563" d="M78.06,21.211c.02.283-.451.248-1.015.288s-1.01.141-1.03-.142.422-.544.987-.585,1.039.156,1.059.439" transform="translate(51.313 14.018)" fill="#ed9558"/>
                <path id="Trazado_825564" data-name="Trazado 825564" d="M82.05,24.16c-.908-1.59-.432-4.072-.261-5.817a11.8,11.8,0,0,0,.235-2c.039-1.233-.015-2.434.268-2.355s.4,1.293.424,2.37a7.2,7.2,0,0,0,.084,1.864,6.748,6.748,0,0,0,.27-2.363c.037-1.494,0-3.154.412-3.191s.583,1.658.588,3.191a10.725,10.725,0,0,0,.015,2.409c.238.039.312-1.161.295-2.519-.02-1.618-.117-3.449.459-3.5.35-.034.533,1.853.554,3.531.018,1.367-.209,2.561-.025,2.6.613.122.044-4.945.859-4.988.541-.028.486,4.973.394,5.794a12.776,12.776,0,0,1-1.836,5.228Z" transform="translate(55.024 8.266)" fill="#ffb476"/>
                <path id="Trazado_825565" data-name="Trazado 825565" d="M78.31,41.962s1.209,4.876,4.441,4.742,9.717-5.251,14.834-12.658l-3.771-6.732Z" transform="translate(52.863 18.438)" fill="#e0b1d0"/>
                <path id="Trazado_825566" data-name="Trazado 825566" d="M95.52,24.6c10.069,4.107-12.694,24.295-17.551,20.657-3.2-2.4,1.678-7.7,7.358-12.951,4.312-3.99,8.993-8.194,10.193-7.705" transform="translate(51.946 16.579)" fill="#495eab"/>
                <path id="Trazado_825567" data-name="Trazado 825567" d="M85.567,18.767,84.211,24.4l-3.419-.369,1.8-4.511Z" transform="translate(54.539 12.668)" fill="#ffb476"/>
                <path id="Trazado_825568" data-name="Trazado 825568" d="M83.418,21.022l4.68.166s-.734,11.312-3.01,18.4c-1.543,4.8-4.09,9-6.487,8.41-2.035-.5-2.459-4.9-1.178-9.749,1.35-5.112,5.995-17.223,5.995-17.223" transform="translate(51.773 14.191)" fill="#536fbc"/>
                <path id="Trazado_825569" data-name="Trazado 825569" d="M77.393,21.167,81.768,23.2s-4.034,12.231-7.084,19.018c-2.067,4.6-5.866,7.106-8.183,6.253-1.968-.724-1.839-5.332.122-9.946,2.417-5.693,10.769-17.362,10.769-17.362" transform="translate(43.937 14.289)" fill="#536fbc"/>
                <path id="Trazado_825570" data-name="Trazado 825570" d="M86.427,46.777a43.412,43.412,0,0,0-12.419-1.549,17.717,17.717,0,0,1-2.549,2.141s4.551-.973,14.07,1.384A50.53,50.53,0,0,1,99.2,54.514a15.909,15.909,0,0,0,.779-2.049,50.693,50.693,0,0,0-13.554-5.688" transform="translate(48.238 30.51)" fill="#495eab"/>
                <path id="Trazado_825571" data-name="Trazado 825571" d="M91.629,52.2c.122-.328.245-.68.365-1.06h0a50.835,50.835,0,0,0-8.2-3.988c-.162.709-.323,1.419-.5,2.124a50.368,50.368,0,0,1,7.761,3.811l.045.027.119.075c.129-.268.258-.575.385-.91.01-.025.018-.054.028-.079" transform="translate(56.225 31.832)" fill="#354e93"/>
                <path id="Trazado_825572" data-name="Trazado 825572" d="M77.576,19.4c1.08.01,1.771-.675,2.41-.737.812-.08,1.523,2.24.685,2.5-.953.295-1.253-.278-2.764-.079s-1.906.67-2.672.548c-1.054-.171-.73-2.516.1-2.531.715-.05.868.286,2.24.3" transform="translate(50.339 12.597)" fill="#5e302a"/>
                <path id="Trazado_825573" data-name="Trazado 825573" d="M78.949,19.413a12.412,12.412,0,0,1-2.742.389,10.255,10.255,0,0,0-1.034.352l-.233.734c.712.224,1.658-.441,2.707-.533,1.427-.124,2.364.379,2.6.074l.012-.005-.554-.951a6.372,6.372,0,0,0-.755-.059" transform="translate(50.589 13.104)" fill="#f8e7c9"/>
                <path id="Trazado_825574" data-name="Trazado 825574" d="M79.54,19.57l.022-.719a7.088,7.088,0,0,1-2.221.678c-1.29-.012-1.444-.38-2.166-.332a1.216,1.216,0,0,0-.229.037l.24.829a7.016,7.016,0,0,0,4.355-.494" transform="translate(50.591 12.725)" fill="#f8e7c9"/>
                <path id="Trazado_825575" data-name="Trazado 825575" d="M13.606,62.732s5.91-6.379,22.147-10.338c26.367-6.432,58.29-10.054,70.657-7.606,12.409,2.454,30.012,6.908,35.059,11.869a103.451,103.451,0,0,1,9.6,11.219Z" transform="translate(9.185 29.714)" fill="#1bbac7"/>
                <path id="Trazado_825576" data-name="Trazado 825576" d="M106.41,44.754a97.149,97.149,0,0,0-16.191-.585,131.729,131.729,0,0,1,25.293,4.082c10.4,2.615,22.427,8.154,10.958,9.018-27.034,2.034-35.722-6.5-50.59-6.052-14.059.427-17.255,8.474-35.828,7.655-18.166-.8-8.374-5.233-8.032-5.5C18.619,57.319,13.606,62.7,13.606,62.7l137.468,5.146a44.961,44.961,0,0,0-9.6-11.219c-8.139-6.348-21.955-10.26-35.059-11.871" transform="translate(9.185 29.745)" fill="#09a3b7"/>
                <path id="Trazado_825577" data-name="Trazado 825577" d="M12.014,55.255H88.927V69.642H12.014a3.333,3.333,0,0,1-3.3-3.365V58.62a3.334,3.334,0,0,1,3.3-3.365" transform="translate(5.881 37.299)" fill="#fff2e9"/>
                <path id="Trazado_825578" data-name="Trazado 825578" d="M128.812,55.255H51.9a3.335,3.335,0,0,1,3.3,3.365v7.657a3.334,3.334,0,0,1-3.3,3.365h76.913a3.333,3.333,0,0,0,3.3-3.365V58.62a3.334,3.334,0,0,0-3.3-3.365" transform="translate(35.034 37.299)" fill="#e8c7b5"/>
                <path id="Trazado_825579" data-name="Trazado 825579" d="M49.553,107.927c-2.176,0,6.286-44.975,7.98-44.975,2.176,0,.8,16.322.8,16.322h76.5s11.186-38.392,13.591-38.107-6.7,66.761-8.514,66.761-2.539-10.881-2.539-10.881H55.1s-3.131,10.881-5.549,10.881" transform="translate(33.211 27.788)" fill="#9b431c"/>
                <path id="Trazado_825580" data-name="Trazado 825580" d="M86.519,54.2c-1.692,0-5.561,16.322-5.561,16.322h-67.3S7.793,52.813,6.4,54.2s7.739,44.975,9.431,44.975S17.284,88.3,17.284,88.3h60.58s-.655,10.881.675,10.881c.883,0,2.389-9.342,4.24-19.513C84.988,67.523,87.44,54.2,86.519,54.2" transform="translate(4.225 36.537)" fill="#aa4f22"/>
                <path id="Trazado_825581" data-name="Trazado 825581" d="M24.518,51.951a.394.394,0,0,1-.109-.772A274.361,274.361,0,0,1,69.7,42.793a.393.393,0,1,1,.067.784,273.439,273.439,0,0,0-45.137,8.358.416.416,0,0,1-.109.015" transform="translate(16.285 28.885)" fill="#1bbac7"/>
                <path id="Trazado_825582" data-name="Trazado 825582" d="M12.258,91.329a.393.393,0,0,1-.377-.281C8.123,78.5,5.618,66.267,5.593,66.147a.393.393,0,1,1,.771-.157c.025.121,2.524,12.32,6.271,24.834a.392.392,0,0,1-.265.489.373.373,0,0,1-.112.017" transform="translate(3.77 44.333)" fill="#aa4f22"/>
                <path id="Trazado_825583" data-name="Trazado 825583" d="M4.367,59.881a.4.4,0,0,1-.385-.313L2.225,51.15a.383.383,0,0,1,.079-.327.4.4,0,0,1,.3-.146h8.667a.394.394,0,1,1,0,.787H3.094l1.658,7.941a.391.391,0,0,1-.3.466.47.47,0,0,1-.082.008" transform="translate(1.496 34.21)" fill="#aa4f22"/>
                <path id="Trazado_825584" data-name="Trazado 825584" d="M1.518,55.782a.236.236,0,0,1-.231-.189L.005,49.459a.237.237,0,0,1,.231-.285H6.553a.236.236,0,0,1,0,.472H.526L1.749,55.5a.234.234,0,0,1-.183.278.169.169,0,0,1-.049.007" transform="translate(0 33.195)" fill="#aa4f22"/>
                <path id="Trazado_825585" data-name="Trazado 825585" d="M89.144,10.472a.55.55,0,0,1-.551-.551,4.88,4.88,0,0,0-4.874-4.874.551.551,0,1,1,0-1.1,5.982,5.982,0,0,1,5.977,5.977.55.55,0,0,1-.551.551" transform="translate(56.142 2.662)" fill="#db1f1f"/>
                <path id="Trazado_825586" data-name="Trazado 825586" d="M93.113,9.357a.55.55,0,0,1-.551-.551A6.916,6.916,0,0,0,85.652,1.9a.551.551,0,0,1,0-1.1,8.018,8.018,0,0,1,8.01,8.01.549.549,0,0,1-.549.551" transform="translate(57.447 0.537)" fill="#db1f1f"/>
              </g>
            </g>
          </g>
        </g>
      </g>
    </g>
  </g>
</svg>
