<svg xmlns="http://www.w3.org/2000/svg" xmlns:xlink="http://www.w3.org/1999/xlink" width="169" height="169" viewBox="0 0 169 169">
  <defs>
    <clipPath id="clip-path">
      <rect id="Rect치ngulo_378362" data-name="Rect치ngulo 378362" width="113" height="112.968" fill="none"/>
    </clipPath>
  </defs>
  <g id="Grupo_1073328" data-name="Grupo 1073328" transform="translate(-384.743 -2058.1)">
    <g id="Grupo_159182" data-name="Grupo 159182" transform="translate(384.743 2058.1)">
      <path id="Uni칩n_12" data-name="Uni칩n 12" d="M84.5,0A84.5,84.5,0,1,1,0,84.5,84.5,84.5,0,0,1,84.5,0Z" transform="translate(0 0)" fill="#ffae7e"/>
    </g>
    <g id="Grupo_1074736" data-name="Grupo 1074736" transform="translate(405.742 2086.015)">
      <g id="Grupo_1074735" data-name="Grupo 1074735" transform="translate(7 0.084)" clip-path="url(#clip-path)">
        <path id="Trazado_824361" data-name="Trazado 824361" d="M110.512,90.74a13.126,13.126,0,0,0,2.011.781.605.605,0,0,1,.471.66q-.014,4.44,0,8.88c0,.29-.022.461-.4.538a11.377,11.377,0,0,0-1.752.589c-.159.061-.413.083-.184.436a15.624,15.624,0,0,1,.759,1.626.571.571,0,0,1-.123.756q-3.124,3.114-6.229,6.248a.581.581,0,0,1-.758.134c-.5-.249-1.021-.469-1.519-.727-.27-.14-.452-.161-.565.173-.159.469-.361.926-.493,1.4s-.306.737-.877.731c-2.922-.029-5.845-.015-8.767-.011-.293,0-.463.015-.537-.407a11.349,11.349,0,0,0-.646-1.827c-.095-.26-.231-.161-.4-.079-.491.243-1,.458-1.482.712a.676.676,0,0,1-.9-.157c-1.32-1.33-2.67-2.633-3.981-3.972a30.485,30.485,0,0,1-2.277-2.3c-.319-.4-.134-.712.086-1.076a9.781,9.781,0,0,0,.633-1.324c.068-.162-.064-.222-.232-.3a12.187,12.187,0,0,0-1.741-.636.481.481,0,0,1-.415-.559c.012-.759-.006-1.518.009-2.277.005-.275-.039-.41-.362-.387-1,.07-2.006.019-3.01.017-10.665-.018-21.329,0-31.993-.021a4.68,4.68,0,0,1-3.168-1.363,22.107,22.107,0,0,1-1.581-1.632,2.058,2.058,0,0,0-1.614-.644q-16.139.01-32.279.005A6.1,6.1,0,0,1,3.1,94.232,6.823,6.823,0,0,1,.881,92.26a5.622,5.622,0,0,1,.2-6.25,5.444,5.444,0,0,1,4.559-2.178c8.33-.028,16.661-.016,24.991-.013,1.1,0,1.716-.312,2-1.129a3.723,3.723,0,0,0,.194-1.13c.022-1.423.005-2.846.012-4.269,0-.249,0-.543-.22-.637-.182-.076-.414.091-.575.257a10.251,10.251,0,0,1-3.032,2.017,16.936,16.936,0,0,1-2.715.848,12.115,12.115,0,0,1-3.242.379,9.769,9.769,0,0,1-3.248-.568,11.585,11.585,0,0,1-2.81-1.326,13.7,13.7,0,0,1-4.759-5.431,13.266,13.266,0,0,1-1.262-6.446,5.531,5.531,0,0,1,.115-.967c.065-.295-.162-.356-.313-.473a13.784,13.784,0,0,1-3.491-3.928A12.614,12.614,0,0,1,5.6,55.947a11.628,11.628,0,0,1,.355-4.587.62.62,0,0,0-.3-.793A12.868,12.868,0,0,1,.8,44.415,12.478,12.478,0,0,1,.056,38.8a12.172,12.172,0,0,1,1.81-5.228A12.923,12.923,0,0,1,5.65,29.6a.686.686,0,0,0,.314-.873,11.787,11.787,0,0,1,.009-6.709,12.825,12.825,0,0,1,4.6-6.575,1.169,1.169,0,0,0,.509-1.276,11.254,11.254,0,0,1,.647-5.657,13.133,13.133,0,0,1,5.021-6.357A12.2,12.2,0,0,1,21.677.142a12.11,12.11,0,0,1,3.9.08A12.392,12.392,0,0,1,31.6,2.749a13.212,13.212,0,0,1,3.057,3.465A13.237,13.237,0,0,1,36.43,3.906,12.686,12.686,0,0,1,57.755,9.251a12.382,12.382,0,0,1,.573,3.671,5.569,5.569,0,0,1-.207,1.6c-.081.27.053.44.271.614a14.663,14.663,0,0,1,2.962,2.985,13.836,13.836,0,0,1,2.316,5.688,1.427,1.427,0,0,1-.065.941.254.254,0,0,0-.028.16,8.207,8.207,0,0,1-.3,4.109c-.085.3.111.384.254.478a12.741,12.741,0,0,1,4.392,5.12,10.037,10.037,0,0,1,1,3.134c.046.343.161.561.593.527.584-.046,1.176,0,1.763-.014A1.551,1.551,0,0,0,72.8,36.786c.252-3.195.052-6.393.107-9.59a5.2,5.2,0,0,1,3.068-4.772,6.632,6.632,0,0,1,3.556-.542c.531.038.689-.086.684-.655-.033-3.244-.009-6.489-.026-9.734,0-.424.077-.57.542-.564,2.087.029,4.175,0,6.262.022.387,0,.52-.074.5-.487-.035-.891.011-1.784-.021-2.675-.013-.391.08-.506.489-.5,2.106.023,4.213,0,6.319.021.392,0,.515-.083.5-.491-.034-.91.006-1.822-.019-2.732-.01-.348.077-.443.434-.44,2.125.019,4.251,0,6.376.019.4,0,.51-.092.5-.495-.033-.928,0-1.859-.018-2.788-.006-.3.084-.377.379-.376,3.4.01,6.794.016,10.19-.005.452,0,.368.246.368.5q0,8.311,0,16.622c0,2.619-.012,5.237.012,7.855,0,.451-.12.549-.557.549q-16.937-.019-33.873-.016a2.032,2.032,0,0,0-1.819.879,1.282,1.282,0,0,0-.2.79c0,2.865.019,5.731-.01,8.6a8.8,8.8,0,0,1-.261,2.209,4.975,4.975,0,0,1-3.9,3.693,8.851,8.851,0,0,1-2.737.225c-.445-.033-.574.1-.666.542a12.3,12.3,0,0,1-4.911,7.875c-.6.428-.952.742-.629,1.54a8.8,8.8,0,0,1,.267,2.271,12.424,12.424,0,0,1-5.235,10.8.783.783,0,0,0-.352.911,10.478,10.478,0,0,1-.292,4.873,12.3,12.3,0,0,1-3.424,5.81h.7c4.649,0,9.3-.008,13.947.018a1.826,1.826,0,0,0,2.035-2.03c.005-3.757-.052-7.515.037-11.27A5.167,5.167,0,0,1,75.6,58.446c3.34-.35,6.7-.067,10.049-.142.219-.005.438,0,.817,0a16.358,16.358,0,0,1-2.876-2.914,15.782,15.782,0,0,1-3.176-7.213,15.5,15.5,0,0,1,.466-7.187A16.86,16.86,0,0,1,88.8,31.129a14.576,14.576,0,0,1,5.115-1.75,19.282,19.282,0,0,1,3.334-.15,18.194,18.194,0,0,1,5.016,1.044,13.679,13.679,0,0,1,5.17,3.024,17.453,17.453,0,0,1,2.333,2.678A15.009,15.009,0,0,1,112,40.14a16.106,16.106,0,0,1,.88,4.173,15.78,15.78,0,0,1-5.417,13.409c-.728.643-1.549,1.18-2.326,1.763a2.9,2.9,0,0,0-1.248,2.264c-.016.721,0,1.442-.013,2.163a18.365,18.365,0,0,1-.345,3.787,6.442,6.442,0,0,1-1.705,2.912,9.6,9.6,0,0,1-1.979,1.531,5.129,5.129,0,0,1-1.951.609,7.033,7.033,0,0,1-3.276-.109A7.376,7.376,0,0,1,89.884,68.4a7.237,7.237,0,0,1-.572-3.159,16.7,16.7,0,0,1,.084-2.93.318.318,0,0,0-.368-.371c-.471.026-.943.007-1.415.007q-5.437,0-10.873,0c-1.385,0-2.008.632-2.008,2.03q0,4.839,0,9.677a8.918,8.918,0,0,1-.363,2.92,5.077,5.077,0,0,1-2.929,3.107,7.133,7.133,0,0,1-2.781.488c-7.837-.01-15.675.021-23.511-.023a11.122,11.122,0,0,1-5.866-1.711,9.168,9.168,0,0,1-2.354-1.8.291.291,0,0,0-.35-.121c-.172.074-.1.229-.1.346-.005,1.5.048,3-.02,4.5a7.057,7.057,0,0,1-.754,3.309,5.172,5.172,0,0,1-3.509,2.575,10.733,10.733,0,0,1-2.516.206c-8.008,0-16.016.013-24.024-.012a1.874,1.874,0,0,0-1.92,1.229,1.84,1.84,0,0,0,1.476,2.426c.4.011.8,0,1.2,0q15.826,0,31.652.008a6.008,6.008,0,0,1,3.785,1.159,19.811,19.811,0,0,1,1.826,1.767,2.318,2.318,0,0,0,1.76.726q17.135-.025,34.271,0c.459,0,.525-.147.507-.541-.031-.644.015-1.291-.016-1.935a.659.659,0,0,1,.534-.788c.521-.147,1.022-.362,1.537-.528.319-.1.425-.244.252-.572-.264-.5-.479-1.029-.742-1.531a.553.553,0,0,1,.123-.75q3.125-3.113,6.228-6.248c.407-.412.807-.177,1.184-.02a9.852,9.852,0,0,1,1.124.637c.355.208.477-.056.573-.3.2-.52.4-1.044.56-1.577a.556.556,0,0,1,.628-.434q4.412.01,8.824,0a.531.531,0,0,1,.613.436c.167.577.411,1.132.619,1.7.085.232.157.334.444.172.487-.276,1.026-.456,1.525-.711a.594.594,0,0,1,.8.123c1.914,1.944,3.843,3.873,5.761,5.814.829.839.822.847.3,1.912-.182.37-.366.739-.563,1.137M65.572,39.886q-.032-.327-.064-.654h.02l-.02-.016a5.9,5.9,0,0,0-.576-2.652,9.018,9.018,0,0,0-5.974-5.24c-.938-.256-1.954-.046-2.836-.546-.371.522-.94.241-1.414.345a9.158,9.158,0,0,0-7.3,8.593c-.01.247-.044.382-.34.378q-1.508-.023-3.015,0c-.278,0-.307-.128-.294-.346a11.662,11.662,0,0,1,.635-3.633c1.85-4.684,5.064-7.761,10.205-8.568a12.7,12.7,0,0,1,4.885.205c.27.063.455-.017.446-.246-.018-.459.221-.875.169-1.331l.023-.031-.018-.034.007-.733.017-.033-.022-.029q-.032-.328-.065-.655h.02l-.02-.016a8.758,8.758,0,0,0-3.728-6.558A8.318,8.318,0,0,0,51.8,16.508c-.264-.019-.719.09-.736-.359-.038-1.042-.009-2.086-.014-3.13,0-.2.1-.324.266-.244.446.216.924.077,1.386.161.543.1,1.1.171,1.643.286.271.057.384-.027.355-.318-.051-.5-.042-1.016-.125-1.513a9.094,9.094,0,0,0-10.7-7.582,8.465,8.465,0,0,0-5.513,3.37A9.022,9.022,0,0,0,36.467,12.7q.014,27.29,0,54.58a9.077,9.077,0,0,0,1.313,4.83,8.978,8.978,0,0,0,10.689,3.943,8.963,8.963,0,0,0,6.183-8.662l-.007-.172a1.533,1.533,0,0,0-.064-.656l.021-.007-.022-.016a9.16,9.16,0,0,0-.6-2.7c-.124-.325-.067-.418.212-.548a14.772,14.772,0,0,0,1.453-.765,8.686,8.686,0,0,0,4.4-6.861l.025-.021-.022-.02a2.821,2.821,0,0,0,.059-1.1l.017-.033-.022-.03q-.032-.327-.064-.654h.02l-.02-.016a6.673,6.673,0,0,0-.451-2.124,8.708,8.708,0,0,0-7.908-6.006c-.4-.02-.708-.135-.656-.7a19.718,19.718,0,0,0,.012-2.387c-.014-.478-.028-.822.639-.565a3.923,3.923,0,0,0,1.047.113,12.332,12.332,0,0,1,6.291,2.642,12.75,12.75,0,0,1,2.366,2.483c.125.157.275.442.47.2.292-.361.727-.523,1.022-.871a17.08,17.08,0,0,0,1.63-2.274,8.8,8.8,0,0,0,1.012-3.206l.026-.022-.023-.023a2.812,2.812,0,0,0,.058-1.1l.017-.033ZM18.254,65.6c0,.456-.028.913.009,1.366.033.4-.138.467-.488.452a11.075,11.075,0,0,1-2.7-.418c-.234-.069-.457-.151-.475.278a8.129,8.129,0,0,0,.9,4.124,8.9,8.9,0,0,0,6.908,5.021,8.714,8.714,0,0,0,5.2-.787,8.83,8.83,0,0,0,5.209-8.473q.038-26.813-.008-53.625a10.058,10.058,0,0,0-.193-2.235c-.153-.668-.366-1.314-.556-1.964A7.845,7.845,0,0,0,29.52,5.721a8.054,8.054,0,0,0-3.335-1.7,9.288,9.288,0,0,0-4.245-.207,9.111,9.111,0,0,0-6.9,11.721c.38,1.187.342,1.2-.76,1.775-.1.053-.206.1-.305.152a9.017,9.017,0,0,0-4.724,6.683,8.416,8.416,0,0,0,.767,5.321,8.847,8.847,0,0,0,7.764,5.14c.369.021.492.152.483.516-.02.891-.023,1.784,0,2.675.01.365-.085.479-.467.476a12.254,12.254,0,0,1-4.817-1.18,12.8,12.8,0,0,1-5-4.092c-.307-.4-.694-.443-.986-.067-.452.58-1.034,1.034-1.466,1.637A9.3,9.3,0,0,0,3.693,39.15a9.27,9.27,0,0,0,6.755,9.8,8.6,8.6,0,0,0,4.009.117,9.128,9.128,0,0,0,7.431-8.6c.019-.286.07-.386.377-.387.986,0,1.973.1,2.959.005.313-.031.388.152.3.371a5.821,5.821,0,0,0-.183,1.5,12.361,12.361,0,0,1-2.371,5.752,12.849,12.849,0,0,1-6.526,4.572,12.034,12.034,0,0,1-6.134.312c-.3-.057-.616-.2-.891-.068-.35.162-.1.534-.159.807a8.487,8.487,0,0,0,.758,5.307,8.639,8.639,0,0,0,2.768,3.355,7.213,7.213,0,0,0,2.1,1.153,8.684,8.684,0,0,0,2.969.624c.289-.013.409.12.4.411-.012.474,0,.949,0,1.423m80.16-9.325c0,1.745.009,3.49-.008,5.235,0,.335.058.485.429.445a5.314,5.314,0,0,1,1.023,0c.289.026.388-.1.434-.354.078-.439.161-.878.278-1.307a7.22,7.22,0,0,1,3.2-4.192,12.185,12.185,0,0,0,4.279-4.913,12.721,12.721,0,0,0,1.206-5.811,12.007,12.007,0,0,0-1.057-5.123,12.726,12.726,0,0,0-5.527-5.921,13.438,13.438,0,0,0-4.456-1.34,11.007,11.007,0,0,0-5.3.357,12.466,12.466,0,0,0-8.96,10.6,11.663,11.663,0,0,0,.424,5.368,13.215,13.215,0,0,0,5.487,7.118,6.065,6.065,0,0,1,2.756,4.122c.259,1.461.284,1.444,1.8,1.4.322-.01.361-.125.36-.4q-.012-5.264,0-10.527c0-.289-.107-.389-.371-.523a5.419,5.419,0,1,1,7.55-4.339,5.147,5.147,0,0,1-3.165,4.288.577.577,0,0,0-.382.638c.012,1.726.006,3.452.006,5.178M85.98,103.749c-.025.276.158.4.3.549.734.742,1.474,1.476,2.207,2.219.762.773.78.813,1.739.284a2.188,2.188,0,0,1,2.481-.025c.28.181.663.252.759.6.111.4.329.745.417,1.157a.877.877,0,0,0,1.048.805,23.309,23.309,0,0,1,3.3-.006c.646.039.954-.2,1.045-.789a2.366,2.366,0,0,1,1.988-2.094,1.414,1.414,0,0,1,1.033.042c.39.194.8.359,1.17.58a.585.585,0,0,0,.836-.13q1.348-1.388,2.741-2.732a.475.475,0,0,0,.124-.682c-.252-.443-.446-.918-.68-1.372a.944.944,0,0,1-.092-.712c.289-1.031.744-1.909,1.933-2.124.166-.03.323-.107.489-.143.413-.089.554-.319.539-.753-.035-1.023-.011-2.049-.011-3.074,0-1.136-.008-1.113-1.075-1.529-.574-.223-1.148-.377-1.468-1.093a2.506,2.506,0,0,1,.132-2.705c.086-.122.12-.28.2-.405.2-.3.1-.509-.137-.738-.723-.7-1.422-1.422-2.142-2.124-1.029-1-.728-1-2.043-.379-.4.187-.774.512-1.273.393A2.5,2.5,0,0,1,99.317,84.7c-.023-.148-.1-.286-.131-.433-.073-.357-.271-.477-.641-.469-1.157.024-2.315.009-3.472.009-1,0-.984,0-1.218.979a2.07,2.07,0,0,1-1.373,1.7,2.034,2.034,0,0,1-1.982-.044,5.618,5.618,0,0,0-.819-.391.593.593,0,0,0-.732.067q-1.445,1.452-2.889,2.907a.362.362,0,0,0-.064.534c.282.445.472.947.72,1.416a1.013,1.013,0,0,1,.053.773A2.466,2.466,0,0,1,84.8,93.83c-.18.03-.344.153-.524.183-.387.064-.451.29-.445.643.021,1.157.008,2.315.008,3.472,0,.935.017.882.945,1.189.472.156,1.1.127,1.374.651.493.923.969,1.856.22,2.9a1.389,1.389,0,0,0-.4.878M105.7,12.7c0,2.9.006,5.8-.007,8.7,0,.357.072.492.46.479.928-.03,1.858-.023,2.786,0,.323.007.412-.086.412-.41q-.014-8.7,0-17.4c0-.384-.145-.424-.462-.418-.891.017-1.783.031-2.672-.005-.426-.017-.532.1-.529.528.021,2.843.011,5.687.011,8.53m-3.643,1.947c0-2.293-.007-4.586.007-6.88,0-.354-.067-.493-.458-.481-.928.031-1.857.022-2.786,0-.317-.007-.414.082-.414.407q.015,6.88,0,13.759c0,.381.14.427.46.421.891-.018,1.782-.031,2.672,0,.421.016.537-.093.532-.525-.024-2.236-.011-4.472-.011-6.708M91.127,16.411c0,1.667.011,3.334-.009,5,0,.374.1.479.471.468.928-.027,1.857-.023,2.785,0,.333.008.4-.108.4-.419q-.015-5.059,0-10.117c0-.325-.091-.417-.413-.409-.928.021-1.857.027-2.784,0-.386-.012-.466.118-.461.477.018,1.667.008,3.334.008,5M83.84,18.232c0,1.079.005,2.158,0,3.238,0,.26.016.417.353.409.984-.021,1.969-.017,2.954,0,.28,0,.347-.094.346-.358q-.013-3.295,0-6.589c0-.275-.085-.354-.354-.35-.965.014-1.932.019-2.9,0-.33-.007-.41.1-.4.417.017,1.079.007,2.159.007,3.238M96.589,65.589H93.636c-.713,0-.861.2-.655.9a3.848,3.848,0,0,0,3.752,2.767,3.673,3.673,0,0,0,3.508-3.23c.044-.34-.05-.454-.416-.445-1.078.027-2.158.01-3.236.01M96.5,47.372a1.773,1.773,0,0,0,1.91-1.67,1.892,1.892,0,0,0-1.983-1.959,1.811,1.811,0,0,0-1.654,1.68A1.757,1.757,0,0,0,96.5,47.372" transform="translate(0 0)"/>
        <path id="Trazado_824362" data-name="Trazado 824362" d="M22.593,69.947c0-.474-.009-.949,0-1.423.007-.291-.113-.424-.4-.411a8.671,8.671,0,0,1-2.968-.624,7.225,7.225,0,0,1-2.1-1.152,8.647,8.647,0,0,1-2.768-3.355,8.493,8.493,0,0,1-.758-5.307c.055-.273-.191-.645.159-.807.275-.127.592.011.891.068a12.034,12.034,0,0,0,6.134-.312,12.849,12.849,0,0,0,6.526-4.572A12.366,12.366,0,0,0,29.68,46.3a5.82,5.82,0,0,1,.183-1.5c.089-.219.015-.4-.3-.371-.986.1-1.972-.007-2.959-.005-.307,0-.359.1-.377.387a9.128,9.128,0,0,1-7.432,8.6,8.6,8.6,0,0,1-4.009-.117,9.268,9.268,0,0,1-6.755-9.8A9.3,9.3,0,0,1,9.868,38.92c.432-.6,1.014-1.057,1.466-1.637.292-.376.679-.332.986.067a12.8,12.8,0,0,0,5,4.092,12.255,12.255,0,0,0,4.817,1.18c.382,0,.477-.111.467-.476-.025-.891-.021-1.784,0-2.675.008-.364-.114-.495-.483-.516a8.847,8.847,0,0,1-7.764-5.14,8.419,8.419,0,0,1-.768-5.321,9.018,9.018,0,0,1,4.725-6.683c.1-.055.2-.1.305-.152,1.1-.575,1.14-.588.76-1.775a9.111,9.111,0,0,1,6.9-11.721,9.286,9.286,0,0,1,4.245.207,8.048,8.048,0,0,1,3.335,1.7A7.838,7.838,0,0,1,36.4,13.687c.191.65.4,1.3.557,1.964a10.058,10.058,0,0,1,.192,2.235q.036,26.813.008,53.625a8.829,8.829,0,0,1-5.209,8.473,8.713,8.713,0,0,1-5.2.787,8.9,8.9,0,0,1-6.908-5.021,8.134,8.134,0,0,1-.9-4.124c.018-.429.242-.348.475-.278a11.078,11.078,0,0,0,2.7.418c.35.016.52-.05.488-.452-.037-.452-.009-.91-.009-1.366m0-43.759c0-.475-.017-.95.006-1.423.016-.312-.105-.415-.393-.362a7.161,7.161,0,0,0-2.291.732,5.633,5.633,0,0,0-2.778,4.115c-.061.329-.1.663.475.627.907-.057,1.821-.02,2.731-.012.257,0,.4-.03.446-.352a1.387,1.387,0,0,1,1-1.259c.963-.148.81-.769.8-1.384,0-.228,0-.456,0-.683m3.68,34.643c-.455,0-.914.035-1.364-.01-.431-.043-.516.157-.491.512a5,5,0,0,0,.709,2.085,5.607,5.607,0,0,0,4.123,2.863c.231.041.644.2.634-.35-.018-.967-.009-1.934,0-2.9,0-.255-.092-.339-.355-.391-.573-.113-1.187-.386-1.275-.975-.138-.926-.7-.88-1.354-.836-.208.014-.417,0-.626,0m.01-47.363a11.984,11.984,0,0,1-1.362-.011c-.485-.056-.555.2-.494.556a6.082,6.082,0,0,0,.81,2.244,5.726,5.726,0,0,0,4.011,2.67c.391.07.679.031.647-.528-.051-.869-.019-1.742-.01-2.613,0-.294-.03-.451-.406-.519a1.4,1.4,0,0,1-1.251-1.01c-.132-.795-.568-.875-1.2-.794a6.027,6.027,0,0,1-.738.005m1.777,61.913c0,.474.026.949-.008,1.421-.026.364.105.486.444.422a6.5,6.5,0,0,0,2.71-1.029,5.681,5.681,0,0,0,2.314-4.162c.037-.319-.167-.27-.351-.271-.948,0-1.9.009-2.842-.006-.3,0-.417.07-.477.391-.1.526-.327,1.117-.885,1.2-1,.158-.978.79-.908,1.519.016.169,0,.341,0,.511M26.29,35.328a12.539,12.539,0,0,1-1.362-.011c-.47-.052-.57.17-.5.547a5.931,5.931,0,0,0,1.732,3.392,5.711,5.711,0,0,0,3.085,1.52c.227.037.649.217.641-.339-.013-.966-.006-1.932,0-2.9,0-.244-.066-.352-.342-.4-.553-.1-1.17-.353-1.254-.912-.158-1.049-.839-.928-1.541-.9-.151.007-.3,0-.455,0" transform="translate(-4.339 -4.348)" fill="#ebc09b"/>
        <path id="Trazado_824363" data-name="Trazado 824363" d="M103.394,60.011a8.686,8.686,0,0,1-4.4,6.861,14.58,14.58,0,0,1-1.453.765c-.279.131-.335.224-.212.549a9.143,9.143,0,0,1,.6,2.7v.023a1.529,1.529,0,0,1,.064.655c-.073.06-.068.118.006.172A8.963,8.963,0,0,1,91.811,80.4a8.98,8.98,0,0,1-10.689-3.943,9.079,9.079,0,0,1-1.313-4.83q.017-27.29,0-54.58a9.022,9.022,0,0,1,1.894-5.517,8.467,8.467,0,0,1,5.513-3.37,9.094,9.094,0,0,1,10.7,7.582c.083.5.074,1.009.125,1.513.029.291-.084.375-.355.318-.544-.114-1.1-.186-1.642-.286-.461-.085-.94.055-1.386-.161-.163-.08-.267.047-.266.245.005,1.043-.024,2.088.014,3.129.016.449.472.341.736.36a8.321,8.321,0,0,1,4.519,1.576,8.757,8.757,0,0,1,3.727,6.558v.016q.032.328.065.655l-.033.033.038.029-.007.733-.036.029.031.035c.052.456-.187.872-.169,1.331.009.229-.175.308-.446.246a12.7,12.7,0,0,0-4.885-.2c-5.141.807-8.356,3.884-10.205,8.568A11.665,11.665,0,0,0,87.1,44.1c-.013.218.016.35.294.346q1.507-.021,3.015,0c.3,0,.33-.131.34-.378a9.157,9.157,0,0,1,7.3-8.592c.473-.1,1.043.176,1.414-.345.882.5,1.9.29,2.836.546a9.019,9.019,0,0,1,5.974,5.24,5.9,5.9,0,0,1,.576,2.652v.017q.032.328.064.654l-.033.033.038.029a2.809,2.809,0,0,1-.058,1.1l0,.046a8.8,8.8,0,0,1-1.012,3.206,17.082,17.082,0,0,1-1.631,2.274c-.294.348-.729.51-1.021.871-.195.241-.345-.044-.47-.2a12.763,12.763,0,0,0-2.366-2.483,12.332,12.332,0,0,0-6.291-2.642,3.9,3.9,0,0,1-1.047-.113c-.668-.257-.653.087-.639.565a19.811,19.811,0,0,1-.012,2.387c-.053.567.253.683.656.7a8.708,8.708,0,0,1,7.908,6.006,6.685,6.685,0,0,1,.451,2.124v.017q.032.327.064.654l-.033.034.038.029a2.812,2.812,0,0,1-.059,1.1l0,.041M90.694,24.4c.512,0,1.024-.006,1.536,0,.236,0,.37-.071.329-.325A6.077,6.077,0,0,0,91.511,21.2a5.52,5.52,0,0,0-3.749-2.191c-.7-.1-.678.143-.664.632.023.776.026,1.555,0,2.331-.015.41.081.623.525.732.459.112,1,.349,1.072.848.136.911.709.9,1.377.845.207-.018.417,0,.626,0m-3.636,7.287c.512,0,1.024-.006,1.536,0,.242,0,.363-.085.32-.333A6.545,6.545,0,0,0,87.9,28.527a5.7,5.7,0,0,0-4.171-2.3c-.3-.037-.269.185-.269.371,0,.91.027,1.821-.013,2.729-.018.4.138.533.48.658.609.223,1.209.48,1.261,1.286.019.3.206.459.563.424.432-.043.871-.011,1.307-.011M98,59.009c.512,0,1.023,0,1.535,0,.2,0,.35-.054.315-.283a6.273,6.273,0,0,0-1.158-3.062,5.7,5.7,0,0,0-4.032-2.114c-.306-.036-.266.189-.267.374,0,.909.03,1.82-.014,2.727-.022.445.16.6.542.648a1.147,1.147,0,0,1,1.091.855c.109.961.708.892,1.362.855.208-.012.417,0,.625,0m-9.1,1.822c.493,0,.985,0,1.478,0,.211,0,.4-.021.357-.3a6.43,6.43,0,0,0-1.1-2.969,5.712,5.712,0,0,0-4.048-2.192c-.336-.043-.313.168-.312.385,0,.871.028,1.744-.011,2.613-.021.478.1.7.609.761a1.108,1.108,0,0,1,1.033.855c.116.941.7.908,1.366.845.207-.02.416,0,.625,0M83.457,69.94c-.474,0-.951.032-1.421-.01-.412-.036-.441.181-.394.472A5.766,5.766,0,0,0,86.453,75.4c.421.081.708.016.665-.567-.061-.83-.021-1.667-.013-2.5,0-.325,0-.528-.449-.6-.488-.076-1.079-.356-1.151-.889-.142-1.047-.829-.938-1.537-.9-.17.009-.341,0-.512,0" transform="translate(-43.344 -4.348)" fill="#ebc09b"/>
        <path id="Trazado_824364" data-name="Trazado 824364" d="M198.037,95.3c0-1.726.006-3.452-.006-5.178a.577.577,0,0,1,.382-.639,5.146,5.146,0,0,0,3.164-4.288,5.433,5.433,0,1,0-7.55,4.339c.264.134.372.234.371.523q-.011,5.264,0,10.527c0,.273-.039.389-.361.4-1.514.046-1.539.063-1.8-1.4a6.065,6.065,0,0,0-2.756-4.122A13.213,13.213,0,0,1,184,88.344a11.659,11.659,0,0,1-.425-5.368,12.466,12.466,0,0,1,8.96-10.6,11.007,11.007,0,0,1,5.3-.357,13.428,13.428,0,0,1,4.456,1.34,12.726,12.726,0,0,1,5.527,5.921,12.006,12.006,0,0,1,1.057,5.123,12.722,12.722,0,0,1-1.206,5.811,12.188,12.188,0,0,1-4.279,4.913,7.218,7.218,0,0,0-3.195,4.192c-.117.429-.2.869-.278,1.307-.046.26-.144.381-.434.355a5.314,5.314,0,0,0-1.023,0c-.371.039-.432-.111-.429-.445.016-1.745.008-3.49.008-5.235" transform="translate(-99.623 -39.024)" fill="#fee9a6"/>
        <path id="Trazado_824365" data-name="Trazado 824365" d="M185.625,203.355a1.386,1.386,0,0,1,.4-.878c.749-1.047.273-1.98-.22-2.9-.279-.524-.9-.494-1.374-.651-.928-.307-.945-.255-.945-1.19,0-1.157.013-2.315-.008-3.472-.006-.353.058-.579.445-.644.18-.03.345-.153.525-.183a2.465,2.465,0,0,0,1.966-2.08,1.012,1.012,0,0,0-.053-.773c-.247-.468-.438-.97-.72-1.416a.362.362,0,0,1,.064-.534q1.441-1.456,2.889-2.906a.591.591,0,0,1,.732-.067,5.619,5.619,0,0,1,.819.391,2.034,2.034,0,0,0,1.982.044,2.068,2.068,0,0,0,1.373-1.7c.234-.976.221-.98,1.218-.98,1.158,0,2.316.015,3.473-.009.37-.008.568.112.641.469.03.147.109.286.131.433a2.5,2.5,0,0,0,2.224,2.066c.5.119.875-.206,1.273-.393,1.316-.617,1.014-.624,2.043.379.721.7,1.42,1.425,2.142,2.124.238.229.332.442.137.738-.083.126-.117.283-.2.406a2.506,2.506,0,0,0-.132,2.7c.32.716.894.87,1.468,1.093,1.067.415,1.076.393,1.076,1.529,0,1.024-.024,2.05.011,3.074.015.435-.127.664-.539.753-.165.036-.323.113-.489.143-1.189.215-1.644,1.093-1.933,2.124a.94.94,0,0,0,.092.712c.233.454.427.929.679,1.372a.475.475,0,0,1-.124.682q-1.389,1.347-2.741,2.732a.584.584,0,0,1-.836.13c-.373-.221-.78-.386-1.17-.58a1.416,1.416,0,0,0-1.033-.042,2.367,2.367,0,0,0-1.988,2.094c-.091.593-.4.828-1.045.789a23.175,23.175,0,0,0-3.3.006.877.877,0,0,1-1.048-.806c-.089-.412-.306-.76-.417-1.157-.1-.345-.479-.415-.759-.6a2.189,2.189,0,0,0-2.481.024c-.96.53-.977.489-1.739-.284-.733-.743-1.474-1.478-2.207-2.22-.143-.145-.326-.273-.3-.549m10.507,1.918a9.024,9.024,0,0,0,9.179-9.044,9.084,9.084,0,0,0-18.165-.293,9.076,9.076,0,0,0,8.986,9.337" transform="translate(-99.644 -99.606)" fill="#fad56f"/>
        <path id="Trazado_824366" data-name="Trazado 824366" d="M231.328,17.031c0-2.843.01-5.687-.011-8.53,0-.427.1-.545.53-.528.89.036,1.782.022,2.672.005.317-.006.463.034.462.418q-.021,8.7,0,17.4c0,.324-.089.418-.412.41-.928-.021-1.858-.027-2.786,0-.388.012-.461-.122-.46-.479.014-2.9.008-5.8.008-8.7" transform="translate(-125.627 -4.329)" fill="#b3dd7e"/>
        <path id="Trazado_824367" data-name="Trazado 824367" d="M219.025,23.311c0,2.236-.013,4.473.011,6.709,0,.432-.111.541-.533.525-.89-.034-1.781-.022-2.672,0-.32.006-.461-.04-.46-.421q.022-6.879,0-13.758c0-.326.1-.414.414-.408.928.02,1.858.028,2.786,0,.391-.013.461.127.458.481-.014,2.293-.007,4.586-.007,6.879" transform="translate(-116.967 -8.662)" fill="#b3dd7e"/>
        <path id="Trazado_824368" data-name="Trazado 824368" d="M199.432,29.4c0-1.667.01-3.334-.008-5,0-.359.075-.49.461-.477.927.03,1.856.023,2.784,0,.322-.007.414.084.413.409q-.017,5.059,0,10.117c0,.311-.071.426-.4.419-.928-.022-1.857-.025-2.785,0-.37.011-.476-.094-.471-.468.021-1.667.009-3.334.009-5" transform="translate(-108.305 -12.993)" fill="#b3dd7e"/>
        <path id="Trazado_824369" data-name="Trazado 824369" d="M183.486,35.559c0-1.079.01-2.159-.007-3.238-.005-.313.074-.424.4-.417.965.021,1.931.016,2.9,0,.27,0,.355.076.354.35q-.014,3.295,0,6.589c0,.265-.066.363-.346.358-.985-.015-1.97-.02-2.954,0-.336.007-.355-.149-.353-.41.01-1.079,0-2.158,0-3.238" transform="translate(-99.646 -17.327)" fill="#b3dd7e"/>
        <path id="Trazado_824370" data-name="Trazado 824370" d="M207.006,143.538c1.079,0,2.158.017,3.237-.01.365-.009.46.106.415.445a3.673,3.673,0,0,1-3.508,3.23,3.848,3.848,0,0,1-3.752-2.767c-.206-.7-.058-.9.655-.9h2.953" transform="translate(-110.418 -77.949)" fill="#ebc09b"/>
        <path id="Trazado_824371" data-name="Trazado 824371" d="M209.15,99.367a1.757,1.757,0,0,1-1.727-1.949,1.811,1.811,0,0,1,1.654-1.68,1.892,1.892,0,0,1,1.983,1.959,1.773,1.773,0,0,1-1.91,1.67" transform="translate(-112.65 -51.995)" fill="#fad56f"/>
        <path id="Trazado_824372" data-name="Trazado 824372" d="M119.539,147.279c-.074-.055-.079-.112-.007-.172l.007.172" transform="translate(-64.889 -79.893)" fill="#b3dd7e"/>
        <path id="Trazado_824373" data-name="Trazado 824373" d="M131.411,53.949v-.016l.02.016Z" transform="translate(-71.368 -29.29)" fill="#b3dd7e"/>
        <path id="Trazado_824374" data-name="Trazado 824374" d="M131.427,121.775l0-.041.023.021Z" transform="translate(-71.377 -66.113)" fill="#b3dd7e"/>
        <path id="Trazado_824375" data-name="Trazado 824375" d="M131.517,119.255l-.038-.029.033-.033.022.03Z" transform="translate(-71.405 -64.733)" fill="#b3dd7e"/>
        <path id="Trazado_824376" data-name="Trazado 824376" d="M131.411,117.74v-.017l.02.016Z" transform="translate(-71.368 -63.935)" fill="#b3dd7e"/>
        <path id="Trazado_824377" data-name="Trazado 824377" d="M143.392,89.88l0-.046.023.024Z" transform="translate(-77.875 -48.788)" fill="#b3dd7e"/>
        <path id="Trazado_824378" data-name="Trazado 824378" d="M143.48,87.359l-.038-.029.032-.033.022.03Z" transform="translate(-77.902 -47.41)" fill="#b3dd7e"/>
        <path id="Trazado_824379" data-name="Trazado 824379" d="M143.373,85.845v-.017l.02.016Z" transform="translate(-77.865 -46.613)" fill="#b3dd7e"/>
        <path id="Trazado_824380" data-name="Trazado 824380" d="M131.5,57.206l-.031-.035.037-.029.017.034Z" transform="translate(-71.401 -31.034)" fill="#b3dd7e"/>
        <path id="Trazado_824381" data-name="Trazado 824381" d="M131.519,55.463l-.038-.029.033-.034.022.03Z" transform="translate(-71.406 -30.088)" fill="#b3dd7e"/>
        <path id="Trazado_824382" data-name="Trazado 824382" d="M119.455,145.646v-.023l.022.016Z" transform="translate(-64.875 -79.087)" fill="#b3dd7e"/>
        <path id="Trazado_824383" data-name="Trazado 824383" d="M33.427,45.662c0,.228,0,.456,0,.683.005.615.159,1.235-.8,1.384a1.386,1.386,0,0,0-1,1.258c-.048.322-.189.355-.446.352-.911-.007-1.824-.045-2.731.012-.576.036-.536-.3-.475-.627a5.633,5.633,0,0,1,2.778-4.115,7.162,7.162,0,0,1,2.291-.732c.287-.053.408.051.393.362-.024.473-.006.949-.006,1.423" transform="translate(-15.173 -23.822)"/>
        <path id="Trazado_824384" data-name="Trazado 824384" d="M45.8,123.6c.208,0,.418.012.626,0,.65-.044,1.216-.09,1.354.836.088.589.7.862,1.275.975.264.052.357.135.355.39-.006.967-.016,1.934,0,2.9.011.553-.4.39-.634.35a5.608,5.608,0,0,1-4.123-2.863,4.983,4.983,0,0,1-.709-2.084c-.026-.355.059-.555.49-.512.451.045.909.01,1.364.01" transform="translate(-23.862 -67.113)"/>
        <path id="Trazado_824385" data-name="Trazado 824385" d="M45.8,19.925a5.937,5.937,0,0,0,.738-.005c.636-.08,1.073,0,1.2.794a1.4,1.4,0,0,0,1.251,1.01c.376.068.409.225.406.519-.009.871-.041,1.745.01,2.613.033.559-.256.6-.647.528a5.725,5.725,0,0,1-4.011-2.67,6.074,6.074,0,0,1-.811-2.244c-.061-.359.009-.611.494-.556a11.777,11.777,0,0,0,1.362.011" transform="translate(-23.853 -10.805)"/>
        <path id="Trazado_824386" data-name="Trazado 824386" d="M51.876,151.156c0-.17.014-.342,0-.511-.07-.729-.095-1.361.908-1.519.557-.088.786-.678.885-1.2.06-.32.18-.4.476-.391.948.015,1.9.005,2.843.006.184,0,.388-.048.351.271a5.681,5.681,0,0,1-2.314,4.162A6.5,6.5,0,0,1,52.313,153c-.339.064-.47-.058-.444-.422.034-.471.008-.947.007-1.421" transform="translate(-28.157 -80.123)"/>
        <path id="Trazado_824387" data-name="Trazado 824387" d="M45.8,67.778c.152,0,.3.005.455,0,.7-.031,1.383-.151,1.541.9.084.559.7.812,1.254.912.276.05.344.159.342.4-.005.966-.012,1.932,0,2.9.008.556-.415.376-.641.339a5.714,5.714,0,0,1-3.085-1.519,5.932,5.932,0,0,1-1.732-3.392c-.067-.377.034-.6.5-.547a12.426,12.426,0,0,0,1.362.011" transform="translate(-23.852 -36.798)"/>
        <path id="Trazado_824388" data-name="Trazado 824388" d="M99.352,37.454c-.208,0-.419-.015-.626,0-.668.058-1.241.066-1.377-.845-.074-.5-.613-.737-1.072-.848-.444-.108-.539-.321-.525-.732.028-.776.025-1.554,0-2.331-.015-.489-.04-.734.664-.632a5.519,5.519,0,0,1,3.749,2.19,6.083,6.083,0,0,1,1.047,2.872c.041.254-.093.329-.329.325-.512-.009-1.024,0-1.536,0" transform="translate(-52.002 -17.404)"/>
        <path id="Trazado_824389" data-name="Trazado 824389" d="M91.381,53.336c-.436,0-.875-.033-1.307.01-.357.036-.544-.124-.563-.423-.052-.807-.652-1.064-1.261-1.287-.341-.125-.5-.257-.48-.658.041-.908.012-1.819.014-2.729,0-.187-.036-.409.269-.372a5.705,5.705,0,0,1,4.171,2.3,6.551,6.551,0,0,1,1.013,2.827c.043.248-.078.338-.32.333-.511-.009-1.023,0-1.535,0" transform="translate(-47.666 -26)"/>
        <path id="Trazado_824390" data-name="Trazado 824390" d="M115.313,113.142c-.208,0-.417-.01-.625,0-.655.037-1.254.106-1.362-.855a1.147,1.147,0,0,0-1.091-.855c-.382-.052-.564-.2-.542-.648.044-.907.013-1.818.014-2.727,0-.185-.039-.409.267-.374A5.7,5.7,0,0,1,116,109.8a6.273,6.273,0,0,1,1.158,3.062c.035.229-.113.286-.315.283-.511-.005-1.023,0-1.534,0" transform="translate(-60.658 -58.48)"/>
        <path id="Trazado_824391" data-name="Trazado 824391" d="M95.392,117.129c-.208,0-.419-.016-.625,0-.67.064-1.25.1-1.366-.845a1.109,1.109,0,0,0-1.033-.855c-.511-.058-.631-.283-.609-.761.039-.869.012-1.742.011-2.613,0-.217-.024-.428.312-.385a5.712,5.712,0,0,1,4.048,2.192,6.43,6.43,0,0,1,1.1,2.969c.045.275-.147.3-.357.3-.493-.005-.985,0-1.478,0" transform="translate(-49.833 -60.646)"/>
        <path id="Trazado_824392" data-name="Trazado 824392" d="M85.615,143.529c.171,0,.342.007.512,0,.708-.036,1.395-.145,1.537.9.072.533.663.813,1.151.889.453.07.452.274.449.6-.008.834-.048,1.672.013,2.5.042.583-.244.648-.665.567a5.765,5.765,0,0,1-4.812-4.994c-.047-.291-.017-.508.394-.472.471.041.947.01,1.421.009" transform="translate(-45.502 -77.937)"/>
        <path id="Trazado_824393" data-name="Trazado 824393" d="M200.493,209.648a9.076,9.076,0,0,1-8.986-9.337,9.084,9.084,0,1,1,8.986,9.337m-5.361-9.167a5.436,5.436,0,0,0,10.841.674,5.5,5.5,0,0,0-5.317-6.105,5.564,5.564,0,0,0-5.524,5.431" transform="translate(-104.006 -103.981)"/>
      </g>
    </g>
  </g>
</svg>
