<svg xmlns="http://www.w3.org/2000/svg" xmlns:xlink="http://www.w3.org/1999/xlink" width="169" height="169" viewBox="0 0 169 169">
  <defs>
    <clipPath id="clip-path">
      <rect id="Rectángulo_379571" data-name="Rectángulo 379571" width="62.255" height="151" fill="none"/>
    </clipPath>
    <clipPath id="clip-path-2">
      <rect id="Rectángulo_379570" data-name="Rectángulo 379570" width="62.256" height="151" fill="none"/>
    </clipPath>
    <clipPath id="clip-path-3">
      <rect id="Rectángulo_379563" data-name="Rectángulo 379563" width="24.583" height="20.367" fill="none"/>
    </clipPath>
    <clipPath id="clip-path-4">
      <path id="Trazado_826898" data-name="Trazado 826898" d="M32.3,30.623l7.381-9.816c-1.7-.751-4.128-1.155-5.438-1.809-1.885-.943-4.186-.73-3.435-3.561a13.123,13.123,0,0,0,.349-2.089l-3.985-3.094-7.756,5L15.1,17.964Z" transform="translate(-15.1 -10.255)" fill="none"/>
    </clipPath>
    <linearGradient id="linear-gradient" x1="-0.649" y1="4.458" x2="-0.599" y2="4.458" gradientUnits="objectBoundingBox">
      <stop offset="0" stop-color="#fff"/>
      <stop offset="0.088" stop-color="#fff"/>
      <stop offset="0.288" stop-color="#f3f2f0"/>
      <stop offset="0.665" stop-color="#d4d0cb"/>
      <stop offset="0.83" stop-color="#c6c0b9"/>
      <stop offset="1" stop-color="#c6c0b9"/>
    </linearGradient>
    <clipPath id="clip-path-5">
      <rect id="Rectángulo_379569" data-name="Rectángulo 379569" width="32.292" height="33.419" fill="none"/>
    </clipPath>
    <clipPath id="clip-path-6">
      <path id="Trazado_826902" data-name="Trazado 826902" d="M42.343,69.95l.111-7.37a90.276,90.276,0,0,0-.619-9.328c-.565-3.775-2.383-15.093-2.383-15.093S9.962,32.919,10.164,41.242Z" transform="translate(-10.163 -36.531)" fill="none"/>
    </clipPath>
    <linearGradient id="linear-gradient-2" x1="-0.193" y1="2.238" x2="-0.159" y2="2.238" gradientUnits="objectBoundingBox">
      <stop offset="0" stop-color="#fff"/>
      <stop offset="0.643" stop-color="#c6c0b9"/>
      <stop offset="1" stop-color="#c6c0b9"/>
    </linearGradient>
  </defs>
  <g id="Grupo_1075575" data-name="Grupo 1075575" transform="translate(-705 -772.993)">
    <g id="Grupo_1075523" data-name="Grupo 1075523" transform="translate(-14 -2104.531)">
      <g id="Grupo_1073327" data-name="Grupo 1073327" transform="translate(334 819.524)">
        <g id="Grupo_159182" data-name="Grupo 159182" transform="translate(385.001 2058)">
          <path id="Unión_12" data-name="Unión 12" d="M84.5,0A84.5,84.5,0,1,1,0,84.5,84.5,84.5,0,0,1,84.5,0Z" transform="translate(0 0)" fill="#ffae7e"/>
        </g>
      </g>
    </g>
    <g id="Grupo_1075673" data-name="Grupo 1075673" transform="translate(758.372 781)">
      <g id="Grupo_1075672" data-name="Grupo 1075672" clip-path="url(#clip-path)">
        <g id="Grupo_1075671" data-name="Grupo 1075671" transform="translate(0 0)">
          <g id="Grupo_1075670" data-name="Grupo 1075670" clip-path="url(#clip-path-2)">
            <path id="Trazado_826891" data-name="Trazado 826891" d="M21.675,85.217c.378,2.265.945,6.607.754,7.551s-2.643,1.509-2.643,1.509-1.7-.943-1.885.192-.378,3.016-1.7,3.583-8.115.756-8.682,0-1.889-2.834.187-3.775,4.909-3.585,5.475-5.1a14.14,14.14,0,0,0,.565-3.963Z" transform="translate(4.05 52.449)" fill="#12595b"/>
            <path id="Trazado_826892" data-name="Trazado 826892" d="M23.117,85.217c-.376,2.265-.942,6.607-.754,7.551S25,94.277,25,94.277s1.7-.943,1.885.192.38,3.016,1.7,3.583,8.116.756,8.682,0,1.889-2.834-.187-3.775-4.908-3.585-5.473-5.1a14.065,14.065,0,0,1-.569-3.963Z" transform="translate(13.741 52.449)" fill="#12595b"/>
            <path id="Trazado_826893" data-name="Trazado 826893" d="M30.7.034C26.55-.155,21,1.305,20.437,6.966s-.754,11.515,0,14.347-1.507,2.641-3.4,3.586-6.008,2.263-7.329,3.582S3.5,43.956,1.609,48.108s.578,7.157.578,8.48,12.418-13.972,13.551-12.46,1,10.215,1,10.782S13.352,72.466,12.785,76.24s-.96,31.45-.772,33.526.772,9.247,1.543,18.307c.414,4.882-1.8,9.221.087,11.3s10.349,1.952,11.7.942c3.237-2.417,3.632-11.216,4.008-17.444s-.921-9.14-.732-14.236,1.63-22.064,2.384-23.951,1.321-54.687,1.321-54.687Z" transform="translate(0.553 0.011)" fill="#fff"/>
            <path id="Trazado_826894" data-name="Trazado 826894" d="M19.161.045c5.008-.384,9.623,1.649,10.19,7.31s.754,11.515,0,14.346,1.509,2.643,3.4,3.585,6.008,1.5,7.331,2.817,7.014,13.795,8.9,17.946S46.521,52,46.521,53.322,36.906,40.605,35.733,42.08C34,44.268,33.817,54.733,33.817,55.3s2.888,16.791,3.456,20.568,1.346,32.993,1.155,35.069-.624,13.759.194,17.724c1.349,6.552-2.011,10.984-4.817,10.984-4.237,0-5.974.772-8.09,0-1.588-.575-2.129-6.1-2.507-12.333s.383-11.665.194-16.762S19.536,88.5,18.782,86.614s-1.32-56.23-1.32-56.23Z" transform="translate(10.748 -0.001)" fill="#fff"/>
            <path id="Trazado_826895" data-name="Trazado 826895" d="M26.964,12.2c0,5.7-2.761,10.32-6.166,10.32s-6.165-4.622-6.165-10.32-.5-9.688,6.165-9.186c6.9.523,6.166,3.489,6.166,9.186" transform="translate(9.001 1.827)" fill="#f7d8d0"/>
            <path id="Trazado_826896" data-name="Trazado 826896" d="M20.859,3.236c1.388,1.8,1.094,4.627,1.094,8.567,0,4.562-1.5,8.533-3.717,10.619a3.4,3.4,0,0,0,.575.048c3.4,0,6.165-4.62,6.165-10.318,0-5.056.578-7.961-4.116-8.916" transform="translate(11.223 1.991)" fill="#edc0b7"/>
            <path id="Trazado_826897" data-name="Trazado 826897" d="M20.591,89.539c.376-6.226-.922-9.136-.732-14.232.111-3.053.714-11.882,1.309-18.326-.257-1.486-.032-2.876-.963-2.41-1.541.772-3.468,13.714-4.239,21.035-.658,6.239.771,20.3-.827,31.849a3.886,3.886,0,0,0,1.443-.467c3.237-2.415,3.632-11.22,4.01-17.449" transform="translate(9.318 33.53)" fill="#e5e0da"/>
            <g id="Grupo_1075664" data-name="Grupo 1075664" transform="translate(24.394 16.567)" style="mix-blend-mode: multiply;isolation: isolate">
              <g id="Grupo_1075663" data-name="Grupo 1075663">
                <g id="Grupo_1075662" data-name="Grupo 1075662" clip-path="url(#clip-path-3)">
                  <g id="Grupo_1075661" data-name="Grupo 1075661" transform="translate(0 -0.001)">
                    <g id="Grupo_1075660" data-name="Grupo 1075660" clip-path="url(#clip-path-4)">
                      <rect id="Rectángulo_379562" data-name="Rectángulo 379562" width="31.924" height="31.404" transform="matrix(0.766, -0.643, 0.643, 0.766, -10.029, 8.416)" fill="url(#linear-gradient)"/>
                    </g>
                  </g>
                </g>
              </g>
            </g>
            <path id="Trazado_826899" data-name="Trazado 826899" d="M20.126,7.822a1.913,1.913,0,0,1,2.078.063s.588,1.544,1.414,1.919c1.559.709,3.682,1.762,3.682,1.762a.532.532,0,0,1,.171.341,10.328,10.328,0,0,1-1.588,4.88c-1.305,1.727-2.215,2.982-4.829,3.045-3.1.069-5.147-3.74-5.552-4.7-.517-1.223-1.477-3.317-.47-3.821s2.909-.913,4.058-1.7a2.781,2.781,0,0,0,1.037-1.795" transform="translate(8.98 4.63)" fill="#0e85dd"/>
            <path id="Trazado_826900" data-name="Trazado 826900" d="M23.526,16.791a10.386,10.386,0,0,0,1.585-4.88.525.525,0,0,0-.17-.341s-2.123-1.052-3.68-1.761c-.827-.375-1.417-1.919-1.417-1.919a2.257,2.257,0,0,0-1.32-.355v12.3c.058,0,.113,0,.171,0,2.612-.061,3.523-1.317,4.83-3.044" transform="translate(11.401 4.633)" fill="#004bc4"/>
            <path id="Trazado_826901" data-name="Trazado 826901" d="M14.173,6.882l.384-.034.084.376-.084-.376-.384.034-.031-.336.328-.073a34.2,34.2,0,0,1,7.228-.78,15.567,15.567,0,0,1,6.625,1.1l.221.116-.394,4.357-.288.057a13.523,13.523,0,0,1-2.26.213c-1.136-.024-2.478-.137-2.943-1.246-.562-1.344.063-1.278-1.4-1.425l-.021,0c-.456.021-.5.184-.706.633-.17.409-.294,1.081-1.006,1.344a26.186,26.186,0,0,1-4.556.722l-.38.027Zm9.213,3.15c.107.47,1.12.759,2.216.735a12.766,12.766,0,0,0,1.834-.149l.3-3.252a15.992,15.992,0,0,0-6.035-.9,33.534,33.534,0,0,0-6.727.688l.318,3.614a23.344,23.344,0,0,0,3.992-.651c.218-.052.347-.38.533-.892A1.469,1.469,0,0,1,21.239,8.1a.51.51,0,0,1,.069.006c.037,0,.073,0,.11,0,1.6,0,1.7.987,1.968,1.931" transform="translate(8.704 3.503)" fill="#031c28"/>
            <path id="Rectángulo_379564" data-name="Rectángulo 379564" d="M.18,0H4.448a.179.179,0,0,1,.179.179V2.135a.179.179,0,0,1-.179.179H.179A.179.179,0,0,1,0,2.135V.18A.18.18,0,0,1,.18,0Z" transform="matrix(0.477, -0.879, 0.879, 0.477, 32.837, 22.301)" fill="#e5e0da"/>
            <rect id="Rectángulo_379565" data-name="Rectángulo 379565" width="6.039" height="3.021" rx="0.234" transform="translate(33.134 23.256) rotate(-61.497)" fill="#031c28"/>
            <path id="Rectángulo_379566" data-name="Rectángulo 379566" d="M.179,0H2.136a.18.18,0,0,1,.18.18V4.448a.179.179,0,0,1-.179.179H.18A.18.18,0,0,1,0,4.448V.179A.179.179,0,0,1,.179,0Z" transform="translate(23.45 19.431) rotate(-28.449)" fill="#fefefe"/>
            <path id="Rectángulo_379567" data-name="Rectángulo 379567" d="M.232,0H2.786A.234.234,0,0,1,3.02.234V5.806a.234.234,0,0,1-.234.234H.233A.233.233,0,0,1,0,5.807V.232A.232.232,0,0,1,.232,0Z" transform="matrix(0.88, -0.476, 0.476, 0.88, 21.861, 19.48)" fill="#12595b"/>
            <g id="Grupo_1075669" data-name="Grupo 1075669" transform="translate(16.419 59.016)" style="mix-blend-mode: multiply;isolation: isolate">
              <g id="Grupo_1075668" data-name="Grupo 1075668">
                <g id="Grupo_1075667" data-name="Grupo 1075667" clip-path="url(#clip-path-5)">
                  <g id="Grupo_1075666" data-name="Grupo 1075666" transform="translate(0 -0.001)">
                    <g id="Grupo_1075665" data-name="Grupo 1075665" clip-path="url(#clip-path-6)">
                      <rect id="Rectángulo_379568" data-name="Rectángulo 379568" width="46.825" height="44.437" transform="translate(-13.59 27.694) rotate(-66.845)" fill="url(#linear-gradient-2)"/>
                    </g>
                  </g>
                </g>
              </g>
            </g>
            <path id="Trazado_826903" data-name="Trazado 826903" d="M32.745,50.231c0,.709-.284,1.286-.637,1.286H13.664c-.352,0-.638-.577-.638-1.286V21.33c0-.709.286-1.286.638-1.286H32.108c.352,0,.637.577.637,1.286Z" transform="translate(8.017 12.336)" fill="#ff8825"/>
            <path id="Trazado_826904" data-name="Trazado 826904" d="M28.975,50.231V21.33c0-.709-.284-1.286-.637-1.286H19.15V51.517h9.189c.352,0,.637-.577.637-1.286" transform="translate(11.787 12.336)" fill="#e84505"/>
            <path id="Trazado_826905" data-name="Trazado 826905" d="M14.195,35.164c-.157.236-.05.433.234.433H30.013c.283,0,.391-.2.236-.436L22.555,23.282a.314.314,0,0,0-.567,0Z" transform="translate(8.692 14.218)" fill="#031c28"/>
            <path id="Trazado_826906" data-name="Trazado 826906" d="M15.307,33.564c-.121.183-.04.336.181.336H27.564c.22,0,.3-.153.183-.336l-5.963-9.207a.243.243,0,0,0-.438,0Z" transform="translate(9.387 14.905)" fill="#ff8825"/>
            <path id="Trazado_826907" data-name="Trazado 826907" d="M20.156,25.913v.079a1.394,1.394,0,0,1-.208,2.762v.228a.38.38,0,0,1,.3.519,1.555,1.555,0,0,0,.288-.086c.115-.039.187-.262.286-.318a.822.822,0,0,1,.289-.1c.51,0,.748-.761.748-1.283a1.882,1.882,0,0,0-1.7-1.8m-1.7,1.446a1.4,1.4,0,0,1,1.134-1.367v-.079a1.88,1.88,0,0,0-1.7,1.8,1.639,1.639,0,0,0,.622,1.312c.061.05.3.015.37.055.107.066.118.228.237.279a1.793,1.793,0,0,0,.381.141.35.35,0,0,1-.018-.137.4.4,0,0,1,.315-.38v-.231a1.406,1.406,0,0,1-1.342-1.4" transform="translate(11.01 15.949)" fill="#031c28"/>
            <path id="Trazado_826908" data-name="Trazado 826908" d="M18.7,27.662a1.359,1.359,0,0,1,1.68,0,1.215,1.215,0,0,0,.281-.354,1.815,1.815,0,0,0-2.242,0,1.271,1.271,0,0,0,.281.354" transform="translate(11.338 16.568)" fill="#031c28"/>
            <path id="Trazado_826909" data-name="Trazado 826909" d="M17.254,30.009l.063-.037a1.394,1.394,0,0,1,2.472-1.255L20,28.6a.381.381,0,0,1,.142-.475.433.433,0,0,1,.129-.048,1.961,1.961,0,0,0-.291-.242c-.076-.057-.321.023-.4-.023-.1-.06-.142-.26-.25-.3a1.544,1.544,0,0,0-1.418.113,1.877,1.877,0,0,0-.656,2.388m2.118.709a1.405,1.405,0,0,1-1.761-.265l-.065.039a1.877,1.877,0,0,0,2.422.522,1.535,1.535,0,0,0,.719-1.019c.031-.134-.173-.276-.173-.423,0-.113.226-.384.2-.5a1.153,1.153,0,0,0-.094-.336c-.029.039-.036.027-.076.053a.391.391,0,0,1-.483-.066l-.2.12a1.413,1.413,0,0,1-.5,1.877" transform="translate(10.509 16.857)" fill="#031c28"/>
            <path id="Trazado_826910" data-name="Trazado 826910" d="M19.306,29.417a1.356,1.356,0,0,1-.683-.57,1.37,1.37,0,0,1-.189-.869,1.258,1.258,0,0,0-.446-.055,1.814,1.814,0,0,0,1.16,1.918,1.256,1.256,0,0,0,.158-.423" transform="translate(11.063 17.184)" fill="#031c28"/>
            <path id="Trazado_826911" data-name="Trazado 826911" d="M21.7,27.617a1.5,1.5,0,0,0-1.338-.12c-.124.042-.231.239-.347.305-.089.045-.284,0-.368.061a1.492,1.492,0,0,0-.252.2c.045.008.034.018.073.045a.394.394,0,0,1,.158.483l.194.12a1.4,1.4,0,0,1,2.473,1.255l.065.036a1.878,1.878,0,0,0-.658-2.386m-2.065,1.477a1.607,1.607,0,0,1,.108-.257l-.2-.12a.386.386,0,0,1-.48.066c-.042-.026-.069,0-.1-.032-.044.108-.149.158-.107.262.011.039.242.307.239.435-.008.2-.223.459-.223.527a1.354,1.354,0,0,0,.767,1.036,1.874,1.874,0,0,0,2.42-.522l-.065-.039a1.391,1.391,0,0,1-2.362-1.355" transform="translate(11.599 16.861)" fill="#031c28"/>
            <path id="Trazado_826912" data-name="Trazado 826912" d="M19.562,29.84a1.813,1.813,0,0,0,1.162-1.918,1.246,1.246,0,0,0-.444.057,1.376,1.376,0,0,1-.191.869,1.353,1.353,0,0,1-.683.569,1.288,1.288,0,0,0,.157.423" transform="translate(11.944 17.184)" fill="#031c28"/>
            <path id="Trazado_826913" data-name="Trazado 826913" d="M35.057,35.994c-.748-.3-1.113.855-3.572.459A35.936,35.936,0,0,1,27.6,34.9a1.839,1.839,0,0,0-.992-.661,12.622,12.622,0,0,0-3.527.493c-.617.433-.595,1.536.163,1.593s2.3.105,2.506.157.672.94.454,1.084a21.8,21.8,0,0,1-2.527,1.368c-.456.141-2.942.779-2.738,1.735.2.922,1.769.506,2.7.268a24.266,24.266,0,0,0,2.9-.966,14.3,14.3,0,0,1-1.4.615c-.194.024-3.494,1.139-3.856,1.321a.735.735,0,0,0,.1,1.37c1.031.341,4.145-.611,4.6-.785s1.271-.559,1.271-.559l-2.212,1.233c-.367.2-1.968.549-2.347.772-.514.305-.556.9.212,1.042a14.464,14.464,0,0,0,4.464-.889,22.029,22.029,0,0,1,3.053-1.46c.9-.313,2.68-.934,3.636-1.174s2.449-.59,2.449-.59.284-4.179-1.439-4.869" transform="translate(12.834 21.069)" fill="#0e85dd"/>
            <path id="Trazado_826914" data-name="Trazado 826914" d="M9.24,36.671c.748-.3,1.115.85,3.572.452a36.215,36.215,0,0,0,3.879-1.561,1.842,1.842,0,0,1,.994-.664,12.651,12.651,0,0,1,3.53.488c.617.433.594,1.531-.163,1.6s-2.3.1-2.5.155-.674.942-.456,1.09a24.091,24.091,0,0,0,2.53,1.367c.456.132,2.945.767,2.741,1.722-.2.922-1.767.509-2.7.273a24.263,24.263,0,0,1-2.9-.958,14.106,14.106,0,0,0,1.4.612c.2.024,3.5,1.132,3.861,1.317a.733.733,0,0,1-.1,1.367c-1.029.346-4.144-.6-4.6-.777s-1.271-.556-1.271-.556l2.213,1.228c.367.2,1.966.544,2.346.769.517.3.559.9-.208,1.039a14.234,14.234,0,0,1-4.465-.882A22.575,22.575,0,0,0,13.9,43.3c-.906-.31-2.683-.932-3.64-1.171s-2.449-.586-2.449-.586-.292-4.181,1.431-4.869" transform="translate(4.795 21.478)" fill="#0e85dd"/>
            <path id="Trazado_826915" data-name="Trazado 826915" d="M5.759,24.46C3.786,29.213-.711,36.917.1,39.812s1.551,5.2,4.762,7.638c2.438,1.856,11.176,1.8,11.176,1.8s.17-6.245,1.927-6.17c-3.341-5.392-5.714-5.119-5.685-5.779s3.278-9.161,3.758-10.018S5.759,24.46,5.759,24.46" transform="translate(0 15.054)" fill="#fff"/>
            <path id="Trazado_826916" data-name="Trazado 826916" d="M39.475,24.589c2.3,4.64,5.829,11.368,6.037,14.388.2,2.932-.184,6.522-4.494,8.349-10.9,4.625-11.691,2.184-11.691,2.184s-.123-5.769-1.882-5.572c3.552-4.832,6.454-5.972,6.38-6.63s-6.239-14.392-6.777-15.224,12.428,2.506,12.428,2.506" transform="translate(16.637 13.51)" fill="#fff"/>
            <path id="Trazado_826917" data-name="Trazado 826917" d="M40.261,50.32c4.309-1.827,4.7-5.418,4.494-8.349-.205-3.019-3.737-9.748-6.037-14.388,0,0-.026,0-.065-.016-2.142-4.543-4.444-9.2-5.224-9.98a3.128,3.128,0,0,0-.688-.5,1.353,1.353,0,0,0,.2,1.73c1.284,1.284,9.069,19.407,9.279,21.966.514,6.292-10.5,9.152-13.84,9.924-.065.015.144,1,.082,1.019.037.507.044.843.044.843s.853,2.375,11.756-2.249" transform="translate(17.459 10.516)" fill="#e5e0da"/>
            <path id="Trazado_826918" data-name="Trazado 826918" d="M13.2,29.311c-.065-.449-1.205-5.25-1.205-5.25C10.841,24.253,6,34.23,5.156,36.776c-.1.291,3.806.85,3.853.724A59.059,59.059,0,0,1,13.2,29.311" transform="translate(3.172 14.809)" fill="#e5e0da"/>
          </g>
        </g>
      </g>
    </g>
  </g>
</svg>
