<svg xmlns="http://www.w3.org/2000/svg" xmlns:xlink="http://www.w3.org/1999/xlink" width="169" height="169" viewBox="0 0 169 169">
  <defs>
    <clipPath id="clip-path">
      <rect id="Rect치ngulo_378364" data-name="Rect치ngulo 378364" width="89.076" height="95.813" fill="none"/>
    </clipPath>
  </defs>
  <g id="Grupo_1073686" data-name="Grupo 1073686" transform="translate(-719 -2877.524)">
    <g id="Grupo_1073327" data-name="Grupo 1073327" transform="translate(334 819.524)">
      <g id="Grupo_159182" data-name="Grupo 159182" transform="translate(385.001 2058)">
        <path id="Uni칩n_12" data-name="Uni칩n 12" d="M84.5,0A84.5,84.5,0,1,1,0,84.5,84.5,84.5,0,0,1,84.5,0Z" transform="translate(0 0)" fill="#ffae7e"/>
      </g>
    </g>
    <g id="Grupo_1074740" data-name="Grupo 1074740" transform="translate(759.001 2914.524)">
      <g id="Grupo_1074739" data-name="Grupo 1074739" clip-path="url(#clip-path)">
        <path id="Trazado_824423" data-name="Trazado 824423" d="M81.888,64.348V82.829c0,.514-.172.734-.615.646a18.861,18.861,0,0,0-2.669-.083c-.264-.015-.53,0-.9,0a11.994,11.994,0,0,1,1.242,1.4,8.073,8.073,0,0,1,1.44,4.263c.1,2.086.017,4.17.068,6.253.01.381-.04.631-.483.447a1.1,1.1,0,0,0-.4-.009q-39.5,0-79,.013c-.476,0-.571-.137-.566-.624.025-2.4-.031-4.794.028-7.188a7.011,7.011,0,0,1,1.2-3.581,7.381,7.381,0,0,1,3.068-2.7c.4-.2.791-.4,1.189-.593.295-.144.276-.483.276-.783,0-3.136.011-6.273-.005-9.409a9.228,9.228,0,0,1,2.961-6.844,10.13,10.13,0,0,1,2.9-1.732,7.184,7.184,0,0,1,2.333-.5,7.862,7.862,0,0,1,2.555.2,8.149,8.149,0,0,1,3.188,1.769,10.177,10.177,0,0,1,2.93,4.629,8.181,8.181,0,0,1,.3,2.01c.175,3.387.032,6.776.073,10.164a.6.6,0,0,0,.406.6,10.577,10.577,0,0,1,2.748,1.656A6.521,6.521,0,0,1,27.261,84.1a1.9,1.9,0,0,0,.342.367,6.833,6.833,0,0,1,3.557-2.522c.8-.275,1.591-.55,2.394-.8.389-.12.329-.337.2-.627A22.308,22.308,0,0,1,32.6,77.587a32.21,32.21,0,0,1-.815-3.879,16.227,16.227,0,0,1-.154-3.335,9.47,9.47,0,0,1,.583-2.772,9.091,9.091,0,0,1,1.451-2.658,7.7,7.7,0,0,1,2.9-2.293,10.22,10.22,0,0,1,1.836-.68A8.527,8.527,0,0,1,42,62a7.73,7.73,0,0,1,3.833,2.039A10.174,10.174,0,0,1,48.05,67.27a6.512,6.512,0,0,1,.678,2.513c.011.732.1,1.461.071,2.206a23.539,23.539,0,0,1-.694,4.556,14.564,14.564,0,0,1-1.52,4.223c-.133.22,0,.248.163.306,1.082.377,2.163.759,3.238,1.156a5.869,5.869,0,0,1,2.076,1.332c.311.3.584.645.9.944.175.167.266.144.4-.006s.266-.3.4-.461a8.3,8.3,0,0,1,4.106-2.377c.522-.175,1.038-.37,1.566-.52.419-.119.3-.368.175-.633a20.574,20.574,0,0,1-1.1-2.755,30.057,30.057,0,0,1-.862-4.063,19.445,19.445,0,0,1-.162-3.191,8.747,8.747,0,0,1,.577-2.823,9.282,9.282,0,0,1,3.49-4.439.546.546,0,0,0,.245-.5q-.015-4.946,0-9.891c0-.273-.068-.373-.322-.342a4.022,4.022,0,0,1-.493,0q-30.209,0-60.419.012c-.452,0-.55-.114-.549-.593Q.021,26.259,0,.589C0,.1.109,0,.553,0Q35,.02,69.456.017a16.836,16.836,0,0,1,6.307,1.091,14.418,14.418,0,0,1,4.069,2.518c.475.41.86.983,1.5,1.143a8.551,8.551,0,0,0,1.074.216,2.412,2.412,0,0,1,.926.513,6.157,6.157,0,0,1,2.79,5.338,9.77,9.77,0,0,1-.88,4.631c-.081.16.008.268.087.387a4.736,4.736,0,0,1,.863,2.839,4.535,4.535,0,0,1-3.552,4.387,12.232,12.232,0,0,1-2.042.086c-.25.007-.37.08-.417.352a8.413,8.413,0,0,1-2.331,4.632.867.867,0,0,0-.272.7c.014.691,0,1.383,0,2.074,0,.2,0,.321.268.368,1.064.187,2.118.443,3.179.653a9.667,9.667,0,0,1,4.628,1.868,8.931,8.931,0,0,1,3.24,5.722,18.592,18.592,0,0,1,.171,2.565c.011,5.613.022,11.227-.009,16.839a5.986,5.986,0,0,1-.805,3.39A4.9,4.9,0,0,1,83.7,64.854a5.252,5.252,0,0,1-1.816-.507m-36,7.9.024-.008-.023-.011a2.727,2.727,0,0,0,.05-.844c.007-.012.021-.024.019-.034a.473.473,0,0,0-.02-.075c-.005-.089-.01-.179-.015-.268l.016-.021-.022-.013q-.014-.128-.027-.257l.023-.011-.024-.01a5.894,5.894,0,0,0-1.878-4.147A5.5,5.5,0,0,0,40.05,64.9a5.568,5.568,0,0,0-5.114,3.791,9.764,9.764,0,0,0-.248,5.054,23.7,23.7,0,0,0,1.937,6.217.479.479,0,0,0,.485.331q3.139-.008,6.278,0a.39.39,0,0,0,.4-.28c.257-.558.456-1.142.689-1.71a18.888,18.888,0,0,0,1.409-6.057M60.883,3.1h-.339q-28.591,0-57.181-.009c-.378,0-.49.071-.49.51q.019,22.652,0,45.3c0,.4.058.53.472.53q28.972-.021,57.944-.012c.089,0,.18-.005.27,0,.14.01.219-.024.218-.206,0-1.672,0-3.345-.006-5.017,0-.268-.11-.423-.42-.385a7.466,7.466,0,0,0-1.406.318,12.589,12.589,0,0,1-3.114.636,10.543,10.543,0,0,1-2.442-.07,13.75,13.75,0,0,1-2.944-.9,15.346,15.346,0,0,1-4.808-3.406C45.3,39.08,43.9,37.839,42.574,36.515c-1.487-1.481-2.966-2.974-4.512-4.38A6.262,6.262,0,0,1,36.19,25.62a5.594,5.594,0,0,1,2.575-3.31,5.84,5.84,0,0,1,4.054-.452,4.118,4.118,0,0,1,1.89.853,35.765,35.765,0,0,1,2.742,2.565c1.353,1.31,2.739,2.58,4.079,3.905s2.733,2.531,4.012,3.893a1.4,1.4,0,0,0,1.835.4A21.533,21.533,0,0,1,61.1,32.25c1.532-.339,3.068-.655,4.606-.964.3-.06.386-.228.382-.525-.009-.643-.012-1.287,0-1.93a.713.713,0,0,0-.213-.541,9.816,9.816,0,0,1-2.31-4.262c-.212-.856-.215-.858-1.1-.855a4.9,4.9,0,0,1-2.461-.415,4.67,4.67,0,0,1-1.977-6.351c.316-.557.538-1.031.081-1.61-.094-.119-.071-.338-.125-.5a10.53,10.53,0,0,1-.4-5.113,9.476,9.476,0,0,1,2.334-4.907c.342-.375.648-.786.966-1.174m.56,37.507c-.157-.225-.258-.4-.387-.551-.231-.27-.211-.469.058-.714.317-.29.585-.643.877-.964.874-.961.862-.948,1.571.168a7.465,7.465,0,0,1,1.08,4.064c.021,4.165.013,8.33,0,12.5,0,.4.081.5.459.5q6.732-.024,13.464,0c.381,0,.46-.11.458-.5-.014-4.149-.009-8.3-.008-12.447a9.075,9.075,0,0,1,.088-1.382,7.293,7.293,0,0,1,1.353-3.252c.361-.494.43-.49.831-.058.423.455.832.926,1.273,1.361a.478.478,0,0,1,.057.73,3.552,3.552,0,0,0-.727,2.06c0,3.345,0,6.69-.009,10.035,0,.314.095.367.357.364,1.167-.014,2.334-.023,3.5,0,.366.009.471-.08.469-.492-.018-3.3-.013-6.593-.009-9.89a11.9,11.9,0,0,0-.179-2.325,5.43,5.43,0,0,0-3.755-4.419c-1.482-.485-3.049-.663-4.563-1.048-.529-.135-.676.048-.836.531a5.256,5.256,0,0,1-10.108-.185c-.145-.443-.361-.469-.7-.389-.823.191-1.649.37-2.473.556a31.335,31.335,0,0,0-3.169.731q-2.128.718-4.237,1.5a.708.708,0,0,1-.842-.185c-2.174-2.089-4.36-4.165-6.529-6.261-.247-.238-.382-.241-.613.013q-1.586,1.739-3.209,3.44c-.259.271-.2.412.041.637q2.085,1.979,4.148,3.985a9.446,9.446,0,0,0,8.814,2.773c1.147-.222,2.272-.576,3.456-.883M8.631,78.325c0,2.557.006,5.113-.007,7.67,0,.357.058.495.433.493q5.027-.026,10.053,0c.223,0,.421-.17.649-.062.337.162.369-.048.366-.339-.058-5.092.082-10.184-.076-15.277A5.973,5.973,0,0,0,17.2,65.731a5.123,5.123,0,0,0-5.094-.361,6.217,6.217,0,0,0-3.475,5.622c-.01,2.444,0,4.888,0,7.333m57.411,14.33c3.71,0,7.42-.005,11.13.009.338,0,.426-.09.415-.45-.026-.9-.005-1.8-.009-2.7A4.607,4.607,0,0,0,74.5,84.941c-1.037-.363-2.072-.734-3.111-1.092a6.984,6.984,0,0,0-2.378-.467c-2.154.021-4.308.01-6.462,0a2.469,2.469,0,0,0-.841.112c-1.486.528-2.988,1.012-4.447,1.617a4.36,4.36,0,0,0-2.665,4.3c0,.916.02,1.834-.009,2.749-.013.4.081.5.46.5,3.665-.017,7.33-.01,11-.01m-25.808.009H51.179c.1,0,.21-.007.314,0,.163.013.244-.039.241-.238a23.565,23.565,0,0,0-.182-4.107,4.2,4.2,0,0,0-2.563-3.251c-1.092-.462-2.23-.8-3.346-1.194a8.072,8.072,0,0,0-2.946-.507c-2.017.05-4.037.016-6.055.014a2.812,2.812,0,0,0-.955.157c-1.342.476-2.681.962-4.021,1.443a4.617,4.617,0,0,0-2.938,4.463c.03.9.025,1.8,0,2.7-.013.406.064.535.476.533,3.678-.021,7.356-.012,11.034-.012m20.1-82.212a10.765,10.765,0,0,0,.427,3.227c.072.24.182.348.414.324.354-.036.71-.084,1.065-.089.867-.013,1.736.016,2.6-.009a8.873,8.873,0,0,0,4.287-1.221,10.627,10.627,0,0,0,2.463-2.221c.182-.2.29-.264.495-.034.351.394.729.761,1.1,1.134a7.812,7.812,0,0,0,5.4,2.344A31.057,31.057,0,0,1,82.207,14a.6.6,0,0,0,.754-.54c.147-.624.255-1.254.34-1.889a3.209,3.209,0,0,0-2.813-3.817A1.542,1.542,0,0,1,79.4,7.219,12.478,12.478,0,0,0,69.043,3.186a11.8,11.8,0,0,0-5.473,1.8,6.772,6.772,0,0,0-3.235,5.462M79.015,68.592c0-3.12-.007-6.239.008-9.359,0-.416-.067-.562-.5-.56-4.458.02-8.916.012-13.374.012-.089,0-.18.007-.269,0-.173-.016-.235.06-.234.247.007.933,0,1.865,0,2.8,0,.146.025.265.2.229a6.014,6.014,0,0,1,1.884-.118,7.9,7.9,0,0,1,2.139.455A9.283,9.283,0,0,1,74.7,71.121a19.629,19.629,0,0,1-.294,3.461,20.248,20.248,0,0,1-1.589,5.375c-.142.3-.071.35.2.349q2.851-.009,5.7,0c.237,0,.306-.074.3-.326-.014-.741,0-1.482,0-2.222V68.592M66.1,80.3c1,0,2-.012,3,.007a.567.567,0,0,0,.64-.429c.262-.677.517-1.36.787-2.034a19.239,19.239,0,0,0,1.2-5.112,8.191,8.191,0,0,0-.169-3.375,5.72,5.72,0,0,0-1.434-2.541,8.136,8.136,0,0,0-1.377-1.182,5.32,5.32,0,0,0-3.366-.7,6.011,6.011,0,0,0-5.05,5.987,17.486,17.486,0,0,0,.18,2.581,21.833,21.833,0,0,0,1.857,6.25.809.809,0,0,0,.86.56c.954-.05,1.913-.015,2.869-.015m11.469-60.83c0-.434,0-.868,0-1.3,0-.4.108-.892-.067-1.17-.142-.224-.635-.2-.977-.265a10,10,0,0,1-4.3-2.043.533.533,0,0,0-.788.012,9.4,9.4,0,0,1-.961.669,10.676,10.676,0,0,1-4.076,1.5c-.281.047-.32.149-.318.411.01,1.366.023,2.732,0,4.1a6.939,6.939,0,0,0,.363,2.378,5.577,5.577,0,0,0,6.609,3.852,6.292,6.292,0,0,0,2.22-1.11A5.663,5.663,0,0,0,77.4,22.9a17.949,17.949,0,0,0,.173-3.431M22.992,84.319c0,1.659-.012,3.218.009,4.777,0,.377-.086.478-.441.477q-8.192-.019-16.383,0c-.322,0-.432-.063-.426-.44.023-1.447,0-2.895.014-4.342,0-.364-.124-.426-.4-.27a4.671,4.671,0,0,0-2.482,4.2C2.864,89.857,2.9,91,2.873,92.141c-.011.419.083.528.484.527q9.314-.024,18.627-.011c1.182,0,2.364-.01,3.546.007.28,0,.359-.081.345-.378-.063-1.359.047-2.719-.08-4.083a4.659,4.659,0,0,0-2.8-3.885m18.5-59.5a2.342,2.342,0,0,0-2.589,1.863,2.952,2.952,0,0,0,.875,2.992c.812.79,1.661,1.54,2.443,2.363.338.355.5.242.763-.046,1-1.088,2-2.171,3.022-3.226.31-.319.3-.515-.007-.806-.779-.744-1.618-1.416-2.377-2.177a2.511,2.511,0,0,0-2.129-.963M84.083,55.6c-.613,0-1.227.013-1.84-.006-.258-.008-.363.038-.358.358.022,1.222.006,2.444.018,3.666a2.237,2.237,0,0,0,1.49,2.052c1.112.324,2.7-.185,2.79-2.4.048-1.124,0-2.251.013-3.377,0-.229-.054-.3-.273-.3-.614.015-1.227.005-1.841.005M69,30.37a6.318,6.318,0,0,0,.534,3.589A2.343,2.343,0,0,0,71.9,35.505,2.415,2.415,0,0,0,74.171,33.8a7.39,7.39,0,0,0,.541-3.007c-.023-.371-.1-.424-.419-.324a7.941,7.941,0,0,1-2.928.424A9.7,9.7,0,0,1,69,30.37m-5.8-11.8c0-.434-.009-.868,0-1.3.007-.209-.051-.282-.251-.273-.418.017-.837-.007-1.255.016a1.5,1.5,0,0,0-1.344,1.143,1.677,1.677,0,0,0,.466,1.578c.294.266,2.063.583,2.28.32.258-.315.058-.79.1-1.193a2.765,2.765,0,0,0,0-.289m17.248-.057c0,.081,0,.161,0,.241.022.429-.172,1.015.075,1.242s.765.077,1.166.079c1.109,0,1.52-.439,1.531-1.636A1.423,1.423,0,0,0,82.215,17.1a7.935,7.935,0,0,0-1.458-.1c-.222-.009-.321.044-.306.312.022.4.006.8.006,1.206" transform="translate(0 0)"/>
        <path id="Trazado_824424" data-name="Trazado 824424" d="M65.984,7.99c-.317.388-.624.8-.966,1.174a9.481,9.481,0,0,0-2.334,4.907,10.544,10.544,0,0,0,.4,5.114c.055.164.031.383.125.5.457.579.234,1.053-.081,1.61a4.67,4.67,0,0,0,1.977,6.351,4.9,4.9,0,0,0,2.461.415c.886,0,.889,0,1.1.855a9.808,9.808,0,0,0,2.311,4.262.714.714,0,0,1,.212.541c-.014.643-.011,1.287,0,1.93,0,.3-.082.464-.382.525-1.537.309-3.074.625-4.605.964a21.513,21.513,0,0,0-3.724,1.223,1.4,1.4,0,0,1-1.836-.4c-1.279-1.361-2.686-2.581-4.012-3.892s-2.727-2.6-4.079-3.905A35.709,35.709,0,0,0,49.81,27.6a4.124,4.124,0,0,0-1.889-.853,5.845,5.845,0,0,0-4.054.452,5.6,5.6,0,0,0-2.575,3.311,6.26,6.26,0,0,0,1.872,6.515c1.546,1.407,3.025,2.9,4.512,4.381C49,42.728,50.4,43.97,51.741,45.281a15.346,15.346,0,0,0,4.808,3.406,13.753,13.753,0,0,0,2.944.9,10.525,10.525,0,0,0,2.443.069,12.575,12.575,0,0,0,3.114-.636,7.485,7.485,0,0,1,1.406-.318c.31-.038.419.117.42.385.008,1.672,0,3.345.007,5.017,0,.182-.079.216-.219.206-.089-.007-.179,0-.269,0q-28.972,0-57.944.012c-.414,0-.472-.129-.472-.529q.015-22.651,0-45.3c0-.439.112-.51.49-.51q28.59.016,57.18.01ZM23.775,29.606c4.159,0,8.318,0,12.477.009.352,0,.5-.053.473-.481-.039-.721-.028-1.447,0-2.17.012-.342-.048-.475-.4-.457-.686.036-1.376-.009-2.064.019-.324.013-.427-.062-.422-.437.022-1.785,0-3.57.016-5.355,0-.306-.061-.411-.363-.4-.7.026-1.407.029-2.109,0-.334-.014-.421.079-.416.443.02,1.785,0,3.57.016,5.355,0,.316-.075.4-.368.395-.732-.023-1.466-.02-2.2,0-.259.007-.33-.081-.318-.349.02-.433.005-.868.005-1.3,0-3.426-.006-6.851.009-10.277,0-.371-.092-.454-.419-.439a19.722,19.722,0,0,1-2.019,0c-.389-.023-.454.116-.452.5.014,3.779,0,7.558.02,11.338,0,.459-.126.553-.516.532a15.1,15.1,0,0,0-1.839,0c-.415.027-.547-.069-.542-.555.026-2.766.008-5.532.019-8.3,0-.323-.051-.445-.381-.43-.687.03-1.377.029-2.064,0-.338-.014-.446.07-.444.462.018,2.8,0,5.6.017,8.395,0,.331-.063.439-.386.425-.7-.029-1.407-.028-2.109,0-.313.012-.4-.077-.393-.419.017-1.8,0-3.6.015-5.4,0-.3-.068-.379-.346-.371-.717.023-1.437.028-2.154,0-.322-.013-.391.091-.388.424.017,1.785,0,3.57.016,5.355,0,.348-.09.425-.4.414-.7-.026-1.407.012-2.109-.017-.329-.014-.393.1-.382.43.023.739.032,1.481,0,2.218-.019.4.12.457.449.456q6.238-.017,12.478-.007m.028,3.088H16.982c-.209,0-.4-.051-.387.321.03.819.02,1.64,0,2.46-.005.267.084.312.306.312q6.888-.009,13.776,0c.244,0,.3-.084.293-.326-.013-.787-.023-1.576,0-2.363.012-.351-.095-.414-.4-.412-2.259.015-4.517.008-6.776.008m-.735,15.44c-2.034,0-4.068.007-6.1-.008-.292,0-.377.078-.368.4.022.787.018,1.576,0,2.363-.006.275.072.344.323.344q6.148-.012,12.295,0c.253,0,.328-.071.322-.345-.017-.771-.026-1.544,0-2.314.014-.366-.083-.447-.416-.444-2.019.019-4.038.009-6.058.009M13.731,49.7c0-.434-.01-.868,0-1.3.007-.213-.058-.273-.253-.271q-1.188.016-2.377,0c-.2,0-.254.062-.251.272q.015,1.278,0,2.555c0,.212.058.273.253.27q1.188-.016,2.376,0c.2,0,.258-.062.252-.272-.014-.417,0-.835,0-1.253M35.3,32.694c-.389,0-.778.013-1.166-.005-.228-.011-.308.055-.3.316.016.819.014,1.639,0,2.458,0,.246.052.331.294.325.762-.017,1.525-.015,2.287,0,.228,0,.307-.056.3-.316-.016-.819-.014-1.639,0-2.458,0-.245-.051-.339-.294-.325-.373.022-.747.006-1.121.006M13.711,34.238c-.018-.507.225-1.186-.073-1.471-.261-.25-.881-.081-1.342-.069s-1.1-.222-1.369.1c-.232.28-.075.947-.064,1.443s-.206,1.186.09,1.471c.26.25.881.081,1.342.069s1.105.222,1.368-.1c.229-.278.048-.947.048-1.442" transform="translate(-5.101 -4.889)" fill="#e5e8ed"/>
        <path id="Trazado_824425" data-name="Trazado 824425" d="M141,88.8c-1.185.307-2.309.661-3.456.883a9.445,9.445,0,0,1-8.814-2.773q-2.06-2.009-4.148-3.985c-.237-.225-.3-.367-.041-.638q1.623-1.7,3.209-3.44c.231-.254.366-.251.613-.013,2.17,2.1,4.355,4.172,6.529,6.261a.707.707,0,0,0,.841.184q2.107-.786,4.237-1.5a31.318,31.318,0,0,1,3.169-.731c.824-.186,1.649-.365,2.472-.556.342-.079.557-.054.7.389a5.255,5.255,0,0,0,10.107.185c.16-.483.307-.666.836-.531,1.514.386,3.081.564,4.564,1.048a5.429,5.429,0,0,1,3.755,4.42,11.955,11.955,0,0,1,.179,2.325c0,3.3-.01,6.594.008,9.89,0,.412-.1.5-.469.492-1.167-.027-2.334-.018-3.5,0-.262,0-.358-.05-.357-.364.012-3.345.008-6.69.009-10.035a3.555,3.555,0,0,1,.727-2.06.478.478,0,0,0-.057-.73c-.44-.435-.85-.906-1.272-1.361-.4-.431-.469-.435-.831.058a7.289,7.289,0,0,0-1.353,3.252,9.029,9.029,0,0,0-.088,1.382c0,4.149-.006,8.3.008,12.447,0,.393-.076.5-.458.5q-6.732-.024-13.465,0c-.378,0-.461-.1-.459-.5.015-4.165.023-8.33,0-12.5a7.467,7.467,0,0,0-1.08-4.064c-.709-1.116-.7-1.129-1.571-.168-.293.321-.56.674-.878.964-.269.245-.29.444-.058.714.128.15.23.326.387.551" transform="translate(-79.559 -48.194)" fill="#b3dc7e"/>
        <path id="Trazado_824426" data-name="Trazado 824426" d="M23.939,180.932c0-2.444-.008-4.888,0-7.333a6.217,6.217,0,0,1,3.475-5.622,5.123,5.123,0,0,1,5.094.361,5.973,5.973,0,0,1,2.847,5.081c.157,5.092.018,10.185.076,15.277,0,.291-.029.5-.366.339-.228-.109-.426.063-.649.062q-5.026-.023-10.053,0c-.375,0-.435-.136-.433-.493.013-2.557.007-5.113.007-7.67" transform="translate(-15.309 -102.608)" fill="#646c77"/>
        <path id="Trazado_824427" data-name="Trazado 824427" d="M162.942,224.566c-3.665,0-7.33-.007-11,.01-.378,0-.473-.1-.46-.5.03-.916.01-1.833.01-2.749a4.36,4.36,0,0,1,2.665-4.3c1.459-.6,2.961-1.089,4.448-1.617a2.463,2.463,0,0,1,.841-.112c2.154.007,4.308.018,6.463,0a7,7,0,0,1,2.377.466c1.038.358,2.074.729,3.111,1.092a4.607,4.607,0,0,1,3.078,4.571c0,.9-.017,1.8.009,2.7.01.359-.078.451-.416.45-3.71-.014-7.42-.009-11.13-.009" transform="translate(-96.901 -131.911)" fill="#b3dc7e"/>
        <path id="Trazado_824428" data-name="Trazado 824428" d="M91.221,224.546c-3.678,0-7.356-.009-11.034.012-.413,0-.489-.127-.476-.533.029-.9.034-1.8,0-2.7a4.617,4.617,0,0,1,2.938-4.463c1.34-.481,2.679-.967,4.021-1.443a2.822,2.822,0,0,1,.955-.158c2.018,0,4.038.037,6.055-.013a8.071,8.071,0,0,1,2.946.507c1.116.4,2.254.733,3.346,1.194a4.2,4.2,0,0,1,2.563,3.251,23.529,23.529,0,0,1,.181,4.107c0,.2-.077.251-.241.237-.1-.008-.209,0-.314,0H91.221" transform="translate(-50.988 -131.882)" fill="#7816c2"/>
        <path id="Trazado_824429" data-name="Trazado 824429" d="M167.442,15.44a6.77,6.77,0,0,1,3.234-5.462,11.807,11.807,0,0,1,5.474-1.8A12.476,12.476,0,0,1,186.5,12.208a1.543,1.543,0,0,0,1.092.535,3.209,3.209,0,0,1,2.813,3.817c-.085.635-.193,1.265-.34,1.889a.6.6,0,0,1-.754.539,31.055,31.055,0,0,0-3.621-.095,7.815,7.815,0,0,1-5.4-2.344c-.371-.373-.75-.739-1.1-1.134-.2-.23-.313-.169-.5.034a10.623,10.623,0,0,1-2.463,2.221,8.876,8.876,0,0,1-4.288,1.221c-.867.025-1.735,0-2.6.009-.355.005-.71.054-1.065.09-.232.023-.342-.084-.414-.324a10.757,10.757,0,0,1-.427-3.227" transform="translate(-107.108 -4.989)" fill="#646c77"/>
        <path id="Trazado_824430" data-name="Trazado 824430" d="M193.781,161.414v9.166c0,.741-.009,1.482.005,2.222,0,.253-.064.328-.3.326q-2.849-.015-5.7,0c-.274,0-.345-.051-.2-.349a20.24,20.24,0,0,0,1.589-5.375,19.627,19.627,0,0,0,.293-3.46,9.284,9.284,0,0,0-5.828-8.825,7.913,7.913,0,0,0-2.139-.455,6.016,6.016,0,0,0-1.884.118c-.171.036-.2-.083-.2-.229,0-.933,0-1.865,0-2.8,0-.188.061-.264.234-.247.089.009.179,0,.269,0,4.458,0,8.916.008,13.374-.012.43,0,.5.144.5.56-.015,3.12-.008,6.239-.008,9.359" transform="translate(-114.766 -92.821)" fill="#d39f6b"/>
        <path id="Trazado_824431" data-name="Trazado 824431" d="M107.093,173.385c.009.086.018.172.027.257l-.021.022.027.012c.005.089.01.179.015.267-.065.037-.063.074,0,.11a2.74,2.74,0,0,1-.05.844v.019a18.9,18.9,0,0,1-1.41,6.057c-.232.568-.432,1.151-.689,1.71a.389.389,0,0,1-.4.279q-3.14-.006-6.279,0a.478.478,0,0,1-.485-.33,23.717,23.717,0,0,1-1.937-6.217,9.772,9.772,0,0,1,.248-5.054,5.567,5.567,0,0,1,5.115-3.79,5.5,5.5,0,0,1,3.964,1.647,5.9,5.9,0,0,1,1.878,4.147v.022" transform="translate(-61.201 -102.67)" fill="#d39f6b"/>
        <path id="Trazado_824432" data-name="Trazado 824432" d="M173.214,182.98c-.957,0-1.915-.035-2.869.015a.809.809,0,0,1-.86-.561,21.833,21.833,0,0,1-1.857-6.25,17.48,17.48,0,0,1-.18-2.581,6.012,6.012,0,0,1,5.05-5.987,5.317,5.317,0,0,1,3.365.7,8.16,8.16,0,0,1,1.378,1.182,5.724,5.724,0,0,1,1.434,2.541,8.2,8.2,0,0,1,.169,3.375,19.242,19.242,0,0,1-1.2,5.112c-.271.674-.525,1.356-.787,2.034a.568.568,0,0,1-.64.429c-1-.02-2-.007-3-.007" transform="translate(-107.11 -102.678)" fill="#646c77"/>
        <path id="Trazado_824433" data-name="Trazado 824433" d="M194.888,42.449a18.009,18.009,0,0,1-.174,3.431,5.662,5.662,0,0,1-2.123,3.6,6.294,6.294,0,0,1-2.22,1.11,5.577,5.577,0,0,1-6.61-3.852,6.938,6.938,0,0,1-.362-2.378c.025-1.366.013-2.732,0-4.1,0-.262.036-.364.318-.411a10.687,10.687,0,0,0,4.076-1.5,9.493,9.493,0,0,0,.961-.669.533.533,0,0,1,.789-.012,10,10,0,0,0,4.3,2.043c.342.061.835.041.977.265.176.278.063.77.067,1.17.005.434,0,.868,0,1.3" transform="translate(-117.314 -22.977)" fill="#ffc6b0"/>
        <path id="Trazado_824434" data-name="Trazado 824434" d="M28.089,217.71a4.659,4.659,0,0,1,2.8,3.885c.126,1.364.017,2.723.08,4.083.014.3-.065.381-.346.377-1.182-.017-2.364-.007-3.546-.007q-9.314,0-18.627.011c-.4,0-.5-.107-.484-.527.03-1.141-.008-2.284.015-3.425a4.671,4.671,0,0,1,2.482-4.2c.272-.157.4-.094.4.27-.011,1.447.009,2.9-.014,4.342-.006.377.1.44.426.44q8.191-.016,16.383,0c.355,0,.446-.1.441-.477-.021-1.559-.009-3.119-.009-4.777" transform="translate(-5.097 -133.391)" fill="#7816c2"/>
        <path id="Trazado_824435" data-name="Trazado 824435" d="M110.344,64.052a2.511,2.511,0,0,1,2.129.963c.759.761,1.6,1.433,2.377,2.177.305.291.317.487.007.806-1.025,1.055-2.026,2.138-3.022,3.226-.264.288-.425.4-.763.046-.782-.823-1.631-1.572-2.443-2.363a2.952,2.952,0,0,1-.875-2.993,2.342,2.342,0,0,1,2.589-1.862" transform="translate(-68.849 -39.233)" fill="#ffc6b0"/>
        <path id="Trazado_824436" data-name="Trazado 824436" d="M229.447,143.556c.613,0,1.227.01,1.84-.005.219-.005.276.071.274.3-.01,1.126.035,2.254-.013,3.377-.093,2.214-1.678,2.723-2.791,2.4a2.235,2.235,0,0,1-1.49-2.051c-.012-1.222,0-2.445-.018-3.667-.006-.32.1-.366.357-.358.613.019,1.227.006,1.84.006" transform="translate(-145.365 -87.953)" fill="#ffc6b0"/>
        <path id="Trazado_824437" data-name="Trazado 824437" d="M191.388,78.415a9.693,9.693,0,0,0,2.361.521,7.938,7.938,0,0,0,2.927-.424c.318-.1.4-.047.419.324a7.382,7.382,0,0,1-.541,3.007,2.415,2.415,0,0,1-2.272,1.709A2.343,2.343,0,0,1,191.921,82a6.319,6.319,0,0,1-.533-3.589" transform="translate(-122.384 -48.045)" fill="#ffc6b0"/>
        <path id="Trazado_824438" data-name="Trazado 824438" d="M170.314,45.462a2.859,2.859,0,0,1,0,.289c-.041.4.159.878-.1,1.193-.216.263-1.985-.054-2.279-.32a1.676,1.676,0,0,1-.466-1.578,1.5,1.5,0,0,1,1.344-1.143c.418-.023.837,0,1.255-.016.2-.008.257.065.251.273-.013.433,0,.868,0,1.3" transform="translate(-107.105 -26.889)" fill="#ffc6b0"/>
        <path id="Trazado_824439" data-name="Trazado 824439" d="M223.2,45.4c0-.4.016-.8-.006-1.206-.015-.268.084-.321.307-.312a7.934,7.934,0,0,1,1.457.1,1.424,1.424,0,0,1,1.015,1.345c-.011,1.2-.423,1.64-1.532,1.636-.4,0-.929.139-1.165-.079s-.053-.814-.076-1.242c0-.08,0-.161,0-.241" transform="translate(-142.739 -26.888)" fill="#ffc6b0"/>
        <path id="Trazado_824440" data-name="Trazado 824440" d="M127.409,184.136c-.065-.036-.066-.073,0-.11a.5.5,0,0,1,.02.076c0,.01-.012.023-.019.034" transform="translate(-81.468 -112.753)" fill="#646c77"/>
        <path id="Trazado_824441" data-name="Trazado 824441" d="M127.361,182.552v-.022l.024.01Z" transform="translate(-81.469 -111.836)" fill="#646c77"/>
        <path id="Trazado_824442" data-name="Trazado 824442" d="M127.405,183.283l-.027-.012.021-.022.022.014Z" transform="translate(-81.48 -112.277)" fill="#646c77"/>
        <path id="Trazado_824443" data-name="Trazado 824443" d="M127.355,186.507v-.019l.022.012Z" transform="translate(-81.465 -114.262)" fill="#646c77"/>
        <path id="Trazado_824444" data-name="Trazado 824444" d="M28.873,39.37q-6.239,0-12.478.007c-.328,0-.468-.053-.449-.456.036-.738.026-1.48,0-2.219-.01-.326.054-.443.382-.43.7.03,1.407-.009,2.109.017.307.012.4-.066.4-.414-.018-1.785,0-3.57-.016-5.355,0-.333.066-.437.388-.424.717.029,1.436.024,2.154,0,.277-.009.348.071.346.37-.014,1.8,0,3.6-.015,5.4,0,.342.08.431.393.418.7-.027,1.407-.029,2.109,0,.323.013.388-.095.386-.425-.013-2.8,0-5.6-.017-8.4,0-.391.106-.475.444-.461.687.028,1.377.029,2.064,0,.33-.014.383.108.382.431-.012,2.766.006,5.532-.02,8.3,0,.486.128.582.542.555a15.174,15.174,0,0,1,1.839,0c.39.022.519-.073.516-.532-.02-3.779-.006-7.559-.02-11.338,0-.387.063-.526.452-.5a19.722,19.722,0,0,0,2.019,0c.328-.014.421.069.419.44-.015,3.425-.009,6.851-.009,10.277,0,.434.014.869-.005,1.3-.012.269.059.356.318.35.733-.019,1.467-.022,2.2,0,.293.009.371-.079.368-.395-.015-1.785,0-3.57-.016-5.355,0-.365.083-.458.416-.443.7.03,1.407.027,2.109,0,.3-.011.365.094.363.4-.013,1.785.006,3.57-.016,5.355,0,.375.1.45.422.437.687-.028,1.377.017,2.064-.019.357-.019.416.115.4.457-.025.723-.036,1.449,0,2.17.023.428-.12.482-.473.481-4.159-.014-8.318-.009-12.478-.009" transform="translate(-10.2 -14.653)"/>
        <path id="Trazado_824445" data-name="Trazado 824445" d="M39.1,71.779c2.259,0,4.517.007,6.776-.008.3,0,.411.061.4.412-.027.787-.017,1.576,0,2.363,0,.243-.049.327-.293.326q-6.888-.012-13.776,0c-.222,0-.312-.045-.306-.312.017-.82.027-1.641,0-2.459-.013-.372.178-.322.387-.322H39.1" transform="translate(-20.403 -43.974)"/>
        <path id="Trazado_824446" data-name="Trazado 824446" d="M38.373,111.644c2.019,0,4.039.009,6.058-.009.333,0,.43.078.416.444-.03.77-.02,1.543,0,2.314.006.273-.069.345-.322.345q-6.148-.013-12.3,0c-.251,0-.329-.068-.323-.343.017-.787.021-1.576,0-2.363-.009-.316.076-.4.368-.395,2.034.014,4.068.007,6.1.007" transform="translate(-20.407 -68.399)"/>
        <path id="Trazado_824447" data-name="Trazado 824447" d="M18.843,113.218c0,.418-.01.836,0,1.253.007.21-.053.275-.251.272q-1.188-.016-2.377,0c-.2,0-.255-.058-.253-.27q.016-1.277,0-2.555c0-.21.054-.275.252-.272q1.188.017,2.376,0c.2,0,.26.057.253.27-.014.433,0,.868,0,1.3" transform="translate(-10.213 -68.406)"/>
        <path id="Trazado_824448" data-name="Trazado 824448" d="M81.212,71.779c.373,0,.748.017,1.12-.006.243-.015.3.08.294.325-.013.819-.015,1.639,0,2.458.005.26-.074.32-.3.316-.762-.014-1.525-.016-2.287,0-.243.005-.3-.08-.294-.325.013-.819.015-1.639,0-2.458-.005-.26.074-.327.3-.316.387.018.777.005,1.166.005" transform="translate(-51.009 -43.975)"/>
        <path id="Trazado_824449" data-name="Trazado 824449" d="M18.72,73.23c0,.5.181,1.164-.048,1.442-.263.319-.9.084-1.368.1s-1.082.181-1.342-.069c-.3-.285-.079-.964-.09-1.471s-.168-1.163.064-1.443c.265-.318.9-.084,1.369-.1s1.081-.181,1.342.069c.3.285.055.965.073,1.471" transform="translate(-10.111 -43.881)"/>
      </g>
    </g>
  </g>
</svg>
