<svg xmlns="http://www.w3.org/2000/svg" xmlns:xlink="http://www.w3.org/1999/xlink" width="169" height="169" viewBox="0 0 169 169">
  <defs>
    <clipPath id="clip-path">
      <rect id="Rect치ngulo_378366" data-name="Rect치ngulo 378366" width="104.467" height="92.667" fill="none"/>
    </clipPath>
  </defs>
  <g id="Grupo_1074729" data-name="Grupo 1074729" transform="translate(-384.743 -2057.999)">
    <g id="Grupo_159182" data-name="Grupo 159182" transform="translate(384.743 2057.999)">
      <path id="Uni칩n_12" data-name="Uni칩n 12" d="M84.5,0A84.5,84.5,0,1,1,0,84.5,84.5,84.5,0,0,1,84.5,0Z" transform="translate(0 0)" fill="#ffae7e"/>
    </g>
    <g id="Grupo_1074744" data-name="Grupo 1074744" transform="translate(417.009 2096.166)">
      <g id="Grupo_1074743" data-name="Grupo 1074743" clip-path="url(#clip-path)">
        <path id="Trazado_824488" data-name="Trazado 824488" d="M63.9,60.1a1.581,1.581,0,0,1,1.577,1.7c.026,2.09.041,4.181-.014,6.269-.011.421.056.811.074,1.215a51.633,51.633,0,0,1,5.068-.995c1.826-.263,3.664-.367,5.509-.45a51.218,51.218,0,0,1,5.236.059,31.715,31.715,0,0,1,3.992.366c.412.076.828-.025,1.2.334.128.123.578-.088.92-.033,1.591.253,3.191.45,4.755.859.974.255,1.967.438,2.939.7a3.179,3.179,0,0,1,2.429,2.867,32.034,32.034,0,0,1,0,4.072c-.03.06-.009.075.05.055a3.344,3.344,0,0,1,2.642,2.489.794.794,0,0,1,.048.193c-.009,1.055.174,2.106.077,3.163-.019.212.019.367.265.4a4.364,4.364,0,0,1,2.846,1.882,4.75,4.75,0,0,1-.79,6.251,5.181,5.181,0,0,1-2.135.979,21.663,21.663,0,0,1-4.5.14q-17.7.041-35.4.02-24.509,0-49.017,0c-2.363,0-4.728.054-7.089-.023A4.324,4.324,0,0,1,1,90.454a4.562,4.562,0,0,1-.781-3.048,4.31,4.31,0,0,1,1.1-2.544,5.17,5.17,0,0,1,2.621-1.58c.219-.054.376-.154.284-.42.011-.012.034-.032.032-.034a.633.633,0,0,0-.055-.06,3.047,3.047,0,0,0-.05-1.051c.14-.09.143-.179,0-.266.117-.134.045-.293.056-.44.212-.128.224-.255,0-.383q0-.219-.008-.438c.067-.149.249-.327-.09-.381a4.259,4.259,0,0,1,1.6-2.193,2.156,2.156,0,0,1,.693-.347c.469-.07.543-.345.539-.737-.01-.949-.025-1.9,0-2.848a3.677,3.677,0,0,1,.392-2.066A3.4,3.4,0,0,1,9.505,70.1c1.472-.331,2.925-.751,4.4-1.069,1.136-.245,2.286-.427,3.443-.559,1.273-.146,2.538-.424,3.814-.475.907-.036,1.807-.159,2.721-.157,1.272,0,2.547-.086,3.821-.043a50.3,50.3,0,0,1,6.247.557c1.285.205,2.558.457,3.837.688.394.072.769.2,1.145.3.472.128.552-.009.563-.437.123-5.141.02-10.282.05-15.423.014-2.378-.007-4.757.014-7.135,0-.314-.189-.391-.368-.515a4.2,4.2,0,0,1-1.911-2.552,3.479,3.479,0,0,1-.009-.755c-.011-1.563-.088-3.13,0-4.686a3.412,3.412,0,0,1,1.82-2.792c.3-.173.36-.313.249-.585a5.5,5.5,0,0,0-1.573-2.179,41.682,41.682,0,0,1-3.812-3.15,13.038,13.038,0,0,1-3.036-5.6,4.485,4.485,0,0,1-.312-1.449c.009-.152-.062-.216-.21-.212s-.272,0-.408,0c-5.289,0-10.578.013-15.866-.017a11.283,11.283,0,0,1-1.9-.3,20.349,20.349,0,0,1-2.964-1.023c-.769-.265-1.492-.663-2.236-1Q4.755,18.512,2.483,17.49c-.365-.165-.732-.328-1.085-.516A2.332,2.332,0,0,1,0,14.7a2.528,2.528,0,0,1,1.451-2.2c.973-.516,2.017-.872,3.011-1.337.933-.435,1.853-.888,2.827-1.233,1.1-.39,2.069-1.1,3.195-1.44A13.143,13.143,0,0,1,13.308,7.8c2.949-.227,5.9-.072,8.852-.094,4.388-.032,8.775-.009,13.163-.009a2.659,2.659,0,0,0,.636-.085.559.559,0,0,0,.485-.632c-.005-.935,0-1.87,0-2.8a4,4,0,0,1,.91-2.441A3.965,3.965,0,0,1,40.018.108,11.756,11.756,0,0,1,43.114.1a4.06,4.06,0,0,1,2.812,1.464c.121.149.239.118.4.035a7.706,7.706,0,0,1,4.453-.439A3.755,3.755,0,0,1,53.6,2.78c.146.2.326.131.536.052a11.422,11.422,0,0,1,4.494-.285,2.459,2.459,0,0,1,1.381.594,6.406,6.406,0,0,1,1.148,1.136.58.58,0,0,0,.758.3,9.942,9.942,0,0,1,4.69-.012,3.97,3.97,0,0,1,2.145,1.6,2.621,2.621,0,0,1,.558,1.206c.046.332.273.345.55.345Q83.154,7.7,96.444,7.687a9.6,9.6,0,0,1,3.4.456A6.811,6.811,0,0,1,102.6,9.99a7.052,7.052,0,0,1,1.733,3.435,6.776,6.776,0,0,1-1.6,5.97A6.71,6.71,0,0,1,99.2,21.6a8.1,8.1,0,0,1-1.823.279q-13.9-.012-27.806-.008c-.385,0-.534.077-.619.5a45.49,45.49,0,0,1-3.122,9.111,7.19,7.19,0,0,0-.379,2.943c0,.273.241.288.426.361a3.558,3.558,0,0,1,2.2,2.19,4.876,4.876,0,0,1,.267,1.583c0,1.19,0,2.379.014,3.569a3.777,3.777,0,0,1-2.585,3.932c-.24.09-.275.238-.275.466.005,2.4-.009,4.793.007,7.189a6.882,6.882,0,0,1-.1,1.2c-.117.691-.7.926-1.311,1.068a1.509,1.509,0,0,1-1.638-1.68c0-2.4.007-4.791,0-7.186,0-.927.188-.856-.878-.858q-9.026-.012-18.053-.007c-.93,0-.929,0-.912.959q0,.2,0,.408c-.033,7.387.086,14.774-.071,22.161a.762.762,0,0,0,.59.874,31.853,31.853,0,0,1,8.661,4.869.675.675,0,0,0,1.018.013,32.192,32.192,0,0,1,9.181-5.071.742.742,0,0,0,.507-.956,1.693,1.693,0,0,1-.041-.45c0-2.429.011-4.859-.009-7.288A1.557,1.557,0,0,1,63.9,60.1M50.767,81.853c.005-.968,0-1.937.024-2.9a.692.692,0,0,0-.257-.57,23.187,23.187,0,0,0-3.883-2.7c-.906-.48-1.837-.954-2.8-1.361-1.1-.464-2.163-1.007-3.305-1.373-.34-.109-.658-.3-1-.374-.437-.094-.866-.232-1.3-.305-.619-.1-1.133-.529-1.829-.451-.468.053-.965-.242-1.455-.266-.82-.041-1.606-.287-2.425-.328a7.49,7.49,0,0,0-2.354-.192.112.112,0,0,1-.051,0,13.928,13.928,0,0,0-2.611-.175,38.28,38.28,0,0,0-4.006.049c-1.329.078-2.657.235-3.99.221-.291,0-.485.246-.761.211a5.59,5.59,0,0,0-1.583.187c-.865.137-1.733.259-2.59.437a10.25,10.25,0,0,0-1.857.345c-.735.311-1.517.387-2.26.624-.461.147-.5.316-.494.68.01.764.025,1.53-.009,2.294-.018.421.128.48.5.4,1.087-.24,2.173-.5,3.273-.665,1.577-.237,3.153-.49,4.743-.641q2.056-.194,4.115-.276c1.948-.074,3.9-.043,5.844.07.655.038,1.325.047,1.962.145,1.482.23,2.976.363,4.452.664A59.541,59.541,0,0,1,41.09,77.16,36.562,36.562,0,0,1,48.513,80.6c.72.424,1.411.9,2.115,1.35.009.091.07.117.134.072a.1.1,0,0,0,0-.172m-4.742,1.278.1-.008.318-.017.295.054c-.082-.124-.146-.21-.277-.2-.414-.252-.708-.7-1.212-.793a2.083,2.083,0,0,1-.564-.177A33.259,33.259,0,0,0,39.8,79.918a42.408,42.408,0,0,0-4.871-1.258,5.718,5.718,0,0,1-2.1-.543c-.056-.036-.184.019-.268.055a.865.865,0,0,1-.411.036c-.716-.034-1.392-.275-2.127-.268-1.617.014-3.231-.184-4.853-.191-2.279-.01-4.547.113-6.817.3-1.1.088-2.18.255-3.267.416-1.372.2-2.737.435-4.088.741-1.068.242-2.126.528-3.187.8-.258.066-.543.119-.511.492-.206.115-.2.227.006.334.037.753-.069,1.508.041,2.26l-.022.006h.023c.119.1.26.059.392.059q9.356.008,18.711.012,9.789-.006,19.577-.035M52.4,34.52v0c3.2,0,6.394-.008,9.591.011.392,0,.483-.1.463-.477a9.433,9.433,0,0,1,.31-2.963c.221-.818.626-1.564.908-2.357.582-1.629,1.3-3.2,1.783-4.877a22.868,22.868,0,0,0,.748-3.148,33.38,33.38,0,0,0,.309-3.912c.046-2.6.034-5.2,0-7.8-.011-1.012-.445-1.55-1.2-1.594a19.039,19.039,0,0,0-2.09,0,1.169,1.169,0,0,0-1.155,1.029c-.035.166-.035.339-.071.5a1.478,1.478,0,0,1-1.623,1.226A1.494,1.494,0,0,1,59.061,8.8c-.057-.624-.039-1.255-.076-1.882a1.215,1.215,0,0,0-1.061-1.266,7.687,7.687,0,0,0-2.373-.06,1.046,1.046,0,0,0-.914.789,2.1,2.1,0,0,0-.143.577,1.342,1.342,0,0,1-1.186,1.35c-1.037.061-1.616-.3-1.791-1.141a12.418,12.418,0,0,1-.083-1.779,1.242,1.242,0,0,0-.924-1.173,3.623,3.623,0,0,0-1.348-.08c-1.573,0-1.79-.35-2.316,1.669a1.389,1.389,0,0,1-1.388,1.088c-.618.031-1.063-.232-1.382-1.034A11.206,11.206,0,0,1,43.9,4.231,1.18,1.18,0,0,0,42.962,3.2,12.943,12.943,0,0,0,41.1,3.1,1.412,1.412,0,0,0,39.484,4.7c.014,2.532.018,5.064-.01,7.6a38.188,38.188,0,0,1-.076,3.96,6.179,6.179,0,0,1-2.569,4.379,7.108,7.108,0,0,1-2.95,1.237c-.213.043-.322.065-.258.347a9.7,9.7,0,0,0,3.02,5.256c.645.576,1.333,1.107,2.028,1.624a8.524,8.524,0,0,1,3.623,5.026c.067.309.24.409.57.407,3.18-.014,6.36-.009,9.54-.009m-.052,55.072v0H99.493a1.58,1.58,0,0,0,1.744-1.283c.045-1.289-.532-2.014-1.671-2.079-.407-.023-.816-.02-1.224-.02l-90.766,0c-.85,0-1.7-.011-2.551.017a1.724,1.724,0,0,0-1.763,1.631c-.012,1.064.747,1.755,2,1.754q23.546-.024,47.093-.011m5.4-6.428h.811q13.619,0,27.237-.008,5.534,0,11.068-.017c.237,0,.478.052.47-.336-.016-.781,0-1.563.011-2.344,0-.183-.025-.29-.252-.356a48.556,48.556,0,0,0-5.132-1.215c-.856-.151-1.717-.273-2.576-.41a6.415,6.415,0,0,0-2.134-.312,1.143,1.143,0,0,1-.455-.007c-.957-.239-1.95-.154-2.924-.337a10.5,10.5,0,0,0-1.726-.053c-1.53-.014-3.06,0-4.591,0a2.771,2.771,0,0,0-.861.016c-.529.183-1.065-.128-1.619.153a3.655,3.655,0,0,1-1.293.122,38.014,38.014,0,0,0-4.814.735,21.332,21.332,0,0,0-3,.766,13.087,13.087,0,0,0-2.87.96c-.691.433-1.534.54-2.27.933a27.278,27.278,0,0,0-3.084,1.716m-3.887-1.078a33.839,33.839,0,0,1,5.51-3.247,34.669,34.669,0,0,1,3.737-1.516c1.589-.53,3.194-1.007,4.822-1.382,1.434-.33,2.889-.568,4.353-.765,1.564-.211,3.134-.369,4.7-.451a45.941,45.941,0,0,1,5.232.046c1.777.11,3.549.237,5.32.423,1.533.161,3.042.451,4.561.69.726.115,1.443.288,2.166.432.241.048.415.072.372-.3a13.053,13.053,0,0,1-.022-1.476c0-1.381,0-1.374-1.3-1.744-1.432-.41-2.894-.68-4.351-.981-.9-.187-1.9-.065-2.7-.66a.236.236,0,0,0-.2-.01,1.8,1.8,0,0,1-.915.016c-1.656-.144-3.317-.275-4.979-.317-2.085-.052-4.173-.038-6.257.092a7.487,7.487,0,0,0-.788.117A16.782,16.782,0,0,0,70.1,71.4a14.162,14.162,0,0,1-2.309.448,29.144,29.144,0,0,0-3.442.889,16.518,16.518,0,0,0-2.318.942c-1.246.6-2.549,1.083-3.766,1.761a26.152,26.152,0,0,0-4.139,2.87.671.671,0,0,0-.263.566c.007,1.036,0,2.071,0,3.207M52.811,43.192v-.013q5.763,0,11.526,0c.766,0,.958-.2.96-.968q0-1.5,0-3.007c0-1.632,0-1.63-1.633-1.63l-21.012,0c-.527,0-1.054,0-1.58.009-.428.009-.72.193-.72.663,0,1.427.007,2.853.011,4.279,0,.476.284.653.718.663.136,0,.272.009.408.009H52.811m-27.1-32.451v0H22.4c-2.279,0-4.558,0-6.837-.014-.34,0-.5.06-.471.437.031.462.011.927.011,1.39,0,.784.021.765.819.735,1.92-.073,3.843-.067,5.763,0a1.456,1.456,0,0,1,1.378,1.443,1.5,1.5,0,0,1-1.3,1.522,7.062,7.062,0,0,1-.967.045q-2.628,0-5.255-.015c-.3,0-.474.034-.45.41a14.573,14.573,0,0,1,0,1.643c-.018.377.1.494.491.491,3.572-.018,7.143-.016,10.715-.02,2.262,0,4.524.016,6.786-.009a3.273,3.273,0,0,0,3.066-2c.16-.326.179-.53-.306-.525-2.091.023-4.184.02-6.276.022a8.964,8.964,0,0,1-1.07-.042,1.618,1.618,0,0,1-1.357-1.436,1.546,1.546,0,0,1,1.3-1.522,3.463,3.463,0,0,1,.608-.062c2.33.025,4.66-.059,6.988.054.366.018.438-.123.427-.431-.016-.476-.014-.951-.021-1.427-.011-.7-.011-.7-.735-.7h-10m69.393,4.046c0,1.206.009,2.413-.006,3.619,0,.324.081.456.43.437.645-.035,1.293,0,1.938-.039a3.97,3.97,0,0,0,3.389-2.014,4.33,4.33,0,0,0,.486-2.348,3.946,3.946,0,0,0-3.029-3.581,20.241,20.241,0,0,0-2.785-.126c-.327-.006-.436.1-.43.434.02,1.206.008,2.413.008,3.619M77.555,18.82v0c2.5,0,5-.009,7.5.009.408,0,.54-.1.5-.518a7.84,7.84,0,0,1,0-1.476c.043-.449-.12-.542-.536-.541q-7.371.019-14.743.011c-.187,0-.373.011-.559.025-.13.01-.22.063-.218.221.008.581.044,1.165,0,1.743-.034.464.164.536.561.534,2.5-.012,5-.006,7.5-.006m.055-8.073v0c-2.463,0-4.926.013-7.389-.011-.494,0-.711.092-.647.634a7.225,7.225,0,0,1,0,1.373c-.029.4.088.557.505.535.627-.034,1.256-.03,1.884-.026,4.382.025,8.765-.065,13.147.057.388.011.512-.108.485-.489a10.464,10.464,0,0,1-.028-1.577c.035-.437-.136-.5-.514-.5-2.48.014-4.96.007-7.44.007M12.033,14.81h.009q0-1.5,0-3.008c0-.592-.024-.61-.593-.395-.681.257-1.359.534-2.01.842-1.694.8-3.411,1.549-5.129,2.3-.119.052-.3.062-.292.233,0,.145.171.146.273.192q2.064.932,4.13,1.857c1.007.449,2.011.905,3.028,1.33.57.238.583.212.584-.39q0-1.478,0-2.957m80.04-.007h-.012c0-1.223-.008-2.447.006-3.67,0-.293-.046-.424-.386-.412-.917.031-1.836.031-2.754.022-.26,0-.355.056-.354.334q.012,3.7,0,7.39c0,.3.1.376.383.372.935-.013,1.87-.016,2.8,0,.305.007.322-.133.32-.37-.008-1.223,0-2.446,0-3.669" transform="translate(0 0)"/>
        <path id="Trazado_824489" data-name="Trazado 824489" d="M125.309,126.861a1.557,1.557,0,0,0-1.455,1.667c.02,2.429.007,4.858.009,7.287a1.673,1.673,0,0,0,.041.45.742.742,0,0,1-.507.956,32.193,32.193,0,0,0-9.181,5.071.675.675,0,0,1-1.018-.013,31.843,31.843,0,0,0-8.661-4.869.763.763,0,0,1-.59-.874c.157-7.386.038-14.774.071-22.161q0-.2,0-.408c-.018-.956-.018-.96.912-.96q9.027,0,18.053.007c1.066,0,.874-.069.877.858.009,2.4,0,4.791,0,7.186a1.508,1.508,0,0,0,1.637,1.68,1.709,1.709,0,0,0-.1.892,22.3,22.3,0,0,1-.087,3.231" transform="translate(-61.411 -66.764)" fill="#7195d1"/>
        <path id="Trazado_824490" data-name="Trazado 824490" d="M9.988,195.03c.338.054.156.231.09.381-.231-.08-.055-.255-.09-.381" transform="translate(-5.882 -115.222)" fill="#7195d1"/>
        <path id="Trazado_824491" data-name="Trazado 824491" d="M10.215,197.031c.224.128.212.256,0,.383a.486.486,0,0,1,0-.383" transform="translate(-6.012 -116.404)" fill="#7195d1"/>
        <path id="Trazado_824492" data-name="Trazado 824492" d="M10,199.042c.146.087.142.176,0,.266-.122-.088-.121-.177,0-.266" transform="translate(-5.858 -117.592)" fill="#7195d1"/>
        <path id="Trazado_824493" data-name="Trazado 824493" d="M10.144,202.255a.633.633,0,0,1,.055.06s-.02.022-.032.034c-.035-.014-.1-.022-.1-.043-.014-.057.033-.061.078-.05" transform="translate(-5.946 -119.488)" fill="#7195d1"/>
        <path id="Trazado_824494" data-name="Trazado 824494" d="M238.5,188.373c-.059.019-.08,0-.05-.055.057-.018.066.007.05.055" transform="translate(-140.867 -111.253)" fill="#7195d1"/>
        <path id="Trazado_824495" data-name="Trazado 824495" d="M100.913,38.987c-3.18,0-6.36-.006-9.54.009-.33,0-.5-.1-.57-.407a8.524,8.524,0,0,0-3.622-5.026c-.694-.516-1.383-1.048-2.028-1.624a9.7,9.7,0,0,1-3.02-5.255c-.063-.283.045-.305.258-.348a7.108,7.108,0,0,0,2.95-1.237,6.179,6.179,0,0,0,2.569-4.379,38.193,38.193,0,0,0,.076-3.96c.028-2.532.024-5.064.01-7.6a1.413,1.413,0,0,1,1.615-1.591,13,13,0,0,1,1.864.1A1.18,1.18,0,0,1,92.412,8.7a11.207,11.207,0,0,0,.176,1.629c.319.8.764,1.065,1.382,1.034a1.39,1.39,0,0,0,1.388-1.088c.526-2.02.743-1.668,2.316-1.669a3.623,3.623,0,0,1,1.348.08,1.243,1.243,0,0,1,.924,1.173,12.419,12.419,0,0,0,.083,1.779c.176.837.754,1.2,1.791,1.141A1.342,1.342,0,0,0,103,11.429a2.136,2.136,0,0,1,.143-.578,1.047,1.047,0,0,1,.915-.788,7.687,7.687,0,0,1,2.373.06,1.215,1.215,0,0,1,1.061,1.266c.037.627.019,1.258.076,1.882a1.494,1.494,0,0,0,1.323,1.352,1.478,1.478,0,0,0,1.623-1.226c.036-.165.036-.338.071-.5a1.169,1.169,0,0,1,1.155-1.029,19.141,19.141,0,0,1,2.09,0c.751.044,1.184.582,1.2,1.595.029,2.6.041,5.2,0,7.8a33.468,33.468,0,0,1-.309,3.912,22.849,22.849,0,0,1-.748,3.148c-.478,1.673-1.2,3.248-1.783,4.877-.283.792-.687,1.538-.908,2.357a9.421,9.421,0,0,0-.31,2.963c.019.372-.071.479-.463.476-3.2-.018-6.394-.01-9.591-.01Z" transform="translate(-48.512 -4.467)" fill="#feebe3"/>
        <path id="Trazado_824496" data-name="Trazado 824496" d="M57.057,214.039q-23.546,0-47.093.01c-1.248,0-2.008-.69-2-1.753a1.724,1.724,0,0,1,1.763-1.631c.85-.029,1.7-.017,2.551-.017l90.766,0c.408,0,.817,0,1.224.02,1.139.065,1.716.79,1.671,2.079a1.58,1.58,0,0,1-1.744,1.283H57.057Z" transform="translate(-4.708 -124.447)" fill="#e9b04c"/>
        <path id="Trazado_824497" data-name="Trazado 824497" d="M141.136,195.392a27.243,27.243,0,0,1,3.084-1.716c.736-.392,1.579-.5,2.27-.933a13.081,13.081,0,0,1,2.87-.96,21.3,21.3,0,0,1,3-.766,38.079,38.079,0,0,1,4.814-.735,3.651,3.651,0,0,0,1.292-.122c.554-.28,1.091.03,1.619-.153a2.784,2.784,0,0,1,.861-.016c1.53,0,3.06-.009,4.591,0a10.5,10.5,0,0,1,1.726.053c.974.183,1.967.1,2.923.337a1.145,1.145,0,0,0,.455.007,6.415,6.415,0,0,1,2.134.312c.859.137,1.72.259,2.576.41a48.426,48.426,0,0,1,5.131,1.215c.227.066.254.174.252.356-.007.781-.027,1.563-.011,2.344.008.388-.233.336-.47.336q-5.534.008-11.068.016-13.619.007-27.237.008h-.81" transform="translate(-83.382 -112.229)" fill="#feebe3"/>
        <path id="Trazado_824498" data-name="Trazado 824498" d="M17.824,192.742c-.032-.374.253-.426.511-.492,1.061-.272,2.119-.558,3.187-.8,1.351-.307,2.716-.538,4.088-.741,1.087-.161,2.167-.328,3.267-.417,2.271-.183,4.539-.307,6.818-.3,1.623.007,3.236.2,4.853.191.735-.006,1.411.234,2.127.268a.865.865,0,0,0,.411-.036c.085-.036.212-.09.268-.055a5.718,5.718,0,0,0,2.1.543,42.408,42.408,0,0,1,4.871,1.258,33.213,33.213,0,0,1,4.879,2.074,2.112,2.112,0,0,0,.564.177c.5.095.8.541,1.211.793-.006.047-.012.1-.018.143l-.318.017c-.038-.072-.07-.061-.1.008q-9.789.018-19.577.035-9.355.006-18.711-.012c-.133,0-.273.039-.392-.059v-.006c-.109-.751,0-1.507-.041-2.259a.32.32,0,0,0-.006-.335" transform="translate(-10.527 -112.248)" fill="#feebe3"/>
        <path id="Trazado_824499" data-name="Trazado 824499" d="M131.631,184.316c0-1.136,0-2.172,0-3.207a.67.67,0,0,1,.263-.566,26.153,26.153,0,0,1,4.139-2.87c1.216-.677,2.52-1.156,3.766-1.761a16.542,16.542,0,0,1,2.318-.941,29.069,29.069,0,0,1,3.442-.889,14.162,14.162,0,0,0,2.309-.448,16.786,16.786,0,0,1,3.035-.356,7.476,7.476,0,0,1,.788-.117c2.084-.13,4.172-.144,6.257-.092,1.661.042,3.322.173,4.979.317a1.8,1.8,0,0,0,.914-.017.239.239,0,0,1,.2.01c.807.6,1.8.474,2.7.66,1.457.3,2.918.572,4.351.981,1.293.37,1.294.364,1.295,1.744a13.25,13.25,0,0,0,.022,1.476c.043.377-.131.353-.372.3-.722-.144-1.439-.318-2.166-.432-1.519-.24-3.029-.53-4.561-.69-1.771-.186-3.543-.312-5.32-.423a45.849,45.849,0,0,0-5.232-.046c-1.568.081-3.139.24-4.7.45-1.464.2-2.919.436-4.353.766-1.629.375-3.234.852-4.823,1.382a34.7,34.7,0,0,0-3.737,1.516,33.823,33.823,0,0,0-5.51,3.247" transform="translate(-77.765 -102.231)" fill="#feebe3"/>
        <path id="Trazado_824500" data-name="Trazado 824500" d="M65.021,184.2c-.7-.451-1.395-.925-2.115-1.35a36.583,36.583,0,0,0-7.423-3.443,59.545,59.545,0,0,0-6.231-1.568c-1.476-.3-2.97-.435-4.452-.664-.636-.1-1.307-.108-1.962-.145-1.948-.113-3.9-.144-5.844-.07q-2.06.079-4.115.276c-1.591.15-3.166.4-4.744.64-1.1.165-2.186.425-3.272.666-.372.082-.518.024-.5-.4.033-.763.018-1.529.009-2.294,0-.364.032-.532.494-.68.744-.237,1.524-.312,2.26-.624a10.292,10.292,0,0,1,1.857-.345c.856-.178,1.725-.3,2.59-.437a5.591,5.591,0,0,1,1.583-.187c.276.035.47-.214.76-.211,1.333.014,2.661-.143,3.99-.221a38.282,38.282,0,0,1,4.006-.049,13.932,13.932,0,0,1,2.612.175.112.112,0,0,0,.051,0,7.478,7.478,0,0,1,2.354.192c.82.042,1.6.287,2.425.329.49.025.987.319,1.455.266.7-.078,1.21.346,1.829.451.437.074.865.212,1.3.305.345.074.664.266,1,.375,1.143.366,2.209.909,3.305,1.373.96.407,1.891.881,2.8,1.361a23.144,23.144,0,0,1,3.883,2.7.692.692,0,0,1,.257.57c-.024.968-.018,1.936-.024,2.9a.1.1,0,0,0-.139.1" transform="translate(-14.393 -102.245)" fill="#f8f9fb"/>
        <path id="Trazado_824501" data-name="Trazado 824501" d="M111.069,97.431H99.747c-.136,0-.272,0-.408-.008-.434-.011-.717-.187-.718-.663,0-1.427-.012-2.853-.011-4.279,0-.47.293-.654.72-.663.527-.011,1.054-.009,1.581-.009l21.012,0c1.633,0,1.633,0,1.633,1.63q0,1.5,0,3.006c0,.768-.194.968-.96.969q-5.762,0-11.526,0Z" transform="translate(-58.258 -54.24)" fill="#7195d1"/>
        <path id="Trazado_824502" data-name="Trazado 824502" d="M47.493,26.234h10c.723,0,.724,0,.735.7.007.476,0,.952.021,1.427.011.308-.061.449-.427.431-2.328-.114-4.659-.029-6.988-.054a3.463,3.463,0,0,0-.608.062,1.546,1.546,0,0,0-1.3,1.522,1.618,1.618,0,0,0,1.358,1.435,8.868,8.868,0,0,0,1.069.042c2.092,0,4.184,0,6.276-.022.486-.005.466.2.306.525a3.271,3.271,0,0,1-3.066,2c-2.262.025-4.524.008-6.786.01-3.572,0-7.143,0-10.715.02-.386,0-.509-.115-.491-.492a14.573,14.573,0,0,0,0-1.643c-.025-.376.15-.412.45-.41q2.627.018,5.255.015a7.194,7.194,0,0,0,.967-.045,1.5,1.5,0,0,0,1.3-1.522,1.456,1.456,0,0,0-1.378-1.443c-1.92-.068-3.843-.074-5.763,0-.8.03-.818.05-.819-.735,0-.464.02-.929-.011-1.39-.026-.377.13-.439.47-.437,2.279.016,4.558.012,6.837.013h3.317Z" transform="translate(-21.78 -15.492)" fill="#df7e83"/>
        <path id="Trazado_824503" data-name="Trazado 824503" d="M232.4,30.284c0-1.206.012-2.413-.008-3.619-.006-.339.1-.44.43-.434a20.244,20.244,0,0,1,2.785.126,3.947,3.947,0,0,1,3.029,3.581,4.33,4.33,0,0,1-.486,2.348,3.97,3.97,0,0,1-3.389,2.014c-.645.034-1.293,0-1.937.039-.35.019-.434-.113-.43-.437.014-1.206.006-2.413.006-3.619" transform="translate(-137.296 -15.497)" fill="#e9b04c"/>
        <path id="Trazado_824504" data-name="Trazado 824504" d="M177.881,42.338c-2.5,0-5-.006-7.5.006-.4,0-.6-.071-.561-.534.043-.578.007-1.162,0-1.743,0-.159.088-.211.218-.221.186-.015.373-.025.559-.025q7.371,0,14.743-.011c.415,0,.579.092.536.541a7.835,7.835,0,0,0,0,1.476c.039.417-.093.521-.5.518-2.5-.018-5-.009-7.5-.009Z" transform="translate(-100.326 -23.519)" fill="#df7e83"/>
        <path id="Trazado_824505" data-name="Trazado 824505" d="M178.04,26.239c2.48,0,4.96.007,7.44-.007.378,0,.549.061.514.5a10.466,10.466,0,0,0,.028,1.577c.027.381-.1.5-.485.488-4.381-.122-8.764-.032-13.146-.057-.629,0-1.258-.007-1.885.027-.417.023-.535-.139-.5-.535a7.26,7.26,0,0,0,0-1.373c-.063-.542.153-.639.647-.634,2.463.024,4.926.011,7.389.011Z" transform="translate(-100.43 -15.492)" fill="#df7e83"/>
        <path id="Trazado_824506" data-name="Trazado 824506" d="M17.833,31.1q0,1.478,0,2.957c0,.6-.014.628-.584.39-1.017-.424-2.021-.88-3.028-1.329q-2.067-.923-4.13-1.857c-.1-.046-.27-.047-.273-.192,0-.171.173-.181.292-.233,1.718-.748,3.435-1.493,5.129-2.3.651-.309,1.33-.586,2.01-.843.569-.215.593-.2.593.4q0,1.5,0,3.008Z" transform="translate(-5.8 -16.287)" fill="#df7e83"/>
        <path id="Trazado_824507" data-name="Trazado 824507" d="M219.944,30.28c0,1.223,0,2.446,0,3.669,0,.237-.015.377-.32.37-.935-.02-1.87-.018-2.8,0-.282,0-.384-.077-.383-.372q.017-3.7,0-7.39c0-.277.094-.336.354-.334.918.009,1.837.009,2.754-.022.34-.011.389.119.386.412-.014,1.223-.006,2.447-.006,3.67h.012" transform="translate(-127.871 -15.477)" fill="#feebe3"/>
        <path id="Trazado_824508" data-name="Trazado 824508" d="M17.61,196.708a.32.32,0,0,1,.006.335c-.208-.108-.212-.219-.006-.335" transform="translate(-10.314 -116.213)" fill="#7195d1"/>
        <path id="Trazado_824509" data-name="Trazado 824509" d="M113.486,202.879c.006-.048.012-.1.018-.144.131-.013.194.074.277.2l-.295-.054" transform="translate(-67.047 -119.773)" fill="#7195d1"/>
        <path id="Trazado_824510" data-name="Trazado 824510" d="M123.722,200.119a.1.1,0,0,1,.139-.1.1.1,0,0,1,0,.172c-.064.045-.125.02-.134-.072" transform="translate(-73.094 -118.167)" fill="#7195d1"/>
        <path id="Trazado_824511" data-name="Trazado 824511" d="M17.913,203.047v.006h-.023Z" transform="translate(-10.57 -119.959)" fill="#7195d1"/>
        <path id="Trazado_824512" data-name="Trazado 824512" d="M112.472,203.067c.027-.069.059-.08.1-.008l-.1.008" transform="translate(-66.447 -119.936)" fill="#7195d1"/>
      </g>
    </g>
  </g>
</svg>
