<svg xmlns="http://www.w3.org/2000/svg" xmlns:xlink="http://www.w3.org/1999/xlink" width="169" height="169" viewBox="0 0 169 169">
  <defs>
    <clipPath id="clip-path">
      <rect id="Rectángulo_378481" data-name="Rectángulo 378481" width="132" height="121.93" fill="none"/>
    </clipPath>
  </defs>
  <g id="Grupo_1074868" data-name="Grupo 1074868" transform="translate(-385.5 -2058.1)">
    <g id="Grupo_1074732" data-name="Grupo 1074732">
      <g id="Grupo_159182" data-name="Grupo 159182" transform="translate(385.5 2058.1)">
        <path id="Unión_12" data-name="Unión 12" d="M84.5,0A84.5,84.5,0,1,1,0,84.5,84.5,84.5,0,0,1,84.5,0Z" transform="translate(0 0)" fill="#ffae7e"/>
      </g>
      <g id="Grupo_1074876" data-name="Grupo 1074876" transform="translate(399.5 2079.281)">
        <path id="Trazado_824867" data-name="Trazado 824867" d="M16.568,45.44,44.3,25.878l-.545-4.006-26.369-2Z" transform="translate(18.87 22.63)" fill="#af75e1"/>
        <g id="Grupo_1074875" data-name="Grupo 1074875" transform="translate(0 0)">
          <g id="Grupo_1074874" data-name="Grupo 1074874" clip-path="url(#clip-path)">
            <path id="Trazado_824868" data-name="Trazado 824868" d="M53.024,22.011c2.2-5.563-4.3-11.193-10.4-14.763-4.113-2.406-7.433-3.121-11.54,1.129-2.618,2.71-15.869,18.75-14.194,31.449a51.318,51.318,0,0,0,25.267.361S48.318,33.9,53.024,22.011" transform="translate(19.069 6.052)" fill="#56a0fd"/>
            <path id="Trazado_824869" data-name="Trazado 824869" d="M34.7,3.676S39.328,9.4,38.648,9.607s-.881,1.568-1.587,2.473a6.512,6.512,0,0,0-.877,4.2c.051,1.172-1.683,1.123-2.783.533-4.736-2.55-6.087-6.182-4.145-6.81C33.624,8.591,34.7,3.676,34.7,3.676" transform="translate(32.345 4.187)" fill="#ffbe9e"/>
            <path id="Trazado_824870" data-name="Trazado 824870" d="M34.344,12.319c.706-.9.9-2.267,1.587-2.47s-4.312-6.385-4.312-6.385a5.6,5.6,0,0,1-.823,3.217c-.156,3.623,1.673,6.261,2.712,8.075a5.867,5.867,0,0,1,.836-2.436" transform="translate(35.063 3.946)" fill="#ff9c81"/>
            <path id="Trazado_824871" data-name="Trazado 824871" d="M42.7,4.868c.858,3.446-1.908,10.714-6.425,11.591-2.483.481-5.8-4.838-5.315-9.861a9.09,9.09,0,0,1,4.639-5.371c1.489-.785,6.209.06,7.1,3.64" transform="translate(35.202 1.091)" fill="#ffbe9e"/>
            <path id="Trazado_824872" data-name="Trazado 824872" d="M42.368,12.543c-.289.351,2.314-3.878.37-5.878-.789-.813-1.339.27-2.415-.477C39.4,5.551,38.212,1.7,35.036,7.681c-.154.289-.625.389-.92.522-.364.158-.43,1.144-.687,1.448s-.4-1.345-.625-1.033c-.34.473-.575,2.359-1.363,2.008-.381-.171-.355-.986-.449-1.341a14.851,14.851,0,0,1-.77-2.984,6.337,6.337,0,0,1,.888-3.347A5.985,5.985,0,0,1,33.479.482,4.4,4.4,0,0,1,36.991.268a16.4,16.4,0,0,0,1.979.873c.616.141,1.142.477,1.765.62A2.465,2.465,0,0,0,42,1.654a3.375,3.375,0,0,1,2.958.7A2.8,2.8,0,0,1,45.8,5.226c-.182.565-.565,1.164-.317,1.7a5.843,5.843,0,0,1,.329.556,1.107,1.107,0,0,1-.006.607,4.643,4.643,0,0,1-1.8,2.612,4.088,4.088,0,0,0-.98.847c-.229.327-.4.68-.659.992" transform="translate(34.416 0)" fill="#282738"/>
            <path id="Trazado_824873" data-name="Trazado 824873" d="M33.735,6s-.46-2.684-1.662-2.99-1.9,3.08.175,4.212S33.919,6.77,33.735,6" transform="translate(35.218 3.403)" fill="#ffbe9e"/>
            <path id="Trazado_824874" data-name="Trazado 824874" d="M31.722,53.515s1.063,1.243,2.314,2.926,2.19,3.439.438,4.244-3.878-1.17-4.567-2.342-1.469-1.042-2.415-1.82-.449-3.664-.449-3.664Z" transform="translate(30.647 60.202)" fill="#e79e30"/>
            <path id="Trazado_824875" data-name="Trazado 824875" d="M21.765,33.011c2.56,3.238,11.078,55.394,11.078,55.394,2.56,2.15,6.4,0,6.4,0,2.774-26.6-.657-66.1-.657-66.1S19.2,36.249,21.765,33.011" transform="translate(24.524 25.41)" fill="#af75e1"/>
            <path id="Trazado_824876" data-name="Trazado 824876" d="M27.758,22.814c3.155,21.563,5.946,44.345,3.67,66.091-.051.5-.845.509-.794,0,2.269-21.682-.5-44.385-3.643-65.879-.073-.5.691-.717.766-.212" transform="translate(30.737 25.657)" fill="#9c67d3"/>
            <path id="Trazado_824877" data-name="Trazado 824877" d="M28.784,22.914c-.034,2.162.034,8.224,3.127,8.222a.4.4,0,0,1,0,.794c-3.786,0-3.963-6.365-3.921-9.016a.4.4,0,0,1,.794,0" transform="translate(31.874 25.662)" fill="#9c67d3"/>
            <path id="Trazado_824878" data-name="Trazado 824878" d="M19.209,53.915s-1.063,1.243-2.314,2.926-2.19,3.439-.438,4.244,3.88-1.17,4.567-2.342,1.469-1.042,2.415-1.82.449-3.664.449-3.664Z" transform="translate(17.645 60.658)" fill="#e79e30"/>
            <path id="Trazado_824879" data-name="Trazado 824879" d="M34.68,33.622C32.119,36.86,23.6,89.014,23.6,89.014c-2.56,2.152-6.4,0-6.4,0-2.772-26.593.233-66.487.233-66.487S37.238,36.86,34.68,33.622" transform="translate(18.255 25.657)" fill="#af75e1"/>
            <path id="Trazado_824880" data-name="Trazado 824880" d="M22.2,23.425c-3.146,21.492-5.912,44.2-3.645,65.882.053.507-.742.5-.794,0-2.276-21.749.518-44.528,3.67-66.093.075-.5.838-.289.768.212" transform="translate(19.289 26.113)" fill="#9c67d3"/>
            <path id="Trazado_824881" data-name="Trazado 824881" d="M20.693,23.315c.043,2.65-.135,9.018-3.921,9.016a.4.4,0,0,1,0-.794c3.1,0,3.163-6.057,3.127-8.222a.4.4,0,0,1,.794,0" transform="translate(18.666 26.118)" fill="#9c67d3"/>
            <path id="Trazado_824882" data-name="Trazado 824882" d="M33.428,4.788c-.024-.053.03.056.043.075a1.081,1.081,0,0,0,.167.216.559.559,0,0,0,.785-.015c.16-.116.325.154.167.267a.933.933,0,0,1-1.461-.462c-.081-.186.218-.263.3-.081" transform="translate(37.715 5.336)" fill="#201714"/>
            <path id="Trazado_824883" data-name="Trazado 824883" d="M34.977,5.346a1.065,1.065,0,0,0,.111.338c.175.336.464.291.755.128.173-.1.34.171.167.267a.808.808,0,0,1-1.063-.06,1.271,1.271,0,0,1-.282-.672c-.03-.2.284-.2.312,0" transform="translate(39.479 5.922)" fill="#201714"/>
            <path id="Trazado_824884" data-name="Trazado 824884" d="M36.311,5.242a.942.942,0,0,0-1.277-.195c-.212.124-.381-.216-.171-.34a1.3,1.3,0,0,1,1.735.284c.156.188-.128.438-.287.25" transform="translate(39.598 5.123)" fill="#4d2f20"/>
            <path id="Trazado_824885" data-name="Trazado 824885" d="M34.744,4.934A.942.942,0,0,0,33.568,4.4c-.237.062-.308-.312-.073-.374a1.3,1.3,0,0,1,1.594.742c.1.225-.244.389-.344.165" transform="translate(37.984 4.527)" fill="#4d2f20"/>
            <path id="Trazado_824886" data-name="Trazado 824886" d="M35.316,4.929a1.913,1.913,0,0,0-.612.864c-.141.49.21.971.248,1.474.053.693-.475.749-1.144.548-.163-.049-.118-.265.043-.216,1.5.453.438-1.151.584-1.807a2.014,2.014,0,0,1,.689-1.042c.107-.092.3.088.193.18" transform="translate(38.39 5.381)" fill="#7c4930"/>
            <path id="Trazado_824887" data-name="Trazado 824887" d="M34.168,8.271s1.114-.687.483-1.57A1.261,1.261,0,0,0,33,6.41Z" transform="translate(37.587 7.08)" fill="#faffff"/>
            <path id="Trazado_824888" data-name="Trazado 824888" d="M32.383,5.751a.74.74,0,1,0,.9-.539.743.743,0,0,0-.9.539" transform="translate(36.857 5.913)" fill="#ff9c81"/>
            <path id="Trazado_824889" data-name="Trazado 824889" d="M36.047,6.571a.748.748,0,1,0-.471.948.748.748,0,0,0,.471-.948" transform="translate(39.395 6.903)" fill="#ff9c81"/>
            <rect id="Rectángulo_378465" data-name="Rectángulo 378465" width="28.273" height="20.134" transform="translate(90.394 77.13)" fill="#d98853"/>
            <rect id="Rectángulo_378466" data-name="Rectángulo 378466" width="15.912" height="20.134" transform="translate(77.609 77.13)" fill="#c16d3e"/>
            <rect id="Rectángulo_378467" data-name="Rectángulo 378467" width="4.331" height="12.87" transform="translate(96.284 79.297)" fill="#f3a277"/>
            <rect id="Rectángulo_378468" data-name="Rectángulo 378468" width="13.379" height="1.146" transform="translate(103.294 79.297)" fill="#f3a277"/>
            <rect id="Rectángulo_378469" data-name="Rectángulo 378469" width="13.379" height="1.146" transform="translate(103.294 80.826)" fill="#f3a277"/>
            <rect id="Rectángulo_378470" data-name="Rectángulo 378470" width="38.037" height="25.038" transform="translate(87.848 95.386)" fill="#d98853"/>
            <rect id="Rectángulo_378471" data-name="Rectángulo 378471" width="21.409" height="25.038" transform="translate(70.645 95.386)" fill="#c16d3e"/>
            <path id="Trazado_824890" data-name="Trazado 824890" d="M82.985,53.482H49.154l-6.117-8.887H76.87Z" transform="translate(49.016 50.791)" fill="#f3a277"/>
            <path id="Trazado_824891" data-name="Trazado 824891" d="M29.448,53.482H52.576l6.115-8.887H35.565Z" transform="translate(33.539 50.791)" fill="#f3a277"/>
            <rect id="Rectángulo_378472" data-name="Rectángulo 378472" width="28.416" height="8.156" transform="translate(95.303 106.885)" fill="#f3a277"/>
            <path id="Trazado_824892" data-name="Trazado 824892" d="M16.685,25.295s17.02,3.3,27.663-1.78l-.727-2.71A53.474,53.474,0,0,1,16.955,22.18Z" transform="translate(19.003 23.696)" fill="#9c67d3"/>
            <path id="Trazado_824893" data-name="Trazado 824893" d="M25.586,21.556l1.1-.342,1.878,4.156-2.252.706Z" transform="translate(29.141 24.161)" fill="#282738"/>
            <rect id="Rectángulo_378473" data-name="Rectángulo 378473" width="24.172" height="16.722" transform="translate(69.434 18.282)" fill="#d98853"/>
            <rect id="Rectángulo_378474" data-name="Rectángulo 378474" width="13.606" height="16.722" transform="translate(58.5 18.282)" fill="#af5b31"/>
            <path id="Trazado_824894" data-name="Trazado 824894" d="M59.1,14.483H37.6L33.711,8.547h21.5Z" transform="translate(38.395 9.735)" fill="#f3a277"/>
            <path id="Trazado_824895" data-name="Trazado 824895" d="M25.075,14.483h14.7L43.66,8.547h-14.7Z" transform="translate(28.559 9.735)" fill="#f3a277"/>
            <rect id="Rectángulo_378475" data-name="Rectángulo 378475" width="18.059" height="5.446" transform="translate(74.172 25.962)" fill="#f3a277"/>
            <rect id="Rectángulo_378476" data-name="Rectángulo 378476" width="25.015" height="22.155" transform="translate(65.924 34.048)" fill="#d98853"/>
            <rect id="Rectángulo_378477" data-name="Rectángulo 378477" width="14.079" height="22.155" transform="translate(54.611 34.048)" fill="#c16d3e"/>
            <rect id="Rectángulo_378478" data-name="Rectángulo 378478" width="3.833" height="14.162" transform="translate(71.135 36.433)" fill="#f3a277"/>
            <rect id="Rectángulo_378479" data-name="Rectángulo 378479" width="11.839" height="1.262" transform="translate(77.336 36.433)" fill="#f3a277"/>
            <rect id="Rectángulo_378480" data-name="Rectángulo 378480" width="11.839" height="1.262" transform="translate(77.336 38.114)" fill="#f3a277"/>
            <path id="Trazado_824896" data-name="Trazado 824896" d="M16.5,13s7.7-6.853,13.054-6.618,6.162,4.543,6.162,4.543-12.278,2.426-16.243,6.652S16.5,13,16.5,13" transform="translate(18.665 7.262)" fill="#ffbe9e"/>
            <path id="Trazado_824897" data-name="Trazado 824897" d="M37.387,7.294C33.009.634,18.753,10.248,18.753,10.248l3.328,7.927S41.655,13.788,37.387,7.294" transform="translate(21.359 5.632)" fill="#3f8fd8"/>
            <path id="Trazado_824898" data-name="Trazado 824898" d="M16.339,11.3c-1.2,4.271-.083,15.976-.083,15.976l2.828-1.987,2.977-14.38s-4.5-3.957-5.722.391" transform="translate(17.978 10.551)" fill="#ffbe9e"/>
            <path id="Trazado_824899" data-name="Trazado 824899" d="M19.748,18.079a5.093,5.093,0,0,0,1.005.622,6.238,6.238,0,0,1,1.51,1.561c.244.323,1.138.712,1,1.215-.225.823-1.534-.231-1.9-.355a.841.841,0,0,0-.958.207,1.068,1.068,0,0,0-.126.669,21.555,21.555,0,0,0,.314,2.188c.06.379.094.755.13,1.136a4.044,4.044,0,0,1,.128.933.39.39,0,0,1-.5.329c-.207-.083-.175-.3-.227-.483-.113-.406-.24-.813-.368-1.215-.028-.09-.1-.511-.2-.548-.471-.182-.293.952-.274,1.131a2.267,2.267,0,0,1-.141,1.352.213.213,0,0,1-.133.122c-.1.015-.169-.09-.205-.182-.216-.539-.231-1.144-.46-1.677-.039-.088-.1-.184-.19-.193-.379-.032-.419.729-.453.977-.021.156-.064.349-.216.387a.263.263,0,0,1-.265-.12.776.776,0,0,1-.1-.291,7.823,7.823,0,0,1-.173-.909c-.011-.145,0-.582-.2-.61a.148.148,0,0,0-.109.041.787.787,0,0,0-.182.385c-.045.137-.133.284-.274.3-.178.019-.3-.171-.357-.34a6.572,6.572,0,0,1-.218-1.919c-.021-.676-.013-1.354.028-2.03a22.058,22.058,0,0,1,.319-2.676,3.516,3.516,0,0,1,.986-2.173,3.01,3.01,0,0,1,.6-.359,2.977,2.977,0,0,1,.86-.308,1.214,1.214,0,0,1,.879.169.23.23,0,0,1,.086.09.276.276,0,0,1,.017.156,8.34,8.34,0,0,0-.073,1.221,2.112,2.112,0,0,0,.436,1.194" transform="translate(17.769 17.348)" fill="#ffbe9e"/>
            <path id="Trazado_824900" data-name="Trazado 824900" d="M40.491,26.448c-.145-.361-.026-1.3-.509-1.433-.794-.222-.571,1.386-.648,1.745a.813.813,0,0,1-.648.691,1,1,0,0,1-.616-.229,20.04,20.04,0,0,1-1.656-1.348c-.284-.24-.58-.453-.877-.674a4.024,4.024,0,0,0-.708-.571.378.378,0,0,0-.52.25c-.034.212.163.293.287.426.282.3.554.6.826.909.058.068.372.338.355.436-.086.479-.935-.231-1.074-.336a2.193,2.193,0,0,0-1.189-.556.206.206,0,0,0-.167.049c-.062.073-.011.184.047.259.338.449.832.761,1.161,1.217.051.075.1.171.062.252-.163.329-.811-.015-1.033-.111-.141-.06-.321-.12-.43-.013a.256.256,0,0,0-.032.28.783.783,0,0,0,.19.229,7.285,7.285,0,0,0,.667.595c.116.081.479.293.4.473a.136.136,0,0,1-.088.068.75.75,0,0,1-.409-.039.373.373,0,0,0-.385.077c-.1.137-.006.334.1.466a6.4,6.4,0,0,0,1.48,1.134,5.408,5.408,0,0,0,1.938.744c3.692.592,3.728-4.342,3.467-4.992" transform="translate(37.694 28.021)" fill="#ffbe9e"/>
            <path id="Trazado_824901" data-name="Trazado 824901" d="M20.977,21.618h1.514l.357,4.532H20.354Z" transform="translate(23.182 24.622)" fill="#af75e1"/>
            <path id="Trazado_824902" data-name="Trazado 824902" d="M31.708,23.053l-11.191-.086,2.113,5.767L0,22.9l17.165.133L15.291,17.62Z" transform="translate(0 20.068)" fill="#ffd500"/>
            <path id="Trazado_824903" data-name="Trazado 824903" d="M22.991,26.147l-5.2-5.029-1.583,3.638L8.228,11.945,16.2,19.658l1.538-3.369Z" transform="translate(9.372 13.605)" fill="#ffd500"/>
            <path id="Trazado_824904" data-name="Trazado 824904" d="M18.392,21.134l-2.239,6.875,3.963-.173L12.1,40.63l3.437-10.543-3.7.094Z" transform="translate(13.484 24.071)" fill="#ffd500"/>
          </g>
        </g>
      </g>
    </g>
  </g>
</svg>
